<?xml version="1.0" encoding="UTF-8" standalone="no"?>
<!DOCTYPE svg PUBLIC "-//W3C//DTD SVG 1.1//EN"
 "http://www.w3.org/Graphics/SVG/1.1/DTD/svg11.dtd">
<!-- Generated by graphviz version 12.2.1 (20241206.2353)
 -->
<!-- Title: Common/Helper/DebugPrint.cpp Pages: 1 -->
<svg width="254pt" height="138pt"
 viewBox="0.00 0.00 254.25 137.75" xmlns="http://www.w3.org/2000/svg" xmlns:xlink="http://www.w3.org/1999/xlink">
<g id="graph0" class="graph" transform="scale(1 1) rotate(0) translate(4 133.75)">
<title>Common/Helper/DebugPrint.cpp</title>
<!-- Node1 -->
<g id="Node000001" class="node">
<title>Node1</title>
<g id="a_Node000001"><a xlink:title=" ">
<polygon fill="#999999" stroke="#666666" points="205.38,-129.75 47.62,-129.75 47.62,-110.5 205.38,-110.5 205.38,-129.75"/>
<text text-anchor="middle" x="126.5" y="-116.25" font-family="Helvetica,sans-Serif" font-size="10.00">Common/Helper/DebugPrint.cpp</text>
</a>
</g>
</g>
<!-- Node2 -->
<g id="Node000002" class="node">
<title>Node2</title>
<g id="a_Node000002"><a xlink:href="_debug_print_8h.html" target="_top" xlink:title=" ">
<polygon fill="white" stroke="#666666" points="73,-74.5 0,-74.5 0,-55.25 73,-55.25 73,-74.5"/>
<text text-anchor="middle" x="36.5" y="-61" font-family="Helvetica,sans-Serif" font-size="10.00">DebugPrint.h</text>
</a>
</g>
</g>
<!-- Node1&#45;&gt;Node2 -->
<g id="edge1_Node000001_Node000002" class="edge">
<title>Node1&#45;&gt;Node2</title>
<g id="a_edge1_Node000001_Node000002"><a xlink:title=" ">
<path fill="none" stroke="#63b8ff" d="M111.23,-110.09C97.66,-102.06 77.55,-90.16 61.6,-80.73"/>
<polygon fill="#63b8ff" stroke="#63b8ff" points="63.53,-77.8 53.14,-75.72 59.97,-83.83 63.53,-77.8"/>
</a>
</g>
</g>
<!-- Node3 -->
<g id="Node000003" class="node">
<title>Node3</title>
<g id="a_Node000003"><a xlink:title=" ">
<polygon fill="#e0e0e0" stroke="#999999" points="88.5,-19.25 48.5,-19.25 48.5,0 88.5,0 88.5,-19.25"/>
<text text-anchor="middle" x="68.5" y="-5.75" font-family="Helvetica,sans-Serif" font-size="10.00">string</text>
</a>
</g>
</g>
<!-- Node1&#45;&gt;Node3 -->
<g id="edge4_Node000001_Node000003" class="edge">
<title>Node1&#45;&gt;Node3</title>
<g id="a_edge4_Node000001_Node000003"><a xlink:title=" ">
<path fill="none" stroke="#63b8ff" d="M121.75,-110.25C112.36,-92.68 91.24,-53.16 78.6,-29.52"/>
<polygon fill="#63b8ff" stroke="#63b8ff" points="81.83,-28.13 74.03,-20.96 75.65,-31.43 81.83,-28.13"/>
</a>
</g>
</g>
<!-- Node4 -->
<g id="Node000004" class="node">
<title>Node4</title>
<g id="a_Node000004"><a xlink:title=" ">
<polygon fill="#e0e0e0" stroke="#999999" points="175.12,-74.5 129.88,-74.5 129.88,-55.25 175.12,-55.25 175.12,-74.5"/>
<text text-anchor="middle" x="152.5" y="-61" font-family="Helvetica,sans-Serif" font-size="10.00">stdio.h</text>
</a>
</g>
</g>
<!-- Node1&#45;&gt;Node4 -->
<g id="edge3_Node000001_Node000004" class="edge">
<title>Node1&#45;&gt;Node4</title>
<g id="a_edge3_Node000001_Node000004"><a xlink:title=" ">
<path fill="none" stroke="#63b8ff" d="M130.79,-110.33C134.12,-103.51 138.86,-93.81 143.06,-85.2"/>
<polygon fill="#63b8ff" stroke="#63b8ff" points="146.21,-86.74 147.45,-76.22 139.92,-83.67 146.21,-86.74"/>
</a>
</g>
</g>
<!-- Node5 -->
<g id="Node000005" class="node">
<title>Node5</title>
<g id="a_Node000005"><a xlink:title=" ">
<polygon fill="#e0e0e0" stroke="#999999" points="246.25,-74.5 192.75,-74.5 192.75,-55.25 246.25,-55.25 246.25,-74.5"/>
<text text-anchor="middle" x="219.5" y="-61" font-family="Helvetica,sans-Serif" font-size="10.00">iostream</text>
</a>
</g>
</g>
<!-- Node1&#45;&gt;Node5 -->
<g id="edge5_Node000001_Node000005" class="edge">
<title>Node1&#45;&gt;Node5</title>
<g id="a_edge5_Node000001_Node000005"><a xlink:title=" ">
<path fill="none" stroke="#63b8ff" d="M142.28,-110.09C156.44,-101.98 177.48,-89.93 194.03,-80.46"/>
<polygon fill="#63b8ff" stroke="#63b8ff" points="195.39,-83.71 202.33,-75.7 191.92,-77.64 195.39,-83.71"/>
</a>
</g>
</g>
<!-- Node2&#45;&gt;Node3 -->
<g id="edge2_Node000002_Node000003" class="edge">
<title>Node2&#45;&gt;Node3</title>
<g id="a_edge2_Node000002_Node000003"><a xlink:title=" ">
<path fill="none" stroke="#63b8ff" d="M41.78,-55.08C45.97,-48.11 51.98,-38.12 57.23,-29.37"/>
<polygon fill="#63b8ff" stroke="#63b8ff" points="60.17,-31.28 62.32,-20.91 54.17,-27.68 60.17,-31.28"/>
</a>
</g>
</g>
</g>
</svg>
