<?xml version="1.0" encoding="UTF-8" standalone="no"?>
<!DOCTYPE svg PUBLIC "-//W3C//DTD SVG 1.1//EN"
 "http://www.w3.org/Graphics/SVG/1.1/DTD/svg11.dtd">
<!-- Generated by graphviz version 12.2.1 (20241206.2353)
 -->
<!-- Title: Common/Helper/DebugPrint.h Pages: 1 -->
<svg width="1378pt" height="293pt"
 viewBox="0.00 0.00 1377.75 293.25" xmlns="http://www.w3.org/2000/svg" xmlns:xlink="http://www.w3.org/1999/xlink">
<g id="graph0" class="graph" transform="scale(1 1) rotate(0) translate(4 289.25)">
<title>Common/Helper/DebugPrint.h</title>
<!-- Node1 -->
<g id="Node000001" class="node">
<title>Node1</title>
<g id="a_Node000001"><a xlink:title=" ">
<polygon fill="#999999" stroke="#666666" points="688.38,-285.25 541.12,-285.25 541.12,-266 688.38,-266 688.38,-285.25"/>
<text text-anchor="middle" x="614.75" y="-271.75" font-family="Helvetica,sans-Serif" font-size="10.00">Common/Helper/DebugPrint.h</text>
</a>
</g>
</g>
<!-- Node2 -->
<g id="Node000002" class="node">
<title>Node2</title>
<g id="a_Node000002"><a xlink:href="ssplayer__cellmap_8cpp.html" target="_top" xlink:title=" ">
<polygon fill="white" stroke="#666666" points="137.5,-30.5 0,-30.5 0,0 137.5,0 137.5,-30.5"/>
<text text-anchor="start" x="8" y="-17" font-family="Helvetica,sans-Serif" font-size="10.00">Common/Animator/ssplayer</text>
<text text-anchor="middle" x="68.75" y="-5.75" font-family="Helvetica,sans-Serif" font-size="10.00">_cellmap.cpp</text>
</a>
</g>
</g>
<!-- Node1&#45;&gt;Node2 -->
<g id="edge1_Node000001_Node000002" class="edge">
<title>Node1&#45;&gt;Node2</title>
<g id="a_edge1_Node000001_Node000002"><a xlink:title=" ">
<path fill="none" stroke="#63b8ff" d="M529.59,-275.06C420.38,-274.06 238.53,-266.69 183.75,-230 110.93,-181.22 80.52,-70.6 71.68,-30.83"/>
<polygon fill="#63b8ff" stroke="#63b8ff" points="529.36,-278.55 539.39,-275.13 529.41,-271.56 529.36,-278.55"/>
</a>
</g>
</g>
<!-- Node3 -->
<g id="Node000003" class="node">
<title>Node3</title>
<g id="a_Node000003"><a xlink:href="_debug_print_8cpp.html" target="_top" xlink:title=" ">
<polygon fill="white" stroke="#666666" points="350.62,-224.38 192.88,-224.38 192.88,-205.12 350.62,-205.12 350.62,-224.38"/>
<text text-anchor="middle" x="271.75" y="-210.88" font-family="Helvetica,sans-Serif" font-size="10.00">Common/Helper/DebugPrint.cpp</text>
</a>
</g>
</g>
<!-- Node1&#45;&gt;Node3 -->
<g id="edge2_Node000001_Node000003" class="edge">
<title>Node1&#45;&gt;Node3</title>
<g id="a_edge2_Node000001_Node000003"><a xlink:title=" ">
<path fill="none" stroke="#63b8ff" d="M550.95,-263.67C485.74,-252.48 385.61,-235.29 324.65,-224.83"/>
<polygon fill="#63b8ff" stroke="#63b8ff" points="549.97,-267.06 560.42,-265.3 551.15,-260.16 549.97,-267.06"/>
</a>
</g>
</g>
<!-- Node4 -->
<g id="Node000004" class="node">
<title>Node4</title>
<g id="a_Node000004"><a xlink:href="_issh_texture_8cpp.html" target="_top" xlink:title=" ">
<polygon fill="white" stroke="#666666" points="528.75,-224.38 368.75,-224.38 368.75,-205.12 528.75,-205.12 528.75,-224.38"/>
<text text-anchor="middle" x="448.75" y="-210.88" font-family="Helvetica,sans-Serif" font-size="10.00">Common/Helper/IsshTexture.cpp</text>
</a>
</g>
</g>
<!-- Node1&#45;&gt;Node4 -->
<g id="edge3_Node000001_Node000004" class="edge">
<title>Node1&#45;&gt;Node4</title>
<g id="a_edge3_Node000001_Node000004"><a xlink:title=" ">
<path fill="none" stroke="#63b8ff" d="M578.65,-261.82C547.16,-250.65 502.27,-234.73 474.35,-224.83"/>
<polygon fill="#63b8ff" stroke="#63b8ff" points="577.16,-265 587.75,-265.05 579.49,-258.41 577.16,-265"/>
</a>
</g>
</g>
<!-- Node5 -->
<g id="Node000005" class="node">
<title>Node5</title>
<g id="a_Node000005"><a xlink:href="ss_helper_8h.html" target="_top" xlink:title=" ">
<polygon fill="white" stroke="#666666" points="683.12,-224.38 546.38,-224.38 546.38,-205.12 683.12,-205.12 683.12,-224.38"/>
<text text-anchor="middle" x="614.75" y="-210.88" font-family="Helvetica,sans-Serif" font-size="10.00">Common/Helper/ssHelper.h</text>
</a>
</g>
</g>
<!-- Node1&#45;&gt;Node5 -->
<g id="edge4_Node000001_Node000005" class="edge">
<title>Node1&#45;&gt;Node5</title>
<g id="a_edge4_Node000001_Node000005"><a xlink:title=" ">
<path fill="none" stroke="#63b8ff" d="M614.75,-254.2C614.75,-244.17 614.75,-232.58 614.75,-224.78"/>
<polygon fill="#63b8ff" stroke="#63b8ff" points="611.25,-254.17 614.75,-264.17 618.25,-254.17 611.25,-254.17"/>
</a>
</g>
</g>
<!-- Node18 -->
<g id="Node000018" class="node">
<title>Node18</title>
<g id="a_Node000018"><a xlink:href="ssattribute_8cpp.html" target="_top" xlink:title=" ">
<polygon fill="white" stroke="#666666" points="856.5,-224.38 701,-224.38 701,-205.12 856.5,-205.12 856.5,-224.38"/>
<text text-anchor="middle" x="778.75" y="-210.88" font-family="Helvetica,sans-Serif" font-size="10.00">Common/Loader/ssattribute.cpp</text>
</a>
</g>
</g>
<!-- Node1&#45;&gt;Node18 -->
<g id="edge19_Node000001_Node000018" class="edge">
<title>Node1&#45;&gt;Node18</title>
<g id="a_edge19_Node000001_Node000018"><a xlink:title=" ">
<path fill="none" stroke="#63b8ff" d="M650.83,-261.67C681.91,-250.51 726,-234.69 753.46,-224.83"/>
<polygon fill="#63b8ff" stroke="#63b8ff" points="649.67,-258.37 641.44,-265.04 652.03,-264.96 649.67,-258.37"/>
</a>
</g>
</g>
<!-- Node19 -->
<g id="Node000019" class="node">
<title>Node19</title>
<g id="a_Node000019"><a xlink:href="ssloader__ssee_8cpp.html" target="_top" xlink:title=" ">
<polygon fill="white" stroke="#666666" points="1002.62,-230 874.88,-230 874.88,-199.5 1002.62,-199.5 1002.62,-230"/>
<text text-anchor="start" x="882.88" y="-216.5" font-family="Helvetica,sans-Serif" font-size="10.00">Common/Loader/ssloader</text>
<text text-anchor="middle" x="938.75" y="-205.25" font-family="Helvetica,sans-Serif" font-size="10.00">_ssee.cpp</text>
</a>
</g>
</g>
<!-- Node1&#45;&gt;Node19 -->
<g id="edge20_Node000001_Node000019" class="edge">
<title>Node1&#45;&gt;Node19</title>
<g id="a_edge20_Node000001_Node000019"><a xlink:title=" ">
<path fill="none" stroke="#63b8ff" d="M678.32,-263.63C729.1,-254.77 802.04,-241.88 865.75,-230 868.67,-229.46 871.65,-228.89 874.67,-228.32"/>
<polygon fill="#63b8ff" stroke="#63b8ff" points="677.94,-260.14 668.69,-265.31 679.14,-267.04 677.94,-260.14"/>
</a>
</g>
</g>
<!-- Node20 -->
<g id="Node000020" class="node">
<title>Node20</title>
<g id="a_Node000020"><a xlink:href="ssloader__sspj_8cpp.html" target="_top" xlink:title=" ">
<polygon fill="white" stroke="#666666" points="1148.62,-230 1020.88,-230 1020.88,-199.5 1148.62,-199.5 1148.62,-230"/>
<text text-anchor="start" x="1028.88" y="-216.5" font-family="Helvetica,sans-Serif" font-size="10.00">Common/Loader/ssloader</text>
<text text-anchor="middle" x="1084.75" y="-205.25" font-family="Helvetica,sans-Serif" font-size="10.00">_sspj.cpp</text>
</a>
</g>
</g>
<!-- Node1&#45;&gt;Node20 -->
<g id="edge21_Node000001_Node000020" class="edge">
<title>Node1&#45;&gt;Node20</title>
<g id="a_edge21_Node000001_Node000020"><a xlink:title=" ">
<path fill="none" stroke="#63b8ff" d="M699.59,-267.09C780.15,-259.47 904.54,-246.46 1011.75,-230 1014.69,-229.55 1017.68,-229.06 1020.71,-228.56"/>
<polygon fill="#63b8ff" stroke="#63b8ff" points="699.66,-263.57 690.03,-267.99 700.31,-270.54 699.66,-263.57"/>
</a>
</g>
</g>
<!-- Node6 -->
<g id="Node000006" class="node">
<title>Node6</title>
<g id="a_Node000006"><a xlink:href="ssplayer__animedecode_8h.html" target="_top" xlink:title=" ">
<polygon fill="white" stroke="#666666" points="683.5,-97 546,-97 546,-66.5 683.5,-66.5 683.5,-97"/>
<text text-anchor="start" x="554" y="-83.5" font-family="Helvetica,sans-Serif" font-size="10.00">Common/Animator/ssplayer</text>
<text text-anchor="middle" x="614.75" y="-72.25" font-family="Helvetica,sans-Serif" font-size="10.00">_animedecode.h</text>
</a>
</g>
</g>
<!-- Node5&#45;&gt;Node6 -->
<g id="edge5_Node000005_Node000006" class="edge">
<title>Node5&#45;&gt;Node6</title>
<g id="a_edge5_Node000005_Node000006"><a xlink:title=" ">
<path fill="none" stroke="#63b8ff" d="M578.51,-199.92C562.69,-191.86 545.73,-179.97 536.75,-163.5 530.26,-151.6 530.26,-144.9 536.75,-133 545.46,-117.02 561.68,-105.36 577.08,-97.31"/>
<polygon fill="#63b8ff" stroke="#63b8ff" points="576.73,-202.95 587.27,-204.03 579.7,-196.62 576.73,-202.95"/>
</a>
</g>
</g>
<!-- Node15 -->
<g id="Node000015" class="node">
<title>Node15</title>
<g id="a_Node000015"><a xlink:href="ssplayer__types_8h.html" target="_top" xlink:title=" ">
<polygon fill="white" stroke="#666666" points="683.5,-163.5 546,-163.5 546,-133 683.5,-133 683.5,-163.5"/>
<text text-anchor="start" x="554" y="-150" font-family="Helvetica,sans-Serif" font-size="10.00">Common/Animator/ssplayer</text>
<text text-anchor="middle" x="614.75" y="-138.75" font-family="Helvetica,sans-Serif" font-size="10.00">_types.h</text>
</a>
</g>
</g>
<!-- Node5&#45;&gt;Node15 -->
<g id="edge15_Node000005_Node000015" class="edge">
<title>Node5&#45;&gt;Node15</title>
<g id="a_edge15_Node000005_Node000015"><a xlink:title=" ">
<path fill="none" stroke="#63b8ff" d="M614.75,-193.37C614.75,-183.69 614.75,-172.35 614.75,-163.59"/>
<polygon fill="#63b8ff" stroke="#63b8ff" points="611.25,-193.27 614.75,-203.27 618.25,-193.27 611.25,-193.27"/>
</a>
</g>
</g>
<!-- Node16 -->
<g id="Node000016" class="node">
<title>Node16</title>
<g id="a_Node000016"><a xlink:href="_s_s_texture_d_x9_8cpp.html" target="_top" xlink:title=" ">
<polygon fill="white" stroke="#666666" points="824.38,-163.5 701.12,-163.5 701.12,-133 824.38,-133 824.38,-163.5"/>
<text text-anchor="start" x="709.12" y="-150" font-family="Helvetica,sans-Serif" font-size="10.00">Common/Helper/DirectX</text>
<text text-anchor="middle" x="762.75" y="-138.75" font-family="Helvetica,sans-Serif" font-size="10.00">/SSTextureDX9.cpp</text>
</a>
</g>
</g>
<!-- Node5&#45;&gt;Node16 -->
<g id="edge17_Node000005_Node000016" class="edge">
<title>Node5&#45;&gt;Node16</title>
<g id="a_edge17_Node000005_Node000016"><a xlink:title=" ">
<path fill="none" stroke="#63b8ff" d="M646.11,-200.08C670.48,-189.46 704.21,-174.76 729.14,-163.9"/>
<polygon fill="#63b8ff" stroke="#63b8ff" points="644.8,-196.84 637.03,-204.04 647.59,-203.25 644.8,-196.84"/>
</a>
</g>
</g>
<!-- Node17 -->
<g id="Node000017" class="node">
<title>Node17</title>
<g id="a_Node000017"><a xlink:href="ssh_texture_b_m_p_8cpp.html" target="_top" xlink:title=" ">
<polygon fill="white" stroke="#666666" points="980.88,-163.5 842.62,-163.5 842.62,-133 980.88,-133 980.88,-163.5"/>
<text text-anchor="start" x="850.62" y="-150" font-family="Helvetica,sans-Serif" font-size="10.00">Common/Helper/sshTexture</text>
<text text-anchor="middle" x="911.75" y="-138.75" font-family="Helvetica,sans-Serif" font-size="10.00">BMP.cpp</text>
</a>
</g>
</g>
<!-- Node5&#45;&gt;Node17 -->
<g id="edge18_Node000005_Node000017" class="edge">
<title>Node5&#45;&gt;Node17</title>
<g id="a_edge18_Node000005_Node000017"><a xlink:title=" ">
<path fill="none" stroke="#63b8ff" d="M667.71,-202.25C716.95,-191.56 790.52,-175.58 844.01,-163.96"/>
<polygon fill="#63b8ff" stroke="#63b8ff" points="667.18,-198.78 658.15,-204.32 668.67,-205.62 667.18,-198.78"/>
</a>
</g>
</g>
<!-- Node6&#45;&gt;Node2 -->
<g id="edge8_Node000006_Node000002" class="edge">
<title>Node6&#45;&gt;Node2</title>
<g id="a_edge8_Node000006_Node000002"><a xlink:title=" ">
<path fill="none" stroke="#63b8ff" d="M534.22,-73.92C440.79,-65.58 282.22,-50.12 146.75,-30.5 143.75,-30.07 140.69,-29.6 137.61,-29.11"/>
<polygon fill="#63b8ff" stroke="#63b8ff" points="533.78,-77.4 544.05,-74.79 534.4,-70.42 533.78,-77.4"/>
</a>
</g>
</g>
<!-- Node7 -->
<g id="Node000007" class="node">
<title>Node7</title>
<g id="a_Node000007"><a xlink:href="ssplayer___part_state_8cpp.html" target="_top" xlink:title=" ">
<polygon fill="white" stroke="#666666" points="293.5,-30.5 156,-30.5 156,0 293.5,0 293.5,-30.5"/>
<text text-anchor="start" x="164" y="-17" font-family="Helvetica,sans-Serif" font-size="10.00">Common/Animator/ssplayer</text>
<text text-anchor="middle" x="224.75" y="-5.75" font-family="Helvetica,sans-Serif" font-size="10.00">_PartState.cpp</text>
</a>
</g>
</g>
<!-- Node6&#45;&gt;Node7 -->
<g id="edge6_Node000006_Node000007" class="edge">
<title>Node6&#45;&gt;Node7</title>
<g id="a_edge6_Node000006_Node000007"><a xlink:title=" ">
<path fill="none" stroke="#63b8ff" d="M534.53,-68.31C471.47,-58.41 381.43,-44.02 302.75,-30.5 299.77,-29.99 296.72,-29.46 293.64,-28.92"/>
<polygon fill="#63b8ff" stroke="#63b8ff" points="533.68,-71.71 544.1,-69.8 534.76,-64.8 533.68,-71.71"/>
</a>
</g>
</g>
<!-- Node8 -->
<g id="Node000008" class="node">
<title>Node8</title>
<g id="a_Node000008"><a xlink:href="ssplayer__animedecode_8cpp.html" target="_top" xlink:title=" ">
<polygon fill="white" stroke="#666666" points="449.5,-30.5 312,-30.5 312,0 449.5,0 449.5,-30.5"/>
<text text-anchor="start" x="320" y="-17" font-family="Helvetica,sans-Serif" font-size="10.00">Common/Animator/ssplayer</text>
<text text-anchor="middle" x="380.75" y="-5.75" font-family="Helvetica,sans-Serif" font-size="10.00">_animedecode.cpp</text>
</a>
</g>
</g>
<!-- Node6&#45;&gt;Node8 -->
<g id="edge7_Node000006_Node000008" class="edge">
<title>Node6&#45;&gt;Node8</title>
<g id="a_edge7_Node000006_Node000008"><a xlink:title=" ">
<path fill="none" stroke="#63b8ff" d="M550.3,-62.99C513.71,-52.9 468.46,-40.43 433.91,-30.9"/>
<polygon fill="#63b8ff" stroke="#63b8ff" points="549.33,-66.35 559.9,-65.63 551.19,-59.6 549.33,-66.35"/>
</a>
</g>
</g>
<!-- Node9 -->
<g id="Node000009" class="node">
<title>Node9</title>
<g id="a_Node000009"><a xlink:href="ssplayer__effect_8cpp.html" target="_top" xlink:title=" ">
<polygon fill="white" stroke="#666666" points="605.5,-30.5 468,-30.5 468,0 605.5,0 605.5,-30.5"/>
<text text-anchor="start" x="476" y="-17" font-family="Helvetica,sans-Serif" font-size="10.00">Common/Animator/ssplayer</text>
<text text-anchor="middle" x="536.75" y="-5.75" font-family="Helvetica,sans-Serif" font-size="10.00">_effect.cpp</text>
</a>
</g>
</g>
<!-- Node6&#45;&gt;Node9 -->
<g id="edge9_Node000006_Node000009" class="edge">
<title>Node6&#45;&gt;Node9</title>
<g id="a_edge9_Node000006_Node000009"><a xlink:title=" ">
<path fill="none" stroke="#63b8ff" d="M588.47,-59.02C577.24,-49.73 564.44,-39.15 554.38,-30.83"/>
<polygon fill="#63b8ff" stroke="#63b8ff" points="585.95,-61.47 595.88,-65.15 590.41,-56.08 585.95,-61.47"/>
</a>
</g>
</g>
<!-- Node10 -->
<g id="Node000010" class="node">
<title>Node10</title>
<g id="a_Node000010"><a xlink:href="ssplayer__effect2_8cpp.html" target="_top" xlink:title=" ">
<polygon fill="white" stroke="#666666" points="761.5,-30.5 624,-30.5 624,0 761.5,0 761.5,-30.5"/>
<text text-anchor="start" x="632" y="-17" font-family="Helvetica,sans-Serif" font-size="10.00">Common/Animator/ssplayer</text>
<text text-anchor="middle" x="692.75" y="-5.75" font-family="Helvetica,sans-Serif" font-size="10.00">_effect2.cpp</text>
</a>
</g>
</g>
<!-- Node6&#45;&gt;Node10 -->
<g id="edge10_Node000006_Node000010" class="edge">
<title>Node6&#45;&gt;Node10</title>
<g id="a_edge10_Node000006_Node000010"><a xlink:title=" ">
<path fill="none" stroke="#63b8ff" d="M641.03,-59.02C652.26,-49.73 665.06,-39.15 675.12,-30.83"/>
<polygon fill="#63b8ff" stroke="#63b8ff" points="639.09,-56.08 633.62,-65.15 643.55,-61.47 639.09,-56.08"/>
</a>
</g>
</g>
<!-- Node11 -->
<g id="Node000011" class="node">
<title>Node11</title>
<g id="a_Node000011"><a xlink:href="ssplayer__effectfunction_8cpp.html" target="_top" xlink:title=" ">
<polygon fill="white" stroke="#666666" points="917.5,-30.5 780,-30.5 780,0 917.5,0 917.5,-30.5"/>
<text text-anchor="start" x="788" y="-17" font-family="Helvetica,sans-Serif" font-size="10.00">Common/Animator/ssplayer</text>
<text text-anchor="middle" x="848.75" y="-5.75" font-family="Helvetica,sans-Serif" font-size="10.00">_effectfunction.cpp</text>
</a>
</g>
</g>
<!-- Node6&#45;&gt;Node11 -->
<g id="edge11_Node000006_Node000011" class="edge">
<title>Node6&#45;&gt;Node11</title>
<g id="a_edge11_Node000006_Node000011"><a xlink:title=" ">
<path fill="none" stroke="#63b8ff" d="M679.2,-62.99C715.79,-52.9 761.04,-40.43 795.59,-30.9"/>
<polygon fill="#63b8ff" stroke="#63b8ff" points="678.31,-59.6 669.6,-65.63 680.17,-66.35 678.31,-59.6"/>
</a>
</g>
</g>
<!-- Node12 -->
<g id="Node000012" class="node">
<title>Node12</title>
<g id="a_Node000012"><a xlink:href="ssplayer__mesh_8cpp.html" target="_top" xlink:title=" ">
<polygon fill="white" stroke="#666666" points="1073.5,-30.5 936,-30.5 936,0 1073.5,0 1073.5,-30.5"/>
<text text-anchor="start" x="944" y="-17" font-family="Helvetica,sans-Serif" font-size="10.00">Common/Animator/ssplayer</text>
<text text-anchor="middle" x="1004.75" y="-5.75" font-family="Helvetica,sans-Serif" font-size="10.00">_mesh.cpp</text>
</a>
</g>
</g>
<!-- Node6&#45;&gt;Node12 -->
<g id="edge12_Node000006_Node000012" class="edge">
<title>Node6&#45;&gt;Node12</title>
<g id="a_edge12_Node000006_Node000012"><a xlink:title=" ">
<path fill="none" stroke="#63b8ff" d="M694.97,-68.31C758.03,-58.41 848.07,-44.02 926.75,-30.5 929.73,-29.99 932.78,-29.46 935.86,-28.92"/>
<polygon fill="#63b8ff" stroke="#63b8ff" points="694.74,-64.8 685.4,-69.8 695.82,-71.71 694.74,-64.8"/>
</a>
</g>
</g>
<!-- Node13 -->
<g id="Node000013" class="node">
<title>Node13</title>
<g id="a_Node000013"><a xlink:href="ssplayer__render__dx9_8cpp.html" target="_top" xlink:title=" ">
<polygon fill="white" stroke="#666666" points="1221.75,-30.5 1091.75,-30.5 1091.75,0 1221.75,0 1221.75,-30.5"/>
<text text-anchor="start" x="1099.75" y="-17" font-family="Helvetica,sans-Serif" font-size="10.00">Common/Drawer/ssplayer</text>
<text text-anchor="middle" x="1156.75" y="-5.75" font-family="Helvetica,sans-Serif" font-size="10.00">_render_dx9.cpp</text>
</a>
</g>
</g>
<!-- Node6&#45;&gt;Node13 -->
<g id="edge13_Node000006_Node000013" class="edge">
<title>Node6&#45;&gt;Node13</title>
<g id="a_edge13_Node000006_Node000013"><a xlink:title=" ">
<path fill="none" stroke="#63b8ff" d="M695.32,-74.15C788.78,-66.03 947.37,-50.77 1082.75,-30.5 1085.6,-30.07 1088.5,-29.62 1091.43,-29.13"/>
<polygon fill="#63b8ff" stroke="#63b8ff" points="695.14,-70.66 685.48,-75 695.74,-77.63 695.14,-70.66"/>
</a>
</g>
</g>
<!-- Node14 -->
<g id="Node000014" class="node">
<title>Node14</title>
<g id="a_Node000014"><a xlink:href="ssplayer__render__gl_8cpp.html" target="_top" xlink:title=" ">
<polygon fill="white" stroke="#666666" points="1369.75,-30.5 1239.75,-30.5 1239.75,0 1369.75,0 1369.75,-30.5"/>
<text text-anchor="start" x="1247.75" y="-17" font-family="Helvetica,sans-Serif" font-size="10.00">Common/Drawer/ssplayer</text>
<text text-anchor="middle" x="1304.75" y="-5.75" font-family="Helvetica,sans-Serif" font-size="10.00">_render_gl.cpp</text>
</a>
</g>
</g>
<!-- Node6&#45;&gt;Node14 -->
<g id="edge14_Node000006_Node000014" class="edge">
<title>Node6&#45;&gt;Node14</title>
<g id="a_edge14_Node000006_Node000014"><a xlink:title=" ">
<path fill="none" stroke="#63b8ff" d="M695.26,-76.98C813.18,-70.83 1039.64,-56.62 1230.75,-30.5 1233.6,-30.11 1236.51,-29.68 1239.44,-29.23"/>
<polygon fill="#63b8ff" stroke="#63b8ff" points="695.16,-73.48 685.35,-77.49 695.52,-80.47 695.16,-73.48"/>
</a>
</g>
</g>
<!-- Node15&#45;&gt;Node6 -->
<g id="edge16_Node000015_Node000006" class="edge">
<title>Node15&#45;&gt;Node6</title>
<g id="a_edge16_Node000015_Node000006"><a xlink:title=" ">
<path fill="none" stroke="#63b8ff" d="M614.75,-121.31C614.75,-113.14 614.75,-104.41 614.75,-97.33"/>
<polygon fill="#63b8ff" stroke="#63b8ff" points="611.25,-121.1 614.75,-131.1 618.25,-121.1 611.25,-121.1"/>
</a>
</g>
</g>
</g>
</svg>
