<?xml version="1.0" encoding="UTF-8" standalone="no"?>
<!DOCTYPE svg PUBLIC "-//W3C//DTD SVG 1.1//EN"
 "http://www.w3.org/Graphics/SVG/1.1/DTD/svg11.dtd">
<!-- Generated by graphviz version 12.2.1 (20241206.2353)
 -->
<!-- Title: Common/Helper/IsshTexture.cpp Pages: 1 -->
<svg width="388pt" height="193pt"
 viewBox="0.00 0.00 388.38 193.00" xmlns="http://www.w3.org/2000/svg" xmlns:xlink="http://www.w3.org/1999/xlink">
<g id="graph0" class="graph" transform="scale(1 1) rotate(0) translate(4 189)">
<title>Common/Helper/IsshTexture.cpp</title>
<!-- Node1 -->
<g id="Node000001" class="node">
<title>Node1</title>
<g id="a_Node000001"><a xlink:title=" ">
<polygon fill="#999999" stroke="#666666" points="329.75,-185 169.75,-185 169.75,-165.75 329.75,-165.75 329.75,-185"/>
<text text-anchor="middle" x="249.75" y="-171.5" font-family="Helvetica,sans-Serif" font-size="10.00">Common/Helper/IsshTexture.cpp</text>
</a>
</g>
</g>
<!-- Node2 -->
<g id="Node000002" class="node">
<title>Node2</title>
<g id="a_Node000002"><a xlink:href="sstypes_8h.html" target="_top" xlink:title=" ">
<polygon fill="white" stroke="#666666" points="186.75,-74.5 86.75,-74.5 86.75,-55.25 186.75,-55.25 186.75,-74.5"/>
<text text-anchor="middle" x="136.75" y="-61" font-family="Helvetica,sans-Serif" font-size="10.00">../Loader/sstypes.h</text>
</a>
</g>
</g>
<!-- Node1&#45;&gt;Node2 -->
<g id="edge1_Node000001_Node000002" class="edge">
<title>Node1&#45;&gt;Node2</title>
<g id="a_edge1_Node000001_Node000002"><a xlink:title=" ">
<path fill="none" stroke="#63b8ff" d="M225.63,-165.36C208.36,-157.93 185.46,-145.97 169.75,-129.75 157.53,-117.13 148.77,-99.07 143.36,-85.38"/>
<polygon fill="#63b8ff" stroke="#63b8ff" points="146.7,-84.33 139.99,-76.13 140.13,-86.73 146.7,-84.33"/>
</a>
</g>
</g>
<!-- Node8 -->
<g id="Node000008" class="node">
<title>Node8</title>
<g id="a_Node000008"><a xlink:href="_issh_texture_8h.html" target="_top" xlink:title=" ">
<polygon fill="white" stroke="#666666" points="254.38,-129.75 179.12,-129.75 179.12,-110.5 254.38,-110.5 254.38,-129.75"/>
<text text-anchor="middle" x="216.75" y="-116.25" font-family="Helvetica,sans-Serif" font-size="10.00">IsshTexture.h</text>
</a>
</g>
</g>
<!-- Node1&#45;&gt;Node8 -->
<g id="edge7_Node000001_Node000008" class="edge">
<title>Node1&#45;&gt;Node8</title>
<g id="a_edge7_Node000001_Node000008"><a xlink:title=" ">
<path fill="none" stroke="#63b8ff" d="M244.3,-165.58C239.98,-158.61 233.79,-148.62 228.37,-139.87"/>
<polygon fill="#63b8ff" stroke="#63b8ff" points="231.36,-138.05 223.11,-131.4 225.41,-141.74 231.36,-138.05"/>
</a>
</g>
</g>
<!-- Node10 -->
<g id="Node000010" class="node">
<title>Node10</title>
<g id="a_Node000010"><a xlink:href="_debug_print_8h.html" target="_top" xlink:title=" ">
<polygon fill="white" stroke="#666666" points="370.5,-74.5 257,-74.5 257,-55.25 370.5,-55.25 370.5,-74.5"/>
<text text-anchor="middle" x="313.75" y="-61" font-family="Helvetica,sans-Serif" font-size="10.00">../Helper/DebugPrint.h</text>
</a>
</g>
</g>
<!-- Node1&#45;&gt;Node10 -->
<g id="edge10_Node000001_Node000010" class="edge">
<title>Node1&#45;&gt;Node10</title>
<g id="a_edge10_Node000001_Node000010"><a xlink:title=" ">
<path fill="none" stroke="#63b8ff" d="M254.99,-165.5C265.35,-147.93 288.66,-108.41 302.61,-84.77"/>
<polygon fill="#63b8ff" stroke="#63b8ff" points="305.61,-86.57 307.67,-76.18 299.58,-83.02 305.61,-86.57"/>
</a>
</g>
</g>
<!-- Node11 -->
<g id="Node000011" class="node">
<title>Node11</title>
<g id="a_Node000011"><a xlink:title=" ">
<polygon fill="#e0e0e0" stroke="#999999" points="380.38,-129.75 311.12,-129.75 311.12,-110.5 380.38,-110.5 380.38,-129.75"/>
<text text-anchor="middle" x="345.75" y="-116.25" font-family="Helvetica,sans-Serif" font-size="10.00">stb_image.h</text>
</a>
</g>
</g>
<!-- Node1&#45;&gt;Node11 -->
<g id="edge12_Node000001_Node000011" class="edge">
<title>Node1&#45;&gt;Node11</title>
<g id="a_edge12_Node000001_Node000011"><a xlink:title=" ">
<path fill="none" stroke="#63b8ff" d="M266.04,-165.34C280.65,-157.23 302.38,-145.18 319.46,-135.71"/>
<polygon fill="#63b8ff" stroke="#63b8ff" points="321.01,-138.85 328.06,-130.94 317.62,-132.73 321.01,-138.85"/>
</a>
</g>
</g>
<!-- Node3 -->
<g id="Node000003" class="node">
<title>Node3</title>
<g id="a_Node000003"><a xlink:title=" ">
<polygon fill="#e0e0e0" stroke="#999999" points="47.5,-19.25 0,-19.25 0,0 47.5,0 47.5,-19.25"/>
<text text-anchor="middle" x="23.75" y="-5.75" font-family="Helvetica,sans-Serif" font-size="10.00">stdlib.h</text>
</a>
</g>
</g>
<!-- Node2&#45;&gt;Node3 -->
<g id="edge2_Node000002_Node000003" class="edge">
<title>Node2&#45;&gt;Node3</title>
<g id="a_edge2_Node000002_Node000003"><a xlink:title=" ">
<path fill="none" stroke="#63b8ff" d="M117.58,-54.84C99.97,-46.54 73.59,-34.11 53.29,-24.54"/>
<polygon fill="#63b8ff" stroke="#63b8ff" points="54.92,-21.44 44.38,-20.35 51.94,-27.78 54.92,-21.44"/>
</a>
</g>
</g>
<!-- Node4 -->
<g id="Node000004" class="node">
<title>Node4</title>
<g id="a_Node000004"><a xlink:title=" ">
<polygon fill="#e0e0e0" stroke="#999999" points="322.75,-19.25 282.75,-19.25 282.75,0 322.75,0 322.75,-19.25"/>
<text text-anchor="middle" x="302.75" y="-5.75" font-family="Helvetica,sans-Serif" font-size="10.00">string</text>
</a>
</g>
</g>
<!-- Node2&#45;&gt;Node4 -->
<g id="edge3_Node000002_Node000004" class="edge">
<title>Node2&#45;&gt;Node4</title>
<g id="a_edge3_Node000002_Node000004"><a xlink:title=" ">
<path fill="none" stroke="#63b8ff" d="M164.91,-54.84C194.44,-45.37 240.73,-30.52 271.4,-20.68"/>
<polygon fill="#63b8ff" stroke="#63b8ff" points="272.43,-24.03 280.88,-17.64 270.29,-17.36 272.43,-24.03"/>
</a>
</g>
</g>
<!-- Node5 -->
<g id="Node000005" class="node">
<title>Node5</title>
<g id="a_Node000005"><a xlink:title=" ">
<polygon fill="#e0e0e0" stroke="#999999" points="108.25,-19.25 65.25,-19.25 65.25,0 108.25,0 108.25,-19.25"/>
<text text-anchor="middle" x="86.75" y="-5.75" font-family="Helvetica,sans-Serif" font-size="10.00">vector</text>
</a>
</g>
</g>
<!-- Node2&#45;&gt;Node5 -->
<g id="edge4_Node000002_Node000005" class="edge">
<title>Node2&#45;&gt;Node5</title>
<g id="a_edge4_Node000002_Node000005"><a xlink:title=" ">
<path fill="none" stroke="#63b8ff" d="M128.49,-55.08C121.59,-47.73 111.53,-37.01 103.01,-27.94"/>
<polygon fill="#63b8ff" stroke="#63b8ff" points="105.62,-25.61 96.22,-20.71 100.52,-30.4 105.62,-25.61"/>
</a>
</g>
</g>
<!-- Node6 -->
<g id="Node000006" class="node">
<title>Node6</title>
<g id="a_Node000006"><a xlink:title=" ">
<polygon fill="#e0e0e0" stroke="#999999" points="169.25,-19.25 126.25,-19.25 126.25,0 169.25,0 169.25,-19.25"/>
<text text-anchor="middle" x="147.75" y="-5.75" font-family="Helvetica,sans-Serif" font-size="10.00">cmath</text>
</a>
</g>
</g>
<!-- Node2&#45;&gt;Node6 -->
<g id="edge5_Node000002_Node000006" class="edge">
<title>Node2&#45;&gt;Node6</title>
<g id="a_edge5_Node000002_Node000006"><a xlink:title=" ">
<path fill="none" stroke="#63b8ff" d="M138.57,-55.08C139.93,-48.49 141.85,-39.21 143.58,-30.82"/>
<polygon fill="#63b8ff" stroke="#63b8ff" points="146.99,-31.59 145.59,-21.09 140.14,-30.18 146.99,-31.59"/>
</a>
</g>
</g>
<!-- Node7 -->
<g id="Node000007" class="node">
<title>Node7</title>
<g id="a_Node000007"><a xlink:title=" ">
<polygon fill="#e0e0e0" stroke="#999999" points="242.62,-19.25 186.88,-19.25 186.88,0 242.62,0 242.62,-19.25"/>
<text text-anchor="middle" x="214.75" y="-5.75" font-family="Helvetica,sans-Serif" font-size="10.00">algorithm</text>
</a>
</g>
</g>
<!-- Node2&#45;&gt;Node7 -->
<g id="edge6_Node000002_Node000007" class="edge">
<title>Node2&#45;&gt;Node7</title>
<g id="a_edge6_Node000002_Node000007"><a xlink:title=" ">
<path fill="none" stroke="#63b8ff" d="M149.98,-54.84C161.52,-46.96 178.52,-35.36 192.2,-26.02"/>
<polygon fill="#63b8ff" stroke="#63b8ff" points="193.92,-29.08 200.2,-20.56 189.97,-23.3 193.92,-29.08"/>
</a>
</g>
</g>
<!-- Node8&#45;&gt;Node2 -->
<g id="edge8_Node000008_Node000002" class="edge">
<title>Node8&#45;&gt;Node2</title>
<g id="a_edge8_Node000008_Node000002"><a xlink:title=" ">
<path fill="none" stroke="#63b8ff" d="M203.18,-110.09C191.34,-102.21 173.91,-90.61 159.88,-81.27"/>
<polygon fill="#63b8ff" stroke="#63b8ff" points="161.91,-78.42 151.65,-75.79 158.03,-84.25 161.91,-78.42"/>
</a>
</g>
</g>
<!-- Node9 -->
<g id="Node000009" class="node">
<title>Node9</title>
<g id="a_Node000009"><a xlink:title=" ">
<polygon fill="#e0e0e0" stroke="#999999" points="239.12,-74.5 204.38,-74.5 204.38,-55.25 239.12,-55.25 239.12,-74.5"/>
<text text-anchor="middle" x="221.75" y="-61" font-family="Helvetica,sans-Serif" font-size="10.00">map</text>
</a>
</g>
</g>
<!-- Node8&#45;&gt;Node9 -->
<g id="edge9_Node000008_Node000009" class="edge">
<title>Node8&#45;&gt;Node9</title>
<g id="a_edge9_Node000008_Node000009"><a xlink:title=" ">
<path fill="none" stroke="#63b8ff" d="M217.58,-110.33C218.19,-103.74 219.07,-94.46 219.85,-86.07"/>
<polygon fill="#63b8ff" stroke="#63b8ff" points="223.31,-86.65 220.76,-76.37 216.35,-86 223.31,-86.65"/>
</a>
</g>
</g>
<!-- Node10&#45;&gt;Node4 -->
<g id="edge11_Node000010_Node000004" class="edge">
<title>Node10&#45;&gt;Node4</title>
<g id="a_edge11_Node000010_Node000004"><a xlink:title=" ">
<path fill="none" stroke="#63b8ff" d="M311.93,-55.08C310.57,-48.49 308.65,-39.21 306.92,-30.82"/>
<polygon fill="#63b8ff" stroke="#63b8ff" points="310.36,-30.18 304.91,-21.09 303.51,-31.59 310.36,-30.18"/>
</a>
</g>
</g>
</g>
</svg>
