<?xml version="1.0" encoding="UTF-8" standalone="no"?>
<!DOCTYPE svg PUBLIC "-//W3C//DTD SVG 1.1//EN"
 "http://www.w3.org/Graphics/SVG/1.1/DTD/svg11.dtd">
<!-- Generated by graphviz version 10.0.1 (20240210.2158)
 -->
<!-- Title: Common/Helper/IsshTexture.h Pages: 1 -->
<svg width="1378pt" height="293pt"
 viewBox="0.00 0.00 1378.00 293.25" xmlns="http://www.w3.org/2000/svg" xmlns:xlink="http://www.w3.org/1999/xlink">
<g id="graph0" class="graph" transform="scale(1 1) rotate(0) translate(4 289.25)">
<title>Common/Helper/IsshTexture.h</title>
<!-- Node1 -->
<g id="Node000001" class="node">
<title>Node1</title>
<g id="a_Node000001"><a xlink:title=" ">
<polygon fill="#999999" stroke="#666666" points="963.75,-285.25 814.25,-285.25 814.25,-266 963.75,-266 963.75,-285.25"/>
<text text-anchor="middle" x="889" y="-271.75" font-family="Helvetica,sans-Serif" font-size="10.00">Common/Helper/IsshTexture.h</text>
</a>
</g>
</g>
<!-- Node2 -->
<g id="Node000002" class="node">
<title>Node2</title>
<g id="a_Node000002"><a xlink:href="_s_s_texture_d_x9_8h.html" target="_top" xlink:title=" ">
<polygon fill="white" stroke="#666666" points="607.62,-230 484.38,-230 484.38,-199.5 607.62,-199.5 607.62,-230"/>
<text text-anchor="start" x="492.38" y="-216.5" font-family="Helvetica,sans-Serif" font-size="10.00">Common/Helper/DirectX</text>
<text text-anchor="middle" x="546" y="-205.25" font-family="Helvetica,sans-Serif" font-size="10.00">/SSTextureDX9.h</text>
</a>
</g>
</g>
<!-- Node1&#45;&gt;Node2 -->
<g id="edge1_Node000001_Node000002" class="edge">
<title>Node1&#45;&gt;Node2</title>
<g id="a_edge1_Node000001_Node000002"><a xlink:title=" ">
<path fill="none" stroke="#63b8ff" d="M824.94,-263.63C762.84,-252.97 669.27,-236.91 607.9,-226.38"/>
<polygon fill="#63b8ff" stroke="#63b8ff" points="824.22,-267.06 834.67,-265.3 825.4,-260.16 824.22,-267.06"/>
</a>
</g>
</g>
<!-- Node5 -->
<g id="Node000005" class="node">
<title>Node5</title>
<g id="a_Node000005"><a xlink:href="_issh_texture_8cpp.html" target="_top" xlink:title=" ">
<polygon fill="white" stroke="#666666" points="1280,-224.38 1120,-224.38 1120,-205.12 1280,-205.12 1280,-224.38"/>
<text text-anchor="middle" x="1200" y="-210.88" font-family="Helvetica,sans-Serif" font-size="10.00">Common/Helper/IsshTexture.cpp</text>
</a>
</g>
</g>
<!-- Node1&#45;&gt;Node5 -->
<g id="edge4_Node000001_Node000005" class="edge">
<title>Node1&#45;&gt;Node5</title>
<g id="a_edge4_Node000001_Node000005"><a xlink:title=" ">
<path fill="none" stroke="#63b8ff" d="M947.95,-263.47C1007.1,-252.27 1097.11,-235.23 1152.03,-224.83"/>
<polygon fill="#63b8ff" stroke="#63b8ff" points="947.57,-259.97 938.4,-265.27 948.88,-266.85 947.57,-259.97"/>
</a>
</g>
</g>
<!-- Node6 -->
<g id="Node000006" class="node">
<title>Node6</title>
<g id="a_Node000006"><a xlink:href="_s_s_texture_g_l_8h.html" target="_top" xlink:title=" ">
<polygon fill="white" stroke="#666666" points="1102.12,-230 975.88,-230 975.88,-199.5 1102.12,-199.5 1102.12,-230"/>
<text text-anchor="start" x="983.88" y="-216.5" font-family="Helvetica,sans-Serif" font-size="10.00">Common/Helper/OpenGL</text>
<text text-anchor="middle" x="1039" y="-205.25" font-family="Helvetica,sans-Serif" font-size="10.00">/SSTextureGL.h</text>
</a>
</g>
</g>
<!-- Node1&#45;&gt;Node6 -->
<g id="edge5_Node000001_Node000006" class="edge">
<title>Node1&#45;&gt;Node6</title>
<g id="a_edge5_Node000001_Node000006"><a xlink:title=" ">
<path fill="none" stroke="#63b8ff" d="M922.59,-261.44C946.03,-252.24 977.32,-239.96 1001.56,-230.44"/>
<polygon fill="#63b8ff" stroke="#63b8ff" points="921.55,-258.09 913.52,-265 924.11,-264.61 921.55,-258.09"/>
</a>
</g>
</g>
<!-- Node9 -->
<g id="Node000009" class="node">
<title>Node9</title>
<g id="a_Node000009"><a xlink:href="ss_helper_8h.html" target="_top" xlink:title=" ">
<polygon fill="white" stroke="#666666" points="801.38,-224.38 664.62,-224.38 664.62,-205.12 801.38,-205.12 801.38,-224.38"/>
<text text-anchor="middle" x="733" y="-210.88" font-family="Helvetica,sans-Serif" font-size="10.00">Common/Helper/ssHelper.h</text>
</a>
</g>
</g>
<!-- Node1&#45;&gt;Node9 -->
<g id="edge8_Node000001_Node000009" class="edge">
<title>Node1&#45;&gt;Node9</title>
<g id="a_edge8_Node000001_Node000009"><a xlink:title=" ">
<path fill="none" stroke="#63b8ff" d="M854.29,-261.53C824.75,-250.38 783.07,-234.65 757.06,-224.83"/>
<polygon fill="#63b8ff" stroke="#63b8ff" points="852.96,-264.76 863.55,-265.02 855.43,-258.21 852.96,-264.76"/>
</a>
</g>
</g>
<!-- Node20 -->
<g id="Node000020" class="node">
<title>Node20</title>
<g id="a_Node000020"><a xlink:href="ssh_texture_b_m_p_8h.html" target="_top" xlink:title=" ">
<polygon fill="white" stroke="#666666" points="958.12,-230 819.88,-230 819.88,-199.5 958.12,-199.5 958.12,-230"/>
<text text-anchor="start" x="827.88" y="-216.5" font-family="Helvetica,sans-Serif" font-size="10.00">Common/Helper/sshTexture</text>
<text text-anchor="middle" x="889" y="-205.25" font-family="Helvetica,sans-Serif" font-size="10.00">BMP.h</text>
</a>
</g>
</g>
<!-- Node1&#45;&gt;Node20 -->
<g id="edge23_Node000001_Node000020" class="edge">
<title>Node1&#45;&gt;Node20</title>
<g id="a_edge23_Node000001_Node000020"><a xlink:title=" ">
<path fill="none" stroke="#63b8ff" d="M889,-254.42C889,-246.49 889,-237.56 889,-230.28"/>
<polygon fill="#63b8ff" stroke="#63b8ff" points="885.5,-254.17 889,-264.17 892.5,-254.17 885.5,-254.17"/>
</a>
</g>
</g>
<!-- Node3 -->
<g id="Node000003" class="node">
<title>Node3</title>
<g id="a_Node000003"><a xlink:href="ssplayer__render__dx9_8cpp.html" target="_top" xlink:title=" ">
<polygon fill="white" stroke="#666666" points="130,-30.5 0,-30.5 0,0 130,0 130,-30.5"/>
<text text-anchor="start" x="8" y="-17" font-family="Helvetica,sans-Serif" font-size="10.00">Common/Drawer/ssplayer</text>
<text text-anchor="middle" x="65" y="-5.75" font-family="Helvetica,sans-Serif" font-size="10.00">_render_dx9.cpp</text>
</a>
</g>
</g>
<!-- Node2&#45;&gt;Node3 -->
<g id="edge2_Node000002_Node000003" class="edge">
<title>Node2&#45;&gt;Node3</title>
<g id="a_edge2_Node000002_Node000003"><a xlink:title=" ">
<path fill="none" stroke="#63b8ff" d="M499.74,-194.76C404.11,-155.49 186.42,-66.11 100.67,-30.9"/>
<polygon fill="#63b8ff" stroke="#63b8ff" points="498.26,-197.93 508.84,-198.49 500.92,-191.46 498.26,-197.93"/>
</a>
</g>
</g>
<!-- Node4 -->
<g id="Node000004" class="node">
<title>Node4</title>
<g id="a_Node000004"><a xlink:href="_s_s_texture_d_x9_8cpp.html" target="_top" xlink:title=" ">
<polygon fill="white" stroke="#666666" points="607.62,-163.5 484.38,-163.5 484.38,-133 607.62,-133 607.62,-163.5"/>
<text text-anchor="start" x="492.38" y="-150" font-family="Helvetica,sans-Serif" font-size="10.00">Common/Helper/DirectX</text>
<text text-anchor="middle" x="546" y="-138.75" font-family="Helvetica,sans-Serif" font-size="10.00">/SSTextureDX9.cpp</text>
</a>
</g>
</g>
<!-- Node2&#45;&gt;Node4 -->
<g id="edge3_Node000002_Node000004" class="edge">
<title>Node2&#45;&gt;Node4</title>
<g id="a_edge3_Node000002_Node000004"><a xlink:title=" ">
<path fill="none" stroke="#63b8ff" d="M546,-187.81C546,-179.64 546,-170.91 546,-163.83"/>
<polygon fill="#63b8ff" stroke="#63b8ff" points="542.5,-187.6 546,-197.6 549.5,-187.6 542.5,-187.6"/>
</a>
</g>
</g>
<!-- Node7 -->
<g id="Node000007" class="node">
<title>Node7</title>
<g id="a_Node000007"><a xlink:href="ssplayer__render__gl_8cpp.html" target="_top" xlink:title=" ">
<polygon fill="white" stroke="#666666" points="1370,-30.5 1240,-30.5 1240,0 1370,0 1370,-30.5"/>
<text text-anchor="start" x="1248" y="-17" font-family="Helvetica,sans-Serif" font-size="10.00">Common/Drawer/ssplayer</text>
<text text-anchor="middle" x="1305" y="-5.75" font-family="Helvetica,sans-Serif" font-size="10.00">_render_gl.cpp</text>
</a>
</g>
</g>
<!-- Node6&#45;&gt;Node7 -->
<g id="edge6_Node000006_Node000007" class="edge">
<title>Node6&#45;&gt;Node7</title>
<g id="a_edge6_Node000006_Node000007"><a xlink:title=" ">
<path fill="none" stroke="#63b8ff" d="M1069.89,-192.59C1082.69,-183.72 1097.64,-173.22 1111,-163.5 1176.12,-116.09 1251.75,-57.7 1286.19,-30.93"/>
<polygon fill="#63b8ff" stroke="#63b8ff" points="1068.07,-189.6 1061.83,-198.16 1072.04,-195.36 1068.07,-189.6"/>
</a>
</g>
</g>
<!-- Node8 -->
<g id="Node000008" class="node">
<title>Node8</title>
<g id="a_Node000008"><a xlink:href="_s_s_texture_g_l_8cpp.html" target="_top" xlink:title=" ">
<polygon fill="white" stroke="#666666" points="1102.12,-163.5 975.88,-163.5 975.88,-133 1102.12,-133 1102.12,-163.5"/>
<text text-anchor="start" x="983.88" y="-150" font-family="Helvetica,sans-Serif" font-size="10.00">Common/Helper/OpenGL</text>
<text text-anchor="middle" x="1039" y="-138.75" font-family="Helvetica,sans-Serif" font-size="10.00">/SSTextureGL.cpp</text>
</a>
</g>
</g>
<!-- Node6&#45;&gt;Node8 -->
<g id="edge7_Node000006_Node000008" class="edge">
<title>Node6&#45;&gt;Node8</title>
<g id="a_edge7_Node000006_Node000008"><a xlink:title=" ">
<path fill="none" stroke="#63b8ff" d="M1039,-187.81C1039,-179.64 1039,-170.91 1039,-163.83"/>
<polygon fill="#63b8ff" stroke="#63b8ff" points="1035.5,-187.6 1039,-197.6 1042.5,-187.6 1035.5,-187.6"/>
</a>
</g>
</g>
<!-- Node9&#45;&gt;Node4 -->
<g id="edge21_Node000009_Node000004" class="edge">
<title>Node9&#45;&gt;Node4</title>
<g id="a_edge21_Node000009_Node000004"><a xlink:title=" ">
<path fill="none" stroke="#63b8ff" d="M695.84,-200.93C664.89,-190.26 620.81,-175.05 588.47,-163.9"/>
<polygon fill="#63b8ff" stroke="#63b8ff" points="694.58,-204.2 705.17,-204.15 696.86,-197.58 694.58,-204.2"/>
</a>
</g>
</g>
<!-- Node10 -->
<g id="Node000010" class="node">
<title>Node10</title>
<g id="a_Node000010"><a xlink:href="ssplayer__animedecode_8h.html" target="_top" xlink:title=" ">
<polygon fill="white" stroke="#666666" points="753.75,-97 616.25,-97 616.25,-66.5 753.75,-66.5 753.75,-97"/>
<text text-anchor="start" x="624.25" y="-83.5" font-family="Helvetica,sans-Serif" font-size="10.00">Common/Animator/ssplayer</text>
<text text-anchor="middle" x="685" y="-72.25" font-family="Helvetica,sans-Serif" font-size="10.00">_animedecode.h</text>
</a>
</g>
</g>
<!-- Node9&#45;&gt;Node10 -->
<g id="edge9_Node000009_Node000010" class="edge">
<title>Node9&#45;&gt;Node10</title>
<g id="a_edge9_Node000009_Node000010"><a xlink:title=" ">
<path fill="none" stroke="#63b8ff" d="M696.76,-199.92C680.94,-191.86 663.98,-179.97 655,-163.5 643.04,-141.57 659.45,-113.89 672.31,-97.29"/>
<polygon fill="#63b8ff" stroke="#63b8ff" points="694.98,-202.95 705.52,-204.03 697.95,-196.62 694.98,-202.95"/>
</a>
</g>
</g>
<!-- Node18 -->
<g id="Node000018" class="node">
<title>Node18</title>
<g id="a_Node000018"><a xlink:href="ssplayer__types_8h.html" target="_top" xlink:title=" ">
<polygon fill="white" stroke="#666666" points="801.75,-163.5 664.25,-163.5 664.25,-133 801.75,-133 801.75,-163.5"/>
<text text-anchor="start" x="672.25" y="-150" font-family="Helvetica,sans-Serif" font-size="10.00">Common/Animator/ssplayer</text>
<text text-anchor="middle" x="733" y="-138.75" font-family="Helvetica,sans-Serif" font-size="10.00">_types.h</text>
</a>
</g>
</g>
<!-- Node9&#45;&gt;Node18 -->
<g id="edge19_Node000009_Node000018" class="edge">
<title>Node9&#45;&gt;Node18</title>
<g id="a_edge19_Node000009_Node000018"><a xlink:title=" ">
<path fill="none" stroke="#63b8ff" d="M733,-193.37C733,-183.69 733,-172.35 733,-163.59"/>
<polygon fill="#63b8ff" stroke="#63b8ff" points="729.5,-193.27 733,-203.27 736.5,-193.27 729.5,-193.27"/>
</a>
</g>
</g>
<!-- Node19 -->
<g id="Node000019" class="node">
<title>Node19</title>
<g id="a_Node000019"><a xlink:href="ssh_texture_b_m_p_8cpp.html" target="_top" xlink:title=" ">
<polygon fill="white" stroke="#666666" points="958.12,-163.5 819.88,-163.5 819.88,-133 958.12,-133 958.12,-163.5"/>
<text text-anchor="start" x="827.88" y="-150" font-family="Helvetica,sans-Serif" font-size="10.00">Common/Helper/sshTexture</text>
<text text-anchor="middle" x="889" y="-138.75" font-family="Helvetica,sans-Serif" font-size="10.00">BMP.cpp</text>
</a>
</g>
</g>
<!-- Node9&#45;&gt;Node19 -->
<g id="edge22_Node000009_Node000019" class="edge">
<title>Node9&#45;&gt;Node19</title>
<g id="a_edge22_Node000009_Node000019"><a xlink:title=" ">
<path fill="none" stroke="#63b8ff" d="M765.37,-200.37C791.1,-189.73 827.06,-174.86 853.57,-163.9"/>
<polygon fill="#63b8ff" stroke="#63b8ff" points="764.32,-197.01 756.42,-204.07 767,-203.48 764.32,-197.01"/>
</a>
</g>
</g>
<!-- Node10&#45;&gt;Node3 -->
<g id="edge17_Node000010_Node000003" class="edge">
<title>Node10&#45;&gt;Node3</title>
<g id="a_edge17_Node000010_Node000003"><a xlink:title=" ">
<path fill="none" stroke="#63b8ff" d="M604.48,-75.83C497.71,-68.74 303.59,-53.86 139,-30.5 136.15,-30.1 133.24,-29.66 130.31,-29.19"/>
<polygon fill="#63b8ff" stroke="#63b8ff" points="604.08,-79.31 614.28,-76.47 604.53,-72.32 604.08,-79.31"/>
</a>
</g>
</g>
<!-- Node10&#45;&gt;Node7 -->
<g id="edge18_Node000010_Node000007" class="edge">
<title>Node10&#45;&gt;Node7</title>
<g id="a_edge18_Node000010_Node000007"><a xlink:title=" ">
<path fill="none" stroke="#63b8ff" d="M765.52,-75.83C872.29,-68.74 1066.41,-53.86 1231,-30.5 1233.85,-30.1 1236.76,-29.66 1239.69,-29.19"/>
<polygon fill="#63b8ff" stroke="#63b8ff" points="765.47,-72.32 755.72,-76.47 765.92,-79.31 765.47,-72.32"/>
</a>
</g>
</g>
<!-- Node11 -->
<g id="Node000011" class="node">
<title>Node11</title>
<g id="a_Node000011"><a xlink:href="ssplayer___part_state_8cpp.html" target="_top" xlink:title=" ">
<polygon fill="white" stroke="#666666" points="1221.75,-30.5 1084.25,-30.5 1084.25,0 1221.75,0 1221.75,-30.5"/>
<text text-anchor="start" x="1092.25" y="-17" font-family="Helvetica,sans-Serif" font-size="10.00">Common/Animator/ssplayer</text>
<text text-anchor="middle" x="1153" y="-5.75" font-family="Helvetica,sans-Serif" font-size="10.00">_PartState.cpp</text>
</a>
</g>
</g>
<!-- Node10&#45;&gt;Node11 -->
<g id="edge10_Node000010_Node000011" class="edge">
<title>Node10&#45;&gt;Node11</title>
<g id="a_edge10_Node000010_Node000011"><a xlink:title=" ">
<path fill="none" stroke="#63b8ff" d="M765.52,-71.63C844.5,-62.39 968.27,-47.11 1075,-30.5 1077.99,-30.03 1081.05,-29.54 1084.13,-29.03"/>
<polygon fill="#63b8ff" stroke="#63b8ff" points="765.23,-68.14 755.7,-72.77 766.04,-75.09 765.23,-68.14"/>
</a>
</g>
</g>
<!-- Node12 -->
<g id="Node000012" class="node">
<title>Node12</title>
<g id="a_Node000012"><a xlink:href="ssplayer__animedecode_8cpp.html" target="_top" xlink:title=" ">
<polygon fill="white" stroke="#666666" points="285.75,-30.5 148.25,-30.5 148.25,0 285.75,0 285.75,-30.5"/>
<text text-anchor="start" x="156.25" y="-17" font-family="Helvetica,sans-Serif" font-size="10.00">Common/Animator/ssplayer</text>
<text text-anchor="middle" x="217" y="-5.75" font-family="Helvetica,sans-Serif" font-size="10.00">_animedecode.cpp</text>
</a>
</g>
</g>
<!-- Node10&#45;&gt;Node12 -->
<g id="edge11_Node000010_Node000012" class="edge">
<title>Node10&#45;&gt;Node12</title>
<g id="a_edge11_Node000010_Node000012"><a xlink:title=" ">
<path fill="none" stroke="#63b8ff" d="M604.48,-71.63C525.5,-62.39 401.73,-47.11 295,-30.5 292.01,-30.03 288.95,-29.54 285.87,-29.03"/>
<polygon fill="#63b8ff" stroke="#63b8ff" points="603.96,-75.09 614.3,-72.77 604.77,-68.14 603.96,-75.09"/>
</a>
</g>
</g>
<!-- Node13 -->
<g id="Node000013" class="node">
<title>Node13</title>
<g id="a_Node000013"><a xlink:href="ssplayer__cellmap_8cpp.html" target="_top" xlink:title=" ">
<polygon fill="white" stroke="#666666" points="441.75,-30.5 304.25,-30.5 304.25,0 441.75,0 441.75,-30.5"/>
<text text-anchor="start" x="312.25" y="-17" font-family="Helvetica,sans-Serif" font-size="10.00">Common/Animator/ssplayer</text>
<text text-anchor="middle" x="373" y="-5.75" font-family="Helvetica,sans-Serif" font-size="10.00">_cellmap.cpp</text>
</a>
</g>
</g>
<!-- Node10&#45;&gt;Node13 -->
<g id="edge12_Node000010_Node000013" class="edge">
<title>Node10&#45;&gt;Node13</title>
<g id="a_edge12_Node000010_Node000013"><a xlink:title=" ">
<path fill="none" stroke="#63b8ff" d="M604.59,-64.13C554.25,-53.72 490.07,-40.45 442.05,-30.52"/>
<polygon fill="#63b8ff" stroke="#63b8ff" points="603.77,-67.53 614.27,-66.13 605.19,-60.68 603.77,-67.53"/>
</a>
</g>
</g>
<!-- Node14 -->
<g id="Node000014" class="node">
<title>Node14</title>
<g id="a_Node000014"><a xlink:href="ssplayer__effect_8cpp.html" target="_top" xlink:title=" ">
<polygon fill="white" stroke="#666666" points="597.75,-30.5 460.25,-30.5 460.25,0 597.75,0 597.75,-30.5"/>
<text text-anchor="start" x="468.25" y="-17" font-family="Helvetica,sans-Serif" font-size="10.00">Common/Animator/ssplayer</text>
<text text-anchor="middle" x="529" y="-5.75" font-family="Helvetica,sans-Serif" font-size="10.00">_effect.cpp</text>
</a>
</g>
</g>
<!-- Node10&#45;&gt;Node14 -->
<g id="edge13_Node000010_Node000014" class="edge">
<title>Node10&#45;&gt;Node14</title>
<g id="a_edge13_Node000010_Node000014"><a xlink:title=" ">
<path fill="none" stroke="#63b8ff" d="M639.04,-61.75C615.24,-51.91 586.62,-40.07 564.53,-30.94"/>
<polygon fill="#63b8ff" stroke="#63b8ff" points="637.62,-64.95 648.2,-65.54 640.3,-58.48 637.62,-64.95"/>
</a>
</g>
</g>
<!-- Node15 -->
<g id="Node000015" class="node">
<title>Node15</title>
<g id="a_Node000015"><a xlink:href="ssplayer__effect2_8cpp.html" target="_top" xlink:title=" ">
<polygon fill="white" stroke="#666666" points="753.75,-30.5 616.25,-30.5 616.25,0 753.75,0 753.75,-30.5"/>
<text text-anchor="start" x="624.25" y="-17" font-family="Helvetica,sans-Serif" font-size="10.00">Common/Animator/ssplayer</text>
<text text-anchor="middle" x="685" y="-5.75" font-family="Helvetica,sans-Serif" font-size="10.00">_effect2.cpp</text>
</a>
</g>
</g>
<!-- Node10&#45;&gt;Node15 -->
<g id="edge14_Node000010_Node000015" class="edge">
<title>Node10&#45;&gt;Node15</title>
<g id="a_edge14_Node000010_Node000015"><a xlink:title=" ">
<path fill="none" stroke="#63b8ff" d="M685,-54.81C685,-46.64 685,-37.91 685,-30.83"/>
<polygon fill="#63b8ff" stroke="#63b8ff" points="681.5,-54.6 685,-64.6 688.5,-54.6 681.5,-54.6"/>
</a>
</g>
</g>
<!-- Node16 -->
<g id="Node000016" class="node">
<title>Node16</title>
<g id="a_Node000016"><a xlink:href="ssplayer__effectfunction_8cpp.html" target="_top" xlink:title=" ">
<polygon fill="white" stroke="#666666" points="909.75,-30.5 772.25,-30.5 772.25,0 909.75,0 909.75,-30.5"/>
<text text-anchor="start" x="780.25" y="-17" font-family="Helvetica,sans-Serif" font-size="10.00">Common/Animator/ssplayer</text>
<text text-anchor="middle" x="841" y="-5.75" font-family="Helvetica,sans-Serif" font-size="10.00">_effectfunction.cpp</text>
</a>
</g>
</g>
<!-- Node10&#45;&gt;Node16 -->
<g id="edge15_Node000010_Node000016" class="edge">
<title>Node10&#45;&gt;Node16</title>
<g id="a_edge15_Node000010_Node000016"><a xlink:title=" ">
<path fill="none" stroke="#63b8ff" d="M730.96,-61.75C754.76,-51.91 783.38,-40.07 805.47,-30.94"/>
<polygon fill="#63b8ff" stroke="#63b8ff" points="729.7,-58.48 721.8,-65.54 732.38,-64.95 729.7,-58.48"/>
</a>
</g>
</g>
<!-- Node17 -->
<g id="Node000017" class="node">
<title>Node17</title>
<g id="a_Node000017"><a xlink:href="ssplayer__mesh_8cpp.html" target="_top" xlink:title=" ">
<polygon fill="white" stroke="#666666" points="1065.75,-30.5 928.25,-30.5 928.25,0 1065.75,0 1065.75,-30.5"/>
<text text-anchor="start" x="936.25" y="-17" font-family="Helvetica,sans-Serif" font-size="10.00">Common/Animator/ssplayer</text>
<text text-anchor="middle" x="997" y="-5.75" font-family="Helvetica,sans-Serif" font-size="10.00">_mesh.cpp</text>
</a>
</g>
</g>
<!-- Node10&#45;&gt;Node17 -->
<g id="edge16_Node000010_Node000017" class="edge">
<title>Node10&#45;&gt;Node17</title>
<g id="a_edge16_Node000010_Node000017"><a xlink:title=" ">
<path fill="none" stroke="#63b8ff" d="M765.41,-64.13C815.75,-53.72 879.93,-40.45 927.95,-30.52"/>
<polygon fill="#63b8ff" stroke="#63b8ff" points="764.81,-60.68 755.73,-66.13 766.23,-67.53 764.81,-60.68"/>
</a>
</g>
</g>
<!-- Node18&#45;&gt;Node10 -->
<g id="edge20_Node000018_Node000010" class="edge">
<title>Node18&#45;&gt;Node10</title>
<g id="a_edge20_Node000018_Node000010"><a xlink:title=" ">
<path fill="none" stroke="#63b8ff" d="M715.38,-123.57C708.83,-114.78 701.61,-105.07 695.85,-97.33"/>
<polygon fill="#63b8ff" stroke="#63b8ff" points="712.43,-125.47 721.2,-131.4 718.04,-121.29 712.43,-125.47"/>
</a>
</g>
</g>
<!-- Node20&#45;&gt;Node19 -->
<g id="edge24_Node000020_Node000019" class="edge">
<title>Node20&#45;&gt;Node19</title>
<g id="a_edge24_Node000020_Node000019"><a xlink:title=" ">
<path fill="none" stroke="#63b8ff" d="M889,-187.81C889,-179.64 889,-170.91 889,-163.83"/>
<polygon fill="#63b8ff" stroke="#63b8ff" points="885.5,-187.6 889,-197.6 892.5,-187.6 885.5,-187.6"/>
</a>
</g>
</g>
</g>
</svg>
