<?xml version="1.0" encoding="UTF-8" standalone="no"?>
<!DOCTYPE svg PUBLIC "-//W3C//DTD SVG 1.1//EN"
 "http://www.w3.org/Graphics/SVG/1.1/DTD/svg11.dtd">
<!-- Generated by graphviz version 9.0.0 (20230911.1827)
 -->
<!-- Title: Common/Helper/MacOS/OSXFileOpen.h Pages: 1 -->
<svg width="292pt" height="105pt"
 viewBox="0.00 0.00 292.00 105.00" xmlns="http://www.w3.org/2000/svg" xmlns:xlink="http://www.w3.org/1999/xlink">
<g id="graph0" class="graph" transform="scale(1 1) rotate(0) translate(4 101)">
<title>Common/Helper/MacOS/OSXFileOpen.h</title>
<!-- Node1 -->
<g id="Node000001" class="node">
<title>Node1</title>
<g id="a_Node000001"><a xlink:title=" ">
<polygon fill="#999999" stroke="#666666" points="198.25,-97 75,-97 75,-66.5 198.25,-66.5 198.25,-97"/>
<text text-anchor="start" x="83" y="-83.5" font-family="Helvetica,sans-Serif" font-size="10.00">Common/Helper/MacOS</text>
<text text-anchor="middle" x="136.62" y="-72.25" font-family="Helvetica,sans-Serif" font-size="10.00">/OSXFileOpen.h</text>
</a>
</g>
</g>
<!-- Node2 -->
<g id="Node000002" class="node">
<title>Node2</title>
<g id="a_Node000002"><a xlink:href="_o_s_x_file_open_8mm.html" target="_top" xlink:title=" ">
<polygon fill="white" stroke="#666666" points="123.25,-30.5 0,-30.5 0,0 123.25,0 123.25,-30.5"/>
<text text-anchor="start" x="8" y="-17" font-family="Helvetica,sans-Serif" font-size="10.00">Common/Helper/MacOS</text>
<text text-anchor="middle" x="61.62" y="-5.75" font-family="Helvetica,sans-Serif" font-size="10.00">/OSXFileOpen.mm</text>
</a>
</g>
</g>
<!-- Node1&#45;&gt;Node2 -->
<g id="edge1_Node000001_Node000002" class="edge">
<title>Node1&#45;&gt;Node2</title>
<g id="a_edge1_Node000001_Node000002"><a xlink:title=" ">
<path fill="none" stroke="#63b8ff" d="M111.03,-58.74C100.32,-49.53 88.15,-39.06 78.58,-30.83"/>
<polygon fill="#63b8ff" stroke="#63b8ff" points="108.59,-61.26 118.46,-65.13 113.16,-55.95 108.59,-61.26"/>
</a>
</g>
</g>
<!-- Node3 -->
<g id="Node000003" class="node">
<title>Node3</title>
<g id="a_Node000003"><a xlink:href="_x_p_file_open_dlg_8cpp.html" target="_top" xlink:title=" ">
<polygon fill="white" stroke="#666666" points="284,-30.5 141.25,-30.5 141.25,0 284,0 284,-30.5"/>
<text text-anchor="start" x="149.25" y="-17" font-family="Helvetica,sans-Serif" font-size="10.00">Common/Helper/XPFileOpen</text>
<text text-anchor="middle" x="212.62" y="-5.75" font-family="Helvetica,sans-Serif" font-size="10.00">Dlg.cpp</text>
</a>
</g>
</g>
<!-- Node1&#45;&gt;Node3 -->
<g id="edge2_Node000001_Node000003" class="edge">
<title>Node1&#45;&gt;Node3</title>
<g id="a_edge2_Node000001_Node000003"><a xlink:title=" ">
<path fill="none" stroke="#63b8ff" d="M162.56,-58.74C173.42,-49.53 185.74,-39.06 195.45,-30.83"/>
<polygon fill="#63b8ff" stroke="#63b8ff" points="160.38,-56 155.02,-65.13 164.91,-61.33 160.38,-56"/>
</a>
</g>
</g>
</g>
</svg>
