<?xml version="1.0" encoding="UTF-8" standalone="no"?>
<!DOCTYPE svg PUBLIC "-//W3C//DTD SVG 1.1//EN"
 "http://www.w3.org/Graphics/SVG/1.1/DTD/svg11.dtd">
<!-- Generated by graphviz version 12.2.1 (20241206.2353)
 -->
<!-- Title: Common/Helper/MacOS/OSXFileOpen.mm Pages: 1 -->
<svg width="371pt" height="94pt"
 viewBox="0.00 0.00 370.75 93.75" xmlns="http://www.w3.org/2000/svg" xmlns:xlink="http://www.w3.org/1999/xlink">
<g id="graph0" class="graph" transform="scale(1 1) rotate(0) translate(4 89.75)">
<title>Common/Helper/MacOS/OSXFileOpen.mm</title>
<!-- Node1 -->
<g id="Node000001" class="node">
<title>Node1</title>
<g id="a_Node000001"><a xlink:title=" ">
<polygon fill="#999999" stroke="#666666" points="223.75,-85.75 100.5,-85.75 100.5,-55.25 223.75,-55.25 223.75,-85.75"/>
<text text-anchor="start" x="108.5" y="-72.25" font-family="Helvetica,sans-Serif" font-size="10.00">Common/Helper/MacOS</text>
<text text-anchor="middle" x="162.12" y="-61" font-family="Helvetica,sans-Serif" font-size="10.00">/OSXFileOpen.mm</text>
</a>
</g>
</g>
<!-- Node2 -->
<g id="Node000002" class="node">
<title>Node2</title>
<g id="a_Node000002"><a xlink:href="_o_s_x_file_open_8h.html" target="_top" xlink:title=" ">
<polygon fill="white" stroke="#666666" points="84.25,-19.25 0,-19.25 0,0 84.25,0 84.25,-19.25"/>
<text text-anchor="middle" x="42.12" y="-5.75" font-family="Helvetica,sans-Serif" font-size="10.00">OSXFileOpen.h</text>
</a>
</g>
</g>
<!-- Node1&#45;&gt;Node2 -->
<g id="edge1_Node000001_Node000002" class="edge">
<title>Node1&#45;&gt;Node2</title>
<g id="a_edge1_Node000001_Node000002"><a xlink:title=" ">
<path fill="none" stroke="#63b8ff" d="M132.15,-54.8C113.35,-45.57 89.25,-33.75 70.71,-24.65"/>
<polygon fill="#63b8ff" stroke="#63b8ff" points="72.41,-21.58 61.89,-20.32 69.32,-27.87 72.41,-21.58"/>
</a>
</g>
</g>
<!-- Node3 -->
<g id="Node000003" class="node">
<title>Node3</title>
<g id="a_Node000003"><a xlink:title=" ">
<polygon fill="#e0e0e0" stroke="#999999" points="221.5,-19.25 102.75,-19.25 102.75,0 221.5,0 221.5,-19.25"/>
<text text-anchor="middle" x="162.12" y="-5.75" font-family="Helvetica,sans-Serif" font-size="10.00">AppKit/NSOpenPanel.h</text>
</a>
</g>
</g>
<!-- Node1&#45;&gt;Node3 -->
<g id="edge2_Node000001_Node000003" class="edge">
<title>Node1&#45;&gt;Node3</title>
<g id="a_edge2_Node000001_Node000003"><a xlink:title=" ">
<path fill="none" stroke="#63b8ff" d="M162.12,-54.95C162.12,-47.71 162.12,-38.84 162.12,-30.94"/>
<polygon fill="#63b8ff" stroke="#63b8ff" points="165.63,-31.21 162.13,-21.21 158.63,-31.21 165.63,-31.21"/>
</a>
</g>
</g>
<!-- Node4 -->
<g id="Node000004" class="node">
<title>Node4</title>
<g id="a_Node000004"><a xlink:title=" ">
<polygon fill="#e0e0e0" stroke="#999999" points="362.75,-19.25 239.5,-19.25 239.5,0 362.75,0 362.75,-19.25"/>
<text text-anchor="middle" x="301.12" y="-5.75" font-family="Helvetica,sans-Serif" font-size="10.00">Foundation/Foundation.h</text>
</a>
</g>
</g>
<!-- Node1&#45;&gt;Node4 -->
<g id="edge3_Node000001_Node000004" class="edge">
<title>Node1&#45;&gt;Node4</title>
<g id="a_edge3_Node000001_Node000004"><a xlink:title=" ">
<path fill="none" stroke="#63b8ff" d="M196.84,-54.8C219.13,-45.35 247.85,-33.19 269.5,-24.02"/>
<polygon fill="#63b8ff" stroke="#63b8ff" points="270.57,-27.37 278.41,-20.24 267.84,-20.92 270.57,-27.37"/>
</a>
</g>
</g>
</g>
</svg>
