<?xml version="1.0" encoding="UTF-8" standalone="no"?>
<!DOCTYPE svg PUBLIC "-//W3C//DTD SVG 1.1//EN"
 "http://www.w3.org/Graphics/SVG/1.1/DTD/svg11.dtd">
<!-- Generated by graphviz version 12.2.1 (20241206.2353)
 -->
<!-- Title: Common/Helper/DirectX/SSTextureDX9.h Pages: 1 -->
<svg width="280pt" height="105pt"
 viewBox="0.00 0.00 279.62 105.00" xmlns="http://www.w3.org/2000/svg" xmlns:xlink="http://www.w3.org/1999/xlink">
<g id="graph0" class="graph" transform="scale(1 1) rotate(0) translate(4 101)">
<title>Common/Helper/DirectX/SSTextureDX9.h</title>
<!-- Node1 -->
<g id="Node000001" class="node">
<title>Node1</title>
<g id="a_Node000001"><a xlink:title=" ">
<polygon fill="#999999" stroke="#666666" points="198.62,-97 75.38,-97 75.38,-66.5 198.62,-66.5 198.62,-97"/>
<text text-anchor="start" x="83.38" y="-83.5" font-family="Helvetica,sans-Serif" font-size="10.00">Common/Helper/DirectX</text>
<text text-anchor="middle" x="137" y="-72.25" font-family="Helvetica,sans-Serif" font-size="10.00">/SSTextureDX9.h</text>
</a>
</g>
</g>
<!-- Node2 -->
<g id="Node000002" class="node">
<title>Node2</title>
<g id="a_Node000002"><a xlink:href="ssplayer__render__dx9_8cpp.html" target="_top" xlink:title=" ">
<polygon fill="white" stroke="#666666" points="130,-30.5 0,-30.5 0,0 130,0 130,-30.5"/>
<text text-anchor="start" x="8" y="-17" font-family="Helvetica,sans-Serif" font-size="10.00">Common/Drawer/ssplayer</text>
<text text-anchor="middle" x="65" y="-5.75" font-family="Helvetica,sans-Serif" font-size="10.00">_render_dx9.cpp</text>
</a>
</g>
</g>
<!-- Node1&#45;&gt;Node2 -->
<g id="edge1_Node000001_Node000002" class="edge">
<title>Node1&#45;&gt;Node2</title>
<g id="a_edge1_Node000001_Node000002"><a xlink:title=" ">
<path fill="none" stroke="#63b8ff" d="M112.12,-58.46C101.91,-49.32 90.38,-38.98 81.27,-30.83"/>
<polygon fill="#63b8ff" stroke="#63b8ff" points="109.75,-61.04 119.53,-65.1 114.42,-55.82 109.75,-61.04"/>
</a>
</g>
</g>
<!-- Node3 -->
<g id="Node000003" class="node">
<title>Node3</title>
<g id="a_Node000003"><a xlink:href="_s_s_texture_d_x9_8cpp.html" target="_top" xlink:title=" ">
<polygon fill="white" stroke="#666666" points="271.62,-30.5 148.38,-30.5 148.38,0 271.62,0 271.62,-30.5"/>
<text text-anchor="start" x="156.38" y="-17" font-family="Helvetica,sans-Serif" font-size="10.00">Common/Helper/DirectX</text>
<text text-anchor="middle" x="210" y="-5.75" font-family="Helvetica,sans-Serif" font-size="10.00">/SSTextureDX9.cpp</text>
</a>
</g>
</g>
<!-- Node1&#45;&gt;Node3 -->
<g id="edge2_Node000001_Node000003" class="edge">
<title>Node1&#45;&gt;Node3</title>
<g id="a_edge2_Node000001_Node000003"><a xlink:title=" ">
<path fill="none" stroke="#63b8ff" d="M161.91,-58.74C172.34,-49.53 184.18,-39.06 193.5,-30.83"/>
<polygon fill="#63b8ff" stroke="#63b8ff" points="159.88,-55.87 154.7,-65.11 164.51,-61.11 159.88,-55.87"/>
</a>
</g>
</g>
</g>
</svg>
