<?xml version="1.0" encoding="UTF-8" standalone="no"?>
<!DOCTYPE svg PUBLIC "-//W3C//DTD SVG 1.1//EN"
 "http://www.w3.org/Graphics/SVG/1.1/DTD/svg11.dtd">
<!-- Generated by graphviz version 9.0.0 (20230911.1827)
 -->
<!-- Title: Common/Helper/OpenGL/SSTextureGL.cpp Pages: 1 -->
<svg width="493pt" height="260pt"
 viewBox="0.00 0.00 492.50 259.50" xmlns="http://www.w3.org/2000/svg" xmlns:xlink="http://www.w3.org/1999/xlink">
<g id="graph0" class="graph" transform="scale(1 1) rotate(0) translate(4 255.5)">
<title>Common/Helper/OpenGL/SSTextureGL.cpp</title>
<!-- Node1 -->
<g id="Node000001" class="node">
<title>Node1</title>
<g id="a_Node000001"><a xlink:title=" ">
<polygon fill="#999999" stroke="#666666" points="206.75,-251.5 80.5,-251.5 80.5,-221 206.75,-221 206.75,-251.5"/>
<text text-anchor="start" x="88.5" y="-238" font-family="Helvetica,sans-Serif" font-size="10.00">Common/Helper/OpenGL</text>
<text text-anchor="middle" x="143.62" y="-226.75" font-family="Helvetica,sans-Serif" font-size="10.00">/SSTextureGL.cpp</text>
</a>
</g>
</g>
<!-- Node2 -->
<g id="Node000002" class="node">
<title>Node2</title>
<g id="a_Node000002"><a xlink:title=" ">
<polygon fill="#e0e0e0" stroke="#999999" points="45.25,-185 0,-185 0,-165.75 45.25,-165.75 45.25,-185"/>
<text text-anchor="middle" x="22.62" y="-171.5" font-family="Helvetica,sans-Serif" font-size="10.00">stdio.h</text>
</a>
</g>
</g>
<!-- Node1&#45;&gt;Node2 -->
<g id="edge1_Node000001_Node000002" class="edge">
<title>Node1&#45;&gt;Node2</title>
<g id="a_edge1_Node000001_Node000002"><a xlink:title=" ">
<path fill="none" stroke="#63b8ff" d="M113.4,-220.55C94.44,-211.32 70.14,-199.5 51.45,-190.4"/>
<polygon fill="#63b8ff" stroke="#63b8ff" points="53.07,-187.29 42.54,-186.07 50,-193.59 53.07,-187.29"/>
</a>
</g>
</g>
<!-- Node3 -->
<g id="Node000003" class="node">
<title>Node3</title>
<g id="a_Node000003"><a xlink:title=" ">
<polygon fill="#e0e0e0" stroke="#999999" points="107.88,-185 63.38,-185 63.38,-165.75 107.88,-165.75 107.88,-185"/>
<text text-anchor="middle" x="85.62" y="-171.5" font-family="Helvetica,sans-Serif" font-size="10.00">cstdlib</text>
</a>
</g>
</g>
<!-- Node1&#45;&gt;Node3 -->
<g id="edge2_Node000001_Node000003" class="edge">
<title>Node1&#45;&gt;Node3</title>
<g id="a_edge2_Node000001_Node000003"><a xlink:title=" ">
<path fill="none" stroke="#63b8ff" d="M129.29,-220.7C121.22,-212.51 111.1,-202.23 102.63,-193.64"/>
<polygon fill="#63b8ff" stroke="#63b8ff" points="105.14,-191.2 95.63,-186.53 100.15,-196.11 105.14,-191.2"/>
</a>
</g>
</g>
<!-- Node4 -->
<g id="Node000004" class="node">
<title>Node4</title>
<g id="a_Node000004"><a xlink:href="ss_open_g_l_setting_8h.html" target="_top" xlink:title=" ">
<polygon fill="white" stroke="#666666" points="279.62,-185 125.62,-185 125.62,-165.75 279.62,-165.75 279.62,-185"/>
<text text-anchor="middle" x="202.62" y="-171.5" font-family="Helvetica,sans-Serif" font-size="10.00">../../Drawer/ssOpenGLSetting.h</text>
</a>
</g>
</g>
<!-- Node1&#45;&gt;Node4 -->
<g id="edge3_Node000001_Node000004" class="edge">
<title>Node1&#45;&gt;Node4</title>
<g id="a_edge3_Node000001_Node000004"><a xlink:title=" ">
<path fill="none" stroke="#63b8ff" d="M158.21,-220.7C166.5,-212.42 176.93,-202.02 185.59,-193.37"/>
<polygon fill="#63b8ff" stroke="#63b8ff" points="187.85,-196.06 192.46,-186.52 182.91,-191.11 187.85,-196.06"/>
</a>
</g>
</g>
<!-- Node9 -->
<g id="Node000009" class="node">
<title>Node9</title>
<g id="a_Node000009"><a xlink:href="_s_s_texture_g_l_8h.html" target="_top" xlink:title=" ">
<polygon fill="white" stroke="#666666" points="380,-185 297.25,-185 297.25,-165.75 380,-165.75 380,-185"/>
<text text-anchor="middle" x="338.62" y="-171.5" font-family="Helvetica,sans-Serif" font-size="10.00">SSTextureGL.h</text>
</a>
</g>
</g>
<!-- Node1&#45;&gt;Node9 -->
<g id="edge8_Node000001_Node000009" class="edge">
<title>Node1&#45;&gt;Node9</title>
<g id="a_edge8_Node000001_Node000009"><a xlink:title=" ">
<path fill="none" stroke="#63b8ff" d="M192.33,-220.55C224.78,-210.75 266.95,-198.02 297.67,-188.74"/>
<polygon fill="#63b8ff" stroke="#63b8ff" points="298.42,-192.17 306.98,-185.93 296.4,-185.47 298.42,-192.17"/>
</a>
</g>
</g>
<!-- Node5 -->
<g id="Node000005" class="node">
<title>Node5</title>
<g id="a_Node000005"><a xlink:href="glad_8h.html" target="_top" xlink:title=" ">
<polygon fill="white" stroke="#666666" points="163.25,-129.75 100,-129.75 100,-110.5 163.25,-110.5 163.25,-129.75"/>
<text text-anchor="middle" x="131.62" y="-116.25" font-family="Helvetica,sans-Serif" font-size="10.00">glad/glad.h</text>
</a>
</g>
</g>
<!-- Node4&#45;&gt;Node5 -->
<g id="edge4_Node000004_Node000005" class="edge">
<title>Node4&#45;&gt;Node5</title>
<g id="a_edge4_Node000004_Node000005"><a xlink:title=" ">
<path fill="none" stroke="#63b8ff" d="M190.58,-165.34C180.22,-157.57 165.02,-146.17 152.66,-136.9"/>
<polygon fill="#63b8ff" stroke="#63b8ff" points="154.8,-134.13 144.7,-130.93 150.6,-139.73 154.8,-134.13"/>
</a>
</g>
</g>
<!-- Node8 -->
<g id="Node000008" class="node">
<title>Node8</title>
<g id="a_Node000008"><a xlink:title=" ">
<polygon fill="#e0e0e0" stroke="#999999" points="260.12,-129.75 181.12,-129.75 181.12,-110.5 260.12,-110.5 260.12,-129.75"/>
<text text-anchor="middle" x="220.62" y="-116.25" font-family="Helvetica,sans-Serif" font-size="10.00">GLFW/glfw3.h</text>
</a>
</g>
</g>
<!-- Node4&#45;&gt;Node8 -->
<g id="edge7_Node000004_Node000008" class="edge">
<title>Node4&#45;&gt;Node8</title>
<g id="a_edge7_Node000004_Node000008"><a xlink:title=" ">
<path fill="none" stroke="#63b8ff" d="M205.6,-165.58C207.88,-158.84 211.11,-149.27 213.99,-140.74"/>
<polygon fill="#63b8ff" stroke="#63b8ff" points="217.22,-142.14 217.1,-131.54 210.59,-139.9 217.22,-142.14"/>
</a>
</g>
</g>
<!-- Node6 -->
<g id="Node000006" class="node">
<title>Node6</title>
<g id="a_Node000006"><a xlink:href="khrplatform_8h.html" target="_top" xlink:title=" ">
<polygon fill="white" stroke="#666666" points="180.5,-74.5 82.75,-74.5 82.75,-55.25 180.5,-55.25 180.5,-74.5"/>
<text text-anchor="middle" x="131.62" y="-61" font-family="Helvetica,sans-Serif" font-size="10.00">KHR/khrplatform.h</text>
</a>
</g>
</g>
<!-- Node5&#45;&gt;Node6 -->
<g id="edge5_Node000005_Node000006" class="edge">
<title>Node5&#45;&gt;Node6</title>
<g id="a_edge5_Node000005_Node000006"><a xlink:title=" ">
<path fill="none" stroke="#63b8ff" d="M131.62,-110.33C131.62,-103.82 131.62,-94.67 131.62,-86.37"/>
<polygon fill="#63b8ff" stroke="#63b8ff" points="135.13,-86.37 131.63,-76.37 128.13,-86.37 135.13,-86.37"/>
</a>
</g>
</g>
<!-- Node7 -->
<g id="Node000007" class="node">
<title>Node7</title>
<g id="a_Node000007"><a xlink:title=" ">
<polygon fill="#e0e0e0" stroke="#999999" points="155.75,-19.25 107.5,-19.25 107.5,0 155.75,0 155.75,-19.25"/>
<text text-anchor="middle" x="131.62" y="-5.75" font-family="Helvetica,sans-Serif" font-size="10.00">stdint.h</text>
</a>
</g>
</g>
<!-- Node6&#45;&gt;Node7 -->
<g id="edge6_Node000006_Node000007" class="edge">
<title>Node6&#45;&gt;Node7</title>
<g id="a_edge6_Node000006_Node000007"><a xlink:title=" ">
<path fill="none" stroke="#63b8ff" d="M131.62,-55.08C131.62,-48.57 131.62,-39.42 131.62,-31.12"/>
<polygon fill="#63b8ff" stroke="#63b8ff" points="135.13,-31.12 131.63,-21.12 128.13,-31.12 135.13,-31.12"/>
</a>
</g>
</g>
<!-- Node10 -->
<g id="Node000010" class="node">
<title>Node10</title>
<g id="a_Node000010"><a xlink:href="_issh_texture_8h.html" target="_top" xlink:title=" ">
<polygon fill="white" stroke="#666666" points="380.75,-129.75 296.5,-129.75 296.5,-110.5 380.75,-110.5 380.75,-129.75"/>
<text text-anchor="middle" x="338.62" y="-116.25" font-family="Helvetica,sans-Serif" font-size="10.00">../IsshTexture.h</text>
</a>
</g>
</g>
<!-- Node9&#45;&gt;Node10 -->
<g id="edge9_Node000009_Node000010" class="edge">
<title>Node9&#45;&gt;Node10</title>
<g id="a_edge9_Node000009_Node000010"><a xlink:title=" ">
<path fill="none" stroke="#63b8ff" d="M338.62,-165.58C338.62,-159.07 338.62,-149.92 338.62,-141.62"/>
<polygon fill="#63b8ff" stroke="#63b8ff" points="342.13,-141.62 338.63,-131.62 335.13,-141.62 342.13,-141.62"/>
</a>
</g>
</g>
<!-- Node11 -->
<g id="Node000011" class="node">
<title>Node11</title>
<g id="a_Node000011"><a xlink:href="sstypes_8h.html" target="_top" xlink:title=" ">
<polygon fill="white" stroke="#666666" points="378.62,-74.5 278.62,-74.5 278.62,-55.25 378.62,-55.25 378.62,-74.5"/>
<text text-anchor="middle" x="328.62" y="-61" font-family="Helvetica,sans-Serif" font-size="10.00">../Loader/sstypes.h</text>
</a>
</g>
</g>
<!-- Node10&#45;&gt;Node11 -->
<g id="edge10_Node000010_Node000011" class="edge">
<title>Node10&#45;&gt;Node11</title>
<g id="a_edge10_Node000010_Node000011"><a xlink:title=" ">
<path fill="none" stroke="#63b8ff" d="M336.97,-110.33C335.74,-103.74 333.99,-94.46 332.42,-86.07"/>
<polygon fill="#63b8ff" stroke="#63b8ff" points="335.88,-85.53 330.59,-76.35 329,-86.82 335.88,-85.53"/>
</a>
</g>
</g>
<!-- Node17 -->
<g id="Node000017" class="node">
<title>Node17</title>
<g id="a_Node000017"><a xlink:title=" ">
<polygon fill="#e0e0e0" stroke="#999999" points="431,-74.5 396.25,-74.5 396.25,-55.25 431,-55.25 431,-74.5"/>
<text text-anchor="middle" x="413.62" y="-61" font-family="Helvetica,sans-Serif" font-size="10.00">map</text>
</a>
</g>
</g>
<!-- Node10&#45;&gt;Node17 -->
<g id="edge16_Node000010_Node000017" class="edge">
<title>Node10&#45;&gt;Node17</title>
<g id="a_edge16_Node000010_Node000017"><a xlink:title=" ">
<path fill="none" stroke="#63b8ff" d="M351.35,-110.09C362.34,-102.29 378.47,-90.84 391.56,-81.54"/>
<polygon fill="#63b8ff" stroke="#63b8ff" points="393.48,-84.47 399.61,-75.83 389.43,-78.76 393.48,-84.47"/>
</a>
</g>
</g>
<!-- Node12 -->
<g id="Node000012" class="node">
<title>Node12</title>
<g id="a_Node000012"><a xlink:title=" ">
<polygon fill="#e0e0e0" stroke="#999999" points="230.38,-19.25 182.88,-19.25 182.88,0 230.38,0 230.38,-19.25"/>
<text text-anchor="middle" x="206.62" y="-5.75" font-family="Helvetica,sans-Serif" font-size="10.00">stdlib.h</text>
</a>
</g>
</g>
<!-- Node11&#45;&gt;Node12 -->
<g id="edge11_Node000011_Node000012" class="edge">
<title>Node11&#45;&gt;Node12</title>
<g id="a_edge11_Node000011_Node000012"><a xlink:title=" ">
<path fill="none" stroke="#63b8ff" d="M307.93,-54.84C288.74,-46.47 259.91,-33.88 237.91,-24.28"/>
<polygon fill="#63b8ff" stroke="#63b8ff" points="239.37,-21.1 228.81,-20.31 236.57,-27.52 239.37,-21.1"/>
</a>
</g>
</g>
<!-- Node13 -->
<g id="Node000013" class="node">
<title>Node13</title>
<g id="a_Node000013"><a xlink:title=" ">
<polygon fill="#e0e0e0" stroke="#999999" points="288.62,-19.25 248.62,-19.25 248.62,0 288.62,0 288.62,-19.25"/>
<text text-anchor="middle" x="268.62" y="-5.75" font-family="Helvetica,sans-Serif" font-size="10.00">string</text>
</a>
</g>
</g>
<!-- Node11&#45;&gt;Node13 -->
<g id="edge12_Node000011_Node000013" class="edge">
<title>Node11&#45;&gt;Node13</title>
<g id="a_edge12_Node000011_Node000013"><a xlink:title=" ">
<path fill="none" stroke="#63b8ff" d="M318.45,-54.84C309.86,-47.22 297.36,-36.12 287.02,-26.95"/>
<polygon fill="#63b8ff" stroke="#63b8ff" points="289.59,-24.55 279.78,-20.53 284.94,-29.79 289.59,-24.55"/>
</a>
</g>
</g>
<!-- Node14 -->
<g id="Node000014" class="node">
<title>Node14</title>
<g id="a_Node000014"><a xlink:title=" ">
<polygon fill="#e0e0e0" stroke="#999999" points="350.12,-19.25 307.12,-19.25 307.12,0 350.12,0 350.12,-19.25"/>
<text text-anchor="middle" x="328.62" y="-5.75" font-family="Helvetica,sans-Serif" font-size="10.00">vector</text>
</a>
</g>
</g>
<!-- Node11&#45;&gt;Node14 -->
<g id="edge13_Node000011_Node000014" class="edge">
<title>Node11&#45;&gt;Node14</title>
<g id="a_edge13_Node000011_Node000014"><a xlink:title=" ">
<path fill="none" stroke="#63b8ff" d="M328.62,-55.08C328.62,-48.57 328.62,-39.42 328.62,-31.12"/>
<polygon fill="#63b8ff" stroke="#63b8ff" points="332.13,-31.12 328.63,-21.12 325.13,-31.12 332.13,-31.12"/>
</a>
</g>
</g>
<!-- Node15 -->
<g id="Node000015" class="node">
<title>Node15</title>
<g id="a_Node000015"><a xlink:title=" ">
<polygon fill="#e0e0e0" stroke="#999999" points="411.12,-19.25 368.12,-19.25 368.12,0 411.12,0 411.12,-19.25"/>
<text text-anchor="middle" x="389.62" y="-5.75" font-family="Helvetica,sans-Serif" font-size="10.00">cmath</text>
</a>
</g>
</g>
<!-- Node11&#45;&gt;Node15 -->
<g id="edge14_Node000011_Node000015" class="edge">
<title>Node11&#45;&gt;Node15</title>
<g id="a_edge14_Node000011_Node000015"><a xlink:title=" ">
<path fill="none" stroke="#63b8ff" d="M338.97,-54.84C347.7,-47.22 360.41,-36.12 370.92,-26.95"/>
<polygon fill="#63b8ff" stroke="#63b8ff" points="373.06,-29.73 378.29,-20.52 368.45,-24.46 373.06,-29.73"/>
</a>
</g>
</g>
<!-- Node16 -->
<g id="Node000016" class="node">
<title>Node16</title>
<g id="a_Node000016"><a xlink:title=" ">
<polygon fill="#e0e0e0" stroke="#999999" points="484.5,-19.25 428.75,-19.25 428.75,0 484.5,0 484.5,-19.25"/>
<text text-anchor="middle" x="456.62" y="-5.75" font-family="Helvetica,sans-Serif" font-size="10.00">algorithm</text>
</a>
</g>
</g>
<!-- Node11&#45;&gt;Node16 -->
<g id="edge15_Node000011_Node000016" class="edge">
<title>Node11&#45;&gt;Node16</title>
<g id="a_edge15_Node000011_Node000016"><a xlink:title=" ">
<path fill="none" stroke="#63b8ff" d="M350.34,-54.84C370.66,-46.39 401.27,-33.65 424.43,-24.02"/>
<polygon fill="#63b8ff" stroke="#63b8ff" points="425.52,-27.36 433.41,-20.28 422.83,-20.89 425.52,-27.36"/>
</a>
</g>
</g>
</g>
</svg>
