<?xml version="1.0" encoding="UTF-8" standalone="no"?>
<!DOCTYPE svg PUBLIC "-//W3C//DTD SVG 1.1//EN"
 "http://www.w3.org/Graphics/SVG/1.1/DTD/svg11.dtd">
<!-- Generated by graphviz version 9.0.0 (20230911.1827)
 -->
<!-- Title: Common/Helper/OpenGL/SSTextureGL.h Pages: 1 -->
<svg width="282pt" height="105pt"
 viewBox="0.00 0.00 282.12 105.00" xmlns="http://www.w3.org/2000/svg" xmlns:xlink="http://www.w3.org/1999/xlink">
<g id="graph0" class="graph" transform="scale(1 1) rotate(0) translate(4 101)">
<title>Common/Helper/OpenGL/SSTextureGL.h</title>
<!-- Node1 -->
<g id="Node000001" class="node">
<title>Node1</title>
<g id="a_Node000001"><a xlink:title=" ">
<polygon fill="#999999" stroke="#666666" points="201.12,-97 74.88,-97 74.88,-66.5 201.12,-66.5 201.12,-97"/>
<text text-anchor="start" x="82.88" y="-83.5" font-family="Helvetica,sans-Serif" font-size="10.00">Common/Helper/OpenGL</text>
<text text-anchor="middle" x="138" y="-72.25" font-family="Helvetica,sans-Serif" font-size="10.00">/SSTextureGL.h</text>
</a>
</g>
</g>
<!-- Node2 -->
<g id="Node000002" class="node">
<title>Node2</title>
<g id="a_Node000002"><a xlink:href="ssplayer__render__gl_8cpp.html" target="_top" xlink:title=" ">
<polygon fill="white" stroke="#666666" points="130,-30.5 0,-30.5 0,0 130,0 130,-30.5"/>
<text text-anchor="start" x="8" y="-17" font-family="Helvetica,sans-Serif" font-size="10.00">Common/Drawer/ssplayer</text>
<text text-anchor="middle" x="65" y="-5.75" font-family="Helvetica,sans-Serif" font-size="10.00">_render_gl.cpp</text>
</a>
</g>
</g>
<!-- Node1&#45;&gt;Node2 -->
<g id="edge1_Node000001_Node000002" class="edge">
<title>Node1&#45;&gt;Node2</title>
<g id="a_edge1_Node000001_Node000002"><a xlink:title=" ">
<path fill="none" stroke="#63b8ff" d="M113.09,-58.74C102.66,-49.53 90.82,-39.06 81.5,-30.83"/>
<polygon fill="#63b8ff" stroke="#63b8ff" points="110.49,-61.11 120.3,-65.11 115.12,-55.87 110.49,-61.11"/>
</a>
</g>
</g>
<!-- Node3 -->
<g id="Node000003" class="node">
<title>Node3</title>
<g id="a_Node000003"><a xlink:href="_s_s_texture_g_l_8cpp.html" target="_top" xlink:title=" ">
<polygon fill="white" stroke="#666666" points="274.12,-30.5 147.88,-30.5 147.88,0 274.12,0 274.12,-30.5"/>
<text text-anchor="start" x="155.88" y="-17" font-family="Helvetica,sans-Serif" font-size="10.00">Common/Helper/OpenGL</text>
<text text-anchor="middle" x="211" y="-5.75" font-family="Helvetica,sans-Serif" font-size="10.00">/SSTextureGL.cpp</text>
</a>
</g>
</g>
<!-- Node1&#45;&gt;Node3 -->
<g id="edge2_Node000001_Node000003" class="edge">
<title>Node1&#45;&gt;Node3</title>
<g id="a_edge2_Node000001_Node000003"><a xlink:title=" ">
<path fill="none" stroke="#63b8ff" d="M162.91,-58.74C173.34,-49.53 185.18,-39.06 194.5,-30.83"/>
<polygon fill="#63b8ff" stroke="#63b8ff" points="160.88,-55.87 155.7,-65.11 165.51,-61.11 160.88,-55.87"/>
</a>
</g>
</g>
</g>
</svg>
