<?xml version="1.0" encoding="UTF-8" standalone="no"?>
<!DOCTYPE svg PUBLIC "-//W3C//DTD SVG 1.1//EN"
 "http://www.w3.org/Graphics/SVG/1.1/DTD/svg11.dtd">
<!-- Generated by graphviz version 10.0.1 (20240210.2158)
 -->
<!-- Title: Common/Loader/SsEffectBehavior.h Pages: 1 -->
<svg width="637pt" height="248pt"
 viewBox="0.00 0.00 636.50 248.25" xmlns="http://www.w3.org/2000/svg" xmlns:xlink="http://www.w3.org/1999/xlink">
<g id="graph0" class="graph" transform="scale(1 1) rotate(0) translate(4 244.25)">
<title>Common/Loader/SsEffectBehavior.h</title>
<!-- Node1 -->
<g id="Node000001" class="node">
<title>Node1</title>
<g id="a_Node000001"><a xlink:title=" ">
<polygon fill="#999999" stroke="#666666" points="360.25,-240.25 185.25,-240.25 185.25,-221 360.25,-221 360.25,-240.25"/>
<text text-anchor="middle" x="272.75" y="-226.75" font-family="Helvetica,sans-Serif" font-size="10.00">Common/Loader/SsEffectBehavior.h</text>
</a>
</g>
</g>
<!-- Node2 -->
<g id="Node000002" class="node">
<title>Node2</title>
<g id="a_Node000002"><a xlink:href="_ss_effect_element_8h.html" target="_top" xlink:title=" ">
<polygon fill="white" stroke="#666666" points="265,-185 166.5,-185 166.5,-165.75 265,-165.75 265,-185"/>
<text text-anchor="middle" x="215.75" y="-171.5" font-family="Helvetica,sans-Serif" font-size="10.00">SsEffectElement.h</text>
</a>
</g>
</g>
<!-- Node1&#45;&gt;Node2 -->
<g id="edge1_Node000001_Node000002" class="edge">
<title>Node1&#45;&gt;Node2</title>
<g id="a_edge1_Node000001_Node000002"><a xlink:title=" ">
<path fill="none" stroke="#63b8ff" d="M263.08,-220.59C255.01,-213.05 243.28,-202.1 233.53,-192.98"/>
<polygon fill="#63b8ff" stroke="#63b8ff" points="236.08,-190.58 226.38,-186.31 231.3,-195.69 236.08,-190.58"/>
</a>
</g>
</g>
<!-- Node3 -->
<g id="Node000003" class="node">
<title>Node3</title>
<g id="a_Node000003"><a xlink:href="sstypes_8h.html" target="_top" xlink:title=" ">
<polygon fill="white" stroke="#666666" points="149.12,-74.5 90.38,-74.5 90.38,-55.25 149.12,-55.25 149.12,-74.5"/>
<text text-anchor="middle" x="119.75" y="-61" font-family="Helvetica,sans-Serif" font-size="10.00">sstypes.h</text>
</a>
</g>
</g>
<!-- Node1&#45;&gt;Node3 -->
<g id="edge15_Node000001_Node000003" class="edge">
<title>Node1&#45;&gt;Node3</title>
<g id="a_edge15_Node000001_Node000003"><a xlink:title=" ">
<path fill="none" stroke="#63b8ff" d="M222.75,-220.5C200.19,-214.05 174.84,-203.17 157.75,-185 131.92,-157.54 123.65,-112.52 121,-86.4"/>
<polygon fill="#63b8ff" stroke="#63b8ff" points="124.49,-86.15 120.2,-76.46 117.51,-86.71 124.49,-86.15"/>
</a>
</g>
</g>
<!-- Node12 -->
<g id="Node000012" class="node">
<title>Node12</title>
<g id="a_Node000012"><a xlink:href="ssvalue_8h.html" target="_top" xlink:title=" ">
<polygon fill="white" stroke="#666666" points="358.75,-185 300.75,-185 300.75,-165.75 358.75,-165.75 358.75,-185"/>
<text text-anchor="middle" x="329.75" y="-171.5" font-family="Helvetica,sans-Serif" font-size="10.00">ssvalue.h</text>
</a>
</g>
</g>
<!-- Node1&#45;&gt;Node12 -->
<g id="edge16_Node000001_Node000012" class="edge">
<title>Node1&#45;&gt;Node12</title>
<g id="a_edge16_Node000001_Node000012"><a xlink:title=" ">
<path fill="none" stroke="#63b8ff" d="M282.42,-220.59C290.49,-213.05 302.22,-202.1 311.97,-192.98"/>
<polygon fill="#63b8ff" stroke="#63b8ff" points="314.2,-195.69 319.12,-186.31 309.42,-190.58 314.2,-195.69"/>
</a>
</g>
</g>
<!-- Node19 -->
<g id="Node000019" class="node">
<title>Node19</title>
<g id="a_Node000019"><a xlink:title=" ">
<polygon fill="#e0e0e0" stroke="#999999" points="428.38,-185 377.12,-185 377.12,-165.75 428.38,-165.75 428.38,-185"/>
<text text-anchor="middle" x="402.75" y="-171.5" font-family="Helvetica,sans-Serif" font-size="10.00">memory</text>
</a>
</g>
</g>
<!-- Node1&#45;&gt;Node19 -->
<g id="edge28_Node000001_Node000019" class="edge">
<title>Node1&#45;&gt;Node19</title>
<g id="a_edge28_Node000001_Node000019"><a xlink:title=" ">
<path fill="none" stroke="#63b8ff" d="M294.8,-220.59C315.44,-212.14 346.53,-199.4 370.05,-189.77"/>
<polygon fill="#63b8ff" stroke="#63b8ff" points="371.26,-193.06 379.19,-186.03 368.61,-186.58 371.26,-193.06"/>
</a>
</g>
</g>
<!-- Node2&#45;&gt;Node2 -->
<g id="edge14_Node000002_Node000002" class="edge">
<title>Node2&#45;&gt;Node2</title>
<g id="a_edge14_Node000002_Node000002"><a xlink:title=" ">
<path fill="none" stroke="#63b8ff" d="M251.04,-185.48C268.02,-186.73 283,-183.36 283,-175.38 283,-169.26 274.22,-165.85 262.48,-165.15"/>
<polygon fill="#63b8ff" stroke="#63b8ff" points="262.52,-161.65 252.55,-165.25 262.59,-168.65 262.52,-161.65"/>
</a>
</g>
</g>
<!-- Node2&#45;&gt;Node3 -->
<g id="edge2_Node000002_Node000003" class="edge">
<title>Node2&#45;&gt;Node3</title>
<g id="a_edge2_Node000002_Node000003"><a xlink:title=" ">
<path fill="none" stroke="#63b8ff" d="M207.89,-165.5C192.07,-147.61 156.11,-106.97 135.34,-83.5"/>
<polygon fill="#63b8ff" stroke="#63b8ff" points="137.97,-81.18 128.72,-76.01 132.72,-85.82 137.97,-81.18"/>
</a>
</g>
</g>
<!-- Node9 -->
<g id="Node000009" class="node">
<title>Node9</title>
<g id="a_Node000009"><a xlink:href="ssarchiver_8h.html" target="_top" xlink:title=" ">
<polygon fill="white" stroke="#666666" points="254,-129.75 185.5,-129.75 185.5,-110.5 254,-110.5 254,-129.75"/>
<text text-anchor="middle" x="219.75" y="-116.25" font-family="Helvetica,sans-Serif" font-size="10.00">ssarchiver.h</text>
</a>
</g>
</g>
<!-- Node2&#45;&gt;Node9 -->
<g id="edge8_Node000002_Node000009" class="edge">
<title>Node2&#45;&gt;Node9</title>
<g id="a_edge8_Node000002_Node000009"><a xlink:title=" ">
<path fill="none" stroke="#63b8ff" d="M216.41,-165.58C216.91,-158.99 217.6,-149.71 218.23,-141.32"/>
<polygon fill="#63b8ff" stroke="#63b8ff" points="221.7,-141.85 218.96,-131.62 214.72,-141.33 221.7,-141.85"/>
</a>
</g>
</g>
<!-- Node4 -->
<g id="Node000004" class="node">
<title>Node4</title>
<g id="a_Node000004"><a xlink:title=" ">
<polygon fill="#e0e0e0" stroke="#999999" points="47.5,-19.25 0,-19.25 0,0 47.5,0 47.5,-19.25"/>
<text text-anchor="middle" x="23.75" y="-5.75" font-family="Helvetica,sans-Serif" font-size="10.00">stdlib.h</text>
</a>
</g>
</g>
<!-- Node3&#45;&gt;Node4 -->
<g id="edge3_Node000003_Node000004" class="edge">
<title>Node3&#45;&gt;Node4</title>
<g id="a_edge3_Node000003_Node000004"><a xlink:title=" ">
<path fill="none" stroke="#63b8ff" d="M103.46,-54.84C88.85,-46.73 67.12,-34.68 50.04,-25.21"/>
<polygon fill="#63b8ff" stroke="#63b8ff" points="51.88,-22.23 41.44,-20.44 48.49,-28.35 51.88,-22.23"/>
</a>
</g>
</g>
<!-- Node5 -->
<g id="Node000005" class="node">
<title>Node5</title>
<g id="a_Node000005"><a xlink:title=" ">
<polygon fill="#e0e0e0" stroke="#999999" points="239.75,-19.25 199.75,-19.25 199.75,0 239.75,0 239.75,-19.25"/>
<text text-anchor="middle" x="219.75" y="-5.75" font-family="Helvetica,sans-Serif" font-size="10.00">string</text>
</a>
</g>
</g>
<!-- Node3&#45;&gt;Node5 -->
<g id="edge4_Node000003_Node000005" class="edge">
<title>Node3&#45;&gt;Node5</title>
<g id="a_edge4_Node000003_Node000005"><a xlink:title=" ">
<path fill="none" stroke="#63b8ff" d="M136.71,-54.84C152.01,-46.69 174.78,-34.57 192.61,-25.08"/>
<polygon fill="#63b8ff" stroke="#63b8ff" points="194.19,-28.2 201.37,-20.41 190.9,-22.02 194.19,-28.2"/>
</a>
</g>
</g>
<!-- Node6 -->
<g id="Node000006" class="node">
<title>Node6</title>
<g id="a_Node000006"><a xlink:title=" ">
<polygon fill="#e0e0e0" stroke="#999999" points="331.25,-19.25 288.25,-19.25 288.25,0 331.25,0 331.25,-19.25"/>
<text text-anchor="middle" x="309.75" y="-5.75" font-family="Helvetica,sans-Serif" font-size="10.00">vector</text>
</a>
</g>
</g>
<!-- Node3&#45;&gt;Node6 -->
<g id="edge5_Node000003_Node000006" class="edge">
<title>Node3&#45;&gt;Node6</title>
<g id="a_edge5_Node000003_Node000006"><a xlink:title=" ">
<path fill="none" stroke="#63b8ff" d="M149.44,-55.55C184.09,-45.84 241.23,-29.83 277.11,-19.77"/>
<polygon fill="#63b8ff" stroke="#63b8ff" points="277.81,-23.21 286.5,-17.14 275.92,-16.47 277.81,-23.21"/>
</a>
</g>
</g>
<!-- Node7 -->
<g id="Node000007" class="node">
<title>Node7</title>
<g id="a_Node000007"><a xlink:title=" ">
<polygon fill="#e0e0e0" stroke="#999999" points="108.25,-19.25 65.25,-19.25 65.25,0 108.25,0 108.25,-19.25"/>
<text text-anchor="middle" x="86.75" y="-5.75" font-family="Helvetica,sans-Serif" font-size="10.00">cmath</text>
</a>
</g>
</g>
<!-- Node3&#45;&gt;Node7 -->
<g id="edge6_Node000003_Node000007" class="edge">
<title>Node3&#45;&gt;Node7</title>
<g id="a_edge6_Node000003_Node000007"><a xlink:title=" ">
<path fill="none" stroke="#63b8ff" d="M114.3,-55.08C109.98,-48.11 103.79,-38.12 98.37,-29.37"/>
<polygon fill="#63b8ff" stroke="#63b8ff" points="101.36,-27.55 93.11,-20.9 95.41,-31.24 101.36,-27.55"/>
</a>
</g>
</g>
<!-- Node8 -->
<g id="Node000008" class="node">
<title>Node8</title>
<g id="a_Node000008"><a xlink:title=" ">
<polygon fill="#e0e0e0" stroke="#999999" points="181.62,-19.25 125.88,-19.25 125.88,0 181.62,0 181.62,-19.25"/>
<text text-anchor="middle" x="153.75" y="-5.75" font-family="Helvetica,sans-Serif" font-size="10.00">algorithm</text>
</a>
</g>
</g>
<!-- Node3&#45;&gt;Node8 -->
<g id="edge7_Node000003_Node000008" class="edge">
<title>Node3&#45;&gt;Node8</title>
<g id="a_edge7_Node000003_Node000008"><a xlink:title=" ">
<path fill="none" stroke="#63b8ff" d="M125.36,-55.08C129.87,-48.03 136.34,-37.9 141.96,-29.08"/>
<polygon fill="#63b8ff" stroke="#63b8ff" points="144.77,-31.2 147.2,-20.88 138.87,-27.43 144.77,-31.2"/>
</a>
</g>
</g>
<!-- Node9&#45;&gt;Node3 -->
<g id="edge10_Node000009_Node000003" class="edge">
<title>Node9&#45;&gt;Node3</title>
<g id="a_edge10_Node000009_Node000003"><a xlink:title=" ">
<path fill="none" stroke="#63b8ff" d="M202.79,-110.09C187.49,-101.94 164.72,-89.82 146.89,-80.33"/>
<polygon fill="#63b8ff" stroke="#63b8ff" points="148.6,-77.27 138.13,-75.66 145.31,-83.45 148.6,-77.27"/>
</a>
</g>
</g>
<!-- Node9&#45;&gt;Node5 -->
<g id="edge11_Node000009_Node000005" class="edge">
<title>Node9&#45;&gt;Node5</title>
<g id="a_edge11_Node000009_Node000005"><a xlink:title=" ">
<path fill="none" stroke="#63b8ff" d="M214.7,-110.24C210.02,-101.48 203.41,-87.54 200.75,-74.5 197.63,-59.22 203.06,-42.33 208.9,-29.76"/>
<polygon fill="#63b8ff" stroke="#63b8ff" points="211.98,-31.43 213.46,-20.94 205.76,-28.22 211.98,-31.43"/>
</a>
</g>
</g>
<!-- Node9&#45;&gt;Node6 -->
<g id="edge12_Node000009_Node000006" class="edge">
<title>Node9&#45;&gt;Node6</title>
<g id="a_edge12_Node000009_Node000006"><a xlink:title=" ">
<path fill="none" stroke="#63b8ff" d="M219.54,-110.39C219.66,-97.2 221.61,-71.97 233.75,-55.25 244.63,-40.26 262.22,-29.47 277.73,-22.25"/>
<polygon fill="#63b8ff" stroke="#63b8ff" points="278.84,-25.59 286.65,-18.42 276.08,-19.16 278.84,-25.59"/>
</a>
</g>
</g>
<!-- Node10 -->
<g id="Node000010" class="node">
<title>Node10</title>
<g id="a_Node000010"><a xlink:title=" ">
<polygon fill="#e0e0e0" stroke="#999999" points="349.12,-74.5 242.38,-74.5 242.38,-55.25 349.12,-55.25 349.12,-74.5"/>
<text text-anchor="middle" x="295.75" y="-61" font-family="Helvetica,sans-Serif" font-size="10.00">./tinyxml2/tinyxml2.h</text>
</a>
</g>
</g>
<!-- Node9&#45;&gt;Node10 -->
<g id="edge9_Node000009_Node000010" class="edge">
<title>Node9&#45;&gt;Node10</title>
<g id="a_edge9_Node000009_Node000010"><a xlink:title=" ">
<path fill="none" stroke="#63b8ff" d="M232.64,-110.09C243.78,-102.29 260.12,-90.84 273.39,-81.54"/>
<polygon fill="#63b8ff" stroke="#63b8ff" points="275.37,-84.43 281.55,-75.82 271.36,-78.69 275.37,-84.43"/>
</a>
</g>
</g>
<!-- Node11 -->
<g id="Node000011" class="node">
<title>Node11</title>
<g id="a_Node000011"><a xlink:title=" ">
<polygon fill="#e0e0e0" stroke="#999999" points="402.12,-74.5 367.38,-74.5 367.38,-55.25 402.12,-55.25 402.12,-74.5"/>
<text text-anchor="middle" x="384.75" y="-61" font-family="Helvetica,sans-Serif" font-size="10.00">map</text>
</a>
</g>
</g>
<!-- Node9&#45;&gt;Node11 -->
<g id="edge13_Node000009_Node000011" class="edge">
<title>Node9&#45;&gt;Node11</title>
<g id="a_edge13_Node000009_Node000011"><a xlink:title=" ">
<path fill="none" stroke="#63b8ff" d="M247.74,-110.09C278.07,-100.3 326.19,-84.78 356.58,-74.96"/>
<polygon fill="#63b8ff" stroke="#63b8ff" points="357.41,-78.38 365.85,-71.97 355.26,-71.71 357.41,-78.38"/>
</a>
</g>
</g>
<!-- Node12&#45;&gt;Node6 -->
<g id="edge26_Node000012_Node000006" class="edge">
<title>Node12&#45;&gt;Node6</title>
<g id="a_edge26_Node000012_Node000006"><a xlink:title=" ">
<path fill="none" stroke="#63b8ff" d="M359.14,-166.54C377.48,-159.97 399.64,-148.55 410.75,-129.75 427.59,-101.24 428.82,-82.99 410.75,-55.25 395.8,-32.3 366.08,-21.07 342.73,-15.62"/>
<polygon fill="#63b8ff" stroke="#63b8ff" points="343.53,-12.21 333.03,-13.63 342.12,-19.07 343.53,-12.21"/>
</a>
</g>
</g>
<!-- Node12&#45;&gt;Node9 -->
<g id="edge17_Node000012_Node000009" class="edge">
<title>Node12&#45;&gt;Node9</title>
<g id="a_edge17_Node000012_Node000009"><a xlink:title=" ">
<path fill="none" stroke="#63b8ff" d="M311.09,-165.34C294.02,-157.08 268.51,-144.73 248.78,-135.18"/>
<polygon fill="#63b8ff" stroke="#63b8ff" points="250.39,-132.07 239.86,-130.86 247.34,-138.37 250.39,-132.07"/>
</a>
</g>
</g>
<!-- Node12&#45;&gt;Node11 -->
<g id="edge25_Node000012_Node000011" class="edge">
<title>Node12&#45;&gt;Node11</title>
<g id="a_edge25_Node000012_Node000011"><a xlink:title=" ">
<path fill="none" stroke="#63b8ff" d="M330.42,-165.64C331.7,-152.87 335.27,-128.68 344.75,-110.5 350.13,-100.18 358.45,-90.35 366.11,-82.56"/>
<polygon fill="#63b8ff" stroke="#63b8ff" points="368.41,-85.21 373.2,-75.76 363.56,-80.16 368.41,-85.21"/>
</a>
</g>
</g>
<!-- Node13 -->
<g id="Node000013" class="node">
<title>Node13</title>
<g id="a_Node000013"><a xlink:href="ssstring__uty_8h.html" target="_top" xlink:title=" ">
<polygon fill="white" stroke="#666666" points="533.75,-74.5 457.75,-74.5 457.75,-55.25 533.75,-55.25 533.75,-74.5"/>
<text text-anchor="middle" x="495.75" y="-61" font-family="Helvetica,sans-Serif" font-size="10.00">ssstring_uty.h</text>
</a>
</g>
</g>
<!-- Node12&#45;&gt;Node13 -->
<g id="edge18_Node000012_Node000013" class="edge">
<title>Node12&#45;&gt;Node13</title>
<g id="a_edge18_Node000012_Node000013"><a xlink:title=" ">
<path fill="none" stroke="#63b8ff" d="M358.95,-167.42C383.28,-160.63 418,-148.54 443.75,-129.75 460.5,-117.53 474.96,-98.65 484.35,-84.59"/>
<polygon fill="#63b8ff" stroke="#63b8ff" points="487.25,-86.54 489.68,-76.23 481.35,-82.78 487.25,-86.54"/>
</a>
</g>
</g>
<!-- Node18 -->
<g id="Node000018" class="node">
<title>Node18</title>
<g id="a_Node000018"><a xlink:title=" ">
<polygon fill="#e0e0e0" stroke="#999999" points="401.88,-129.75 353.62,-129.75 353.62,-110.5 401.88,-110.5 401.88,-129.75"/>
<text text-anchor="middle" x="377.75" y="-116.25" font-family="Helvetica,sans-Serif" font-size="10.00">cassert</text>
</a>
</g>
</g>
<!-- Node12&#45;&gt;Node18 -->
<g id="edge27_Node000012_Node000018" class="edge">
<title>Node12&#45;&gt;Node18</title>
<g id="a_edge27_Node000012_Node000018"><a xlink:title=" ">
<path fill="none" stroke="#63b8ff" d="M337.68,-165.58C344.31,-158.23 353.97,-147.51 362.14,-138.44"/>
<polygon fill="#63b8ff" stroke="#63b8ff" points="364.54,-141 368.64,-131.23 359.34,-136.32 364.54,-141"/>
</a>
</g>
</g>
<!-- Node13&#45;&gt;Node5 -->
<g id="edge19_Node000013_Node000005" class="edge">
<title>Node13&#45;&gt;Node5</title>
<g id="a_edge19_Node000013_Node000005"><a xlink:title=" ">
<path fill="none" stroke="#63b8ff" d="M457.37,-56.47C402.39,-45.86 302.21,-26.53 251.29,-16.71"/>
<polygon fill="#63b8ff" stroke="#63b8ff" points="252.01,-13.28 241.52,-14.83 250.68,-20.16 252.01,-13.28"/>
</a>
</g>
</g>
<!-- Node13&#45;&gt;Node6 -->
<g id="edge21_Node000013_Node000006" class="edge">
<title>Node13&#45;&gt;Node6</title>
<g id="a_edge21_Node000013_Node000006"><a xlink:title=" ">
<path fill="none" stroke="#63b8ff" d="M464.2,-54.84C430.3,-45.14 376.7,-29.79 342.39,-19.97"/>
<polygon fill="#63b8ff" stroke="#63b8ff" points="343.58,-16.67 333,-17.28 341.65,-23.4 343.58,-16.67"/>
</a>
</g>
</g>
<!-- Node14 -->
<g id="Node000014" class="node">
<title>Node14</title>
<g id="a_Node000014"><a xlink:title=" ">
<polygon fill="#e0e0e0" stroke="#999999" points="557.25,-19.25 508.25,-19.25 508.25,0 557.25,0 557.25,-19.25"/>
<text text-anchor="middle" x="532.75" y="-5.75" font-family="Helvetica,sans-Serif" font-size="10.00">fstream</text>
</a>
</g>
</g>
<!-- Node13&#45;&gt;Node14 -->
<g id="edge20_Node000013_Node000014" class="edge">
<title>Node13&#45;&gt;Node14</title>
<g id="a_edge20_Node000013_Node000014"><a xlink:title=" ">
<path fill="none" stroke="#63b8ff" d="M501.86,-55.08C506.81,-47.96 513.95,-37.68 520.12,-28.8"/>
<polygon fill="#63b8ff" stroke="#63b8ff" points="522.81,-31.06 525.64,-20.85 517.06,-27.07 522.81,-31.06"/>
</a>
</g>
</g>
<!-- Node15 -->
<g id="Node000015" class="node">
<title>Node15</title>
<g id="a_Node000015"><a xlink:title=" ">
<polygon fill="#e0e0e0" stroke="#999999" points="628.5,-19.25 575,-19.25 575,0 628.5,0 628.5,-19.25"/>
<text text-anchor="middle" x="601.75" y="-5.75" font-family="Helvetica,sans-Serif" font-size="10.00">iostream</text>
</a>
</g>
</g>
<!-- Node13&#45;&gt;Node15 -->
<g id="edge22_Node000013_Node000015" class="edge">
<title>Node13&#45;&gt;Node15</title>
<g id="a_edge22_Node000013_Node000015"><a xlink:title=" ">
<path fill="none" stroke="#63b8ff" d="M513.73,-54.84C530.1,-46.62 554.54,-34.34 573.51,-24.81"/>
<polygon fill="#63b8ff" stroke="#63b8ff" points="574.96,-28 582.33,-20.38 571.82,-21.74 574.96,-28"/>
</a>
</g>
</g>
<!-- Node16 -->
<g id="Node000016" class="node">
<title>Node16</title>
<g id="a_Node000016"><a xlink:title=" ">
<polygon fill="#e0e0e0" stroke="#999999" points="425.38,-19.25 374.12,-19.25 374.12,0 425.38,0 425.38,-19.25"/>
<text text-anchor="middle" x="399.75" y="-5.75" font-family="Helvetica,sans-Serif" font-size="10.00">sstream</text>
</a>
</g>
</g>
<!-- Node13&#45;&gt;Node16 -->
<g id="edge23_Node000013_Node000016" class="edge">
<title>Node13&#45;&gt;Node16</title>
<g id="a_edge23_Node000013_Node000016"><a xlink:title=" ">
<path fill="none" stroke="#63b8ff" d="M479.46,-54.84C464.85,-46.73 443.12,-34.68 426.04,-25.21"/>
<polygon fill="#63b8ff" stroke="#63b8ff" points="427.88,-22.23 417.44,-20.44 424.49,-28.35 427.88,-22.23"/>
</a>
</g>
</g>
<!-- Node17 -->
<g id="Node000017" class="node">
<title>Node17</title>
<g id="a_Node000017"><a xlink:title=" ">
<polygon fill="#e0e0e0" stroke="#999999" points="489.75,-19.25 443.75,-19.25 443.75,0 489.75,0 489.75,-19.25"/>
<text text-anchor="middle" x="466.75" y="-5.75" font-family="Helvetica,sans-Serif" font-size="10.00">iterator</text>
</a>
</g>
</g>
<!-- Node13&#45;&gt;Node17 -->
<g id="edge24_Node000013_Node000017" class="edge">
<title>Node13&#45;&gt;Node17</title>
<g id="a_edge24_Node000013_Node000017"><a xlink:title=" ">
<path fill="none" stroke="#63b8ff" d="M490.96,-55.08C487.21,-48.19 481.84,-38.34 477.12,-29.66"/>
<polygon fill="#63b8ff" stroke="#63b8ff" points="480.22,-28.05 472.37,-20.94 474.08,-31.39 480.22,-28.05"/>
</a>
</g>
</g>
</g>
</svg>
