<?xml version="1.0" encoding="UTF-8" standalone="no"?>
<!DOCTYPE svg PUBLIC "-//W3C//DTD SVG 1.1//EN"
 "http://www.w3.org/Graphics/SVG/1.1/DTD/svg11.dtd">
<!-- Generated by graphviz version 12.2.1 (20241206.2353)
 -->
<!-- Title: Common/Loader/SsEffectElement.cpp Pages: 1 -->
<svg width="1088pt" height="469pt"
 viewBox="0.00 0.00 1088.00 469.25" xmlns="http://www.w3.org/2000/svg" xmlns:xlink="http://www.w3.org/1999/xlink">
<g id="graph0" class="graph" transform="scale(1 1) rotate(0) translate(4 465.25)">
<title>Common/Loader/SsEffectElement.cpp</title>
<!-- Node1 -->
<g id="Node000001" class="node">
<title>Node1</title>
<g id="a_Node000001"><a xlink:title=" ">
<polygon fill="#999999" stroke="#666666" points="599,-461.25 415,-461.25 415,-442 599,-442 599,-461.25"/>
<text text-anchor="middle" x="507" y="-447.75" font-family="Helvetica,sans-Serif" font-size="10.00">Common/Loader/SsEffectElement.cpp</text>
</a>
</g>
</g>
<!-- Node2 -->
<g id="Node000002" class="node">
<title>Node2</title>
<g id="a_Node000002"><a xlink:title=" ">
<polygon fill="#e0e0e0" stroke="#999999" points="466.62,-406 421.38,-406 421.38,-386.75 466.62,-386.75 466.62,-406"/>
<text text-anchor="middle" x="444" y="-392.5" font-family="Helvetica,sans-Serif" font-size="10.00">stdio.h</text>
</a>
</g>
</g>
<!-- Node1&#45;&gt;Node2 -->
<g id="edge1_Node000001_Node000002" class="edge">
<title>Node1&#45;&gt;Node2</title>
<g id="a_edge1_Node000001_Node000002"><a xlink:title=" ">
<path fill="none" stroke="#63b8ff" d="M496.31,-441.59C487.3,-433.97 474.17,-422.87 463.32,-413.7"/>
<polygon fill="#63b8ff" stroke="#63b8ff" points="465.58,-411.03 455.69,-407.25 461.06,-416.38 465.58,-411.03"/>
</a>
</g>
</g>
<!-- Node3 -->
<g id="Node000003" class="node">
<title>Node3</title>
<g id="a_Node000003"><a xlink:title=" ">
<polygon fill="#e0e0e0" stroke="#999999" points="529.25,-406 484.75,-406 484.75,-386.75 529.25,-386.75 529.25,-406"/>
<text text-anchor="middle" x="507" y="-392.5" font-family="Helvetica,sans-Serif" font-size="10.00">cstdlib</text>
</a>
</g>
</g>
<!-- Node1&#45;&gt;Node3 -->
<g id="edge2_Node000001_Node000003" class="edge">
<title>Node1&#45;&gt;Node3</title>
<g id="a_edge2_Node000001_Node000003"><a xlink:title=" ">
<path fill="none" stroke="#63b8ff" d="M507,-441.83C507,-435.32 507,-426.17 507,-417.87"/>
<polygon fill="#63b8ff" stroke="#63b8ff" points="510.5,-417.87 507,-407.87 503.5,-417.87 510.5,-417.87"/>
</a>
</g>
</g>
<!-- Node4 -->
<g id="Node000004" class="node">
<title>Node4</title>
<g id="a_Node000004"><a xlink:href="ssloader_8h.html" target="_top" xlink:title=" ">
<polygon fill="white" stroke="#666666" points="607.12,-406 546.88,-406 546.88,-386.75 607.12,-386.75 607.12,-406"/>
<text text-anchor="middle" x="577" y="-392.5" font-family="Helvetica,sans-Serif" font-size="10.00">ssloader.h</text>
</a>
</g>
</g>
<!-- Node1&#45;&gt;Node4 -->
<g id="edge3_Node000001_Node000004" class="edge">
<title>Node1&#45;&gt;Node4</title>
<g id="a_edge3_Node000001_Node000004"><a xlink:title=" ">
<path fill="none" stroke="#63b8ff" d="M518.87,-441.59C529.09,-433.82 544.07,-422.42 556.26,-413.15"/>
<polygon fill="#63b8ff" stroke="#63b8ff" points="558.26,-416.03 564.1,-407.19 554.02,-410.46 558.26,-416.03"/>
</a>
</g>
</g>
<!-- Node5 -->
<g id="Node000005" class="node">
<title>Node5</title>
<g id="a_Node000005"><a xlink:href="sstypes_8h.html" target="_top" xlink:title=" ">
<polygon fill="white" stroke="#666666" points="830.38,-74.5 771.62,-74.5 771.62,-55.25 830.38,-55.25 830.38,-74.5"/>
<text text-anchor="middle" x="801" y="-61" font-family="Helvetica,sans-Serif" font-size="10.00">sstypes.h</text>
</a>
</g>
</g>
<!-- Node4&#45;&gt;Node5 -->
<g id="edge4_Node000004_Node000005" class="edge">
<title>Node4&#45;&gt;Node5</title>
<g id="a_edge4_Node000004_Node000005"><a xlink:title=" ">
<path fill="none" stroke="#63b8ff" d="M607.33,-395.35C716.08,-394.44 1080,-384.14 1080,-286.88 1080,-286.88 1080,-286.88 1080,-174.38 1080,-123.95 919.71,-87.63 842.12,-73"/>
<polygon fill="#63b8ff" stroke="#63b8ff" points="842.82,-69.57 832.35,-71.2 841.54,-76.46 842.82,-69.57"/>
</a>
</g>
</g>
<!-- Node11 -->
<g id="Node000011" class="node">
<title>Node11</title>
<g id="a_Node000011"><a xlink:href="ssarchiver_8h.html" target="_top" xlink:title=" ">
<polygon fill="white" stroke="#666666" points="386.25,-129.75 317.75,-129.75 317.75,-110.5 386.25,-110.5 386.25,-129.75"/>
<text text-anchor="middle" x="352" y="-116.25" font-family="Helvetica,sans-Serif" font-size="10.00">ssarchiver.h</text>
</a>
</g>
</g>
<!-- Node4&#45;&gt;Node11 -->
<g id="edge10_Node000004_Node000011" class="edge">
<title>Node4&#45;&gt;Node11</title>
<g id="a_edge10_Node000004_Node000011"><a xlink:title=" ">
<path fill="none" stroke="#63b8ff" d="M546.54,-386.99C475.63,-367.16 304.37,-317.44 289,-295.5 253.38,-244.65 307.19,-171.45 335.9,-138.43"/>
<polygon fill="#63b8ff" stroke="#63b8ff" points="338.16,-141.15 342.22,-131.37 332.94,-136.48 338.16,-141.15"/>
</a>
</g>
</g>
<!-- Node14 -->
<g id="Node000014" class="node">
<title>Node14</title>
<g id="a_Node000014"><a xlink:href="ssattribute_8h.html" target="_top" xlink:title=" ">
<polygon fill="white" stroke="#666666" points="248,-240.25 178,-240.25 178,-221 248,-221 248,-240.25"/>
<text text-anchor="middle" x="213" y="-226.75" font-family="Helvetica,sans-Serif" font-size="10.00">ssattribute.h</text>
</a>
</g>
</g>
<!-- Node4&#45;&gt;Node14 -->
<g id="edge16_Node000004_Node000014" class="edge">
<title>Node4&#45;&gt;Node14</title>
<g id="a_edge16_Node000004_Node000014"><a xlink:title=" ">
<path fill="none" stroke="#63b8ff" d="M546.4,-388.33C543.56,-387.76 540.73,-387.23 538,-386.75 475.76,-375.92 305.29,-390.26 256,-350.75 225.64,-326.41 216.7,-278.8 214.08,-251.72"/>
<polygon fill="#63b8ff" stroke="#63b8ff" points="217.6,-251.79 213.36,-242.08 210.62,-252.31 217.6,-251.79"/>
</a>
</g>
</g>
<!-- Node22 -->
<g id="Node000022" class="node">
<title>Node22</title>
<g id="a_Node000022"><a xlink:href="ss_interpolation_8h.html" target="_top" xlink:title=" ">
<polygon fill="white" stroke="#666666" points="88,-185 0,-185 0,-165.75 88,-165.75 88,-185"/>
<text text-anchor="middle" x="44" y="-171.5" font-family="Helvetica,sans-Serif" font-size="10.00">ssInterpolation.h</text>
</a>
</g>
</g>
<!-- Node4&#45;&gt;Node22 -->
<g id="edge64_Node000004_Node000022" class="edge">
<title>Node4&#45;&gt;Node22</title>
<g id="a_edge64_Node000004_Node000022"><a xlink:title=" ">
<path fill="none" stroke="#63b8ff" d="M546.4,-388.31C543.57,-387.74 540.73,-387.21 538,-386.75 404.73,-364.13 358.98,-406.85 236,-350.75 155.49,-314.02 85.44,-230.92 57.24,-194.29"/>
<polygon fill="#63b8ff" stroke="#63b8ff" points="60.15,-192.34 51.33,-186.48 54.57,-196.56 60.15,-192.34"/>
</a>
</g>
</g>
<!-- Node24 -->
<g id="Node000024" class="node">
<title>Node24</title>
<g id="a_Node000024"><a xlink:href="ssloader__sspj_8h.html" target="_top" xlink:title=" ">
<polygon fill="white" stroke="#666666" points="691.12,-350.75 606.88,-350.75 606.88,-331.5 691.12,-331.5 691.12,-350.75"/>
<text text-anchor="middle" x="649" y="-337.25" font-family="Helvetica,sans-Serif" font-size="10.00">ssloader_sspj.h</text>
</a>
</g>
</g>
<!-- Node4&#45;&gt;Node24 -->
<g id="edge33_Node000004_Node000024" class="edge">
<title>Node4&#45;&gt;Node24</title>
<g id="a_edge33_Node000004_Node000024"><a xlink:title=" ">
<path fill="none" stroke="#63b8ff" d="M589.21,-386.34C599.83,-378.49 615.44,-366.95 628.04,-357.62"/>
<polygon fill="#63b8ff" stroke="#63b8ff" points="629.79,-360.69 635.75,-351.92 625.63,-355.06 629.79,-360.69"/>
</a>
</g>
</g>
<!-- Node25 -->
<g id="Node000025" class="node">
<title>Node25</title>
<g id="a_Node000025"><a xlink:href="ssloader__ssae_8h.html" target="_top" xlink:title=" ">
<polygon fill="white" stroke="#666666" points="385.62,-295.5 298.38,-295.5 298.38,-276.25 385.62,-276.25 385.62,-295.5"/>
<text text-anchor="middle" x="342" y="-282" font-family="Helvetica,sans-Serif" font-size="10.00">ssloader_ssae.h</text>
</a>
</g>
</g>
<!-- Node4&#45;&gt;Node25 -->
<g id="edge60_Node000004_Node000025" class="edge">
<title>Node4&#45;&gt;Node25</title>
<g id="a_edge60_Node000004_Node000025"><a xlink:title=" ">
<path fill="none" stroke="#63b8ff" d="M557.37,-386.31C516.24,-367.32 420.82,-323.27 371.98,-300.72"/>
<polygon fill="#63b8ff" stroke="#63b8ff" points="373.66,-297.64 363.12,-296.62 370.73,-303.99 373.66,-297.64"/>
</a>
</g>
</g>
<!-- Node26 -->
<g id="Node000026" class="node">
<title>Node26</title>
<g id="a_Node000026"><a xlink:href="ssloader__ssce_8h.html" target="_top" xlink:title=" ">
<polygon fill="white" stroke="#666666" points="1051.62,-240.25 964.38,-240.25 964.38,-221 1051.62,-221 1051.62,-240.25"/>
<text text-anchor="middle" x="1008" y="-226.75" font-family="Helvetica,sans-Serif" font-size="10.00">ssloader_ssce.h</text>
</a>
</g>
</g>
<!-- Node4&#45;&gt;Node26 -->
<g id="edge61_Node000004_Node000026" class="edge">
<title>Node4&#45;&gt;Node26</title>
<g id="a_edge61_Node000004_Node000026"><a xlink:title=" ">
<path fill="none" stroke="#63b8ff" d="M607.62,-387.53C638.56,-379.33 687.58,-365.61 729,-350.75 822.06,-317.35 928.67,-268.88 978.91,-245.4"/>
<polygon fill="#63b8ff" stroke="#63b8ff" points="980.09,-248.71 987.66,-241.29 977.12,-242.37 980.09,-248.71"/>
</a>
</g>
</g>
<!-- Node27 -->
<g id="Node000027" class="node">
<title>Node27</title>
<g id="a_Node000027"><a xlink:href="ssloader__ssee_8h.html" target="_top" xlink:title=" ">
<polygon fill="white" stroke="#666666" points="620.62,-295.5 533.38,-295.5 533.38,-276.25 620.62,-276.25 620.62,-295.5"/>
<text text-anchor="middle" x="577" y="-282" font-family="Helvetica,sans-Serif" font-size="10.00">ssloader_ssee.h</text>
</a>
</g>
</g>
<!-- Node4&#45;&gt;Node27 -->
<g id="edge62_Node000004_Node000027" class="edge">
<title>Node4&#45;&gt;Node27</title>
<g id="a_edge62_Node000004_Node000027"><a xlink:title=" ">
<path fill="none" stroke="#63b8ff" d="M577,-386.5C577,-369.25 577,-330.83 577,-307.06"/>
<polygon fill="#63b8ff" stroke="#63b8ff" points="580.5,-307.39 577,-297.39 573.5,-307.39 580.5,-307.39"/>
</a>
</g>
</g>
<!-- Node31 -->
<g id="Node000031" class="node">
<title>Node31</title>
<g id="a_Node000031"><a xlink:href="ssloader__ssqe_8h.html" target="_top" xlink:title=" ">
<polygon fill="white" stroke="#666666" points="907.62,-240.25 820.38,-240.25 820.38,-221 907.62,-221 907.62,-240.25"/>
<text text-anchor="middle" x="864" y="-226.75" font-family="Helvetica,sans-Serif" font-size="10.00">ssloader_ssqe.h</text>
</a>
</g>
</g>
<!-- Node4&#45;&gt;Node31 -->
<g id="edge63_Node000004_Node000031" class="edge">
<title>Node4&#45;&gt;Node31</title>
<g id="a_edge63_Node000004_Node000031"><a xlink:title=" ">
<path fill="none" stroke="#63b8ff" d="M607.58,-386.9C633.1,-379.22 670.01,-366.68 700,-350.75 756.93,-320.52 816.36,-272.56 845.56,-247.72"/>
<polygon fill="#63b8ff" stroke="#63b8ff" points="847.49,-250.68 852.79,-241.51 842.92,-245.37 847.49,-250.68"/>
</a>
</g>
</g>
<!-- Node6 -->
<g id="Node000006" class="node">
<title>Node6</title>
<g id="a_Node000006"><a xlink:title=" ">
<polygon fill="#e0e0e0" stroke="#999999" points="927.75,-19.25 880.25,-19.25 880.25,0 927.75,0 927.75,-19.25"/>
<text text-anchor="middle" x="904" y="-5.75" font-family="Helvetica,sans-Serif" font-size="10.00">stdlib.h</text>
</a>
</g>
</g>
<!-- Node5&#45;&gt;Node6 -->
<g id="edge5_Node000005_Node000006" class="edge">
<title>Node5&#45;&gt;Node6</title>
<g id="a_edge5_Node000005_Node000006"><a xlink:title=" ">
<path fill="none" stroke="#63b8ff" d="M818.47,-54.84C834.31,-46.66 857.91,-34.46 876.31,-24.94"/>
<polygon fill="#63b8ff" stroke="#63b8ff" points="877.82,-28.1 885.1,-20.4 874.61,-21.88 877.82,-28.1"/>
</a>
</g>
</g>
<!-- Node7 -->
<g id="Node000007" class="node">
<title>Node7</title>
<g id="a_Node000007"><a xlink:title=" ">
<polygon fill="#e0e0e0" stroke="#999999" points="727,-19.25 687,-19.25 687,0 727,0 727,-19.25"/>
<text text-anchor="middle" x="707" y="-5.75" font-family="Helvetica,sans-Serif" font-size="10.00">string</text>
</a>
</g>
</g>
<!-- Node5&#45;&gt;Node7 -->
<g id="edge6_Node000005_Node000007" class="edge">
<title>Node5&#45;&gt;Node7</title>
<g id="a_edge6_Node000005_Node000007"><a xlink:title=" ">
<path fill="none" stroke="#63b8ff" d="M785.05,-54.84C770.74,-46.73 749.47,-34.68 732.75,-25.21"/>
<polygon fill="#63b8ff" stroke="#63b8ff" points="734.77,-22.33 724.34,-20.45 731.32,-28.42 734.77,-22.33"/>
</a>
</g>
</g>
<!-- Node8 -->
<g id="Node000008" class="node">
<title>Node8</title>
<g id="a_Node000008"><a xlink:title=" ">
<polygon fill="#e0e0e0" stroke="#999999" points="336.5,-19.25 293.5,-19.25 293.5,0 336.5,0 336.5,-19.25"/>
<text text-anchor="middle" x="315" y="-5.75" font-family="Helvetica,sans-Serif" font-size="10.00">vector</text>
</a>
</g>
</g>
<!-- Node5&#45;&gt;Node8 -->
<g id="edge7_Node000005_Node000008" class="edge">
<title>Node5&#45;&gt;Node8</title>
<g id="a_edge7_Node000005_Node000008"><a xlink:title=" ">
<path fill="none" stroke="#63b8ff" d="M771.41,-60.48C757.35,-58.88 740.31,-56.95 725,-55.25 584.74,-39.66 417.42,-21.62 347.85,-14.15"/>
<polygon fill="#63b8ff" stroke="#63b8ff" points="348.6,-10.71 338.29,-13.12 347.86,-17.67 348.6,-10.71"/>
</a>
</g>
</g>
<!-- Node9 -->
<g id="Node000009" class="node">
<title>Node9</title>
<g id="a_Node000009"><a xlink:title=" ">
<polygon fill="#e0e0e0" stroke="#999999" points="788.5,-19.25 745.5,-19.25 745.5,0 788.5,0 788.5,-19.25"/>
<text text-anchor="middle" x="767" y="-5.75" font-family="Helvetica,sans-Serif" font-size="10.00">cmath</text>
</a>
</g>
</g>
<!-- Node5&#45;&gt;Node9 -->
<g id="edge8_Node000005_Node000009" class="edge">
<title>Node5&#45;&gt;Node9</title>
<g id="a_edge8_Node000005_Node000009"><a xlink:title=" ">
<path fill="none" stroke="#63b8ff" d="M795.39,-55.08C790.88,-48.03 784.41,-37.9 778.79,-29.08"/>
<polygon fill="#63b8ff" stroke="#63b8ff" points="781.88,-27.43 773.55,-20.88 775.98,-31.2 781.88,-27.43"/>
</a>
</g>
</g>
<!-- Node10 -->
<g id="Node000010" class="node">
<title>Node10</title>
<g id="a_Node000010"><a xlink:title=" ">
<polygon fill="#e0e0e0" stroke="#999999" points="861.88,-19.25 806.12,-19.25 806.12,0 861.88,0 861.88,-19.25"/>
<text text-anchor="middle" x="834" y="-5.75" font-family="Helvetica,sans-Serif" font-size="10.00">algorithm</text>
</a>
</g>
</g>
<!-- Node5&#45;&gt;Node10 -->
<g id="edge9_Node000005_Node000010" class="edge">
<title>Node5&#45;&gt;Node10</title>
<g id="a_edge9_Node000005_Node000010"><a xlink:title=" ">
<path fill="none" stroke="#63b8ff" d="M806.45,-55.08C810.77,-48.11 816.96,-38.12 822.38,-29.37"/>
<polygon fill="#63b8ff" stroke="#63b8ff" points="825.34,-31.24 827.64,-20.9 819.39,-27.55 825.34,-31.24"/>
</a>
</g>
</g>
<!-- Node11&#45;&gt;Node5 -->
<g id="edge12_Node000011_Node000005" class="edge">
<title>Node11&#45;&gt;Node5</title>
<g id="a_edge12_Node000011_Node000005"><a xlink:title=" ">
<path fill="none" stroke="#63b8ff" d="M386.49,-115.03C467.96,-105.37 672.08,-81.16 759.84,-70.76"/>
<polygon fill="#63b8ff" stroke="#63b8ff" points="760.16,-74.24 769.68,-69.59 759.33,-67.29 760.16,-74.24"/>
</a>
</g>
</g>
<!-- Node11&#45;&gt;Node7 -->
<g id="edge13_Node000011_Node000007" class="edge">
<title>Node11&#45;&gt;Node7</title>
<g id="a_edge13_Node000011_Node000007"><a xlink:title=" ">
<path fill="none" stroke="#63b8ff" d="M363.15,-110.08C381.12,-96.01 418.12,-69.05 454,-55.25 529.99,-26.04 626.24,-15.79 675.22,-12.32"/>
<polygon fill="#63b8ff" stroke="#63b8ff" points="675.36,-15.82 685.11,-11.68 674.9,-8.84 675.36,-15.82"/>
</a>
</g>
</g>
<!-- Node11&#45;&gt;Node8 -->
<g id="edge14_Node000011_Node000008" class="edge">
<title>Node11&#45;&gt;Node8</title>
<g id="a_edge14_Node000011_Node000008"><a xlink:title=" ">
<path fill="none" stroke="#63b8ff" d="M317.29,-113.35C294.78,-107.61 267.12,-96.35 253,-74.5 240.67,-55.42 262.93,-37.2 284.13,-25.14"/>
<polygon fill="#63b8ff" stroke="#63b8ff" points="285.77,-28.23 292.95,-20.44 282.48,-22.05 285.77,-28.23"/>
</a>
</g>
</g>
<!-- Node12 -->
<g id="Node000012" class="node">
<title>Node12</title>
<g id="a_Node000012"><a xlink:title=" ">
<polygon fill="#e0e0e0" stroke="#999999" points="368.38,-74.5 261.62,-74.5 261.62,-55.25 368.38,-55.25 368.38,-74.5"/>
<text text-anchor="middle" x="315" y="-61" font-family="Helvetica,sans-Serif" font-size="10.00">./tinyxml2/tinyxml2.h</text>
</a>
</g>
</g>
<!-- Node11&#45;&gt;Node12 -->
<g id="edge11_Node000011_Node000012" class="edge">
<title>Node11&#45;&gt;Node12</title>
<g id="a_edge11_Node000011_Node000012"><a xlink:title=" ">
<path fill="none" stroke="#63b8ff" d="M345.89,-110.33C340.94,-103.21 333.8,-92.93 327.63,-84.05"/>
<polygon fill="#63b8ff" stroke="#63b8ff" points="330.69,-82.32 322.11,-76.1 324.94,-86.31 330.69,-82.32"/>
</a>
</g>
</g>
<!-- Node13 -->
<g id="Node000013" class="node">
<title>Node13</title>
<g id="a_Node000013"><a xlink:title=" ">
<polygon fill="#e0e0e0" stroke="#999999" points="168.38,-74.5 133.62,-74.5 133.62,-55.25 168.38,-55.25 168.38,-74.5"/>
<text text-anchor="middle" x="151" y="-61" font-family="Helvetica,sans-Serif" font-size="10.00">map</text>
</a>
</g>
</g>
<!-- Node11&#45;&gt;Node13 -->
<g id="edge15_Node000011_Node000013" class="edge">
<title>Node11&#45;&gt;Node13</title>
<g id="a_edge15_Node000011_Node000013"><a xlink:title=" ">
<path fill="none" stroke="#63b8ff" d="M317.9,-110.09C278.99,-99.78 216.04,-83.11 179.59,-73.45"/>
<polygon fill="#63b8ff" stroke="#63b8ff" points="180.78,-70.14 170.22,-70.97 178.99,-76.91 180.78,-70.14"/>
</a>
</g>
</g>
<!-- Node14&#45;&gt;Node5 -->
<g id="edge17_Node000014_Node000005" class="edge">
<title>Node14&#45;&gt;Node5</title>
<g id="a_edge17_Node000014_Node000005"><a xlink:title=" ">
<path fill="none" stroke="#63b8ff" d="M248.35,-230.26C315.25,-230.39 464.13,-225.61 581,-185 641.01,-164.15 646.88,-140.27 703,-110.5 724.5,-99.09 749.47,-87.75 768.83,-79.35"/>
<polygon fill="#63b8ff" stroke="#63b8ff" points="770.03,-82.65 777.84,-75.49 767.27,-76.22 770.03,-82.65"/>
</a>
</g>
</g>
<!-- Node14&#45;&gt;Node13 -->
<g id="edge32_Node000014_Node000013" class="edge">
<title>Node14&#45;&gt;Node13</title>
<g id="a_edge32_Node000014_Node000013"><a xlink:title=" ">
<path fill="none" stroke="#63b8ff" d="M182.31,-220.59C165.13,-213.78 145.18,-202.54 135,-185 116.83,-153.68 130.65,-110.09 141.43,-85.25"/>
<polygon fill="#63b8ff" stroke="#63b8ff" points="144.52,-86.9 145.55,-76.36 138.17,-83.96 144.52,-86.9"/>
</a>
</g>
</g>
<!-- Node15 -->
<g id="Node000015" class="node">
<title>Node15</title>
<g id="a_Node000015"><a xlink:href="ssvalue_8h.html" target="_top" xlink:title=" ">
<polygon fill="white" stroke="#666666" points="248,-185 190,-185 190,-165.75 248,-165.75 248,-185"/>
<text text-anchor="middle" x="219" y="-171.5" font-family="Helvetica,sans-Serif" font-size="10.00">ssvalue.h</text>
</a>
</g>
</g>
<!-- Node14&#45;&gt;Node15 -->
<g id="edge18_Node000014_Node000015" class="edge">
<title>Node14&#45;&gt;Node15</title>
<g id="a_edge18_Node000014_Node000015"><a xlink:title=" ">
<path fill="none" stroke="#63b8ff" d="M213.99,-220.83C214.73,-214.24 215.78,-204.96 216.72,-196.57"/>
<polygon fill="#63b8ff" stroke="#63b8ff" points="220.18,-197.19 217.82,-186.86 213.22,-196.41 220.18,-197.19"/>
</a>
</g>
</g>
<!-- Node14&#45;&gt;Node22 -->
<g id="edge30_Node000014_Node000022" class="edge">
<title>Node14&#45;&gt;Node22</title>
<g id="a_edge30_Node000014_Node000022"><a xlink:title=" ">
<path fill="none" stroke="#63b8ff" d="M184.33,-220.59C156.65,-211.87 114.51,-198.59 83.63,-188.86"/>
<polygon fill="#63b8ff" stroke="#63b8ff" points="84.84,-185.57 74.25,-185.91 82.74,-192.25 84.84,-185.57"/>
</a>
</g>
</g>
<!-- Node23 -->
<g id="Node000023" class="node">
<title>Node23</title>
<g id="a_Node000023"><a xlink:title=" ">
<polygon fill="#e0e0e0" stroke="#999999" points="172.4,-185 143.6,-185 143.6,-165.75 172.4,-165.75 172.4,-185"/>
<text text-anchor="middle" x="158" y="-171.5" font-family="Helvetica,sans-Serif" font-size="10.00">list</text>
</a>
</g>
</g>
<!-- Node14&#45;&gt;Node23 -->
<g id="edge31_Node000014_Node000023" class="edge">
<title>Node14&#45;&gt;Node23</title>
<g id="a_edge31_Node000014_Node000023"><a xlink:title=" ">
<path fill="none" stroke="#63b8ff" d="M203.92,-220.83C196.16,-213.32 184.79,-202.31 175.3,-193.13"/>
<polygon fill="#63b8ff" stroke="#63b8ff" points="177.99,-190.85 168.37,-186.41 173.12,-195.88 177.99,-190.85"/>
</a>
</g>
</g>
<!-- Node15&#45;&gt;Node8 -->
<g id="edge28_Node000015_Node000008" class="edge">
<title>Node15&#45;&gt;Node8</title>
<g id="a_edge28_Node000015_Node000008"><a xlink:title=" ">
<path fill="none" stroke="#63b8ff" d="M217.97,-165.5C216.98,-156.51 215.56,-142.18 215,-129.75 214.62,-121.2 212.89,-118.79 215,-110.5 221.88,-83.42 225.95,-75.69 245,-55.25 256.43,-42.99 271.93,-32.65 285.44,-25.03"/>
<polygon fill="#63b8ff" stroke="#63b8ff" points="286.8,-28.27 293.95,-20.45 283.48,-22.11 286.8,-28.27"/>
</a>
</g>
</g>
<!-- Node15&#45;&gt;Node11 -->
<g id="edge19_Node000015_Node000011" class="edge">
<title>Node15&#45;&gt;Node11</title>
<g id="a_edge19_Node000015_Node000011"><a xlink:title=" ">
<path fill="none" stroke="#63b8ff" d="M241.56,-165.34C262.77,-156.85 294.77,-144.04 318.88,-134.39"/>
<polygon fill="#63b8ff" stroke="#63b8ff" points="319.94,-137.73 327.92,-130.77 317.34,-131.23 319.94,-137.73"/>
</a>
</g>
</g>
<!-- Node15&#45;&gt;Node13 -->
<g id="edge27_Node000015_Node000013" class="edge">
<title>Node15&#45;&gt;Node13</title>
<g id="a_edge27_Node000015_Node000013"><a xlink:title=" ">
<path fill="none" stroke="#63b8ff" d="M210.36,-165.31C202.38,-156.63 190.5,-142.95 182,-129.75 172.91,-115.63 164.71,-98.44 159.03,-85.45"/>
<polygon fill="#63b8ff" stroke="#63b8ff" points="162.28,-84.15 155.16,-76.31 155.84,-86.88 162.28,-84.15"/>
</a>
</g>
</g>
<!-- Node16 -->
<g id="Node000016" class="node">
<title>Node16</title>
<g id="a_Node000016"><a xlink:href="ssstring__uty_8h.html" target="_top" xlink:title=" ">
<polygon fill="white" stroke="#666666" points="526,-129.75 450,-129.75 450,-110.5 526,-110.5 526,-129.75"/>
<text text-anchor="middle" x="488" y="-116.25" font-family="Helvetica,sans-Serif" font-size="10.00">ssstring_uty.h</text>
</a>
</g>
</g>
<!-- Node15&#45;&gt;Node16 -->
<g id="edge20_Node000015_Node000016" class="edge">
<title>Node15&#45;&gt;Node16</title>
<g id="a_edge20_Node000015_Node000016"><a xlink:title=" ">
<path fill="none" stroke="#63b8ff" d="M248.3,-168.57C294.03,-159.52 382.91,-141.93 438.65,-130.89"/>
<polygon fill="#63b8ff" stroke="#63b8ff" points="439.06,-134.38 448.19,-129.01 437.7,-127.51 439.06,-134.38"/>
</a>
</g>
</g>
<!-- Node21 -->
<g id="Node000021" class="node">
<title>Node21</title>
<g id="a_Node000021"><a xlink:title=" ">
<polygon fill="#e0e0e0" stroke="#999999" points="272.12,-129.75 223.88,-129.75 223.88,-110.5 272.12,-110.5 272.12,-129.75"/>
<text text-anchor="middle" x="248" y="-116.25" font-family="Helvetica,sans-Serif" font-size="10.00">cassert</text>
</a>
</g>
</g>
<!-- Node15&#45;&gt;Node21 -->
<g id="edge29_Node000015_Node000021" class="edge">
<title>Node15&#45;&gt;Node21</title>
<g id="a_edge29_Node000015_Node000021"><a xlink:title=" ">
<path fill="none" stroke="#63b8ff" d="M223.79,-165.58C227.54,-158.69 232.91,-148.84 237.63,-140.16"/>
<polygon fill="#63b8ff" stroke="#63b8ff" points="240.67,-141.89 242.38,-131.44 234.53,-138.55 240.67,-141.89"/>
</a>
</g>
</g>
<!-- Node16&#45;&gt;Node7 -->
<g id="edge21_Node000016_Node000007" class="edge">
<title>Node16&#45;&gt;Node7</title>
<g id="a_edge21_Node000016_Node000007"><a xlink:title=" ">
<path fill="none" stroke="#63b8ff" d="M526.24,-112.56C592.47,-101.11 721.82,-78.33 725,-74.5 735.67,-61.64 728.47,-42.85 720.23,-28.98"/>
<polygon fill="#63b8ff" stroke="#63b8ff" points="723.25,-27.2 714.83,-20.77 717.4,-31.05 723.25,-27.2"/>
</a>
</g>
</g>
<!-- Node16&#45;&gt;Node8 -->
<g id="edge23_Node000016_Node000008" class="edge">
<title>Node16&#45;&gt;Node8</title>
<g id="a_edge23_Node000016_Node000008"><a xlink:title=" ">
<path fill="none" stroke="#63b8ff" d="M473.55,-110.06C443.71,-91.35 375.04,-48.28 338.64,-25.45"/>
<polygon fill="#63b8ff" stroke="#63b8ff" points="340.9,-22.74 330.57,-20.39 337.18,-28.67 340.9,-22.74"/>
</a>
</g>
</g>
<!-- Node17 -->
<g id="Node000017" class="node">
<title>Node17</title>
<g id="a_Node000017"><a xlink:title=" ">
<polygon fill="#e0e0e0" stroke="#999999" points="511.5,-74.5 462.5,-74.5 462.5,-55.25 511.5,-55.25 511.5,-74.5"/>
<text text-anchor="middle" x="487" y="-61" font-family="Helvetica,sans-Serif" font-size="10.00">fstream</text>
</a>
</g>
</g>
<!-- Node16&#45;&gt;Node17 -->
<g id="edge22_Node000016_Node000017" class="edge">
<title>Node16&#45;&gt;Node17</title>
<g id="a_edge22_Node000016_Node000017"><a xlink:title=" ">
<path fill="none" stroke="#63b8ff" d="M487.83,-110.33C487.71,-103.82 487.54,-94.67 487.38,-86.37"/>
<polygon fill="#63b8ff" stroke="#63b8ff" points="490.88,-86.3 487.2,-76.37 483.89,-86.44 490.88,-86.3"/>
</a>
</g>
</g>
<!-- Node18 -->
<g id="Node000018" class="node">
<title>Node18</title>
<g id="a_Node000018"><a xlink:title=" ">
<polygon fill="#e0e0e0" stroke="#999999" points="582.75,-74.5 529.25,-74.5 529.25,-55.25 582.75,-55.25 582.75,-74.5"/>
<text text-anchor="middle" x="556" y="-61" font-family="Helvetica,sans-Serif" font-size="10.00">iostream</text>
</a>
</g>
</g>
<!-- Node16&#45;&gt;Node18 -->
<g id="edge24_Node000016_Node000018" class="edge">
<title>Node16&#45;&gt;Node18</title>
<g id="a_edge24_Node000016_Node000018"><a xlink:title=" ">
<path fill="none" stroke="#63b8ff" d="M499.54,-110.09C509.46,-102.32 524.01,-90.92 535.86,-81.65"/>
<polygon fill="#63b8ff" stroke="#63b8ff" points="537.73,-84.63 543.44,-75.71 533.41,-79.12 537.73,-84.63"/>
</a>
</g>
</g>
<!-- Node19 -->
<g id="Node000019" class="node">
<title>Node19</title>
<g id="a_Node000019"><a xlink:title=" ">
<polygon fill="#e0e0e0" stroke="#999999" points="651.62,-74.5 600.38,-74.5 600.38,-55.25 651.62,-55.25 651.62,-74.5"/>
<text text-anchor="middle" x="626" y="-61" font-family="Helvetica,sans-Serif" font-size="10.00">sstream</text>
</a>
</g>
</g>
<!-- Node16&#45;&gt;Node19 -->
<g id="edge25_Node000016_Node000019" class="edge">
<title>Node16&#45;&gt;Node19</title>
<g id="a_edge25_Node000016_Node000019"><a xlink:title=" ">
<path fill="none" stroke="#63b8ff" d="M511.41,-110.09C533.52,-101.56 566.92,-88.67 591.97,-79.01"/>
<polygon fill="#63b8ff" stroke="#63b8ff" points="592.99,-82.36 601.06,-75.5 590.47,-75.83 592.99,-82.36"/>
</a>
</g>
</g>
<!-- Node20 -->
<g id="Node000020" class="node">
<title>Node20</title>
<g id="a_Node000020"><a xlink:title=" ">
<polygon fill="#e0e0e0" stroke="#999999" points="716,-74.5 670,-74.5 670,-55.25 716,-55.25 716,-74.5"/>
<text text-anchor="middle" x="693" y="-61" font-family="Helvetica,sans-Serif" font-size="10.00">iterator</text>
</a>
</g>
</g>
<!-- Node16&#45;&gt;Node20 -->
<g id="edge26_Node000016_Node000020" class="edge">
<title>Node16&#45;&gt;Node20</title>
<g id="a_edge26_Node000016_Node000020"><a xlink:title=" ">
<path fill="none" stroke="#63b8ff" d="M523.81,-110.01C556.49,-101.66 606.42,-88.84 658.46,-75.15"/>
<polygon fill="#63b8ff" stroke="#63b8ff" points="659.35,-78.54 668.13,-72.6 657.56,-71.77 659.35,-78.54"/>
</a>
</g>
</g>
<!-- Node24&#45;&gt;Node5 -->
<g id="edge34_Node000024_Node000005" class="edge">
<title>Node24&#45;&gt;Node5</title>
<g id="a_edge34_Node000024_Node000005"><a xlink:title=" ">
<path fill="none" stroke="#63b8ff" d="M689.25,-331.05C757.32,-314.8 890.37,-278.81 917,-240.25 957.17,-182.1 869.48,-111.74 824.92,-81.22"/>
<polygon fill="#63b8ff" stroke="#63b8ff" points="826.89,-78.33 816.63,-75.68 823,-84.15 826.89,-78.33"/>
</a>
</g>
</g>
<!-- Node24&#45;&gt;Node11 -->
<g id="edge35_Node000024_Node000011" class="edge">
<title>Node24&#45;&gt;Node11</title>
<g id="a_edge35_Node000024_Node000011"><a xlink:title=" ">
<path fill="none" stroke="#63b8ff" d="M606.52,-334.52C574.36,-328.73 530.21,-317.32 497,-295.5 433.19,-253.57 382.84,-175.09 362.18,-139.51"/>
<polygon fill="#63b8ff" stroke="#63b8ff" points="365.47,-138.21 357.49,-131.25 359.38,-141.67 365.47,-138.21"/>
</a>
</g>
</g>
<!-- Node24&#45;&gt;Node16 -->
<g id="edge36_Node000024_Node000016" class="edge">
<title>Node24&#45;&gt;Node16</title>
<g id="a_edge36_Node000024_Node000016"><a xlink:title=" ">
<path fill="none" stroke="#63b8ff" d="M606.44,-331.86C580.65,-325.26 548.17,-313.97 524,-295.5 476.44,-259.15 464.94,-242.11 447,-185 444.44,-176.84 443.89,-173.72 447,-165.75 451.16,-155.07 459.21,-145.39 467.08,-137.8"/>
<polygon fill="#63b8ff" stroke="#63b8ff" points="469.39,-140.44 474.55,-131.18 464.74,-135.2 469.39,-140.44"/>
</a>
</g>
</g>
<!-- Node24&#45;&gt;Node25 -->
<g id="edge37_Node000024_Node000025" class="edge">
<title>Node24&#45;&gt;Node25</title>
<g id="a_edge37_Node000024_Node000025"><a xlink:title=" ">
<path fill="none" stroke="#63b8ff" d="M606.64,-332.78C552.09,-323.32 457.18,-306.85 397.08,-296.43"/>
<polygon fill="#63b8ff" stroke="#63b8ff" points="397.86,-293.01 387.4,-294.75 396.66,-299.91 397.86,-293.01"/>
</a>
</g>
</g>
<!-- Node24&#45;&gt;Node26 -->
<g id="edge41_Node000024_Node000026" class="edge">
<title>Node24&#45;&gt;Node26</title>
<g id="a_edge41_Node000024_Node000026"><a xlink:title=" ">
<path fill="none" stroke="#63b8ff" d="M691.18,-337.99C743.59,-334.19 835.03,-323.76 908,-295.5 938.1,-283.84 968.82,-262.53 988.12,-247.74"/>
<polygon fill="#63b8ff" stroke="#63b8ff" points="990.21,-250.55 995.92,-241.63 985.89,-245.04 990.21,-250.55"/>
</a>
</g>
</g>
<!-- Node24&#45;&gt;Node27 -->
<g id="edge44_Node000024_Node000027" class="edge">
<title>Node24&#45;&gt;Node27</title>
<g id="a_edge44_Node000024_Node000027"><a xlink:title=" ">
<path fill="none" stroke="#63b8ff" d="M636.79,-331.09C626.17,-323.24 610.56,-311.7 597.96,-302.37"/>
<polygon fill="#63b8ff" stroke="#63b8ff" points="600.37,-299.81 590.25,-296.67 596.21,-305.44 600.37,-299.81"/>
</a>
</g>
</g>
<!-- Node30 -->
<g id="Node000030" class="node">
<title>Node30</title>
<g id="a_Node000030"><a xlink:title=" ">
<polygon fill="#e0e0e0" stroke="#999999" points="717.62,-185 666.38,-185 666.38,-165.75 717.62,-165.75 717.62,-185"/>
<text text-anchor="middle" x="692" y="-171.5" font-family="Helvetica,sans-Serif" font-size="10.00">memory</text>
</a>
</g>
</g>
<!-- Node24&#45;&gt;Node30 -->
<g id="edge58_Node000024_Node000030" class="edge">
<title>Node24&#45;&gt;Node30</title>
<g id="a_edge58_Node000024_Node000030"><a xlink:title=" ">
<path fill="none" stroke="#63b8ff" d="M651.31,-331.32C657.99,-305.89 677.43,-231.85 686.81,-196.12"/>
<polygon fill="#63b8ff" stroke="#63b8ff" points="690.14,-197.25 689.29,-186.69 683.37,-195.47 690.14,-197.25"/>
</a>
</g>
</g>
<!-- Node24&#45;&gt;Node31 -->
<g id="edge55_Node000024_Node000031" class="edge">
<title>Node24&#45;&gt;Node31</title>
<g id="a_edge55_Node000024_Node000031"><a xlink:title=" ">
<path fill="none" stroke="#63b8ff" d="M666.96,-331.06C704.35,-312.19 790.79,-268.57 835.72,-245.9"/>
<polygon fill="#63b8ff" stroke="#63b8ff" points="837.24,-249.05 844.59,-241.42 834.08,-242.8 837.24,-249.05"/>
</a>
</g>
</g>
<!-- Node32 -->
<g id="Node000032" class="node">
<title>Node32</title>
<g id="a_Node000032"><a xlink:title=" ">
<polygon fill="#e0e0e0" stroke="#999999" points="720.62,-295.5 681.38,-295.5 681.38,-276.25 720.62,-276.25 720.62,-295.5"/>
<text text-anchor="middle" x="701" y="-282" font-family="Helvetica,sans-Serif" font-size="10.00">utility</text>
</a>
</g>
</g>
<!-- Node24&#45;&gt;Node32 -->
<g id="edge59_Node000024_Node000032" class="edge">
<title>Node24&#45;&gt;Node32</title>
<g id="a_edge59_Node000024_Node000032"><a xlink:title=" ">
<path fill="none" stroke="#63b8ff" d="M657.59,-331.33C664.84,-323.9 675.45,-313.04 684.37,-303.91"/>
<polygon fill="#63b8ff" stroke="#63b8ff" points="686.69,-306.54 691.17,-296.94 681.68,-301.65 686.69,-306.54"/>
</a>
</g>
</g>
<!-- Node25&#45;&gt;Node5 -->
<g id="edge38_Node000025_Node000005" class="edge">
<title>Node25&#45;&gt;Node5</title>
<g id="a_edge38_Node000025_Node000005"><a xlink:title=" ">
<path fill="none" stroke="#63b8ff" d="M386.07,-283.37C444.38,-280.22 549.63,-270.46 634,-240.25 679.26,-224.04 692.67,-218.66 727,-185 757.32,-155.28 780.67,-110.77 792.48,-85.42"/>
<polygon fill="#63b8ff" stroke="#63b8ff" points="795.66,-86.88 796.58,-76.32 789.27,-84 795.66,-86.88"/>
</a>
</g>
</g>
<!-- Node25&#45;&gt;Node11 -->
<g id="edge39_Node000025_Node000011" class="edge">
<title>Node25&#45;&gt;Node11</title>
<g id="a_edge39_Node000025_Node000011"><a xlink:title=" ">
<path fill="none" stroke="#63b8ff" d="M340.57,-275.84C337.64,-255.86 331.76,-206.45 338,-165.75 339.27,-157.43 341.81,-148.53 344.38,-140.88"/>
<polygon fill="#63b8ff" stroke="#63b8ff" points="347.64,-142.18 347.75,-131.58 341.05,-139.79 347.64,-142.18"/>
</a>
</g>
</g>
<!-- Node25&#45;&gt;Node14 -->
<g id="edge40_Node000025_Node000014" class="edge">
<title>Node25&#45;&gt;Node14</title>
<g id="a_edge40_Node000025_Node000014"><a xlink:title=" ">
<path fill="none" stroke="#63b8ff" d="M320.12,-275.84C299.64,-267.39 268.79,-254.65 245.44,-245.02"/>
<polygon fill="#63b8ff" stroke="#63b8ff" points="246.97,-241.86 236.39,-241.28 244.3,-248.33 246.97,-241.86"/>
</a>
</g>
</g>
<!-- Node26&#45;&gt;Node5 -->
<g id="edge42_Node000026_Node000005" class="edge">
<title>Node26&#45;&gt;Node5</title>
<g id="a_edge42_Node000026_Node000005"><a xlink:title=" ">
<path fill="none" stroke="#63b8ff" d="M1006.22,-220.64C1001.36,-198.49 985.76,-140.89 950,-110.5 919.58,-84.65 874.6,-73.77 842.02,-69.2"/>
<polygon fill="#63b8ff" stroke="#63b8ff" points="842.49,-65.73 832.14,-67.97 841.63,-72.68 842.49,-65.73"/>
</a>
</g>
</g>
<!-- Node26&#45;&gt;Node11 -->
<g id="edge43_Node000026_Node000011" class="edge">
<title>Node26&#45;&gt;Node11</title>
<g id="a_edge43_Node000026_Node000011"><a xlink:title=" ">
<path fill="none" stroke="#63b8ff" d="M979.26,-220.53C934.26,-206.63 844.19,-180.2 766,-165.75 730.48,-159.19 498.14,-135.68 397.91,-125.68"/>
<polygon fill="#63b8ff" stroke="#63b8ff" points="398.45,-122.21 388.15,-124.71 397.75,-129.18 398.45,-122.21"/>
</a>
</g>
</g>
<!-- Node27&#45;&gt;Node5 -->
<g id="edge45_Node000027_Node000005" class="edge">
<title>Node27&#45;&gt;Node5</title>
<g id="a_edge45_Node000027_Node000005"><a xlink:title=" ">
<path fill="none" stroke="#63b8ff" d="M620.69,-278.9C669.66,-271.47 745.19,-257.65 768,-240.25 815.33,-204.16 810.02,-123.26 804.57,-85.71"/>
<polygon fill="#63b8ff" stroke="#63b8ff" points="808.09,-85.57 803.03,-76.26 801.18,-86.7 808.09,-85.57"/>
</a>
</g>
</g>
<!-- Node27&#45;&gt;Node11 -->
<g id="edge46_Node000027_Node000011" class="edge">
<title>Node27&#45;&gt;Node11</title>
<g id="a_edge46_Node000027_Node000011"><a xlink:title=" ">
<path fill="none" stroke="#63b8ff" d="M564.58,-275.84C527.93,-249.17 419.9,-170.54 373.54,-136.8"/>
<polygon fill="#63b8ff" stroke="#63b8ff" points="375.75,-134.08 365.6,-131.02 371.63,-139.74 375.75,-134.08"/>
</a>
</g>
</g>
<!-- Node28 -->
<g id="Node000028" class="node">
<title>Node28</title>
<g id="a_Node000028"><a xlink:href="_ss_effect_behavior_8h.html" target="_top" xlink:title=" ">
<polygon fill="white" stroke="#666666" points="625,-240.25 525,-240.25 525,-221 625,-221 625,-240.25"/>
<text text-anchor="middle" x="575" y="-226.75" font-family="Helvetica,sans-Serif" font-size="10.00">SsEffectBehavior.h</text>
</a>
</g>
</g>
<!-- Node27&#45;&gt;Node28 -->
<g id="edge47_Node000027_Node000028" class="edge">
<title>Node27&#45;&gt;Node28</title>
<g id="a_edge47_Node000027_Node000028"><a xlink:title=" ">
<path fill="none" stroke="#63b8ff" d="M576.67,-276.08C576.42,-269.49 576.07,-260.21 575.76,-251.82"/>
<polygon fill="#63b8ff" stroke="#63b8ff" points="579.27,-251.98 575.39,-242.12 572.27,-252.25 579.27,-251.98"/>
</a>
</g>
</g>
<!-- Node28&#45;&gt;Node5 -->
<g id="edge52_Node000028_Node000005" class="edge">
<title>Node28&#45;&gt;Node5</title>
<g id="a_edge52_Node000028_Node000005"><a xlink:title=" ">
<path fill="none" stroke="#63b8ff" d="M586.26,-220.54C601.92,-207.96 631.27,-184.67 657,-165.75 698.91,-134.93 749.08,-100.72 777.78,-81.4"/>
<polygon fill="#63b8ff" stroke="#63b8ff" points="779.72,-84.32 786.07,-75.84 775.81,-78.5 779.72,-84.32"/>
</a>
</g>
</g>
<!-- Node28&#45;&gt;Node15 -->
<g id="edge53_Node000028_Node000015" class="edge">
<title>Node28&#45;&gt;Node15</title>
<g id="a_edge53_Node000028_Node000015"><a xlink:title=" ">
<path fill="none" stroke="#63b8ff" d="M524.75,-222.11C453.51,-211.45 324.57,-192.17 259.25,-182.4"/>
<polygon fill="#63b8ff" stroke="#63b8ff" points="260.11,-178.98 249.7,-180.97 259.07,-185.91 260.11,-178.98"/>
</a>
</g>
</g>
<!-- Node29 -->
<g id="Node000029" class="node">
<title>Node29</title>
<g id="a_Node000029"><a xlink:href="_ss_effect_element_8h.html" target="_top" xlink:title=" ">
<polygon fill="white" stroke="#666666" points="554.25,-185 455.75,-185 455.75,-165.75 554.25,-165.75 554.25,-185"/>
<text text-anchor="middle" x="505" y="-171.5" font-family="Helvetica,sans-Serif" font-size="10.00">SsEffectElement.h</text>
</a>
</g>
</g>
<!-- Node28&#45;&gt;Node29 -->
<g id="edge48_Node000028_Node000029" class="edge">
<title>Node28&#45;&gt;Node29</title>
<g id="a_edge48_Node000028_Node000029"><a xlink:title=" ">
<path fill="none" stroke="#63b8ff" d="M563.13,-220.59C552.91,-212.82 537.93,-201.42 525.74,-192.15"/>
<polygon fill="#63b8ff" stroke="#63b8ff" points="527.98,-189.46 517.9,-186.19 523.74,-195.03 527.98,-189.46"/>
</a>
</g>
</g>
<!-- Node28&#45;&gt;Node30 -->
<g id="edge54_Node000028_Node000030" class="edge">
<title>Node28&#45;&gt;Node30</title>
<g id="a_edge54_Node000028_Node000030"><a xlink:title=" ">
<path fill="none" stroke="#63b8ff" d="M594.85,-220.59C613.17,-212.25 640.65,-199.75 661.71,-190.16"/>
<polygon fill="#63b8ff" stroke="#63b8ff" points="663.03,-193.41 670.68,-186.08 660.13,-187.04 663.03,-193.41"/>
</a>
</g>
</g>
<!-- Node29&#45;&gt;Node5 -->
<g id="edge49_Node000029_Node000005" class="edge">
<title>Node29&#45;&gt;Node5</title>
<g id="a_edge49_Node000029_Node000005"><a xlink:title=" ">
<path fill="none" stroke="#63b8ff" d="M513.53,-165.36C527.36,-151.33 556.13,-124.42 586,-110.5 616.42,-96.32 706.71,-80.53 760.12,-72.06"/>
<polygon fill="#63b8ff" stroke="#63b8ff" points="760.41,-75.56 769.74,-70.55 759.32,-68.64 760.41,-75.56"/>
</a>
</g>
</g>
<!-- Node29&#45;&gt;Node11 -->
<g id="edge50_Node000029_Node000011" class="edge">
<title>Node29&#45;&gt;Node11</title>
<g id="a_edge50_Node000029_Node000011"><a xlink:title=" ">
<path fill="none" stroke="#63b8ff" d="M479.05,-165.34C454.21,-156.7 416.5,-143.57 388.62,-133.87"/>
<polygon fill="#63b8ff" stroke="#63b8ff" points="390.11,-130.68 379.51,-130.7 387.81,-137.29 390.11,-130.68"/>
</a>
</g>
</g>
<!-- Node29&#45;&gt;Node29 -->
<g id="edge51_Node000029_Node000029" class="edge">
<title>Node29&#45;&gt;Node29</title>
<g id="a_edge51_Node000029_Node000029"><a xlink:title=" ">
<path fill="none" stroke="#63b8ff" d="M540.29,-185.48C557.27,-186.73 572.25,-183.36 572.25,-175.38 572.25,-169.26 563.47,-165.85 551.73,-165.15"/>
<polygon fill="#63b8ff" stroke="#63b8ff" points="551.77,-161.65 541.8,-165.25 551.84,-168.65 551.77,-161.65"/>
</a>
</g>
</g>
<!-- Node31&#45;&gt;Node5 -->
<g id="edge56_Node000031_Node000005" class="edge">
<title>Node31&#45;&gt;Node5</title>
<g id="a_edge56_Node000031_Node000005"><a xlink:title=" ">
<path fill="none" stroke="#63b8ff" d="M863.21,-220.52C861.14,-199.96 854.4,-148.8 836,-110.5 831.33,-100.78 824.25,-91.22 817.68,-83.45"/>
<polygon fill="#63b8ff" stroke="#63b8ff" points="820.39,-81.23 811.12,-76.1 815.17,-85.89 820.39,-81.23"/>
</a>
</g>
</g>
<!-- Node31&#45;&gt;Node11 -->
<g id="edge57_Node000031_Node000011" class="edge">
<title>Node31&#45;&gt;Node11</title>
<g id="a_edge57_Node000031_Node000011"><a xlink:title=" ">
<path fill="none" stroke="#63b8ff" d="M849.01,-220.68C824.45,-206.48 773.69,-179.04 727,-165.75 695.97,-156.92 490.97,-135.29 397.86,-125.76"/>
<polygon fill="#63b8ff" stroke="#63b8ff" points="398.36,-122.29 388.06,-124.76 397.65,-129.26 398.36,-122.29"/>
</a>
</g>
</g>
</g>
</svg>
