<?xml version="1.0" encoding="UTF-8" standalone="no"?>
<!DOCTYPE svg PUBLIC "-//W3C//DTD SVG 1.1//EN"
 "http://www.w3.org/Graphics/SVG/1.1/DTD/svg11.dtd">
<!-- Generated by graphviz version 12.2.1 (20241206.2353)
 -->
<!-- Title: Common/Loader/SsEffectBehavior.h Pages: 1 -->
<svg width="1755pt" height="482pt"
 viewBox="0.00 0.00 1754.50 481.50" xmlns="http://www.w3.org/2000/svg" xmlns:xlink="http://www.w3.org/1999/xlink">
<g id="graph0" class="graph" transform="scale(1 1) rotate(0) translate(4 477.5)">
<title>Common/Loader/SsEffectBehavior.h</title>
<!-- Node1 -->
<g id="Node000001" class="node">
<title>Node1</title>
<g id="a_Node000001"><a xlink:title=" ">
<polygon fill="#999999" stroke="#666666" points="1012.25,-473.5 837.25,-473.5 837.25,-454.25 1012.25,-454.25 1012.25,-473.5"/>
<text text-anchor="middle" x="924.75" y="-460" font-family="Helvetica,sans-Serif" font-size="10.00">Common/Loader/SsEffectBehavior.h</text>
</a>
</g>
</g>
<!-- Node2 -->
<g id="Node000002" class="node">
<title>Node2</title>
<g id="a_Node000002"><a xlink:href="_ss_effect_behavior_8cpp.html" target="_top" xlink:title=" ">
<polygon fill="white" stroke="#666666" points="930.5,-412.62 745,-412.62 745,-393.38 930.5,-393.38 930.5,-412.62"/>
<text text-anchor="middle" x="837.75" y="-399.12" font-family="Helvetica,sans-Serif" font-size="10.00">Common/Loader/SsEffectBehavior.cpp</text>
</a>
</g>
</g>
<!-- Node1&#45;&gt;Node2 -->
<g id="edge1_Node000001_Node000002" class="edge">
<title>Node1&#45;&gt;Node2</title>
<g id="a_edge1_Node000001_Node000002"><a xlink:title=" ">
<path fill="none" stroke="#63b8ff" d="M902.22,-447.63C886,-436.65 864.68,-422.22 851.09,-413.03"/>
<polygon fill="#63b8ff" stroke="#63b8ff" points="900.04,-450.38 910.28,-453.08 903.96,-444.58 900.04,-450.38"/>
</a>
</g>
</g>
<!-- Node3 -->
<g id="Node000003" class="node">
<title>Node3</title>
<g id="a_Node000003"><a xlink:href="ssloader__ssee_8h.html" target="_top" xlink:title=" ">
<polygon fill="white" stroke="#666666" points="1076.62,-418.25 948.88,-418.25 948.88,-387.75 1076.62,-387.75 1076.62,-418.25"/>
<text text-anchor="start" x="956.88" y="-404.75" font-family="Helvetica,sans-Serif" font-size="10.00">Common/Loader/ssloader</text>
<text text-anchor="middle" x="1012.75" y="-393.5" font-family="Helvetica,sans-Serif" font-size="10.00">_ssee.h</text>
</a>
</g>
</g>
<!-- Node1&#45;&gt;Node3 -->
<g id="edge2_Node000001_Node000003" class="edge">
<title>Node1&#45;&gt;Node3</title>
<g id="a_edge2_Node000001_Node000003"><a xlink:title=" ">
<path fill="none" stroke="#63b8ff" d="M947.58,-447.6C960.98,-438.64 977.82,-427.37 991.03,-418.53"/>
<polygon fill="#63b8ff" stroke="#63b8ff" points="945.74,-444.62 939.37,-453.09 949.63,-450.44 945.74,-444.62"/>
</a>
</g>
</g>
<!-- Node4 -->
<g id="Node000004" class="node">
<title>Node4</title>
<g id="a_Node000004"><a xlink:href="ssloader_8h.html" target="_top" xlink:title=" ">
<polygon fill="white" stroke="#666666" points="963.38,-279.62 828.12,-279.62 828.12,-260.38 963.38,-260.38 963.38,-279.62"/>
<text text-anchor="middle" x="895.75" y="-266.12" font-family="Helvetica,sans-Serif" font-size="10.00">Common/Loader/ssloader.h</text>
</a>
</g>
</g>
<!-- Node3&#45;&gt;Node4 -->
<g id="edge3_Node000003_Node000004" class="edge">
<title>Node3&#45;&gt;Node4</title>
<g id="a_edge3_Node000003_Node000004"><a xlink:title=" ">
<path fill="none" stroke="#63b8ff" d="M992.28,-379.08C966.1,-349.77 921.99,-300.38 903.88,-280.1"/>
<polygon fill="#63b8ff" stroke="#63b8ff" points="989.5,-381.22 998.77,-386.35 994.72,-376.56 989.5,-381.22"/>
</a>
</g>
</g>
<!-- Node24 -->
<g id="Node000024" class="node">
<title>Node24</title>
<g id="a_Node000024"><a xlink:href="ssloader__ssee_8cpp.html" target="_top" xlink:title=" ">
<polygon fill="white" stroke="#666666" points="1109.62,-285.25 981.88,-285.25 981.88,-254.75 1109.62,-254.75 1109.62,-285.25"/>
<text text-anchor="start" x="989.88" y="-271.75" font-family="Helvetica,sans-Serif" font-size="10.00">Common/Loader/ssloader</text>
<text text-anchor="middle" x="1045.75" y="-260.5" font-family="Helvetica,sans-Serif" font-size="10.00">_ssee.cpp</text>
</a>
</g>
</g>
<!-- Node3&#45;&gt;Node24 -->
<g id="edge40_Node000003_Node000024" class="edge">
<title>Node3&#45;&gt;Node24</title>
<g id="a_edge40_Node000003_Node000024"><a xlink:title=" ">
<path fill="none" stroke="#63b8ff" d="M995.22,-377.94C985.57,-361.59 977.15,-339.66 985.75,-321.25 992.76,-306.23 1006.72,-294.11 1019.41,-285.54"/>
<polygon fill="#63b8ff" stroke="#63b8ff" points="992.07,-379.52 1000.42,-386.05 997.96,-375.74 992.07,-379.52"/>
</a>
</g>
</g>
<!-- Node25 -->
<g id="Node000025" class="node">
<title>Node25</title>
<g id="a_Node000025"><a xlink:href="ssloader__sspj_8cpp.html" target="_top" xlink:title=" ">
<polygon fill="white" stroke="#666666" points="1255.62,-285.25 1127.88,-285.25 1127.88,-254.75 1255.62,-254.75 1255.62,-285.25"/>
<text text-anchor="start" x="1135.88" y="-271.75" font-family="Helvetica,sans-Serif" font-size="10.00">Common/Loader/ssloader</text>
<text text-anchor="middle" x="1191.75" y="-260.5" font-family="Helvetica,sans-Serif" font-size="10.00">_sspj.cpp</text>
</a>
</g>
</g>
<!-- Node3&#45;&gt;Node25 -->
<g id="edge41_Node000003_Node000025" class="edge">
<title>Node3&#45;&gt;Node25</title>
<g id="a_edge41_Node000003_Node000025"><a xlink:title=" ">
<path fill="none" stroke="#63b8ff" d="M1074.14,-383.28C1093.77,-375.48 1114.78,-365.07 1131.75,-351.75 1155.24,-333.31 1174.12,-303.47 1184.07,-285.69"/>
<polygon fill="#63b8ff" stroke="#63b8ff" points="1072.94,-379.99 1064.83,-386.81 1075.42,-386.53 1072.94,-379.99"/>
</a>
</g>
</g>
<!-- Node26 -->
<g id="Node000026" class="node">
<title>Node26</title>
<g id="a_Node000026"><a xlink:href="ssloader__sspj_8h.html" target="_top" xlink:title=" ">
<polygon fill="white" stroke="#666666" points="1122.62,-351.75 994.88,-351.75 994.88,-321.25 1122.62,-321.25 1122.62,-351.75"/>
<text text-anchor="start" x="1002.88" y="-338.25" font-family="Helvetica,sans-Serif" font-size="10.00">Common/Loader/ssloader</text>
<text text-anchor="middle" x="1058.75" y="-327" font-family="Helvetica,sans-Serif" font-size="10.00">_sspj.h</text>
</a>
</g>
</g>
<!-- Node3&#45;&gt;Node26 -->
<g id="edge42_Node000003_Node000026" class="edge">
<title>Node3&#45;&gt;Node26</title>
<g id="a_edge42_Node000003_Node000026"><a xlink:title=" ">
<path fill="none" stroke="#63b8ff" d="M1029.84,-378.04C1036.06,-369.32 1042.89,-359.74 1048.35,-352.08"/>
<polygon fill="#63b8ff" stroke="#63b8ff" points="1027.02,-375.96 1024.07,-386.13 1032.72,-380.02 1027.02,-375.96"/>
</a>
</g>
</g>
<!-- Node5 -->
<g id="Node000005" class="node">
<title>Node5</title>
<g id="a_Node000005"><a xlink:href="ssplayer___part_state_8cpp.html" target="_top" xlink:title=" ">
<polygon fill="white" stroke="#666666" points="137.5,-30.5 0,-30.5 0,0 137.5,0 137.5,-30.5"/>
<text text-anchor="start" x="8" y="-17" font-family="Helvetica,sans-Serif" font-size="10.00">Common/Animator/ssplayer</text>
<text text-anchor="middle" x="68.75" y="-5.75" font-family="Helvetica,sans-Serif" font-size="10.00">_PartState.cpp</text>
</a>
</g>
</g>
<!-- Node4&#45;&gt;Node5 -->
<g id="edge4_Node000004_Node000005" class="edge">
<title>Node4&#45;&gt;Node5</title>
<g id="a_edge4_Node000004_Node000005"><a xlink:title=" ">
<path fill="none" stroke="#63b8ff" d="M816.79,-266.37C689.69,-261.32 445.79,-248.07 364.75,-218.75 243.55,-174.9 124.82,-69.56 83.81,-30.85"/>
<polygon fill="#63b8ff" stroke="#63b8ff" points="816.33,-269.85 826.46,-266.74 816.6,-262.86 816.33,-269.85"/>
</a>
</g>
</g>
<!-- Node6 -->
<g id="Node000006" class="node">
<title>Node6</title>
<g id="a_Node000006"><a xlink:href="ssplayer__animedecode_8cpp.html" target="_top" xlink:title=" ">
<polygon fill="white" stroke="#666666" points="901.5,-30.5 764,-30.5 764,0 901.5,0 901.5,-30.5"/>
<text text-anchor="start" x="772" y="-17" font-family="Helvetica,sans-Serif" font-size="10.00">Common/Animator/ssplayer</text>
<text text-anchor="middle" x="832.75" y="-5.75" font-family="Helvetica,sans-Serif" font-size="10.00">_animedecode.cpp</text>
</a>
</g>
</g>
<!-- Node4&#45;&gt;Node6 -->
<g id="edge5_Node000004_Node000006" class="edge">
<title>Node4&#45;&gt;Node6</title>
<g id="a_edge5_Node000004_Node000006"><a xlink:title=" ">
<path fill="none" stroke="#63b8ff" d="M890.77,-249C878.49,-199.77 847.04,-73.59 836.36,-30.74"/>
<polygon fill="#63b8ff" stroke="#63b8ff" points="887.33,-249.68 893.14,-258.54 894.12,-247.99 887.33,-249.68"/>
</a>
</g>
</g>
<!-- Node7 -->
<g id="Node000007" class="node">
<title>Node7</title>
<g id="a_Node000007"><a xlink:href="ssplayer__animedecode_8h.html" target="_top" xlink:title=" ">
<polygon fill="white" stroke="#666666" points="759.5,-97 622,-97 622,-66.5 759.5,-66.5 759.5,-97"/>
<text text-anchor="start" x="630" y="-83.5" font-family="Helvetica,sans-Serif" font-size="10.00">Common/Animator/ssplayer</text>
<text text-anchor="middle" x="690.75" y="-72.25" font-family="Helvetica,sans-Serif" font-size="10.00">_animedecode.h</text>
</a>
</g>
</g>
<!-- Node4&#45;&gt;Node7 -->
<g id="edge6_Node000004_Node000007" class="edge">
<title>Node4&#45;&gt;Node7</title>
<g id="a_edge6_Node000004_Node000007"><a xlink:title=" ">
<path fill="none" stroke="#63b8ff" d="M882.87,-250.51C876.54,-241.16 868.96,-229.52 862.75,-218.75 841.46,-181.81 851.27,-161.71 819.75,-133 801.54,-116.41 777.23,-105.05 754.62,-97.39"/>
<polygon fill="#63b8ff" stroke="#63b8ff" points="879.94,-252.43 888.48,-258.69 885.71,-248.47 879.94,-252.43"/>
</a>
</g>
</g>
<!-- Node8 -->
<g id="Node000008" class="node">
<title>Node8</title>
<g id="a_Node000008"><a xlink:href="ssplayer__cellmap_8cpp.html" target="_top" xlink:title=" ">
<polygon fill="white" stroke="#666666" points="293.5,-30.5 156,-30.5 156,0 293.5,0 293.5,-30.5"/>
<text text-anchor="start" x="164" y="-17" font-family="Helvetica,sans-Serif" font-size="10.00">Common/Animator/ssplayer</text>
<text text-anchor="middle" x="224.75" y="-5.75" font-family="Helvetica,sans-Serif" font-size="10.00">_cellmap.cpp</text>
</a>
</g>
</g>
<!-- Node4&#45;&gt;Node8 -->
<g id="edge16_Node000004_Node000008" class="edge">
<title>Node4&#45;&gt;Node8</title>
<g id="a_edge16_Node000004_Node000008"><a xlink:title=" ">
<path fill="none" stroke="#63b8ff" d="M816.32,-266.72C695.91,-262.3 473.47,-250.07 400.75,-218.75 311.77,-180.43 251.19,-70.7 231.61,-30.9"/>
<polygon fill="#63b8ff" stroke="#63b8ff" points="816.02,-270.21 826.14,-267.07 816.27,-263.22 816.02,-270.21"/>
</a>
</g>
</g>
<!-- Node9 -->
<g id="Node000009" class="node">
<title>Node9</title>
<g id="a_Node000009"><a xlink:href="ssplayer__effect_8cpp.html" target="_top" xlink:title=" ">
<polygon fill="white" stroke="#666666" points="1213.5,-30.5 1076,-30.5 1076,0 1213.5,0 1213.5,-30.5"/>
<text text-anchor="start" x="1084" y="-17" font-family="Helvetica,sans-Serif" font-size="10.00">Common/Animator/ssplayer</text>
<text text-anchor="middle" x="1144.75" y="-5.75" font-family="Helvetica,sans-Serif" font-size="10.00">_effect.cpp</text>
</a>
</g>
</g>
<!-- Node4&#45;&gt;Node9 -->
<g id="edge17_Node000004_Node000009" class="edge">
<title>Node4&#45;&gt;Node9</title>
<g id="a_edge17_Node000004_Node000009"><a xlink:title=" ">
<path fill="none" stroke="#63b8ff" d="M904.42,-249.89C925.25,-204.71 978.64,-93.09 1009.75,-66.5 1029.14,-49.93 1054.51,-38.58 1078.02,-30.93"/>
<polygon fill="#63b8ff" stroke="#63b8ff" points="901.27,-248.38 900.29,-258.93 907.63,-251.29 901.27,-248.38"/>
</a>
</g>
</g>
<!-- Node10 -->
<g id="Node000010" class="node">
<title>Node10</title>
<g id="a_Node000010"><a xlink:href="ssplayer__effect2_8cpp.html" target="_top" xlink:title=" ">
<polygon fill="white" stroke="#666666" points="1057.5,-30.5 920,-30.5 920,0 1057.5,0 1057.5,-30.5"/>
<text text-anchor="start" x="928" y="-17" font-family="Helvetica,sans-Serif" font-size="10.00">Common/Animator/ssplayer</text>
<text text-anchor="middle" x="988.75" y="-5.75" font-family="Helvetica,sans-Serif" font-size="10.00">_effect2.cpp</text>
</a>
</g>
</g>
<!-- Node4&#45;&gt;Node10 -->
<g id="edge27_Node000004_Node000010" class="edge">
<title>Node4&#45;&gt;Node10</title>
<g id="a_edge27_Node000004_Node000010"><a xlink:title=" ">
<path fill="none" stroke="#63b8ff" d="M896.33,-248.4C898.19,-210.25 906,-127.01 938.75,-66.5 946.25,-52.65 958.75,-40.08 969.37,-30.98"/>
<polygon fill="#63b8ff" stroke="#63b8ff" points="892.83,-248.26 895.94,-258.39 899.82,-248.53 892.83,-248.26"/>
</a>
</g>
</g>
<!-- Node11 -->
<g id="Node000011" class="node">
<title>Node11</title>
<g id="a_Node000011"><a xlink:href="ssplayer__effectfunction_8cpp.html" target="_top" xlink:title=" ">
<polygon fill="white" stroke="#666666" points="1369.5,-30.5 1232,-30.5 1232,0 1369.5,0 1369.5,-30.5"/>
<text text-anchor="start" x="1240" y="-17" font-family="Helvetica,sans-Serif" font-size="10.00">Common/Animator/ssplayer</text>
<text text-anchor="middle" x="1300.75" y="-5.75" font-family="Helvetica,sans-Serif" font-size="10.00">_effectfunction.cpp</text>
</a>
</g>
</g>
<!-- Node4&#45;&gt;Node11 -->
<g id="edge28_Node000004_Node000011" class="edge">
<title>Node4&#45;&gt;Node11</title>
<g id="a_edge28_Node000004_Node000011"><a xlink:title=" ">
<path fill="none" stroke="#63b8ff" d="M954.45,-257.42C1016.02,-243.13 1113.43,-214.26 1183.75,-163.5 1235.37,-126.23 1276.24,-60.3 1292.78,-31"/>
<polygon fill="#63b8ff" stroke="#63b8ff" points="953.85,-253.97 944.86,-259.59 955.39,-260.8 953.85,-253.97"/>
</a>
</g>
</g>
<!-- Node12 -->
<g id="Node000012" class="node">
<title>Node12</title>
<g id="a_Node000012"><a xlink:href="ssplayer__mesh_8cpp.html" target="_top" xlink:title=" ">
<polygon fill="white" stroke="#666666" points="449.5,-30.5 312,-30.5 312,0 449.5,0 449.5,-30.5"/>
<text text-anchor="start" x="320" y="-17" font-family="Helvetica,sans-Serif" font-size="10.00">Common/Animator/ssplayer</text>
<text text-anchor="middle" x="380.75" y="-5.75" font-family="Helvetica,sans-Serif" font-size="10.00">_mesh.cpp</text>
</a>
</g>
</g>
<!-- Node4&#45;&gt;Node12 -->
<g id="edge29_Node000004_Node000012" class="edge">
<title>Node4&#45;&gt;Node12</title>
<g id="a_edge29_Node000004_Node000012"><a xlink:title=" ">
<path fill="none" stroke="#63b8ff" d="M816.52,-266.45C678.74,-260.08 404.58,-238.1 351.75,-163.5 322.54,-122.25 354.25,-58.96 371.33,-30.72"/>
<polygon fill="#63b8ff" stroke="#63b8ff" points="816.15,-269.94 826.3,-266.89 816.47,-262.95 816.15,-269.94"/>
</a>
</g>
</g>
<!-- Node15 -->
<g id="Node000015" class="node">
<title>Node15</title>
<g id="a_Node000015"><a xlink:href="ssplayer__effect_8h.html" target="_top" xlink:title=" ">
<polygon fill="white" stroke="#666666" points="1156.5,-163.5 1019,-163.5 1019,-133 1156.5,-133 1156.5,-163.5"/>
<text text-anchor="start" x="1027" y="-150" font-family="Helvetica,sans-Serif" font-size="10.00">Common/Animator/ssplayer</text>
<text text-anchor="middle" x="1087.75" y="-138.75" font-family="Helvetica,sans-Serif" font-size="10.00">_effect.h</text>
</a>
</g>
</g>
<!-- Node4&#45;&gt;Node15 -->
<g id="edge18_Node000004_Node000015" class="edge">
<title>Node4&#45;&gt;Node15</title>
<g id="a_edge18_Node000004_Node000015"><a xlink:title=" ">
<path fill="none" stroke="#63b8ff" d="M919.69,-254.07C956.78,-230.94 1027.68,-186.72 1064.4,-163.81"/>
<polygon fill="#63b8ff" stroke="#63b8ff" points="918.1,-250.94 911.47,-259.2 921.8,-256.88 918.1,-250.94"/>
</a>
</g>
</g>
<!-- Node17 -->
<g id="Node000017" class="node">
<title>Node17</title>
<g id="a_Node000017"><a xlink:href="ssplayer__types_8h.html" target="_top" xlink:title=" ">
<polygon fill="white" stroke="#666666" points="810.5,-163.5 673,-163.5 673,-133 810.5,-133 810.5,-163.5"/>
<text text-anchor="start" x="681" y="-150" font-family="Helvetica,sans-Serif" font-size="10.00">Common/Animator/ssplayer</text>
<text text-anchor="middle" x="741.75" y="-138.75" font-family="Helvetica,sans-Serif" font-size="10.00">_types.h</text>
</a>
</g>
</g>
<!-- Node4&#45;&gt;Node17 -->
<g id="edge30_Node000004_Node000017" class="edge">
<title>Node4&#45;&gt;Node17</title>
<g id="a_edge30_Node000004_Node000017"><a xlink:title=" ">
<path fill="none" stroke="#63b8ff" d="M873.02,-253.61C858.91,-243.89 840.54,-230.91 824.75,-218.75 801.08,-200.51 774.79,-178.12 758.27,-163.77"/>
<polygon fill="#63b8ff" stroke="#63b8ff" points="870.95,-256.44 881.18,-259.2 874.91,-250.66 870.95,-256.44"/>
</a>
</g>
</g>
<!-- Node18 -->
<g id="Node000018" class="node">
<title>Node18</title>
<g id="a_Node000018"><a xlink:href="ss_helper_8h.html" target="_top" xlink:title=" ">
<polygon fill="white" stroke="#666666" points="654.12,-218.75 517.38,-218.75 517.38,-199.5 654.12,-199.5 654.12,-218.75"/>
<text text-anchor="middle" x="585.75" y="-205.25" font-family="Helvetica,sans-Serif" font-size="10.00">Common/Helper/ssHelper.h</text>
</a>
</g>
</g>
<!-- Node4&#45;&gt;Node18 -->
<g id="edge32_Node000004_Node000018" class="edge">
<title>Node4&#45;&gt;Node18</title>
<g id="a_edge32_Node000004_Node000018"><a xlink:title=" ">
<path fill="none" stroke="#63b8ff" d="M836.99,-257.84C778.03,-246.64 688.31,-229.6 633.56,-219.21"/>
<polygon fill="#63b8ff" stroke="#63b8ff" points="836.03,-261.22 846.5,-259.65 837.33,-254.34 836.03,-261.22"/>
</a>
</g>
</g>
<!-- Node21 -->
<g id="Node000021" class="node">
<title>Node21</title>
<g id="a_Node000021"><a xlink:href="_ss_effect_element_8cpp.html" target="_top" xlink:title=" ">
<polygon fill="white" stroke="#666666" points="1380.75,-218.75 1196.75,-218.75 1196.75,-199.5 1380.75,-199.5 1380.75,-218.75"/>
<text text-anchor="middle" x="1288.75" y="-205.25" font-family="Helvetica,sans-Serif" font-size="10.00">Common/Loader/SsEffectElement.cpp</text>
</a>
</g>
</g>
<!-- Node4&#45;&gt;Node21 -->
<g id="edge37_Node000004_Node000021" class="edge">
<title>Node4&#45;&gt;Node21</title>
<g id="a_edge37_Node000004_Node000021"><a xlink:title=" ">
<path fill="none" stroke="#63b8ff" d="M954.14,-257.92C960.42,-256.81 966.71,-255.73 972.75,-254.75 1056.83,-241.04 1153.89,-227.7 1218.02,-219.23"/>
<polygon fill="#63b8ff" stroke="#63b8ff" points="953.64,-254.46 944.42,-259.67 954.88,-261.35 953.64,-254.46"/>
</a>
</g>
</g>
<!-- Node22 -->
<g id="Node000022" class="node">
<title>Node22</title>
<g id="a_Node000022"><a xlink:href="ss_interpolation_8cpp.html" target="_top" xlink:title=" ">
<polygon fill="white" stroke="#666666" points="1572.5,-218.75 1399,-218.75 1399,-199.5 1572.5,-199.5 1572.5,-218.75"/>
<text text-anchor="middle" x="1485.75" y="-205.25" font-family="Helvetica,sans-Serif" font-size="10.00">Common/Loader/ssInterpolation.cpp</text>
</a>
</g>
</g>
<!-- Node4&#45;&gt;Node22 -->
<g id="edge38_Node000004_Node000022" class="edge">
<title>Node4&#45;&gt;Node22</title>
<g id="a_edge38_Node000004_Node000022"><a xlink:title=" ">
<path fill="none" stroke="#63b8ff" d="M952.03,-257.93C958.99,-256.76 966.02,-255.66 972.75,-254.75 1157.09,-229.79 1204.44,-235.07 1389.75,-218.75 1392.67,-218.49 1395.63,-218.23 1398.63,-217.97"/>
<polygon fill="#63b8ff" stroke="#63b8ff" points="951.56,-254.46 942.32,-259.64 952.77,-261.36 951.56,-254.46"/>
</a>
</g>
</g>
<!-- Node23 -->
<g id="Node000023" class="node">
<title>Node23</title>
<g id="a_Node000023"><a xlink:href="ssattribute_8cpp.html" target="_top" xlink:title=" ">
<polygon fill="white" stroke="#666666" points="1746.5,-218.75 1591,-218.75 1591,-199.5 1746.5,-199.5 1746.5,-218.75"/>
<text text-anchor="middle" x="1668.75" y="-205.25" font-family="Helvetica,sans-Serif" font-size="10.00">Common/Loader/ssattribute.cpp</text>
</a>
</g>
</g>
<!-- Node4&#45;&gt;Node23 -->
<g id="edge39_Node000004_Node000023" class="edge">
<title>Node4&#45;&gt;Node23</title>
<g id="a_edge39_Node000004_Node000023"><a xlink:title=" ">
<path fill="none" stroke="#63b8ff" d="M950.67,-257.98C958.07,-256.75 965.58,-255.62 972.75,-254.75 1241.91,-222.02 1311.45,-240.13 1581.75,-218.75 1584.62,-218.52 1587.55,-218.28 1590.51,-218.03"/>
<polygon fill="#63b8ff" stroke="#63b8ff" points="950.32,-254.49 941.07,-259.66 951.53,-261.38 950.32,-254.49"/>
</a>
</g>
</g>
<!-- Node7&#45;&gt;Node5 -->
<g id="edge7_Node000007_Node000005" class="edge">
<title>Node7&#45;&gt;Node5</title>
<g id="a_edge7_Node000007_Node000005"><a xlink:title=" ">
<path fill="none" stroke="#63b8ff" d="M610.55,-75.57C504.22,-68.2 310.85,-53.02 146.75,-30.5 143.75,-30.09 140.69,-29.64 137.6,-29.17"/>
<polygon fill="#63b8ff" stroke="#63b8ff" points="610.1,-79.05 620.32,-76.25 610.58,-72.07 610.1,-79.05"/>
</a>
</g>
</g>
<!-- Node7&#45;&gt;Node6 -->
<g id="edge8_Node000007_Node000006" class="edge">
<title>Node7&#45;&gt;Node6</title>
<g id="a_edge8_Node000007_Node000006"><a xlink:title=" ">
<path fill="none" stroke="#63b8ff" d="M733.21,-61.47C754.84,-51.64 780.71,-39.89 800.66,-30.83"/>
<polygon fill="#63b8ff" stroke="#63b8ff" points="732.01,-58.17 724.35,-65.49 734.9,-64.54 732.01,-58.17"/>
</a>
</g>
</g>
<!-- Node7&#45;&gt;Node8 -->
<g id="edge9_Node000007_Node000008" class="edge">
<title>Node7&#45;&gt;Node8</title>
<g id="a_edge9_Node000007_Node000008"><a xlink:title=" ">
<path fill="none" stroke="#63b8ff" d="M610.29,-71.56C531.7,-62.3 408.77,-47.04 302.75,-30.5 299.76,-30.03 296.7,-29.54 293.62,-29.03"/>
<polygon fill="#63b8ff" stroke="#63b8ff" points="609.72,-75.02 620.06,-72.71 610.53,-68.07 609.72,-75.02"/>
</a>
</g>
</g>
<!-- Node7&#45;&gt;Node9 -->
<g id="edge10_Node000007_Node000009" class="edge">
<title>Node7&#45;&gt;Node9</title>
<g id="a_edge10_Node000007_Node000009"><a xlink:title=" ">
<path fill="none" stroke="#63b8ff" d="M771.26,-71.12C847.5,-61.74 965.12,-46.56 1066.75,-30.5 1069.74,-30.03 1072.79,-29.53 1075.88,-29.02"/>
<polygon fill="#63b8ff" stroke="#63b8ff" points="770.85,-67.65 761.35,-72.34 771.7,-74.59 770.85,-67.65"/>
</a>
</g>
</g>
<!-- Node7&#45;&gt;Node10 -->
<g id="edge11_Node000007_Node000010" class="edge">
<title>Node7&#45;&gt;Node10</title>
<g id="a_edge11_Node000007_Node000010"><a xlink:title=" ">
<path fill="none" stroke="#63b8ff" d="M769.81,-63.64C816.83,-53.46 875.87,-40.68 920.79,-30.96"/>
<polygon fill="#63b8ff" stroke="#63b8ff" points="769.26,-60.18 760.22,-65.71 770.74,-67.02 769.26,-60.18"/>
</a>
</g>
</g>
<!-- Node7&#45;&gt;Node11 -->
<g id="edge12_Node000007_Node000011" class="edge">
<title>Node7&#45;&gt;Node11</title>
<g id="a_edge12_Node000007_Node000011"><a xlink:title=" ">
<path fill="none" stroke="#63b8ff" d="M771.22,-75.33C875.63,-67.79 1063.31,-52.55 1222.75,-30.5 1225.75,-30.09 1228.81,-29.64 1231.9,-29.16"/>
<polygon fill="#63b8ff" stroke="#63b8ff" points="771.07,-71.83 761.35,-76.03 771.57,-78.81 771.07,-71.83"/>
</a>
</g>
</g>
<!-- Node7&#45;&gt;Node12 -->
<g id="edge13_Node000007_Node000012" class="edge">
<title>Node7&#45;&gt;Node12</title>
<g id="a_edge13_Node000007_Node000012"><a xlink:title=" ">
<path fill="none" stroke="#63b8ff" d="M610.52,-64.06C560.78,-53.71 497.53,-40.55 449.99,-30.66"/>
<polygon fill="#63b8ff" stroke="#63b8ff" points="609.58,-67.44 620.08,-66.05 611.01,-60.58 609.58,-67.44"/>
</a>
</g>
</g>
<!-- Node13 -->
<g id="Node000013" class="node">
<title>Node13</title>
<g id="a_Node000013"><a xlink:href="ssplayer__render__dx9_8cpp.html" target="_top" xlink:title=" ">
<polygon fill="white" stroke="#666666" points="745.75,-30.5 615.75,-30.5 615.75,0 745.75,0 745.75,-30.5"/>
<text text-anchor="start" x="623.75" y="-17" font-family="Helvetica,sans-Serif" font-size="10.00">Common/Drawer/ssplayer</text>
<text text-anchor="middle" x="680.75" y="-5.75" font-family="Helvetica,sans-Serif" font-size="10.00">_render_dx9.cpp</text>
</a>
</g>
</g>
<!-- Node7&#45;&gt;Node13 -->
<g id="edge14_Node000007_Node000013" class="edge">
<title>Node7&#45;&gt;Node13</title>
<g id="a_edge14_Node000007_Node000013"><a xlink:title=" ">
<path fill="none" stroke="#63b8ff" d="M686.73,-54.81C685.46,-46.64 684.11,-37.91 683.01,-30.83"/>
<polygon fill="#63b8ff" stroke="#63b8ff" points="683.26,-55.27 688.25,-64.62 690.18,-54.2 683.26,-55.27"/>
</a>
</g>
</g>
<!-- Node14 -->
<g id="Node000014" class="node">
<title>Node14</title>
<g id="a_Node000014"><a xlink:href="ssplayer__render__gl_8cpp.html" target="_top" xlink:title=" ">
<polygon fill="white" stroke="#666666" points="597.75,-30.5 467.75,-30.5 467.75,0 597.75,0 597.75,-30.5"/>
<text text-anchor="start" x="475.75" y="-17" font-family="Helvetica,sans-Serif" font-size="10.00">Common/Drawer/ssplayer</text>
<text text-anchor="middle" x="532.75" y="-5.75" font-family="Helvetica,sans-Serif" font-size="10.00">_render_gl.cpp</text>
</a>
</g>
</g>
<!-- Node7&#45;&gt;Node14 -->
<g id="edge15_Node000007_Node000014" class="edge">
<title>Node7&#45;&gt;Node14</title>
<g id="a_edge15_Node000007_Node000014"><a xlink:title=" ">
<path fill="none" stroke="#63b8ff" d="M644.53,-61.88C620.36,-52.01 591.21,-40.11 568.73,-30.94"/>
<polygon fill="#63b8ff" stroke="#63b8ff" points="642.91,-65 653.5,-65.54 645.56,-58.52 642.91,-65"/>
</a>
</g>
</g>
<!-- Node15&#45;&gt;Node6 -->
<g id="edge19_Node000015_Node000006" class="edge">
<title>Node15&#45;&gt;Node6</title>
<g id="a_edge19_Node000015_Node000006"><a xlink:title=" ">
<path fill="none" stroke="#63b8ff" d="M1049.4,-127.55C997.76,-101.02 907.08,-54.44 861.14,-30.83"/>
<polygon fill="#63b8ff" stroke="#63b8ff" points="1047.65,-130.58 1058.14,-132.04 1050.84,-124.36 1047.65,-130.58"/>
</a>
</g>
</g>
<!-- Node15&#45;&gt;Node9 -->
<g id="edge20_Node000015_Node000009" class="edge">
<title>Node15&#45;&gt;Node9</title>
<g id="a_edge20_Node000015_Node000009"><a xlink:title=" ">
<path fill="none" stroke="#63b8ff" d="M1135.19,-127.11C1147.32,-119.53 1158.87,-109.61 1165.75,-97 1177.4,-75.63 1164.72,-47.54 1154.62,-30.74"/>
<polygon fill="#63b8ff" stroke="#63b8ff" points="1133.68,-123.94 1126.73,-131.94 1137.15,-130.02 1133.68,-123.94"/>
</a>
</g>
</g>
<!-- Node15&#45;&gt;Node11 -->
<g id="edge22_Node000015_Node000011" class="edge">
<title>Node15&#45;&gt;Node11</title>
<g id="a_edge22_Node000015_Node000011"><a xlink:title=" ">
<path fill="none" stroke="#63b8ff" d="M1127.15,-127.37C1144.17,-118.48 1164.17,-107.62 1181.75,-97 1217.44,-75.44 1257.2,-47.64 1280.54,-30.92"/>
<polygon fill="#63b8ff" stroke="#63b8ff" points="1125.6,-124.23 1118.33,-131.93 1128.82,-130.44 1125.6,-124.23"/>
</a>
</g>
</g>
<!-- Node15&#45;&gt;Node15 -->
<g id="edge21_Node000015_Node000015" class="edge">
<title>Node15&#45;&gt;Node15</title>
<g id="a_edge21_Node000015_Node000015"><a xlink:title=" ">
<path fill="none" stroke="#63b8ff" d="M1167.73,-155.79C1171.98,-153.94 1174.5,-151.43 1174.5,-148.25 1174.5,-142.9 1167.35,-139.43 1156.83,-137.84"/>
<polygon fill="#63b8ff" stroke="#63b8ff" points="1167.07,-152.35 1158.29,-158.27 1168.85,-159.11 1167.07,-152.35"/>
</a>
</g>
</g>
<!-- Node16 -->
<g id="Node000016" class="node">
<title>Node16</title>
<g id="a_Node000016"><a xlink:href="ssplayer__effectfunction_8h.html" target="_top" xlink:title=" ">
<polygon fill="white" stroke="#666666" points="1156.5,-97 1019,-97 1019,-66.5 1156.5,-66.5 1156.5,-97"/>
<text text-anchor="start" x="1027" y="-83.5" font-family="Helvetica,sans-Serif" font-size="10.00">Common/Animator/ssplayer</text>
<text text-anchor="middle" x="1087.75" y="-72.25" font-family="Helvetica,sans-Serif" font-size="10.00">_effectfunction.h</text>
</a>
</g>
</g>
<!-- Node15&#45;&gt;Node16 -->
<g id="edge23_Node000015_Node000016" class="edge">
<title>Node15&#45;&gt;Node16</title>
<g id="a_edge23_Node000015_Node000016"><a xlink:title=" ">
<path fill="none" stroke="#63b8ff" d="M1087.75,-121.31C1087.75,-113.14 1087.75,-104.41 1087.75,-97.33"/>
<polygon fill="#63b8ff" stroke="#63b8ff" points="1084.25,-121.1 1087.75,-131.1 1091.25,-121.1 1084.25,-121.1"/>
</a>
</g>
</g>
<!-- Node16&#45;&gt;Node9 -->
<g id="edge24_Node000016_Node000009" class="edge">
<title>Node16&#45;&gt;Node9</title>
<g id="a_edge24_Node000016_Node000009"><a xlink:title=" ">
<path fill="none" stroke="#63b8ff" d="M1108.18,-57.63C1116.08,-48.69 1124.88,-38.74 1131.87,-30.83"/>
<polygon fill="#63b8ff" stroke="#63b8ff" points="1105.69,-55.17 1101.69,-64.98 1110.93,-59.8 1105.69,-55.17"/>
</a>
</g>
</g>
<!-- Node16&#45;&gt;Node10 -->
<g id="edge25_Node000016_Node000010" class="edge">
<title>Node16&#45;&gt;Node10</title>
<g id="a_edge25_Node000016_Node000010"><a xlink:title=" ">
<path fill="none" stroke="#63b8ff" d="M1055.66,-59.84C1041.11,-50.37 1024.27,-39.39 1011.13,-30.83"/>
<polygon fill="#63b8ff" stroke="#63b8ff" points="1053.73,-62.76 1064.02,-65.29 1057.55,-56.9 1053.73,-62.76"/>
</a>
</g>
</g>
<!-- Node16&#45;&gt;Node11 -->
<g id="edge26_Node000016_Node000011" class="edge">
<title>Node16&#45;&gt;Node11</title>
<g id="a_edge26_Node000016_Node000011"><a xlink:title=" ">
<path fill="none" stroke="#63b8ff" d="M1147.28,-62.72C1180.43,-52.68 1221.18,-40.34 1252.36,-30.9"/>
<polygon fill="#63b8ff" stroke="#63b8ff" points="1146.35,-59.35 1137.8,-65.59 1148.38,-66.05 1146.35,-59.35"/>
</a>
</g>
</g>
<!-- Node17&#45;&gt;Node7 -->
<g id="edge31_Node000017_Node000007" class="edge">
<title>Node17&#45;&gt;Node7</title>
<g id="a_edge31_Node000017_Node000007"><a xlink:title=" ">
<path fill="none" stroke="#63b8ff" d="M723.25,-123.85C716.24,-114.98 708.46,-105.15 702.28,-97.33"/>
<polygon fill="#63b8ff" stroke="#63b8ff" points="720.29,-125.75 729.24,-131.43 725.78,-121.41 720.29,-125.75"/>
</a>
</g>
</g>
<!-- Node18&#45;&gt;Node7 -->
<g id="edge33_Node000018_Node000007" class="edge">
<title>Node18&#45;&gt;Node7</title>
<g id="a_edge33_Node000018_Node000007"><a xlink:title=" ">
<path fill="none" stroke="#63b8ff" d="M506.02,-205.58C426.62,-200.2 322.35,-183.63 365.75,-133 398.03,-95.34 536.2,-85.65 621.66,-83.32"/>
<polygon fill="#63b8ff" stroke="#63b8ff" points="505.33,-209.05 515.53,-206.18 505.76,-202.06 505.33,-209.05"/>
</a>
</g>
</g>
<!-- Node18&#45;&gt;Node17 -->
<g id="edge34_Node000018_Node000017" class="edge">
<title>Node18&#45;&gt;Node17</title>
<g id="a_edge34_Node000018_Node000017"><a xlink:title=" ">
<path fill="none" stroke="#63b8ff" d="M620.36,-195.06C644.77,-185.85 677.49,-173.5 702.81,-163.94"/>
<polygon fill="#63b8ff" stroke="#63b8ff" points="619.32,-191.71 611.2,-198.52 621.79,-198.26 619.32,-191.71"/>
</a>
</g>
</g>
<!-- Node19 -->
<g id="Node000019" class="node">
<title>Node19</title>
<g id="a_Node000019"><a xlink:href="_s_s_texture_d_x9_8cpp.html" target="_top" xlink:title=" ">
<polygon fill="white" stroke="#666666" points="498.38,-163.5 375.12,-163.5 375.12,-133 498.38,-133 498.38,-163.5"/>
<text text-anchor="start" x="383.12" y="-150" font-family="Helvetica,sans-Serif" font-size="10.00">Common/Helper/DirectX</text>
<text text-anchor="middle" x="436.75" y="-138.75" font-family="Helvetica,sans-Serif" font-size="10.00">/SSTextureDX9.cpp</text>
</a>
</g>
</g>
<!-- Node18&#45;&gt;Node19 -->
<g id="edge35_Node000018_Node000019" class="edge">
<title>Node18&#45;&gt;Node19</title>
<g id="a_edge35_Node000018_Node000019"><a xlink:title=" ">
<path fill="none" stroke="#63b8ff" d="M552.38,-194.94C529.1,-185.74 498.02,-173.46 473.94,-163.94"/>
<polygon fill="#63b8ff" stroke="#63b8ff" points="550.8,-198.08 561.39,-198.5 553.37,-191.57 550.8,-198.08"/>
</a>
</g>
</g>
<!-- Node20 -->
<g id="Node000020" class="node">
<title>Node20</title>
<g id="a_Node000020"><a xlink:href="ssh_texture_b_m_p_8cpp.html" target="_top" xlink:title=" ">
<polygon fill="white" stroke="#666666" points="654.88,-163.5 516.62,-163.5 516.62,-133 654.88,-133 654.88,-163.5"/>
<text text-anchor="start" x="524.62" y="-150" font-family="Helvetica,sans-Serif" font-size="10.00">Common/Helper/sshTexture</text>
<text text-anchor="middle" x="585.75" y="-138.75" font-family="Helvetica,sans-Serif" font-size="10.00">BMP.cpp</text>
</a>
</g>
</g>
<!-- Node18&#45;&gt;Node20 -->
<g id="edge36_Node000018_Node000020" class="edge">
<title>Node18&#45;&gt;Node20</title>
<g id="a_edge36_Node000018_Node000020"><a xlink:title=" ">
<path fill="none" stroke="#63b8ff" d="M585.75,-187.92C585.75,-179.99 585.75,-171.06 585.75,-163.78"/>
<polygon fill="#63b8ff" stroke="#63b8ff" points="582.25,-187.67 585.75,-197.67 589.25,-187.67 582.25,-187.67"/>
</a>
</g>
</g>
<!-- Node26&#45;&gt;Node4 -->
<g id="edge43_Node000026_Node000004" class="edge">
<title>Node26&#45;&gt;Node4</title>
<g id="a_edge43_Node000026_Node000004"><a xlink:title=" ">
<path fill="none" stroke="#63b8ff" d="M1011.32,-316.73C980.78,-304.65 942.45,-289.48 918.52,-280.01"/>
<polygon fill="#63b8ff" stroke="#63b8ff" points="1009.77,-319.88 1020.36,-320.31 1012.34,-313.37 1009.77,-319.88"/>
</a>
</g>
</g>
<!-- Node26&#45;&gt;Node24 -->
<g id="edge44_Node000026_Node000024" class="edge">
<title>Node26&#45;&gt;Node24</title>
<g id="a_edge44_Node000026_Node000024"><a xlink:title=" ">
<path fill="none" stroke="#63b8ff" d="M1053.58,-309.84C1051.92,-301.59 1050.13,-292.74 1048.69,-285.58"/>
<polygon fill="#63b8ff" stroke="#63b8ff" points="1050.09,-310.27 1055.5,-319.38 1056.96,-308.89 1050.09,-310.27"/>
</a>
</g>
</g>
<!-- Node26&#45;&gt;Node25 -->
<g id="edge45_Node000026_Node000025" class="edge">
<title>Node26&#45;&gt;Node25</title>
<g id="a_edge45_Node000026_Node000025"><a xlink:title=" ">
<path fill="none" stroke="#63b8ff" d="M1099.07,-315.95C1119.22,-306.18 1143.18,-294.56 1161.69,-285.58"/>
<polygon fill="#63b8ff" stroke="#63b8ff" points="1097.76,-312.69 1090.29,-320.2 1100.82,-318.99 1097.76,-312.69"/>
</a>
</g>
</g>
</g>
</svg>
