<?xml version="1.0" encoding="UTF-8" standalone="no"?>
<!DOCTYPE svg PUBLIC "-//W3C//DTD SVG 1.1//EN"
 "http://www.w3.org/Graphics/SVG/1.1/DTD/svg11.dtd">
<!-- Generated by graphviz version 10.0.1 (20240210.2158)
 -->
<!-- Title: Common/Loader/SsEffectBehavior.cpp Pages: 1 -->
<svg width="659pt" height="304pt"
 viewBox="0.00 0.00 658.50 303.50" xmlns="http://www.w3.org/2000/svg" xmlns:xlink="http://www.w3.org/1999/xlink">
<g id="graph0" class="graph" transform="scale(1 1) rotate(0) translate(4 299.5)">
<title>Common/Loader/SsEffectBehavior.cpp</title>
<!-- Node1 -->
<g id="Node000001" class="node">
<title>Node1</title>
<g id="a_Node000001"><a xlink:title=" ">
<polygon fill="#999999" stroke="#666666" points="499.5,-295.5 314,-295.5 314,-276.25 499.5,-276.25 499.5,-295.5"/>
<text text-anchor="middle" x="406.75" y="-282" font-family="Helvetica,sans-Serif" font-size="10.00">Common/Loader/SsEffectBehavior.cpp</text>
</a>
</g>
</g>
<!-- Node2 -->
<g id="Node000002" class="node">
<title>Node2</title>
<g id="a_Node000002"><a xlink:href="_ss_effect_behavior_8h.html" target="_top" xlink:title=" ">
<polygon fill="white" stroke="#666666" points="378.75,-240.25 278.75,-240.25 278.75,-221 378.75,-221 378.75,-240.25"/>
<text text-anchor="middle" x="328.75" y="-226.75" font-family="Helvetica,sans-Serif" font-size="10.00">SsEffectBehavior.h</text>
</a>
</g>
</g>
<!-- Node1&#45;&gt;Node2 -->
<g id="edge1_Node000001_Node000002" class="edge">
<title>Node1&#45;&gt;Node2</title>
<g id="a_edge1_Node000001_Node000002"><a xlink:title=" ">
<path fill="none" stroke="#63b8ff" d="M393.52,-275.84C381.98,-267.96 364.98,-256.36 351.3,-247.02"/>
<polygon fill="#63b8ff" stroke="#63b8ff" points="353.53,-244.3 343.3,-241.56 349.58,-250.08 353.53,-244.3"/>
</a>
</g>
</g>
<!-- Node20 -->
<g id="Node000020" class="node">
<title>Node20</title>
<g id="a_Node000020"><a xlink:title=" ">
<polygon fill="#e0e0e0" stroke="#999999" points="432.38,-185 381.12,-185 381.12,-165.75 432.38,-165.75 432.38,-185"/>
<text text-anchor="middle" x="406.75" y="-171.5" font-family="Helvetica,sans-Serif" font-size="10.00">memory</text>
</a>
</g>
</g>
<!-- Node1&#45;&gt;Node20 -->
<g id="edge30_Node000001_Node000020" class="edge">
<title>Node1&#45;&gt;Node20</title>
<g id="a_edge30_Node000001_Node000020"><a xlink:title=" ">
<path fill="none" stroke="#63b8ff" d="M406.75,-276C406.75,-258.75 406.75,-220.33 406.75,-196.56"/>
<polygon fill="#63b8ff" stroke="#63b8ff" points="410.25,-196.89 406.75,-186.89 403.25,-196.89 410.25,-196.89"/>
</a>
</g>
</g>
<!-- Node21 -->
<g id="Node000021" class="node">
<title>Node21</title>
<g id="a_Node000021"><a xlink:title=" ">
<polygon fill="#e0e0e0" stroke="#999999" points="474.38,-240.25 435.12,-240.25 435.12,-221 474.38,-221 474.38,-240.25"/>
<text text-anchor="middle" x="454.75" y="-226.75" font-family="Helvetica,sans-Serif" font-size="10.00">utility</text>
</a>
</g>
</g>
<!-- Node1&#45;&gt;Node21 -->
<g id="edge31_Node000001_Node000021" class="edge">
<title>Node1&#45;&gt;Node21</title>
<g id="a_edge31_Node000001_Node000021"><a xlink:title=" ">
<path fill="none" stroke="#63b8ff" d="M414.68,-276.08C421.31,-268.73 430.97,-258.01 439.14,-248.94"/>
<polygon fill="#63b8ff" stroke="#63b8ff" points="441.54,-251.5 445.64,-241.73 436.34,-246.82 441.54,-251.5"/>
</a>
</g>
</g>
<!-- Node3 -->
<g id="Node000003" class="node">
<title>Node3</title>
<g id="a_Node000003"><a xlink:href="_ss_effect_element_8h.html" target="_top" xlink:title=" ">
<polygon fill="white" stroke="#666666" points="269,-185 170.5,-185 170.5,-165.75 269,-165.75 269,-185"/>
<text text-anchor="middle" x="219.75" y="-171.5" font-family="Helvetica,sans-Serif" font-size="10.00">SsEffectElement.h</text>
</a>
</g>
</g>
<!-- Node2&#45;&gt;Node3 -->
<g id="edge2_Node000002_Node000003" class="edge">
<title>Node2&#45;&gt;Node3</title>
<g id="a_edge2_Node000002_Node000003"><a xlink:title=" ">
<path fill="none" stroke="#63b8ff" d="M310.26,-220.59C293.35,-212.33 268.06,-199.98 248.51,-190.43"/>
<polygon fill="#63b8ff" stroke="#63b8ff" points="250.21,-187.36 239.69,-186.12 247.14,-193.65 250.21,-187.36"/>
</a>
</g>
</g>
<!-- Node4 -->
<g id="Node000004" class="node">
<title>Node4</title>
<g id="a_Node000004"><a xlink:href="sstypes_8h.html" target="_top" xlink:title=" ">
<polygon fill="white" stroke="#666666" points="149.12,-74.5 90.38,-74.5 90.38,-55.25 149.12,-55.25 149.12,-74.5"/>
<text text-anchor="middle" x="119.75" y="-61" font-family="Helvetica,sans-Serif" font-size="10.00">sstypes.h</text>
</a>
</g>
</g>
<!-- Node2&#45;&gt;Node4 -->
<g id="edge16_Node000002_Node000004" class="edge">
<title>Node2&#45;&gt;Node4</title>
<g id="a_edge16_Node000002_Node000004"><a xlink:title=" ">
<path fill="none" stroke="#63b8ff" d="M278.27,-228.25C241.67,-224.65 193.25,-214.14 161.75,-185 133.53,-158.89 124.26,-112.68 121.23,-86.14"/>
<polygon fill="#63b8ff" stroke="#63b8ff" points="124.73,-86 120.32,-76.37 117.76,-86.65 124.73,-86"/>
</a>
</g>
</g>
<!-- Node13 -->
<g id="Node000013" class="node">
<title>Node13</title>
<g id="a_Node000013"><a xlink:href="ssvalue_8h.html" target="_top" xlink:title=" ">
<polygon fill="white" stroke="#666666" points="362.75,-185 304.75,-185 304.75,-165.75 362.75,-165.75 362.75,-185"/>
<text text-anchor="middle" x="333.75" y="-171.5" font-family="Helvetica,sans-Serif" font-size="10.00">ssvalue.h</text>
</a>
</g>
</g>
<!-- Node2&#45;&gt;Node13 -->
<g id="edge17_Node000002_Node000013" class="edge">
<title>Node2&#45;&gt;Node13</title>
<g id="a_edge17_Node000002_Node000013"><a xlink:title=" ">
<path fill="none" stroke="#63b8ff" d="M329.58,-220.83C330.19,-214.24 331.07,-204.96 331.85,-196.57"/>
<polygon fill="#63b8ff" stroke="#63b8ff" points="335.31,-197.15 332.76,-186.87 328.35,-196.5 335.31,-197.15"/>
</a>
</g>
</g>
<!-- Node2&#45;&gt;Node20 -->
<g id="edge29_Node000002_Node000020" class="edge">
<title>Node2&#45;&gt;Node20</title>
<g id="a_edge29_Node000002_Node000020"><a xlink:title=" ">
<path fill="none" stroke="#63b8ff" d="M341.98,-220.59C353.52,-212.71 370.52,-201.11 384.2,-191.77"/>
<polygon fill="#63b8ff" stroke="#63b8ff" points="385.92,-194.83 392.2,-186.31 381.97,-189.05 385.92,-194.83"/>
</a>
</g>
</g>
<!-- Node3&#45;&gt;Node3 -->
<g id="edge15_Node000003_Node000003" class="edge">
<title>Node3&#45;&gt;Node3</title>
<g id="a_edge15_Node000003_Node000003"><a xlink:title=" ">
<path fill="none" stroke="#63b8ff" d="M255.04,-185.48C272.02,-186.73 287,-183.36 287,-175.38 287,-169.26 278.22,-165.85 266.48,-165.15"/>
<polygon fill="#63b8ff" stroke="#63b8ff" points="266.52,-161.65 256.55,-165.25 266.59,-168.65 266.52,-161.65"/>
</a>
</g>
</g>
<!-- Node3&#45;&gt;Node4 -->
<g id="edge3_Node000003_Node000004" class="edge">
<title>Node3&#45;&gt;Node4</title>
<g id="a_edge3_Node000003_Node000004"><a xlink:title=" ">
<path fill="none" stroke="#63b8ff" d="M211.57,-165.5C195.01,-147.53 157.29,-106.61 135.7,-83.19"/>
<polygon fill="#63b8ff" stroke="#63b8ff" points="138.42,-80.97 129.07,-75.99 133.28,-85.71 138.42,-80.97"/>
</a>
</g>
</g>
<!-- Node10 -->
<g id="Node000010" class="node">
<title>Node10</title>
<g id="a_Node000010"><a xlink:href="ssarchiver_8h.html" target="_top" xlink:title=" ">
<polygon fill="white" stroke="#666666" points="292,-129.75 223.5,-129.75 223.5,-110.5 292,-110.5 292,-129.75"/>
<text text-anchor="middle" x="257.75" y="-116.25" font-family="Helvetica,sans-Serif" font-size="10.00">ssarchiver.h</text>
</a>
</g>
</g>
<!-- Node3&#45;&gt;Node10 -->
<g id="edge9_Node000003_Node000010" class="edge">
<title>Node3&#45;&gt;Node10</title>
<g id="a_edge9_Node000003_Node000010"><a xlink:title=" ">
<path fill="none" stroke="#63b8ff" d="M226.02,-165.58C231.11,-158.46 238.45,-148.18 244.78,-139.3"/>
<polygon fill="#63b8ff" stroke="#63b8ff" points="247.5,-141.51 250.46,-131.34 241.8,-137.45 247.5,-141.51"/>
</a>
</g>
</g>
<!-- Node5 -->
<g id="Node000005" class="node">
<title>Node5</title>
<g id="a_Node000005"><a xlink:title=" ">
<polygon fill="#e0e0e0" stroke="#999999" points="47.5,-19.25 0,-19.25 0,0 47.5,0 47.5,-19.25"/>
<text text-anchor="middle" x="23.75" y="-5.75" font-family="Helvetica,sans-Serif" font-size="10.00">stdlib.h</text>
</a>
</g>
</g>
<!-- Node4&#45;&gt;Node5 -->
<g id="edge4_Node000004_Node000005" class="edge">
<title>Node4&#45;&gt;Node5</title>
<g id="a_edge4_Node000004_Node000005"><a xlink:title=" ">
<path fill="none" stroke="#63b8ff" d="M103.46,-54.84C88.85,-46.73 67.12,-34.68 50.04,-25.21"/>
<polygon fill="#63b8ff" stroke="#63b8ff" points="51.88,-22.23 41.44,-20.44 48.49,-28.35 51.88,-22.23"/>
</a>
</g>
</g>
<!-- Node6 -->
<g id="Node000006" class="node">
<title>Node6</title>
<g id="a_Node000006"><a xlink:title=" ">
<polygon fill="#e0e0e0" stroke="#999999" points="239.75,-19.25 199.75,-19.25 199.75,0 239.75,0 239.75,-19.25"/>
<text text-anchor="middle" x="219.75" y="-5.75" font-family="Helvetica,sans-Serif" font-size="10.00">string</text>
</a>
</g>
</g>
<!-- Node4&#45;&gt;Node6 -->
<g id="edge5_Node000004_Node000006" class="edge">
<title>Node4&#45;&gt;Node6</title>
<g id="a_edge5_Node000004_Node000006"><a xlink:title=" ">
<path fill="none" stroke="#63b8ff" d="M136.71,-54.84C152.01,-46.69 174.78,-34.57 192.61,-25.08"/>
<polygon fill="#63b8ff" stroke="#63b8ff" points="194.19,-28.2 201.37,-20.41 190.9,-22.02 194.19,-28.2"/>
</a>
</g>
</g>
<!-- Node7 -->
<g id="Node000007" class="node">
<title>Node7</title>
<g id="a_Node000007"><a xlink:title=" ">
<polygon fill="#e0e0e0" stroke="#999999" points="366.25,-19.25 323.25,-19.25 323.25,0 366.25,0 366.25,-19.25"/>
<text text-anchor="middle" x="344.75" y="-5.75" font-family="Helvetica,sans-Serif" font-size="10.00">vector</text>
</a>
</g>
</g>
<!-- Node4&#45;&gt;Node7 -->
<g id="edge6_Node000004_Node000007" class="edge">
<title>Node4&#45;&gt;Node7</title>
<g id="a_edge6_Node000004_Node000007"><a xlink:title=" ">
<path fill="none" stroke="#63b8ff" d="M149.16,-56.91C191.06,-47 267.71,-28.86 311.58,-18.48"/>
<polygon fill="#63b8ff" stroke="#63b8ff" points="312.37,-21.89 321.29,-16.18 310.76,-15.07 312.37,-21.89"/>
</a>
</g>
</g>
<!-- Node8 -->
<g id="Node000008" class="node">
<title>Node8</title>
<g id="a_Node000008"><a xlink:title=" ">
<polygon fill="#e0e0e0" stroke="#999999" points="108.25,-19.25 65.25,-19.25 65.25,0 108.25,0 108.25,-19.25"/>
<text text-anchor="middle" x="86.75" y="-5.75" font-family="Helvetica,sans-Serif" font-size="10.00">cmath</text>
</a>
</g>
</g>
<!-- Node4&#45;&gt;Node8 -->
<g id="edge7_Node000004_Node000008" class="edge">
<title>Node4&#45;&gt;Node8</title>
<g id="a_edge7_Node000004_Node000008"><a xlink:title=" ">
<path fill="none" stroke="#63b8ff" d="M114.3,-55.08C109.98,-48.11 103.79,-38.12 98.37,-29.37"/>
<polygon fill="#63b8ff" stroke="#63b8ff" points="101.36,-27.55 93.11,-20.9 95.41,-31.24 101.36,-27.55"/>
</a>
</g>
</g>
<!-- Node9 -->
<g id="Node000009" class="node">
<title>Node9</title>
<g id="a_Node000009"><a xlink:title=" ">
<polygon fill="#e0e0e0" stroke="#999999" points="181.62,-19.25 125.88,-19.25 125.88,0 181.62,0 181.62,-19.25"/>
<text text-anchor="middle" x="153.75" y="-5.75" font-family="Helvetica,sans-Serif" font-size="10.00">algorithm</text>
</a>
</g>
</g>
<!-- Node4&#45;&gt;Node9 -->
<g id="edge8_Node000004_Node000009" class="edge">
<title>Node4&#45;&gt;Node9</title>
<g id="a_edge8_Node000004_Node000009"><a xlink:title=" ">
<path fill="none" stroke="#63b8ff" d="M125.36,-55.08C129.87,-48.03 136.34,-37.9 141.96,-29.08"/>
<polygon fill="#63b8ff" stroke="#63b8ff" points="144.77,-31.2 147.2,-20.88 138.87,-27.43 144.77,-31.2"/>
</a>
</g>
</g>
<!-- Node10&#45;&gt;Node4 -->
<g id="edge11_Node000010_Node000004" class="edge">
<title>Node10&#45;&gt;Node4</title>
<g id="a_edge11_Node000010_Node000004"><a xlink:title=" ">
<path fill="none" stroke="#63b8ff" d="M234.34,-110.09C212.23,-101.56 178.83,-88.67 153.78,-79.01"/>
<polygon fill="#63b8ff" stroke="#63b8ff" points="155.28,-75.83 144.69,-75.5 152.76,-82.36 155.28,-75.83"/>
</a>
</g>
</g>
<!-- Node10&#45;&gt;Node6 -->
<g id="edge12_Node000010_Node000006" class="edge">
<title>Node10&#45;&gt;Node6</title>
<g id="a_edge12_Node000010_Node000006"><a xlink:title=" ">
<path fill="none" stroke="#63b8ff" d="M236.31,-110.12C221.96,-102.82 204.22,-91.02 195.75,-74.5 188.09,-59.55 196.28,-41.55 205.12,-28.48"/>
<polygon fill="#63b8ff" stroke="#63b8ff" points="207.68,-30.9 210.84,-20.79 202.06,-26.72 207.68,-30.9"/>
</a>
</g>
</g>
<!-- Node10&#45;&gt;Node7 -->
<g id="edge13_Node000010_Node000007" class="edge">
<title>Node10&#45;&gt;Node7</title>
<g id="a_edge13_Node000010_Node000007"><a xlink:title=" ">
<path fill="none" stroke="#63b8ff" d="M275.4,-110.12C289.13,-102.33 307.8,-89.9 319.75,-74.5 329.81,-61.54 336.29,-44.02 340.12,-30.61"/>
<polygon fill="#63b8ff" stroke="#63b8ff" points="343.45,-31.72 342.55,-21.16 336.67,-29.97 343.45,-31.72"/>
</a>
</g>
</g>
<!-- Node11 -->
<g id="Node000011" class="node">
<title>Node11</title>
<g id="a_Node000011"><a xlink:title=" ">
<polygon fill="#e0e0e0" stroke="#999999" points="311.12,-74.5 204.38,-74.5 204.38,-55.25 311.12,-55.25 311.12,-74.5"/>
<text text-anchor="middle" x="257.75" y="-61" font-family="Helvetica,sans-Serif" font-size="10.00">./tinyxml2/tinyxml2.h</text>
</a>
</g>
</g>
<!-- Node10&#45;&gt;Node11 -->
<g id="edge10_Node000010_Node000011" class="edge">
<title>Node10&#45;&gt;Node11</title>
<g id="a_edge10_Node000010_Node000011"><a xlink:title=" ">
<path fill="none" stroke="#63b8ff" d="M257.75,-110.33C257.75,-103.82 257.75,-94.67 257.75,-86.37"/>
<polygon fill="#63b8ff" stroke="#63b8ff" points="261.25,-86.37 257.75,-76.37 254.25,-86.37 261.25,-86.37"/>
</a>
</g>
</g>
<!-- Node12 -->
<g id="Node000012" class="node">
<title>Node12</title>
<g id="a_Node000012"><a xlink:title=" ">
<polygon fill="#e0e0e0" stroke="#999999" points="401.12,-74.5 366.38,-74.5 366.38,-55.25 401.12,-55.25 401.12,-74.5"/>
<text text-anchor="middle" x="383.75" y="-61" font-family="Helvetica,sans-Serif" font-size="10.00">map</text>
</a>
</g>
</g>
<!-- Node10&#45;&gt;Node12 -->
<g id="edge14_Node000010_Node000012" class="edge">
<title>Node10&#45;&gt;Node12</title>
<g id="a_edge14_Node000010_Node000012"><a xlink:title=" ">
<path fill="none" stroke="#63b8ff" d="M279.12,-110.09C300.12,-101.22 332.29,-87.62 355.41,-77.85"/>
<polygon fill="#63b8ff" stroke="#63b8ff" points="356.7,-81.11 364.55,-73.99 353.98,-74.66 356.7,-81.11"/>
</a>
</g>
</g>
<!-- Node13&#45;&gt;Node7 -->
<g id="edge27_Node000013_Node000007" class="edge">
<title>Node13&#45;&gt;Node7</title>
<g id="a_edge27_Node000013_Node000007"><a xlink:title=" ">
<path fill="none" stroke="#63b8ff" d="M362.91,-165.45C379.82,-158.59 399.72,-147.28 409.75,-129.75 426.2,-101.01 425.17,-84.55 409.75,-55.25 402.61,-41.68 389.26,-31.44 376.52,-24.21"/>
<polygon fill="#63b8ff" stroke="#63b8ff" points="378.39,-21.24 367.9,-19.75 375.17,-27.46 378.39,-21.24"/>
</a>
</g>
</g>
<!-- Node13&#45;&gt;Node10 -->
<g id="edge18_Node000013_Node000010" class="edge">
<title>Node13&#45;&gt;Node10</title>
<g id="a_edge18_Node000013_Node000010"><a xlink:title=" ">
<path fill="none" stroke="#63b8ff" d="M320.86,-165.34C309.72,-157.54 293.38,-146.09 280.11,-136.79"/>
<polygon fill="#63b8ff" stroke="#63b8ff" points="282.14,-133.94 271.95,-131.07 278.13,-139.68 282.14,-133.94"/>
</a>
</g>
</g>
<!-- Node13&#45;&gt;Node12 -->
<g id="edge26_Node000013_Node000012" class="edge">
<title>Node13&#45;&gt;Node12</title>
<g id="a_edge26_Node000013_Node000012"><a xlink:title=" ">
<path fill="none" stroke="#63b8ff" d="M333.58,-165.66C333.66,-152.92 335.09,-128.75 343.75,-110.5 348.73,-100.01 356.97,-90.18 364.68,-82.43"/>
<polygon fill="#63b8ff" stroke="#63b8ff" points="366.69,-85.36 371.56,-75.95 361.89,-80.26 366.69,-85.36"/>
</a>
</g>
</g>
<!-- Node14 -->
<g id="Node000014" class="node">
<title>Node14</title>
<g id="a_Node000014"><a xlink:href="ssstring__uty_8h.html" target="_top" xlink:title=" ">
<polygon fill="white" stroke="#666666" points="532.75,-74.5 456.75,-74.5 456.75,-55.25 532.75,-55.25 532.75,-74.5"/>
<text text-anchor="middle" x="494.75" y="-61" font-family="Helvetica,sans-Serif" font-size="10.00">ssstring_uty.h</text>
</a>
</g>
</g>
<!-- Node13&#45;&gt;Node14 -->
<g id="edge19_Node000013_Node000014" class="edge">
<title>Node13&#45;&gt;Node14</title>
<g id="a_edge19_Node000013_Node000014"><a xlink:title=" ">
<path fill="none" stroke="#63b8ff" d="M363.07,-166.73C386.25,-159.71 418.61,-147.65 442.75,-129.75 459.41,-117.4 473.88,-98.54 483.3,-84.51"/>
<polygon fill="#63b8ff" stroke="#63b8ff" points="486.19,-86.49 488.65,-76.19 480.3,-82.71 486.19,-86.49"/>
</a>
</g>
</g>
<!-- Node19 -->
<g id="Node000019" class="node">
<title>Node19</title>
<g id="a_Node000019"><a xlink:title=" ">
<polygon fill="#e0e0e0" stroke="#999999" points="400.88,-129.75 352.62,-129.75 352.62,-110.5 400.88,-110.5 400.88,-129.75"/>
<text text-anchor="middle" x="376.75" y="-116.25" font-family="Helvetica,sans-Serif" font-size="10.00">cassert</text>
</a>
</g>
</g>
<!-- Node13&#45;&gt;Node19 -->
<g id="edge28_Node000013_Node000019" class="edge">
<title>Node13&#45;&gt;Node19</title>
<g id="a_edge28_Node000013_Node000019"><a xlink:title=" ">
<path fill="none" stroke="#63b8ff" d="M340.85,-165.58C346.67,-158.38 355.08,-147.96 362.31,-139.01"/>
<polygon fill="#63b8ff" stroke="#63b8ff" points="364.98,-141.27 368.54,-131.29 359.54,-136.87 364.98,-141.27"/>
</a>
</g>
</g>
<!-- Node14&#45;&gt;Node6 -->
<g id="edge20_Node000014_Node000006" class="edge">
<title>Node14&#45;&gt;Node6</title>
<g id="a_edge20_Node000014_Node000006"><a xlink:title=" ">
<path fill="none" stroke="#63b8ff" d="M456.51,-56.47C401.72,-45.86 301.91,-26.53 251.17,-16.71"/>
<polygon fill="#63b8ff" stroke="#63b8ff" points="251.93,-13.29 241.45,-14.83 250.6,-20.16 251.93,-13.29"/>
</a>
</g>
</g>
<!-- Node14&#45;&gt;Node7 -->
<g id="edge22_Node000014_Node000007" class="edge">
<title>Node14&#45;&gt;Node7</title>
<g id="a_edge22_Node000014_Node000007"><a xlink:title=" ">
<path fill="none" stroke="#63b8ff" d="M469.3,-54.84C443.89,-45.82 404.72,-31.92 377.11,-22.11"/>
<polygon fill="#63b8ff" stroke="#63b8ff" points="378.44,-18.87 367.84,-18.82 376.1,-25.47 378.44,-18.87"/>
</a>
</g>
</g>
<!-- Node15 -->
<g id="Node000015" class="node">
<title>Node15</title>
<g id="a_Node000015"><a xlink:title=" ">
<polygon fill="#e0e0e0" stroke="#999999" points="579.25,-19.25 530.25,-19.25 530.25,0 579.25,0 579.25,-19.25"/>
<text text-anchor="middle" x="554.75" y="-5.75" font-family="Helvetica,sans-Serif" font-size="10.00">fstream</text>
</a>
</g>
</g>
<!-- Node14&#45;&gt;Node15 -->
<g id="edge21_Node000014_Node000015" class="edge">
<title>Node14&#45;&gt;Node15</title>
<g id="a_edge21_Node000014_Node000015"><a xlink:title=" ">
<path fill="none" stroke="#63b8ff" d="M504.93,-54.84C513.51,-47.22 526.02,-36.12 536.35,-26.95"/>
<polygon fill="#63b8ff" stroke="#63b8ff" points="538.43,-29.79 543.59,-20.53 533.79,-24.55 538.43,-29.79"/>
</a>
</g>
</g>
<!-- Node16 -->
<g id="Node000016" class="node">
<title>Node16</title>
<g id="a_Node000016"><a xlink:title=" ">
<polygon fill="#e0e0e0" stroke="#999999" points="650.5,-19.25 597,-19.25 597,0 650.5,0 650.5,-19.25"/>
<text text-anchor="middle" x="623.75" y="-5.75" font-family="Helvetica,sans-Serif" font-size="10.00">iostream</text>
</a>
</g>
</g>
<!-- Node14&#45;&gt;Node16 -->
<g id="edge23_Node000014_Node000016" class="edge">
<title>Node14&#45;&gt;Node16</title>
<g id="a_edge23_Node000014_Node000016"><a xlink:title=" ">
<path fill="none" stroke="#63b8ff" d="M516.63,-54.84C537.11,-46.39 567.96,-33.65 591.31,-24.02"/>
<polygon fill="#63b8ff" stroke="#63b8ff" points="592.45,-27.33 600.36,-20.28 589.78,-20.86 592.45,-27.33"/>
</a>
</g>
</g>
<!-- Node17 -->
<g id="Node000017" class="node">
<title>Node17</title>
<g id="a_Node000017"><a xlink:title=" ">
<polygon fill="#e0e0e0" stroke="#999999" points="447.38,-19.25 396.12,-19.25 396.12,0 447.38,0 447.38,-19.25"/>
<text text-anchor="middle" x="421.75" y="-5.75" font-family="Helvetica,sans-Serif" font-size="10.00">sstream</text>
</a>
</g>
</g>
<!-- Node14&#45;&gt;Node17 -->
<g id="edge24_Node000014_Node000017" class="edge">
<title>Node14&#45;&gt;Node17</title>
<g id="a_edge24_Node000014_Node000017"><a xlink:title=" ">
<path fill="none" stroke="#63b8ff" d="M482.37,-54.84C471.6,-46.99 455.78,-35.45 443,-26.12"/>
<polygon fill="#63b8ff" stroke="#63b8ff" points="445.31,-23.48 435.17,-20.42 441.19,-29.14 445.31,-23.48"/>
</a>
</g>
</g>
<!-- Node18 -->
<g id="Node000018" class="node">
<title>Node18</title>
<g id="a_Node000018"><a xlink:title=" ">
<polygon fill="#e0e0e0" stroke="#999999" points="511.75,-19.25 465.75,-19.25 465.75,0 511.75,0 511.75,-19.25"/>
<text text-anchor="middle" x="488.75" y="-5.75" font-family="Helvetica,sans-Serif" font-size="10.00">iterator</text>
</a>
</g>
</g>
<!-- Node14&#45;&gt;Node18 -->
<g id="edge25_Node000014_Node000018" class="edge">
<title>Node14&#45;&gt;Node18</title>
<g id="a_edge25_Node000014_Node000018"><a xlink:title=" ">
<path fill="none" stroke="#63b8ff" d="M493.76,-55.08C493.02,-48.49 491.97,-39.21 491.03,-30.82"/>
<polygon fill="#63b8ff" stroke="#63b8ff" points="494.53,-30.66 489.93,-21.11 487.57,-31.44 494.53,-30.66"/>
</a>
</g>
</g>
</g>
</svg>
