<?xml version="1.0" encoding="UTF-8" standalone="no"?>
<!DOCTYPE svg PUBLIC "-//W3C//DTD SVG 1.1//EN"
 "http://www.w3.org/Graphics/SVG/1.1/DTD/svg11.dtd">
<!-- Generated by graphviz version 9.0.0 (20230911.1827)
 -->
<!-- Title: Common/Loader/SsEffectElement.cpp Pages: 1 -->
<svg width="1088pt" height="469pt"
 viewBox="0.00 0.00 1088.00 469.25" xmlns="http://www.w3.org/2000/svg" xmlns:xlink="http://www.w3.org/1999/xlink">
<g id="graph0" class="graph" transform="scale(1 1) rotate(0) translate(4 465.25)">
<title>Common/Loader/SsEffectElement.cpp</title>
<!-- Node1 -->
<g id="Node000001" class="node">
<title>Node1</title>
<g id="a_Node000001"><a xlink:title=" ">
<polygon fill="#999999" stroke="#666666" points="593,-461.25 409,-461.25 409,-442 593,-442 593,-461.25"/>
<text text-anchor="middle" x="501" y="-447.75" font-family="Helvetica,sans-Serif" font-size="10.00">Common/Loader/SsEffectElement.cpp</text>
</a>
</g>
</g>
<!-- Node2 -->
<g id="Node000002" class="node">
<title>Node2</title>
<g id="a_Node000002"><a xlink:title=" ">
<polygon fill="#e0e0e0" stroke="#999999" points="460.62,-406 415.38,-406 415.38,-386.75 460.62,-386.75 460.62,-406"/>
<text text-anchor="middle" x="438" y="-392.5" font-family="Helvetica,sans-Serif" font-size="10.00">stdio.h</text>
</a>
</g>
</g>
<!-- Node1&#45;&gt;Node2 -->
<g id="edge1_Node000001_Node000002" class="edge">
<title>Node1&#45;&gt;Node2</title>
<g id="a_edge1_Node000001_Node000002"><a xlink:title=" ">
<path fill="none" stroke="#63b8ff" d="M490.31,-441.59C481.3,-433.97 468.17,-422.87 457.32,-413.7"/>
<polygon fill="#63b8ff" stroke="#63b8ff" points="459.58,-411.03 449.69,-407.25 455.06,-416.38 459.58,-411.03"/>
</a>
</g>
</g>
<!-- Node3 -->
<g id="Node000003" class="node">
<title>Node3</title>
<g id="a_Node000003"><a xlink:title=" ">
<polygon fill="#e0e0e0" stroke="#999999" points="523.25,-406 478.75,-406 478.75,-386.75 523.25,-386.75 523.25,-406"/>
<text text-anchor="middle" x="501" y="-392.5" font-family="Helvetica,sans-Serif" font-size="10.00">cstdlib</text>
</a>
</g>
</g>
<!-- Node1&#45;&gt;Node3 -->
<g id="edge2_Node000001_Node000003" class="edge">
<title>Node1&#45;&gt;Node3</title>
<g id="a_edge2_Node000001_Node000003"><a xlink:title=" ">
<path fill="none" stroke="#63b8ff" d="M501,-441.83C501,-435.32 501,-426.17 501,-417.87"/>
<polygon fill="#63b8ff" stroke="#63b8ff" points="504.5,-417.87 501,-407.87 497.5,-417.87 504.5,-417.87"/>
</a>
</g>
</g>
<!-- Node4 -->
<g id="Node000004" class="node">
<title>Node4</title>
<g id="a_Node000004"><a xlink:href="ssloader_8h.html" target="_top" xlink:title=" ">
<polygon fill="white" stroke="#666666" points="601.12,-406 540.88,-406 540.88,-386.75 601.12,-386.75 601.12,-406"/>
<text text-anchor="middle" x="571" y="-392.5" font-family="Helvetica,sans-Serif" font-size="10.00">ssloader.h</text>
</a>
</g>
</g>
<!-- Node1&#45;&gt;Node4 -->
<g id="edge3_Node000001_Node000004" class="edge">
<title>Node1&#45;&gt;Node4</title>
<g id="a_edge3_Node000001_Node000004"><a xlink:title=" ">
<path fill="none" stroke="#63b8ff" d="M512.87,-441.59C523.09,-433.82 538.07,-422.42 550.26,-413.15"/>
<polygon fill="#63b8ff" stroke="#63b8ff" points="552.26,-416.03 558.1,-407.19 548.02,-410.46 552.26,-416.03"/>
</a>
</g>
</g>
<!-- Node5 -->
<g id="Node000005" class="node">
<title>Node5</title>
<g id="a_Node000005"><a xlink:href="sstypes_8h.html" target="_top" xlink:title=" ">
<polygon fill="white" stroke="#666666" points="830.38,-74.5 771.62,-74.5 771.62,-55.25 830.38,-55.25 830.38,-74.5"/>
<text text-anchor="middle" x="801" y="-61" font-family="Helvetica,sans-Serif" font-size="10.00">sstypes.h</text>
</a>
</g>
</g>
<!-- Node4&#45;&gt;Node5 -->
<g id="edge4_Node000004_Node000005" class="edge">
<title>Node4&#45;&gt;Node5</title>
<g id="a_edge4_Node000004_Node000005"><a xlink:title=" ">
<path fill="none" stroke="#63b8ff" d="M601.32,-395.42C710.89,-394.79 1080,-385.36 1080,-286.88 1080,-286.88 1080,-286.88 1080,-174.38 1080,-123.95 919.71,-87.63 842.12,-73"/>
<polygon fill="#63b8ff" stroke="#63b8ff" points="842.82,-69.57 832.35,-71.2 841.54,-76.46 842.82,-69.57"/>
</a>
</g>
</g>
<!-- Node11 -->
<g id="Node000011" class="node">
<title>Node11</title>
<g id="a_Node000011"><a xlink:href="ssarchiver_8h.html" target="_top" xlink:title=" ">
<polygon fill="white" stroke="#666666" points="386.25,-129.75 317.75,-129.75 317.75,-110.5 386.25,-110.5 386.25,-129.75"/>
<text text-anchor="middle" x="352" y="-116.25" font-family="Helvetica,sans-Serif" font-size="10.00">ssarchiver.h</text>
</a>
</g>
</g>
<!-- Node4&#45;&gt;Node11 -->
<g id="edge10_Node000004_Node000011" class="edge">
<title>Node4&#45;&gt;Node11</title>
<g id="a_edge10_Node000004_Node000011"><a xlink:title=" ">
<path fill="none" stroke="#63b8ff" d="M540.55,-386.8C470.55,-366.79 303.05,-317.08 288,-295.5 252.42,-244.48 306.78,-171.36 335.75,-138.4"/>
<polygon fill="#63b8ff" stroke="#63b8ff" points="338.02,-141.11 342.14,-131.34 332.83,-136.41 338.02,-141.11"/>
</a>
</g>
</g>
<!-- Node14 -->
<g id="Node000014" class="node">
<title>Node14</title>
<g id="a_Node000014"><a xlink:href="ssattribute_8h.html" target="_top" xlink:title=" ">
<polygon fill="white" stroke="#666666" points="248,-240.25 178,-240.25 178,-221 248,-221 248,-240.25"/>
<text text-anchor="middle" x="213" y="-226.75" font-family="Helvetica,sans-Serif" font-size="10.00">ssattribute.h</text>
</a>
</g>
</g>
<!-- Node4&#45;&gt;Node14 -->
<g id="edge16_Node000004_Node000014" class="edge">
<title>Node4&#45;&gt;Node14</title>
<g id="a_edge16_Node000004_Node000014"><a xlink:title=" ">
<path fill="none" stroke="#63b8ff" d="M540.39,-388.34C537.56,-387.77 534.73,-387.23 532,-386.75 470.86,-376.04 303.25,-389.81 255,-350.75 224.84,-326.33 216.31,-278.74 213.91,-251.69"/>
<polygon fill="#63b8ff" stroke="#63b8ff" points="217.43,-251.81 213.28,-242.07 210.44,-252.28 217.43,-251.81"/>
</a>
</g>
</g>
<!-- Node22 -->
<g id="Node000022" class="node">
<title>Node22</title>
<g id="a_Node000022"><a xlink:href="ss_interpolation_8h.html" target="_top" xlink:title=" ">
<polygon fill="white" stroke="#666666" points="88,-185 0,-185 0,-165.75 88,-165.75 88,-185"/>
<text text-anchor="middle" x="44" y="-171.5" font-family="Helvetica,sans-Serif" font-size="10.00">ssInterpolation.h</text>
</a>
</g>
</g>
<!-- Node4&#45;&gt;Node22 -->
<g id="edge64_Node000004_Node000022" class="edge">
<title>Node4&#45;&gt;Node22</title>
<g id="a_edge64_Node000004_Node000022"><a xlink:title=" ">
<path fill="none" stroke="#63b8ff" d="M540.4,-388.31C537.57,-387.75 534.73,-387.22 532,-386.75 400.93,-364.37 355.85,-406.21 235,-350.75 154.8,-313.94 85.18,-230.89 57.15,-194.28"/>
<polygon fill="#63b8ff" stroke="#63b8ff" points="60.09,-192.36 51.29,-186.47 54.5,-196.57 60.09,-192.36"/>
</a>
</g>
</g>
<!-- Node24 -->
<g id="Node000024" class="node">
<title>Node24</title>
<g id="a_Node000024"><a xlink:href="ssloader__sspj_8h.html" target="_top" xlink:title=" ">
<polygon fill="white" stroke="#666666" points="687.12,-350.75 602.88,-350.75 602.88,-331.5 687.12,-331.5 687.12,-350.75"/>
<text text-anchor="middle" x="645" y="-337.25" font-family="Helvetica,sans-Serif" font-size="10.00">ssloader_sspj.h</text>
</a>
</g>
</g>
<!-- Node4&#45;&gt;Node24 -->
<g id="edge33_Node000004_Node000024" class="edge">
<title>Node4&#45;&gt;Node24</title>
<g id="a_edge33_Node000004_Node000024"><a xlink:title=" ">
<path fill="none" stroke="#63b8ff" d="M583.55,-386.34C594.46,-378.49 610.5,-366.95 623.46,-357.62"/>
<polygon fill="#63b8ff" stroke="#63b8ff" points="625.33,-360.59 631.4,-351.91 621.24,-354.91 625.33,-360.59"/>
</a>
</g>
</g>
<!-- Node25 -->
<g id="Node000025" class="node">
<title>Node25</title>
<g id="a_Node000025"><a xlink:href="ssloader__ssae_8h.html" target="_top" xlink:title=" ">
<polygon fill="white" stroke="#666666" points="384.62,-295.5 297.38,-295.5 297.38,-276.25 384.62,-276.25 384.62,-295.5"/>
<text text-anchor="middle" x="341" y="-282" font-family="Helvetica,sans-Serif" font-size="10.00">ssloader_ssae.h</text>
</a>
</g>
</g>
<!-- Node4&#45;&gt;Node25 -->
<g id="edge60_Node000004_Node000025" class="edge">
<title>Node4&#45;&gt;Node25</title>
<g id="a_edge60_Node000004_Node000025"><a xlink:title=" ">
<path fill="none" stroke="#63b8ff" d="M551.79,-386.31C511.62,-367.36 418.54,-323.45 370.64,-300.86"/>
<polygon fill="#63b8ff" stroke="#63b8ff" points="372.23,-297.74 361.69,-296.64 369.24,-304.07 372.23,-297.74"/>
</a>
</g>
</g>
<!-- Node26 -->
<g id="Node000026" class="node">
<title>Node26</title>
<g id="a_Node000026"><a xlink:href="ssloader__ssce_8h.html" target="_top" xlink:title=" ">
<polygon fill="white" stroke="#666666" points="1051.62,-240.25 964.38,-240.25 964.38,-221 1051.62,-221 1051.62,-240.25"/>
<text text-anchor="middle" x="1008" y="-226.75" font-family="Helvetica,sans-Serif" font-size="10.00">ssloader_ssce.h</text>
</a>
</g>
</g>
<!-- Node4&#45;&gt;Node26 -->
<g id="edge61_Node000004_Node000026" class="edge">
<title>Node4&#45;&gt;Node26</title>
<g id="a_edge61_Node000004_Node000026"><a xlink:title=" ">
<path fill="none" stroke="#63b8ff" d="M601.43,-387.68C632.73,-379.5 682.75,-365.71 725,-350.75 819.33,-317.36 927.5,-268.88 978.48,-245.4"/>
<polygon fill="#63b8ff" stroke="#63b8ff" points="979.77,-248.66 987.38,-241.28 976.83,-242.3 979.77,-248.66"/>
</a>
</g>
</g>
<!-- Node27 -->
<g id="Node000027" class="node">
<title>Node27</title>
<g id="a_Node000027"><a xlink:href="ssloader__ssee_8h.html" target="_top" xlink:title=" ">
<polygon fill="white" stroke="#666666" points="614.62,-295.5 527.38,-295.5 527.38,-276.25 614.62,-276.25 614.62,-295.5"/>
<text text-anchor="middle" x="571" y="-282" font-family="Helvetica,sans-Serif" font-size="10.00">ssloader_ssee.h</text>
</a>
</g>
</g>
<!-- Node4&#45;&gt;Node27 -->
<g id="edge62_Node000004_Node000027" class="edge">
<title>Node4&#45;&gt;Node27</title>
<g id="a_edge62_Node000004_Node000027"><a xlink:title=" ">
<path fill="none" stroke="#63b8ff" d="M571,-386.5C571,-369.25 571,-330.83 571,-307.06"/>
<polygon fill="#63b8ff" stroke="#63b8ff" points="574.5,-307.39 571,-297.39 567.5,-307.39 574.5,-307.39"/>
</a>
</g>
</g>
<!-- Node31 -->
<g id="Node000031" class="node">
<title>Node31</title>
<g id="a_Node000031"><a xlink:href="ssloader__ssqe_8h.html" target="_top" xlink:title=" ">
<polygon fill="white" stroke="#666666" points="907.62,-240.25 820.38,-240.25 820.38,-221 907.62,-221 907.62,-240.25"/>
<text text-anchor="middle" x="864" y="-226.75" font-family="Helvetica,sans-Serif" font-size="10.00">ssloader_ssqe.h</text>
</a>
</g>
</g>
<!-- Node4&#45;&gt;Node31 -->
<g id="edge63_Node000004_Node000031" class="edge">
<title>Node4&#45;&gt;Node31</title>
<g id="a_edge63_Node000004_Node000031"><a xlink:title=" ">
<path fill="none" stroke="#63b8ff" d="M601.52,-387.04C627.44,-379.37 665.24,-366.76 696,-350.75 754.1,-320.52 815.07,-272.56 845.05,-247.72"/>
<polygon fill="#63b8ff" stroke="#63b8ff" points="847.07,-250.59 852.5,-241.49 842.58,-245.22 847.07,-250.59"/>
</a>
</g>
</g>
<!-- Node6 -->
<g id="Node000006" class="node">
<title>Node6</title>
<g id="a_Node000006"><a xlink:title=" ">
<polygon fill="#e0e0e0" stroke="#999999" points="927.75,-19.25 880.25,-19.25 880.25,0 927.75,0 927.75,-19.25"/>
<text text-anchor="middle" x="904" y="-5.75" font-family="Helvetica,sans-Serif" font-size="10.00">stdlib.h</text>
</a>
</g>
</g>
<!-- Node5&#45;&gt;Node6 -->
<g id="edge5_Node000005_Node000006" class="edge">
<title>Node5&#45;&gt;Node6</title>
<g id="a_edge5_Node000005_Node000006"><a xlink:title=" ">
<path fill="none" stroke="#63b8ff" d="M818.47,-54.84C834.31,-46.66 857.91,-34.46 876.31,-24.94"/>
<polygon fill="#63b8ff" stroke="#63b8ff" points="877.82,-28.1 885.1,-20.4 874.61,-21.88 877.82,-28.1"/>
</a>
</g>
</g>
<!-- Node7 -->
<g id="Node000007" class="node">
<title>Node7</title>
<g id="a_Node000007"><a xlink:title=" ">
<polygon fill="#e0e0e0" stroke="#999999" points="727,-19.25 687,-19.25 687,0 727,0 727,-19.25"/>
<text text-anchor="middle" x="707" y="-5.75" font-family="Helvetica,sans-Serif" font-size="10.00">string</text>
</a>
</g>
</g>
<!-- Node5&#45;&gt;Node7 -->
<g id="edge6_Node000005_Node000007" class="edge">
<title>Node5&#45;&gt;Node7</title>
<g id="a_edge6_Node000005_Node000007"><a xlink:title=" ">
<path fill="none" stroke="#63b8ff" d="M785.05,-54.84C770.74,-46.73 749.47,-34.68 732.75,-25.21"/>
<polygon fill="#63b8ff" stroke="#63b8ff" points="734.77,-22.33 724.34,-20.45 731.32,-28.42 734.77,-22.33"/>
</a>
</g>
</g>
<!-- Node8 -->
<g id="Node000008" class="node">
<title>Node8</title>
<g id="a_Node000008"><a xlink:title=" ">
<polygon fill="#e0e0e0" stroke="#999999" points="336.5,-19.25 293.5,-19.25 293.5,0 336.5,0 336.5,-19.25"/>
<text text-anchor="middle" x="315" y="-5.75" font-family="Helvetica,sans-Serif" font-size="10.00">vector</text>
</a>
</g>
</g>
<!-- Node5&#45;&gt;Node8 -->
<g id="edge7_Node000005_Node000008" class="edge">
<title>Node5&#45;&gt;Node8</title>
<g id="a_edge7_Node000005_Node000008"><a xlink:title=" ">
<path fill="none" stroke="#63b8ff" d="M771.41,-60.48C757.35,-58.88 740.31,-56.95 725,-55.25 584.74,-39.66 417.42,-21.62 347.85,-14.15"/>
<polygon fill="#63b8ff" stroke="#63b8ff" points="348.6,-10.71 338.29,-13.12 347.86,-17.67 348.6,-10.71"/>
</a>
</g>
</g>
<!-- Node9 -->
<g id="Node000009" class="node">
<title>Node9</title>
<g id="a_Node000009"><a xlink:title=" ">
<polygon fill="#e0e0e0" stroke="#999999" points="788.5,-19.25 745.5,-19.25 745.5,0 788.5,0 788.5,-19.25"/>
<text text-anchor="middle" x="767" y="-5.75" font-family="Helvetica,sans-Serif" font-size="10.00">cmath</text>
</a>
</g>
</g>
<!-- Node5&#45;&gt;Node9 -->
<g id="edge8_Node000005_Node000009" class="edge">
<title>Node5&#45;&gt;Node9</title>
<g id="a_edge8_Node000005_Node000009"><a xlink:title=" ">
<path fill="none" stroke="#63b8ff" d="M795.39,-55.08C790.88,-48.03 784.41,-37.9 778.79,-29.08"/>
<polygon fill="#63b8ff" stroke="#63b8ff" points="781.88,-27.43 773.55,-20.88 775.98,-31.2 781.88,-27.43"/>
</a>
</g>
</g>
<!-- Node10 -->
<g id="Node000010" class="node">
<title>Node10</title>
<g id="a_Node000010"><a xlink:title=" ">
<polygon fill="#e0e0e0" stroke="#999999" points="861.88,-19.25 806.12,-19.25 806.12,0 861.88,0 861.88,-19.25"/>
<text text-anchor="middle" x="834" y="-5.75" font-family="Helvetica,sans-Serif" font-size="10.00">algorithm</text>
</a>
</g>
</g>
<!-- Node5&#45;&gt;Node10 -->
<g id="edge9_Node000005_Node000010" class="edge">
<title>Node5&#45;&gt;Node10</title>
<g id="a_edge9_Node000005_Node000010"><a xlink:title=" ">
<path fill="none" stroke="#63b8ff" d="M806.45,-55.08C810.77,-48.11 816.96,-38.12 822.38,-29.37"/>
<polygon fill="#63b8ff" stroke="#63b8ff" points="825.34,-31.24 827.64,-20.9 819.39,-27.55 825.34,-31.24"/>
</a>
</g>
</g>
<!-- Node11&#45;&gt;Node5 -->
<g id="edge12_Node000011_Node000005" class="edge">
<title>Node11&#45;&gt;Node5</title>
<g id="a_edge12_Node000011_Node000005"><a xlink:title=" ">
<path fill="none" stroke="#63b8ff" d="M386.49,-115.03C467.96,-105.37 672.08,-81.16 759.84,-70.76"/>
<polygon fill="#63b8ff" stroke="#63b8ff" points="760.16,-74.24 769.68,-69.59 759.33,-67.29 760.16,-74.24"/>
</a>
</g>
</g>
<!-- Node11&#45;&gt;Node7 -->
<g id="edge13_Node000011_Node000007" class="edge">
<title>Node11&#45;&gt;Node7</title>
<g id="a_edge13_Node000011_Node000007"><a xlink:title=" ">
<path fill="none" stroke="#63b8ff" d="M363.15,-110.08C381.12,-96.01 418.12,-69.05 454,-55.25 529.99,-26.04 626.24,-15.79 675.22,-12.32"/>
<polygon fill="#63b8ff" stroke="#63b8ff" points="675.36,-15.82 685.11,-11.68 674.9,-8.84 675.36,-15.82"/>
</a>
</g>
</g>
<!-- Node11&#45;&gt;Node8 -->
<g id="edge14_Node000011_Node000008" class="edge">
<title>Node11&#45;&gt;Node8</title>
<g id="a_edge14_Node000011_Node000008"><a xlink:title=" ">
<path fill="none" stroke="#63b8ff" d="M317.29,-113.35C294.78,-107.61 267.12,-96.35 253,-74.5 240.67,-55.42 262.93,-37.2 284.13,-25.14"/>
<polygon fill="#63b8ff" stroke="#63b8ff" points="285.77,-28.23 292.95,-20.44 282.48,-22.05 285.77,-28.23"/>
</a>
</g>
</g>
<!-- Node12 -->
<g id="Node000012" class="node">
<title>Node12</title>
<g id="a_Node000012"><a xlink:title=" ">
<polygon fill="#e0e0e0" stroke="#999999" points="368.38,-74.5 261.62,-74.5 261.62,-55.25 368.38,-55.25 368.38,-74.5"/>
<text text-anchor="middle" x="315" y="-61" font-family="Helvetica,sans-Serif" font-size="10.00">./tinyxml2/tinyxml2.h</text>
</a>
</g>
</g>
<!-- Node11&#45;&gt;Node12 -->
<g id="edge11_Node000011_Node000012" class="edge">
<title>Node11&#45;&gt;Node12</title>
<g id="a_edge11_Node000011_Node000012"><a xlink:title=" ">
<path fill="none" stroke="#63b8ff" d="M345.89,-110.33C340.94,-103.21 333.8,-92.93 327.63,-84.05"/>
<polygon fill="#63b8ff" stroke="#63b8ff" points="330.69,-82.32 322.11,-76.1 324.94,-86.31 330.69,-82.32"/>
</a>
</g>
</g>
<!-- Node13 -->
<g id="Node000013" class="node">
<title>Node13</title>
<g id="a_Node000013"><a xlink:title=" ">
<polygon fill="#e0e0e0" stroke="#999999" points="168.38,-74.5 133.62,-74.5 133.62,-55.25 168.38,-55.25 168.38,-74.5"/>
<text text-anchor="middle" x="151" y="-61" font-family="Helvetica,sans-Serif" font-size="10.00">map</text>
</a>
</g>
</g>
<!-- Node11&#45;&gt;Node13 -->
<g id="edge15_Node000011_Node000013" class="edge">
<title>Node11&#45;&gt;Node13</title>
<g id="a_edge15_Node000011_Node000013"><a xlink:title=" ">
<path fill="none" stroke="#63b8ff" d="M317.9,-110.09C278.99,-99.78 216.04,-83.11 179.59,-73.45"/>
<polygon fill="#63b8ff" stroke="#63b8ff" points="180.78,-70.14 170.22,-70.97 178.99,-76.91 180.78,-70.14"/>
</a>
</g>
</g>
<!-- Node14&#45;&gt;Node5 -->
<g id="edge17_Node000014_Node000005" class="edge">
<title>Node14&#45;&gt;Node5</title>
<g id="a_edge17_Node000014_Node000005"><a xlink:title=" ">
<path fill="none" stroke="#63b8ff" d="M248.31,-230.14C315.15,-230.08 463.91,-224.98 581,-185 642.2,-164.1 648.88,-140.84 706,-110.5 726.99,-99.35 751.24,-87.98 769.99,-79.51"/>
<polygon fill="#63b8ff" stroke="#63b8ff" points="771.25,-82.78 778.95,-75.5 768.39,-76.39 771.25,-82.78"/>
</a>
</g>
</g>
<!-- Node14&#45;&gt;Node13 -->
<g id="edge32_Node000014_Node000013" class="edge">
<title>Node14&#45;&gt;Node13</title>
<g id="a_edge32_Node000014_Node000013"><a xlink:title=" ">
<path fill="none" stroke="#63b8ff" d="M182.31,-220.59C165.13,-213.78 145.18,-202.54 135,-185 116.83,-153.68 130.65,-110.09 141.43,-85.25"/>
<polygon fill="#63b8ff" stroke="#63b8ff" points="144.52,-86.9 145.55,-76.36 138.17,-83.96 144.52,-86.9"/>
</a>
</g>
</g>
<!-- Node15 -->
<g id="Node000015" class="node">
<title>Node15</title>
<g id="a_Node000015"><a xlink:href="ssvalue_8h.html" target="_top" xlink:title=" ">
<polygon fill="white" stroke="#666666" points="248,-185 190,-185 190,-165.75 248,-165.75 248,-185"/>
<text text-anchor="middle" x="219" y="-171.5" font-family="Helvetica,sans-Serif" font-size="10.00">ssvalue.h</text>
</a>
</g>
</g>
<!-- Node14&#45;&gt;Node15 -->
<g id="edge18_Node000014_Node000015" class="edge">
<title>Node14&#45;&gt;Node15</title>
<g id="a_edge18_Node000014_Node000015"><a xlink:title=" ">
<path fill="none" stroke="#63b8ff" d="M213.99,-220.83C214.73,-214.24 215.78,-204.96 216.72,-196.57"/>
<polygon fill="#63b8ff" stroke="#63b8ff" points="220.18,-197.19 217.82,-186.86 213.22,-196.41 220.18,-197.19"/>
</a>
</g>
</g>
<!-- Node14&#45;&gt;Node22 -->
<g id="edge30_Node000014_Node000022" class="edge">
<title>Node14&#45;&gt;Node22</title>
<g id="a_edge30_Node000014_Node000022"><a xlink:title=" ">
<path fill="none" stroke="#63b8ff" d="M184.33,-220.59C156.65,-211.87 114.51,-198.59 83.63,-188.86"/>
<polygon fill="#63b8ff" stroke="#63b8ff" points="84.84,-185.57 74.25,-185.91 82.74,-192.25 84.84,-185.57"/>
</a>
</g>
</g>
<!-- Node23 -->
<g id="Node000023" class="node">
<title>Node23</title>
<g id="a_Node000023"><a xlink:title=" ">
<polygon fill="#e0e0e0" stroke="#999999" points="172.4,-185 143.6,-185 143.6,-165.75 172.4,-165.75 172.4,-185"/>
<text text-anchor="middle" x="158" y="-171.5" font-family="Helvetica,sans-Serif" font-size="10.00">list</text>
</a>
</g>
</g>
<!-- Node14&#45;&gt;Node23 -->
<g id="edge31_Node000014_Node000023" class="edge">
<title>Node14&#45;&gt;Node23</title>
<g id="a_edge31_Node000014_Node000023"><a xlink:title=" ">
<path fill="none" stroke="#63b8ff" d="M203.92,-220.83C196.16,-213.32 184.79,-202.31 175.3,-193.13"/>
<polygon fill="#63b8ff" stroke="#63b8ff" points="177.99,-190.85 168.37,-186.41 173.12,-195.88 177.99,-190.85"/>
</a>
</g>
</g>
<!-- Node15&#45;&gt;Node8 -->
<g id="edge28_Node000015_Node000008" class="edge">
<title>Node15&#45;&gt;Node8</title>
<g id="a_edge28_Node000015_Node000008"><a xlink:title=" ">
<path fill="none" stroke="#63b8ff" d="M217.97,-165.5C216.98,-156.51 215.56,-142.18 215,-129.75 214.62,-121.2 212.84,-118.78 215,-110.5 222.12,-83.26 226.72,-75.77 246,-55.25 257.44,-43.07 272.86,-32.69 286.22,-25.02"/>
<polygon fill="#63b8ff" stroke="#63b8ff" points="287.52,-28.3 294.61,-20.42 284.15,-22.16 287.52,-28.3"/>
</a>
</g>
</g>
<!-- Node15&#45;&gt;Node11 -->
<g id="edge19_Node000015_Node000011" class="edge">
<title>Node15&#45;&gt;Node11</title>
<g id="a_edge19_Node000015_Node000011"><a xlink:title=" ">
<path fill="none" stroke="#63b8ff" d="M241.56,-165.34C262.77,-156.85 294.77,-144.04 318.88,-134.39"/>
<polygon fill="#63b8ff" stroke="#63b8ff" points="319.94,-137.73 327.92,-130.77 317.34,-131.23 319.94,-137.73"/>
</a>
</g>
</g>
<!-- Node15&#45;&gt;Node13 -->
<g id="edge27_Node000015_Node000013" class="edge">
<title>Node15&#45;&gt;Node13</title>
<g id="a_edge27_Node000015_Node000013"><a xlink:title=" ">
<path fill="none" stroke="#63b8ff" d="M210.36,-165.31C202.38,-156.63 190.5,-142.95 182,-129.75 172.91,-115.63 164.71,-98.44 159.03,-85.45"/>
<polygon fill="#63b8ff" stroke="#63b8ff" points="162.28,-84.15 155.16,-76.31 155.84,-86.88 162.28,-84.15"/>
</a>
</g>
</g>
<!-- Node16 -->
<g id="Node000016" class="node">
<title>Node16</title>
<g id="a_Node000016"><a xlink:href="ssstring__uty_8h.html" target="_top" xlink:title=" ">
<polygon fill="white" stroke="#666666" points="526,-129.75 450,-129.75 450,-110.5 526,-110.5 526,-129.75"/>
<text text-anchor="middle" x="488" y="-116.25" font-family="Helvetica,sans-Serif" font-size="10.00">ssstring_uty.h</text>
</a>
</g>
</g>
<!-- Node15&#45;&gt;Node16 -->
<g id="edge20_Node000015_Node000016" class="edge">
<title>Node15&#45;&gt;Node16</title>
<g id="a_edge20_Node000015_Node000016"><a xlink:title=" ">
<path fill="none" stroke="#63b8ff" d="M248.3,-168.57C294.03,-159.52 382.91,-141.93 438.65,-130.89"/>
<polygon fill="#63b8ff" stroke="#63b8ff" points="439.06,-134.38 448.19,-129.01 437.7,-127.51 439.06,-134.38"/>
</a>
</g>
</g>
<!-- Node21 -->
<g id="Node000021" class="node">
<title>Node21</title>
<g id="a_Node000021"><a xlink:title=" ">
<polygon fill="#e0e0e0" stroke="#999999" points="272.12,-129.75 223.88,-129.75 223.88,-110.5 272.12,-110.5 272.12,-129.75"/>
<text text-anchor="middle" x="248" y="-116.25" font-family="Helvetica,sans-Serif" font-size="10.00">cassert</text>
</a>
</g>
</g>
<!-- Node15&#45;&gt;Node21 -->
<g id="edge29_Node000015_Node000021" class="edge">
<title>Node15&#45;&gt;Node21</title>
<g id="a_edge29_Node000015_Node000021"><a xlink:title=" ">
<path fill="none" stroke="#63b8ff" d="M223.79,-165.58C227.54,-158.69 232.91,-148.84 237.63,-140.16"/>
<polygon fill="#63b8ff" stroke="#63b8ff" points="240.67,-141.89 242.38,-131.44 234.53,-138.55 240.67,-141.89"/>
</a>
</g>
</g>
<!-- Node16&#45;&gt;Node7 -->
<g id="edge21_Node000016_Node000007" class="edge">
<title>Node16&#45;&gt;Node7</title>
<g id="a_edge21_Node000016_Node000007"><a xlink:title=" ">
<path fill="none" stroke="#63b8ff" d="M526.39,-113.2C591.85,-102.92 718.67,-82.13 725,-74.5 735.67,-61.64 728.47,-42.85 720.23,-28.98"/>
<polygon fill="#63b8ff" stroke="#63b8ff" points="723.25,-27.2 714.83,-20.77 717.4,-31.05 723.25,-27.2"/>
</a>
</g>
</g>
<!-- Node16&#45;&gt;Node8 -->
<g id="edge23_Node000016_Node000008" class="edge">
<title>Node16&#45;&gt;Node8</title>
<g id="a_edge23_Node000016_Node000008"><a xlink:title=" ">
<path fill="none" stroke="#63b8ff" d="M473.55,-110.06C443.71,-91.35 375.04,-48.28 338.64,-25.45"/>
<polygon fill="#63b8ff" stroke="#63b8ff" points="340.9,-22.74 330.57,-20.39 337.18,-28.67 340.9,-22.74"/>
</a>
</g>
</g>
<!-- Node17 -->
<g id="Node000017" class="node">
<title>Node17</title>
<g id="a_Node000017"><a xlink:title=" ">
<polygon fill="#e0e0e0" stroke="#999999" points="511.5,-74.5 462.5,-74.5 462.5,-55.25 511.5,-55.25 511.5,-74.5"/>
<text text-anchor="middle" x="487" y="-61" font-family="Helvetica,sans-Serif" font-size="10.00">fstream</text>
</a>
</g>
</g>
<!-- Node16&#45;&gt;Node17 -->
<g id="edge22_Node000016_Node000017" class="edge">
<title>Node16&#45;&gt;Node17</title>
<g id="a_edge22_Node000016_Node000017"><a xlink:title=" ">
<path fill="none" stroke="#63b8ff" d="M487.83,-110.33C487.71,-103.82 487.54,-94.67 487.38,-86.37"/>
<polygon fill="#63b8ff" stroke="#63b8ff" points="490.88,-86.3 487.2,-76.37 483.89,-86.44 490.88,-86.3"/>
</a>
</g>
</g>
<!-- Node18 -->
<g id="Node000018" class="node">
<title>Node18</title>
<g id="a_Node000018"><a xlink:title=" ">
<polygon fill="#e0e0e0" stroke="#999999" points="582.75,-74.5 529.25,-74.5 529.25,-55.25 582.75,-55.25 582.75,-74.5"/>
<text text-anchor="middle" x="556" y="-61" font-family="Helvetica,sans-Serif" font-size="10.00">iostream</text>
</a>
</g>
</g>
<!-- Node16&#45;&gt;Node18 -->
<g id="edge24_Node000016_Node000018" class="edge">
<title>Node16&#45;&gt;Node18</title>
<g id="a_edge24_Node000016_Node000018"><a xlink:title=" ">
<path fill="none" stroke="#63b8ff" d="M499.54,-110.09C509.46,-102.32 524.01,-90.92 535.86,-81.65"/>
<polygon fill="#63b8ff" stroke="#63b8ff" points="537.73,-84.63 543.44,-75.71 533.41,-79.12 537.73,-84.63"/>
</a>
</g>
</g>
<!-- Node19 -->
<g id="Node000019" class="node">
<title>Node19</title>
<g id="a_Node000019"><a xlink:title=" ">
<polygon fill="#e0e0e0" stroke="#999999" points="651.62,-74.5 600.38,-74.5 600.38,-55.25 651.62,-55.25 651.62,-74.5"/>
<text text-anchor="middle" x="626" y="-61" font-family="Helvetica,sans-Serif" font-size="10.00">sstream</text>
</a>
</g>
</g>
<!-- Node16&#45;&gt;Node19 -->
<g id="edge25_Node000016_Node000019" class="edge">
<title>Node16&#45;&gt;Node19</title>
<g id="a_edge25_Node000016_Node000019"><a xlink:title=" ">
<path fill="none" stroke="#63b8ff" d="M511.41,-110.09C533.52,-101.56 566.92,-88.67 591.97,-79.01"/>
<polygon fill="#63b8ff" stroke="#63b8ff" points="592.99,-82.36 601.06,-75.5 590.47,-75.83 592.99,-82.36"/>
</a>
</g>
</g>
<!-- Node20 -->
<g id="Node000020" class="node">
<title>Node20</title>
<g id="a_Node000020"><a xlink:title=" ">
<polygon fill="#e0e0e0" stroke="#999999" points="716,-74.5 670,-74.5 670,-55.25 716,-55.25 716,-74.5"/>
<text text-anchor="middle" x="693" y="-61" font-family="Helvetica,sans-Serif" font-size="10.00">iterator</text>
</a>
</g>
</g>
<!-- Node16&#45;&gt;Node20 -->
<g id="edge26_Node000016_Node000020" class="edge">
<title>Node16&#45;&gt;Node20</title>
<g id="a_edge26_Node000016_Node000020"><a xlink:title=" ">
<path fill="none" stroke="#63b8ff" d="M523.81,-110.01C556.49,-101.66 606.42,-88.84 658.46,-75.15"/>
<polygon fill="#63b8ff" stroke="#63b8ff" points="659.35,-78.54 668.13,-72.6 657.56,-71.77 659.35,-78.54"/>
</a>
</g>
</g>
<!-- Node24&#45;&gt;Node5 -->
<g id="edge34_Node000024_Node000005" class="edge">
<title>Node24&#45;&gt;Node5</title>
<g id="a_edge34_Node000024_Node000005"><a xlink:title=" ">
<path fill="none" stroke="#63b8ff" d="M686.39,-331.01C755.61,-314.83 889.96,-279.12 917,-240.25 957.36,-182.24 869.57,-111.8 824.96,-81.25"/>
<polygon fill="#63b8ff" stroke="#63b8ff" points="826.91,-78.34 816.66,-75.7 823.02,-84.16 826.91,-78.34"/>
</a>
</g>
</g>
<!-- Node24&#45;&gt;Node11 -->
<g id="edge35_Node000024_Node000011" class="edge">
<title>Node24&#45;&gt;Node11</title>
<g id="a_edge35_Node000024_Node000011"><a xlink:title=" ">
<path fill="none" stroke="#63b8ff" d="M602.5,-334.95C569.8,-329.37 524.66,-318.03 491,-295.5 428.88,-253.91 381.39,-175.85 361.8,-140"/>
<polygon fill="#63b8ff" stroke="#63b8ff" points="364.94,-138.46 357.15,-131.28 358.77,-141.75 364.94,-138.46"/>
</a>
</g>
</g>
<!-- Node24&#45;&gt;Node16 -->
<g id="edge36_Node000024_Node000016" class="edge">
<title>Node24&#45;&gt;Node16</title>
<g id="a_edge36_Node000024_Node000016"><a xlink:title=" ">
<path fill="none" stroke="#63b8ff" d="M602.4,-332.54C575.96,-326.15 542.48,-314.84 518,-295.5 472.2,-259.31 463.44,-241.01 447,-185 444.59,-176.79 443.89,-173.72 447,-165.75 451.16,-155.07 459.21,-145.39 467.08,-137.8"/>
<polygon fill="#63b8ff" stroke="#63b8ff" points="469.39,-140.44 474.55,-131.18 464.74,-135.2 469.39,-140.44"/>
</a>
</g>
</g>
<!-- Node24&#45;&gt;Node25 -->
<g id="edge37_Node000024_Node000025" class="edge">
<title>Node24&#45;&gt;Node25</title>
<g id="a_edge37_Node000024_Node000025"><a xlink:title=" ">
<path fill="none" stroke="#63b8ff" d="M602.41,-332.66C548.37,-323.2 455.09,-306.86 395.8,-296.47"/>
<polygon fill="#63b8ff" stroke="#63b8ff" points="396.72,-293.08 386.27,-294.8 395.52,-299.98 396.72,-293.08"/>
</a>
</g>
</g>
<!-- Node24&#45;&gt;Node26 -->
<g id="edge41_Node000024_Node000026" class="edge">
<title>Node24&#45;&gt;Node26</title>
<g id="a_edge41_Node000024_Node000026"><a xlink:title=" ">
<path fill="none" stroke="#63b8ff" d="M687.36,-338.13C740.51,-334.46 833.68,-324.18 908,-295.5 938.11,-283.88 968.83,-262.56 988.12,-247.76"/>
<polygon fill="#63b8ff" stroke="#63b8ff" points="990.22,-250.57 995.92,-241.64 985.89,-245.06 990.22,-250.57"/>
</a>
</g>
</g>
<!-- Node24&#45;&gt;Node27 -->
<g id="edge44_Node000024_Node000027" class="edge">
<title>Node24&#45;&gt;Node27</title>
<g id="a_edge44_Node000024_Node000027"><a xlink:title=" ">
<path fill="none" stroke="#63b8ff" d="M632.45,-331.09C621.54,-323.24 605.5,-311.7 592.54,-302.37"/>
<polygon fill="#63b8ff" stroke="#63b8ff" points="594.76,-299.66 584.6,-296.66 590.67,-305.34 594.76,-299.66"/>
</a>
</g>
</g>
<!-- Node30 -->
<g id="Node000030" class="node">
<title>Node30</title>
<g id="a_Node000030"><a xlink:title=" ">
<polygon fill="#e0e0e0" stroke="#999999" points="717.62,-185 666.38,-185 666.38,-165.75 717.62,-165.75 717.62,-185"/>
<text text-anchor="middle" x="692" y="-171.5" font-family="Helvetica,sans-Serif" font-size="10.00">memory</text>
</a>
</g>
</g>
<!-- Node24&#45;&gt;Node30 -->
<g id="edge58_Node000024_Node000030" class="edge">
<title>Node24&#45;&gt;Node30</title>
<g id="a_edge58_Node000024_Node000030"><a xlink:title=" ">
<path fill="none" stroke="#63b8ff" d="M647.53,-331.32C654.83,-305.89 676.08,-231.85 686.33,-196.12"/>
<polygon fill="#63b8ff" stroke="#63b8ff" points="689.65,-197.25 689.04,-186.68 682.92,-195.32 689.65,-197.25"/>
</a>
</g>
</g>
<!-- Node24&#45;&gt;Node31 -->
<g id="edge55_Node000024_Node000031" class="edge">
<title>Node24&#45;&gt;Node31</title>
<g id="a_edge55_Node000024_Node000031"><a xlink:title=" ">
<path fill="none" stroke="#63b8ff" d="M663.3,-331.06C701.46,-312.15 789.8,-268.39 835.48,-245.75"/>
<polygon fill="#63b8ff" stroke="#63b8ff" points="836.84,-248.99 844.25,-241.41 833.73,-242.71 836.84,-248.99"/>
</a>
</g>
</g>
<!-- Node32 -->
<g id="Node000032" class="node">
<title>Node32</title>
<g id="a_Node000032"><a xlink:title=" ">
<polygon fill="#e0e0e0" stroke="#999999" points="714.62,-295.5 675.38,-295.5 675.38,-276.25 714.62,-276.25 714.62,-295.5"/>
<text text-anchor="middle" x="695" y="-282" font-family="Helvetica,sans-Serif" font-size="10.00">utility</text>
</a>
</g>
</g>
<!-- Node24&#45;&gt;Node32 -->
<g id="edge59_Node000024_Node000032" class="edge">
<title>Node24&#45;&gt;Node32</title>
<g id="a_edge59_Node000024_Node000032"><a xlink:title=" ">
<path fill="none" stroke="#63b8ff" d="M653.26,-331.33C660.16,-323.98 670.22,-313.26 678.74,-304.19"/>
<polygon fill="#63b8ff" stroke="#63b8ff" points="681.23,-306.65 685.53,-296.96 676.13,-301.86 681.23,-306.65"/>
</a>
</g>
</g>
<!-- Node25&#45;&gt;Node5 -->
<g id="edge38_Node000025_Node000005" class="edge">
<title>Node25&#45;&gt;Node5</title>
<g id="a_edge38_Node000025_Node000005"><a xlink:title=" ">
<path fill="none" stroke="#63b8ff" d="M384.94,-282.87C442.27,-279.17 545.04,-268.82 628,-240.25 675.64,-223.84 690.55,-219.79 727,-185 757.87,-155.54 781.15,-110.59 792.77,-85.16"/>
<polygon fill="#63b8ff" stroke="#63b8ff" points="795.95,-86.64 796.78,-76.08 789.54,-83.81 795.95,-86.64"/>
</a>
</g>
</g>
<!-- Node25&#45;&gt;Node11 -->
<g id="edge39_Node000025_Node000011" class="edge">
<title>Node25&#45;&gt;Node11</title>
<g id="a_edge39_Node000025_Node000011"><a xlink:title=" ">
<path fill="none" stroke="#63b8ff" d="M339.69,-275.84C337.04,-255.85 331.77,-206.44 338,-165.75 339.27,-157.43 341.81,-148.53 344.38,-140.88"/>
<polygon fill="#63b8ff" stroke="#63b8ff" points="347.64,-142.18 347.75,-131.58 341.05,-139.79 347.64,-142.18"/>
</a>
</g>
</g>
<!-- Node25&#45;&gt;Node14 -->
<g id="edge40_Node000025_Node000014" class="edge">
<title>Node25&#45;&gt;Node14</title>
<g id="a_edge40_Node000025_Node000014"><a xlink:title=" ">
<path fill="none" stroke="#63b8ff" d="M319.29,-275.84C298.97,-267.39 268.35,-254.65 245.19,-245.02"/>
<polygon fill="#63b8ff" stroke="#63b8ff" points="246.79,-241.89 236.22,-241.28 244.11,-248.36 246.79,-241.89"/>
</a>
</g>
</g>
<!-- Node26&#45;&gt;Node5 -->
<g id="edge42_Node000026_Node000005" class="edge">
<title>Node26&#45;&gt;Node5</title>
<g id="a_edge42_Node000026_Node000005"><a xlink:title=" ">
<path fill="none" stroke="#63b8ff" d="M1006.22,-220.64C1001.36,-198.49 985.76,-140.89 950,-110.5 919.58,-84.65 874.6,-73.77 842.02,-69.2"/>
<polygon fill="#63b8ff" stroke="#63b8ff" points="842.49,-65.73 832.14,-67.97 841.63,-72.68 842.49,-65.73"/>
</a>
</g>
</g>
<!-- Node26&#45;&gt;Node11 -->
<g id="edge43_Node000026_Node000011" class="edge">
<title>Node26&#45;&gt;Node11</title>
<g id="a_edge43_Node000026_Node000011"><a xlink:title=" ">
<path fill="none" stroke="#63b8ff" d="M979.26,-220.53C934.26,-206.63 844.19,-180.2 766,-165.75 730.48,-159.19 498.14,-135.68 397.91,-125.68"/>
<polygon fill="#63b8ff" stroke="#63b8ff" points="398.45,-122.21 388.15,-124.71 397.75,-129.18 398.45,-122.21"/>
</a>
</g>
</g>
<!-- Node27&#45;&gt;Node5 -->
<g id="edge45_Node000027_Node000005" class="edge">
<title>Node27&#45;&gt;Node5</title>
<g id="a_edge45_Node000027_Node000005"><a xlink:title=" ">
<path fill="none" stroke="#63b8ff" d="M614.71,-279.24C665.16,-272.02 744.24,-258.24 768,-240.25 815.45,-204.32 810.08,-123.33 804.59,-85.74"/>
<polygon fill="#63b8ff" stroke="#63b8ff" points="808.11,-85.58 803.04,-76.28 801.2,-86.71 808.11,-85.58"/>
</a>
</g>
</g>
<!-- Node27&#45;&gt;Node11 -->
<g id="edge46_Node000027_Node000011" class="edge">
<title>Node27&#45;&gt;Node11</title>
<g id="a_edge46_Node000027_Node000011"><a xlink:title=" ">
<path fill="none" stroke="#63b8ff" d="M558.81,-276.04C546.47,-267.07 526.85,-252.77 510,-240.25 460.69,-203.63 403.19,-160.06 372.99,-137.1"/>
<polygon fill="#63b8ff" stroke="#63b8ff" points="375.13,-134.33 365.05,-131.07 370.89,-139.91 375.13,-134.33"/>
</a>
</g>
</g>
<!-- Node28 -->
<g id="Node000028" class="node">
<title>Node28</title>
<g id="a_Node000028"><a xlink:href="_ss_effect_behavior_8h.html" target="_top" xlink:title=" ">
<polygon fill="white" stroke="#666666" points="619,-240.25 519,-240.25 519,-221 619,-221 619,-240.25"/>
<text text-anchor="middle" x="569" y="-226.75" font-family="Helvetica,sans-Serif" font-size="10.00">SsEffectBehavior.h</text>
</a>
</g>
</g>
<!-- Node27&#45;&gt;Node28 -->
<g id="edge47_Node000027_Node000028" class="edge">
<title>Node27&#45;&gt;Node28</title>
<g id="a_edge47_Node000027_Node000028"><a xlink:title=" ">
<path fill="none" stroke="#63b8ff" d="M570.67,-276.08C570.42,-269.49 570.07,-260.21 569.76,-251.82"/>
<polygon fill="#63b8ff" stroke="#63b8ff" points="573.27,-251.98 569.39,-242.12 566.27,-252.25 573.27,-251.98"/>
</a>
</g>
</g>
<!-- Node28&#45;&gt;Node5 -->
<g id="edge52_Node000028_Node000005" class="edge">
<title>Node28&#45;&gt;Node5</title>
<g id="a_edge52_Node000028_Node000005"><a xlink:title=" ">
<path fill="none" stroke="#63b8ff" d="M581.18,-220.66C598.11,-208.22 629.75,-185.09 657,-165.75 699.65,-135.49 749.95,-100.84 778.39,-81.33"/>
<polygon fill="#63b8ff" stroke="#63b8ff" points="780.31,-84.26 786.58,-75.73 776.35,-78.49 780.31,-84.26"/>
</a>
</g>
</g>
<!-- Node28&#45;&gt;Node15 -->
<g id="edge53_Node000028_Node000015" class="edge">
<title>Node28&#45;&gt;Node15</title>
<g id="a_edge53_Node000028_Node000015"><a xlink:title=" ">
<path fill="none" stroke="#63b8ff" d="M518.85,-222C449.1,-211.38 324.12,-192.37 259.77,-182.58"/>
<polygon fill="#63b8ff" stroke="#63b8ff" points="260.39,-179.13 249.98,-181.09 259.34,-186.05 260.39,-179.13"/>
</a>
</g>
</g>
<!-- Node29 -->
<g id="Node000029" class="node">
<title>Node29</title>
<g id="a_Node000029"><a xlink:href="_ss_effect_element_8h.html" target="_top" xlink:title=" ">
<polygon fill="white" stroke="#666666" points="554.25,-185 455.75,-185 455.75,-165.75 554.25,-165.75 554.25,-185"/>
<text text-anchor="middle" x="505" y="-171.5" font-family="Helvetica,sans-Serif" font-size="10.00">SsEffectElement.h</text>
</a>
</g>
</g>
<!-- Node28&#45;&gt;Node29 -->
<g id="edge48_Node000028_Node000029" class="edge">
<title>Node28&#45;&gt;Node29</title>
<g id="a_edge48_Node000028_Node000029"><a xlink:title=" ">
<path fill="none" stroke="#63b8ff" d="M558.14,-220.59C548.89,-212.9 535.38,-201.65 524.29,-192.43"/>
<polygon fill="#63b8ff" stroke="#63b8ff" points="526.79,-189.95 516.86,-186.24 522.31,-195.33 526.79,-189.95"/>
</a>
</g>
</g>
<!-- Node28&#45;&gt;Node30 -->
<g id="edge54_Node000028_Node000030" class="edge">
<title>Node28&#45;&gt;Node30</title>
<g id="a_edge54_Node000028_Node000030"><a xlink:title=" ">
<path fill="none" stroke="#63b8ff" d="M589.87,-220.59C609.3,-212.18 638.54,-199.52 660.76,-189.9"/>
<polygon fill="#63b8ff" stroke="#63b8ff" points="661.86,-193.24 669.64,-186.05 659.08,-186.81 661.86,-193.24"/>
</a>
</g>
</g>
<!-- Node29&#45;&gt;Node5 -->
<g id="edge49_Node000029_Node000005" class="edge">
<title>Node29&#45;&gt;Node5</title>
<g id="a_edge49_Node000029_Node000005"><a xlink:title=" ">
<path fill="none" stroke="#63b8ff" d="M513.53,-165.36C527.36,-151.33 556.13,-124.42 586,-110.5 616.42,-96.32 706.71,-80.53 760.12,-72.06"/>
<polygon fill="#63b8ff" stroke="#63b8ff" points="760.41,-75.56 769.74,-70.55 759.32,-68.64 760.41,-75.56"/>
</a>
</g>
</g>
<!-- Node29&#45;&gt;Node11 -->
<g id="edge50_Node000029_Node000011" class="edge">
<title>Node29&#45;&gt;Node11</title>
<g id="a_edge50_Node000029_Node000011"><a xlink:title=" ">
<path fill="none" stroke="#63b8ff" d="M479.05,-165.34C454.21,-156.7 416.5,-143.57 388.62,-133.87"/>
<polygon fill="#63b8ff" stroke="#63b8ff" points="390.11,-130.68 379.51,-130.7 387.81,-137.29 390.11,-130.68"/>
</a>
</g>
</g>
<!-- Node29&#45;&gt;Node29 -->
<g id="edge51_Node000029_Node000029" class="edge">
<title>Node29&#45;&gt;Node29</title>
<g id="a_edge51_Node000029_Node000029"><a xlink:title=" ">
<path fill="none" stroke="#63b8ff" d="M540.29,-185.48C557.27,-186.73 572.25,-183.36 572.25,-175.38 572.25,-169.26 563.47,-165.85 551.73,-165.15"/>
<polygon fill="#63b8ff" stroke="#63b8ff" points="551.77,-161.65 541.8,-165.25 551.84,-168.65 551.77,-161.65"/>
</a>
</g>
</g>
<!-- Node31&#45;&gt;Node5 -->
<g id="edge56_Node000031_Node000005" class="edge">
<title>Node31&#45;&gt;Node5</title>
<g id="a_edge56_Node000031_Node000005"><a xlink:title=" ">
<path fill="none" stroke="#63b8ff" d="M863.21,-220.52C861.14,-199.96 854.4,-148.8 836,-110.5 831.33,-100.78 824.25,-91.22 817.68,-83.45"/>
<polygon fill="#63b8ff" stroke="#63b8ff" points="820.39,-81.23 811.12,-76.1 815.17,-85.89 820.39,-81.23"/>
</a>
</g>
</g>
<!-- Node31&#45;&gt;Node11 -->
<g id="edge57_Node000031_Node000011" class="edge">
<title>Node31&#45;&gt;Node11</title>
<g id="a_edge57_Node000031_Node000011"><a xlink:title=" ">
<path fill="none" stroke="#63b8ff" d="M849.01,-220.68C824.45,-206.48 773.69,-179.04 727,-165.75 695.97,-156.92 490.97,-135.29 397.86,-125.76"/>
<polygon fill="#63b8ff" stroke="#63b8ff" points="398.36,-122.29 388.06,-124.76 397.65,-129.26 398.36,-122.29"/>
</a>
</g>
</g>
</g>
</svg>
