<?xml version="1.0" encoding="UTF-8" standalone="no"?>
<!DOCTYPE svg PUBLIC "-//W3C//DTD SVG 1.1//EN"
 "http://www.w3.org/Graphics/SVG/1.1/DTD/svg11.dtd">
<!-- Generated by graphviz version 10.0.1 (20240210.2158)
 -->
<!-- Title: Common/Helper/XPFileOpenDlg.cpp Pages: 1 -->
<svg width="296pt" height="94pt"
 viewBox="0.00 0.00 296.12 93.75" xmlns="http://www.w3.org/2000/svg" xmlns:xlink="http://www.w3.org/1999/xlink">
<g id="graph0" class="graph" transform="scale(1 1) rotate(0) translate(4 89.75)">
<title>Common/Helper/XPFileOpenDlg.cpp</title>
<!-- Node1 -->
<g id="Node000001" class="node">
<title>Node1</title>
<g id="a_Node000001"><a xlink:title=" ">
<polygon fill="#999999" stroke="#666666" points="255.5,-85.75 112.75,-85.75 112.75,-55.25 255.5,-55.25 255.5,-85.75"/>
<text text-anchor="start" x="120.75" y="-72.25" font-family="Helvetica,sans-Serif" font-size="10.00">Common/Helper/XPFileOpen</text>
<text text-anchor="middle" x="184.12" y="-61" font-family="Helvetica,sans-Serif" font-size="10.00">Dlg.cpp</text>
</a>
</g>
</g>
<!-- Node2 -->
<g id="Node000002" class="node">
<title>Node2</title>
<g id="a_Node000002"><a xlink:href="_o_s_x_file_open_8h.html" target="_top" xlink:title=" ">
<polygon fill="white" stroke="#666666" points="120.25,-19.25 0,-19.25 0,0 120.25,0 120.25,-19.25"/>
<text text-anchor="middle" x="60.12" y="-5.75" font-family="Helvetica,sans-Serif" font-size="10.00">MacOS/OSXFileOpen.h</text>
</a>
</g>
</g>
<!-- Node1&#45;&gt;Node2 -->
<g id="edge1_Node000001_Node000002" class="edge">
<title>Node1&#45;&gt;Node2</title>
<g id="a_edge1_Node000001_Node000002"><a xlink:title=" ">
<path fill="none" stroke="#63b8ff" d="M153.15,-54.8C133.63,-45.53 108.59,-33.63 89.4,-24.52"/>
<polygon fill="#63b8ff" stroke="#63b8ff" points="91.04,-21.43 80.51,-20.3 88.04,-27.75 91.04,-21.43"/>
</a>
</g>
</g>
<!-- Node3 -->
<g id="Node000003" class="node">
<title>Node3</title>
<g id="a_Node000003"><a xlink:href="_x_p_file_open_dlg_8h.html" target="_top" xlink:title=" ">
<polygon fill="white" stroke="#666666" points="230,-19.25 138.25,-19.25 138.25,0 230,0 230,-19.25"/>
<text text-anchor="middle" x="184.12" y="-5.75" font-family="Helvetica,sans-Serif" font-size="10.00">XPFileOpenDlg.h</text>
</a>
</g>
</g>
<!-- Node1&#45;&gt;Node3 -->
<g id="edge2_Node000001_Node000003" class="edge">
<title>Node1&#45;&gt;Node3</title>
<g id="a_edge2_Node000001_Node000003"><a xlink:title=" ">
<path fill="none" stroke="#63b8ff" d="M184.12,-54.95C184.12,-47.71 184.12,-38.84 184.12,-30.94"/>
<polygon fill="#63b8ff" stroke="#63b8ff" points="187.63,-31.21 184.13,-21.21 180.63,-31.21 187.63,-31.21"/>
</a>
</g>
</g>
<!-- Node4 -->
<g id="Node000004" class="node">
<title>Node4</title>
<g id="a_Node000004"><a xlink:title=" ">
<polygon fill="#e0e0e0" stroke="#999999" points="288.12,-19.25 248.12,-19.25 248.12,0 288.12,0 288.12,-19.25"/>
<text text-anchor="middle" x="268.12" y="-5.75" font-family="Helvetica,sans-Serif" font-size="10.00">string</text>
</a>
</g>
</g>
<!-- Node1&#45;&gt;Node4 -->
<g id="edge3_Node000001_Node000004" class="edge">
<title>Node1&#45;&gt;Node4</title>
<g id="a_edge3_Node000001_Node000004"><a xlink:title=" ">
<path fill="none" stroke="#63b8ff" d="M204.89,-54.95C217.31,-46.24 233.09,-35.18 245.78,-26.28"/>
<polygon fill="#63b8ff" stroke="#63b8ff" points="247.76,-29.18 253.94,-20.57 243.74,-23.44 247.76,-29.18"/>
</a>
</g>
</g>
</g>
</svg>
