<?xml version="1.0" encoding="UTF-8" standalone="no"?>
<!DOCTYPE svg PUBLIC "-//W3C//DTD SVG 1.1//EN"
 "http://www.w3.org/Graphics/SVG/1.1/DTD/svg11.dtd">
<!-- Generated by graphviz version 9.0.0 (20230911.1827)
 -->
<!-- Title: spritestudio6::SSOpenGLShader Pages: 1 -->
<svg width="350pt" height="94pt"
 viewBox="0.00 0.00 349.50 93.75" xmlns="http://www.w3.org/2000/svg" xmlns:xlink="http://www.w3.org/1999/xlink">
<g id="graph0" class="graph" transform="scale(1 1) rotate(0) translate(4 89.75)">
<title>spritestudio6::SSOpenGLShader</title>
<!-- Node1 -->
<g id="Node000001" class="node">
<title>Node1</title>
<g id="a_Node000001"><a xlink:title=" ">
<polygon fill="#999999" stroke="#666666" points="253,-85.75 95.25,-85.75 95.25,-66.5 253,-66.5 253,-85.75"/>
<text text-anchor="middle" x="174.12" y="-72.25" font-family="Helvetica,sans-Serif" font-size="10.00">spritestudio6::SSOpenGLShader</text>
</a>
</g>
</g>
<!-- Node2 -->
<g id="Node000002" class="node">
<title>Node2</title>
<g id="a_Node000002"><a xlink:href="classspritestudio6_1_1_s_s_open_g_l_fragment_shader.html" target="_top" xlink:title=" ">
<polygon fill="white" stroke="#666666" points="168.25,-30.5 0,-30.5 0,0 168.25,0 168.25,-30.5"/>
<text text-anchor="start" x="8" y="-17" font-family="Helvetica,sans-Serif" font-size="10.00">spritestudio6::SSOpenGLFragment</text>
<text text-anchor="middle" x="84.12" y="-5.75" font-family="Helvetica,sans-Serif" font-size="10.00">Shader</text>
</a>
</g>
</g>
<!-- Node1&#45;&gt;Node2 -->
<g id="edge1_Node000001_Node000002" class="edge">
<title>Node1&#45;&gt;Node2</title>
<g id="a_edge1_Node000001_Node000002"><a xlink:title=" ">
<path fill="none" stroke="#63b8ff" d="M151.18,-60.12C137.41,-51.11 119.98,-39.7 106.34,-30.78"/>
<polygon fill="#63b8ff" stroke="#63b8ff" points="148.9,-62.81 159.19,-65.35 152.74,-56.95 148.9,-62.81"/>
</a>
</g>
</g>
<!-- Node3 -->
<g id="Node000003" class="node">
<title>Node3</title>
<g id="a_Node000003"><a xlink:href="classspritestudio6_1_1_s_s_open_g_l_vertex_shader.html" target="_top" xlink:title=" ">
<polygon fill="white" stroke="#666666" points="341.5,-30.5 186.75,-30.5 186.75,0 341.5,0 341.5,-30.5"/>
<text text-anchor="start" x="194.75" y="-17" font-family="Helvetica,sans-Serif" font-size="10.00">spritestudio6::SSOpenGLVertex</text>
<text text-anchor="middle" x="264.12" y="-5.75" font-family="Helvetica,sans-Serif" font-size="10.00">Shader</text>
</a>
</g>
</g>
<!-- Node1&#45;&gt;Node3 -->
<g id="edge2_Node000001_Node000003" class="edge">
<title>Node1&#45;&gt;Node3</title>
<g id="a_edge2_Node000001_Node000003"><a xlink:title=" ">
<path fill="none" stroke="#63b8ff" d="M197.07,-60.12C210.84,-51.11 228.27,-39.7 241.91,-30.78"/>
<polygon fill="#63b8ff" stroke="#63b8ff" points="195.51,-56.95 189.06,-65.35 199.35,-62.81 195.51,-56.95"/>
</a>
</g>
</g>
</g>
</svg>
