<?xml version="1.0" encoding="UTF-8" standalone="no"?>
<!DOCTYPE svg PUBLIC "-//W3C//DTD SVG 1.1//EN"
 "http://www.w3.org/Graphics/SVG/1.1/DTD/svg11.dtd">
<!-- Generated by graphviz version 9.0.0 (20230911.1827)
 -->
<!-- Title: spritestudio6::ISSTexture Pages: 1 -->
<svg width="468pt" height="83pt"
 viewBox="0.00 0.00 467.50 82.50" xmlns="http://www.w3.org/2000/svg" xmlns:xlink="http://www.w3.org/1999/xlink">
<g id="graph0" class="graph" transform="scale(1 1) rotate(0) translate(4 78.5)">
<title>spritestudio6::ISSTexture</title>
<!-- Node1 -->
<g id="Node000001" class="node">
<title>Node1</title>
<g id="a_Node000001"><a xlink:title=" ">
<polygon fill="#999999" stroke="#666666" points="297.62,-74.5 171.38,-74.5 171.38,-55.25 297.62,-55.25 297.62,-74.5"/>
<text text-anchor="middle" x="234.5" y="-61" font-family="Helvetica,sans-Serif" font-size="10.00">spritestudio6::ISSTexture</text>
</a>
</g>
</g>
<!-- Node2 -->
<g id="Node000002" class="node">
<title>Node2</title>
<g id="a_Node000002"><a xlink:href="classspritestudio6_1_1_s_s_texture_b_m_p.html" target="_top" xlink:title=" ">
<polygon fill="white" stroke="#666666" points="145,-19.25 0,-19.25 0,0 145,0 145,-19.25"/>
<text text-anchor="middle" x="72.5" y="-5.75" font-family="Helvetica,sans-Serif" font-size="10.00">spritestudio6::SSTextureBMP</text>
</a>
</g>
</g>
<!-- Node1&#45;&gt;Node2 -->
<g id="edge1_Node000001_Node000002" class="edge">
<title>Node1&#45;&gt;Node2</title>
<g id="a_edge1_Node000001_Node000002"><a xlink:title=" ">
<path fill="none" stroke="#63b8ff" d="M196.27,-51.31C166.74,-41.6 126.58,-28.4 100.12,-19.7"/>
<polygon fill="#63b8ff" stroke="#63b8ff" points="194.99,-54.57 205.58,-54.37 197.17,-47.92 194.99,-54.57"/>
</a>
</g>
</g>
<!-- Node3 -->
<g id="Node000003" class="node">
<title>Node3</title>
<g id="a_Node000003"><a xlink:href="classspritestudio6_1_1_s_s_texture_d_x9.html" target="_top" xlink:title=" ">
<polygon fill="white" stroke="#666666" points="305.88,-19.25 163.12,-19.25 163.12,0 305.88,0 305.88,-19.25"/>
<text text-anchor="middle" x="234.5" y="-5.75" font-family="Helvetica,sans-Serif" font-size="10.00">spritestudio6::SSTextureDX9</text>
</a>
</g>
</g>
<!-- Node1&#45;&gt;Node3 -->
<g id="edge2_Node000001_Node000003" class="edge">
<title>Node1&#45;&gt;Node3</title>
<g id="a_edge2_Node000001_Node000003"><a xlink:title=" ">
<path fill="none" stroke="#63b8ff" d="M234.5,-43.63C234.5,-35.34 234.5,-26.17 234.5,-19.61"/>
<polygon fill="#63b8ff" stroke="#63b8ff" points="231,-43.57 234.5,-53.57 238,-43.57 231,-43.57"/>
</a>
</g>
</g>
<!-- Node4 -->
<g id="Node000004" class="node">
<title>Node4</title>
<g id="a_Node000004"><a xlink:href="classspritestudio6_1_1_s_s_texture_g_l.html" target="_top" xlink:title=" ">
<polygon fill="white" stroke="#666666" points="459.5,-19.25 323.5,-19.25 323.5,0 459.5,0 459.5,-19.25"/>
<text text-anchor="middle" x="391.5" y="-5.75" font-family="Helvetica,sans-Serif" font-size="10.00">spritestudio6::SSTextureGL</text>
</a>
</g>
</g>
<!-- Node1&#45;&gt;Node4 -->
<g id="edge3_Node000001_Node000004" class="edge">
<title>Node1&#45;&gt;Node4</title>
<g id="a_edge3_Node000001_Node000004"><a xlink:title=" ">
<path fill="none" stroke="#63b8ff" d="M271.93,-51.18C300.51,-41.49 339.2,-28.36 364.74,-19.7"/>
<polygon fill="#63b8ff" stroke="#63b8ff" points="270.91,-47.83 262.57,-54.36 273.16,-54.46 270.91,-47.83"/>
</a>
</g>
</g>
</g>
</svg>
