<?xml version="1.0" encoding="UTF-8" standalone="no"?>
<!DOCTYPE svg PUBLIC "-//W3C//DTD SVG 1.1//EN"
 "http://www.w3.org/Graphics/SVG/1.1/DTD/svg11.dtd">
<!-- Generated by graphviz version 10.0.1 (20240210.2158)
 -->
<!-- Title: spritestudio6::ISsRenderer Pages: 1 -->
<svg width="300pt" height="83pt"
 viewBox="0.00 0.00 300.12 82.50" xmlns="http://www.w3.org/2000/svg" xmlns:xlink="http://www.w3.org/1999/xlink">
<g id="graph0" class="graph" transform="scale(1 1) rotate(0) translate(4 78.5)">
<title>spritestudio6::ISsRenderer</title>
<!-- Node1 -->
<g id="Node000001" class="node">
<title>Node1</title>
<g id="a_Node000001"><a xlink:title=" ">
<polygon fill="#999999" stroke="#666666" points="213.38,-74.5 81.12,-74.5 81.12,-55.25 213.38,-55.25 213.38,-74.5"/>
<text text-anchor="middle" x="147.25" y="-61" font-family="Helvetica,sans-Serif" font-size="10.00">spritestudio6::ISsRenderer</text>
</a>
</g>
</g>
<!-- Node2 -->
<g id="Node000002" class="node">
<title>Node2</title>
<g id="a_Node000002"><a xlink:href="classspritestudio6_1_1_ss_render_d_x9.html" target="_top" xlink:title=" ">
<polygon fill="white" stroke="#666666" points="140.5,-19.25 0,-19.25 0,0 140.5,0 140.5,-19.25"/>
<text text-anchor="middle" x="70.25" y="-5.75" font-family="Helvetica,sans-Serif" font-size="10.00">spritestudio6::SsRenderDX9</text>
</a>
</g>
</g>
<!-- Node1&#45;&gt;Node2 -->
<g id="edge1_Node000001_Node000002" class="edge">
<title>Node1&#45;&gt;Node2</title>
<g id="a_edge1_Node000001_Node000002"><a xlink:title=" ">
<path fill="none" stroke="#63b8ff" d="M125.06,-48.53C111.57,-39.2 94.79,-27.6 83.38,-19.7"/>
<polygon fill="#63b8ff" stroke="#63b8ff" points="122.73,-51.17 132.94,-53.98 126.71,-45.41 122.73,-51.17"/>
</a>
</g>
</g>
<!-- Node3 -->
<g id="Node000003" class="node">
<title>Node3</title>
<g id="a_Node000003"><a xlink:href="classspritestudio6_1_1_ss_render_g_l.html" target="_top" xlink:title=" ">
<polygon fill="white" stroke="#666666" points="292.12,-19.25 158.38,-19.25 158.38,0 292.12,0 292.12,-19.25"/>
<text text-anchor="middle" x="225.25" y="-5.75" font-family="Helvetica,sans-Serif" font-size="10.00">spritestudio6::SsRenderGL</text>
</a>
</g>
</g>
<!-- Node1&#45;&gt;Node3 -->
<g id="edge2_Node000001_Node000003" class="edge">
<title>Node1&#45;&gt;Node3</title>
<g id="a_edge2_Node000001_Node000003"><a xlink:title=" ">
<path fill="none" stroke="#63b8ff" d="M169.72,-48.53C183.4,-39.2 200.39,-27.6 211.95,-19.7"/>
<polygon fill="#63b8ff" stroke="#63b8ff" points="168.02,-45.46 161.73,-53.99 171.96,-51.24 168.02,-45.46"/>
</a>
</g>
</g>
</g>
</svg>
