<?xml version="1.0" encoding="UTF-8" standalone="no"?>
<!DOCTYPE svg PUBLIC "-//W3C//DTD SVG 1.1//EN"
 "http://www.w3.org/Graphics/SVG/1.1/DTD/svg11.dtd">
<!-- Generated by graphviz version 12.2.1 (20241206.2353)
 -->
<!-- Title: spritestudio6::tkScene Pages: 1 -->
<svg width="125pt" height="193pt"
 viewBox="0.00 0.00 125.25 193.00" xmlns="http://www.w3.org/2000/svg" xmlns:xlink="http://www.w3.org/1999/xlink">
<g id="graph0" class="graph" transform="scale(1 1) rotate(0) translate(4 189)">
<title>spritestudio6::tkScene</title>
<!-- Node1 -->
<g id="Node000001" class="node">
<title>Node1</title>
<g id="a_Node000001"><a xlink:title=" ">
<polygon fill="#999999" stroke="#666666" points="115.38,-19.25 1.88,-19.25 1.88,0 115.38,0 115.38,-19.25"/>
<text text-anchor="middle" x="58.62" y="-5.75" font-family="Helvetica,sans-Serif" font-size="10.00">spritestudio6::tkScene</text>
</a>
</g>
</g>
<!-- Node2 -->
<g id="Node000002" class="node">
<title>Node2</title>
<g id="a_Node000002"><a xlink:href="classspritestudio6_1_1tk_object.html" target="_top" xlink:title=" ">
<polygon fill="white" stroke="#666666" points="115.75,-74.5 1.5,-74.5 1.5,-55.25 115.75,-55.25 115.75,-74.5"/>
<text text-anchor="middle" x="58.62" y="-61" font-family="Helvetica,sans-Serif" font-size="10.00">spritestudio6::tkObject</text>
</a>
</g>
</g>
<!-- Node2&#45;&gt;Node1 -->
<g id="edge1_Node000001_Node000002" class="edge">
<title>Node2&#45;&gt;Node1</title>
<g id="a_edge1_Node000001_Node000002"><a xlink:title=" ">
<path fill="none" stroke="#63b8ff" d="M58.62,-43.63C58.62,-35.34 58.62,-26.17 58.62,-19.61"/>
<polygon fill="#63b8ff" stroke="#63b8ff" points="55.13,-43.57 58.63,-53.57 62.13,-43.57 55.13,-43.57"/>
</a>
</g>
</g>
<!-- Node3 -->
<g id="Node000003" class="node">
<title>Node3</title>
<g id="a_Node000003"><a xlink:href="classspritestudio6_1_1treeitem.html" target="_top" xlink:title=" ">
<polygon fill="white" stroke="#666666" points="89.12,-129.75 28.13,-129.75 28.13,-110.5 89.12,-110.5 89.12,-129.75"/>
<text text-anchor="middle" x="58.62" y="-116.25" font-family="Helvetica,sans-Serif" font-size="10.00">task_base</text>
</a>
</g>
</g>
<!-- Node3&#45;&gt;Node2 -->
<g id="edge2_Node000002_Node000003" class="edge">
<title>Node3&#45;&gt;Node2</title>
<g id="a_edge2_Node000002_Node000003"><a xlink:title=" ">
<path fill="none" stroke="#63b8ff" d="M58.62,-98.88C58.62,-90.59 58.62,-81.42 58.62,-74.86"/>
<polygon fill="#63b8ff" stroke="#63b8ff" points="55.13,-98.82 58.63,-108.82 62.13,-98.82 55.13,-98.82"/>
</a>
</g>
</g>
<!-- Node4 -->
<g id="Node000004" class="node">
<title>Node4</title>
<g id="a_Node000004"><a xlink:href="classspritestudio6_1_1task__imp.html" target="_top" xlink:title=" ">
<polygon fill="white" stroke="#666666" points="117.25,-185 0,-185 0,-165.75 117.25,-165.75 117.25,-185"/>
<text text-anchor="middle" x="58.62" y="-171.5" font-family="Helvetica,sans-Serif" font-size="10.00">spritestudio6::task_imp</text>
</a>
</g>
</g>
<!-- Node4&#45;&gt;Node3 -->
<g id="edge3_Node000003_Node000004" class="edge">
<title>Node4&#45;&gt;Node3</title>
<g id="a_edge3_Node000003_Node000004"><a xlink:title=" ">
<path fill="none" stroke="#63b8ff" d="M58.62,-154.13C58.62,-145.84 58.62,-136.67 58.62,-130.11"/>
<polygon fill="#63b8ff" stroke="#63b8ff" points="55.13,-154.07 58.63,-164.07 62.13,-154.07 55.13,-154.07"/>
</a>
</g>
</g>
</g>
</svg>
