<?xml version="1.0" encoding="UTF-8" standalone="no"?>
<!DOCTYPE svg PUBLIC "-//W3C//DTD SVG 1.1//EN"
 "http://www.w3.org/Graphics/SVG/1.1/DTD/svg11.dtd">
<!-- Generated by graphviz version 9.0.0 (20230911.1827)
 -->
<!-- Title: spritestudio6::SsEffectElementBase Pages: 1 -->
<svg width="384pt" height="811pt"
 viewBox="0.00 0.00 384.25 810.50" xmlns="http://www.w3.org/2000/svg" xmlns:xlink="http://www.w3.org/1999/xlink">
<g id="graph0" class="graph" transform="scale(1 1) rotate(0) translate(4 806.5)">
<title>spritestudio6::SsEffectElementBase</title>
<!-- Node1 -->
<g id="Node000001" class="node">
<title>Node1</title>
<g id="a_Node000001"><a xlink:title=" ">
<polygon fill="#999999" stroke="#666666" points="174.25,-404.88 0,-404.88 0,-385.62 174.25,-385.62 174.25,-404.88"/>
<text text-anchor="middle" x="87.12" y="-391.38" font-family="Helvetica,sans-Serif" font-size="10.00">spritestudio6::SsEffectElementBase</text>
</a>
</g>
</g>
<!-- Node2 -->
<g id="Node000002" class="node">
<title>Node2</title>
<g id="a_Node000002"><a xlink:href="classspritestudio6_1_1_particle_element_alpha_fade.html" target="_top" xlink:title=" ">
<polygon fill="white" stroke="#666666" points="366.5,-802.5 220,-802.5 220,-772 366.5,-772 366.5,-802.5"/>
<text text-anchor="start" x="228" y="-789" font-family="Helvetica,sans-Serif" font-size="10.00">spritestudio6::ParticleElement</text>
<text text-anchor="middle" x="293.25" y="-777.75" font-family="Helvetica,sans-Serif" font-size="10.00">AlphaFade</text>
</a>
</g>
</g>
<!-- Node1&#45;&gt;Node2 -->
<g id="edge1_Node000001_Node000002" class="edge">
<title>Node1&#45;&gt;Node2</title>
<g id="a_edge1_Node000001_Node000002"><a xlink:title=" ">
<path fill="none" stroke="#63b8ff" d="M88.73,-416.53C91.7,-478.99 109.03,-663.56 210.25,-762.25 213.98,-765.89 218.22,-769 222.77,-771.65"/>
<polygon fill="#63b8ff" stroke="#63b8ff" points="92.24,-416.51 88.35,-406.65 85.24,-416.78 92.24,-416.51"/>
</a>
</g>
</g>
<!-- Node3 -->
<g id="Node000003" class="node">
<title>Node3</title>
<g id="a_Node000003"><a xlink:href="classspritestudio6_1_1_particle_element_basic.html" target="_top" xlink:title=" ">
<polygon fill="white" stroke="#666666" points="366.5,-753.5 220,-753.5 220,-723 366.5,-723 366.5,-753.5"/>
<text text-anchor="start" x="228" y="-740" font-family="Helvetica,sans-Serif" font-size="10.00">spritestudio6::ParticleElement</text>
<text text-anchor="middle" x="293.25" y="-728.75" font-family="Helvetica,sans-Serif" font-size="10.00">Basic</text>
</a>
</g>
</g>
<!-- Node1&#45;&gt;Node3 -->
<g id="edge2_Node000001_Node000003" class="edge">
<title>Node1&#45;&gt;Node3</title>
<g id="a_edge2_Node000001_Node000003"><a xlink:title=" ">
<path fill="none" stroke="#63b8ff" d="M90,-416.66C96.14,-473.56 120.73,-629.85 210.25,-713.25 214.17,-716.9 218.61,-720.02 223.34,-722.69"/>
<polygon fill="#63b8ff" stroke="#63b8ff" points="93.49,-416.37 89.03,-406.76 86.52,-417.06 93.49,-416.37"/>
</a>
</g>
</g>
<!-- Node4 -->
<g id="Node000004" class="node">
<title>Node4</title>
<g id="a_Node000004"><a xlink:href="classspritestudio6_1_1_particle_element_delay.html" target="_top" xlink:title=" ">
<polygon fill="white" stroke="#666666" points="366.5,-704.5 220,-704.5 220,-674 366.5,-674 366.5,-704.5"/>
<text text-anchor="start" x="228" y="-691" font-family="Helvetica,sans-Serif" font-size="10.00">spritestudio6::ParticleElement</text>
<text text-anchor="middle" x="293.25" y="-679.75" font-family="Helvetica,sans-Serif" font-size="10.00">Delay</text>
</a>
</g>
</g>
<!-- Node1&#45;&gt;Node4 -->
<g id="edge3_Node000001_Node000004" class="edge">
<title>Node1&#45;&gt;Node4</title>
<g id="a_edge3_Node000001_Node000004"><a xlink:title=" ">
<path fill="none" stroke="#63b8ff" d="M91.62,-416.37C101.11,-466.91 132.07,-595.64 210.25,-664.25 214.39,-667.88 219.04,-670.99 223.98,-673.64"/>
<polygon fill="#63b8ff" stroke="#63b8ff" points="95.12,-416.02 89.92,-406.79 88.22,-417.25 95.12,-416.02"/>
</a>
</g>
</g>
<!-- Node5 -->
<g id="Node000005" class="node">
<title>Node5</title>
<g id="a_Node000005"><a xlink:href="classspritestudio6_1_1_particle_element_gravity.html" target="_top" xlink:title=" ">
<polygon fill="white" stroke="#666666" points="366.5,-655.5 220,-655.5 220,-625 366.5,-625 366.5,-655.5"/>
<text text-anchor="start" x="228" y="-642" font-family="Helvetica,sans-Serif" font-size="10.00">spritestudio6::ParticleElement</text>
<text text-anchor="middle" x="293.25" y="-630.75" font-family="Helvetica,sans-Serif" font-size="10.00">Gravity</text>
</a>
</g>
</g>
<!-- Node1&#45;&gt;Node5 -->
<g id="edge4_Node000001_Node000005" class="edge">
<title>Node1&#45;&gt;Node5</title>
<g id="a_edge4_Node000001_Node000005"><a xlink:title=" ">
<path fill="none" stroke="#63b8ff" d="M93.93,-416.29C107.08,-460.01 143.33,-561.13 210.25,-615.25 214.76,-618.9 219.8,-622.02 225.11,-624.68"/>
<polygon fill="#63b8ff" stroke="#63b8ff" points="97.32,-415.43 91.18,-406.79 90.6,-417.37 97.32,-415.43"/>
</a>
</g>
</g>
<!-- Node6 -->
<g id="Node000006" class="node">
<title>Node6</title>
<g id="a_Node000006"><a xlink:href="classspritestudio6_1_1_particle_element_init_color.html" target="_top" xlink:title=" ">
<polygon fill="white" stroke="#666666" points="366.5,-606.5 220,-606.5 220,-576 366.5,-576 366.5,-606.5"/>
<text text-anchor="start" x="228" y="-593" font-family="Helvetica,sans-Serif" font-size="10.00">spritestudio6::ParticleElement</text>
<text text-anchor="middle" x="293.25" y="-581.75" font-family="Helvetica,sans-Serif" font-size="10.00">InitColor</text>
</a>
</g>
</g>
<!-- Node1&#45;&gt;Node6 -->
<g id="edge5_Node000001_Node000006" class="edge">
<title>Node1&#45;&gt;Node6</title>
<g id="a_edge5_Node000001_Node000006"><a xlink:title=" ">
<path fill="none" stroke="#63b8ff" d="M96.96,-415.2C113.79,-450.88 153.85,-525.71 210.25,-566.25 215.2,-569.81 220.68,-572.87 226.37,-575.51"/>
<polygon fill="#63b8ff" stroke="#63b8ff" points="100.3,-414.09 92.96,-406.45 93.94,-417 100.3,-414.09"/>
</a>
</g>
</g>
<!-- Node7 -->
<g id="Node000007" class="node">
<title>Node7</title>
<g id="a_Node000007"><a xlink:href="classspritestudio6_1_1_particle_element_position.html" target="_top" xlink:title=" ">
<polygon fill="white" stroke="#666666" points="366.5,-557.5 220,-557.5 220,-527 366.5,-527 366.5,-557.5"/>
<text text-anchor="start" x="228" y="-544" font-family="Helvetica,sans-Serif" font-size="10.00">spritestudio6::ParticleElement</text>
<text text-anchor="middle" x="293.25" y="-532.75" font-family="Helvetica,sans-Serif" font-size="10.00">Position</text>
</a>
</g>
</g>
<!-- Node1&#45;&gt;Node7 -->
<g id="edge6_Node000001_Node000007" class="edge">
<title>Node1&#45;&gt;Node7</title>
<g id="a_edge6_Node000001_Node000007"><a xlink:title=" ">
<path fill="none" stroke="#63b8ff" d="M102.1,-414.18C122.82,-440.94 164.22,-489.63 210.25,-517.25 216.25,-520.85 222.81,-523.97 229.52,-526.66"/>
<polygon fill="#63b8ff" stroke="#63b8ff" points="104.95,-412.15 96.12,-406.29 99.37,-416.38 104.95,-412.15"/>
</a>
</g>
</g>
<!-- Node8 -->
<g id="Node000008" class="node">
<title>Node8</title>
<g id="a_Node000008"><a xlink:href="classspritestudio6_1_1_particle_element_rnd_seed_change.html" target="_top" xlink:title=" ">
<polygon fill="white" stroke="#666666" points="366.5,-508.5 220,-508.5 220,-478 366.5,-478 366.5,-508.5"/>
<text text-anchor="start" x="228" y="-495" font-family="Helvetica,sans-Serif" font-size="10.00">spritestudio6::ParticleElement</text>
<text text-anchor="middle" x="293.25" y="-483.75" font-family="Helvetica,sans-Serif" font-size="10.00">RndSeedChange</text>
</a>
</g>
</g>
<!-- Node1&#45;&gt;Node8 -->
<g id="edge7_Node000001_Node000008" class="edge">
<title>Node1&#45;&gt;Node8</title>
<g id="a_edge7_Node000001_Node000008"><a xlink:title=" ">
<path fill="none" stroke="#63b8ff" d="M111.47,-411.55C135.39,-427.68 174.09,-452.22 210.25,-468.25 217.87,-471.63 226.08,-474.72 234.26,-477.5"/>
<polygon fill="#63b8ff" stroke="#63b8ff" points="113.65,-408.81 103.42,-406.06 109.71,-414.59 113.65,-408.81"/>
</a>
</g>
</g>
<!-- Node9 -->
<g id="Node000009" class="node">
<title>Node9</title>
<g id="a_Node000009"><a xlink:href="classspritestudio6_1_1_particle_element_rotation.html" target="_top" xlink:title=" ">
<polygon fill="white" stroke="#666666" points="366.5,-459.5 220,-459.5 220,-429 366.5,-429 366.5,-459.5"/>
<text text-anchor="start" x="228" y="-446" font-family="Helvetica,sans-Serif" font-size="10.00">spritestudio6::ParticleElement</text>
<text text-anchor="middle" x="293.25" y="-434.75" font-family="Helvetica,sans-Serif" font-size="10.00">Rotation</text>
</a>
</g>
</g>
<!-- Node1&#45;&gt;Node9 -->
<g id="edge8_Node000001_Node000009" class="edge">
<title>Node1&#45;&gt;Node9</title>
<g id="a_edge8_Node000001_Node000009"><a xlink:title=" ">
<path fill="none" stroke="#63b8ff" d="M140.79,-407.89C167.02,-414.19 198.99,-421.86 226.79,-428.54"/>
<polygon fill="#63b8ff" stroke="#63b8ff" points="141.94,-404.57 131.4,-405.64 140.3,-411.37 141.94,-404.57"/>
</a>
</g>
</g>
<!-- Node10 -->
<g id="Node000010" class="node">
<title>Node10</title>
<g id="a_Node000010"><a xlink:href="classspritestudio6_1_1_particle_element_rotation_trans.html" target="_top" xlink:title=" ">
<polygon fill="white" stroke="#666666" points="366.5,-410.5 220,-410.5 220,-380 366.5,-380 366.5,-410.5"/>
<text text-anchor="start" x="228" y="-397" font-family="Helvetica,sans-Serif" font-size="10.00">spritestudio6::ParticleElement</text>
<text text-anchor="middle" x="293.25" y="-385.75" font-family="Helvetica,sans-Serif" font-size="10.00">RotationTrans</text>
</a>
</g>
</g>
<!-- Node1&#45;&gt;Node10 -->
<g id="edge9_Node000001_Node000010" class="edge">
<title>Node1&#45;&gt;Node10</title>
<g id="a_edge9_Node000001_Node000010"><a xlink:title=" ">
<path fill="none" stroke="#63b8ff" d="M186,-395.25C197.36,-395.25 208.78,-395.25 219.71,-395.25"/>
<polygon fill="#63b8ff" stroke="#63b8ff" points="186.21,-391.75 176.21,-395.25 186.21,-398.75 186.21,-391.75"/>
</a>
</g>
</g>
<!-- Node11 -->
<g id="Node000011" class="node">
<title>Node11</title>
<g id="a_Node000011"><a xlink:href="classspritestudio6_1_1_particle_element_size.html" target="_top" xlink:title=" ">
<polygon fill="white" stroke="#666666" points="376.25,-361.88 210.25,-361.88 210.25,-342.62 376.25,-342.62 376.25,-361.88"/>
<text text-anchor="middle" x="293.25" y="-348.38" font-family="Helvetica,sans-Serif" font-size="10.00">spritestudio6::ParticleElementSize</text>
</a>
</g>
</g>
<!-- Node1&#45;&gt;Node11 -->
<g id="edge10_Node000001_Node000011" class="edge">
<title>Node1&#45;&gt;Node11</title>
<g id="a_edge10_Node000001_Node000011"><a xlink:title=" ">
<path fill="none" stroke="#63b8ff" d="M147.04,-382.84C177.92,-376.33 215.26,-368.47 244.34,-362.34"/>
<polygon fill="#63b8ff" stroke="#63b8ff" points="146.53,-379.37 137.46,-384.86 147.97,-386.22 146.53,-379.37"/>
</a>
</g>
</g>
<!-- Node12 -->
<g id="Node000012" class="node">
<title>Node12</title>
<g id="a_Node000012"><a xlink:href="classspritestudio6_1_1_particle_element_tangential_acceleration.html" target="_top" xlink:title=" ">
<polygon fill="white" stroke="#666666" points="366.5,-324.5 220,-324.5 220,-294 366.5,-294 366.5,-324.5"/>
<text text-anchor="start" x="228" y="-311" font-family="Helvetica,sans-Serif" font-size="10.00">spritestudio6::ParticleElement</text>
<text text-anchor="middle" x="293.25" y="-299.75" font-family="Helvetica,sans-Serif" font-size="10.00">TangentialAcceleration</text>
</a>
</g>
</g>
<!-- Node1&#45;&gt;Node12 -->
<g id="edge11_Node000001_Node000012" class="edge">
<title>Node1&#45;&gt;Node12</title>
<g id="a_edge11_Node000001_Node000012"><a xlink:title=" ">
<path fill="none" stroke="#63b8ff" d="M115.37,-379.58C139.68,-366.04 176.55,-346.6 210.25,-333.25 217.7,-330.3 225.65,-327.53 233.57,-324.99"/>
<polygon fill="#63b8ff" stroke="#63b8ff" points="113.76,-376.46 106.77,-384.42 117.2,-382.56 113.76,-376.46"/>
</a>
</g>
</g>
<!-- Node13 -->
<g id="Node000013" class="node">
<title>Node13</title>
<g id="a_Node000013"><a xlink:href="classspritestudio6_1_1_particle_element_trans_color.html" target="_top" xlink:title=" ">
<polygon fill="white" stroke="#666666" points="366.5,-275.5 220,-275.5 220,-245 366.5,-245 366.5,-275.5"/>
<text text-anchor="start" x="228" y="-262" font-family="Helvetica,sans-Serif" font-size="10.00">spritestudio6::ParticleElement</text>
<text text-anchor="middle" x="293.25" y="-250.75" font-family="Helvetica,sans-Serif" font-size="10.00">TransColor</text>
</a>
</g>
</g>
<!-- Node1&#45;&gt;Node13 -->
<g id="edge12_Node000001_Node000013" class="edge">
<title>Node1&#45;&gt;Node13</title>
<g id="a_edge12_Node000001_Node000013"><a xlink:title=" ">
<path fill="none" stroke="#63b8ff" d="M104.09,-376.48C125.77,-352.11 166.83,-309.8 210.25,-285.25 216.47,-281.73 223.24,-278.66 230.13,-275.98"/>
<polygon fill="#63b8ff" stroke="#63b8ff" points="101.45,-374.18 97.51,-384.01 106.72,-378.78 101.45,-374.18"/>
</a>
</g>
</g>
<!-- Node14 -->
<g id="Node000014" class="node">
<title>Node14</title>
<g id="a_Node000014"><a xlink:href="classspritestudio6_1_1_particle_element_trans_size.html" target="_top" xlink:title=" ">
<polygon fill="white" stroke="#666666" points="366.5,-226.5 220,-226.5 220,-196 366.5,-196 366.5,-226.5"/>
<text text-anchor="start" x="228" y="-213" font-family="Helvetica,sans-Serif" font-size="10.00">spritestudio6::ParticleElement</text>
<text text-anchor="middle" x="293.25" y="-201.75" font-family="Helvetica,sans-Serif" font-size="10.00">TransSize</text>
</a>
</g>
</g>
<!-- Node1&#45;&gt;Node14 -->
<g id="edge13_Node000001_Node000014" class="edge">
<title>Node1&#45;&gt;Node14</title>
<g id="a_edge13_Node000001_Node000014"><a xlink:title=" ">
<path fill="none" stroke="#63b8ff" d="M98.08,-375.32C115.91,-341.63 156.53,-273.47 210.25,-236.25 215.39,-232.69 221.05,-229.63 226.92,-226.99"/>
<polygon fill="#63b8ff" stroke="#63b8ff" points="95.08,-373.49 93.61,-383.98 101.3,-376.7 95.08,-373.49"/>
</a>
</g>
</g>
<!-- Node15 -->
<g id="Node000015" class="node">
<title>Node15</title>
<g id="a_Node000015"><a xlink:href="classspritestudio6_1_1_particle_element_trans_speed.html" target="_top" xlink:title=" ">
<polygon fill="white" stroke="#666666" points="366.5,-177.5 220,-177.5 220,-147 366.5,-147 366.5,-177.5"/>
<text text-anchor="start" x="228" y="-164" font-family="Helvetica,sans-Serif" font-size="10.00">spritestudio6::ParticleElement</text>
<text text-anchor="middle" x="293.25" y="-152.75" font-family="Helvetica,sans-Serif" font-size="10.00">TransSpeed</text>
</a>
</g>
</g>
<!-- Node1&#45;&gt;Node15 -->
<g id="edge14_Node000001_Node000015" class="edge">
<title>Node1&#45;&gt;Node15</title>
<g id="a_edge14_Node000001_Node000015"><a xlink:title=" ">
<path fill="none" stroke="#63b8ff" d="M94.55,-374.5C108.58,-332.7 145.91,-238 210.25,-187.25 214.81,-183.66 219.88,-180.58 225.2,-177.94"/>
<polygon fill="#63b8ff" stroke="#63b8ff" points="91.29,-373.21 91.55,-383.8 97.95,-375.37 91.29,-373.21"/>
</a>
</g>
</g>
<!-- Node16 -->
<g id="Node000016" class="node">
<title>Node16</title>
<g id="a_Node000016"><a xlink:href="classspritestudio6_1_1_particle_infinite_emit_enabled.html" target="_top" xlink:title=" ">
<polygon fill="white" stroke="#666666" points="363.12,-128.5 223.38,-128.5 223.38,-98 363.12,-98 363.12,-128.5"/>
<text text-anchor="start" x="231.38" y="-115" font-family="Helvetica,sans-Serif" font-size="10.00">spritestudio6::ParticleInfinite</text>
<text text-anchor="middle" x="293.25" y="-103.75" font-family="Helvetica,sans-Serif" font-size="10.00">EmitEnabled</text>
</a>
</g>
</g>
<!-- Node1&#45;&gt;Node16 -->
<g id="edge15_Node000001_Node000016" class="edge">
<title>Node1&#45;&gt;Node16</title>
<g id="a_edge15_Node000001_Node000016"><a xlink:title=" ">
<path fill="none" stroke="#63b8ff" d="M92.12,-374.1C102.49,-325.14 134.87,-203.25 210.25,-138.25 214.42,-134.65 219.1,-131.58 224.05,-128.94"/>
<polygon fill="#63b8ff" stroke="#63b8ff" points="88.69,-373.41 90.15,-383.9 95.56,-374.79 88.69,-373.41"/>
</a>
</g>
</g>
<!-- Node17 -->
<g id="Node000017" class="node">
<title>Node17</title>
<g id="a_Node000017"><a xlink:href="classspritestudio6_1_1_particle_point_gravity.html" target="_top" xlink:title=" ">
<polygon fill="white" stroke="#666666" points="359.75,-79.5 226.75,-79.5 226.75,-49 359.75,-49 359.75,-79.5"/>
<text text-anchor="start" x="234.75" y="-66" font-family="Helvetica,sans-Serif" font-size="10.00">spritestudio6::ParticlePoint</text>
<text text-anchor="middle" x="293.25" y="-54.75" font-family="Helvetica,sans-Serif" font-size="10.00">Gravity</text>
</a>
</g>
</g>
<!-- Node1&#45;&gt;Node17 -->
<g id="edge16_Node000001_Node000017" class="edge">
<title>Node1&#45;&gt;Node17</title>
<g id="a_edge16_Node000001_Node000017"><a xlink:title=" ">
<path fill="none" stroke="#63b8ff" d="M90.36,-373.91C97.29,-318.53 123.52,-169 210.25,-89.25 215.07,-84.82 220.66,-81.17 226.6,-78.17"/>
<polygon fill="#63b8ff" stroke="#63b8ff" points="86.88,-373.49 89.21,-383.82 93.84,-374.29 86.88,-373.49"/>
</a>
</g>
</g>
<!-- Node18 -->
<g id="Node000018" class="node">
<title>Node18</title>
<g id="a_Node000018"><a xlink:href="classspritestudio6_1_1_particle_turn_to_direction_enabled.html" target="_top" xlink:title=" ">
<polygon fill="white" stroke="#666666" points="358.25,-30.5 228.25,-30.5 228.25,0 358.25,0 358.25,-30.5"/>
<text text-anchor="start" x="236.25" y="-17" font-family="Helvetica,sans-Serif" font-size="10.00">spritestudio6::ParticleTurn</text>
<text text-anchor="middle" x="293.25" y="-5.75" font-family="Helvetica,sans-Serif" font-size="10.00">ToDirectionEnabled</text>
</a>
</g>
</g>
<!-- Node1&#45;&gt;Node18 -->
<g id="edge17_Node000001_Node000018" class="edge">
<title>Node1&#45;&gt;Node18</title>
<g id="a_edge17_Node000001_Node000018"><a xlink:title=" ">
<path fill="none" stroke="#63b8ff" d="M89,-374.24C92.67,-313.39 111.74,-135.33 210.25,-40.25 215.39,-35.29 221.49,-31.31 228,-28.12"/>
<polygon fill="#63b8ff" stroke="#63b8ff" points="85.52,-373.7 88.5,-383.86 92.51,-374.06 85.52,-373.7"/>
</a>
</g>
</g>
</g>
</svg>
