<?xml version="1.0" encoding="UTF-8" standalone="no"?>
<!DOCTYPE svg PUBLIC "-//W3C//DTD SVG 1.1//EN"
 "http://www.w3.org/Graphics/SVG/1.1/DTD/svg11.dtd">
<!-- Generated by graphviz version 12.2.1 (20241206.2353)
 -->
<!-- Title: spritestudio6::SsXmlRangeValueConverter Pages: 1 -->
<svg width="318pt" height="186pt"
 viewBox="0.00 0.00 318.25 185.50" xmlns="http://www.w3.org/2000/svg" xmlns:xlink="http://www.w3.org/1999/xlink">
<g id="graph0" class="graph" transform="scale(1 1) rotate(0) translate(4 181.5)">
<title>spritestudio6::SsXmlRangeValueConverter</title>
<!-- Node1 -->
<g id="Node000001" class="node">
<title>Node1</title>
<g id="a_Node000001"><a xlink:title=" ">
<polygon fill="#999999" stroke="#666666" points="135.25,-103.5 0,-103.5 0,-73 135.25,-73 135.25,-103.5"/>
<text text-anchor="start" x="8" y="-90" font-family="Helvetica,sans-Serif" font-size="10.00">spritestudio6::SsXmlRange</text>
<text text-anchor="middle" x="67.62" y="-78.75" font-family="Helvetica,sans-Serif" font-size="10.00">ValueConverter</text>
</a>
</g>
</g>
<!-- Node2 -->
<g id="Node000002" class="node">
<title>Node2</title>
<g id="a_Node000002"><a xlink:href="classspritestudio6_1_1_variance_value.html" target="_top" xlink:title=" ">
<polygon fill="white" stroke="#666666" points="310.25,-177.5 171.25,-177.5 171.25,-147 310.25,-147 310.25,-177.5"/>
<text text-anchor="start" x="179.25" y="-164" font-family="Helvetica,sans-Serif" font-size="10.00">spritestudio6::VarianceValue</text>
<text text-anchor="middle" x="240.75" y="-152.75" font-family="Helvetica,sans-Serif" font-size="10.00">&lt; float &gt;</text>
</a>
</g>
</g>
<!-- Node1&#45;&gt;Node2 -->
<g id="edge1_Node000001_Node000002" class="edge">
<title>Node1&#45;&gt;Node2</title>
<g id="a_edge1_Node000001_Node000002"><a xlink:title=" ">
<path fill="none" stroke="#63b8ff" d="M109.47,-108.86C128.12,-117.98 150.61,-128.58 171.25,-137.25 178.84,-140.44 186.99,-143.62 194.92,-146.59"/>
<polygon fill="#63b8ff" stroke="#63b8ff" points="111.14,-105.77 100.62,-104.49 108.04,-112.05 111.14,-105.77"/>
</a>
</g>
</g>
<!-- Node3 -->
<g id="Node000003" class="node">
<title>Node3</title>
<g id="a_Node000003"><a xlink:href="classspritestudio6_1_1_variance_value.html" target="_top" xlink:title=" ">
<polygon fill="white" stroke="#666666" points="310.25,-128.5 171.25,-128.5 171.25,-98 310.25,-98 310.25,-128.5"/>
<text text-anchor="start" x="179.25" y="-115" font-family="Helvetica,sans-Serif" font-size="10.00">spritestudio6::VarianceValue</text>
<text text-anchor="middle" x="240.75" y="-103.75" font-family="Helvetica,sans-Serif" font-size="10.00">&lt; int &gt;</text>
</a>
</g>
</g>
<!-- Node1&#45;&gt;Node3 -->
<g id="edge2_Node000001_Node000003" class="edge">
<title>Node1&#45;&gt;Node3</title>
<g id="a_edge2_Node000001_Node000003"><a xlink:title=" ">
<path fill="none" stroke="#63b8ff" d="M146.39,-99.61C154.61,-100.81 162.92,-102.03 171.02,-103.21"/>
<polygon fill="#63b8ff" stroke="#63b8ff" points="147.17,-96.19 136.77,-98.21 146.16,-103.11 147.17,-96.19"/>
</a>
</g>
</g>
<!-- Node4 -->
<g id="Node000004" class="node">
<title>Node4</title>
<g id="a_Node000004"><a xlink:href="classspritestudio6_1_1_variance_value.html" target="_top" xlink:title=" ">
<polygon fill="white" stroke="#666666" points="310.25,-79.5 171.25,-79.5 171.25,-49 310.25,-49 310.25,-79.5"/>
<text text-anchor="start" x="179.25" y="-66" font-family="Helvetica,sans-Serif" font-size="10.00">spritestudio6::VarianceValue</text>
<text text-anchor="middle" x="240.75" y="-54.75" font-family="Helvetica,sans-Serif" font-size="10.00">&lt; SsU8Color &gt;</text>
</a>
</g>
</g>
<!-- Node1&#45;&gt;Node4 -->
<g id="edge3_Node000001_Node000004" class="edge">
<title>Node1&#45;&gt;Node4</title>
<g id="a_edge3_Node000001_Node000004"><a xlink:title=" ">
<path fill="none" stroke="#63b8ff" d="M146.67,-77.3C154.8,-76.16 163.01,-75.01 171.02,-73.89"/>
<polygon fill="#63b8ff" stroke="#63b8ff" points="146.19,-73.84 136.78,-78.69 147.16,-80.77 146.19,-73.84"/>
</a>
</g>
</g>
<!-- Node5 -->
<g id="Node000005" class="node">
<title>Node5</title>
<g id="a_Node000005"><a xlink:href="classspritestudio6_1_1_variance_value.html" target="_top" xlink:title=" ">
<polygon fill="white" stroke="#666666" points="310.25,-30.5 171.25,-30.5 171.25,0 310.25,0 310.25,-30.5"/>
<text text-anchor="start" x="179.25" y="-17" font-family="Helvetica,sans-Serif" font-size="10.00">spritestudio6::VarianceValue</text>
<text text-anchor="middle" x="240.75" y="-5.75" font-family="Helvetica,sans-Serif" font-size="10.00">&lt; mytype &gt;</text>
</a>
</g>
</g>
<!-- Node1&#45;&gt;Node5 -->
<g id="edge4_Node000001_Node000005" class="edge">
<title>Node1&#45;&gt;Node5</title>
<g id="a_edge4_Node000001_Node000005"><a xlink:title=" ">
<path fill="none" stroke="#63b8ff" d="M110.35,-67.72C128.84,-58.89 150.96,-48.68 171.25,-40.25 178.85,-37.09 187.01,-33.93 194.95,-30.96"/>
<polygon fill="#63b8ff" stroke="#63b8ff" points="109.06,-64.46 101.57,-71.95 112.09,-70.77 109.06,-64.46"/>
</a>
</g>
</g>
</g>
</svg>
