<?xml version="1.0" encoding="UTF-8" standalone="no"?>
<!DOCTYPE svg PUBLIC "-//W3C//DTD SVG 1.1//EN"
 "http://www.w3.org/Graphics/SVG/1.1/DTD/svg11.dtd">
<!-- Generated by graphviz version 10.0.1 (20240210.2158)
 -->
<!-- Title: spritestudio6::treeitem&lt; __myclass &gt; Pages: 1 -->
<svg width="122pt" height="216pt"
 viewBox="0.00 0.00 122.25 215.50" xmlns="http://www.w3.org/2000/svg" xmlns:xlink="http://www.w3.org/1999/xlink">
<g id="graph0" class="graph" transform="scale(1 1) rotate(0) translate(4 211.5)">
<title>spritestudio6::treeitem&lt; __myclass &gt;</title>
<!-- Node1 -->
<g id="Node000001" class="node">
<title>Node1</title>
<g id="a_Node000001"><a xlink:title=" ">
<polygon fill="#999999" stroke="#666666" points="113.5,-152.25 0.75,-152.25 0.75,-121.75 113.5,-121.75 113.5,-152.25"/>
<text text-anchor="start" x="8.75" y="-138.75" font-family="Helvetica,sans-Serif" font-size="10.00">spritestudio6::treeitem</text>
<text text-anchor="middle" x="57.13" y="-127.5" font-family="Helvetica,sans-Serif" font-size="10.00">&lt; __myclass &gt;</text>
</a>
</g>
</g>
<!-- Node3 -->
<g id="Node000003" class="node">
<title>Node3</title>
<g id="a_Node000003"><a xlink:href="classspritestudio6_1_1tk_object.html" target="_top" xlink:title=" ">
<polygon fill="white" stroke="#666666" points="114.25,-85.75 0,-85.75 0,-55.25 114.25,-55.25 114.25,-85.75"/>
<text text-anchor="start" x="8" y="-72.25" font-family="Helvetica,sans-Serif" font-size="10.00">spritestudio6::tkObject</text>
<text text-anchor="middle" x="57.13" y="-61" font-family="Helvetica,sans-Serif" font-size="10.00">&lt; task_imp &gt;</text>
</a>
</g>
</g>
<!-- Node1&#45;&gt;Node3 -->
<g id="edge2_Node000001_Node000003" class="edge">
<title>Node1&#45;&gt;Node3</title>
<g id="a_edge2_Node000001_Node000003"><a xlink:title=" ">
<path fill="none" stroke="#63b8ff" d="M57.13,-110.06C57.13,-101.89 57.13,-93.16 57.13,-86.08"/>
<polygon fill="#63b8ff" stroke="#63b8ff" points="53.63,-109.85 57.13,-119.85 60.63,-109.85 53.63,-109.85"/>
</a>
</g>
</g>
<!-- Node2 -->
<g id="Node000002" class="node">
<title>Node2</title>
<g id="a_Node000002"><a xlink:title=" ">
<polygon fill="white" stroke="#666666" points="88.75,-207.5 25.5,-207.5 25.5,-188.25 88.75,-188.25 88.75,-207.5"/>
<text text-anchor="middle" x="57.13" y="-194" font-family="Helvetica,sans-Serif" font-size="10.00">__myclass</text>
</a>
</g>
</g>
<!-- Node2&#45;&gt;Node1 -->
<g id="edge1_Node000001_Node000002" class="edge">
<title>Node2&#45;&gt;Node1</title>
<g id="a_edge1_Node000001_Node000002"><a xlink:title=" ">
<path fill="none" stroke="#63b8ff" d="M57.13,-176.67C57.13,-168.74 57.13,-159.81 57.13,-152.53"/>
<polygon fill="#63b8ff" stroke="#63b8ff" points="53.63,-176.42 57.13,-186.42 60.63,-176.42 53.63,-176.42"/>
</a>
</g>
</g>
<!-- Node4 -->
<g id="Node000004" class="node">
<title>Node4</title>
<g id="a_Node000004"><a xlink:href="classspritestudio6_1_1tk_scene.html" target="_top" xlink:title=" ">
<polygon fill="white" stroke="#666666" points="113.88,-19.25 0.38,-19.25 0.38,0 113.88,0 113.88,-19.25"/>
<text text-anchor="middle" x="57.13" y="-5.75" font-family="Helvetica,sans-Serif" font-size="10.00">spritestudio6::tkScene</text>
</a>
</g>
</g>
<!-- Node3&#45;&gt;Node4 -->
<g id="edge3_Node000003_Node000004" class="edge">
<title>Node3&#45;&gt;Node4</title>
<g id="a_edge3_Node000003_Node000004"><a xlink:title=" ">
<path fill="none" stroke="#63b8ff" d="M57.13,-43.48C57.13,-34.98 57.13,-26.09 57.13,-19.7"/>
<polygon fill="#63b8ff" stroke="#63b8ff" points="53.63,-43.43 57.13,-53.43 60.63,-43.43 53.63,-43.43"/>
</a>
</g>
</g>
</g>
</svg>
