<?xml version="1.0" encoding="UTF-8" standalone="no"?>
<!DOCTYPE svg PUBLIC "-//W3C//DTD SVG 1.1//EN"
 "http://www.w3.org/Graphics/SVG/1.1/DTD/svg11.dtd">
<!-- Generated by graphviz version 12.2.1 (20241206.2353)
 -->
<!-- Title: Common/Helper/DirectX/d3dsimple.h Pages: 1 -->
<svg width="173pt" height="94pt"
 viewBox="0.00 0.00 172.62 93.75" xmlns="http://www.w3.org/2000/svg" xmlns:xlink="http://www.w3.org/1999/xlink">
<g id="graph0" class="graph" transform="scale(1 1) rotate(0) translate(4 89.75)">
<title>Common/Helper/DirectX/d3dsimple.h</title>
<!-- Node1 -->
<g id="Node000001" class="node">
<title>Node1</title>
<g id="a_Node000001"><a xlink:title=" ">
<polygon fill="#999999" stroke="#666666" points="146.25,-85.75 23,-85.75 23,-55.25 146.25,-55.25 146.25,-85.75"/>
<text text-anchor="start" x="31" y="-72.25" font-family="Helvetica,sans-Serif" font-size="10.00">Common/Helper/DirectX</text>
<text text-anchor="middle" x="84.62" y="-61" font-family="Helvetica,sans-Serif" font-size="10.00">/d3dsimple.h</text>
</a>
</g>
</g>
<!-- Node2 -->
<g id="Node000002" class="node">
<title>Node2</title>
<g id="a_Node000002"><a xlink:title=" ">
<polygon fill="#e0e0e0" stroke="#999999" points="45.25,-19.25 0,-19.25 0,0 45.25,0 45.25,-19.25"/>
<text text-anchor="middle" x="22.62" y="-5.75" font-family="Helvetica,sans-Serif" font-size="10.00">d3d9.h</text>
</a>
</g>
</g>
<!-- Node1&#45;&gt;Node2 -->
<g id="edge1_Node000001_Node000002" class="edge">
<title>Node1&#45;&gt;Node2</title>
<g id="a_edge1_Node000001_Node000002"><a xlink:title=" ">
<path fill="none" stroke="#63b8ff" d="M69.3,-54.95C60.59,-46.67 49.63,-36.27 40.52,-27.62"/>
<polygon fill="#63b8ff" stroke="#63b8ff" points="42.94,-25.09 33.28,-20.74 38.12,-30.17 42.94,-25.09"/>
</a>
</g>
</g>
<!-- Node3 -->
<g id="Node000003" class="node">
<title>Node3</title>
<g id="a_Node000003"><a xlink:title=" ">
<polygon fill="#e0e0e0" stroke="#999999" points="106.12,-19.25 63.12,-19.25 63.12,0 106.12,0 106.12,-19.25"/>
<text text-anchor="middle" x="84.62" y="-5.75" font-family="Helvetica,sans-Serif" font-size="10.00">vector</text>
</a>
</g>
</g>
<!-- Node1&#45;&gt;Node3 -->
<g id="edge2_Node000001_Node000003" class="edge">
<title>Node1&#45;&gt;Node3</title>
<g id="a_edge2_Node000001_Node000003"><a xlink:title=" ">
<path fill="none" stroke="#63b8ff" d="M84.62,-54.95C84.62,-47.71 84.62,-38.84 84.62,-30.94"/>
<polygon fill="#63b8ff" stroke="#63b8ff" points="88.13,-31.21 84.63,-21.21 81.13,-31.21 88.13,-31.21"/>
</a>
</g>
</g>
<!-- Node4 -->
<g id="Node000004" class="node">
<title>Node4</title>
<g id="a_Node000004"><a xlink:title=" ">
<polygon fill="#e0e0e0" stroke="#999999" points="164.62,-19.25 124.62,-19.25 124.62,0 164.62,0 164.62,-19.25"/>
<text text-anchor="middle" x="144.62" y="-5.75" font-family="Helvetica,sans-Serif" font-size="10.00">string</text>
</a>
</g>
</g>
<!-- Node1&#45;&gt;Node4 -->
<g id="edge3_Node000001_Node000004" class="edge">
<title>Node1&#45;&gt;Node4</title>
<g id="a_edge3_Node000001_Node000004"><a xlink:title=" ">
<path fill="none" stroke="#63b8ff" d="M99.46,-54.95C107.89,-46.67 118.49,-36.27 127.31,-27.62"/>
<polygon fill="#63b8ff" stroke="#63b8ff" points="129.61,-30.26 134.3,-20.76 124.71,-25.27 129.61,-30.26"/>
</a>
</g>
</g>
</g>
</svg>
