<?xml version="1.0" encoding="UTF-8" standalone="no"?>
<!DOCTYPE svg PUBLIC "-//W3C//DTD SVG 1.1//EN"
 "http://www.w3.org/Graphics/SVG/1.1/DTD/svg11.dtd">
<!-- Generated by graphviz version 10.0.1 (20240210.2158)
 -->
<!-- Title: Common/Helper/DirectX/d3dsimple.cpp Pages: 1 -->
<svg width="181pt" height="149pt"
 viewBox="0.00 0.00 180.62 149.00" xmlns="http://www.w3.org/2000/svg" xmlns:xlink="http://www.w3.org/1999/xlink">
<g id="graph0" class="graph" transform="scale(1 1) rotate(0) translate(4 145)">
<title>Common/Helper/DirectX/d3dsimple.cpp</title>
<!-- Node1 -->
<g id="Node000001" class="node">
<title>Node1</title>
<g id="a_Node000001"><a xlink:title=" ">
<polygon fill="#999999" stroke="#666666" points="123.25,-141 0,-141 0,-110.5 123.25,-110.5 123.25,-141"/>
<text text-anchor="start" x="8" y="-127.5" font-family="Helvetica,sans-Serif" font-size="10.00">Common/Helper/DirectX</text>
<text text-anchor="middle" x="61.62" y="-116.25" font-family="Helvetica,sans-Serif" font-size="10.00">/d3dsimple.cpp</text>
</a>
</g>
</g>
<!-- Node2 -->
<g id="Node000002" class="node">
<title>Node2</title>
<g id="a_Node000002"><a xlink:title=" ">
<polygon fill="#e0e0e0" stroke="#999999" points="53.25,-19.25 8,-19.25 8,0 53.25,0 53.25,-19.25"/>
<text text-anchor="middle" x="30.62" y="-5.75" font-family="Helvetica,sans-Serif" font-size="10.00">d3d9.h</text>
</a>
</g>
</g>
<!-- Node1&#45;&gt;Node2 -->
<g id="edge1_Node000001_Node000002" class="edge">
<title>Node1&#45;&gt;Node2</title>
<g id="a_edge1_Node000001_Node000002"><a xlink:title=" ">
<path fill="none" stroke="#63b8ff" d="M57.7,-110.3C52.23,-90.15 42.29,-53.56 36.09,-30.75"/>
<polygon fill="#63b8ff" stroke="#63b8ff" points="39.49,-29.89 33.49,-21.16 32.73,-31.73 39.49,-29.89"/>
</a>
</g>
</g>
<!-- Node3 -->
<g id="Node000003" class="node">
<title>Node3</title>
<g id="a_Node000003"><a xlink:href="d3dsimple_8h.html" target="_top" xlink:title=" ">
<polygon fill="white" stroke="#666666" points="126.88,-74.5 58.38,-74.5 58.38,-55.25 126.88,-55.25 126.88,-74.5"/>
<text text-anchor="middle" x="92.62" y="-61" font-family="Helvetica,sans-Serif" font-size="10.00">d3dsimple.h</text>
</a>
</g>
</g>
<!-- Node1&#45;&gt;Node3 -->
<g id="edge2_Node000001_Node000003" class="edge">
<title>Node1&#45;&gt;Node3</title>
<g id="a_edge2_Node000001_Node000003"><a xlink:title=" ">
<path fill="none" stroke="#63b8ff" d="M69.29,-110.2C73.28,-102.61 78.22,-93.24 82.52,-85.07"/>
<polygon fill="#63b8ff" stroke="#63b8ff" points="85.58,-86.77 87.14,-76.29 79.38,-83.51 85.58,-86.77"/>
</a>
</g>
</g>
<!-- Node3&#45;&gt;Node2 -->
<g id="edge3_Node000003_Node000002" class="edge">
<title>Node3&#45;&gt;Node2</title>
<g id="a_edge3_Node000003_Node000002"><a xlink:title=" ">
<path fill="none" stroke="#63b8ff" d="M82.11,-54.84C73.24,-47.22 60.31,-36.12 49.64,-26.95"/>
<polygon fill="#63b8ff" stroke="#63b8ff" points="52,-24.37 42.14,-20.51 47.44,-29.68 52,-24.37"/>
</a>
</g>
</g>
<!-- Node4 -->
<g id="Node000004" class="node">
<title>Node4</title>
<g id="a_Node000004"><a xlink:title=" ">
<polygon fill="#e0e0e0" stroke="#999999" points="114.12,-19.25 71.12,-19.25 71.12,0 114.12,0 114.12,-19.25"/>
<text text-anchor="middle" x="92.62" y="-5.75" font-family="Helvetica,sans-Serif" font-size="10.00">vector</text>
</a>
</g>
</g>
<!-- Node3&#45;&gt;Node4 -->
<g id="edge4_Node000003_Node000004" class="edge">
<title>Node3&#45;&gt;Node4</title>
<g id="a_edge4_Node000003_Node000004"><a xlink:title=" ">
<path fill="none" stroke="#63b8ff" d="M92.62,-55.08C92.62,-48.57 92.62,-39.42 92.62,-31.12"/>
<polygon fill="#63b8ff" stroke="#63b8ff" points="96.13,-31.12 92.63,-21.12 89.13,-31.12 96.13,-31.12"/>
</a>
</g>
</g>
<!-- Node5 -->
<g id="Node000005" class="node">
<title>Node5</title>
<g id="a_Node000005"><a xlink:title=" ">
<polygon fill="#e0e0e0" stroke="#999999" points="172.62,-19.25 132.62,-19.25 132.62,0 172.62,0 172.62,-19.25"/>
<text text-anchor="middle" x="152.62" y="-5.75" font-family="Helvetica,sans-Serif" font-size="10.00">string</text>
</a>
</g>
</g>
<!-- Node3&#45;&gt;Node5 -->
<g id="edge5_Node000003_Node000005" class="edge">
<title>Node3&#45;&gt;Node5</title>
<g id="a_edge5_Node000003_Node000005"><a xlink:title=" ">
<path fill="none" stroke="#63b8ff" d="M102.8,-54.84C111.39,-47.22 123.89,-36.12 134.23,-26.95"/>
<polygon fill="#63b8ff" stroke="#63b8ff" points="136.31,-29.79 141.47,-20.53 131.66,-24.55 136.31,-29.79"/>
</a>
</g>
</g>
</g>
</svg>
