<?xml version="1.0" encoding="UTF-8" standalone="no"?>
<!DOCTYPE svg PUBLIC "-//W3C//DTD SVG 1.1//EN"
 "http://www.w3.org/Graphics/SVG/1.1/DTD/svg11.dtd">
<!-- Generated by graphviz version 10.0.1 (20240210.2158)
 -->
<!-- Title: Common/Libs/glad/include/glad/glad.h Pages: 1 -->
<svg width="140pt" height="149pt"
 viewBox="0.00 0.00 139.50 149.00" xmlns="http://www.w3.org/2000/svg" xmlns:xlink="http://www.w3.org/1999/xlink">
<g id="graph0" class="graph" transform="scale(1 1) rotate(0) translate(4 145)">
<title>Common/Libs/glad/include/glad/glad.h</title>
<!-- Node1 -->
<g id="Node000001" class="node">
<title>Node1</title>
<g id="a_Node000001"><a xlink:title=" ">
<polygon fill="#999999" stroke="#666666" points="131.5,-141 0,-141 0,-110.5 131.5,-110.5 131.5,-141"/>
<text text-anchor="start" x="8" y="-127.5" font-family="Helvetica,sans-Serif" font-size="10.00">Common/Libs/glad/include</text>
<text text-anchor="middle" x="65.75" y="-116.25" font-family="Helvetica,sans-Serif" font-size="10.00">/glad/glad.h</text>
</a>
</g>
</g>
<!-- Node2 -->
<g id="Node000002" class="node">
<title>Node2</title>
<g id="a_Node000002"><a xlink:href="khrplatform_8h.html" target="_top" xlink:title=" ">
<polygon fill="white" stroke="#666666" points="114.62,-74.5 16.88,-74.5 16.88,-55.25 114.62,-55.25 114.62,-74.5"/>
<text text-anchor="middle" x="65.75" y="-61" font-family="Helvetica,sans-Serif" font-size="10.00">KHR/khrplatform.h</text>
</a>
</g>
</g>
<!-- Node1&#45;&gt;Node2 -->
<g id="edge1_Node000001_Node000002" class="edge">
<title>Node1&#45;&gt;Node2</title>
<g id="a_edge1_Node000001_Node000002"><a xlink:title=" ">
<path fill="none" stroke="#63b8ff" d="M65.75,-110.2C65.75,-102.96 65.75,-94.09 65.75,-86.19"/>
<polygon fill="#63b8ff" stroke="#63b8ff" points="69.25,-86.46 65.75,-76.46 62.25,-86.46 69.25,-86.46"/>
</a>
</g>
</g>
<!-- Node3 -->
<g id="Node000003" class="node">
<title>Node3</title>
<g id="a_Node000003"><a xlink:title=" ">
<polygon fill="#e0e0e0" stroke="#999999" points="89.88,-19.25 41.62,-19.25 41.62,0 89.88,0 89.88,-19.25"/>
<text text-anchor="middle" x="65.75" y="-5.75" font-family="Helvetica,sans-Serif" font-size="10.00">stdint.h</text>
</a>
</g>
</g>
<!-- Node2&#45;&gt;Node3 -->
<g id="edge2_Node000002_Node000003" class="edge">
<title>Node2&#45;&gt;Node3</title>
<g id="a_edge2_Node000002_Node000003"><a xlink:title=" ">
<path fill="none" stroke="#63b8ff" d="M65.75,-55.08C65.75,-48.57 65.75,-39.42 65.75,-31.12"/>
<polygon fill="#63b8ff" stroke="#63b8ff" points="69.25,-31.12 65.75,-21.12 62.25,-31.12 69.25,-31.12"/>
</a>
</g>
</g>
</g>
</svg>
