<?xml version="1.0" encoding="UTF-8" standalone="no"?>
<!DOCTYPE svg PUBLIC "-//W3C//DTD SVG 1.1//EN"
 "http://www.w3.org/Graphics/SVG/1.1/DTD/svg11.dtd">
<!-- Generated by graphviz version 9.0.0 (20230911.1827)
 -->
<!-- Title: Common/Libs/glad/src/glad.c Pages: 1 -->
<svg width="329pt" height="204pt"
 viewBox="0.00 0.00 329.25 204.25" xmlns="http://www.w3.org/2000/svg" xmlns:xlink="http://www.w3.org/1999/xlink">
<g id="graph0" class="graph" transform="scale(1 1) rotate(0) translate(4 200.25)">
<title>Common/Libs/glad/src/glad.c</title>
<!-- Node1 -->
<g id="Node000001" class="node">
<title>Node1</title>
<g id="a_Node000001"><a xlink:title=" ">
<polygon fill="#999999" stroke="#666666" points="209.75,-196.25 95.5,-196.25 95.5,-165.75 209.75,-165.75 209.75,-196.25"/>
<text text-anchor="start" x="103.5" y="-182.75" font-family="Helvetica,sans-Serif" font-size="10.00">Common/Libs/glad/src</text>
<text text-anchor="middle" x="152.62" y="-171.5" font-family="Helvetica,sans-Serif" font-size="10.00">/glad.c</text>
</a>
</g>
</g>
<!-- Node2 -->
<g id="Node000002" class="node">
<title>Node2</title>
<g id="a_Node000002"><a xlink:title=" ">
<polygon fill="#e0e0e0" stroke="#999999" points="45.25,-129.75 0,-129.75 0,-110.5 45.25,-110.5 45.25,-129.75"/>
<text text-anchor="middle" x="22.62" y="-116.25" font-family="Helvetica,sans-Serif" font-size="10.00">stdio.h</text>
</a>
</g>
</g>
<!-- Node1&#45;&gt;Node2 -->
<g id="edge1_Node000001_Node000002" class="edge">
<title>Node1&#45;&gt;Node2</title>
<g id="a_edge1_Node000001_Node000002"><a xlink:title=" ">
<path fill="none" stroke="#63b8ff" d="M120.16,-165.3C99.6,-155.98 73.19,-144.02 53.04,-134.9"/>
<polygon fill="#63b8ff" stroke="#63b8ff" points="54.49,-131.72 43.94,-130.78 51.61,-138.09 54.49,-131.72"/>
</a>
</g>
</g>
<!-- Node3 -->
<g id="Node000003" class="node">
<title>Node3</title>
<g id="a_Node000003"><a xlink:title=" ">
<polygon fill="#e0e0e0" stroke="#999999" points="110.38,-129.75 62.88,-129.75 62.88,-110.5 110.38,-110.5 110.38,-129.75"/>
<text text-anchor="middle" x="86.62" y="-116.25" font-family="Helvetica,sans-Serif" font-size="10.00">stdlib.h</text>
</a>
</g>
</g>
<!-- Node1&#45;&gt;Node3 -->
<g id="edge2_Node000001_Node000003" class="edge">
<title>Node1&#45;&gt;Node3</title>
<g id="a_edge2_Node000001_Node000003"><a xlink:title=" ">
<path fill="none" stroke="#63b8ff" d="M136.31,-165.45C126.94,-157.09 115.13,-146.55 105.37,-137.85"/>
<polygon fill="#63b8ff" stroke="#63b8ff" points="107.72,-135.25 97.93,-131.21 103.06,-140.48 107.72,-135.25"/>
</a>
</g>
</g>
<!-- Node4 -->
<g id="Node000004" class="node">
<title>Node4</title>
<g id="a_Node000004"><a xlink:title=" ">
<polygon fill="#e0e0e0" stroke="#999999" points="176.75,-129.75 128.5,-129.75 128.5,-110.5 176.75,-110.5 176.75,-129.75"/>
<text text-anchor="middle" x="152.62" y="-116.25" font-family="Helvetica,sans-Serif" font-size="10.00">string.h</text>
</a>
</g>
</g>
<!-- Node1&#45;&gt;Node4 -->
<g id="edge3_Node000001_Node000004" class="edge">
<title>Node1&#45;&gt;Node4</title>
<g id="a_edge3_Node000001_Node000004"><a xlink:title=" ">
<path fill="none" stroke="#63b8ff" d="M152.62,-165.45C152.62,-158.21 152.62,-149.34 152.62,-141.44"/>
<polygon fill="#63b8ff" stroke="#63b8ff" points="156.13,-141.71 152.63,-131.71 149.13,-141.71 156.13,-141.71"/>
</a>
</g>
</g>
<!-- Node5 -->
<g id="Node000005" class="node">
<title>Node5</title>
<g id="a_Node000005"><a xlink:href="glad_8h.html" target="_top" xlink:title=" ">
<polygon fill="white" stroke="#666666" points="258.25,-129.75 195,-129.75 195,-110.5 258.25,-110.5 258.25,-129.75"/>
<text text-anchor="middle" x="226.62" y="-116.25" font-family="Helvetica,sans-Serif" font-size="10.00">glad/glad.h</text>
</a>
</g>
</g>
<!-- Node1&#45;&gt;Node5 -->
<g id="edge4_Node000001_Node000005" class="edge">
<title>Node1&#45;&gt;Node5</title>
<g id="a_edge4_Node000001_Node000005"><a xlink:title=" ">
<path fill="none" stroke="#63b8ff" d="M170.92,-165.45C181.64,-156.91 195.21,-146.12 206.28,-137.31"/>
<polygon fill="#63b8ff" stroke="#63b8ff" points="208.39,-140.11 214.03,-131.14 204.03,-134.63 208.39,-140.11"/>
</a>
</g>
</g>
<!-- Node8 -->
<g id="Node000008" class="node">
<title>Node8</title>
<g id="a_Node000008"><a xlink:title=" ">
<polygon fill="#e0e0e0" stroke="#999999" points="321.25,-129.75 276,-129.75 276,-110.5 321.25,-110.5 321.25,-129.75"/>
<text text-anchor="middle" x="298.62" y="-116.25" font-family="Helvetica,sans-Serif" font-size="10.00">dlfcn.h</text>
</a>
</g>
</g>
<!-- Node1&#45;&gt;Node8 -->
<g id="edge7_Node000001_Node000008" class="edge">
<title>Node1&#45;&gt;Node8</title>
<g id="a_edge7_Node000001_Node000008"><a xlink:title=" ">
<path fill="none" stroke="#63b8ff" d="M189.09,-165.3C212.61,-155.81 242.94,-143.58 265.72,-134.39"/>
<polygon fill="#63b8ff" stroke="#63b8ff" points="266.87,-137.71 274.83,-130.72 264.25,-131.21 266.87,-137.71"/>
</a>
</g>
</g>
<!-- Node6 -->
<g id="Node000006" class="node">
<title>Node6</title>
<g id="a_Node000006"><a xlink:href="khrplatform_8h.html" target="_top" xlink:title=" ">
<polygon fill="white" stroke="#666666" points="275.5,-74.5 177.75,-74.5 177.75,-55.25 275.5,-55.25 275.5,-74.5"/>
<text text-anchor="middle" x="226.62" y="-61" font-family="Helvetica,sans-Serif" font-size="10.00">KHR/khrplatform.h</text>
</a>
</g>
</g>
<!-- Node5&#45;&gt;Node6 -->
<g id="edge5_Node000005_Node000006" class="edge">
<title>Node5&#45;&gt;Node6</title>
<g id="a_edge5_Node000005_Node000006"><a xlink:title=" ">
<path fill="none" stroke="#63b8ff" d="M226.62,-110.33C226.62,-103.82 226.62,-94.67 226.62,-86.37"/>
<polygon fill="#63b8ff" stroke="#63b8ff" points="230.13,-86.37 226.63,-76.37 223.13,-86.37 230.13,-86.37"/>
</a>
</g>
</g>
<!-- Node7 -->
<g id="Node000007" class="node">
<title>Node7</title>
<g id="a_Node000007"><a xlink:title=" ">
<polygon fill="#e0e0e0" stroke="#999999" points="250.75,-19.25 202.5,-19.25 202.5,0 250.75,0 250.75,-19.25"/>
<text text-anchor="middle" x="226.62" y="-5.75" font-family="Helvetica,sans-Serif" font-size="10.00">stdint.h</text>
</a>
</g>
</g>
<!-- Node6&#45;&gt;Node7 -->
<g id="edge6_Node000006_Node000007" class="edge">
<title>Node6&#45;&gt;Node7</title>
<g id="a_edge6_Node000006_Node000007"><a xlink:title=" ">
<path fill="none" stroke="#63b8ff" d="M226.62,-55.08C226.62,-48.57 226.62,-39.42 226.62,-31.12"/>
<polygon fill="#63b8ff" stroke="#63b8ff" points="230.13,-31.12 226.63,-21.12 223.13,-31.12 230.13,-31.12"/>
</a>
</g>
</g>
</g>
</svg>
