<?xml version="1.0" encoding="UTF-8" standalone="no"?>
<!DOCTYPE svg PUBLIC "-//W3C//DTD SVG 1.1//EN"
 "http://www.w3.org/Graphics/SVG/1.1/DTD/svg11.dtd">
<!-- Generated by graphviz version 9.0.0 (20230911.1827)
 -->
<!-- Title: Graphical Class Hierarchy Pages: 1 -->
<svg width="370pt" height="88pt"
 viewBox="0.00 0.00 370.00 87.50" xmlns="http://www.w3.org/2000/svg" xmlns:xlink="http://www.w3.org/1999/xlink">
<g id="graph0" class="graph" transform="scale(1 1) rotate(0) translate(4 83.5)">
<title>Graphical Class Hierarchy</title>
<!-- Node0 -->
<g id="Node000000" class="node">
<title>Node0</title>
<g id="a_Node000000"><a xlink:href="classspritestudio6_1_1_s_s_open_g_l_shader.html" target="_top" xlink:title=" ">
<polygon fill="white" stroke="#666666" points="157.75,-48.88 0,-48.88 0,-29.62 157.75,-29.62 157.75,-48.88"/>
<text text-anchor="middle" x="78.88" y="-35.38" font-family="Helvetica,sans-Serif" font-size="10.00">spritestudio6::SSOpenGLShader</text>
</a>
</g>
</g>
<!-- Node1 -->
<g id="Node000001" class="node">
<title>Node1</title>
<g id="a_Node000001"><a xlink:href="classspritestudio6_1_1_s_s_open_g_l_fragment_shader.html" target="_top" xlink:title=" ">
<polygon fill="white" stroke="#666666" points="362,-79.5 193.75,-79.5 193.75,-49 362,-49 362,-79.5"/>
<text text-anchor="start" x="201.75" y="-66" font-family="Helvetica,sans-Serif" font-size="10.00">spritestudio6::SSOpenGLFragment</text>
<text text-anchor="middle" x="277.88" y="-54.75" font-family="Helvetica,sans-Serif" font-size="10.00">Shader</text>
</a>
</g>
</g>
<!-- Node0&#45;&gt;Node1 -->
<g id="edge47_Node000000_Node000001" class="edge">
<title>Node0&#45;&gt;Node1</title>
<g id="a_edge47_Node000000_Node000001"><a xlink:title=" ">
<path fill="none" stroke="#63b8ff" d="M169.27,-50.59C177.27,-51.61 185.37,-52.64 193.32,-53.65"/>
<polygon fill="#63b8ff" stroke="#63b8ff" points="169.88,-47.14 159.52,-49.36 169,-54.09 169.88,-47.14"/>
</a>
</g>
</g>
<!-- Node2 -->
<g id="Node000002" class="node">
<title>Node2</title>
<g id="a_Node000002"><a xlink:href="classspritestudio6_1_1_s_s_open_g_l_vertex_shader.html" target="_top" xlink:title=" ">
<polygon fill="white" stroke="#666666" points="355.25,-30.5 200.5,-30.5 200.5,0 355.25,0 355.25,-30.5"/>
<text text-anchor="start" x="208.5" y="-17" font-family="Helvetica,sans-Serif" font-size="10.00">spritestudio6::SSOpenGLVertex</text>
<text text-anchor="middle" x="277.88" y="-5.75" font-family="Helvetica,sans-Serif" font-size="10.00">Shader</text>
</a>
</g>
</g>
<!-- Node0&#45;&gt;Node2 -->
<g id="edge48_Node000000_Node000002" class="edge">
<title>Node0&#45;&gt;Node2</title>
<g id="a_edge48_Node000000_Node000002"><a xlink:title=" ">
<path fill="none" stroke="#63b8ff" d="M169.16,-28.37C179.49,-27.11 189.97,-25.84 200.11,-24.6"/>
<polygon fill="#63b8ff" stroke="#63b8ff" points="169.02,-24.86 159.52,-29.55 169.87,-31.81 169.02,-24.86"/>
</a>
</g>
</g>
</g>
</svg>
