<?xml version="1.0" encoding="UTF-8" standalone="no"?>
<!DOCTYPE svg PUBLIC "-//W3C//DTD SVG 1.1//EN"
 "http://www.w3.org/Graphics/SVG/1.1/DTD/svg11.dtd">
<!-- Generated by graphviz version 9.0.0 (20230911.1827)
 -->
<!-- Title: Graphical Class Hierarchy Pages: 1 -->
<svg width="520pt" height="39pt"
 viewBox="0.00 0.00 519.75 38.50" xmlns="http://www.w3.org/2000/svg" xmlns:xlink="http://www.w3.org/1999/xlink">
<g id="graph0" class="graph" transform="scale(1 1) rotate(0) translate(4 34.5)">
<title>Graphical Class Hierarchy</title>
<!-- Node0 -->
<g id="Node000000" class="node">
<title>Node0</title>
<g id="a_Node000000"><a xlink:title=" ">
<polygon fill="#e0e0e0" stroke="#999999" points="63.25,-24.88 0,-24.88 0,-5.63 63.25,-5.63 63.25,-24.88"/>
<text text-anchor="middle" x="31.62" y="-11.38" font-family="Helvetica,sans-Serif" font-size="10.00">__myclass</text>
</a>
</g>
</g>
<!-- Node1 -->
<g id="Node000001" class="node">
<title>Node1</title>
<g id="a_Node000001"><a xlink:href="classspritestudio6_1_1treeitem.html" target="_top" xlink:title=" ">
<polygon fill="white" stroke="#666666" points="212,-30.5 99.25,-30.5 99.25,0 212,0 212,-30.5"/>
<text text-anchor="start" x="107.25" y="-17" font-family="Helvetica,sans-Serif" font-size="10.00">spritestudio6::treeitem</text>
<text text-anchor="middle" x="155.62" y="-5.75" font-family="Helvetica,sans-Serif" font-size="10.00">&lt; __myclass &gt;</text>
</a>
</g>
</g>
<!-- Node0&#45;&gt;Node1 -->
<g id="edge1_Node000000_Node000001" class="edge">
<title>Node0&#45;&gt;Node1</title>
<g id="a_edge1_Node000000_Node000001"><a xlink:title=" ">
<path fill="none" stroke="#63b8ff" d="M75.02,-15.25C82.74,-15.25 90.89,-15.25 98.92,-15.25"/>
<polygon fill="#63b8ff" stroke="#63b8ff" points="75.24,-11.75 65.24,-15.25 75.24,-18.75 75.24,-11.75"/>
</a>
</g>
</g>
<!-- Node2 -->
<g id="Node000002" class="node">
<title>Node2</title>
<g id="a_Node000002"><a xlink:href="classspritestudio6_1_1tk_object.html" target="_top" xlink:title=" ">
<polygon fill="white" stroke="#666666" points="362.25,-24.88 248,-24.88 248,-5.63 362.25,-5.63 362.25,-24.88"/>
<text text-anchor="middle" x="305.12" y="-11.38" font-family="Helvetica,sans-Serif" font-size="10.00">spritestudio6::tkObject</text>
</a>
</g>
</g>
<!-- Node1&#45;&gt;Node2 -->
<g id="edge2_Node000001_Node000002" class="edge">
<title>Node1&#45;&gt;Node2</title>
<g id="a_edge2_Node000001_Node000002"><a xlink:title=" ">
<path fill="none" stroke="#63b8ff" d="M223.67,-15.25C231.74,-15.25 239.91,-15.25 247.79,-15.25"/>
<polygon fill="#63b8ff" stroke="#63b8ff" points="223.9,-11.75 213.9,-15.25 223.9,-18.75 223.9,-11.75"/>
</a>
</g>
</g>
<!-- Node3 -->
<g id="Node000003" class="node">
<title>Node3</title>
<g id="a_Node000003"><a xlink:href="classspritestudio6_1_1tk_scene.html" target="_top" xlink:title=" ">
<polygon fill="white" stroke="#666666" points="511.75,-24.88 398.25,-24.88 398.25,-5.63 511.75,-5.63 511.75,-24.88"/>
<text text-anchor="middle" x="455" y="-11.38" font-family="Helvetica,sans-Serif" font-size="10.00">spritestudio6::tkScene</text>
</a>
</g>
</g>
<!-- Node2&#45;&gt;Node3 -->
<g id="edge3_Node000002_Node000003" class="edge">
<title>Node2&#45;&gt;Node3</title>
<g id="a_edge3_Node000002_Node000003"><a xlink:title=" ">
<path fill="none" stroke="#63b8ff" d="M373.74,-15.25C381.8,-15.25 389.96,-15.25 397.83,-15.25"/>
<polygon fill="#63b8ff" stroke="#63b8ff" points="373.97,-11.75 363.97,-15.25 373.97,-18.75 373.97,-11.75"/>
</a>
</g>
</g>
</g>
</svg>
