<?xml version="1.0" encoding="UTF-8" standalone="no"?>
<!DOCTYPE svg PUBLIC "-//W3C//DTD SVG 1.1//EN"
 "http://www.w3.org/Graphics/SVG/1.1/DTD/svg11.dtd">
<!-- Generated by graphviz version 9.0.0 (20230911.1827)
 -->
<!-- Title: Graphical Class Hierarchy Pages: 1 -->
<svg width="342pt" height="823pt"
 viewBox="0.00 0.00 342.25 822.50" xmlns="http://www.w3.org/2000/svg" xmlns:xlink="http://www.w3.org/1999/xlink">
<g id="graph0" class="graph" transform="scale(1 1) rotate(0) translate(4 818.5)">
<title>Graphical Class Hierarchy</title>
<!-- Node0 -->
<g id="Node000000" class="node">
<title>Node0</title>
<g id="a_Node000000"><a xlink:href="classspritestudio6_1_1_effect_func_base.html" target="_top" xlink:title=" ">
<polygon fill="white" stroke="#666666" points="148,-416.88 0,-416.88 0,-397.62 148,-397.62 148,-416.88"/>
<text text-anchor="middle" x="74" y="-403.38" font-family="Helvetica,sans-Serif" font-size="10.00">spritestudio6::EffectFuncBase</text>
</a>
</g>
</g>
<!-- Node1 -->
<g id="Node000001" class="node">
<title>Node1</title>
<g id="a_Node000001"><a xlink:href="classspritestudio6_1_1_func_particle_element_alpha_fade.html" target="_top" xlink:title=" ">
<polygon fill="white" stroke="#666666" points="325.25,-814.5 193,-814.5 193,-784 325.25,-784 325.25,-814.5"/>
<text text-anchor="start" x="201" y="-801" font-family="Helvetica,sans-Serif" font-size="10.00">spritestudio6::FuncParticle</text>
<text text-anchor="middle" x="259.12" y="-789.75" font-family="Helvetica,sans-Serif" font-size="10.00">ElementAlphaFade</text>
</a>
</g>
</g>
<!-- Node0&#45;&gt;Node1 -->
<g id="edge4_Node000000_Node000001" class="edge">
<title>Node0&#45;&gt;Node1</title>
<g id="a_edge4_Node000000_Node000001"><a xlink:title=" ">
<path fill="none" stroke="#63b8ff" d="M74.91,-428.75C75.83,-491.08 87.1,-673.74 184,-774.25 187.49,-777.87 191.52,-780.96 195.85,-783.61"/>
<polygon fill="#63b8ff" stroke="#63b8ff" points="78.41,-428.85 74.85,-418.87 71.41,-428.89 78.41,-428.85"/>
</a>
</g>
</g>
<!-- Node2 -->
<g id="Node000002" class="node">
<title>Node2</title>
<g id="a_Node000002"><a xlink:href="classspritestudio6_1_1_func_particle_element_basic.html" target="_top" xlink:title=" ">
<polygon fill="white" stroke="#666666" points="325.25,-765.5 193,-765.5 193,-735 325.25,-735 325.25,-765.5"/>
<text text-anchor="start" x="201" y="-752" font-family="Helvetica,sans-Serif" font-size="10.00">spritestudio6::FuncParticle</text>
<text text-anchor="middle" x="259.12" y="-740.75" font-family="Helvetica,sans-Serif" font-size="10.00">ElementBasic</text>
</a>
</g>
</g>
<!-- Node0&#45;&gt;Node2 -->
<g id="edge5_Node000000_Node000002" class="edge">
<title>Node0&#45;&gt;Node2</title>
<g id="a_edge5_Node000000_Node000002"><a xlink:title=" ">
<path fill="none" stroke="#63b8ff" d="M76.05,-428.47C79.97,-484.89 98.41,-640.08 184,-725.25 187.66,-728.89 191.86,-732 196.37,-734.66"/>
<polygon fill="#63b8ff" stroke="#63b8ff" points="79.55,-428.45 75.46,-418.67 72.56,-428.87 79.55,-428.45"/>
</a>
</g>
</g>
<!-- Node3 -->
<g id="Node000003" class="node">
<title>Node3</title>
<g id="a_Node000003"><a xlink:href="classspritestudio6_1_1_func_particle_element_delay.html" target="_top" xlink:title=" ">
<polygon fill="white" stroke="#666666" points="325.25,-716.5 193,-716.5 193,-686 325.25,-686 325.25,-716.5"/>
<text text-anchor="start" x="201" y="-703" font-family="Helvetica,sans-Serif" font-size="10.00">spritestudio6::FuncParticle</text>
<text text-anchor="middle" x="259.12" y="-691.75" font-family="Helvetica,sans-Serif" font-size="10.00">ElementDelay</text>
</a>
</g>
</g>
<!-- Node0&#45;&gt;Node3 -->
<g id="edge6_Node000000_Node000003" class="edge">
<title>Node0&#45;&gt;Node3</title>
<g id="a_edge6_Node000000_Node000003"><a xlink:title=" ">
<path fill="none" stroke="#63b8ff" d="M77.57,-428.5C84.78,-478.84 109.77,-606.32 184,-676.25 187.86,-679.88 192.26,-682.99 196.95,-685.64"/>
<polygon fill="#63b8ff" stroke="#63b8ff" points="81.06,-428.16 76.27,-418.7 74.12,-429.08 81.06,-428.16"/>
</a>
</g>
</g>
<!-- Node4 -->
<g id="Node000004" class="node">
<title>Node4</title>
<g id="a_Node000004"><a xlink:href="classspritestudio6_1_1_func_particle_element_gravity.html" target="_top" xlink:title=" ">
<polygon fill="white" stroke="#666666" points="325.25,-667.5 193,-667.5 193,-637 325.25,-637 325.25,-667.5"/>
<text text-anchor="start" x="201" y="-654" font-family="Helvetica,sans-Serif" font-size="10.00">spritestudio6::FuncParticle</text>
<text text-anchor="middle" x="259.12" y="-642.75" font-family="Helvetica,sans-Serif" font-size="10.00">ElementGravity</text>
</a>
</g>
</g>
<!-- Node0&#45;&gt;Node4 -->
<g id="edge7_Node000000_Node000004" class="edge">
<title>Node0&#45;&gt;Node4</title>
<g id="a_edge7_Node000000_Node000004"><a xlink:title=" ">
<path fill="none" stroke="#63b8ff" d="M79.69,-428.39C90.43,-471.92 120.89,-572.12 184,-627.25 188.09,-630.82 192.71,-633.89 197.6,-636.52"/>
<polygon fill="#63b8ff" stroke="#63b8ff" points="83.11,-427.66 77.42,-418.72 76.3,-429.26 83.11,-427.66"/>
</a>
</g>
</g>
<!-- Node5 -->
<g id="Node000005" class="node">
<title>Node5</title>
<g id="a_Node000005"><a xlink:href="classspritestudio6_1_1_func_particle_element_init_color.html" target="_top" xlink:title=" ">
<polygon fill="white" stroke="#666666" points="325.25,-618.5 193,-618.5 193,-588 325.25,-588 325.25,-618.5"/>
<text text-anchor="start" x="201" y="-605" font-family="Helvetica,sans-Serif" font-size="10.00">spritestudio6::FuncParticle</text>
<text text-anchor="middle" x="259.12" y="-593.75" font-family="Helvetica,sans-Serif" font-size="10.00">ElementInitColor</text>
</a>
</g>
</g>
<!-- Node0&#45;&gt;Node5 -->
<g id="edge8_Node000000_Node000005" class="edge">
<title>Node0&#45;&gt;Node5</title>
<g id="a_edge8_Node000000_Node000005"><a xlink:title=" ">
<path fill="none" stroke="#63b8ff" d="M82.59,-427.51C96.96,-463.13 131.45,-537.1 184,-578.25 188.6,-581.85 193.74,-584.95 199.12,-587.61"/>
<polygon fill="#63b8ff" stroke="#63b8ff" points="85.94,-426.45 79.05,-418.41 79.42,-429 85.94,-426.45"/>
</a>
</g>
</g>
<!-- Node6 -->
<g id="Node000006" class="node">
<title>Node6</title>
<g id="a_Node000006"><a xlink:href="classspritestudio6_1_1_func_particle_element_position.html" target="_top" xlink:title=" ">
<polygon fill="white" stroke="#666666" points="325.25,-569.5 193,-569.5 193,-539 325.25,-539 325.25,-569.5"/>
<text text-anchor="start" x="201" y="-556" font-family="Helvetica,sans-Serif" font-size="10.00">spritestudio6::FuncParticle</text>
<text text-anchor="middle" x="259.12" y="-544.75" font-family="Helvetica,sans-Serif" font-size="10.00">ElementPosition</text>
</a>
</g>
</g>
<!-- Node0&#45;&gt;Node6 -->
<g id="edge9_Node000000_Node000006" class="edge">
<title>Node0&#45;&gt;Node6</title>
<g id="a_edge9_Node000000_Node000006"><a xlink:title=" ">
<path fill="none" stroke="#63b8ff" d="M87.61,-426.82C105.82,-453.6 141.94,-501.48 184,-529.25 189.33,-532.77 195.2,-535.83 201.23,-538.5"/>
<polygon fill="#63b8ff" stroke="#63b8ff" points="90.62,-425.02 82.17,-418.63 84.79,-428.9 90.62,-425.02"/>
</a>
</g>
</g>
<!-- Node7 -->
<g id="Node000007" class="node">
<title>Node7</title>
<g id="a_Node000007"><a xlink:href="classspritestudio6_1_1_func_particle_element_rnd_seed_change.html" target="_top" xlink:title=" ">
<polygon fill="white" stroke="#666666" points="325.25,-520.5 193,-520.5 193,-490 325.25,-490 325.25,-520.5"/>
<text text-anchor="start" x="201" y="-507" font-family="Helvetica,sans-Serif" font-size="10.00">spritestudio6::FuncParticle</text>
<text text-anchor="middle" x="259.12" y="-495.75" font-family="Helvetica,sans-Serif" font-size="10.00">ElementRndSeedChange</text>
</a>
</g>
</g>
<!-- Node0&#45;&gt;Node7 -->
<g id="edge10_Node000000_Node000007" class="edge">
<title>Node0&#45;&gt;Node7</title>
<g id="a_edge10_Node000000_Node000007"><a xlink:title=" ">
<path fill="none" stroke="#63b8ff" d="M96.51,-424.17C117.77,-440.27 151.72,-464.35 184,-480.25 190.94,-483.67 198.47,-486.81 205.98,-489.62"/>
<polygon fill="#63b8ff" stroke="#63b8ff" points="98.68,-421.42 88.61,-418.1 94.41,-426.97 98.68,-421.42"/>
</a>
</g>
</g>
<!-- Node8 -->
<g id="Node000008" class="node">
<title>Node8</title>
<g id="a_Node000008"><a xlink:href="classspritestudio6_1_1_func_particle_element_rotation.html" target="_top" xlink:title=" ">
<polygon fill="white" stroke="#666666" points="325.25,-471.5 193,-471.5 193,-441 325.25,-441 325.25,-471.5"/>
<text text-anchor="start" x="201" y="-458" font-family="Helvetica,sans-Serif" font-size="10.00">spritestudio6::FuncParticle</text>
<text text-anchor="middle" x="259.12" y="-446.75" font-family="Helvetica,sans-Serif" font-size="10.00">ElementRotation</text>
</a>
</g>
</g>
<!-- Node0&#45;&gt;Node8 -->
<g id="edge11_Node000000_Node000008" class="edge">
<title>Node0&#45;&gt;Node8</title>
<g id="a_edge11_Node000000_Node000008"><a xlink:title=" ">
<path fill="none" stroke="#63b8ff" d="M123.51,-420.23C146.8,-426.46 174.91,-433.98 199.4,-440.54"/>
<polygon fill="#63b8ff" stroke="#63b8ff" points="124.53,-416.88 113.96,-417.68 122.72,-423.64 124.53,-416.88"/>
</a>
</g>
</g>
<!-- Node9 -->
<g id="Node000009" class="node">
<title>Node9</title>
<g id="a_Node000009"><a xlink:href="classspritestudio6_1_1_func_particle_element_rotation_trans.html" target="_top" xlink:title=" ">
<polygon fill="white" stroke="#666666" points="325.25,-422.5 193,-422.5 193,-392 325.25,-392 325.25,-422.5"/>
<text text-anchor="start" x="201" y="-409" font-family="Helvetica,sans-Serif" font-size="10.00">spritestudio6::FuncParticle</text>
<text text-anchor="middle" x="259.12" y="-397.75" font-family="Helvetica,sans-Serif" font-size="10.00">ElementRotationTrans</text>
</a>
</g>
</g>
<!-- Node0&#45;&gt;Node9 -->
<g id="edge12_Node000000_Node000009" class="edge">
<title>Node0&#45;&gt;Node9</title>
<g id="a_edge12_Node000000_Node000009"><a xlink:title=" ">
<path fill="none" stroke="#63b8ff" d="M159.84,-407.25C170.87,-407.25 182.02,-407.25 192.67,-407.25"/>
<polygon fill="#63b8ff" stroke="#63b8ff" points="159.94,-403.75 149.94,-407.25 159.94,-410.75 159.94,-403.75"/>
</a>
</g>
</g>
<!-- Node10 -->
<g id="Node000010" class="node">
<title>Node10</title>
<g id="a_Node000010"><a xlink:href="classspritestudio6_1_1_func_particle_element_size.html" target="_top" xlink:title=" ">
<polygon fill="white" stroke="#666666" points="325.25,-373.5 193,-373.5 193,-343 325.25,-343 325.25,-373.5"/>
<text text-anchor="start" x="201" y="-360" font-family="Helvetica,sans-Serif" font-size="10.00">spritestudio6::FuncParticle</text>
<text text-anchor="middle" x="259.12" y="-348.75" font-family="Helvetica,sans-Serif" font-size="10.00">ElementSize</text>
</a>
</g>
</g>
<!-- Node0&#45;&gt;Node10 -->
<g id="edge13_Node000000_Node000010" class="edge">
<title>Node0&#45;&gt;Node10</title>
<g id="a_edge13_Node000000_Node000010"><a xlink:title=" ">
<path fill="none" stroke="#63b8ff" d="M123.51,-394.27C146.8,-388.04 174.91,-380.52 199.4,-373.96"/>
<polygon fill="#63b8ff" stroke="#63b8ff" points="122.72,-390.86 113.96,-396.82 124.53,-397.62 122.72,-390.86"/>
</a>
</g>
</g>
<!-- Node11 -->
<g id="Node000011" class="node">
<title>Node11</title>
<g id="a_Node000011"><a xlink:href="classspritestudio6_1_1_func_particle_element_tangential_acceleration.html" target="_top" xlink:title=" ">
<polygon fill="white" stroke="#666666" points="334.25,-324.5 184,-324.5 184,-294 334.25,-294 334.25,-324.5"/>
<text text-anchor="start" x="192" y="-311" font-family="Helvetica,sans-Serif" font-size="10.00">spritestudio6::FuncParticle</text>
<text text-anchor="middle" x="259.12" y="-299.75" font-family="Helvetica,sans-Serif" font-size="10.00">ElementTangentialAcceleration</text>
</a>
</g>
</g>
<!-- Node0&#45;&gt;Node11 -->
<g id="edge14_Node000000_Node000011" class="edge">
<title>Node0&#45;&gt;Node11</title>
<g id="a_edge14_Node000000_Node000011"><a xlink:title=" ">
<path fill="none" stroke="#63b8ff" d="M96.51,-390.33C117.77,-374.23 151.72,-350.15 184,-334.25 190.94,-330.83 198.47,-327.69 205.98,-324.88"/>
<polygon fill="#63b8ff" stroke="#63b8ff" points="94.41,-387.53 88.61,-396.4 98.68,-393.08 94.41,-387.53"/>
</a>
</g>
</g>
<!-- Node12 -->
<g id="Node000012" class="node">
<title>Node12</title>
<g id="a_Node000012"><a xlink:href="classspritestudio6_1_1_func_particle_element_trans_color.html" target="_top" xlink:title=" ">
<polygon fill="white" stroke="#666666" points="325.25,-275.5 193,-275.5 193,-245 325.25,-245 325.25,-275.5"/>
<text text-anchor="start" x="201" y="-262" font-family="Helvetica,sans-Serif" font-size="10.00">spritestudio6::FuncParticle</text>
<text text-anchor="middle" x="259.12" y="-250.75" font-family="Helvetica,sans-Serif" font-size="10.00">ElementTransColor</text>
</a>
</g>
</g>
<!-- Node0&#45;&gt;Node12 -->
<g id="edge15_Node000000_Node000012" class="edge">
<title>Node0&#45;&gt;Node12</title>
<g id="a_edge15_Node000000_Node000012"><a xlink:title=" ">
<path fill="none" stroke="#63b8ff" d="M87.61,-387.68C105.82,-360.9 141.94,-313.02 184,-285.25 189.33,-281.73 195.2,-278.67 201.23,-276"/>
<polygon fill="#63b8ff" stroke="#63b8ff" points="84.79,-385.6 82.17,-395.87 90.62,-389.48 84.79,-385.6"/>
</a>
</g>
</g>
<!-- Node13 -->
<g id="Node000013" class="node">
<title>Node13</title>
<g id="a_Node000013"><a xlink:href="classspritestudio6_1_1_func_particle_element_trans_size.html" target="_top" xlink:title=" ">
<polygon fill="white" stroke="#666666" points="325.25,-226.5 193,-226.5 193,-196 325.25,-196 325.25,-226.5"/>
<text text-anchor="start" x="201" y="-213" font-family="Helvetica,sans-Serif" font-size="10.00">spritestudio6::FuncParticle</text>
<text text-anchor="middle" x="259.12" y="-201.75" font-family="Helvetica,sans-Serif" font-size="10.00">ElementTransSize</text>
</a>
</g>
</g>
<!-- Node0&#45;&gt;Node13 -->
<g id="edge16_Node000000_Node000013" class="edge">
<title>Node0&#45;&gt;Node13</title>
<g id="a_edge16_Node000000_Node000013"><a xlink:title=" ">
<path fill="none" stroke="#63b8ff" d="M82.59,-386.99C96.96,-351.37 131.45,-277.4 184,-236.25 188.6,-232.65 193.74,-229.55 199.12,-226.89"/>
<polygon fill="#63b8ff" stroke="#63b8ff" points="79.42,-385.5 79.05,-396.09 85.94,-388.05 79.42,-385.5"/>
</a>
</g>
</g>
<!-- Node14 -->
<g id="Node000014" class="node">
<title>Node14</title>
<g id="a_Node000014"><a xlink:href="classspritestudio6_1_1_func_particle_element_trans_speed.html" target="_top" xlink:title=" ">
<polygon fill="white" stroke="#666666" points="325.25,-177.5 193,-177.5 193,-147 325.25,-147 325.25,-177.5"/>
<text text-anchor="start" x="201" y="-164" font-family="Helvetica,sans-Serif" font-size="10.00">spritestudio6::FuncParticle</text>
<text text-anchor="middle" x="259.12" y="-152.75" font-family="Helvetica,sans-Serif" font-size="10.00">ElementTransSpeed</text>
</a>
</g>
</g>
<!-- Node0&#45;&gt;Node14 -->
<g id="edge17_Node000000_Node000014" class="edge">
<title>Node0&#45;&gt;Node14</title>
<g id="a_edge17_Node000000_Node000014"><a xlink:title=" ">
<path fill="none" stroke="#63b8ff" d="M79.69,-386.11C90.43,-342.58 120.89,-242.38 184,-187.25 188.09,-183.68 192.71,-180.61 197.6,-177.98"/>
<polygon fill="#63b8ff" stroke="#63b8ff" points="76.3,-385.24 77.42,-395.78 83.11,-386.84 76.3,-385.24"/>
</a>
</g>
</g>
<!-- Node15 -->
<g id="Node000015" class="node">
<title>Node15</title>
<g id="a_Node000015"><a xlink:href="classspritestudio6_1_1_func_particle_infinite_emit_enabled.html" target="_top" xlink:title=" ">
<polygon fill="white" stroke="#666666" points="325.25,-128.5 193,-128.5 193,-98 325.25,-98 325.25,-128.5"/>
<text text-anchor="start" x="201" y="-115" font-family="Helvetica,sans-Serif" font-size="10.00">spritestudio6::FuncParticle</text>
<text text-anchor="middle" x="259.12" y="-103.75" font-family="Helvetica,sans-Serif" font-size="10.00">InfiniteEmitEnabled</text>
</a>
</g>
</g>
<!-- Node0&#45;&gt;Node15 -->
<g id="edge18_Node000000_Node000015" class="edge">
<title>Node0&#45;&gt;Node15</title>
<g id="a_edge18_Node000000_Node000015"><a xlink:title=" ">
<path fill="none" stroke="#63b8ff" d="M77.57,-386C84.78,-335.66 109.77,-208.18 184,-138.25 187.86,-134.62 192.26,-131.51 196.95,-128.86"/>
<polygon fill="#63b8ff" stroke="#63b8ff" points="74.12,-385.42 76.27,-395.8 81.06,-386.34 74.12,-385.42"/>
</a>
</g>
</g>
<!-- Node16 -->
<g id="Node000016" class="node">
<title>Node16</title>
<g id="a_Node000016"><a xlink:href="classspritestudio6_1_1_func_particle_point_gravity.html" target="_top" xlink:title=" ">
<polygon fill="white" stroke="#666666" points="325.25,-79.5 193,-79.5 193,-49 325.25,-49 325.25,-79.5"/>
<text text-anchor="start" x="201" y="-66" font-family="Helvetica,sans-Serif" font-size="10.00">spritestudio6::FuncParticle</text>
<text text-anchor="middle" x="259.12" y="-54.75" font-family="Helvetica,sans-Serif" font-size="10.00">PointGravity</text>
</a>
</g>
</g>
<!-- Node0&#45;&gt;Node16 -->
<g id="edge19_Node000000_Node000016" class="edge">
<title>Node0&#45;&gt;Node16</title>
<g id="a_edge19_Node000000_Node000016"><a xlink:title=" ">
<path fill="none" stroke="#63b8ff" d="M76.05,-386.03C79.97,-329.61 98.41,-174.42 184,-89.25 187.66,-85.61 191.86,-82.5 196.37,-79.84"/>
<polygon fill="#63b8ff" stroke="#63b8ff" points="72.56,-385.63 75.46,-395.83 79.55,-386.05 72.56,-385.63"/>
</a>
</g>
</g>
<!-- Node17 -->
<g id="Node000017" class="node">
<title>Node17</title>
<g id="a_Node000017"><a xlink:href="classspritestudio6_1_1_func_particle_turn_to_direction_enabled.html" target="_top" xlink:title=" ">
<polygon fill="white" stroke="#666666" points="325.25,-30.5 193,-30.5 193,0 325.25,0 325.25,-30.5"/>
<text text-anchor="start" x="201" y="-17" font-family="Helvetica,sans-Serif" font-size="10.00">spritestudio6::FuncParticle</text>
<text text-anchor="middle" x="259.12" y="-5.75" font-family="Helvetica,sans-Serif" font-size="10.00">TurnToDirectionEnabled</text>
</a>
</g>
</g>
<!-- Node0&#45;&gt;Node17 -->
<g id="edge20_Node000000_Node000017" class="edge">
<title>Node0&#45;&gt;Node17</title>
<g id="a_edge20_Node000000_Node000017"><a xlink:title=" ">
<path fill="none" stroke="#63b8ff" d="M74.91,-385.75C75.83,-323.42 87.1,-140.76 184,-40.25 187.49,-36.63 191.52,-33.54 195.85,-30.89"/>
<polygon fill="#63b8ff" stroke="#63b8ff" points="71.41,-385.61 74.85,-395.63 78.41,-385.65 71.41,-385.61"/>
</a>
</g>
</g>
</g>
</svg>
