<?xml version="1.0" encoding="UTF-8" standalone="no"?>
<!DOCTYPE svg PUBLIC "-//W3C//DTD SVG 1.1//EN"
 "http://www.w3.org/Graphics/SVG/1.1/DTD/svg11.dtd">
<!-- Generated by graphviz version 9.0.0 (20230911.1827)
 -->
<!-- Title: Graphical Class Hierarchy Pages: 1 -->
<svg width="317pt" height="64pt"
 viewBox="0.00 0.00 316.75 64.25" xmlns="http://www.w3.org/2000/svg" xmlns:xlink="http://www.w3.org/1999/xlink">
<g id="graph0" class="graph" transform="scale(1 1) rotate(0) translate(4 60.25)">
<title>Graphical Class Hierarchy</title>
<!-- Node0 -->
<g id="Node000000" class="node">
<title>Node0</title>
<g id="a_Node000000"><a xlink:href="classspritestudio6_1_1_i_ss_renderer.html" target="_top" xlink:title=" ">
<polygon fill="white" stroke="#666666" points="132.25,-37.25 0,-37.25 0,-18 132.25,-18 132.25,-37.25"/>
<text text-anchor="middle" x="66.12" y="-23.75" font-family="Helvetica,sans-Serif" font-size="10.00">spritestudio6::ISsRenderer</text>
</a>
</g>
</g>
<!-- Node1 -->
<g id="Node000001" class="node">
<title>Node1</title>
<g id="a_Node000001"><a xlink:href="classspritestudio6_1_1_ss_render_d_x9.html" target="_top" xlink:title=" ">
<polygon fill="white" stroke="#666666" points="308.75,-56.25 168.25,-56.25 168.25,-37 308.75,-37 308.75,-56.25"/>
<text text-anchor="middle" x="238.5" y="-42.75" font-family="Helvetica,sans-Serif" font-size="10.00">spritestudio6::SsRenderDX9</text>
</a>
</g>
</g>
<!-- Node0&#45;&gt;Node1 -->
<g id="edge21_Node000000_Node000001" class="edge">
<title>Node0&#45;&gt;Node1</title>
<g id="a_edge21_Node000000_Node000001"><a xlink:title=" ">
<path fill="none" stroke="#63b8ff" d="M143.73,-36.17C151.73,-37.06 159.84,-37.96 167.76,-38.85"/>
<polygon fill="#63b8ff" stroke="#63b8ff" points="144.34,-32.71 134.01,-35.08 143.56,-39.67 144.34,-32.71"/>
</a>
</g>
</g>
<!-- Node2 -->
<g id="Node000002" class="node">
<title>Node2</title>
<g id="a_Node000002"><a xlink:href="classspritestudio6_1_1_ss_render_g_l.html" target="_top" xlink:title=" ">
<polygon fill="white" stroke="#666666" points="305.38,-19.25 171.62,-19.25 171.62,0 305.38,0 305.38,-19.25"/>
<text text-anchor="middle" x="238.5" y="-5.75" font-family="Helvetica,sans-Serif" font-size="10.00">spritestudio6::SsRenderGL</text>
</a>
</g>
</g>
<!-- Node0&#45;&gt;Node2 -->
<g id="edge22_Node000000_Node000002" class="edge">
<title>Node0&#45;&gt;Node2</title>
<g id="a_edge22_Node000000_Node000002"><a xlink:title=" ">
<path fill="none" stroke="#63b8ff" d="M143.92,-19.51C153.02,-18.55 162.23,-17.58 171.16,-16.63"/>
<polygon fill="#63b8ff" stroke="#63b8ff" points="143.59,-16.03 134.01,-20.56 144.33,-22.99 143.59,-16.03"/>
</a>
</g>
</g>
</g>
</svg>
