<?xml version="1.0" encoding="UTF-8" standalone="no"?>
<!DOCTYPE svg PUBLIC "-//W3C//DTD SVG 1.1//EN"
 "http://www.w3.org/Graphics/SVG/1.1/DTD/svg11.dtd">
<!-- Generated by graphviz version 12.2.1 (20241206.2353)
 -->
<!-- Title: Graphical Class Hierarchy Pages: 1 -->
<svg width="574pt" height="39pt"
 viewBox="0.00 0.00 573.75 38.50" xmlns="http://www.w3.org/2000/svg" xmlns:xlink="http://www.w3.org/1999/xlink">
<g id="graph0" class="graph" transform="scale(1 1) rotate(0) translate(4 34.5)">
<title>Graphical Class Hierarchy</title>
<!-- Node0 -->
<g id="Node000000" class="node">
<title>Node0</title>
<g id="a_Node000000"><a xlink:href="classspritestudio6_1_1task__imp.html" target="_top" xlink:title=" ">
<polygon fill="white" stroke="#666666" points="117.25,-24.88 0,-24.88 0,-5.63 117.25,-5.63 117.25,-24.88"/>
<text text-anchor="middle" x="58.62" y="-11.38" font-family="Helvetica,sans-Serif" font-size="10.00">spritestudio6::task_imp</text>
</a>
</g>
</g>
<!-- Node1 -->
<g id="Node000001" class="node">
<title>Node1</title>
<g id="a_Node000001"><a xlink:href="classspritestudio6_1_1treeitem.html" target="_top" xlink:title=" ">
<polygon fill="white" stroke="#666666" points="266,-30.5 153.25,-30.5 153.25,0 266,0 266,-30.5"/>
<text text-anchor="start" x="161.25" y="-17" font-family="Helvetica,sans-Serif" font-size="10.00">spritestudio6::treeitem</text>
<text text-anchor="middle" x="209.62" y="-5.75" font-family="Helvetica,sans-Serif" font-size="10.00">&lt; task_imp &gt;</text>
</a>
</g>
</g>
<!-- Node0&#45;&gt;Node1 -->
<g id="edge51_Node000000_Node000001" class="edge">
<title>Node0&#45;&gt;Node1</title>
<g id="a_edge51_Node000000_Node000001"><a xlink:title=" ">
<path fill="none" stroke="#63b8ff" d="M128.94,-15.25C136.99,-15.25 145.12,-15.25 152.95,-15.25"/>
<polygon fill="#63b8ff" stroke="#63b8ff" points="129.17,-11.75 119.17,-15.25 129.17,-18.75 129.17,-11.75"/>
</a>
</g>
</g>
<!-- Node2 -->
<g id="Node000002" class="node">
<title>Node2</title>
<g id="a_Node000002"><a xlink:href="classspritestudio6_1_1tk_object.html" target="_top" xlink:title=" ">
<polygon fill="white" stroke="#666666" points="416.25,-24.88 302,-24.88 302,-5.63 416.25,-5.63 416.25,-24.88"/>
<text text-anchor="middle" x="359.12" y="-11.38" font-family="Helvetica,sans-Serif" font-size="10.00">spritestudio6::tkObject</text>
</a>
</g>
</g>
<!-- Node1&#45;&gt;Node2 -->
<g id="edge52_Node000001_Node000002" class="edge">
<title>Node1&#45;&gt;Node2</title>
<g id="a_edge52_Node000001_Node000002"><a xlink:title=" ">
<path fill="none" stroke="#63b8ff" d="M277.67,-15.25C285.74,-15.25 293.91,-15.25 301.79,-15.25"/>
<polygon fill="#63b8ff" stroke="#63b8ff" points="277.9,-11.75 267.9,-15.25 277.9,-18.75 277.9,-11.75"/>
</a>
</g>
</g>
<!-- Node3 -->
<g id="Node000003" class="node">
<title>Node3</title>
<g id="a_Node000003"><a xlink:href="classspritestudio6_1_1tk_scene.html" target="_top" xlink:title=" ">
<polygon fill="white" stroke="#666666" points="565.75,-24.88 452.25,-24.88 452.25,-5.63 565.75,-5.63 565.75,-24.88"/>
<text text-anchor="middle" x="509" y="-11.38" font-family="Helvetica,sans-Serif" font-size="10.00">spritestudio6::tkScene</text>
</a>
</g>
</g>
<!-- Node2&#45;&gt;Node3 -->
<g id="edge53_Node000002_Node000003" class="edge">
<title>Node2&#45;&gt;Node3</title>
<g id="a_edge53_Node000002_Node000003"><a xlink:title=" ">
<path fill="none" stroke="#63b8ff" d="M427.74,-15.25C435.8,-15.25 443.96,-15.25 451.83,-15.25"/>
<polygon fill="#63b8ff" stroke="#63b8ff" points="427.97,-11.75 417.97,-15.25 427.97,-18.75 427.97,-11.75"/>
</a>
</g>
</g>
</g>
</svg>
