<?xml version="1.0" encoding="UTF-8" standalone="no"?>
<!DOCTYPE svg PUBLIC "-//W3C//DTD SVG 1.1//EN"
 "http://www.w3.org/Graphics/SVG/1.1/DTD/svg11.dtd">
<!-- Generated by graphviz version 9.0.0 (20230911.1827)
 -->
<!-- Title: Graphical Class Hierarchy Pages: 1 -->
<svg width="362pt" height="88pt"
 viewBox="0.00 0.00 361.75 87.50" xmlns="http://www.w3.org/2000/svg" xmlns:xlink="http://www.w3.org/1999/xlink">
<g id="graph0" class="graph" transform="scale(1 1) rotate(0) translate(4 83.5)">
<title>Graphical Class Hierarchy</title>
<!-- Node0 -->
<g id="Node000000" class="node">
<title>Node0</title>
<g id="a_Node000000"><a xlink:href="classspritestudio6_1_1_ss_effect_render_atom.html" target="_top" xlink:title=" ">
<polygon fill="white" stroke="#666666" points="170.5,-48.88 0,-48.88 0,-29.62 170.5,-29.62 170.5,-48.88"/>
<text text-anchor="middle" x="85.25" y="-35.38" font-family="Helvetica,sans-Serif" font-size="10.00">spritestudio6::SsEffectRenderAtom</text>
</a>
</g>
</g>
<!-- Node1 -->
<g id="Node000001" class="node">
<title>Node1</title>
<g id="a_Node000001"><a xlink:href="classspritestudio6_1_1_ss_effect_render_emitter.html" target="_top" xlink:title=" ">
<polygon fill="white" stroke="#666666" points="353.75,-79.5 206.5,-79.5 206.5,-49 353.75,-49 353.75,-79.5"/>
<text text-anchor="start" x="214.5" y="-66" font-family="Helvetica,sans-Serif" font-size="10.00">spritestudio6::SsEffectRender</text>
<text text-anchor="middle" x="280.12" y="-54.75" font-family="Helvetica,sans-Serif" font-size="10.00">Emitter</text>
</a>
</g>
</g>
<!-- Node0&#45;&gt;Node1 -->
<g id="edge45_Node000000_Node000001" class="edge">
<title>Node0&#45;&gt;Node1</title>
<g id="a_edge45_Node000000_Node000001"><a xlink:title=" ">
<path fill="none" stroke="#63b8ff" d="M175.31,-50.79C185.67,-52.14 196.14,-53.49 206.25,-54.8"/>
<polygon fill="#63b8ff" stroke="#63b8ff" points="176.01,-47.36 165.64,-49.54 175.11,-54.3 176.01,-47.36"/>
</a>
</g>
</g>
<!-- Node2 -->
<g id="Node000002" class="node">
<title>Node2</title>
<g id="a_Node000002"><a xlink:href="classspritestudio6_1_1_ss_effect_render_particle.html" target="_top" xlink:title=" ">
<polygon fill="white" stroke="#666666" points="353.75,-30.5 206.5,-30.5 206.5,0 353.75,0 353.75,-30.5"/>
<text text-anchor="start" x="214.5" y="-17" font-family="Helvetica,sans-Serif" font-size="10.00">spritestudio6::SsEffectRender</text>
<text text-anchor="middle" x="280.12" y="-5.75" font-family="Helvetica,sans-Serif" font-size="10.00">Particle</text>
</a>
</g>
</g>
<!-- Node0&#45;&gt;Node2 -->
<g id="edge46_Node000000_Node000002" class="edge">
<title>Node0&#45;&gt;Node2</title>
<g id="a_edge46_Node000000_Node000002"><a xlink:title=" ">
<path fill="none" stroke="#63b8ff" d="M178.72,-27.74C187.96,-26.59 197.26,-25.44 206.26,-24.32"/>
<polygon fill="#63b8ff" stroke="#63b8ff" points="178.48,-24.25 168.99,-28.95 179.34,-31.19 178.48,-24.25"/>
</a>
</g>
</g>
</g>
</svg>
