<?xml version="1.0" encoding="UTF-8" standalone="no"?>
<!DOCTYPE svg PUBLIC "-//W3C//DTD SVG 1.1//EN"
 "http://www.w3.org/Graphics/SVG/1.1/DTD/svg11.dtd">
<!-- Generated by graphviz version 12.2.1 (20241206.2353)
 -->
<!-- Title: Graphical Class Hierarchy Pages: 1 -->
<svg width="315pt" height="101pt"
 viewBox="0.00 0.00 315.25 101.25" xmlns="http://www.w3.org/2000/svg" xmlns:xlink="http://www.w3.org/1999/xlink">
<g id="graph0" class="graph" transform="scale(1 1) rotate(0) translate(4 97.25)">
<title>Graphical Class Hierarchy</title>
<!-- Node0 -->
<g id="Node000000" class="node">
<title>Node0</title>
<g id="a_Node000000"><a xlink:href="classspritestudio6_1_1_i_s_s_texture.html" target="_top" xlink:title=" ">
<polygon fill="white" stroke="#666666" points="126.25,-56.25 0,-56.25 0,-37 126.25,-37 126.25,-56.25"/>
<text text-anchor="middle" x="63.12" y="-42.75" font-family="Helvetica,sans-Serif" font-size="10.00">spritestudio6::ISSTexture</text>
</a>
</g>
</g>
<!-- Node1 -->
<g id="Node000001" class="node">
<title>Node1</title>
<g id="a_Node000001"><a xlink:href="classspritestudio6_1_1_s_s_texture_b_m_p.html" target="_top" xlink:title=" ">
<polygon fill="white" stroke="#666666" points="307.25,-93.25 162.25,-93.25 162.25,-74 307.25,-74 307.25,-93.25"/>
<text text-anchor="middle" x="234.75" y="-79.75" font-family="Helvetica,sans-Serif" font-size="10.00">spritestudio6::SSTextureBMP</text>
</a>
</g>
</g>
<!-- Node0&#45;&gt;Node1 -->
<g id="edge21_Node000000_Node000001" class="edge">
<title>Node0&#45;&gt;Node1</title>
<g id="a_edge21_Node000000_Node000001"><a xlink:title=" ">
<path fill="none" stroke="#63b8ff" d="M121.44,-59.13C142.94,-63.82 167.08,-69.08 187.46,-73.53"/>
<polygon fill="#63b8ff" stroke="#63b8ff" points="122.47,-55.77 111.95,-57.06 120.98,-62.61 122.47,-55.77"/>
</a>
</g>
</g>
<!-- Node2 -->
<g id="Node000002" class="node">
<title>Node2</title>
<g id="a_Node000002"><a xlink:href="classspritestudio6_1_1_s_s_texture_d_x9.html" target="_top" xlink:title=" ">
<polygon fill="white" stroke="#666666" points="306.12,-56.25 163.38,-56.25 163.38,-37 306.12,-37 306.12,-56.25"/>
<text text-anchor="middle" x="234.75" y="-42.75" font-family="Helvetica,sans-Serif" font-size="10.00">spritestudio6::SSTextureDX9</text>
</a>
</g>
</g>
<!-- Node0&#45;&gt;Node2 -->
<g id="edge22_Node000000_Node000002" class="edge">
<title>Node0&#45;&gt;Node2</title>
<g id="a_edge22_Node000000_Node000002"><a xlink:title=" ">
<path fill="none" stroke="#63b8ff" d="M137.65,-46.62C146.05,-46.62 154.59,-46.62 162.95,-46.62"/>
<polygon fill="#63b8ff" stroke="#63b8ff" points="137.84,-43.13 127.84,-46.63 137.84,-50.13 137.84,-43.13"/>
</a>
</g>
</g>
<!-- Node3 -->
<g id="Node000003" class="node">
<title>Node3</title>
<g id="a_Node000003"><a xlink:href="classspritestudio6_1_1_s_s_texture_g_l.html" target="_top" xlink:title=" ">
<polygon fill="white" stroke="#666666" points="302.75,-19.25 166.75,-19.25 166.75,0 302.75,0 302.75,-19.25"/>
<text text-anchor="middle" x="234.75" y="-5.75" font-family="Helvetica,sans-Serif" font-size="10.00">spritestudio6::SSTextureGL</text>
</a>
</g>
</g>
<!-- Node0&#45;&gt;Node3 -->
<g id="edge23_Node000000_Node000003" class="edge">
<title>Node0&#45;&gt;Node3</title>
<g id="a_edge23_Node000000_Node000003"><a xlink:title=" ">
<path fill="none" stroke="#63b8ff" d="M121.44,-34.12C142.94,-29.43 167.08,-24.17 187.46,-19.72"/>
<polygon fill="#63b8ff" stroke="#63b8ff" points="120.98,-30.64 111.95,-36.19 122.47,-37.48 120.98,-30.64"/>
</a>
</g>
</g>
</g>
</svg>
