<?xml version="1.0" encoding="UTF-8" standalone="no"?>
<!DOCTYPE svg PUBLIC "-//W3C//DTD SVG 1.1//EN"
 "http://www.w3.org/Graphics/SVG/1.1/DTD/svg11.dtd">
<!-- Generated by graphviz version 9.0.0 (20230911.1827)
 -->
<!-- Title: Common/Libs/glad/include/KHR/khrplatform.h Pages: 1 -->
<svg width="443pt" height="238pt"
 viewBox="0.00 0.00 443.12 238.00" xmlns="http://www.w3.org/2000/svg" xmlns:xlink="http://www.w3.org/1999/xlink">
<g id="graph0" class="graph" transform="scale(1 1) rotate(0) translate(4 234)">
<title>Common/Libs/glad/include/KHR/khrplatform.h</title>
<!-- Node1 -->
<g id="Node000001" class="node">
<title>Node1</title>
<g id="a_Node000001"><a xlink:title=" ">
<polygon fill="#999999" stroke="#666666" points="360.75,-230 229.25,-230 229.25,-199.5 360.75,-199.5 360.75,-230"/>
<text text-anchor="start" x="237.25" y="-216.5" font-family="Helvetica,sans-Serif" font-size="10.00">Common/Libs/glad/include</text>
<text text-anchor="middle" x="295" y="-205.25" font-family="Helvetica,sans-Serif" font-size="10.00">/KHR/khrplatform.h</text>
</a>
</g>
</g>
<!-- Node2 -->
<g id="Node000002" class="node">
<title>Node2</title>
<g id="a_Node000002"><a xlink:href="glad_8h.html" target="_top" xlink:title=" ">
<polygon fill="white" stroke="#666666" points="360.75,-163.5 229.25,-163.5 229.25,-133 360.75,-133 360.75,-163.5"/>
<text text-anchor="start" x="237.25" y="-150" font-family="Helvetica,sans-Serif" font-size="10.00">Common/Libs/glad/include</text>
<text text-anchor="middle" x="295" y="-138.75" font-family="Helvetica,sans-Serif" font-size="10.00">/glad/glad.h</text>
</a>
</g>
</g>
<!-- Node1&#45;&gt;Node2 -->
<g id="edge1_Node000001_Node000002" class="edge">
<title>Node1&#45;&gt;Node2</title>
<g id="a_edge1_Node000001_Node000002"><a xlink:title=" ">
<path fill="none" stroke="#63b8ff" d="M295,-187.81C295,-179.64 295,-170.91 295,-163.83"/>
<polygon fill="#63b8ff" stroke="#63b8ff" points="291.5,-187.6 295,-197.6 298.5,-187.6 291.5,-187.6"/>
</a>
</g>
</g>
<!-- Node3 -->
<g id="Node000003" class="node">
<title>Node3</title>
<g id="a_Node000003"><a xlink:href="ss_open_g_l_setting_8h.html" target="_top" xlink:title=" ">
<polygon fill="white" stroke="#666666" points="302.38,-91.38 123.62,-91.38 123.62,-72.12 302.38,-72.12 302.38,-91.38"/>
<text text-anchor="middle" x="213" y="-77.88" font-family="Helvetica,sans-Serif" font-size="10.00">Common/Drawer/ssOpenGLSetting.h</text>
</a>
</g>
</g>
<!-- Node2&#45;&gt;Node3 -->
<g id="edge2_Node000002_Node000003" class="edge">
<title>Node2&#45;&gt;Node3</title>
<g id="a_edge2_Node000002_Node000003"><a xlink:title=" ">
<path fill="none" stroke="#63b8ff" d="M267.6,-125.7C252.8,-114.06 235.34,-100.32 224.22,-91.57"/>
<polygon fill="#63b8ff" stroke="#63b8ff" points="265.18,-128.25 275.2,-131.68 269.51,-122.74 265.18,-128.25"/>
</a>
</g>
</g>
<!-- Node7 -->
<g id="Node000007" class="node">
<title>Node7</title>
<g id="a_Node000007"><a xlink:href="glad_8c.html" target="_top" xlink:title=" ">
<polygon fill="white" stroke="#666666" points="435.12,-97 320.88,-97 320.88,-66.5 435.12,-66.5 435.12,-97"/>
<text text-anchor="start" x="328.88" y="-83.5" font-family="Helvetica,sans-Serif" font-size="10.00">Common/Libs/glad/src</text>
<text text-anchor="middle" x="378" y="-72.25" font-family="Helvetica,sans-Serif" font-size="10.00">/glad.c</text>
</a>
</g>
</g>
<!-- Node2&#45;&gt;Node7 -->
<g id="edge6_Node000002_Node000007" class="edge">
<title>Node2&#45;&gt;Node7</title>
<g id="a_edge6_Node000002_Node000007"><a xlink:title=" ">
<path fill="none" stroke="#63b8ff" d="M322.61,-125.79C334.64,-116.44 348.43,-105.73 359.24,-97.33"/>
<polygon fill="#63b8ff" stroke="#63b8ff" points="320.78,-122.79 315.03,-131.69 325.07,-128.31 320.78,-122.79"/>
</a>
</g>
</g>
<!-- Node4 -->
<g id="Node000004" class="node">
<title>Node4</title>
<g id="a_Node000004"><a xlink:href="ssplayer__render__gl_8cpp.html" target="_top" xlink:title=" ">
<polygon fill="white" stroke="#666666" points="130,-30.5 0,-30.5 0,0 130,0 130,-30.5"/>
<text text-anchor="start" x="8" y="-17" font-family="Helvetica,sans-Serif" font-size="10.00">Common/Drawer/ssplayer</text>
<text text-anchor="middle" x="65" y="-5.75" font-family="Helvetica,sans-Serif" font-size="10.00">_render_gl.cpp</text>
</a>
</g>
</g>
<!-- Node3&#45;&gt;Node4 -->
<g id="edge3_Node000003_Node000004" class="edge">
<title>Node3&#45;&gt;Node4</title>
<g id="a_edge3_Node000003_Node000004"><a xlink:title=" ">
<path fill="none" stroke="#63b8ff" d="M181.64,-67.08C157.27,-56.46 123.54,-41.76 98.61,-30.9"/>
<polygon fill="#63b8ff" stroke="#63b8ff" points="180.16,-70.25 190.72,-71.04 182.95,-63.84 180.16,-70.25"/>
</a>
</g>
</g>
<!-- Node5 -->
<g id="Node000005" class="node">
<title>Node5</title>
<g id="a_Node000005"><a xlink:href="ssplayer__shader__gl_8cpp.html" target="_top" xlink:title=" ">
<polygon fill="white" stroke="#666666" points="278,-30.5 148,-30.5 148,0 278,0 278,-30.5"/>
<text text-anchor="start" x="156" y="-17" font-family="Helvetica,sans-Serif" font-size="10.00">Common/Drawer/ssplayer</text>
<text text-anchor="middle" x="213" y="-5.75" font-family="Helvetica,sans-Serif" font-size="10.00">_shader_gl.cpp</text>
</a>
</g>
</g>
<!-- Node3&#45;&gt;Node5 -->
<g id="edge4_Node000003_Node000005" class="edge">
<title>Node3&#45;&gt;Node5</title>
<g id="a_edge4_Node000003_Node000005"><a xlink:title=" ">
<path fill="none" stroke="#63b8ff" d="M213,-60.37C213,-50.69 213,-39.35 213,-30.59"/>
<polygon fill="#63b8ff" stroke="#63b8ff" points="209.5,-60.27 213,-70.27 216.5,-60.27 209.5,-60.27"/>
</a>
</g>
</g>
<!-- Node6 -->
<g id="Node000006" class="node">
<title>Node6</title>
<g id="a_Node000006"><a xlink:href="_s_s_texture_g_l_8cpp.html" target="_top" xlink:title=" ">
<polygon fill="white" stroke="#666666" points="422.12,-30.5 295.88,-30.5 295.88,0 422.12,0 422.12,-30.5"/>
<text text-anchor="start" x="303.88" y="-17" font-family="Helvetica,sans-Serif" font-size="10.00">Common/Helper/OpenGL</text>
<text text-anchor="middle" x="359" y="-5.75" font-family="Helvetica,sans-Serif" font-size="10.00">/SSTextureGL.cpp</text>
</a>
</g>
</g>
<!-- Node3&#45;&gt;Node6 -->
<g id="edge5_Node000003_Node000006" class="edge">
<title>Node3&#45;&gt;Node6</title>
<g id="a_edge5_Node000003_Node000006"><a xlink:title=" ">
<path fill="none" stroke="#63b8ff" d="M243.94,-67.08C267.98,-56.46 301.26,-41.76 325.84,-30.9"/>
<polygon fill="#63b8ff" stroke="#63b8ff" points="242.73,-63.79 234.99,-71.03 245.55,-70.19 242.73,-63.79"/>
</a>
</g>
</g>
</g>
</svg>
