<?xml version="1.0" encoding="UTF-8" standalone="no"?>
<!DOCTYPE svg PUBLIC "-//W3C//DTD SVG 1.1//EN"
 "http://www.w3.org/Graphics/SVG/1.1/DTD/svg11.dtd">
<!-- Generated by graphviz version 12.2.1 (20241206.2353)
 -->
<!-- Title: Common/Loader/ssFilesystem.h Pages: 1 -->
<svg width="906pt" height="94pt"
 viewBox="0.00 0.00 906.00 93.75" xmlns="http://www.w3.org/2000/svg" xmlns:xlink="http://www.w3.org/1999/xlink">
<g id="graph0" class="graph" transform="scale(1 1) rotate(0) translate(4 89.75)">
<title>Common/Loader/ssFilesystem.h</title>
<!-- Node1 -->
<g id="Node000001" class="node">
<title>Node1</title>
<g id="a_Node000001"><a xlink:title=" ">
<polygon fill="#999999" stroke="#666666" points="548,-85.75 390.25,-85.75 390.25,-66.5 548,-66.5 548,-85.75"/>
<text text-anchor="middle" x="469.12" y="-72.25" font-family="Helvetica,sans-Serif" font-size="10.00">Common/Loader/ssFilesystem.h</text>
</a>
</g>
</g>
<!-- Node2 -->
<g id="Node000002" class="node">
<title>Node2</title>
<g id="a_Node000002"><a xlink:href="ss_filesystem_8cpp.html" target="_top" xlink:title=" ">
<polygon fill="white" stroke="#666666" points="168.25,-24.88 0,-24.88 0,-5.63 168.25,-5.63 168.25,-24.88"/>
<text text-anchor="middle" x="84.12" y="-11.38" font-family="Helvetica,sans-Serif" font-size="10.00">Common/Loader/ssFilesystem.cpp</text>
</a>
</g>
</g>
<!-- Node1&#45;&gt;Node2 -->
<g id="edge1_Node000001_Node000002" class="edge">
<title>Node1&#45;&gt;Node2</title>
<g id="a_edge1_Node000001_Node000002"><a xlink:title=" ">
<path fill="none" stroke="#63b8ff" d="M398.48,-64.34C339.34,-55.3 252.73,-42.07 177.12,-30.5 166.15,-28.82 154.44,-27.03 143.16,-25.3"/>
<polygon fill="#63b8ff" stroke="#63b8ff" points="397.65,-67.75 408.07,-65.8 398.71,-60.83 397.65,-67.75"/>
</a>
</g>
</g>
<!-- Node3 -->
<g id="Node000003" class="node">
<title>Node3</title>
<g id="a_Node000003"><a xlink:href="ssloader__ssae_8cpp.html" target="_top" xlink:title=" ">
<polygon fill="white" stroke="#666666" points="314,-30.5 186.25,-30.5 186.25,0 314,0 314,-30.5"/>
<text text-anchor="start" x="194.25" y="-17" font-family="Helvetica,sans-Serif" font-size="10.00">Common/Loader/ssloader</text>
<text text-anchor="middle" x="250.12" y="-5.75" font-family="Helvetica,sans-Serif" font-size="10.00">_ssae.cpp</text>
</a>
</g>
</g>
<!-- Node1&#45;&gt;Node3 -->
<g id="edge2_Node000001_Node000003" class="edge">
<title>Node1&#45;&gt;Node3</title>
<g id="a_edge2_Node000001_Node000003"><a xlink:title=" ">
<path fill="none" stroke="#63b8ff" d="M424.65,-63.17C390.02,-53.86 341.77,-40.89 304.79,-30.94"/>
<polygon fill="#63b8ff" stroke="#63b8ff" points="423.36,-66.45 433.92,-65.66 425.18,-59.69 423.36,-66.45"/>
</a>
</g>
</g>
<!-- Node4 -->
<g id="Node000004" class="node">
<title>Node4</title>
<g id="a_Node000004"><a xlink:href="ssloader__ssce_8cpp.html" target="_top" xlink:title=" ">
<polygon fill="white" stroke="#666666" points="460,-30.5 332.25,-30.5 332.25,0 460,0 460,-30.5"/>
<text text-anchor="start" x="340.25" y="-17" font-family="Helvetica,sans-Serif" font-size="10.00">Common/Loader/ssloader</text>
<text text-anchor="middle" x="396.12" y="-5.75" font-family="Helvetica,sans-Serif" font-size="10.00">_ssce.cpp</text>
</a>
</g>
</g>
<!-- Node1&#45;&gt;Node4 -->
<g id="edge3_Node000001_Node000004" class="edge">
<title>Node1&#45;&gt;Node4</title>
<g id="a_edge3_Node000001_Node000004"><a xlink:title=" ">
<path fill="none" stroke="#63b8ff" d="M449.2,-59.06C438.25,-50.23 424.78,-39.36 414.14,-30.78"/>
<polygon fill="#63b8ff" stroke="#63b8ff" points="446.88,-61.68 456.86,-65.23 451.27,-56.23 446.88,-61.68"/>
</a>
</g>
</g>
<!-- Node5 -->
<g id="Node000005" class="node">
<title>Node5</title>
<g id="a_Node000005"><a xlink:href="ssloader__ssee_8cpp.html" target="_top" xlink:title=" ">
<polygon fill="white" stroke="#666666" points="606,-30.5 478.25,-30.5 478.25,0 606,0 606,-30.5"/>
<text text-anchor="start" x="486.25" y="-17" font-family="Helvetica,sans-Serif" font-size="10.00">Common/Loader/ssloader</text>
<text text-anchor="middle" x="542.12" y="-5.75" font-family="Helvetica,sans-Serif" font-size="10.00">_ssee.cpp</text>
</a>
</g>
</g>
<!-- Node1&#45;&gt;Node5 -->
<g id="edge4_Node000001_Node000005" class="edge">
<title>Node1&#45;&gt;Node5</title>
<g id="a_edge4_Node000001_Node000005"><a xlink:title=" ">
<path fill="none" stroke="#63b8ff" d="M489.05,-59.06C500,-50.23 513.47,-39.36 524.11,-30.78"/>
<polygon fill="#63b8ff" stroke="#63b8ff" points="486.98,-56.23 481.39,-65.23 491.37,-61.68 486.98,-56.23"/>
</a>
</g>
</g>
<!-- Node6 -->
<g id="Node000006" class="node">
<title>Node6</title>
<g id="a_Node000006"><a xlink:href="ssloader__sspj_8cpp.html" target="_top" xlink:title=" ">
<polygon fill="white" stroke="#666666" points="752,-30.5 624.25,-30.5 624.25,0 752,0 752,-30.5"/>
<text text-anchor="start" x="632.25" y="-17" font-family="Helvetica,sans-Serif" font-size="10.00">Common/Loader/ssloader</text>
<text text-anchor="middle" x="688.12" y="-5.75" font-family="Helvetica,sans-Serif" font-size="10.00">_sspj.cpp</text>
</a>
</g>
</g>
<!-- Node1&#45;&gt;Node6 -->
<g id="edge5_Node000001_Node000006" class="edge">
<title>Node1&#45;&gt;Node6</title>
<g id="a_edge5_Node000001_Node000006"><a xlink:title=" ">
<path fill="none" stroke="#63b8ff" d="M513.6,-63.17C548.23,-53.86 596.48,-40.89 633.46,-30.94"/>
<polygon fill="#63b8ff" stroke="#63b8ff" points="513.07,-59.69 504.33,-65.66 514.89,-66.45 513.07,-59.69"/>
</a>
</g>
</g>
<!-- Node7 -->
<g id="Node000007" class="node">
<title>Node7</title>
<g id="a_Node000007"><a xlink:href="ssloader__ssqe_8cpp.html" target="_top" xlink:title=" ">
<polygon fill="white" stroke="#666666" points="898,-30.5 770.25,-30.5 770.25,0 898,0 898,-30.5"/>
<text text-anchor="start" x="778.25" y="-17" font-family="Helvetica,sans-Serif" font-size="10.00">Common/Loader/ssloader</text>
<text text-anchor="middle" x="834.12" y="-5.75" font-family="Helvetica,sans-Serif" font-size="10.00">_ssqe.cpp</text>
</a>
</g>
</g>
<!-- Node1&#45;&gt;Node7 -->
<g id="edge6_Node000001_Node000007" class="edge">
<title>Node1&#45;&gt;Node7</title>
<g id="a_edge6_Node000001_Node000007"><a xlink:title=" ">
<path fill="none" stroke="#63b8ff" d="M545,-64.4C604.02,-55.85 687.91,-43.24 761.12,-30.5 764.05,-29.99 767.04,-29.46 770.06,-28.91"/>
<polygon fill="#63b8ff" stroke="#63b8ff" points="544.8,-60.89 535.41,-65.79 545.8,-67.82 544.8,-60.89"/>
</a>
</g>
</g>
</g>
</svg>
