<?xml version="1.0" encoding="UTF-8" standalone="no"?>
<!DOCTYPE svg PUBLIC "-//W3C//DTD SVG 1.1//EN"
 "http://www.w3.org/Graphics/SVG/1.1/DTD/svg11.dtd">
<!-- Generated by graphviz version 12.2.1 (20241206.2353)
 -->
<!-- Title: Common/Loader/ssFilesystem.cpp Pages: 1 -->
<svg width="202pt" height="138pt"
 viewBox="0.00 0.00 202.00 137.75" xmlns="http://www.w3.org/2000/svg" xmlns:xlink="http://www.w3.org/1999/xlink">
<g id="graph0" class="graph" transform="scale(1 1) rotate(0) translate(4 133.75)">
<title>Common/Loader/ssFilesystem.cpp</title>
<!-- Node1 -->
<g id="Node000001" class="node">
<title>Node1</title>
<g id="a_Node000001"><a xlink:title=" ">
<polygon fill="#999999" stroke="#666666" points="183.75,-129.75 15.5,-129.75 15.5,-110.5 183.75,-110.5 183.75,-129.75"/>
<text text-anchor="middle" x="99.62" y="-116.25" font-family="Helvetica,sans-Serif" font-size="10.00">Common/Loader/ssFilesystem.cpp</text>
</a>
</g>
</g>
<!-- Node2 -->
<g id="Node000002" class="node">
<title>Node2</title>
<g id="a_Node000002"><a xlink:href="ss_filesystem_8h.html" target="_top" xlink:title=" ">
<polygon fill="white" stroke="#666666" points="194,-74.5 111.25,-74.5 111.25,-55.25 194,-55.25 194,-74.5"/>
<text text-anchor="middle" x="152.62" y="-61" font-family="Helvetica,sans-Serif" font-size="10.00">ssFilesystem.h</text>
</a>
</g>
</g>
<!-- Node1&#45;&gt;Node2 -->
<g id="edge1_Node000001_Node000002" class="edge">
<title>Node1&#45;&gt;Node2</title>
<g id="a_edge1_Node000001_Node000002"><a xlink:title=" ">
<path fill="none" stroke="#63b8ff" d="M108.38,-110.33C115.77,-102.9 126.59,-92.04 135.67,-82.91"/>
<polygon fill="#63b8ff" stroke="#63b8ff" points="138.04,-85.49 142.62,-75.93 133.08,-80.55 138.04,-85.49"/>
</a>
</g>
</g>
<!-- Node5 -->
<g id="Node000005" class="node">
<title>Node5</title>
<g id="a_Node000005"><a xlink:href="sscharconverter_8h.html" target="_top" xlink:title=" ">
<polygon fill="white" stroke="#666666" points="93.25,-74.5 0,-74.5 0,-55.25 93.25,-55.25 93.25,-74.5"/>
<text text-anchor="middle" x="46.62" y="-61" font-family="Helvetica,sans-Serif" font-size="10.00">sscharconverter.h</text>
</a>
</g>
</g>
<!-- Node1&#45;&gt;Node5 -->
<g id="edge4_Node000001_Node000005" class="edge">
<title>Node1&#45;&gt;Node5</title>
<g id="a_edge4_Node000001_Node000005"><a xlink:title=" ">
<path fill="none" stroke="#63b8ff" d="M90.87,-110.33C83.48,-102.9 72.66,-92.04 63.58,-82.91"/>
<polygon fill="#63b8ff" stroke="#63b8ff" points="66.17,-80.55 56.63,-75.93 61.21,-85.49 66.17,-80.55"/>
</a>
</g>
</g>
<!-- Node3 -->
<g id="Node000003" class="node">
<title>Node3</title>
<g id="a_Node000003"><a xlink:title=" ">
<polygon fill="#e0e0e0" stroke="#999999" points="90.62,-19.25 50.62,-19.25 50.62,0 90.62,0 90.62,-19.25"/>
<text text-anchor="middle" x="70.62" y="-5.75" font-family="Helvetica,sans-Serif" font-size="10.00">string</text>
</a>
</g>
</g>
<!-- Node2&#45;&gt;Node3 -->
<g id="edge2_Node000002_Node000003" class="edge">
<title>Node2&#45;&gt;Node3</title>
<g id="a_edge2_Node000002_Node000003"><a xlink:title=" ">
<path fill="none" stroke="#63b8ff" d="M138.71,-54.84C126.46,-46.89 108.37,-35.14 93.91,-25.75"/>
<polygon fill="#63b8ff" stroke="#63b8ff" points="96.17,-23.04 85.87,-20.53 92.35,-28.91 96.17,-23.04"/>
</a>
</g>
</g>
<!-- Node4 -->
<g id="Node000004" class="node">
<title>Node4</title>
<g id="a_Node000004"><a xlink:title=" ">
<polygon fill="#e0e0e0" stroke="#999999" points="173.75,-19.25 131.5,-19.25 131.5,0 173.75,0 173.75,-19.25"/>
<text text-anchor="middle" x="152.62" y="-5.75" font-family="Helvetica,sans-Serif" font-size="10.00">cstdio</text>
</a>
</g>
</g>
<!-- Node2&#45;&gt;Node4 -->
<g id="edge3_Node000002_Node000004" class="edge">
<title>Node2&#45;&gt;Node4</title>
<g id="a_edge3_Node000002_Node000004"><a xlink:title=" ">
<path fill="none" stroke="#63b8ff" d="M152.62,-55.08C152.62,-48.57 152.62,-39.42 152.62,-31.12"/>
<polygon fill="#63b8ff" stroke="#63b8ff" points="156.13,-31.12 152.63,-21.12 149.13,-31.12 156.13,-31.12"/>
</a>
</g>
</g>
<!-- Node5&#45;&gt;Node3 -->
<g id="edge5_Node000005_Node000003" class="edge">
<title>Node5&#45;&gt;Node3</title>
<g id="a_edge5_Node000005_Node000003"><a xlink:title=" ">
<path fill="none" stroke="#63b8ff" d="M50.59,-55.08C53.66,-48.26 58.04,-38.56 61.91,-29.95"/>
<polygon fill="#63b8ff" stroke="#63b8ff" points="65.04,-31.54 65.95,-20.99 58.65,-28.67 65.04,-31.54"/>
</a>
</g>
</g>
</g>
</svg>
