<?xml version="1.0" encoding="UTF-8" standalone="no"?>
<!DOCTYPE svg PUBLIC "-//W3C//DTD SVG 1.1//EN"
 "http://www.w3.org/Graphics/SVG/1.1/DTD/svg11.dtd">
<!-- Generated by graphviz version 12.2.1 (20241206.2353)
 -->
<!-- Title: Common/Loader/ssFilesystem.h Pages: 1 -->
<svg width="166pt" height="83pt"
 viewBox="0.00 0.00 165.75 82.50" xmlns="http://www.w3.org/2000/svg" xmlns:xlink="http://www.w3.org/1999/xlink">
<g id="graph0" class="graph" transform="scale(1 1) rotate(0) translate(4 78.5)">
<title>Common/Loader/ssFilesystem.h</title>
<!-- Node1 -->
<g id="Node000001" class="node">
<title>Node1</title>
<g id="a_Node000001"><a xlink:title=" ">
<polygon fill="#999999" stroke="#666666" points="157.75,-74.5 0,-74.5 0,-55.25 157.75,-55.25 157.75,-74.5"/>
<text text-anchor="middle" x="78.88" y="-61" font-family="Helvetica,sans-Serif" font-size="10.00">Common/Loader/ssFilesystem.h</text>
</a>
</g>
</g>
<!-- Node2 -->
<g id="Node000002" class="node">
<title>Node2</title>
<g id="a_Node000002"><a xlink:title=" ">
<polygon fill="#e0e0e0" stroke="#999999" points="69.88,-19.25 29.88,-19.25 29.88,0 69.88,0 69.88,-19.25"/>
<text text-anchor="middle" x="49.88" y="-5.75" font-family="Helvetica,sans-Serif" font-size="10.00">string</text>
</a>
</g>
</g>
<!-- Node1&#45;&gt;Node2 -->
<g id="edge1_Node000001_Node000002" class="edge">
<title>Node1&#45;&gt;Node2</title>
<g id="a_edge1_Node000001_Node000002"><a xlink:title=" ">
<path fill="none" stroke="#63b8ff" d="M74.09,-55.08C70.33,-48.19 64.97,-38.34 60.24,-29.66"/>
<polygon fill="#63b8ff" stroke="#63b8ff" points="63.35,-28.05 55.49,-20.94 57.2,-31.39 63.35,-28.05"/>
</a>
</g>
</g>
<!-- Node3 -->
<g id="Node000003" class="node">
<title>Node3</title>
<g id="a_Node000003"><a xlink:title=" ">
<polygon fill="#e0e0e0" stroke="#999999" points="130,-19.25 87.75,-19.25 87.75,0 130,0 130,-19.25"/>
<text text-anchor="middle" x="108.88" y="-5.75" font-family="Helvetica,sans-Serif" font-size="10.00">cstdio</text>
</a>
</g>
</g>
<!-- Node1&#45;&gt;Node3 -->
<g id="edge2_Node000001_Node000003" class="edge">
<title>Node1&#45;&gt;Node3</title>
<g id="a_edge2_Node000001_Node000003"><a xlink:title=" ">
<path fill="none" stroke="#63b8ff" d="M83.83,-55.08C87.76,-48.11 93.39,-38.12 98.31,-29.37"/>
<polygon fill="#63b8ff" stroke="#63b8ff" points="101.21,-31.36 103.07,-20.93 95.11,-27.92 101.21,-31.36"/>
</a>
</g>
</g>
</g>
</svg>
