<?xml version="1.0" encoding="UTF-8" standalone="no"?>
<!DOCTYPE svg PUBLIC "-//W3C//DTD SVG 1.1//EN"
 "http://www.w3.org/Graphics/SVG/1.1/DTD/svg11.dtd">
<!-- Generated by graphviz version 9.0.0 (20230911.1827)
 -->
<!-- Title: Common/Helper/ssHelper.h Pages: 1 -->
<svg width="1212pt" height="469pt"
 viewBox="0.00 0.00 1211.88 469.25" xmlns="http://www.w3.org/2000/svg" xmlns:xlink="http://www.w3.org/1999/xlink">
<g id="graph0" class="graph" transform="scale(1 1) rotate(0) translate(4 465.25)">
<title>Common/Helper/ssHelper.h</title>
<!-- Node1 -->
<g id="Node000001" class="node">
<title>Node1</title>
<g id="a_Node000001"><a xlink:title=" ">
<polygon fill="#999999" stroke="#666666" points="240.25,-461.25 103.5,-461.25 103.5,-442 240.25,-442 240.25,-461.25"/>
<text text-anchor="middle" x="171.88" y="-447.75" font-family="Helvetica,sans-Serif" font-size="10.00">Common/Helper/ssHelper.h</text>
</a>
</g>
</g>
<!-- Node2 -->
<g id="Node000002" class="node">
<title>Node2</title>
<g id="a_Node000002"><a xlink:href="ssloader_8h.html" target="_top" xlink:title=" ">
<polygon fill="white" stroke="#666666" points="692.62,-406 591.12,-406 591.12,-386.75 692.62,-386.75 692.62,-406"/>
<text text-anchor="middle" x="641.88" y="-392.5" font-family="Helvetica,sans-Serif" font-size="10.00">../Loader/ssloader.h</text>
</a>
</g>
</g>
<!-- Node1&#45;&gt;Node2 -->
<g id="edge1_Node000001_Node000002" class="edge">
<title>Node1&#45;&gt;Node2</title>
<g id="a_edge1_Node000001_Node000002"><a xlink:title=" ">
<path fill="none" stroke="#63b8ff" d="M240.72,-442.82C331.98,-432.49 491.7,-414.39 579.55,-404.44"/>
<polygon fill="#63b8ff" stroke="#63b8ff" points="579.89,-407.92 589.44,-403.32 579.11,-400.96 579.89,-407.92"/>
</a>
</g>
</g>
<!-- Node31 -->
<g id="Node000031" class="node">
<title>Node31</title>
<g id="a_Node000031"><a xlink:href="ssh_object_8h.html" target="_top" xlink:title=" ">
<polygon fill="white" stroke="#666666" points="106.12,-350.75 37.62,-350.75 37.62,-331.5 106.12,-331.5 106.12,-350.75"/>
<text text-anchor="middle" x="71.88" y="-337.25" font-family="Helvetica,sans-Serif" font-size="10.00">sshObject.h</text>
</a>
</g>
</g>
<!-- Node1&#45;&gt;Node31 -->
<g id="edge63_Node000001_Node000031" class="edge">
<title>Node1&#45;&gt;Node31</title>
<g id="a_edge63_Node000001_Node000031"><a xlink:title=" ">
<path fill="none" stroke="#63b8ff" d="M160.08,-441.72C149.1,-433.15 132.57,-419.54 119.88,-406 106.4,-391.62 93.1,-373.54 83.93,-360.28"/>
<polygon fill="#63b8ff" stroke="#63b8ff" points="86.9,-358.42 78.39,-352.11 81.1,-362.35 86.9,-358.42"/>
</a>
</g>
</g>
<!-- Node32 -->
<g id="Node000032" class="node">
<title>Node32</title>
<g id="a_Node000032"><a xlink:href="ssh_task_8h.html" target="_top" xlink:title=" ">
<polygon fill="white" stroke="#666666" points="143.38,-240.25 82.38,-240.25 82.38,-221 143.38,-221 143.38,-240.25"/>
<text text-anchor="middle" x="112.88" y="-226.75" font-family="Helvetica,sans-Serif" font-size="10.00">sshTask.h</text>
</a>
</g>
</g>
<!-- Node1&#45;&gt;Node32 -->
<g id="edge68_Node000001_Node000032" class="edge">
<title>Node1&#45;&gt;Node32</title>
<g id="a_edge68_Node000001_Node000032"><a xlink:title=" ">
<path fill="none" stroke="#63b8ff" d="M168.95,-441.78C166.02,-432.8 161.44,-418.49 157.88,-406 142.03,-350.53 125.65,-284.44 117.74,-251.85"/>
<polygon fill="#63b8ff" stroke="#63b8ff" points="121.16,-251.12 115.41,-242.22 114.35,-252.76 121.16,-251.12"/>
</a>
</g>
</g>
<!-- Node33 -->
<g id="Node000033" class="node">
<title>Node33</title>
<g id="a_Node000033"><a xlink:href="ssh_scene_8h.html" target="_top" xlink:title=" ">
<polygon fill="white" stroke="#666666" points="67.75,-406 0,-406 0,-386.75 67.75,-386.75 67.75,-406"/>
<text text-anchor="middle" x="33.88" y="-392.5" font-family="Helvetica,sans-Serif" font-size="10.00">sshScene.h</text>
</a>
</g>
</g>
<!-- Node1&#45;&gt;Node33 -->
<g id="edge69_Node000001_Node000033" class="edge">
<title>Node1&#45;&gt;Node33</title>
<g id="a_edge69_Node000001_Node000033"><a xlink:title=" ">
<path fill="none" stroke="#63b8ff" d="M148.47,-441.59C126.36,-433.06 92.96,-420.17 67.91,-410.51"/>
<polygon fill="#63b8ff" stroke="#63b8ff" points="69.4,-407.33 58.81,-407 66.88,-413.86 69.4,-407.33"/>
</a>
</g>
</g>
<!-- Node34 -->
<g id="Node000034" class="node">
<title>Node34</title>
<g id="a_Node000034"><a xlink:href="_issh_texture_8h.html" target="_top" xlink:title=" ">
<polygon fill="white" stroke="#666666" points="299.5,-129.75 224.25,-129.75 224.25,-110.5 299.5,-110.5 299.5,-129.75"/>
<text text-anchor="middle" x="261.88" y="-116.25" font-family="Helvetica,sans-Serif" font-size="10.00">IsshTexture.h</text>
</a>
</g>
</g>
<!-- Node1&#45;&gt;Node34 -->
<g id="edge71_Node000001_Node000034" class="edge">
<title>Node1&#45;&gt;Node34</title>
<g id="a_edge71_Node000001_Node000034"><a xlink:title=" ">
<path fill="none" stroke="#63b8ff" d="M171.88,-441.62C171.88,-423.03 171.88,-379.05 171.88,-342.12 171.88,-342.12 171.88,-342.12 171.88,-229.62 171.88,-200.01 172.96,-189.34 190.88,-165.75 200.77,-152.72 215.65,-142.53 229.24,-135.2"/>
<polygon fill="#63b8ff" stroke="#63b8ff" points="230.57,-138.45 237.93,-130.83 227.42,-132.2 230.57,-138.45"/>
</a>
</g>
</g>
<!-- Node35 -->
<g id="Node000035" class="node">
<title>Node35</title>
<g id="a_Node000035"><a xlink:href="_x_p_file_open_dlg_8h.html" target="_top" xlink:title=" ">
<polygon fill="white" stroke="#666666" points="329.75,-406 238,-406 238,-386.75 329.75,-386.75 329.75,-406"/>
<text text-anchor="middle" x="283.88" y="-392.5" font-family="Helvetica,sans-Serif" font-size="10.00">XPFileOpenDlg.h</text>
</a>
</g>
</g>
<!-- Node1&#45;&gt;Node35 -->
<g id="edge74_Node000001_Node000035" class="edge">
<title>Node1&#45;&gt;Node35</title>
<g id="a_edge74_Node000001_Node000035"><a xlink:title=" ">
<path fill="none" stroke="#63b8ff" d="M190.87,-441.59C208.33,-433.29 234.47,-420.86 254.6,-411.29"/>
<polygon fill="#63b8ff" stroke="#63b8ff" points="255.89,-414.56 263.42,-407.1 252.88,-408.24 255.89,-414.56"/>
</a>
</g>
</g>
<!-- Node36 -->
<g id="Node000036" class="node">
<title>Node36</title>
<g id="a_Node000036"><a xlink:href="_debug_print_8h.html" target="_top" xlink:title=" ">
<polygon fill="white" stroke="#666666" points="274.38,-350.75 201.38,-350.75 201.38,-331.5 274.38,-331.5 274.38,-350.75"/>
<text text-anchor="middle" x="237.88" y="-337.25" font-family="Helvetica,sans-Serif" font-size="10.00">DebugPrint.h</text>
</a>
</g>
</g>
<!-- Node1&#45;&gt;Node36 -->
<g id="edge75_Node000001_Node000036" class="edge">
<title>Node1&#45;&gt;Node36</title>
<g id="a_edge75_Node000001_Node000036"><a xlink:title=" ">
<path fill="none" stroke="#63b8ff" d="M177.28,-441.75C188.01,-424.1 212.22,-384.3 226.58,-360.7"/>
<polygon fill="#63b8ff" stroke="#63b8ff" points="229.41,-362.78 231.61,-352.42 223.43,-359.14 229.41,-362.78"/>
</a>
</g>
</g>
<!-- Node3 -->
<g id="Node000003" class="node">
<title>Node3</title>
<g id="a_Node000003"><a xlink:href="sstypes_8h.html" target="_top" xlink:title=" ">
<polygon fill="white" stroke="#666666" points="929.25,-74.5 870.5,-74.5 870.5,-55.25 929.25,-55.25 929.25,-74.5"/>
<text text-anchor="middle" x="899.88" y="-61" font-family="Helvetica,sans-Serif" font-size="10.00">sstypes.h</text>
</a>
</g>
</g>
<!-- Node2&#45;&gt;Node3 -->
<g id="edge2_Node000002_Node000003" class="edge">
<title>Node2&#45;&gt;Node3</title>
<g id="a_edge2_Node000002_Node000003"><a xlink:title=" ">
<path fill="none" stroke="#63b8ff" d="M692.74,-396.25C831.08,-397.29 1203.88,-390.47 1203.88,-286.88 1203.88,-286.88 1203.88,-286.88 1203.88,-174.38 1203.88,-132.59 1172.19,-129.32 1134.88,-110.5 1072.02,-78.79 989.36,-69.51 940.69,-66.86"/>
<polygon fill="#63b8ff" stroke="#63b8ff" points="941.04,-63.37 930.89,-66.4 940.71,-70.36 941.04,-63.37"/>
</a>
</g>
</g>
<!-- Node9 -->
<g id="Node000009" class="node">
<title>Node9</title>
<g id="a_Node000009"><a xlink:href="ssarchiver_8h.html" target="_top" xlink:title=" ">
<polygon fill="white" stroke="#666666" points="745.12,-129.75 676.62,-129.75 676.62,-110.5 745.12,-110.5 745.12,-129.75"/>
<text text-anchor="middle" x="710.88" y="-116.25" font-family="Helvetica,sans-Serif" font-size="10.00">ssarchiver.h</text>
</a>
</g>
</g>
<!-- Node2&#45;&gt;Node9 -->
<g id="edge8_Node000002_Node000009" class="edge">
<title>Node2&#45;&gt;Node9</title>
<g id="a_edge8_Node000002_Node000009"><a xlink:title=" ">
<path fill="none" stroke="#63b8ff" d="M600.42,-386.37C542.08,-371.39 445.54,-336.83 470.88,-276.25 497.85,-211.74 523.52,-202.72 582.88,-165.75 608.19,-149.98 639.82,-138.89 665.3,-131.71"/>
<polygon fill="#63b8ff" stroke="#63b8ff" points="665.96,-135.15 674.7,-129.17 664.14,-128.39 665.96,-135.15"/>
</a>
</g>
</g>
<!-- Node12 -->
<g id="Node000012" class="node">
<title>Node12</title>
<g id="a_Node000012"><a xlink:href="ssattribute_8h.html" target="_top" xlink:title=" ">
<polygon fill="white" stroke="#666666" points="401.88,-240.25 331.88,-240.25 331.88,-221 401.88,-221 401.88,-240.25"/>
<text text-anchor="middle" x="366.88" y="-226.75" font-family="Helvetica,sans-Serif" font-size="10.00">ssattribute.h</text>
</a>
</g>
</g>
<!-- Node2&#45;&gt;Node12 -->
<g id="edge14_Node000002_Node000012" class="edge">
<title>Node2&#45;&gt;Node12</title>
<g id="a_edge14_Node000002_Node000012"><a xlink:title=" ">
<path fill="none" stroke="#63b8ff" d="M590.8,-395.24C546.54,-392.72 482.73,-383.07 437.88,-350.75 403.15,-325.73 382.41,-278.01 372.98,-251.19"/>
<polygon fill="#63b8ff" stroke="#63b8ff" points="376.38,-250.32 369.91,-241.93 369.74,-252.52 376.38,-250.32"/>
</a>
</g>
</g>
<!-- Node20 -->
<g id="Node000020" class="node">
<title>Node20</title>
<g id="a_Node000020"><a xlink:href="ss_interpolation_8h.html" target="_top" xlink:title=" ">
<polygon fill="white" stroke="#666666" points="287.88,-185 199.88,-185 199.88,-165.75 287.88,-165.75 287.88,-185"/>
<text text-anchor="middle" x="243.88" y="-171.5" font-family="Helvetica,sans-Serif" font-size="10.00">ssInterpolation.h</text>
</a>
</g>
</g>
<!-- Node2&#45;&gt;Node20 -->
<g id="edge62_Node000002_Node000020" class="edge">
<title>Node2&#45;&gt;Node20</title>
<g id="a_edge62_Node000002_Node000020"><a xlink:title=" ">
<path fill="none" stroke="#63b8ff" d="M590.95,-394.03C542.71,-390.83 469.58,-380.87 413.88,-350.75 341.44,-311.58 280.82,-231.07 255.97,-194.81"/>
<polygon fill="#63b8ff" stroke="#63b8ff" points="259,-193.05 250.52,-186.7 253.19,-196.95 259,-193.05"/>
</a>
</g>
</g>
<!-- Node22 -->
<g id="Node000022" class="node">
<title>Node22</title>
<g id="a_Node000022"><a xlink:href="ssloader__sspj_8h.html" target="_top" xlink:title=" ">
<polygon fill="white" stroke="#666666" points="729,-350.75 644.75,-350.75 644.75,-331.5 729,-331.5 729,-350.75"/>
<text text-anchor="middle" x="686.88" y="-337.25" font-family="Helvetica,sans-Serif" font-size="10.00">ssloader_sspj.h</text>
</a>
</g>
</g>
<!-- Node2&#45;&gt;Node22 -->
<g id="edge31_Node000002_Node000022" class="edge">
<title>Node2&#45;&gt;Node22</title>
<g id="a_edge31_Node000002_Node000022"><a xlink:title=" ">
<path fill="none" stroke="#63b8ff" d="M649.31,-386.58C655.46,-379.3 664.39,-368.73 672,-359.73"/>
<polygon fill="#63b8ff" stroke="#63b8ff" points="674.52,-362.16 678.31,-352.27 669.18,-357.64 674.52,-362.16"/>
</a>
</g>
</g>
<!-- Node23 -->
<g id="Node000023" class="node">
<title>Node23</title>
<g id="a_Node000023"><a xlink:href="ssloader__ssae_8h.html" target="_top" xlink:title=" ">
<polygon fill="white" stroke="#666666" points="567.5,-295.5 480.25,-295.5 480.25,-276.25 567.5,-276.25 567.5,-295.5"/>
<text text-anchor="middle" x="523.88" y="-282" font-family="Helvetica,sans-Serif" font-size="10.00">ssloader_ssae.h</text>
</a>
</g>
</g>
<!-- Node2&#45;&gt;Node23 -->
<g id="edge58_Node000002_Node000023" class="edge">
<title>Node2&#45;&gt;Node23</title>
<g id="a_edge58_Node000002_Node000023"><a xlink:title=" ">
<path fill="none" stroke="#63b8ff" d="M632.22,-386.5C612.51,-368.38 567.39,-326.88 542.03,-303.57"/>
<polygon fill="#63b8ff" stroke="#63b8ff" points="544.51,-301.09 534.78,-296.9 539.77,-306.25 544.51,-301.09"/>
</a>
</g>
</g>
<!-- Node24 -->
<g id="Node000024" class="node">
<title>Node24</title>
<g id="a_Node000024"><a xlink:href="ssloader__ssce_8h.html" target="_top" xlink:title=" ">
<polygon fill="white" stroke="#666666" points="1060.5,-240.25 973.25,-240.25 973.25,-221 1060.5,-221 1060.5,-240.25"/>
<text text-anchor="middle" x="1016.88" y="-226.75" font-family="Helvetica,sans-Serif" font-size="10.00">ssloader_ssce.h</text>
</a>
</g>
</g>
<!-- Node2&#45;&gt;Node24 -->
<g id="edge59_Node000002_Node000024" class="edge">
<title>Node2&#45;&gt;Node24</title>
<g id="a_edge59_Node000002_Node000024"><a xlink:title=" ">
<path fill="none" stroke="#63b8ff" d="M692.81,-395.8C769.6,-393.6 914.84,-377.91 997.88,-295.5 1009.44,-284.02 1014.03,-265.83 1015.82,-251.79"/>
<polygon fill="#63b8ff" stroke="#63b8ff" points="1019.3,-252.15 1016.67,-241.89 1012.33,-251.56 1019.3,-252.15"/>
</a>
</g>
</g>
<!-- Node25 -->
<g id="Node000025" class="node">
<title>Node25</title>
<g id="a_Node000025"><a xlink:href="ssloader__ssee_8h.html" target="_top" xlink:title=" ">
<polygon fill="white" stroke="#666666" points="844.5,-295.5 757.25,-295.5 757.25,-276.25 844.5,-276.25 844.5,-295.5"/>
<text text-anchor="middle" x="800.88" y="-282" font-family="Helvetica,sans-Serif" font-size="10.00">ssloader_ssee.h</text>
</a>
</g>
</g>
<!-- Node2&#45;&gt;Node25 -->
<g id="edge60_Node000002_Node000025" class="edge">
<title>Node2&#45;&gt;Node25</title>
<g id="a_edge60_Node000002_Node000025"><a xlink:title=" ">
<path fill="none" stroke="#63b8ff" d="M667.67,-386.3C687.8,-378.55 715.94,-366.2 737.88,-350.75 756.7,-337.49 774.8,-318.23 786.73,-304.33"/>
<polygon fill="#63b8ff" stroke="#63b8ff" points="789.24,-306.79 792.96,-296.87 783.87,-302.3 789.24,-306.79"/>
</a>
</g>
</g>
<!-- Node29 -->
<g id="Node000029" class="node">
<title>Node29</title>
<g id="a_Node000029"><a xlink:href="ssloader__ssqe_8h.html" target="_top" xlink:title=" ">
<polygon fill="white" stroke="#666666" points="988.5,-295.5 901.25,-295.5 901.25,-276.25 988.5,-276.25 988.5,-295.5"/>
<text text-anchor="middle" x="944.88" y="-282" font-family="Helvetica,sans-Serif" font-size="10.00">ssloader_ssqe.h</text>
</a>
</g>
</g>
<!-- Node2&#45;&gt;Node29 -->
<g id="edge61_Node000002_Node000029" class="edge">
<title>Node2&#45;&gt;Node29</title>
<g id="a_edge61_Node000002_Node000029"><a xlink:title=" ">
<path fill="none" stroke="#63b8ff" d="M667.19,-386.31C720.99,-367.04 846.88,-321.97 908.96,-299.74"/>
<polygon fill="#63b8ff" stroke="#63b8ff" points="909.76,-303.17 918,-296.5 907.4,-296.58 909.76,-303.17"/>
</a>
</g>
</g>
<!-- Node4 -->
<g id="Node000004" class="node">
<title>Node4</title>
<g id="a_Node000004"><a xlink:title=" ">
<polygon fill="#e0e0e0" stroke="#999999" points="993.62,-19.25 946.12,-19.25 946.12,0 993.62,0 993.62,-19.25"/>
<text text-anchor="middle" x="969.88" y="-5.75" font-family="Helvetica,sans-Serif" font-size="10.00">stdlib.h</text>
</a>
</g>
</g>
<!-- Node3&#45;&gt;Node4 -->
<g id="edge3_Node000003_Node000004" class="edge">
<title>Node3&#45;&gt;Node4</title>
<g id="a_edge3_Node000003_Node000004"><a xlink:title=" ">
<path fill="none" stroke="#63b8ff" d="M911.75,-54.84C921.97,-47.07 936.95,-35.67 949.14,-26.4"/>
<polygon fill="#63b8ff" stroke="#63b8ff" points="951.13,-29.28 956.97,-20.44 946.89,-23.71 951.13,-29.28"/>
</a>
</g>
</g>
<!-- Node5 -->
<g id="Node000005" class="node">
<title>Node5</title>
<g id="a_Node000005"><a xlink:title=" ">
<polygon fill="#e0e0e0" stroke="#999999" points="711.88,-19.25 671.88,-19.25 671.88,0 711.88,0 711.88,-19.25"/>
<text text-anchor="middle" x="691.88" y="-5.75" font-family="Helvetica,sans-Serif" font-size="10.00">string</text>
</a>
</g>
</g>
<!-- Node3&#45;&gt;Node5 -->
<g id="edge4_Node000003_Node000005" class="edge">
<title>Node3&#45;&gt;Node5</title>
<g id="a_edge4_Node000003_Node000005"><a xlink:title=" ">
<path fill="none" stroke="#63b8ff" d="M870.07,-56.25C831.1,-46.27 763.13,-28.87 723.35,-18.68"/>
<polygon fill="#63b8ff" stroke="#63b8ff" points="724.23,-15.29 713.67,-16.21 722.49,-22.08 724.23,-15.29"/>
</a>
</g>
</g>
<!-- Node6 -->
<g id="Node000006" class="node">
<title>Node6</title>
<g id="a_Node000006"><a xlink:title=" ">
<polygon fill="#e0e0e0" stroke="#999999" points="307.38,-19.25 264.38,-19.25 264.38,0 307.38,0 307.38,-19.25"/>
<text text-anchor="middle" x="285.88" y="-5.75" font-family="Helvetica,sans-Serif" font-size="10.00">vector</text>
</a>
</g>
</g>
<!-- Node3&#45;&gt;Node6 -->
<g id="edge5_Node000003_Node000006" class="edge">
<title>Node3&#45;&gt;Node6</title>
<g id="a_edge5_Node000003_Node000006"><a xlink:title=" ">
<path fill="none" stroke="#63b8ff" d="M870.26,-57.84C864.82,-56.87 859.19,-55.96 853.88,-55.25 651.59,-28.42 406.47,-15.85 318.92,-11.98"/>
<polygon fill="#63b8ff" stroke="#63b8ff" points="319.28,-8.5 309.14,-11.56 318.98,-15.49 319.28,-8.5"/>
</a>
</g>
</g>
<!-- Node7 -->
<g id="Node000007" class="node">
<title>Node7</title>
<g id="a_Node000007"><a xlink:title=" ">
<polygon fill="#e0e0e0" stroke="#999999" points="854.38,-19.25 811.38,-19.25 811.38,0 854.38,0 854.38,-19.25"/>
<text text-anchor="middle" x="832.88" y="-5.75" font-family="Helvetica,sans-Serif" font-size="10.00">cmath</text>
</a>
</g>
</g>
<!-- Node3&#45;&gt;Node7 -->
<g id="edge6_Node000003_Node000007" class="edge">
<title>Node3&#45;&gt;Node7</title>
<g id="a_edge6_Node000003_Node000007"><a xlink:title=" ">
<path fill="none" stroke="#63b8ff" d="M888.51,-54.84C878.83,-47.15 864.68,-35.9 853.07,-26.68"/>
<polygon fill="#63b8ff" stroke="#63b8ff" points="855.26,-23.95 845.26,-20.47 850.91,-29.43 855.26,-23.95"/>
</a>
</g>
</g>
<!-- Node8 -->
<g id="Node000008" class="node">
<title>Node8</title>
<g id="a_Node000008"><a xlink:title=" ">
<polygon fill="#e0e0e0" stroke="#999999" points="927.75,-19.25 872,-19.25 872,0 927.75,0 927.75,-19.25"/>
<text text-anchor="middle" x="899.88" y="-5.75" font-family="Helvetica,sans-Serif" font-size="10.00">algorithm</text>
</a>
</g>
</g>
<!-- Node3&#45;&gt;Node8 -->
<g id="edge7_Node000003_Node000008" class="edge">
<title>Node3&#45;&gt;Node8</title>
<g id="a_edge7_Node000003_Node000008"><a xlink:title=" ">
<path fill="none" stroke="#63b8ff" d="M899.88,-55.08C899.88,-48.57 899.88,-39.42 899.88,-31.12"/>
<polygon fill="#63b8ff" stroke="#63b8ff" points="903.38,-31.12 899.88,-21.12 896.38,-31.12 903.38,-31.12"/>
</a>
</g>
</g>
<!-- Node9&#45;&gt;Node3 -->
<g id="edge10_Node000009_Node000003" class="edge">
<title>Node9&#45;&gt;Node3</title>
<g id="a_edge10_Node000009_Node000003"><a xlink:title=" ">
<path fill="none" stroke="#63b8ff" d="M742.94,-110.09C775.06,-101.04 824.6,-87.08 859.41,-77.28"/>
<polygon fill="#63b8ff" stroke="#63b8ff" points="860.02,-80.74 868.7,-74.66 858.12,-74 860.02,-80.74"/>
</a>
</g>
</g>
<!-- Node9&#45;&gt;Node5 -->
<g id="edge11_Node000009_Node000005" class="edge">
<title>Node9&#45;&gt;Node5</title>
<g id="a_edge11_Node000009_Node000005"><a xlink:title=" ">
<path fill="none" stroke="#63b8ff" d="M709.32,-110.25C706.3,-93 699.57,-54.58 695.41,-30.81"/>
<polygon fill="#63b8ff" stroke="#63b8ff" points="698.88,-30.36 693.71,-21.12 691.99,-31.57 698.88,-30.36"/>
</a>
</g>
</g>
<!-- Node9&#45;&gt;Node6 -->
<g id="edge12_Node000009_Node000006" class="edge">
<title>Node9&#45;&gt;Node6</title>
<g id="a_edge12_Node000009_Node000006"><a xlink:title=" ">
<path fill="none" stroke="#63b8ff" d="M695.92,-110.11C671.91,-96.07 622.91,-69.16 577.88,-55.25 486.77,-27.1 373.97,-16.3 319.05,-12.5"/>
<polygon fill="#63b8ff" stroke="#63b8ff" points="319.33,-9.01 309.12,-11.85 318.87,-15.99 319.33,-9.01"/>
</a>
</g>
</g>
<!-- Node10 -->
<g id="Node000010" class="node">
<title>Node10</title>
<g id="a_Node000010"><a xlink:title=" ">
<polygon fill="#e0e0e0" stroke="#999999" points="845.25,-74.5 738.5,-74.5 738.5,-55.25 845.25,-55.25 845.25,-74.5"/>
<text text-anchor="middle" x="791.88" y="-61" font-family="Helvetica,sans-Serif" font-size="10.00">./tinyxml2/tinyxml2.h</text>
</a>
</g>
</g>
<!-- Node9&#45;&gt;Node10 -->
<g id="edge9_Node000009_Node000010" class="edge">
<title>Node9&#45;&gt;Node10</title>
<g id="a_edge9_Node000009_Node000010"><a xlink:title=" ">
<path fill="none" stroke="#63b8ff" d="M724.62,-110.09C736.6,-102.21 754.25,-90.61 768.46,-81.27"/>
<polygon fill="#63b8ff" stroke="#63b8ff" points="770.37,-84.2 776.8,-75.78 766.52,-78.35 770.37,-84.2"/>
</a>
</g>
</g>
<!-- Node11 -->
<g id="Node000011" class="node">
<title>Node11</title>
<g id="a_Node000011"><a xlink:title=" ">
<polygon fill="#e0e0e0" stroke="#999999" points="258.25,-74.5 223.5,-74.5 223.5,-55.25 258.25,-55.25 258.25,-74.5"/>
<text text-anchor="middle" x="240.88" y="-61" font-family="Helvetica,sans-Serif" font-size="10.00">map</text>
</a>
</g>
</g>
<!-- Node9&#45;&gt;Node11 -->
<g id="edge13_Node000009_Node000011" class="edge">
<title>Node9&#45;&gt;Node11</title>
<g id="a_edge13_Node000009_Node000011"><a xlink:title=" ">
<path fill="none" stroke="#63b8ff" d="M676.35,-115.62C606.27,-108.44 442.3,-91.31 304.88,-74.5 293.35,-73.09 280.68,-71.41 269.67,-69.91"/>
<polygon fill="#63b8ff" stroke="#63b8ff" points="270.4,-66.48 260.02,-68.58 269.45,-73.41 270.4,-66.48"/>
</a>
</g>
</g>
<!-- Node12&#45;&gt;Node3 -->
<g id="edge15_Node000012_Node000003" class="edge">
<title>Node12&#45;&gt;Node3</title>
<g id="a_edge15_Node000012_Node000003"><a xlink:title=" ">
<path fill="none" stroke="#63b8ff" d="M382.26,-220.69C405.47,-207.47 451.05,-182.45 491.88,-165.75 567.76,-134.71 588.38,-130.55 667.88,-110.5 677.09,-108.17 794.71,-85.8 858.83,-73.64"/>
<polygon fill="#63b8ff" stroke="#63b8ff" points="859.49,-77.08 868.66,-71.78 858.18,-70.2 859.49,-77.08"/>
</a>
</g>
</g>
<!-- Node12&#45;&gt;Node11 -->
<g id="edge30_Node000012_Node000011" class="edge">
<title>Node12&#45;&gt;Node11</title>
<g id="a_edge30_Node000012_Node000011"><a xlink:title=" ">
<path fill="none" stroke="#63b8ff" d="M359,-220.79C346.77,-207.47 321.98,-182.08 296.88,-165.75 263.51,-144.05 236.64,-163.07 214.88,-129.75 205.39,-115.23 214.96,-96.69 225.06,-83.33"/>
<polygon fill="#63b8ff" stroke="#63b8ff" points="227.6,-85.75 231.28,-75.82 222.21,-81.29 227.6,-85.75"/>
</a>
</g>
</g>
<!-- Node13 -->
<g id="Node000013" class="node">
<title>Node13</title>
<g id="a_Node000013"><a xlink:href="ssvalue_8h.html" target="_top" xlink:title=" ">
<polygon fill="white" stroke="#666666" points="401.88,-185 343.88,-185 343.88,-165.75 401.88,-165.75 401.88,-185"/>
<text text-anchor="middle" x="372.88" y="-171.5" font-family="Helvetica,sans-Serif" font-size="10.00">ssvalue.h</text>
</a>
</g>
</g>
<!-- Node12&#45;&gt;Node13 -->
<g id="edge16_Node000012_Node000013" class="edge">
<title>Node12&#45;&gt;Node13</title>
<g id="a_edge16_Node000012_Node000013"><a xlink:title=" ">
<path fill="none" stroke="#63b8ff" d="M367.87,-220.83C368.61,-214.24 369.65,-204.96 370.6,-196.57"/>
<polygon fill="#63b8ff" stroke="#63b8ff" points="374.05,-197.19 371.69,-186.86 367.1,-196.41 374.05,-197.19"/>
</a>
</g>
</g>
<!-- Node12&#45;&gt;Node20 -->
<g id="edge28_Node000012_Node000020" class="edge">
<title>Node12&#45;&gt;Node20</title>
<g id="a_edge28_Node000012_Node000020"><a xlink:title=" ">
<path fill="none" stroke="#63b8ff" d="M346.01,-220.59C326.57,-212.18 297.33,-199.52 275.11,-189.9"/>
<polygon fill="#63b8ff" stroke="#63b8ff" points="276.8,-186.81 266.23,-186.05 274.02,-193.24 276.8,-186.81"/>
</a>
</g>
</g>
<!-- Node21 -->
<g id="Node000021" class="node">
<title>Node21</title>
<g id="a_Node000021"><a xlink:title=" ">
<polygon fill="#e0e0e0" stroke="#999999" points="144.28,-185 115.47,-185 115.47,-165.75 144.28,-165.75 144.28,-185"/>
<text text-anchor="middle" x="129.88" y="-171.5" font-family="Helvetica,sans-Serif" font-size="10.00">list</text>
</a>
</g>
</g>
<!-- Node12&#45;&gt;Node21 -->
<g id="edge29_Node000012_Node000021" class="edge">
<title>Node12&#45;&gt;Node21</title>
<g id="a_edge29_Node000012_Node000021"><a xlink:title=" ">
<path fill="none" stroke="#63b8ff" d="M331.39,-221.65C283.22,-210.83 198.26,-191.74 155.7,-182.18"/>
<polygon fill="#63b8ff" stroke="#63b8ff" points="156.65,-178.8 146.12,-180.03 155.11,-185.63 156.65,-178.8"/>
</a>
</g>
</g>
<!-- Node13&#45;&gt;Node6 -->
<g id="edge26_Node000013_Node000006" class="edge">
<title>Node13&#45;&gt;Node6</title>
<g id="a_edge26_Node000013_Node000006"><a xlink:title=" ">
<path fill="none" stroke="#63b8ff" d="M343.46,-170.32C302.18,-163.96 230.35,-150.21 214.88,-129.75 194.9,-103.35 198.86,-84.23 214.88,-55.25 223.26,-40.07 239.21,-29.36 253.87,-22.24"/>
<polygon fill="#63b8ff" stroke="#63b8ff" points="255.08,-25.54 262.81,-18.29 252.25,-19.13 255.08,-25.54"/>
</a>
</g>
</g>
<!-- Node13&#45;&gt;Node9 -->
<g id="edge17_Node000013_Node000009" class="edge">
<title>Node13&#45;&gt;Node9</title>
<g id="a_edge17_Node000013_Node000009"><a xlink:title=" ">
<path fill="none" stroke="#63b8ff" d="M402.28,-169.74C461.31,-160.44 594.61,-139.44 665.14,-128.33"/>
<polygon fill="#63b8ff" stroke="#63b8ff" points="665.48,-131.82 674.81,-126.81 664.39,-124.91 665.48,-131.82"/>
</a>
</g>
</g>
<!-- Node13&#45;&gt;Node11 -->
<g id="edge25_Node000013_Node000011" class="edge">
<title>Node13&#45;&gt;Node11</title>
<g id="a_edge25_Node000013_Node000011"><a xlink:title=" ">
<path fill="none" stroke="#63b8ff" d="M365.1,-165.54C353.53,-152.66 330.8,-128.32 308.88,-110.5 295.56,-99.68 279.57,-89.07 266.43,-80.92"/>
<polygon fill="#63b8ff" stroke="#63b8ff" points="268.28,-77.95 257.91,-75.74 264.64,-83.92 268.28,-77.95"/>
</a>
</g>
</g>
<!-- Node14 -->
<g id="Node000014" class="node">
<title>Node14</title>
<g id="a_Node000014"><a xlink:href="ssstring__uty_8h.html" target="_top" xlink:title=" ">
<polygon fill="white" stroke="#666666" points="497.88,-129.75 421.88,-129.75 421.88,-110.5 497.88,-110.5 497.88,-129.75"/>
<text text-anchor="middle" x="459.88" y="-116.25" font-family="Helvetica,sans-Serif" font-size="10.00">ssstring_uty.h</text>
</a>
</g>
</g>
<!-- Node13&#45;&gt;Node14 -->
<g id="edge18_Node000013_Node000014" class="edge">
<title>Node13&#45;&gt;Node14</title>
<g id="a_edge18_Node000013_Node000014"><a xlink:title=" ">
<path fill="none" stroke="#63b8ff" d="M387.63,-165.34C400.76,-157.31 420.2,-145.41 435.61,-135.98"/>
<polygon fill="#63b8ff" stroke="#63b8ff" points="437.05,-139.2 443.75,-130.99 433.4,-133.23 437.05,-139.2"/>
</a>
</g>
</g>
<!-- Node19 -->
<g id="Node000019" class="node">
<title>Node19</title>
<g id="a_Node000019"><a xlink:title=" ">
<polygon fill="#e0e0e0" stroke="#999999" points="404,-129.75 355.75,-129.75 355.75,-110.5 404,-110.5 404,-129.75"/>
<text text-anchor="middle" x="379.88" y="-116.25" font-family="Helvetica,sans-Serif" font-size="10.00">cassert</text>
</a>
</g>
</g>
<!-- Node13&#45;&gt;Node19 -->
<g id="edge27_Node000013_Node000019" class="edge">
<title>Node13&#45;&gt;Node19</title>
<g id="a_edge27_Node000013_Node000019"><a xlink:title=" ">
<path fill="none" stroke="#63b8ff" d="M374.03,-165.58C374.9,-158.99 376.12,-149.71 377.22,-141.32"/>
<polygon fill="#63b8ff" stroke="#63b8ff" points="380.66,-141.98 378.5,-131.61 373.72,-141.07 380.66,-141.98"/>
</a>
</g>
</g>
<!-- Node14&#45;&gt;Node5 -->
<g id="edge19_Node000014_Node000005" class="edge">
<title>Node14&#45;&gt;Node5</title>
<g id="a_edge19_Node000014_Node000005"><a xlink:title=" ">
<path fill="none" stroke="#63b8ff" d="M487.06,-110.14C511.29,-101.83 547.5,-88.66 577.88,-74.5 609.83,-59.61 644.99,-39.26 667.7,-25.57"/>
<polygon fill="#63b8ff" stroke="#63b8ff" points="669.47,-28.59 676.19,-20.4 665.83,-22.61 669.47,-28.59"/>
</a>
</g>
</g>
<!-- Node14&#45;&gt;Node6 -->
<g id="edge21_Node000014_Node000006" class="edge">
<title>Node14&#45;&gt;Node6</title>
<g id="a_edge21_Node000014_Node000006"><a xlink:title=" ">
<path fill="none" stroke="#63b8ff" d="M421.63,-110.14C378.52,-99.71 313.3,-82.85 304.88,-74.5 293.3,-63.03 288.71,-44.84 286.92,-30.8"/>
<polygon fill="#63b8ff" stroke="#63b8ff" points="290.42,-30.56 286.08,-20.89 283.44,-31.15 290.42,-30.56"/>
</a>
</g>
</g>
<!-- Node15 -->
<g id="Node000015" class="node">
<title>Node15</title>
<g id="a_Node000015"><a xlink:title=" ">
<polygon fill="#e0e0e0" stroke="#999999" points="568.38,-74.5 519.38,-74.5 519.38,-55.25 568.38,-55.25 568.38,-74.5"/>
<text text-anchor="middle" x="543.88" y="-61" font-family="Helvetica,sans-Serif" font-size="10.00">fstream</text>
</a>
</g>
</g>
<!-- Node14&#45;&gt;Node15 -->
<g id="edge20_Node000014_Node000015" class="edge">
<title>Node14&#45;&gt;Node15</title>
<g id="a_edge20_Node000014_Node000015"><a xlink:title=" ">
<path fill="none" stroke="#63b8ff" d="M474.12,-110.09C486.67,-102.14 505.21,-90.39 520.02,-81"/>
<polygon fill="#63b8ff" stroke="#63b8ff" points="521.71,-84.07 528.28,-75.76 517.96,-78.16 521.71,-84.07"/>
</a>
</g>
</g>
<!-- Node16 -->
<g id="Node000016" class="node">
<title>Node16</title>
<g id="a_Node000016"><a xlink:title=" ">
<polygon fill="#e0e0e0" stroke="#999999" points="367.62,-74.5 314.12,-74.5 314.12,-55.25 367.62,-55.25 367.62,-74.5"/>
<text text-anchor="middle" x="340.88" y="-61" font-family="Helvetica,sans-Serif" font-size="10.00">iostream</text>
</a>
</g>
</g>
<!-- Node14&#45;&gt;Node16 -->
<g id="edge22_Node000014_Node000016" class="edge">
<title>Node14&#45;&gt;Node16</title>
<g id="a_edge22_Node000014_Node000016"><a xlink:title=" ">
<path fill="none" stroke="#63b8ff" d="M439.69,-110.09C420.97,-101.72 392.85,-89.13 371.39,-79.53"/>
<polygon fill="#63b8ff" stroke="#63b8ff" points="373.1,-76.46 362.54,-75.57 370.24,-82.85 373.1,-76.46"/>
</a>
</g>
</g>
<!-- Node17 -->
<g id="Node000017" class="node">
<title>Node17</title>
<g id="a_Node000017"><a xlink:title=" ">
<polygon fill="#e0e0e0" stroke="#999999" points="436.5,-74.5 385.25,-74.5 385.25,-55.25 436.5,-55.25 436.5,-74.5"/>
<text text-anchor="middle" x="410.88" y="-61" font-family="Helvetica,sans-Serif" font-size="10.00">sstream</text>
</a>
</g>
</g>
<!-- Node14&#45;&gt;Node17 -->
<g id="edge23_Node000014_Node000017" class="edge">
<title>Node14&#45;&gt;Node17</title>
<g id="a_edge23_Node000014_Node000017"><a xlink:title=" ">
<path fill="none" stroke="#63b8ff" d="M451.78,-110.33C445.02,-102.98 435.15,-92.26 426.81,-83.19"/>
<polygon fill="#63b8ff" stroke="#63b8ff" points="429.51,-80.96 420.17,-75.97 424.36,-85.7 429.51,-80.96"/>
</a>
</g>
</g>
<!-- Node18 -->
<g id="Node000018" class="node">
<title>Node18</title>
<g id="a_Node000018"><a xlink:title=" ">
<polygon fill="#e0e0e0" stroke="#999999" points="500.88,-74.5 454.88,-74.5 454.88,-55.25 500.88,-55.25 500.88,-74.5"/>
<text text-anchor="middle" x="477.88" y="-61" font-family="Helvetica,sans-Serif" font-size="10.00">iterator</text>
</a>
</g>
</g>
<!-- Node14&#45;&gt;Node18 -->
<g id="edge24_Node000014_Node000018" class="edge">
<title>Node14&#45;&gt;Node18</title>
<g id="a_edge24_Node000014_Node000018"><a xlink:title=" ">
<path fill="none" stroke="#63b8ff" d="M462.85,-110.33C465.13,-103.59 468.36,-94.02 471.24,-85.49"/>
<polygon fill="#63b8ff" stroke="#63b8ff" points="474.47,-86.89 474.35,-76.29 467.84,-84.65 474.47,-86.89"/>
</a>
</g>
</g>
<!-- Node22&#45;&gt;Node3 -->
<g id="edge32_Node000022_Node000003" class="edge">
<title>Node22&#45;&gt;Node3</title>
<g id="a_edge32_Node000022_Node000003"><a xlink:title=" ">
<path fill="none" stroke="#63b8ff" d="M729.38,-339.51C846.61,-336.66 1165.88,-320.73 1165.88,-231.62 1165.88,-231.62 1165.88,-231.62 1165.88,-174.38 1165.88,-134.81 1138.45,-129.74 1103.88,-110.5 1052.33,-81.82 983.9,-71.57 940.87,-67.91"/>
<polygon fill="#63b8ff" stroke="#63b8ff" points="941.19,-64.42 930.95,-67.15 940.66,-71.4 941.19,-64.42"/>
</a>
</g>
</g>
<!-- Node22&#45;&gt;Node9 -->
<g id="edge33_Node000022_Node000009" class="edge">
<title>Node22&#45;&gt;Node9</title>
<g id="a_edge33_Node000022_Node000009"><a xlink:title=" ">
<path fill="none" stroke="#63b8ff" d="M679.96,-331.22C660.15,-304.56 606.65,-223.64 638.88,-165.75 646.51,-152.03 660.31,-141.99 673.79,-134.95"/>
<polygon fill="#63b8ff" stroke="#63b8ff" points="675.03,-138.23 682.57,-130.79 672.03,-131.91 675.03,-138.23"/>
</a>
</g>
</g>
<!-- Node22&#45;&gt;Node14 -->
<g id="edge34_Node000022_Node000014" class="edge">
<title>Node22&#45;&gt;Node14</title>
<g id="a_edge34_Node000022_Node000014"><a xlink:title=" ">
<path fill="none" stroke="#63b8ff" d="M677.7,-331.27C643.4,-298.18 522.42,-181.47 477.15,-137.79"/>
<polygon fill="#63b8ff" stroke="#63b8ff" points="479.64,-135.33 470.01,-130.9 474.78,-140.36 479.64,-135.33"/>
</a>
</g>
</g>
<!-- Node22&#45;&gt;Node23 -->
<g id="edge35_Node000022_Node000023" class="edge">
<title>Node22&#45;&gt;Node23</title>
<g id="a_edge35_Node000022_Node000023"><a xlink:title=" ">
<path fill="none" stroke="#63b8ff" d="M659.22,-331.09C632.65,-322.41 592.24,-309.21 562.49,-299.49"/>
<polygon fill="#63b8ff" stroke="#63b8ff" points="563.69,-296.2 553.1,-296.42 561.52,-302.85 563.69,-296.2"/>
</a>
</g>
</g>
<!-- Node22&#45;&gt;Node24 -->
<g id="edge39_Node000022_Node000024" class="edge">
<title>Node22&#45;&gt;Node24</title>
<g id="a_edge39_Node000022_Node000024"><a xlink:title=" ">
<path fill="none" stroke="#63b8ff" d="M729.16,-331.39C763.39,-323.71 812.53,-311.3 853.88,-295.5 871.56,-288.74 874.48,-283.73 891.88,-276.25 919.96,-264.18 952.51,-252.63 977.36,-244.31"/>
<polygon fill="#63b8ff" stroke="#63b8ff" points="978.35,-247.67 986.75,-241.2 976.15,-241.02 978.35,-247.67"/>
</a>
</g>
</g>
<!-- Node22&#45;&gt;Node25 -->
<g id="edge42_Node000022_Node000025" class="edge">
<title>Node22&#45;&gt;Node25</title>
<g id="a_edge42_Node000022_Node000025"><a xlink:title=" ">
<path fill="none" stroke="#63b8ff" d="M706.21,-331.09C723.98,-322.79 750.59,-310.36 771.08,-300.79"/>
<polygon fill="#63b8ff" stroke="#63b8ff" points="772.49,-304 780.07,-296.59 769.53,-297.65 772.49,-304"/>
</a>
</g>
</g>
<!-- Node28 -->
<g id="Node000028" class="node">
<title>Node28</title>
<g id="a_Node000028"><a xlink:title=" ">
<polygon fill="#e0e0e0" stroke="#999999" points="699.5,-185 648.25,-185 648.25,-165.75 699.5,-165.75 699.5,-185"/>
<text text-anchor="middle" x="673.88" y="-171.5" font-family="Helvetica,sans-Serif" font-size="10.00">memory</text>
</a>
</g>
</g>
<!-- Node22&#45;&gt;Node28 -->
<g id="edge56_Node000022_Node000028" class="edge">
<title>Node22&#45;&gt;Node28</title>
<g id="a_edge56_Node000022_Node000028"><a xlink:title=" ">
<path fill="none" stroke="#63b8ff" d="M686.18,-331.32C684.17,-306 678.33,-232.5 675.48,-196.59"/>
<polygon fill="#63b8ff" stroke="#63b8ff" points="678.98,-196.42 674.7,-186.73 672,-196.98 678.98,-196.42"/>
</a>
</g>
</g>
<!-- Node22&#45;&gt;Node29 -->
<g id="edge53_Node000022_Node000029" class="edge">
<title>Node22&#45;&gt;Node29</title>
<g id="a_edge53_Node000022_Node000029"><a xlink:title=" ">
<path fill="none" stroke="#63b8ff" d="M729.48,-331.33C773.34,-322.28 841.85,-308.14 889.8,-298.24"/>
<polygon fill="#63b8ff" stroke="#63b8ff" points="890.34,-301.7 899.43,-296.25 888.93,-294.85 890.34,-301.7"/>
</a>
</g>
</g>
<!-- Node30 -->
<g id="Node000030" class="node">
<title>Node30</title>
<g id="a_Node000030"><a xlink:title=" ">
<polygon fill="#e0e0e0" stroke="#999999" points="739.5,-295.5 700.25,-295.5 700.25,-276.25 739.5,-276.25 739.5,-295.5"/>
<text text-anchor="middle" x="719.88" y="-282" font-family="Helvetica,sans-Serif" font-size="10.00">utility</text>
</a>
</g>
</g>
<!-- Node22&#45;&gt;Node30 -->
<g id="edge57_Node000022_Node000030" class="edge">
<title>Node22&#45;&gt;Node30</title>
<g id="a_edge57_Node000022_Node000030"><a xlink:title=" ">
<path fill="none" stroke="#63b8ff" d="M692.32,-331.33C696.65,-324.36 702.84,-314.37 708.26,-305.62"/>
<polygon fill="#63b8ff" stroke="#63b8ff" points="711.22,-307.49 713.51,-297.15 705.27,-303.8 711.22,-307.49"/>
</a>
</g>
</g>
<!-- Node23&#45;&gt;Node3 -->
<g id="edge36_Node000023_Node000003" class="edge">
<title>Node23&#45;&gt;Node3</title>
<g id="a_edge36_Node000023_Node000003"><a xlink:title=" ">
<path fill="none" stroke="#63b8ff" d="M567.67,-283.28C624.78,-280.03 727.03,-270.17 808.88,-240.25 853.31,-224 871.11,-222.57 899.88,-185 920.46,-158.11 921.68,-143.87 915.88,-110.5 914.4,-101.99 911.44,-92.96 908.47,-85.27"/>
<polygon fill="#63b8ff" stroke="#63b8ff" points="911.79,-84.14 904.72,-76.25 905.33,-86.83 911.79,-84.14"/>
</a>
</g>
</g>
<!-- Node23&#45;&gt;Node9 -->
<g id="edge37_Node000023_Node000009" class="edge">
<title>Node23&#45;&gt;Node9</title>
<g id="a_edge37_Node000023_Node000009"><a xlink:title=" ">
<path fill="none" stroke="#63b8ff" d="M527.89,-275.82C537.97,-254.01 566.4,-197.99 605.88,-165.75 623.48,-151.37 646.4,-140.92 666.33,-133.76"/>
<polygon fill="#63b8ff" stroke="#63b8ff" points="667.27,-137.14 675.61,-130.6 665.02,-130.51 667.27,-137.14"/>
</a>
</g>
</g>
<!-- Node23&#45;&gt;Node12 -->
<g id="edge38_Node000023_Node000012" class="edge">
<title>Node23&#45;&gt;Node12</title>
<g id="a_edge38_Node000023_Node000012"><a xlink:title=" ">
<path fill="none" stroke="#63b8ff" d="M497.24,-275.84C471.75,-267.2 433.06,-254.07 404.45,-244.37"/>
<polygon fill="#63b8ff" stroke="#63b8ff" points="405.67,-241.09 395.07,-241.19 403.42,-247.72 405.67,-241.09"/>
</a>
</g>
</g>
<!-- Node24&#45;&gt;Node3 -->
<g id="edge40_Node000024_Node000003" class="edge">
<title>Node24&#45;&gt;Node3</title>
<g id="a_edge40_Node000024_Node000003"><a xlink:title=" ">
<path fill="none" stroke="#63b8ff" d="M1032,-220.82C1043.69,-213.06 1058.99,-200.58 1065.88,-185 1079.26,-154.71 1086.02,-136.78 1065.88,-110.5 1050.75,-90.77 985,-77.82 940.93,-71.18"/>
<polygon fill="#63b8ff" stroke="#63b8ff" points="941.58,-67.74 931.18,-69.77 940.57,-74.67 941.58,-67.74"/>
</a>
</g>
</g>
<!-- Node24&#45;&gt;Node9 -->
<g id="edge41_Node000024_Node000009" class="edge">
<title>Node24&#45;&gt;Node9</title>
<g id="a_edge41_Node000024_Node000009"><a xlink:title=" ">
<path fill="none" stroke="#63b8ff" d="M1010.81,-220.96C1000.46,-206.9 977.98,-179.34 951.88,-165.75 889.5,-133.29 807.23,-124.14 756.74,-121.73"/>
<polygon fill="#63b8ff" stroke="#63b8ff" points="756.88,-118.24 746.75,-121.34 756.6,-125.23 756.88,-118.24"/>
</a>
</g>
</g>
<!-- Node25&#45;&gt;Node3 -->
<g id="edge43_Node000025_Node000003" class="edge">
<title>Node25&#45;&gt;Node3</title>
<g id="a_edge43_Node000025_Node000003"><a xlink:title=" ">
<path fill="none" stroke="#63b8ff" d="M843.97,-275.76C889.31,-263.62 958.37,-237.29 989.88,-185 1006.96,-156.64 1007.33,-138.64 989.88,-110.5 978.94,-92.87 958.72,-81.98 940.22,-75.39"/>
<polygon fill="#63b8ff" stroke="#63b8ff" points="941.35,-72.07 930.76,-72.36 939.21,-78.74 941.35,-72.07"/>
</a>
</g>
</g>
<!-- Node25&#45;&gt;Node9 -->
<g id="edge44_Node000025_Node000009" class="edge">
<title>Node25&#45;&gt;Node9</title>
<g id="a_edge44_Node000025_Node000009"><a xlink:title=" ">
<path fill="none" stroke="#63b8ff" d="M805.23,-275.94C810.88,-262.93 818.91,-238.43 808.88,-221 792.98,-193.39 769.26,-207.68 746.88,-185 734.16,-172.12 724.46,-153.84 718.35,-140.14"/>
<polygon fill="#63b8ff" stroke="#63b8ff" points="721.75,-139.19 714.66,-131.31 715.29,-141.89 721.75,-139.19"/>
</a>
</g>
</g>
<!-- Node26 -->
<g id="Node000026" class="node">
<title>Node26</title>
<g id="a_Node000026"><a xlink:href="_ss_effect_behavior_8h.html" target="_top" xlink:title=" ">
<polygon fill="white" stroke="#666666" points="799.88,-240.25 699.88,-240.25 699.88,-221 799.88,-221 799.88,-240.25"/>
<text text-anchor="middle" x="749.88" y="-226.75" font-family="Helvetica,sans-Serif" font-size="10.00">SsEffectBehavior.h</text>
</a>
</g>
</g>
<!-- Node25&#45;&gt;Node26 -->
<g id="edge45_Node000025_Node000026" class="edge">
<title>Node25&#45;&gt;Node26</title>
<g id="a_edge45_Node000025_Node000026"><a xlink:title=" ">
<path fill="none" stroke="#63b8ff" d="M792.45,-276.08C785.34,-268.65 774.93,-257.79 766.19,-248.66"/>
<polygon fill="#63b8ff" stroke="#63b8ff" points="768.97,-246.5 759.53,-241.7 763.92,-251.35 768.97,-246.5"/>
</a>
</g>
</g>
<!-- Node26&#45;&gt;Node3 -->
<g id="edge50_Node000026_Node000003" class="edge">
<title>Node26&#45;&gt;Node3</title>
<g id="a_edge50_Node000026_Node000003"><a xlink:title=" ">
<path fill="none" stroke="#63b8ff" d="M800.18,-225.01C828.05,-219.76 860.98,-208.61 880.88,-185 904.31,-157.19 904.7,-112.29 902.52,-86.29"/>
<polygon fill="#63b8ff" stroke="#63b8ff" points="906,-85.97 901.45,-76.4 899.04,-86.72 906,-85.97"/>
</a>
</g>
</g>
<!-- Node26&#45;&gt;Node13 -->
<g id="edge51_Node000026_Node000013" class="edge">
<title>Node26&#45;&gt;Node13</title>
<g id="a_edge51_Node000026_Node000013"><a xlink:title=" ">
<path fill="none" stroke="#63b8ff" d="M699.42,-222.5C623.93,-211.84 483.06,-191.94 413.66,-182.14"/>
<polygon fill="#63b8ff" stroke="#63b8ff" points="414.25,-178.68 403.85,-180.75 413.27,-185.62 414.25,-178.68"/>
</a>
</g>
</g>
<!-- Node27 -->
<g id="Node000027" class="node">
<title>Node27</title>
<g id="a_Node000027"><a xlink:href="_ss_effect_element_8h.html" target="_top" xlink:title=" ">
<polygon fill="white" stroke="#666666" points="854.12,-185 755.62,-185 755.62,-165.75 854.12,-165.75 854.12,-185"/>
<text text-anchor="middle" x="804.88" y="-171.5" font-family="Helvetica,sans-Serif" font-size="10.00">SsEffectElement.h</text>
</a>
</g>
</g>
<!-- Node26&#45;&gt;Node27 -->
<g id="edge46_Node000026_Node000027" class="edge">
<title>Node26&#45;&gt;Node27</title>
<g id="a_edge46_Node000026_Node000027"><a xlink:title=" ">
<path fill="none" stroke="#63b8ff" d="M758.96,-220.83C766.71,-213.32 778.09,-202.31 787.57,-193.13"/>
<polygon fill="#63b8ff" stroke="#63b8ff" points="789.76,-195.88 794.51,-186.41 784.89,-190.85 789.76,-195.88"/>
</a>
</g>
</g>
<!-- Node26&#45;&gt;Node28 -->
<g id="edge52_Node000026_Node000028" class="edge">
<title>Node26&#45;&gt;Node28</title>
<g id="a_edge52_Node000026_Node000028"><a xlink:title=" ">
<path fill="none" stroke="#63b8ff" d="M736.98,-220.59C725.85,-212.79 709.5,-201.34 696.24,-192.04"/>
<polygon fill="#63b8ff" stroke="#63b8ff" points="698.27,-189.19 688.07,-186.32 694.25,-194.93 698.27,-189.19"/>
</a>
</g>
</g>
<!-- Node27&#45;&gt;Node3 -->
<g id="edge47_Node000027_Node000003" class="edge">
<title>Node27&#45;&gt;Node3</title>
<g id="a_edge47_Node000027_Node000003"><a xlink:title=" ">
<path fill="none" stroke="#63b8ff" d="M812.65,-165.5C828.31,-147.61 863.89,-106.97 884.45,-83.5"/>
<polygon fill="#63b8ff" stroke="#63b8ff" points="887.04,-85.84 891,-76.02 881.78,-81.23 887.04,-85.84"/>
</a>
</g>
</g>
<!-- Node27&#45;&gt;Node9 -->
<g id="edge48_Node000027_Node000009" class="edge">
<title>Node27&#45;&gt;Node9</title>
<g id="a_edge48_Node000027_Node000009"><a xlink:title=" ">
<path fill="none" stroke="#63b8ff" d="M788.93,-165.34C774.61,-157.23 753.34,-145.18 736.62,-135.71"/>
<polygon fill="#63b8ff" stroke="#63b8ff" points="738.64,-132.83 728.22,-130.95 735.19,-138.92 738.64,-132.83"/>
</a>
</g>
</g>
<!-- Node27&#45;&gt;Node27 -->
<g id="edge49_Node000027_Node000027" class="edge">
<title>Node27&#45;&gt;Node27</title>
<g id="a_edge49_Node000027_Node000027"><a xlink:title=" ">
<path fill="none" stroke="#63b8ff" d="M840.17,-185.48C857.14,-186.73 872.12,-183.36 872.12,-175.38 872.12,-169.26 863.34,-165.85 851.61,-165.15"/>
<polygon fill="#63b8ff" stroke="#63b8ff" points="851.64,-161.65 841.68,-165.25 851.71,-168.65 851.64,-161.65"/>
</a>
</g>
</g>
<!-- Node29&#45;&gt;Node3 -->
<g id="edge54_Node000029_Node000003" class="edge">
<title>Node29&#45;&gt;Node3</title>
<g id="a_edge54_Node000029_Node000003"><a xlink:title=" ">
<path fill="none" stroke="#63b8ff" d="M988.96,-279.81C1016.01,-274.42 1049.3,-263.27 1069.88,-240.25 1108.57,-196.97 1120.79,-156.11 1084.88,-110.5 1067.28,-88.15 989.65,-75.68 940.71,-69.91"/>
<polygon fill="#63b8ff" stroke="#63b8ff" points="941.38,-66.46 931.05,-68.81 940.59,-73.41 941.38,-66.46"/>
</a>
</g>
</g>
<!-- Node29&#45;&gt;Node9 -->
<g id="edge55_Node000029_Node000009" class="edge">
<title>Node29&#45;&gt;Node9</title>
<g id="a_edge55_Node000029_Node000009"><a xlink:title=" ">
<path fill="none" stroke="#63b8ff" d="M942.68,-275.8C936.8,-253.44 918.5,-195.39 880.88,-165.75 845.3,-137.72 793.82,-127.19 756.85,-123.29"/>
<polygon fill="#63b8ff" stroke="#63b8ff" points="757.18,-119.81 746.9,-122.39 756.54,-126.78 757.18,-119.81"/>
</a>
</g>
</g>
<!-- Node31&#45;&gt;Node32 -->
<g id="edge64_Node000031_Node000032" class="edge">
<title>Node31&#45;&gt;Node32</title>
<g id="a_edge64_Node000031_Node000032"><a xlink:title=" ">
<path fill="none" stroke="#63b8ff" d="M75.23,-331.25C81.81,-313.84 96.53,-274.87 105.49,-251.16"/>
<polygon fill="#63b8ff" stroke="#63b8ff" points="108.68,-252.63 108.94,-242.04 102.13,-250.16 108.68,-252.63"/>
</a>
</g>
</g>
<!-- Node32&#45;&gt;Node6 -->
<g id="edge65_Node000032_Node000006" class="edge">
<title>Node32&#45;&gt;Node6</title>
<g id="a_edge65_Node000032_Node000006"><a xlink:title=" ">
<path fill="none" stroke="#63b8ff" d="M109.61,-220.62C105.55,-207.95 99.93,-184.32 106.88,-165.75 129.65,-104.81 152.06,-95.87 202.88,-55.25 218.39,-42.85 237.86,-32.17 254.04,-24.37"/>
<polygon fill="#63b8ff" stroke="#63b8ff" points="255.16,-27.71 262.75,-20.32 252.21,-21.37 255.16,-27.71"/>
</a>
</g>
</g>
<!-- Node32&#45;&gt;Node21 -->
<g id="edge66_Node000032_Node000021" class="edge">
<title>Node32&#45;&gt;Node21</title>
<g id="a_edge66_Node000032_Node000021"><a xlink:title=" ">
<path fill="none" stroke="#63b8ff" d="M115.68,-220.83C117.81,-214.17 120.82,-204.74 123.52,-196.28"/>
<polygon fill="#63b8ff" stroke="#63b8ff" points="126.84,-197.39 126.55,-186.8 120.17,-195.26 126.84,-197.39"/>
</a>
</g>
</g>
<!-- Node32&#45;&gt;Node28 -->
<g id="edge67_Node000032_Node000028" class="edge">
<title>Node32&#45;&gt;Node28</title>
<g id="a_edge67_Node000032_Node000028"><a xlink:title=" ">
<path fill="none" stroke="#63b8ff" d="M143.84,-226.69C239.94,-217.56 532.9,-189.76 636.83,-179.89"/>
<polygon fill="#63b8ff" stroke="#63b8ff" points="636.85,-183.41 646.47,-178.98 636.19,-176.44 636.85,-183.41"/>
</a>
</g>
</g>
<!-- Node33&#45;&gt;Node31 -->
<g id="edge70_Node000033_Node000031" class="edge">
<title>Node33&#45;&gt;Node31</title>
<g id="a_edge70_Node000033_Node000031"><a xlink:title=" ">
<path fill="none" stroke="#63b8ff" d="M40.15,-386.58C45.23,-379.46 52.57,-369.18 58.91,-360.3"/>
<polygon fill="#63b8ff" stroke="#63b8ff" points="61.62,-362.51 64.58,-352.34 55.93,-358.45 61.62,-362.51"/>
</a>
</g>
</g>
<!-- Node34&#45;&gt;Node3 -->
<g id="edge72_Node000034_Node000003" class="edge">
<title>Node34&#45;&gt;Node3</title>
<g id="a_edge72_Node000034_Node000003"><a xlink:title=" ">
<path fill="none" stroke="#63b8ff" d="M299.93,-115.02C314.6,-113.5 331.51,-111.83 346.88,-110.5 571.94,-91.1 629.83,-103.36 853.88,-74.5 855.54,-74.29 857.23,-74.05 858.94,-73.8"/>
<polygon fill="#63b8ff" stroke="#63b8ff" points="859.46,-77.26 868.77,-72.19 858.33,-70.35 859.46,-77.26"/>
</a>
</g>
</g>
<!-- Node34&#45;&gt;Node11 -->
<g id="edge73_Node000034_Node000011" class="edge">
<title>Node34&#45;&gt;Node11</title>
<g id="a_edge73_Node000034_Node000011"><a xlink:title=" ">
<path fill="none" stroke="#63b8ff" d="M258.41,-110.33C255.75,-103.59 251.98,-94.02 248.61,-85.49"/>
<polygon fill="#63b8ff" stroke="#63b8ff" points="251.9,-84.29 244.97,-76.27 245.39,-86.85 251.9,-84.29"/>
</a>
</g>
</g>
<!-- Node36&#45;&gt;Node5 -->
<g id="edge76_Node000036_Node000005" class="edge">
<title>Node36&#45;&gt;Node5</title>
<g id="a_edge76_Node000036_Node000005"><a xlink:title=" ">
<path fill="none" stroke="#63b8ff" d="M255.63,-331.1C287.62,-314.57 356.65,-277.69 410.88,-240.25 515.68,-167.88 630.2,-66.61 673.73,-27.22"/>
<polygon fill="#63b8ff" stroke="#63b8ff" points="675.96,-29.91 681.01,-20.6 671.26,-24.73 675.96,-29.91"/>
</a>
</g>
</g>
</g>
</svg>
