<?xml version="1.0" encoding="UTF-8" standalone="no"?>
<!DOCTYPE svg PUBLIC "-//W3C//DTD SVG 1.1//EN"
 "http://www.w3.org/Graphics/SVG/1.1/DTD/svg11.dtd">
<!-- Generated by graphviz version 9.0.0 (20230911.1827)
 -->
<!-- Title: Common/Loader/ssInterpolation.h Pages: 1 -->
<svg width="1450pt" height="537pt"
 viewBox="0.00 0.00 1449.75 536.75" xmlns="http://www.w3.org/2000/svg" xmlns:xlink="http://www.w3.org/1999/xlink">
<g id="graph0" class="graph" transform="scale(1 1) rotate(0) translate(4 532.75)">
<title>Common/Loader/ssInterpolation.h</title>
<!-- Node1 -->
<g id="Node000001" class="node">
<title>Node1</title>
<g id="a_Node000001"><a xlink:title=" ">
<polygon fill="#999999" stroke="#666666" points="975.25,-528.75 812.25,-528.75 812.25,-509.5 975.25,-509.5 975.25,-528.75"/>
<text text-anchor="middle" x="893.75" y="-515.25" font-family="Helvetica,sans-Serif" font-size="10.00">Common/Loader/ssInterpolation.h</text>
</a>
</g>
</g>
<!-- Node2 -->
<g id="Node000002" class="node">
<title>Node2</title>
<g id="a_Node000002"><a xlink:href="ssplayer__animedecode_8cpp.html" target="_top" xlink:title=" ">
<polygon fill="white" stroke="#666666" points="1384.5,-30.5 1247,-30.5 1247,0 1384.5,0 1384.5,-30.5"/>
<text text-anchor="start" x="1255" y="-17" font-family="Helvetica,sans-Serif" font-size="10.00">Common/Animator/ssplayer</text>
<text text-anchor="middle" x="1315.75" y="-5.75" font-family="Helvetica,sans-Serif" font-size="10.00">_animedecode.cpp</text>
</a>
</g>
</g>
<!-- Node1&#45;&gt;Node2 -->
<g id="edge1_Node000001_Node000002" class="edge">
<title>Node1&#45;&gt;Node2</title>
<g id="a_edge1_Node000001_Node000002"><a xlink:title=" ">
<path fill="none" stroke="#63b8ff" d="M986.96,-517.63C1143.38,-514.25 1441.75,-495.79 1441.75,-404 1441.75,-404 1441.75,-404 1441.75,-147.25 1441.75,-92.19 1383.21,-51.32 1345.93,-30.88"/>
<polygon fill="#63b8ff" stroke="#63b8ff" points="986.94,-514.13 977.01,-517.83 987.08,-521.13 986.94,-514.13"/>
</a>
</g>
</g>
<!-- Node3 -->
<g id="Node000003" class="node">
<title>Node3</title>
<g id="a_Node000003"><a xlink:href="ss_interpolation_8cpp.html" target="_top" xlink:title=" ">
<polygon fill="white" stroke="#666666" points="173.5,-218.75 0,-218.75 0,-199.5 173.5,-199.5 173.5,-218.75"/>
<text text-anchor="middle" x="86.75" y="-205.25" font-family="Helvetica,sans-Serif" font-size="10.00">Common/Loader/ssInterpolation.cpp</text>
</a>
</g>
</g>
<!-- Node1&#45;&gt;Node3 -->
<g id="edge2_Node000001_Node000003" class="edge">
<title>Node1&#45;&gt;Node3</title>
<g id="a_edge2_Node000001_Node000003"><a xlink:title=" ">
<path fill="none" stroke="#63b8ff" d="M800.54,-512.21C612.56,-499.02 205.75,-463.59 205.75,-404 205.75,-404 205.75,-404 205.75,-335.5 205.75,-278.18 139.51,-236.6 105.87,-219.18"/>
<polygon fill="#63b8ff" stroke="#63b8ff" points="800.06,-515.68 810.28,-512.88 800.54,-508.7 800.06,-515.68"/>
</a>
</g>
</g>
<!-- Node4 -->
<g id="Node000004" class="node">
<title>Node4</title>
<g id="a_Node000004"><a xlink:href="ssattribute_8h.html" target="_top" xlink:title=" ">
<polygon fill="white" stroke="#666666" points="916.25,-473.5 771.25,-473.5 771.25,-454.25 916.25,-454.25 916.25,-473.5"/>
<text text-anchor="middle" x="843.75" y="-460" font-family="Helvetica,sans-Serif" font-size="10.00">Common/Loader/ssattribute.h</text>
</a>
</g>
</g>
<!-- Node1&#45;&gt;Node4 -->
<g id="edge3_Node000001_Node000004" class="edge">
<title>Node1&#45;&gt;Node4</title>
<g id="a_edge3_Node000001_Node000004"><a xlink:title=" ">
<path fill="none" stroke="#63b8ff" d="M877.71,-501.04C869.22,-492 859.15,-481.27 852.19,-473.86"/>
<polygon fill="#63b8ff" stroke="#63b8ff" points="875.06,-503.33 884.46,-508.23 880.16,-498.54 875.06,-503.33"/>
</a>
</g>
</g>
<!-- Node6 -->
<g id="Node000006" class="node">
<title>Node6</title>
<g id="a_Node000006"><a xlink:href="ssloader_8h.html" target="_top" xlink:title=" ">
<polygon fill="white" stroke="#666666" points="875.38,-279.62 740.12,-279.62 740.12,-260.38 875.38,-260.38 875.38,-279.62"/>
<text text-anchor="middle" x="807.75" y="-266.12" font-family="Helvetica,sans-Serif" font-size="10.00">Common/Loader/ssloader.h</text>
</a>
</g>
</g>
<!-- Node1&#45;&gt;Node6 -->
<g id="edge51_Node000001_Node000006" class="edge">
<title>Node1&#45;&gt;Node6</title>
<g id="a_edge51_Node000001_Node000006"><a xlink:title=" ">
<path fill="none" stroke="#63b8ff" d="M909.75,-500.43C915.68,-492.73 921.7,-483.25 924.75,-473.5 927.31,-465.34 927.15,-462.46 924.75,-454.25 902.74,-378.89 839.26,-305.01 816.23,-279.96"/>
<polygon fill="#63b8ff" stroke="#63b8ff" points="907.2,-498.03 903.49,-507.96 912.58,-502.51 907.2,-498.03"/>
</a>
</g>
</g>
<!-- Node5 -->
<g id="Node000005" class="node">
<title>Node5</title>
<g id="a_Node000005"><a xlink:href="ssattribute_8cpp.html" target="_top" xlink:title=" ">
<polygon fill="white" stroke="#666666" points="1413.5,-218.75 1258,-218.75 1258,-199.5 1413.5,-199.5 1413.5,-218.75"/>
<text text-anchor="middle" x="1335.75" y="-205.25" font-family="Helvetica,sans-Serif" font-size="10.00">Common/Loader/ssattribute.cpp</text>
</a>
</g>
</g>
<!-- Node4&#45;&gt;Node5 -->
<g id="edge4_Node000004_Node000005" class="edge">
<title>Node4&#45;&gt;Node5</title>
<g id="a_edge4_Node000004_Node000005"><a xlink:title=" ">
<path fill="none" stroke="#63b8ff" d="M871.23,-448.76C961.09,-402.59 1244.66,-256.92 1318.19,-219.14"/>
<polygon fill="#63b8ff" stroke="#63b8ff" points="869.9,-445.51 862.61,-453.19 873.1,-451.73 869.9,-445.51"/>
</a>
</g>
</g>
<!-- Node4&#45;&gt;Node6 -->
<g id="edge5_Node000004_Node000006" class="edge">
<title>Node4&#45;&gt;Node6</title>
<g id="a_edge5_Node000004_Node000006"><a xlink:title=" ">
<path fill="none" stroke="#63b8ff" d="M839.95,-442.61C832.19,-401.25 814.81,-308.62 809.39,-279.76"/>
<polygon fill="#63b8ff" stroke="#63b8ff" points="836.5,-443.21 841.78,-452.39 843.38,-441.92 836.5,-443.21"/>
</a>
</g>
</g>
<!-- Node23 -->
<g id="Node000023" class="node">
<title>Node23</title>
<g id="a_Node000023"><a xlink:href="ssloader__ssae_8h.html" target="_top" xlink:title=" ">
<polygon fill="white" stroke="#666666" points="706.62,-418.25 578.88,-418.25 578.88,-387.75 706.62,-387.75 706.62,-418.25"/>
<text text-anchor="start" x="586.88" y="-404.75" font-family="Helvetica,sans-Serif" font-size="10.00">Common/Loader/ssloader</text>
<text text-anchor="middle" x="642.75" y="-393.5" font-family="Helvetica,sans-Serif" font-size="10.00">_ssae.h</text>
</a>
</g>
</g>
<!-- Node4&#45;&gt;Node23 -->
<g id="edge42_Node000004_Node000023" class="edge">
<title>Node4&#45;&gt;Node23</title>
<g id="a_edge42_Node000004_Node000023"><a xlink:title=" ">
<path fill="none" stroke="#63b8ff" d="M802.1,-450.68C770.38,-441.38 726.57,-428.55 692.92,-418.69"/>
<polygon fill="#63b8ff" stroke="#63b8ff" points="800.75,-453.93 811.33,-453.38 802.72,-447.21 800.75,-453.93"/>
</a>
</g>
</g>
<!-- Node6&#45;&gt;Node2 -->
<g id="edge7_Node000006_Node000002" class="edge">
<title>Node6&#45;&gt;Node2</title>
<g id="a_edge7_Node000006_Node000002"><a xlink:title=" ">
<path fill="none" stroke="#63b8ff" d="M883.06,-257.96C928.48,-249.96 986.99,-237.27 1036.75,-218.75 1152.86,-175.55 1263.62,-69.81 1301.76,-30.92"/>
<polygon fill="#63b8ff" stroke="#63b8ff" points="882.56,-254.49 873.3,-259.63 883.75,-261.39 882.56,-254.49"/>
</a>
</g>
</g>
<!-- Node6&#45;&gt;Node3 -->
<g id="edge40_Node000006_Node000003" class="edge">
<title>Node6&#45;&gt;Node3</title>
<g id="a_edge40_Node000006_Node000003"><a xlink:title=" ">
<path fill="none" stroke="#63b8ff" d="M728.65,-261.84C702.57,-259.52 673.42,-256.98 646.75,-254.75 442.83,-237.73 391.69,-235.46 187.75,-218.75 183.19,-218.38 178.51,-217.99 173.79,-217.6"/>
<polygon fill="#63b8ff" stroke="#63b8ff" points="728.22,-265.32 738.49,-262.72 728.85,-258.34 728.22,-265.32"/>
</a>
</g>
</g>
<!-- Node6&#45;&gt;Node5 -->
<g id="edge41_Node000006_Node000005" class="edge">
<title>Node6&#45;&gt;Node5</title>
<g id="a_edge41_Node000006_Node000005"><a xlink:title=" ">
<path fill="none" stroke="#63b8ff" d="M868.97,-258.12C876.63,-256.9 884.36,-255.75 891.75,-254.75 926.97,-250 1139.83,-229.13 1257.56,-217.69"/>
<polygon fill="#63b8ff" stroke="#63b8ff" points="868.66,-254.62 859.35,-259.68 869.78,-261.53 868.66,-254.62"/>
</a>
</g>
</g>
<!-- Node7 -->
<g id="Node000007" class="node">
<title>Node7</title>
<g id="a_Node000007"><a xlink:href="ssplayer___part_state_8cpp.html" target="_top" xlink:title=" ">
<polygon fill="white" stroke="#666666" points="308.5,-30.5 171,-30.5 171,0 308.5,0 308.5,-30.5"/>
<text text-anchor="start" x="179" y="-17" font-family="Helvetica,sans-Serif" font-size="10.00">Common/Animator/ssplayer</text>
<text text-anchor="middle" x="239.75" y="-5.75" font-family="Helvetica,sans-Serif" font-size="10.00">_PartState.cpp</text>
</a>
</g>
</g>
<!-- Node6&#45;&gt;Node7 -->
<g id="edge6_Node000006_Node000007" class="edge">
<title>Node6&#45;&gt;Node7</title>
<g id="a_edge6_Node000006_Node000007"><a xlink:title=" ">
<path fill="none" stroke="#63b8ff" d="M728.42,-261.45C594.79,-248.62 338.39,-223.49 329.75,-218.75 259.58,-180.28 244.02,-70.64 240.66,-30.88"/>
<polygon fill="#63b8ff" stroke="#63b8ff" points="727.99,-264.92 738.28,-262.39 728.66,-257.95 727.99,-264.92"/>
</a>
</g>
</g>
<!-- Node8 -->
<g id="Node000008" class="node">
<title>Node8</title>
<g id="a_Node000008"><a xlink:href="ssplayer__animedecode_8h.html" target="_top" xlink:title=" ">
<polygon fill="white" stroke="#666666" points="772.5,-97 635,-97 635,-66.5 772.5,-66.5 772.5,-97"/>
<text text-anchor="start" x="643" y="-83.5" font-family="Helvetica,sans-Serif" font-size="10.00">Common/Animator/ssplayer</text>
<text text-anchor="middle" x="703.75" y="-72.25" font-family="Helvetica,sans-Serif" font-size="10.00">_animedecode.h</text>
</a>
</g>
</g>
<!-- Node6&#45;&gt;Node8 -->
<g id="edge8_Node000006_Node000008" class="edge">
<title>Node6&#45;&gt;Node8</title>
<g id="a_edge8_Node000006_Node000008"><a xlink:title=" ">
<path fill="none" stroke="#63b8ff" d="M810.06,-248.96C812.28,-220.64 812.37,-168.44 788.75,-133 778.1,-117.02 760.5,-105.41 744.07,-97.4"/>
<polygon fill="#63b8ff" stroke="#63b8ff" points="806.61,-248.34 809.12,-258.63 813.57,-249.02 806.61,-248.34"/>
</a>
</g>
</g>
<!-- Node9 -->
<g id="Node000009" class="node">
<title>Node9</title>
<g id="a_Node000009"><a xlink:href="ssplayer__cellmap_8cpp.html" target="_top" xlink:title=" ">
<polygon fill="white" stroke="#666666" points="464.5,-30.5 327,-30.5 327,0 464.5,0 464.5,-30.5"/>
<text text-anchor="start" x="335" y="-17" font-family="Helvetica,sans-Serif" font-size="10.00">Common/Animator/ssplayer</text>
<text text-anchor="middle" x="395.75" y="-5.75" font-family="Helvetica,sans-Serif" font-size="10.00">_cellmap.cpp</text>
</a>
</g>
</g>
<!-- Node6&#45;&gt;Node9 -->
<g id="edge18_Node000006_Node000009" class="edge">
<title>Node6&#45;&gt;Node9</title>
<g id="a_edge18_Node000006_Node000009"><a xlink:title=" ">
<path fill="none" stroke="#63b8ff" d="M728.9,-261.08C617.92,-249.68 425.68,-228.91 394.75,-218.75 347.24,-203.15 321.97,-206.67 296.75,-163.5 267.38,-113.23 335.34,-56.93 372.92,-30.9"/>
<polygon fill="#63b8ff" stroke="#63b8ff" points="728.22,-264.53 738.53,-262.07 728.94,-257.57 728.22,-264.53"/>
</a>
</g>
</g>
<!-- Node10 -->
<g id="Node000010" class="node">
<title>Node10</title>
<g id="a_Node000010"><a xlink:href="ssplayer__effect_8cpp.html" target="_top" xlink:title=" ">
<polygon fill="white" stroke="#666666" points="1072.5,-30.5 935,-30.5 935,0 1072.5,0 1072.5,-30.5"/>
<text text-anchor="start" x="943" y="-17" font-family="Helvetica,sans-Serif" font-size="10.00">Common/Animator/ssplayer</text>
<text text-anchor="middle" x="1003.75" y="-5.75" font-family="Helvetica,sans-Serif" font-size="10.00">_effect.cpp</text>
</a>
</g>
</g>
<!-- Node6&#45;&gt;Node10 -->
<g id="edge19_Node000006_Node000010" class="edge">
<title>Node6&#45;&gt;Node10</title>
<g id="a_edge19_Node000006_Node000010"><a xlink:title=" ">
<path fill="none" stroke="#63b8ff" d="M816.42,-249.65C834.2,-211.47 877.76,-125.06 932.75,-66.5 945.98,-52.41 963.73,-39.85 978.17,-30.81"/>
<polygon fill="#63b8ff" stroke="#63b8ff" points="813.27,-248.14 812.29,-258.69 819.63,-251.05 813.27,-248.14"/>
</a>
</g>
</g>
<!-- Node11 -->
<g id="Node000011" class="node">
<title>Node11</title>
<g id="a_Node000011"><a xlink:href="ssplayer__effect2_8cpp.html" target="_top" xlink:title=" ">
<polygon fill="white" stroke="#666666" points="916.5,-30.5 779,-30.5 779,0 916.5,0 916.5,-30.5"/>
<text text-anchor="start" x="787" y="-17" font-family="Helvetica,sans-Serif" font-size="10.00">Common/Animator/ssplayer</text>
<text text-anchor="middle" x="847.75" y="-5.75" font-family="Helvetica,sans-Serif" font-size="10.00">_effect2.cpp</text>
</a>
</g>
</g>
<!-- Node6&#45;&gt;Node11 -->
<g id="edge29_Node000006_Node000011" class="edge">
<title>Node6&#45;&gt;Node11</title>
<g id="a_edge29_Node000006_Node000011"><a xlink:title=" ">
<path fill="none" stroke="#63b8ff" d="M831.44,-253.07C842.25,-244.35 853.91,-232.52 859.75,-218.75 887.47,-153.42 864.12,-65.48 852.92,-30.99"/>
<polygon fill="#63b8ff" stroke="#63b8ff" points="829.45,-250.19 823.55,-258.99 833.65,-255.79 829.45,-250.19"/>
</a>
</g>
</g>
<!-- Node12 -->
<g id="Node000012" class="node">
<title>Node12</title>
<g id="a_Node000012"><a xlink:href="ssplayer__effectfunction_8cpp.html" target="_top" xlink:title=" ">
<polygon fill="white" stroke="#666666" points="1228.5,-30.5 1091,-30.5 1091,0 1228.5,0 1228.5,-30.5"/>
<text text-anchor="start" x="1099" y="-17" font-family="Helvetica,sans-Serif" font-size="10.00">Common/Animator/ssplayer</text>
<text text-anchor="middle" x="1159.75" y="-5.75" font-family="Helvetica,sans-Serif" font-size="10.00">_effectfunction.cpp</text>
</a>
</g>
</g>
<!-- Node6&#45;&gt;Node12 -->
<g id="edge30_Node000006_Node000012" class="edge">
<title>Node6&#45;&gt;Node12</title>
<g id="a_edge30_Node000006_Node000012"><a xlink:title=" ">
<path fill="none" stroke="#63b8ff" d="M859.36,-257.28C937.07,-238.66 1078.87,-200.63 1114.75,-163.5 1150.97,-126.01 1158.12,-60.2 1159.47,-30.96"/>
<polygon fill="#63b8ff" stroke="#63b8ff" points="858.77,-253.82 849.85,-259.53 860.39,-260.63 858.77,-253.82"/>
</a>
</g>
</g>
<!-- Node13 -->
<g id="Node000013" class="node">
<title>Node13</title>
<g id="a_Node000013"><a xlink:href="ssplayer__mesh_8cpp.html" target="_top" xlink:title=" ">
<polygon fill="white" stroke="#666666" points="152.5,-30.5 15,-30.5 15,0 152.5,0 152.5,-30.5"/>
<text text-anchor="start" x="23" y="-17" font-family="Helvetica,sans-Serif" font-size="10.00">Common/Animator/ssplayer</text>
<text text-anchor="middle" x="83.75" y="-5.75" font-family="Helvetica,sans-Serif" font-size="10.00">_mesh.cpp</text>
</a>
</g>
</g>
<!-- Node6&#45;&gt;Node13 -->
<g id="edge31_Node000006_Node000013" class="edge">
<title>Node6&#45;&gt;Node13</title>
<g id="a_edge31_Node000006_Node000013"><a xlink:title=" ">
<path fill="none" stroke="#63b8ff" d="M728.21,-261.74C588.4,-248.88 312.34,-223.06 302.75,-218.75 204.99,-174.77 122.14,-69.52 94,-30.83"/>
<polygon fill="#63b8ff" stroke="#63b8ff" points="727.89,-265.22 738.17,-262.65 728.53,-258.25 727.89,-265.22"/>
</a>
</g>
</g>
<!-- Node16 -->
<g id="Node000016" class="node">
<title>Node16</title>
<g id="a_Node000016"><a xlink:href="ssplayer__effect_8h.html" target="_top" xlink:title=" ">
<polygon fill="white" stroke="#666666" points="1087.5,-163.5 950,-163.5 950,-133 1087.5,-133 1087.5,-163.5"/>
<text text-anchor="start" x="958" y="-150" font-family="Helvetica,sans-Serif" font-size="10.00">Common/Animator/ssplayer</text>
<text text-anchor="middle" x="1018.75" y="-138.75" font-family="Helvetica,sans-Serif" font-size="10.00">_effect.h</text>
</a>
</g>
</g>
<!-- Node6&#45;&gt;Node16 -->
<g id="edge20_Node000006_Node000016" class="edge">
<title>Node6&#45;&gt;Node16</title>
<g id="a_edge20_Node000006_Node000016"><a xlink:title=" ">
<path fill="none" stroke="#63b8ff" d="M834.07,-254.41C852.04,-244.43 876.37,-230.86 897.75,-218.75 930.85,-200.01 968.86,-178.11 993.31,-163.98"/>
<polygon fill="#63b8ff" stroke="#63b8ff" points="832.41,-251.33 825.37,-259.25 835.81,-257.45 832.41,-251.33"/>
</a>
</g>
</g>
<!-- Node18 -->
<g id="Node000018" class="node">
<title>Node18</title>
<g id="a_Node000018"><a xlink:href="ssplayer__types_8h.html" target="_top" xlink:title=" ">
<polygon fill="white" stroke="#666666" points="779.5,-163.5 642,-163.5 642,-133 779.5,-133 779.5,-163.5"/>
<text text-anchor="start" x="650" y="-150" font-family="Helvetica,sans-Serif" font-size="10.00">Common/Animator/ssplayer</text>
<text text-anchor="middle" x="710.75" y="-138.75" font-family="Helvetica,sans-Serif" font-size="10.00">_types.h</text>
</a>
</g>
</g>
<!-- Node6&#45;&gt;Node18 -->
<g id="edge32_Node000006_Node000018" class="edge">
<title>Node6&#45;&gt;Node18</title>
<g id="a_edge32_Node000006_Node000018"><a xlink:title=" ">
<path fill="none" stroke="#63b8ff" d="M793.42,-251.31C774.19,-227.57 740.39,-185.84 722.55,-163.81"/>
<polygon fill="#63b8ff" stroke="#63b8ff" points="790.49,-253.26 799.51,-258.82 795.93,-248.85 790.49,-253.26"/>
</a>
</g>
</g>
<!-- Node19 -->
<g id="Node000019" class="node">
<title>Node19</title>
<g id="a_Node000019"><a xlink:href="ss_helper_8h.html" target="_top" xlink:title=" ">
<polygon fill="white" stroke="#666666" points="540.12,-218.75 403.38,-218.75 403.38,-199.5 540.12,-199.5 540.12,-218.75"/>
<text text-anchor="middle" x="471.75" y="-205.25" font-family="Helvetica,sans-Serif" font-size="10.00">Common/Helper/ssHelper.h</text>
</a>
</g>
</g>
<!-- Node6&#45;&gt;Node19 -->
<g id="edge34_Node000006_Node000019" class="edge">
<title>Node6&#45;&gt;Node19</title>
<g id="a_edge34_Node000006_Node000019"><a xlink:title=" ">
<path fill="none" stroke="#63b8ff" d="M744.86,-257.98C680.96,-246.78 583.16,-229.65 523.57,-219.21"/>
<polygon fill="#63b8ff" stroke="#63b8ff" points="744.04,-261.39 754.5,-259.67 745.25,-254.5 744.04,-261.39"/>
</a>
</g>
</g>
<!-- Node22 -->
<g id="Node000022" class="node">
<title>Node22</title>
<g id="a_Node000022"><a xlink:href="_ss_effect_element_8cpp.html" target="_top" xlink:title=" ">
<polygon fill="white" stroke="#666666" points="741.75,-218.75 557.75,-218.75 557.75,-199.5 741.75,-199.5 741.75,-218.75"/>
<text text-anchor="middle" x="649.75" y="-205.25" font-family="Helvetica,sans-Serif" font-size="10.00">Common/Loader/SsEffectElement.cpp</text>
</a>
</g>
</g>
<!-- Node6&#45;&gt;Node22 -->
<g id="edge39_Node000006_Node000022" class="edge">
<title>Node6&#45;&gt;Node22</title>
<g id="a_edge39_Node000006_Node000022"><a xlink:title=" ">
<path fill="none" stroke="#63b8ff" d="M772.99,-256.05C743.04,-244.89 700.57,-229.06 674.12,-219.21"/>
<polygon fill="#63b8ff" stroke="#63b8ff" points="771.4,-259.19 781.99,-259.4 773.84,-252.63 771.4,-259.19"/>
</a>
</g>
</g>
<!-- Node8&#45;&gt;Node2 -->
<g id="edge10_Node000008_Node000002" class="edge">
<title>Node8&#45;&gt;Node2</title>
<g id="a_edge10_Node000008_Node000002"><a xlink:title=" ">
<path fill="none" stroke="#63b8ff" d="M784.09,-75.38C888.81,-67.87 1077.49,-52.64 1237.75,-30.5 1240.75,-30.09 1243.81,-29.64 1246.9,-29.16"/>
<polygon fill="#63b8ff" stroke="#63b8ff" points="783.91,-71.88 774.18,-76.08 784.41,-78.86 783.91,-71.88"/>
</a>
</g>
</g>
<!-- Node8&#45;&gt;Node7 -->
<g id="edge9_Node000008_Node000007" class="edge">
<title>Node8&#45;&gt;Node7</title>
<g id="a_edge9_Node000008_Node000007"><a xlink:title=" ">
<path fill="none" stroke="#63b8ff" d="M623.36,-71.5C545.16,-62.22 423.07,-46.97 317.75,-30.5 314.76,-30.03 311.7,-29.54 308.62,-29.03"/>
<polygon fill="#63b8ff" stroke="#63b8ff" points="622.72,-74.95 633.06,-72.65 623.54,-68 622.72,-74.95"/>
</a>
</g>
</g>
<!-- Node8&#45;&gt;Node9 -->
<g id="edge11_Node000008_Node000009" class="edge">
<title>Node8&#45;&gt;Node9</title>
<g id="a_edge11_Node000008_Node000009"><a xlink:title=" ">
<path fill="none" stroke="#63b8ff" d="M623.39,-63.92C574.19,-53.62 511.89,-40.57 464.91,-30.73"/>
<polygon fill="#63b8ff" stroke="#63b8ff" points="622.64,-67.34 633.15,-65.96 624.08,-60.49 622.64,-67.34"/>
</a>
</g>
</g>
<!-- Node8&#45;&gt;Node10 -->
<g id="edge12_Node000008_Node000010" class="edge">
<title>Node8&#45;&gt;Node10</title>
<g id="a_edge12_Node000008_Node000010"><a xlink:title=" ">
<path fill="none" stroke="#63b8ff" d="M783.34,-63.64C830.68,-53.46 890.11,-40.68 935.33,-30.96"/>
<polygon fill="#63b8ff" stroke="#63b8ff" points="782.72,-60.19 773.68,-65.72 784.19,-67.03 782.72,-60.19"/>
</a>
</g>
</g>
<!-- Node8&#45;&gt;Node11 -->
<g id="edge13_Node000008_Node000011" class="edge">
<title>Node8&#45;&gt;Node11</title>
<g id="a_edge13_Node000008_Node000011"><a xlink:title=" ">
<path fill="none" stroke="#63b8ff" d="M746.8,-61.47C768.74,-51.64 794.98,-39.89 815.2,-30.83"/>
<polygon fill="#63b8ff" stroke="#63b8ff" points="745.5,-58.21 737.81,-65.5 748.36,-64.6 745.5,-58.21"/>
</a>
</g>
</g>
<!-- Node8&#45;&gt;Node12 -->
<g id="edge14_Node000008_Node000012" class="edge">
<title>Node8&#45;&gt;Node12</title>
<g id="a_edge14_Node000008_Node000012"><a xlink:title=" ">
<path fill="none" stroke="#63b8ff" d="M783.86,-71.24C860.49,-61.88 979.22,-46.67 1081.75,-30.5 1084.74,-30.03 1087.79,-29.53 1090.88,-29.02"/>
<polygon fill="#63b8ff" stroke="#63b8ff" points="783.88,-67.72 774.37,-72.4 784.72,-74.67 783.88,-67.72"/>
</a>
</g>
</g>
<!-- Node8&#45;&gt;Node13 -->
<g id="edge15_Node000008_Node000013" class="edge">
<title>Node8&#45;&gt;Node13</title>
<g id="a_edge15_Node000008_Node000013"><a xlink:title=" ">
<path fill="none" stroke="#63b8ff" d="M623.41,-75.53C517.37,-68.13 325.02,-52.94 161.75,-30.5 158.75,-30.09 155.69,-29.64 152.6,-29.17"/>
<polygon fill="#63b8ff" stroke="#63b8ff" points="622.92,-79 633.14,-76.2 623.41,-72.02 622.92,-79"/>
</a>
</g>
</g>
<!-- Node14 -->
<g id="Node000014" class="node">
<title>Node14</title>
<g id="a_Node000014"><a xlink:href="ssplayer__render__dx9_8cpp.html" target="_top" xlink:title=" ">
<polygon fill="white" stroke="#666666" points="612.75,-30.5 482.75,-30.5 482.75,0 612.75,0 612.75,-30.5"/>
<text text-anchor="start" x="490.75" y="-17" font-family="Helvetica,sans-Serif" font-size="10.00">Common/Drawer/ssplayer</text>
<text text-anchor="middle" x="547.75" y="-5.75" font-family="Helvetica,sans-Serif" font-size="10.00">_render_dx9.cpp</text>
</a>
</g>
</g>
<!-- Node8&#45;&gt;Node14 -->
<g id="edge16_Node000008_Node000014" class="edge">
<title>Node8&#45;&gt;Node14</title>
<g id="a_edge16_Node000008_Node000014"><a xlink:title=" ">
<path fill="none" stroke="#63b8ff" d="M657.79,-61.75C633.99,-51.91 605.37,-40.07 583.28,-30.94"/>
<polygon fill="#63b8ff" stroke="#63b8ff" points="656.37,-64.95 666.95,-65.54 659.05,-58.48 656.37,-64.95"/>
</a>
</g>
</g>
<!-- Node15 -->
<g id="Node000015" class="node">
<title>Node15</title>
<g id="a_Node000015"><a xlink:href="ssplayer__render__gl_8cpp.html" target="_top" xlink:title=" ">
<polygon fill="white" stroke="#666666" points="760.75,-30.5 630.75,-30.5 630.75,0 760.75,0 760.75,-30.5"/>
<text text-anchor="start" x="638.75" y="-17" font-family="Helvetica,sans-Serif" font-size="10.00">Common/Drawer/ssplayer</text>
<text text-anchor="middle" x="695.75" y="-5.75" font-family="Helvetica,sans-Serif" font-size="10.00">_render_gl.cpp</text>
</a>
</g>
</g>
<!-- Node8&#45;&gt;Node15 -->
<g id="edge17_Node000008_Node000015" class="edge">
<title>Node8&#45;&gt;Node15</title>
<g id="a_edge17_Node000008_Node000015"><a xlink:title=" ">
<path fill="none" stroke="#63b8ff" d="M700.53,-54.81C699.52,-46.64 698.44,-37.91 697.56,-30.83"/>
<polygon fill="#63b8ff" stroke="#63b8ff" points="697.04,-55.12 701.75,-64.61 703.99,-54.26 697.04,-55.12"/>
</a>
</g>
</g>
<!-- Node16&#45;&gt;Node2 -->
<g id="edge21_Node000016_Node000002" class="edge">
<title>Node16&#45;&gt;Node2</title>
<g id="a_edge21_Node000016_Node000002"><a xlink:title=" ">
<path fill="none" stroke="#63b8ff" d="M1062.23,-128.07C1122.18,-101.63 1228.92,-54.55 1282.76,-30.8"/>
<polygon fill="#63b8ff" stroke="#63b8ff" points="1061.08,-124.76 1053.34,-131.99 1063.9,-131.16 1061.08,-124.76"/>
</a>
</g>
</g>
<!-- Node16&#45;&gt;Node10 -->
<g id="edge22_Node000016_Node000010" class="edge">
<title>Node16&#45;&gt;Node10</title>
<g id="a_edge22_Node000016_Node000010"><a xlink:title=" ">
<path fill="none" stroke="#63b8ff" d="M971.31,-127.11C959.18,-119.53 947.63,-109.61 940.75,-97 934.26,-85.1 934.87,-78.71 940.75,-66.5 948.03,-51.37 962.33,-39.39 975.47,-30.92"/>
<polygon fill="#63b8ff" stroke="#63b8ff" points="969.35,-130.02 979.77,-131.94 972.82,-123.94 969.35,-130.02"/>
</a>
</g>
</g>
<!-- Node16&#45;&gt;Node12 -->
<g id="edge24_Node000016_Node000012" class="edge">
<title>Node16&#45;&gt;Node12</title>
<g id="a_edge24_Node000016_Node000012"><a xlink:title=" ">
<path fill="none" stroke="#63b8ff" d="M1055.9,-126.85C1069.48,-118.51 1084.5,-108.19 1096.75,-97 1118.94,-76.73 1139.28,-48.03 1150.55,-30.87"/>
<polygon fill="#63b8ff" stroke="#63b8ff" points="1054.43,-123.65 1047.63,-131.78 1058.01,-129.67 1054.43,-123.65"/>
</a>
</g>
</g>
<!-- Node16&#45;&gt;Node16 -->
<g id="edge23_Node000016_Node000016" class="edge">
<title>Node16&#45;&gt;Node16</title>
<g id="a_edge23_Node000016_Node000016"><a xlink:title=" ">
<path fill="none" stroke="#63b8ff" d="M1098.73,-155.79C1102.98,-153.94 1105.5,-151.43 1105.5,-148.25 1105.5,-142.9 1098.35,-139.43 1087.83,-137.84"/>
<polygon fill="#63b8ff" stroke="#63b8ff" points="1098.07,-152.35 1089.29,-158.27 1099.85,-159.11 1098.07,-152.35"/>
</a>
</g>
</g>
<!-- Node17 -->
<g id="Node000017" class="node">
<title>Node17</title>
<g id="a_Node000017"><a xlink:href="ssplayer__effectfunction_8h.html" target="_top" xlink:title=" ">
<polygon fill="white" stroke="#666666" points="1087.5,-97 950,-97 950,-66.5 1087.5,-66.5 1087.5,-97"/>
<text text-anchor="start" x="958" y="-83.5" font-family="Helvetica,sans-Serif" font-size="10.00">Common/Animator/ssplayer</text>
<text text-anchor="middle" x="1018.75" y="-72.25" font-family="Helvetica,sans-Serif" font-size="10.00">_effectfunction.h</text>
</a>
</g>
</g>
<!-- Node16&#45;&gt;Node17 -->
<g id="edge25_Node000016_Node000017" class="edge">
<title>Node16&#45;&gt;Node17</title>
<g id="a_edge25_Node000016_Node000017"><a xlink:title=" ">
<path fill="none" stroke="#63b8ff" d="M1018.75,-121.31C1018.75,-113.14 1018.75,-104.41 1018.75,-97.33"/>
<polygon fill="#63b8ff" stroke="#63b8ff" points="1015.25,-121.1 1018.75,-131.1 1022.25,-121.1 1015.25,-121.1"/>
</a>
</g>
</g>
<!-- Node17&#45;&gt;Node10 -->
<g id="edge26_Node000017_Node000010" class="edge">
<title>Node17&#45;&gt;Node10</title>
<g id="a_edge26_Node000017_Node000010"><a xlink:title=" ">
<path fill="none" stroke="#63b8ff" d="M1012.78,-55.09C1010.86,-46.84 1008.81,-37.99 1007.14,-30.83"/>
<polygon fill="#63b8ff" stroke="#63b8ff" points="1009.33,-55.69 1015,-64.64 1016.15,-54.11 1009.33,-55.69"/>
</a>
</g>
</g>
<!-- Node17&#45;&gt;Node11 -->
<g id="edge27_Node000017_Node000011" class="edge">
<title>Node17&#45;&gt;Node11</title>
<g id="a_edge27_Node000017_Node000011"><a xlink:title=" ">
<path fill="none" stroke="#63b8ff" d="M969.43,-62.15C943.13,-52.23 911.23,-40.2 886.69,-30.94"/>
<polygon fill="#63b8ff" stroke="#63b8ff" points="967.94,-65.33 978.53,-65.58 970.41,-58.78 967.94,-65.33"/>
</a>
</g>
</g>
<!-- Node17&#45;&gt;Node12 -->
<g id="edge28_Node000017_Node000012" class="edge">
<title>Node17&#45;&gt;Node12</title>
<g id="a_edge28_Node000017_Node000012"><a xlink:title=" ">
<path fill="none" stroke="#63b8ff" d="M1061.2,-61.33C1082.62,-51.53 1108.17,-39.85 1127.88,-30.83"/>
<polygon fill="#63b8ff" stroke="#63b8ff" points="1059.76,-58.14 1052.12,-65.48 1062.67,-64.51 1059.76,-58.14"/>
</a>
</g>
</g>
<!-- Node18&#45;&gt;Node8 -->
<g id="edge33_Node000018_Node000008" class="edge">
<title>Node18&#45;&gt;Node8</title>
<g id="a_edge33_Node000018_Node000008"><a xlink:title=" ">
<path fill="none" stroke="#63b8ff" d="M707.93,-121.31C707.05,-113.14 706.1,-104.41 705.33,-97.33"/>
<polygon fill="#63b8ff" stroke="#63b8ff" points="704.44,-121.55 709,-131.11 711.4,-120.79 704.44,-121.55"/>
</a>
</g>
</g>
<!-- Node19&#45;&gt;Node8 -->
<g id="edge35_Node000019_Node000008" class="edge">
<title>Node19&#45;&gt;Node8</title>
<g id="a_edge35_Node000019_Node000008"><a xlink:title=" ">
<path fill="none" stroke="#63b8ff" d="M516.87,-195.68C540.83,-188.11 570.31,-177.24 594.75,-163.5 613.63,-152.89 615.46,-146.04 632.75,-133 649.15,-120.63 668.16,-107.23 682.38,-97.37"/>
<polygon fill="#63b8ff" stroke="#63b8ff" points="515.92,-192.31 507.39,-198.58 517.97,-199 515.92,-192.31"/>
</a>
</g>
</g>
<!-- Node19&#45;&gt;Node18 -->
<g id="edge36_Node000019_Node000018" class="edge">
<title>Node19&#45;&gt;Node18</title>
<g id="a_edge36_Node000019_Node000018"><a xlink:title=" ">
<path fill="none" stroke="#63b8ff" d="M519.31,-196.41C557.17,-187.08 610.38,-173.97 651.1,-163.94"/>
<polygon fill="#63b8ff" stroke="#63b8ff" points="518.91,-192.9 510.04,-198.69 520.59,-199.7 518.91,-192.9"/>
</a>
</g>
</g>
<!-- Node20 -->
<g id="Node000020" class="node">
<title>Node20</title>
<g id="a_Node000020"><a xlink:href="_s_s_texture_d_x9_8cpp.html" target="_top" xlink:title=" ">
<polygon fill="white" stroke="#666666" points="429.38,-163.5 306.12,-163.5 306.12,-133 429.38,-133 429.38,-163.5"/>
<text text-anchor="start" x="314.12" y="-150" font-family="Helvetica,sans-Serif" font-size="10.00">Common/Helper/DirectX</text>
<text text-anchor="middle" x="367.75" y="-138.75" font-family="Helvetica,sans-Serif" font-size="10.00">/SSTextureDX9.cpp</text>
</a>
</g>
</g>
<!-- Node19&#45;&gt;Node20 -->
<g id="edge37_Node000019_Node000020" class="edge">
<title>Node19&#45;&gt;Node20</title>
<g id="a_edge37_Node000019_Node000020"><a xlink:title=" ">
<path fill="none" stroke="#63b8ff" d="M446.16,-193.64C430.11,-184.55 409.49,-172.88 393.42,-163.78"/>
<polygon fill="#63b8ff" stroke="#63b8ff" points="444.21,-196.56 454.64,-198.44 447.66,-190.47 444.21,-196.56"/>
</a>
</g>
</g>
<!-- Node21 -->
<g id="Node000021" class="node">
<title>Node21</title>
<g id="a_Node000021"><a xlink:href="ssh_texture_b_m_p_8cpp.html" target="_top" xlink:title=" ">
<polygon fill="white" stroke="#666666" points="585.88,-163.5 447.62,-163.5 447.62,-133 585.88,-133 585.88,-163.5"/>
<text text-anchor="start" x="455.62" y="-150" font-family="Helvetica,sans-Serif" font-size="10.00">Common/Helper/sshTexture</text>
<text text-anchor="middle" x="516.75" y="-138.75" font-family="Helvetica,sans-Serif" font-size="10.00">BMP.cpp</text>
</a>
</g>
</g>
<!-- Node19&#45;&gt;Node21 -->
<g id="edge38_Node000019_Node000021" class="edge">
<title>Node19&#45;&gt;Node21</title>
<g id="a_edge38_Node000019_Node000021"><a xlink:title=" ">
<path fill="none" stroke="#63b8ff" d="M485.49,-190.15C491.95,-181.7 499.55,-171.75 505.64,-163.78"/>
<polygon fill="#63b8ff" stroke="#63b8ff" points="482.8,-187.91 479.5,-197.98 488.36,-192.16 482.8,-187.91"/>
</a>
</g>
</g>
<!-- Node23&#45;&gt;Node6 -->
<g id="edge43_Node000023_Node000006" class="edge">
<title>Node23&#45;&gt;Node6</title>
<g id="a_edge43_Node000023_Node000006"><a xlink:title=" ">
<path fill="none" stroke="#63b8ff" d="M717.82,-391.33C743.54,-384.11 770.42,-372.02 788.75,-351.75 807.2,-331.35 808.7,-296.44 808.27,-280.03"/>
<polygon fill="#63b8ff" stroke="#63b8ff" points="717.18,-387.88 708.37,-393.76 718.92,-394.66 717.18,-387.88"/>
</a>
</g>
</g>
<!-- Node24 -->
<g id="Node000024" class="node">
<title>Node24</title>
<g id="a_Node000024"><a xlink:href="ssloader__ssae_8cpp.html" target="_top" xlink:title=" ">
<polygon fill="white" stroke="#666666" points="779.62,-351.75 651.88,-351.75 651.88,-321.25 779.62,-321.25 779.62,-351.75"/>
<text text-anchor="start" x="659.88" y="-338.25" font-family="Helvetica,sans-Serif" font-size="10.00">Common/Loader/ssloader</text>
<text text-anchor="middle" x="715.75" y="-327" font-family="Helvetica,sans-Serif" font-size="10.00">_ssae.cpp</text>
</a>
</g>
</g>
<!-- Node23&#45;&gt;Node24 -->
<g id="edge44_Node000023_Node000024" class="edge">
<title>Node23&#45;&gt;Node24</title>
<g id="a_edge44_Node000023_Node000024"><a xlink:title=" ">
<path fill="none" stroke="#63b8ff" d="M667.66,-379.99C678.09,-370.78 689.93,-360.31 699.25,-352.08"/>
<polygon fill="#63b8ff" stroke="#63b8ff" points="665.63,-377.12 660.45,-386.36 670.26,-382.36 665.63,-377.12"/>
</a>
</g>
</g>
<!-- Node25 -->
<g id="Node000025" class="node">
<title>Node25</title>
<g id="a_Node000025"><a xlink:href="ssloader__ssee_8cpp.html" target="_top" xlink:title=" ">
<polygon fill="white" stroke="#666666" points="491.62,-285.25 363.88,-285.25 363.88,-254.75 491.62,-254.75 491.62,-285.25"/>
<text text-anchor="start" x="371.88" y="-271.75" font-family="Helvetica,sans-Serif" font-size="10.00">Common/Loader/ssloader</text>
<text text-anchor="middle" x="427.75" y="-260.5" font-family="Helvetica,sans-Serif" font-size="10.00">_ssee.cpp</text>
</a>
</g>
</g>
<!-- Node23&#45;&gt;Node25 -->
<g id="edge45_Node000023_Node000025" class="edge">
<title>Node23&#45;&gt;Node25</title>
<g id="a_edge45_Node000023_Node000025"><a xlink:title=" ">
<path fill="none" stroke="#63b8ff" d="M567.72,-387.68C540.78,-380.06 511.28,-368.64 487.75,-351.75 463.35,-334.23 444.65,-303.8 435.01,-285.72"/>
<polygon fill="#63b8ff" stroke="#63b8ff" points="566.66,-391.02 577.22,-390.23 568.47,-384.26 566.66,-391.02"/>
</a>
</g>
</g>
<!-- Node26 -->
<g id="Node000026" class="node">
<title>Node26</title>
<g id="a_Node000026"><a xlink:href="ssloader__sspj_8cpp.html" target="_top" xlink:title=" ">
<polygon fill="white" stroke="#666666" points="637.62,-285.25 509.88,-285.25 509.88,-254.75 637.62,-254.75 637.62,-285.25"/>
<text text-anchor="start" x="517.88" y="-271.75" font-family="Helvetica,sans-Serif" font-size="10.00">Common/Loader/ssloader</text>
<text text-anchor="middle" x="573.75" y="-260.5" font-family="Helvetica,sans-Serif" font-size="10.00">_sspj.cpp</text>
</a>
</g>
</g>
<!-- Node23&#45;&gt;Node26 -->
<g id="edge46_Node000023_Node000026" class="edge">
<title>Node23&#45;&gt;Node26</title>
<g id="a_edge46_Node000023_Node000026"><a xlink:title=" ">
<path fill="none" stroke="#63b8ff" d="M567.71,-394.18C540.84,-387.35 513.17,-374.77 496.75,-351.75 488.88,-340.71 490.3,-333.17 496.75,-321.25 505.34,-305.39 521.35,-293.74 536.55,-285.67"/>
<polygon fill="#63b8ff" stroke="#63b8ff" points="566.73,-397.55 577.26,-396.36 568.28,-390.73 566.73,-397.55"/>
</a>
</g>
</g>
<!-- Node27 -->
<g id="Node000027" class="node">
<title>Node27</title>
<g id="a_Node000027"><a xlink:href="ssloader__sspj_8h.html" target="_top" xlink:title=" ">
<polygon fill="white" stroke="#666666" points="633.62,-351.75 505.88,-351.75 505.88,-321.25 633.62,-321.25 633.62,-351.75"/>
<text text-anchor="start" x="513.88" y="-338.25" font-family="Helvetica,sans-Serif" font-size="10.00">Common/Loader/ssloader</text>
<text text-anchor="middle" x="569.75" y="-327" font-family="Helvetica,sans-Serif" font-size="10.00">_sspj.h</text>
</a>
</g>
</g>
<!-- Node23&#45;&gt;Node27 -->
<g id="edge47_Node000023_Node000027" class="edge">
<title>Node23&#45;&gt;Node27</title>
<g id="a_edge47_Node000023_Node000027"><a xlink:title=" ">
<path fill="none" stroke="#63b8ff" d="M617.84,-379.99C607.41,-370.78 595.57,-360.31 586.25,-352.08"/>
<polygon fill="#63b8ff" stroke="#63b8ff" points="615.24,-382.36 625.05,-386.36 619.87,-377.12 615.24,-382.36"/>
</a>
</g>
</g>
<!-- Node27&#45;&gt;Node6 -->
<g id="edge48_Node000027_Node000006" class="edge">
<title>Node27&#45;&gt;Node6</title>
<g id="a_edge48_Node000027_Node000006"><a xlink:title=" ">
<path fill="none" stroke="#63b8ff" d="M634.93,-317.84C680.03,-305.61 738.21,-289.85 774.24,-280.08"/>
<polygon fill="#63b8ff" stroke="#63b8ff" points="634.25,-314.39 625.51,-320.39 636.08,-321.15 634.25,-314.39"/>
</a>
</g>
</g>
<!-- Node27&#45;&gt;Node25 -->
<g id="edge49_Node000027_Node000025" class="edge">
<title>Node27&#45;&gt;Node25</title>
<g id="a_edge49_Node000027_Node000025"><a xlink:title=" ">
<path fill="none" stroke="#63b8ff" d="M527.29,-316.22C505.66,-306.39 479.79,-294.64 459.84,-285.58"/>
<polygon fill="#63b8ff" stroke="#63b8ff" points="525.6,-319.29 536.15,-320.24 528.49,-312.92 525.6,-319.29"/>
</a>
</g>
</g>
<!-- Node27&#45;&gt;Node26 -->
<g id="edge50_Node000027_Node000026" class="edge">
<title>Node27&#45;&gt;Node26</title>
<g id="a_edge50_Node000027_Node000026"><a xlink:title=" ">
<path fill="none" stroke="#63b8ff" d="M571.36,-309.56C571.87,-301.39 572.41,-292.66 572.85,-285.58"/>
<polygon fill="#63b8ff" stroke="#63b8ff" points="567.88,-309.16 570.75,-319.35 574.86,-309.59 567.88,-309.16"/>
</a>
</g>
</g>
</g>
</svg>
