<?xml version="1.0" encoding="UTF-8" standalone="no"?>
<!DOCTYPE svg PUBLIC "-//W3C//DTD SVG 1.1//EN"
 "http://www.w3.org/Graphics/SVG/1.1/DTD/svg11.dtd">
<!-- Generated by graphviz version 10.0.1 (20240210.2158)
 -->
<!-- Title: Common/Loader/ssInterpolation.cpp Pages: 1 -->
<svg width="1199pt" height="469pt"
 viewBox="0.00 0.00 1198.50 469.25" xmlns="http://www.w3.org/2000/svg" xmlns:xlink="http://www.w3.org/1999/xlink">
<g id="graph0" class="graph" transform="scale(1 1) rotate(0) translate(4 465.25)">
<title>Common/Loader/ssInterpolation.cpp</title>
<!-- Node1 -->
<g id="Node000001" class="node">
<title>Node1</title>
<g id="a_Node000001"><a xlink:title=" ">
<polygon fill="#999999" stroke="#666666" points="404.25,-461.25 230.75,-461.25 230.75,-442 404.25,-442 404.25,-461.25"/>
<text text-anchor="middle" x="317.5" y="-447.75" font-family="Helvetica,sans-Serif" font-size="10.00">Common/Loader/ssInterpolation.cpp</text>
</a>
</g>
</g>
<!-- Node2 -->
<g id="Node000002" class="node">
<title>Node2</title>
<g id="a_Node000002"><a xlink:href="ssloader_8h.html" target="_top" xlink:title=" ">
<polygon fill="white" stroke="#666666" points="595.62,-406 535.38,-406 535.38,-386.75 595.62,-386.75 595.62,-406"/>
<text text-anchor="middle" x="565.5" y="-392.5" font-family="Helvetica,sans-Serif" font-size="10.00">ssloader.h</text>
</a>
</g>
</g>
<!-- Node1&#45;&gt;Node2 -->
<g id="edge1_Node000001_Node000002" class="edge">
<title>Node1&#45;&gt;Node2</title>
<g id="a_edge1_Node000001_Node000002"><a xlink:title=" ">
<path fill="none" stroke="#63b8ff" d="M359.85,-441.53C405.67,-431.69 478.25,-416.11 523.81,-406.33"/>
<polygon fill="#63b8ff" stroke="#63b8ff" points="524.53,-409.75 533.58,-404.23 523.06,-402.91 524.53,-409.75"/>
</a>
</g>
</g>
<!-- Node20 -->
<g id="Node000020" class="node">
<title>Node20</title>
<g id="a_Node000020"><a xlink:href="ss_interpolation_8h.html" target="_top" xlink:title=" ">
<polygon fill="white" stroke="#666666" points="207.5,-185 119.5,-185 119.5,-165.75 207.5,-165.75 207.5,-185"/>
<text text-anchor="middle" x="163.5" y="-171.5" font-family="Helvetica,sans-Serif" font-size="10.00">ssInterpolation.h</text>
</a>
</g>
</g>
<!-- Node1&#45;&gt;Node20 -->
<g id="edge63_Node000001_Node000020" class="edge">
<title>Node1&#45;&gt;Node20</title>
<g id="a_edge63_Node000001_Node000020"><a xlink:title=" ">
<path fill="none" stroke="#63b8ff" d="M279.04,-441.53C233.42,-428.19 163.5,-398.54 163.5,-342.12 163.5,-342.12 163.5,-342.12 163.5,-284.88 163.5,-254.16 163.5,-218.55 163.5,-196.74"/>
<polygon fill="#63b8ff" stroke="#63b8ff" points="167,-196.89 163.5,-186.89 160,-196.89 167,-196.89"/>
</a>
</g>
</g>
<!-- Node3 -->
<g id="Node000003" class="node">
<title>Node3</title>
<g id="a_Node000003"><a xlink:href="sstypes_8h.html" target="_top" xlink:title=" ">
<polygon fill="white" stroke="#666666" points="820.88,-74.5 762.12,-74.5 762.12,-55.25 820.88,-55.25 820.88,-74.5"/>
<text text-anchor="middle" x="791.5" y="-61" font-family="Helvetica,sans-Serif" font-size="10.00">sstypes.h</text>
</a>
</g>
</g>
<!-- Node2&#45;&gt;Node3 -->
<g id="edge2_Node000002_Node000003" class="edge">
<title>Node2&#45;&gt;Node3</title>
<g id="a_edge2_Node000002_Node000003"><a xlink:title=" ">
<path fill="none" stroke="#63b8ff" d="M596.07,-393.35C721.55,-384.62 1190.5,-347.93 1190.5,-286.88 1190.5,-286.88 1190.5,-286.88 1190.5,-174.38 1190.5,-100.75 934.32,-75.45 832.51,-68.3"/>
<polygon fill="#63b8ff" stroke="#63b8ff" points="832.89,-64.82 822.67,-67.64 832.42,-71.81 832.89,-64.82"/>
</a>
</g>
</g>
<!-- Node9 -->
<g id="Node000009" class="node">
<title>Node9</title>
<g id="a_Node000009"><a xlink:href="ssarchiver_8h.html" target="_top" xlink:title=" ">
<polygon fill="white" stroke="#666666" points="557.75,-129.75 489.25,-129.75 489.25,-110.5 557.75,-110.5 557.75,-129.75"/>
<text text-anchor="middle" x="523.5" y="-116.25" font-family="Helvetica,sans-Serif" font-size="10.00">ssarchiver.h</text>
</a>
</g>
</g>
<!-- Node2&#45;&gt;Node9 -->
<g id="edge8_Node000002_Node000009" class="edge">
<title>Node2&#45;&gt;Node9</title>
<g id="a_edge8_Node000002_Node000009"><a xlink:title=" ">
<path fill="none" stroke="#63b8ff" d="M562.94,-386.25C554.96,-357.18 530.59,-264.01 523.5,-185 522.2,-170.57 522.23,-154.24 522.57,-141.7"/>
<polygon fill="#63b8ff" stroke="#63b8ff" points="526.06,-141.88 522.93,-131.76 519.07,-141.62 526.06,-141.88"/>
</a>
</g>
</g>
<!-- Node12 -->
<g id="Node000012" class="node">
<title>Node12</title>
<g id="a_Node000012"><a xlink:href="ssattribute_8h.html" target="_top" xlink:title=" ">
<polygon fill="white" stroke="#666666" points="354.5,-240.25 284.5,-240.25 284.5,-221 354.5,-221 354.5,-240.25"/>
<text text-anchor="middle" x="319.5" y="-226.75" font-family="Helvetica,sans-Serif" font-size="10.00">ssattribute.h</text>
</a>
</g>
</g>
<!-- Node2&#45;&gt;Node12 -->
<g id="edge14_Node000002_Node000012" class="edge">
<title>Node2&#45;&gt;Node12</title>
<g id="a_edge14_Node000002_Node000012"><a xlink:title=" ">
<path fill="none" stroke="#63b8ff" d="M534.96,-386.81C492.08,-373.47 413.67,-344.08 363.5,-295.5 349.76,-282.2 337.72,-263.99 329.73,-250.42"/>
<polygon fill="#63b8ff" stroke="#63b8ff" points="332.95,-249.01 324.97,-242.03 326.86,-252.46 332.95,-249.01"/>
</a>
</g>
</g>
<!-- Node2&#45;&gt;Node20 -->
<g id="edge62_Node000002_Node000020" class="edge">
<title>Node2&#45;&gt;Node20</title>
<g id="a_edge62_Node000002_Node000020"><a xlink:title=" ">
<path fill="none" stroke="#63b8ff" d="M534.88,-389.9C502.4,-383.37 450.14,-370.75 408.5,-350.75 315.7,-306.18 220.5,-226.81 181.66,-192.7"/>
<polygon fill="#63b8ff" stroke="#63b8ff" points="184.37,-190.42 174.56,-186.41 179.72,-195.66 184.37,-190.42"/>
</a>
</g>
</g>
<!-- Node22 -->
<g id="Node000022" class="node">
<title>Node22</title>
<g id="a_Node000022"><a xlink:href="ssloader__sspj_8h.html" target="_top" xlink:title=" ">
<polygon fill="white" stroke="#666666" points="661.62,-350.75 577.38,-350.75 577.38,-331.5 661.62,-331.5 661.62,-350.75"/>
<text text-anchor="middle" x="619.5" y="-337.25" font-family="Helvetica,sans-Serif" font-size="10.00">ssloader_sspj.h</text>
</a>
</g>
</g>
<!-- Node2&#45;&gt;Node22 -->
<g id="edge31_Node000002_Node000022" class="edge">
<title>Node2&#45;&gt;Node22</title>
<g id="a_edge31_Node000002_Node000022"><a xlink:title=" ">
<path fill="none" stroke="#63b8ff" d="M574.42,-386.58C581.95,-379.15 592.97,-368.29 602.23,-359.16"/>
<polygon fill="#63b8ff" stroke="#63b8ff" points="604.65,-361.69 609.31,-352.17 599.73,-356.7 604.65,-361.69"/>
</a>
</g>
</g>
<!-- Node23 -->
<g id="Node000023" class="node">
<title>Node23</title>
<g id="a_Node000023"><a xlink:href="ssloader__ssae_8h.html" target="_top" xlink:title=" ">
<polygon fill="white" stroke="#666666" points="460.12,-295.5 372.88,-295.5 372.88,-276.25 460.12,-276.25 460.12,-295.5"/>
<text text-anchor="middle" x="416.5" y="-282" font-family="Helvetica,sans-Serif" font-size="10.00">ssloader_ssae.h</text>
</a>
</g>
</g>
<!-- Node2&#45;&gt;Node23 -->
<g id="edge58_Node000002_Node000023" class="edge">
<title>Node2&#45;&gt;Node23</title>
<g id="a_edge58_Node000002_Node000023"><a xlink:title=" ">
<path fill="none" stroke="#63b8ff" d="M540.91,-386.29C521.74,-378.53 495.03,-366.19 474.5,-350.75 456.97,-337.57 440.51,-318.56 429.64,-304.71"/>
<polygon fill="#63b8ff" stroke="#63b8ff" points="432.53,-302.73 423.69,-296.9 426.96,-306.97 432.53,-302.73"/>
</a>
</g>
</g>
<!-- Node24 -->
<g id="Node000024" class="node">
<title>Node24</title>
<g id="a_Node000024"><a xlink:href="ssloader__ssce_8h.html" target="_top" xlink:title=" ">
<polygon fill="white" stroke="#666666" points="667.12,-240.25 579.88,-240.25 579.88,-221 667.12,-221 667.12,-240.25"/>
<text text-anchor="middle" x="623.5" y="-226.75" font-family="Helvetica,sans-Serif" font-size="10.00">ssloader_ssce.h</text>
</a>
</g>
</g>
<!-- Node2&#45;&gt;Node24 -->
<g id="edge59_Node000002_Node000024" class="edge">
<title>Node2&#45;&gt;Node24</title>
<g id="a_edge59_Node000002_Node000024"><a xlink:title=" ">
<path fill="none" stroke="#63b8ff" d="M595.67,-391.6C620.43,-386.74 654,-375.69 670.5,-350.75 692.27,-317.85 661.28,-273.32 640.21,-249.1"/>
<polygon fill="#63b8ff" stroke="#63b8ff" points="642.82,-246.77 633.51,-241.72 637.64,-251.47 642.82,-246.77"/>
</a>
</g>
</g>
<!-- Node25 -->
<g id="Node000025" class="node">
<title>Node25</title>
<g id="a_Node000025"><a xlink:href="ssloader__ssee_8h.html" target="_top" xlink:title=" ">
<polygon fill="white" stroke="#666666" points="842.12,-295.5 754.88,-295.5 754.88,-276.25 842.12,-276.25 842.12,-295.5"/>
<text text-anchor="middle" x="798.5" y="-282" font-family="Helvetica,sans-Serif" font-size="10.00">ssloader_ssee.h</text>
</a>
</g>
</g>
<!-- Node2&#45;&gt;Node25 -->
<g id="edge60_Node000002_Node000025" class="edge">
<title>Node2&#45;&gt;Node25</title>
<g id="a_edge60_Node000002_Node000025"><a xlink:title=" ">
<path fill="none" stroke="#63b8ff" d="M596.02,-392.95C632.64,-388.89 694.83,-378.23 740.5,-350.75 759.5,-339.32 775.93,-319.74 786.4,-305.27"/>
<polygon fill="#63b8ff" stroke="#63b8ff" points="789.26,-307.28 792.06,-297.06 783.5,-303.3 789.26,-307.28"/>
</a>
</g>
</g>
<!-- Node29 -->
<g id="Node000029" class="node">
<title>Node29</title>
<g id="a_Node000029"><a xlink:href="ssloader__ssqe_8h.html" target="_top" xlink:title=" ">
<polygon fill="white" stroke="#666666" points="1162.12,-240.25 1074.88,-240.25 1074.88,-221 1162.12,-221 1162.12,-240.25"/>
<text text-anchor="middle" x="1118.5" y="-226.75" font-family="Helvetica,sans-Serif" font-size="10.00">ssloader_ssqe.h</text>
</a>
</g>
</g>
<!-- Node2&#45;&gt;Node29 -->
<g id="edge61_Node000002_Node000029" class="edge">
<title>Node2&#45;&gt;Node29</title>
<g id="a_edge61_Node000002_Node000029"><a xlink:title=" ">
<path fill="none" stroke="#63b8ff" d="M595.93,-393.05C695.19,-384.95 1007.74,-355.11 1086.5,-295.5 1100.72,-284.74 1109.06,-265.92 1113.64,-251.49"/>
<polygon fill="#63b8ff" stroke="#63b8ff" points="1116.93,-252.7 1116.24,-242.13 1110.19,-250.83 1116.93,-252.7"/>
</a>
</g>
</g>
<!-- Node4 -->
<g id="Node000004" class="node">
<title>Node4</title>
<g id="a_Node000004"><a xlink:title=" ">
<polygon fill="#e0e0e0" stroke="#999999" points="885.25,-19.25 837.75,-19.25 837.75,0 885.25,0 885.25,-19.25"/>
<text text-anchor="middle" x="861.5" y="-5.75" font-family="Helvetica,sans-Serif" font-size="10.00">stdlib.h</text>
</a>
</g>
</g>
<!-- Node3&#45;&gt;Node4 -->
<g id="edge3_Node000003_Node000004" class="edge">
<title>Node3&#45;&gt;Node4</title>
<g id="a_edge3_Node000003_Node000004"><a xlink:title=" ">
<path fill="none" stroke="#63b8ff" d="M803.37,-54.84C813.59,-47.07 828.57,-35.67 840.76,-26.4"/>
<polygon fill="#63b8ff" stroke="#63b8ff" points="842.76,-29.28 848.6,-20.44 838.52,-23.71 842.76,-29.28"/>
</a>
</g>
</g>
<!-- Node5 -->
<g id="Node000005" class="node">
<title>Node5</title>
<g id="a_Node000005"><a xlink:title=" ">
<polygon fill="#e0e0e0" stroke="#999999" points="629.5,-19.25 589.5,-19.25 589.5,0 629.5,0 629.5,-19.25"/>
<text text-anchor="middle" x="609.5" y="-5.75" font-family="Helvetica,sans-Serif" font-size="10.00">string</text>
</a>
</g>
</g>
<!-- Node3&#45;&gt;Node5 -->
<g id="edge4_Node000003_Node000005" class="edge">
<title>Node3&#45;&gt;Node5</title>
<g id="a_edge4_Node000003_Node000005"><a xlink:title=" ">
<path fill="none" stroke="#63b8ff" d="M761.85,-55.2C728.46,-45.43 674.44,-29.62 640.5,-19.69"/>
<polygon fill="#63b8ff" stroke="#63b8ff" points="641.85,-16.44 631.27,-16.99 639.88,-23.16 641.85,-16.44"/>
</a>
</g>
</g>
<!-- Node6 -->
<g id="Node000006" class="node">
<title>Node6</title>
<g id="a_Node000006"><a xlink:title=" ">
<polygon fill="#e0e0e0" stroke="#999999" points="424,-19.25 381,-19.25 381,0 424,0 424,-19.25"/>
<text text-anchor="middle" x="402.5" y="-5.75" font-family="Helvetica,sans-Serif" font-size="10.00">vector</text>
</a>
</g>
</g>
<!-- Node3&#45;&gt;Node6 -->
<g id="edge5_Node000003_Node000006" class="edge">
<title>Node3&#45;&gt;Node6</title>
<g id="a_edge5_Node000003_Node000006"><a xlink:title=" ">
<path fill="none" stroke="#63b8ff" d="M761.94,-59.83C690.58,-50.06 509.31,-25.25 435.01,-15.08"/>
<polygon fill="#63b8ff" stroke="#63b8ff" points="435.92,-11.67 425.54,-13.78 434.97,-18.6 435.92,-11.67"/>
</a>
</g>
</g>
<!-- Node7 -->
<g id="Node000007" class="node">
<title>Node7</title>
<g id="a_Node000007"><a xlink:title=" ">
<polygon fill="#e0e0e0" stroke="#999999" points="746,-19.25 703,-19.25 703,0 746,0 746,-19.25"/>
<text text-anchor="middle" x="724.5" y="-5.75" font-family="Helvetica,sans-Serif" font-size="10.00">cmath</text>
</a>
</g>
</g>
<!-- Node3&#45;&gt;Node7 -->
<g id="edge6_Node000003_Node000007" class="edge">
<title>Node3&#45;&gt;Node7</title>
<g id="a_edge6_Node000003_Node000007"><a xlink:title=" ">
<path fill="none" stroke="#63b8ff" d="M780.13,-54.84C770.45,-47.15 756.3,-35.9 744.69,-26.68"/>
<polygon fill="#63b8ff" stroke="#63b8ff" points="746.89,-23.95 736.88,-20.47 742.53,-29.43 746.89,-23.95"/>
</a>
</g>
</g>
<!-- Node8 -->
<g id="Node000008" class="node">
<title>Node8</title>
<g id="a_Node000008"><a xlink:title=" ">
<polygon fill="#e0e0e0" stroke="#999999" points="819.38,-19.25 763.62,-19.25 763.62,0 819.38,0 819.38,-19.25"/>
<text text-anchor="middle" x="791.5" y="-5.75" font-family="Helvetica,sans-Serif" font-size="10.00">algorithm</text>
</a>
</g>
</g>
<!-- Node3&#45;&gt;Node8 -->
<g id="edge7_Node000003_Node000008" class="edge">
<title>Node3&#45;&gt;Node8</title>
<g id="a_edge7_Node000003_Node000008"><a xlink:title=" ">
<path fill="none" stroke="#63b8ff" d="M791.5,-55.08C791.5,-48.57 791.5,-39.42 791.5,-31.12"/>
<polygon fill="#63b8ff" stroke="#63b8ff" points="795,-31.12 791.5,-21.12 788,-31.12 795,-31.12"/>
</a>
</g>
</g>
<!-- Node9&#45;&gt;Node3 -->
<g id="edge10_Node000009_Node000003" class="edge">
<title>Node9&#45;&gt;Node3</title>
<g id="a_edge10_Node000009_Node000003"><a xlink:title=" ">
<path fill="none" stroke="#63b8ff" d="M557.99,-112.27C607.27,-102.48 697.71,-84.51 750.4,-74.04"/>
<polygon fill="#63b8ff" stroke="#63b8ff" points="751.07,-77.48 760.19,-72.1 749.7,-70.61 751.07,-77.48"/>
</a>
</g>
</g>
<!-- Node9&#45;&gt;Node5 -->
<g id="edge11_Node000009_Node000005" class="edge">
<title>Node9&#45;&gt;Node5</title>
<g id="a_edge11_Node000009_Node000005"><a xlink:title=" ">
<path fill="none" stroke="#63b8ff" d="M544.2,-110.11C559.11,-102.62 578.63,-90.58 590.5,-74.5 599.88,-61.81 604.65,-44.5 607.07,-31.11"/>
<polygon fill="#63b8ff" stroke="#63b8ff" points="610.53,-31.64 608.52,-21.24 603.61,-30.63 610.53,-31.64"/>
</a>
</g>
</g>
<!-- Node9&#45;&gt;Node6 -->
<g id="edge12_Node000009_Node000006" class="edge">
<title>Node9&#45;&gt;Node6</title>
<g id="a_edge12_Node000009_Node000006"><a xlink:title=" ">
<path fill="none" stroke="#63b8ff" d="M511.37,-110.3C499.6,-101.57 481.37,-87.66 466.5,-74.5 449.5,-59.46 431.28,-41.02 418.65,-27.83"/>
<polygon fill="#63b8ff" stroke="#63b8ff" points="421.34,-25.59 411.92,-20.74 416.26,-30.41 421.34,-25.59"/>
</a>
</g>
</g>
<!-- Node10 -->
<g id="Node000010" class="node">
<title>Node10</title>
<g id="a_Node000010"><a xlink:title=" ">
<polygon fill="#e0e0e0" stroke="#999999" points="581.88,-74.5 475.12,-74.5 475.12,-55.25 581.88,-55.25 581.88,-74.5"/>
<text text-anchor="middle" x="528.5" y="-61" font-family="Helvetica,sans-Serif" font-size="10.00">./tinyxml2/tinyxml2.h</text>
</a>
</g>
</g>
<!-- Node9&#45;&gt;Node10 -->
<g id="edge9_Node000009_Node000010" class="edge">
<title>Node9&#45;&gt;Node10</title>
<g id="a_edge9_Node000009_Node000010"><a xlink:title=" ">
<path fill="none" stroke="#63b8ff" d="M524.33,-110.33C524.94,-103.74 525.82,-94.46 526.6,-86.07"/>
<polygon fill="#63b8ff" stroke="#63b8ff" points="530.06,-86.65 527.51,-76.37 523.1,-86 530.06,-86.65"/>
</a>
</g>
</g>
<!-- Node11 -->
<g id="Node000011" class="node">
<title>Node11</title>
<g id="a_Node000011"><a xlink:title=" ">
<polygon fill="#e0e0e0" stroke="#999999" points="419.88,-74.5 385.12,-74.5 385.12,-55.25 419.88,-55.25 419.88,-74.5"/>
<text text-anchor="middle" x="402.5" y="-61" font-family="Helvetica,sans-Serif" font-size="10.00">map</text>
</a>
</g>
</g>
<!-- Node9&#45;&gt;Node11 -->
<g id="edge13_Node000009_Node000011" class="edge">
<title>Node9&#45;&gt;Node11</title>
<g id="a_edge13_Node000009_Node000011"><a xlink:title=" ">
<path fill="none" stroke="#63b8ff" d="M502.97,-110.09C483.13,-101.36 452.91,-88.06 430.79,-78.32"/>
<polygon fill="#63b8ff" stroke="#63b8ff" points="432.31,-75.17 421.75,-74.35 429.49,-81.58 432.31,-75.17"/>
</a>
</g>
</g>
<!-- Node12&#45;&gt;Node3 -->
<g id="edge15_Node000012_Node000003" class="edge">
<title>Node12&#45;&gt;Node3</title>
<g id="a_edge15_Node000012_Node000003"><a xlink:title=" ">
<path fill="none" stroke="#63b8ff" d="M342.77,-220.54C386.71,-203.33 484.79,-164.55 566.5,-129.75 585.76,-121.55 589.7,-117.3 609.5,-110.5 657.05,-94.18 713.5,-81.3 750.79,-73.66"/>
<polygon fill="#63b8ff" stroke="#63b8ff" points="751.12,-77.16 760.23,-71.76 749.73,-70.3 751.12,-77.16"/>
</a>
</g>
</g>
<!-- Node12&#45;&gt;Node11 -->
<g id="edge30_Node000012_Node000011" class="edge">
<title>Node12&#45;&gt;Node11</title>
<g id="a_edge30_Node000012_Node000011"><a xlink:title=" ">
<path fill="none" stroke="#63b8ff" d="M321.33,-220.66C324.09,-208.04 329.92,-184.47 338.5,-165.75 352.46,-135.28 374.53,-103.18 388.77,-83.85"/>
<polygon fill="#63b8ff" stroke="#63b8ff" points="391.49,-86.05 394.68,-75.95 385.88,-81.86 391.49,-86.05"/>
</a>
</g>
</g>
<!-- Node13 -->
<g id="Node000013" class="node">
<title>Node13</title>
<g id="a_Node000013"><a xlink:href="ssvalue_8h.html" target="_top" xlink:title=" ">
<polygon fill="white" stroke="#666666" points="405.5,-185 347.5,-185 347.5,-165.75 405.5,-165.75 405.5,-185"/>
<text text-anchor="middle" x="376.5" y="-171.5" font-family="Helvetica,sans-Serif" font-size="10.00">ssvalue.h</text>
</a>
</g>
</g>
<!-- Node12&#45;&gt;Node13 -->
<g id="edge16_Node000012_Node000013" class="edge">
<title>Node12&#45;&gt;Node13</title>
<g id="a_edge16_Node000012_Node000013"><a xlink:title=" ">
<path fill="none" stroke="#63b8ff" d="M329.17,-220.59C337.24,-213.05 348.97,-202.1 358.72,-192.98"/>
<polygon fill="#63b8ff" stroke="#63b8ff" points="360.95,-195.69 365.87,-186.31 356.17,-190.58 360.95,-195.69"/>
</a>
</g>
</g>
<!-- Node12&#45;&gt;Node20 -->
<g id="edge28_Node000012_Node000020" class="edge">
<title>Node12&#45;&gt;Node20</title>
<g id="a_edge28_Node000012_Node000020"><a xlink:title=" ">
<path fill="none" stroke="#63b8ff" d="M293.04,-220.59C267.71,-211.95 229.27,-198.82 200.83,-189.12"/>
<polygon fill="#63b8ff" stroke="#63b8ff" points="202.12,-185.86 191.53,-185.94 199.86,-192.48 202.12,-185.86"/>
</a>
</g>
</g>
<!-- Node21 -->
<g id="Node000021" class="node">
<title>Node21</title>
<g id="a_Node000021"><a xlink:title=" ">
<polygon fill="#e0e0e0" stroke="#999999" points="291.9,-185 263.1,-185 263.1,-165.75 291.9,-165.75 291.9,-185"/>
<text text-anchor="middle" x="277.5" y="-171.5" font-family="Helvetica,sans-Serif" font-size="10.00">list</text>
</a>
</g>
</g>
<!-- Node12&#45;&gt;Node21 -->
<g id="edge29_Node000012_Node000021" class="edge">
<title>Node12&#45;&gt;Node21</title>
<g id="a_edge29_Node000012_Node000021"><a xlink:title=" ">
<path fill="none" stroke="#63b8ff" d="M312.56,-220.83C306.88,-213.63 298.66,-203.21 291.61,-194.26"/>
<polygon fill="#63b8ff" stroke="#63b8ff" points="294.46,-192.23 285.52,-186.55 288.97,-196.57 294.46,-192.23"/>
</a>
</g>
</g>
<!-- Node13&#45;&gt;Node6 -->
<g id="edge26_Node000013_Node000006" class="edge">
<title>Node13&#45;&gt;Node6</title>
<g id="a_edge26_Node000013_Node000006"><a xlink:title=" ">
<path fill="none" stroke="#63b8ff" d="M374.95,-165.5C371.78,-145.43 365.72,-95.18 376.5,-55.25 379.01,-45.97 383.98,-36.63 388.91,-28.91"/>
<polygon fill="#63b8ff" stroke="#63b8ff" points="391.71,-31.02 394.51,-20.8 385.95,-27.04 391.71,-31.02"/>
</a>
</g>
</g>
<!-- Node13&#45;&gt;Node9 -->
<g id="edge17_Node000013_Node000009" class="edge">
<title>Node13&#45;&gt;Node9</title>
<g id="a_edge17_Node000013_Node000009"><a xlink:title=" ">
<path fill="none" stroke="#63b8ff" d="M401.44,-165.34C425.19,-156.74 461.21,-143.69 487.96,-134"/>
<polygon fill="#63b8ff" stroke="#63b8ff" points="488.81,-137.41 497.02,-130.72 486.42,-130.83 488.81,-137.41"/>
</a>
</g>
</g>
<!-- Node13&#45;&gt;Node11 -->
<g id="edge25_Node000013_Node000011" class="edge">
<title>Node13&#45;&gt;Node11</title>
<g id="a_edge25_Node000013_Node000011"><a xlink:title=" ">
<path fill="none" stroke="#63b8ff" d="M378.63,-165.5C382.76,-148.25 391.97,-109.83 397.66,-86.06"/>
<polygon fill="#63b8ff" stroke="#63b8ff" points="401.06,-86.89 399.99,-76.35 394.26,-85.26 401.06,-86.89"/>
</a>
</g>
</g>
<!-- Node14 -->
<g id="Node000014" class="node">
<title>Node14</title>
<g id="a_Node000014"><a xlink:href="ssstring__uty_8h.html" target="_top" xlink:title=" ">
<polygon fill="white" stroke="#666666" points="270.5,-129.75 194.5,-129.75 194.5,-110.5 270.5,-110.5 270.5,-129.75"/>
<text text-anchor="middle" x="232.5" y="-116.25" font-family="Helvetica,sans-Serif" font-size="10.00">ssstring_uty.h</text>
</a>
</g>
</g>
<!-- Node13&#45;&gt;Node14 -->
<g id="edge18_Node000013_Node000014" class="edge">
<title>Node13&#45;&gt;Node14</title>
<g id="a_edge18_Node000013_Node000014"><a xlink:title=" ">
<path fill="none" stroke="#63b8ff" d="M352.07,-165.34C328.9,-156.77 293.84,-143.81 267.66,-134.13"/>
<polygon fill="#63b8ff" stroke="#63b8ff" points="269.06,-130.91 258.47,-130.73 266.63,-137.48 269.06,-130.91"/>
</a>
</g>
</g>
<!-- Node19 -->
<g id="Node000019" class="node">
<title>Node19</title>
<g id="a_Node000019"><a xlink:title=" ">
<polygon fill="#e0e0e0" stroke="#999999" points="471.62,-129.75 423.38,-129.75 423.38,-110.5 471.62,-110.5 471.62,-129.75"/>
<text text-anchor="middle" x="447.5" y="-116.25" font-family="Helvetica,sans-Serif" font-size="10.00">cassert</text>
</a>
</g>
</g>
<!-- Node13&#45;&gt;Node19 -->
<g id="edge27_Node000013_Node000019" class="edge">
<title>Node13&#45;&gt;Node19</title>
<g id="a_edge27_Node000013_Node000019"><a xlink:title=" ">
<path fill="none" stroke="#63b8ff" d="M388.54,-165.34C398.91,-157.57 414.1,-146.17 426.47,-136.9"/>
<polygon fill="#63b8ff" stroke="#63b8ff" points="428.52,-139.73 434.42,-130.93 424.32,-134.13 428.52,-139.73"/>
</a>
</g>
</g>
<!-- Node14&#45;&gt;Node5 -->
<g id="edge19_Node000014_Node000005" class="edge">
<title>Node14&#45;&gt;Node5</title>
<g id="a_edge19_Node000014_Node000005"><a xlink:title=" ">
<path fill="none" stroke="#63b8ff" d="M249.3,-110.15C275.68,-96.42 328.74,-70.2 376.5,-55.25 446.71,-33.27 532.38,-20.24 577.75,-14.37"/>
<polygon fill="#63b8ff" stroke="#63b8ff" points="578.19,-17.84 587.67,-13.12 577.31,-10.9 578.19,-17.84"/>
</a>
</g>
</g>
<!-- Node14&#45;&gt;Node6 -->
<g id="edge21_Node000014_Node000006" class="edge">
<title>Node14&#45;&gt;Node6</title>
<g id="a_edge21_Node000014_Node000006"><a xlink:title=" ">
<path fill="none" stroke="#63b8ff" d="M240.83,-110.38C253.73,-97.17 279.78,-71.92 305.5,-55.25 325.88,-42.04 350.81,-30.67 370.29,-22.7"/>
<polygon fill="#63b8ff" stroke="#63b8ff" points="371.37,-26.04 379.36,-19.09 368.78,-19.54 371.37,-26.04"/>
</a>
</g>
</g>
<!-- Node15 -->
<g id="Node000015" class="node">
<title>Node15</title>
<g id="a_Node000015"><a xlink:title=" ">
<polygon fill="#e0e0e0" stroke="#999999" points="49,-74.5 0,-74.5 0,-55.25 49,-55.25 49,-74.5"/>
<text text-anchor="middle" x="24.5" y="-61" font-family="Helvetica,sans-Serif" font-size="10.00">fstream</text>
</a>
</g>
</g>
<!-- Node14&#45;&gt;Node15 -->
<g id="edge20_Node000014_Node000015" class="edge">
<title>Node14&#45;&gt;Node15</title>
<g id="a_edge20_Node000014_Node000015"><a xlink:title=" ">
<path fill="none" stroke="#63b8ff" d="M196.62,-110.04C163.52,-101.65 112.7,-88.73 60.23,-75.19"/>
<polygon fill="#63b8ff" stroke="#63b8ff" points="61.39,-71.88 50.83,-72.77 59.64,-78.66 61.39,-71.88"/>
</a>
</g>
</g>
<!-- Node16 -->
<g id="Node000016" class="node">
<title>Node16</title>
<g id="a_Node000016"><a xlink:title=" ">
<polygon fill="#e0e0e0" stroke="#999999" points="120.25,-74.5 66.75,-74.5 66.75,-55.25 120.25,-55.25 120.25,-74.5"/>
<text text-anchor="middle" x="93.5" y="-61" font-family="Helvetica,sans-Serif" font-size="10.00">iostream</text>
</a>
</g>
</g>
<!-- Node14&#45;&gt;Node16 -->
<g id="edge22_Node000014_Node000016" class="edge">
<title>Node14&#45;&gt;Node16</title>
<g id="a_edge22_Node000014_Node000016"><a xlink:title=" ">
<path fill="none" stroke="#63b8ff" d="M208.92,-110.09C186.66,-101.56 153.01,-88.67 127.78,-79.01"/>
<polygon fill="#63b8ff" stroke="#63b8ff" points="129.2,-75.8 118.61,-75.49 126.69,-82.34 129.2,-75.8"/>
</a>
</g>
</g>
<!-- Node17 -->
<g id="Node000017" class="node">
<title>Node17</title>
<g id="a_Node000017"><a xlink:title=" ">
<polygon fill="#e0e0e0" stroke="#999999" points="189.12,-74.5 137.88,-74.5 137.88,-55.25 189.12,-55.25 189.12,-74.5"/>
<text text-anchor="middle" x="163.5" y="-61" font-family="Helvetica,sans-Serif" font-size="10.00">sstream</text>
</a>
</g>
</g>
<!-- Node14&#45;&gt;Node17 -->
<g id="edge23_Node000014_Node000017" class="edge">
<title>Node14&#45;&gt;Node17</title>
<g id="a_edge23_Node000014_Node000017"><a xlink:title=" ">
<path fill="none" stroke="#63b8ff" d="M220.8,-110.09C210.72,-102.32 195.96,-90.92 183.94,-81.65"/>
<polygon fill="#63b8ff" stroke="#63b8ff" points="186.29,-79.04 176.23,-75.7 182.01,-84.58 186.29,-79.04"/>
</a>
</g>
</g>
<!-- Node18 -->
<g id="Node000018" class="node">
<title>Node18</title>
<g id="a_Node000018"><a xlink:title=" ">
<polygon fill="#e0e0e0" stroke="#999999" points="253.5,-74.5 207.5,-74.5 207.5,-55.25 253.5,-55.25 253.5,-74.5"/>
<text text-anchor="middle" x="230.5" y="-61" font-family="Helvetica,sans-Serif" font-size="10.00">iterator</text>
</a>
</g>
</g>
<!-- Node14&#45;&gt;Node18 -->
<g id="edge24_Node000014_Node000018" class="edge">
<title>Node14&#45;&gt;Node18</title>
<g id="a_edge24_Node000014_Node000018"><a xlink:title=" ">
<path fill="none" stroke="#63b8ff" d="M232.17,-110.33C231.92,-103.74 231.57,-94.46 231.26,-86.07"/>
<polygon fill="#63b8ff" stroke="#63b8ff" points="234.77,-86.23 230.89,-76.37 227.77,-86.5 234.77,-86.23"/>
</a>
</g>
</g>
<!-- Node22&#45;&gt;Node3 -->
<g id="edge32_Node000022_Node000003" class="edge">
<title>Node22&#45;&gt;Node3</title>
<g id="a_edge32_Node000022_Node000003"><a xlink:title=" ">
<path fill="none" stroke="#63b8ff" d="M661.9,-340.22C730.29,-337.85 863.91,-322.28 929.5,-240.25 965.56,-195.15 966.64,-147.74 922.5,-110.5 896.92,-88.92 860.39,-77.61 832.4,-71.78"/>
<polygon fill="#63b8ff" stroke="#63b8ff" points="833.33,-68.4 822.85,-69.96 832.02,-75.28 833.33,-68.4"/>
</a>
</g>
</g>
<!-- Node22&#45;&gt;Node9 -->
<g id="edge33_Node000022_Node000009" class="edge">
<title>Node22&#45;&gt;Node9</title>
<g id="a_edge33_Node000022_Node000009"><a xlink:title=" ">
<path fill="none" stroke="#63b8ff" d="M604.18,-331.07C592.15,-323.17 575.9,-310.62 566.5,-295.5 535.69,-245.96 526.95,-175.69 524.47,-141.46"/>
<polygon fill="#63b8ff" stroke="#63b8ff" points="527.98,-141.5 523.89,-131.73 520.99,-141.92 527.98,-141.5"/>
</a>
</g>
</g>
<!-- Node22&#45;&gt;Node14 -->
<g id="edge34_Node000022_Node000014" class="edge">
<title>Node22&#45;&gt;Node14</title>
<g id="a_edge34_Node000022_Node000014"><a xlink:title=" ">
<path fill="none" stroke="#63b8ff" d="M576.94,-337.74C525.02,-333.71 435.31,-323.07 363.5,-295.5 320.39,-278.95 304.78,-275.96 275.5,-240.25 251.41,-210.87 240.25,-166.87 235.54,-141.38"/>
<polygon fill="#63b8ff" stroke="#63b8ff" points="239.02,-140.99 233.92,-131.7 232.12,-142.14 239.02,-140.99"/>
</a>
</g>
</g>
<!-- Node22&#45;&gt;Node23 -->
<g id="edge35_Node000022_Node000023" class="edge">
<title>Node22&#45;&gt;Node23</title>
<g id="a_edge35_Node000022_Node000023"><a xlink:title=" ">
<path fill="none" stroke="#63b8ff" d="M585.06,-331.09C551.23,-322.22 499.41,-308.62 462.16,-298.85"/>
<polygon fill="#63b8ff" stroke="#63b8ff" points="463.13,-295.49 452.57,-296.34 461.35,-302.26 463.13,-295.49"/>
</a>
</g>
</g>
<!-- Node22&#45;&gt;Node24 -->
<g id="edge39_Node000022_Node000024" class="edge">
<title>Node22&#45;&gt;Node24</title>
<g id="a_edge39_Node000022_Node000024"><a xlink:title=" ">
<path fill="none" stroke="#63b8ff" d="M620.79,-331.26C622.03,-322.27 623.8,-307.95 624.5,-295.5 625.31,-281.04 625.03,-264.7 624.57,-252.17"/>
<polygon fill="#63b8ff" stroke="#63b8ff" points="628.07,-252.07 624.12,-242.24 621.07,-252.39 628.07,-252.07"/>
</a>
</g>
</g>
<!-- Node22&#45;&gt;Node25 -->
<g id="edge42_Node000022_Node000025" class="edge">
<title>Node22&#45;&gt;Node25</title>
<g id="a_edge42_Node000022_Node000025"><a xlink:title=" ">
<path fill="none" stroke="#63b8ff" d="M649.86,-331.09C679.31,-322.33 724.21,-308.98 756.96,-299.23"/>
<polygon fill="#63b8ff" stroke="#63b8ff" points="757.95,-302.59 766.54,-296.38 755.95,-295.88 757.95,-302.59"/>
</a>
</g>
</g>
<!-- Node28 -->
<g id="Node000028" class="node">
<title>Node28</title>
<g id="a_Node000028"><a xlink:title=" ">
<polygon fill="#e0e0e0" stroke="#999999" points="741.12,-185 689.88,-185 689.88,-165.75 741.12,-165.75 741.12,-185"/>
<text text-anchor="middle" x="715.5" y="-171.5" font-family="Helvetica,sans-Serif" font-size="10.00">memory</text>
</a>
</g>
</g>
<!-- Node22&#45;&gt;Node28 -->
<g id="edge56_Node000022_Node000028" class="edge">
<title>Node22&#45;&gt;Node28</title>
<g id="a_edge56_Node000022_Node000028"><a xlink:title=" ">
<path fill="none" stroke="#63b8ff" d="M624.66,-331.32C639.77,-305.55 684.12,-229.9 704.74,-194.74"/>
<polygon fill="#63b8ff" stroke="#63b8ff" points="707.51,-196.93 709.55,-186.53 701.47,-193.38 707.51,-196.93"/>
</a>
</g>
</g>
<!-- Node22&#45;&gt;Node29 -->
<g id="edge53_Node000022_Node000029" class="edge">
<title>Node22&#45;&gt;Node29</title>
<g id="a_edge53_Node000022_Node000029"><a xlink:title=" ">
<path fill="none" stroke="#63b8ff" d="M661.9,-339.66C758.39,-338 991.36,-330.38 1060.5,-295.5 1080.71,-285.3 1097.27,-264.89 1107.45,-249.87"/>
<polygon fill="#63b8ff" stroke="#63b8ff" points="1110.17,-252.11 1112.62,-241.8 1104.28,-248.33 1110.17,-252.11"/>
</a>
</g>
</g>
<!-- Node30 -->
<g id="Node000030" class="node">
<title>Node30</title>
<g id="a_Node000030"><a xlink:title=" ">
<polygon fill="#e0e0e0" stroke="#999999" points="615.12,-295.5 575.88,-295.5 575.88,-276.25 615.12,-276.25 615.12,-295.5"/>
<text text-anchor="middle" x="595.5" y="-282" font-family="Helvetica,sans-Serif" font-size="10.00">utility</text>
</a>
</g>
</g>
<!-- Node22&#45;&gt;Node30 -->
<g id="edge57_Node000022_Node000030" class="edge">
<title>Node22&#45;&gt;Node30</title>
<g id="a_edge57_Node000022_Node000030"><a xlink:title=" ">
<path fill="none" stroke="#63b8ff" d="M615.54,-331.33C612.46,-324.51 608.09,-314.81 604.21,-306.2"/>
<polygon fill="#63b8ff" stroke="#63b8ff" points="607.47,-304.92 600.17,-297.24 601.09,-307.79 607.47,-304.92"/>
</a>
</g>
</g>
<!-- Node23&#45;&gt;Node3 -->
<g id="edge36_Node000023_Node000003" class="edge">
<title>Node23&#45;&gt;Node3</title>
<g id="a_edge36_Node000023_Node000003"><a xlink:title=" ">
<path fill="none" stroke="#63b8ff" d="M432,-275.78C476.13,-249.87 606.24,-173.55 714.5,-110.5 731.75,-100.46 751.2,-89.18 766.23,-80.48"/>
<polygon fill="#63b8ff" stroke="#63b8ff" points="767.64,-83.71 774.55,-75.67 764.14,-77.65 767.64,-83.71"/>
</a>
</g>
</g>
<!-- Node23&#45;&gt;Node9 -->
<g id="edge37_Node000023_Node000009" class="edge">
<title>Node23&#45;&gt;Node9</title>
<g id="a_edge37_Node000023_Node000009"><a xlink:title=" ">
<path fill="none" stroke="#63b8ff" d="M417.62,-275.89C420.64,-254.71 430.63,-200.82 457.5,-165.75 467.06,-153.28 481.14,-143.08 493.83,-135.61"/>
<polygon fill="#63b8ff" stroke="#63b8ff" points="495.23,-138.83 502.29,-130.93 491.84,-132.71 495.23,-138.83"/>
</a>
</g>
</g>
<!-- Node23&#45;&gt;Node12 -->
<g id="edge38_Node000023_Node000012" class="edge">
<title>Node23&#45;&gt;Node12</title>
<g id="a_edge38_Node000023_Node000012"><a xlink:title=" ">
<path fill="none" stroke="#63b8ff" d="M400.05,-275.84C385.27,-267.73 363.32,-255.68 346.07,-246.21"/>
<polygon fill="#63b8ff" stroke="#63b8ff" points="347.81,-243.18 337.36,-241.43 344.44,-249.31 347.81,-243.18"/>
</a>
</g>
</g>
<!-- Node24&#45;&gt;Node3 -->
<g id="edge40_Node000024_Node000003" class="edge">
<title>Node24&#45;&gt;Node3</title>
<g id="a_edge40_Node000024_Node000003"><a xlink:title=" ">
<path fill="none" stroke="#63b8ff" d="M630.95,-220.67C641.57,-208.05 661.83,-184.5 680.5,-165.75 711.23,-134.89 749.43,-101.52 772.06,-82.23"/>
<polygon fill="#63b8ff" stroke="#63b8ff" points="774.22,-84.98 779.59,-75.85 769.7,-79.64 774.22,-84.98"/>
</a>
</g>
</g>
<!-- Node24&#45;&gt;Node9 -->
<g id="edge41_Node000024_Node000009" class="edge">
<title>Node24&#45;&gt;Node9</title>
<g id="a_edge41_Node000024_Node000009"><a xlink:title=" ">
<path fill="none" stroke="#63b8ff" d="M615.32,-220.75C598.76,-202.78 561.04,-161.86 539.45,-138.44"/>
<polygon fill="#63b8ff" stroke="#63b8ff" points="542.17,-136.22 532.82,-131.24 537.03,-140.96 542.17,-136.22"/>
</a>
</g>
</g>
<!-- Node25&#45;&gt;Node3 -->
<g id="edge43_Node000025_Node000003" class="edge">
<title>Node25&#45;&gt;Node3</title>
<g id="a_edge43_Node000025_Node000003"><a xlink:title=" ">
<path fill="none" stroke="#63b8ff" d="M836.9,-275.81C859.23,-268.99 886.77,-257.75 906.5,-240.25 933.33,-216.45 948.35,-199.93 937.5,-165.75 928.41,-137.1 921.95,-129.3 898.5,-110.5 878.97,-94.85 853.18,-83.88 831.8,-76.73"/>
<polygon fill="#63b8ff" stroke="#63b8ff" points="833.12,-73.47 822.53,-73.79 831.01,-80.15 833.12,-73.47"/>
</a>
</g>
</g>
<!-- Node25&#45;&gt;Node9 -->
<g id="edge44_Node000025_Node000009" class="edge">
<title>Node25&#45;&gt;Node9</title>
<g id="a_edge44_Node000025_Node000009"><a xlink:title=" ">
<path fill="none" stroke="#63b8ff" d="M796.06,-275.8C789.09,-250.6 768.46,-180.6 750.5,-165.75 723.5,-143.42 627.86,-130.8 569.68,-125.03"/>
<polygon fill="#63b8ff" stroke="#63b8ff" points="570.02,-121.54 559.73,-124.07 569.35,-128.51 570.02,-121.54"/>
</a>
</g>
</g>
<!-- Node26 -->
<g id="Node000026" class="node">
<title>Node26</title>
<g id="a_Node000026"><a xlink:href="_ss_effect_behavior_8h.html" target="_top" xlink:title=" ">
<polygon fill="white" stroke="#666666" points="897.5,-240.25 797.5,-240.25 797.5,-221 897.5,-221 897.5,-240.25"/>
<text text-anchor="middle" x="847.5" y="-226.75" font-family="Helvetica,sans-Serif" font-size="10.00">SsEffectBehavior.h</text>
</a>
</g>
</g>
<!-- Node25&#45;&gt;Node26 -->
<g id="edge45_Node000025_Node000026" class="edge">
<title>Node25&#45;&gt;Node26</title>
<g id="a_edge45_Node000025_Node000026"><a xlink:title=" ">
<path fill="none" stroke="#63b8ff" d="M806.59,-276.08C813.36,-268.73 823.22,-258.01 831.56,-248.94"/>
<polygon fill="#63b8ff" stroke="#63b8ff" points="834.01,-251.45 838.21,-241.72 828.86,-246.71 834.01,-251.45"/>
</a>
</g>
</g>
<!-- Node26&#45;&gt;Node3 -->
<g id="edge50_Node000026_Node000003" class="edge">
<title>Node26&#45;&gt;Node3</title>
<g id="a_edge50_Node000026_Node000003"><a xlink:title=" ">
<path fill="none" stroke="#63b8ff" d="M874.42,-220.55C900.66,-210.03 934.94,-190.89 922.5,-165.75 902.04,-124.42 855.37,-95.52 823.63,-79.8"/>
<polygon fill="#63b8ff" stroke="#63b8ff" points="825.4,-76.77 814.87,-75.63 822.39,-83.09 825.4,-76.77"/>
</a>
</g>
</g>
<!-- Node26&#45;&gt;Node13 -->
<g id="edge51_Node000026_Node000013" class="edge">
<title>Node26&#45;&gt;Node13</title>
<g id="a_edge51_Node000026_Node000013"><a xlink:title=" ">
<path fill="none" stroke="#63b8ff" d="M797.09,-223.93C703.15,-213.3 503.03,-190.68 417.09,-180.96"/>
<polygon fill="#63b8ff" stroke="#63b8ff" points="417.58,-177.5 407.25,-179.85 416.79,-184.45 417.58,-177.5"/>
</a>
</g>
</g>
<!-- Node27 -->
<g id="Node000027" class="node">
<title>Node27</title>
<g id="a_Node000027"><a xlink:href="_ss_effect_element_8h.html" target="_top" xlink:title=" ">
<polygon fill="white" stroke="#666666" points="895.75,-185 797.25,-185 797.25,-165.75 895.75,-165.75 895.75,-185"/>
<text text-anchor="middle" x="846.5" y="-171.5" font-family="Helvetica,sans-Serif" font-size="10.00">SsEffectElement.h</text>
</a>
</g>
</g>
<!-- Node26&#45;&gt;Node27 -->
<g id="edge46_Node000026_Node000027" class="edge">
<title>Node26&#45;&gt;Node27</title>
<g id="a_edge46_Node000026_Node000027"><a xlink:title=" ">
<path fill="none" stroke="#63b8ff" d="M847.33,-220.83C847.21,-214.32 847.04,-205.17 846.88,-196.87"/>
<polygon fill="#63b8ff" stroke="#63b8ff" points="850.38,-196.8 846.7,-186.87 843.39,-196.94 850.38,-196.8"/>
</a>
</g>
</g>
<!-- Node26&#45;&gt;Node28 -->
<g id="edge52_Node000026_Node000028" class="edge">
<title>Node26&#45;&gt;Node28</title>
<g id="a_edge52_Node000026_Node000028"><a xlink:title=" ">
<path fill="none" stroke="#63b8ff" d="M825.11,-220.59C804.06,-212.1 772.3,-199.29 748.38,-189.64"/>
<polygon fill="#63b8ff" stroke="#63b8ff" points="749.99,-186.51 739.41,-186.02 747.37,-193.01 749.99,-186.51"/>
</a>
</g>
</g>
<!-- Node27&#45;&gt;Node3 -->
<g id="edge47_Node000027_Node000003" class="edge">
<title>Node27&#45;&gt;Node3</title>
<g id="a_edge47_Node000027_Node000003"><a xlink:title=" ">
<path fill="none" stroke="#63b8ff" d="M842,-165.5C833.14,-148.01 813.24,-108.77 801.24,-85.09"/>
<polygon fill="#63b8ff" stroke="#63b8ff" points="804.39,-83.56 796.75,-76.23 798.15,-86.73 804.39,-83.56"/>
</a>
</g>
</g>
<!-- Node27&#45;&gt;Node9 -->
<g id="edge48_Node000027_Node000009" class="edge">
<title>Node27&#45;&gt;Node9</title>
<g id="a_edge48_Node000027_Node000009"><a xlink:title=" ">
<path fill="none" stroke="#63b8ff" d="M797.09,-166.23C735,-155.99 629.29,-138.56 569.06,-128.64"/>
<polygon fill="#63b8ff" stroke="#63b8ff" points="569.94,-125.23 559.5,-127.06 568.8,-132.14 569.94,-125.23"/>
</a>
</g>
</g>
<!-- Node27&#45;&gt;Node27 -->
<g id="edge49_Node000027_Node000027" class="edge">
<title>Node27&#45;&gt;Node27</title>
<g id="a_edge49_Node000027_Node000027"><a xlink:title=" ">
<path fill="none" stroke="#63b8ff" d="M881.79,-185.48C898.77,-186.73 913.75,-183.36 913.75,-175.38 913.75,-169.26 904.97,-165.85 893.23,-165.15"/>
<polygon fill="#63b8ff" stroke="#63b8ff" points="893.27,-161.65 883.3,-165.25 893.34,-168.65 893.27,-161.65"/>
</a>
</g>
</g>
<!-- Node29&#45;&gt;Node3 -->
<g id="edge54_Node000029_Node000003" class="edge">
<title>Node29&#45;&gt;Node3</title>
<g id="a_edge54_Node000029_Node000003"><a xlink:title=" ">
<path fill="none" stroke="#63b8ff" d="M1117.72,-220.71C1115.24,-198.23 1105.44,-138.96 1069.5,-110.5 1033.46,-81.95 900.27,-71.26 832.17,-67.6"/>
<polygon fill="#63b8ff" stroke="#63b8ff" points="832.72,-64.13 822.55,-67.11 832.36,-71.12 832.72,-64.13"/>
</a>
</g>
</g>
<!-- Node29&#45;&gt;Node9 -->
<g id="edge55_Node000029_Node000009" class="edge">
<title>Node29&#45;&gt;Node9</title>
<g id="a_edge55_Node000029_Node000009"><a xlink:title=" ">
<path fill="none" stroke="#63b8ff" d="M1095.69,-220.5C1059.56,-206.44 986.69,-179.65 922.5,-165.75 796.4,-138.45 644.06,-127.3 569.35,-123.22"/>
<polygon fill="#63b8ff" stroke="#63b8ff" points="569.72,-119.73 559.55,-122.7 569.35,-126.72 569.72,-119.73"/>
</a>
</g>
</g>
</g>
</svg>
