<?xml version="1.0" encoding="UTF-8" standalone="no"?>
<!DOCTYPE svg PUBLIC "-//W3C//DTD SVG 1.1//EN"
 "http://www.w3.org/Graphics/SVG/1.1/DTD/svg11.dtd">
<!-- Generated by graphviz version 12.2.1 (20241206.2353)
 -->
<!-- Title: Common/Loader/ssInterpolation.cpp Pages: 1 -->
<svg width="1199pt" height="469pt"
 viewBox="0.00 0.00 1198.50 469.25" xmlns="http://www.w3.org/2000/svg" xmlns:xlink="http://www.w3.org/1999/xlink">
<g id="graph0" class="graph" transform="scale(1 1) rotate(0) translate(4 465.25)">
<title>Common/Loader/ssInterpolation.cpp</title>
<!-- Node1 -->
<g id="Node000001" class="node">
<title>Node1</title>
<g id="a_Node000001"><a xlink:title=" ">
<polygon fill="#999999" stroke="#666666" points="404.25,-461.25 230.75,-461.25 230.75,-442 404.25,-442 404.25,-461.25"/>
<text text-anchor="middle" x="317.5" y="-447.75" font-family="Helvetica,sans-Serif" font-size="10.00">Common/Loader/ssInterpolation.cpp</text>
</a>
</g>
</g>
<!-- Node2 -->
<g id="Node000002" class="node">
<title>Node2</title>
<g id="a_Node000002"><a xlink:href="ssloader_8h.html" target="_top" xlink:title=" ">
<polygon fill="white" stroke="#666666" points="571.62,-406 511.38,-406 511.38,-386.75 571.62,-386.75 571.62,-406"/>
<text text-anchor="middle" x="541.5" y="-392.5" font-family="Helvetica,sans-Serif" font-size="10.00">ssloader.h</text>
</a>
</g>
</g>
<!-- Node1&#45;&gt;Node2 -->
<g id="edge1_Node000001_Node000002" class="edge">
<title>Node1&#45;&gt;Node2</title>
<g id="a_edge1_Node000001_Node000002"><a xlink:title=" ">
<path fill="none" stroke="#63b8ff" d="M355.75,-441.53C395.84,-432 458.63,-417.08 499.92,-407.26"/>
<polygon fill="#63b8ff" stroke="#63b8ff" points="500.57,-410.7 509.49,-404.98 498.95,-403.89 500.57,-410.7"/>
</a>
</g>
</g>
<!-- Node20 -->
<g id="Node000020" class="node">
<title>Node20</title>
<g id="a_Node000020"><a xlink:href="ss_interpolation_8h.html" target="_top" xlink:title=" ">
<polygon fill="white" stroke="#666666" points="207.5,-185 119.5,-185 119.5,-165.75 207.5,-165.75 207.5,-185"/>
<text text-anchor="middle" x="163.5" y="-171.5" font-family="Helvetica,sans-Serif" font-size="10.00">ssInterpolation.h</text>
</a>
</g>
</g>
<!-- Node1&#45;&gt;Node20 -->
<g id="edge63_Node000001_Node000020" class="edge">
<title>Node1&#45;&gt;Node20</title>
<g id="a_edge63_Node000001_Node000020"><a xlink:title=" ">
<path fill="none" stroke="#63b8ff" d="M279.04,-441.53C233.42,-428.19 163.5,-398.54 163.5,-342.12 163.5,-342.12 163.5,-342.12 163.5,-284.88 163.5,-254.16 163.5,-218.55 163.5,-196.74"/>
<polygon fill="#63b8ff" stroke="#63b8ff" points="167,-196.89 163.5,-186.89 160,-196.89 167,-196.89"/>
</a>
</g>
</g>
<!-- Node3 -->
<g id="Node000003" class="node">
<title>Node3</title>
<g id="a_Node000003"><a xlink:href="sstypes_8h.html" target="_top" xlink:title=" ">
<polygon fill="white" stroke="#666666" points="820.88,-74.5 762.12,-74.5 762.12,-55.25 820.88,-55.25 820.88,-74.5"/>
<text text-anchor="middle" x="791.5" y="-61" font-family="Helvetica,sans-Serif" font-size="10.00">sstypes.h</text>
</a>
</g>
</g>
<!-- Node2&#45;&gt;Node3 -->
<g id="edge2_Node000002_Node000003" class="edge">
<title>Node2&#45;&gt;Node3</title>
<g id="a_edge2_Node000002_Node000003"><a xlink:title=" ">
<path fill="none" stroke="#63b8ff" d="M571.93,-393.55C700.24,-385.47 1190.5,-350.42 1190.5,-286.88 1190.5,-286.88 1190.5,-286.88 1190.5,-174.38 1190.5,-100.75 934.32,-75.45 832.51,-68.3"/>
<polygon fill="#63b8ff" stroke="#63b8ff" points="832.89,-64.82 822.67,-67.64 832.42,-71.81 832.89,-64.82"/>
</a>
</g>
</g>
<!-- Node9 -->
<g id="Node000009" class="node">
<title>Node9</title>
<g id="a_Node000009"><a xlink:href="ssarchiver_8h.html" target="_top" xlink:title=" ">
<polygon fill="white" stroke="#666666" points="557.75,-129.75 489.25,-129.75 489.25,-110.5 557.75,-110.5 557.75,-129.75"/>
<text text-anchor="middle" x="523.5" y="-116.25" font-family="Helvetica,sans-Serif" font-size="10.00">ssarchiver.h</text>
</a>
</g>
</g>
<!-- Node2&#45;&gt;Node9 -->
<g id="edge8_Node000002_Node000009" class="edge">
<title>Node2&#45;&gt;Node9</title>
<g id="a_edge8_Node000002_Node000009"><a xlink:title=" ">
<path fill="none" stroke="#63b8ff" d="M540.42,-386.58C536.94,-357.73 526.03,-263.4 522.5,-185 521.85,-170.53 522.12,-154.19 522.55,-141.67"/>
<polygon fill="#63b8ff" stroke="#63b8ff" points="526.04,-141.87 522.95,-131.74 519.05,-141.59 526.04,-141.87"/>
</a>
</g>
</g>
<!-- Node12 -->
<g id="Node000012" class="node">
<title>Node12</title>
<g id="a_Node000012"><a xlink:href="ssattribute_8h.html" target="_top" xlink:title=" ">
<polygon fill="white" stroke="#666666" points="354.5,-240.25 284.5,-240.25 284.5,-221 354.5,-221 354.5,-240.25"/>
<text text-anchor="middle" x="319.5" y="-226.75" font-family="Helvetica,sans-Serif" font-size="10.00">ssattribute.h</text>
</a>
</g>
</g>
<!-- Node2&#45;&gt;Node12 -->
<g id="edge14_Node000002_Node000012" class="edge">
<title>Node2&#45;&gt;Node12</title>
<g id="a_edge14_Node000002_Node000012"><a xlink:title=" ">
<path fill="none" stroke="#63b8ff" d="M517.15,-386.35C480.39,-371.78 410.06,-340.12 363.5,-295.5 349.69,-282.27 337.66,-264.06 329.69,-250.46"/>
<polygon fill="#63b8ff" stroke="#63b8ff" points="332.91,-249.05 324.95,-242.06 326.81,-252.49 332.91,-249.05"/>
</a>
</g>
</g>
<!-- Node2&#45;&gt;Node20 -->
<g id="edge62_Node000002_Node000020" class="edge">
<title>Node2&#45;&gt;Node20</title>
<g id="a_edge62_Node000002_Node000020"><a xlink:title=" ">
<path fill="none" stroke="#63b8ff" d="M510.9,-387.64C482.97,-380.03 440.92,-367.17 406.5,-350.75 324.49,-311.63 306.73,-295.37 234.5,-240.25 215.04,-225.4 194.41,-206.43 180.43,-193.03"/>
<polygon fill="#63b8ff" stroke="#63b8ff" points="182.99,-190.64 173.37,-186.19 178.11,-195.66 182.99,-190.64"/>
</a>
</g>
</g>
<!-- Node22 -->
<g id="Node000022" class="node">
<title>Node22</title>
<g id="a_Node000022"><a xlink:href="ssloader__sspj_8h.html" target="_top" xlink:title=" ">
<polygon fill="white" stroke="#666666" points="661.62,-350.75 577.38,-350.75 577.38,-331.5 661.62,-331.5 661.62,-350.75"/>
<text text-anchor="middle" x="619.5" y="-337.25" font-family="Helvetica,sans-Serif" font-size="10.00">ssloader_sspj.h</text>
</a>
</g>
</g>
<!-- Node2&#45;&gt;Node22 -->
<g id="edge31_Node000002_Node000022" class="edge">
<title>Node2&#45;&gt;Node22</title>
<g id="a_edge31_Node000002_Node000022"><a xlink:title=" ">
<path fill="none" stroke="#63b8ff" d="M554.73,-386.34C566.27,-378.46 583.27,-366.86 596.95,-357.52"/>
<polygon fill="#63b8ff" stroke="#63b8ff" points="598.67,-360.58 604.95,-352.06 594.72,-354.8 598.67,-360.58"/>
</a>
</g>
</g>
<!-- Node23 -->
<g id="Node000023" class="node">
<title>Node23</title>
<g id="a_Node000023"><a xlink:href="ssloader__ssae_8h.html" target="_top" xlink:title=" ">
<polygon fill="white" stroke="#666666" points="460.12,-295.5 372.88,-295.5 372.88,-276.25 460.12,-276.25 460.12,-295.5"/>
<text text-anchor="middle" x="416.5" y="-282" font-family="Helvetica,sans-Serif" font-size="10.00">ssloader_ssae.h</text>
</a>
</g>
</g>
<!-- Node2&#45;&gt;Node23 -->
<g id="edge58_Node000002_Node000023" class="edge">
<title>Node2&#45;&gt;Node23</title>
<g id="a_edge58_Node000002_Node000023"><a xlink:title=" ">
<path fill="none" stroke="#63b8ff" d="M525.56,-386.29C511.47,-377.91 490.71,-364.7 474.5,-350.75 458.05,-336.6 441.65,-318.01 430.51,-304.54"/>
<polygon fill="#63b8ff" stroke="#63b8ff" points="433.37,-302.51 424.35,-296.95 427.93,-306.92 433.37,-302.51"/>
</a>
</g>
</g>
<!-- Node24 -->
<g id="Node000024" class="node">
<title>Node24</title>
<g id="a_Node000024"><a xlink:href="ssloader__ssce_8h.html" target="_top" xlink:title=" ">
<polygon fill="white" stroke="#666666" points="667.12,-240.25 579.88,-240.25 579.88,-221 667.12,-221 667.12,-240.25"/>
<text text-anchor="middle" x="623.5" y="-226.75" font-family="Helvetica,sans-Serif" font-size="10.00">ssloader_ssce.h</text>
</a>
</g>
</g>
<!-- Node2&#45;&gt;Node24 -->
<g id="edge59_Node000002_Node000024" class="edge">
<title>Node2&#45;&gt;Node24</title>
<g id="a_edge59_Node000002_Node000024"><a xlink:title=" ">
<path fill="none" stroke="#63b8ff" d="M571.9,-394.39C602.49,-391.58 648.23,-382.02 670.5,-350.75 693.49,-318.47 661.69,-273.4 640.24,-248.99"/>
<polygon fill="#63b8ff" stroke="#63b8ff" points="643.02,-246.85 633.69,-241.83 637.86,-251.57 643.02,-246.85"/>
</a>
</g>
</g>
<!-- Node25 -->
<g id="Node000025" class="node">
<title>Node25</title>
<g id="a_Node000025"><a xlink:href="ssloader__ssee_8h.html" target="_top" xlink:title=" ">
<polygon fill="white" stroke="#666666" points="842.12,-295.5 754.88,-295.5 754.88,-276.25 842.12,-276.25 842.12,-295.5"/>
<text text-anchor="middle" x="798.5" y="-282" font-family="Helvetica,sans-Serif" font-size="10.00">ssloader_ssee.h</text>
</a>
</g>
</g>
<!-- Node2&#45;&gt;Node25 -->
<g id="edge60_Node000002_Node000025" class="edge">
<title>Node2&#45;&gt;Node25</title>
<g id="a_edge60_Node000002_Node000025"><a xlink:title=" ">
<path fill="none" stroke="#63b8ff" d="M571.88,-394.21C612.78,-391.43 686.64,-382.1 740.5,-350.75 759.85,-339.49 776.38,-319.59 786.79,-304.99"/>
<polygon fill="#63b8ff" stroke="#63b8ff" points="789.39,-307.39 792.12,-297.15 783.6,-303.45 789.39,-307.39"/>
</a>
</g>
</g>
<!-- Node29 -->
<g id="Node000029" class="node">
<title>Node29</title>
<g id="a_Node000029"><a xlink:href="ssloader__ssqe_8h.html" target="_top" xlink:title=" ">
<polygon fill="white" stroke="#666666" points="1162.12,-240.25 1074.88,-240.25 1074.88,-221 1162.12,-221 1162.12,-240.25"/>
<text text-anchor="middle" x="1118.5" y="-226.75" font-family="Helvetica,sans-Serif" font-size="10.00">ssloader_ssqe.h</text>
</a>
</g>
</g>
<!-- Node2&#45;&gt;Node29 -->
<g id="edge61_Node000002_Node000029" class="edge">
<title>Node2&#45;&gt;Node29</title>
<g id="a_edge61_Node000002_Node000029"><a xlink:title=" ">
<path fill="none" stroke="#63b8ff" d="M571.88,-393.34C674.07,-385.96 1003.6,-357.71 1086.5,-295.5 1100.76,-284.8 1109.1,-265.97 1113.66,-251.52"/>
<polygon fill="#63b8ff" stroke="#63b8ff" points="1116.96,-252.72 1116.26,-242.15 1110.22,-250.85 1116.96,-252.72"/>
</a>
</g>
</g>
<!-- Node4 -->
<g id="Node000004" class="node">
<title>Node4</title>
<g id="a_Node000004"><a xlink:title=" ">
<polygon fill="#e0e0e0" stroke="#999999" points="885.25,-19.25 837.75,-19.25 837.75,0 885.25,0 885.25,-19.25"/>
<text text-anchor="middle" x="861.5" y="-5.75" font-family="Helvetica,sans-Serif" font-size="10.00">stdlib.h</text>
</a>
</g>
</g>
<!-- Node3&#45;&gt;Node4 -->
<g id="edge3_Node000003_Node000004" class="edge">
<title>Node3&#45;&gt;Node4</title>
<g id="a_edge3_Node000003_Node000004"><a xlink:title=" ">
<path fill="none" stroke="#63b8ff" d="M803.37,-54.84C813.59,-47.07 828.57,-35.67 840.76,-26.4"/>
<polygon fill="#63b8ff" stroke="#63b8ff" points="842.76,-29.28 848.6,-20.44 838.52,-23.71 842.76,-29.28"/>
</a>
</g>
</g>
<!-- Node5 -->
<g id="Node000005" class="node">
<title>Node5</title>
<g id="a_Node000005"><a xlink:title=" ">
<polygon fill="#e0e0e0" stroke="#999999" points="629.5,-19.25 589.5,-19.25 589.5,0 629.5,0 629.5,-19.25"/>
<text text-anchor="middle" x="609.5" y="-5.75" font-family="Helvetica,sans-Serif" font-size="10.00">string</text>
</a>
</g>
</g>
<!-- Node3&#45;&gt;Node5 -->
<g id="edge4_Node000003_Node000005" class="edge">
<title>Node3&#45;&gt;Node5</title>
<g id="a_edge4_Node000003_Node000005"><a xlink:title=" ">
<path fill="none" stroke="#63b8ff" d="M761.85,-55.2C728.46,-45.43 674.44,-29.62 640.5,-19.69"/>
<polygon fill="#63b8ff" stroke="#63b8ff" points="641.85,-16.44 631.27,-16.99 639.88,-23.16 641.85,-16.44"/>
</a>
</g>
</g>
<!-- Node6 -->
<g id="Node000006" class="node">
<title>Node6</title>
<g id="a_Node000006"><a xlink:title=" ">
<polygon fill="#e0e0e0" stroke="#999999" points="424,-19.25 381,-19.25 381,0 424,0 424,-19.25"/>
<text text-anchor="middle" x="402.5" y="-5.75" font-family="Helvetica,sans-Serif" font-size="10.00">vector</text>
</a>
</g>
</g>
<!-- Node3&#45;&gt;Node6 -->
<g id="edge5_Node000003_Node000006" class="edge">
<title>Node3&#45;&gt;Node6</title>
<g id="a_edge5_Node000003_Node000006"><a xlink:title=" ">
<path fill="none" stroke="#63b8ff" d="M761.94,-59.83C690.58,-50.06 509.31,-25.25 435.01,-15.08"/>
<polygon fill="#63b8ff" stroke="#63b8ff" points="435.92,-11.67 425.54,-13.78 434.97,-18.6 435.92,-11.67"/>
</a>
</g>
</g>
<!-- Node7 -->
<g id="Node000007" class="node">
<title>Node7</title>
<g id="a_Node000007"><a xlink:title=" ">
<polygon fill="#e0e0e0" stroke="#999999" points="746,-19.25 703,-19.25 703,0 746,0 746,-19.25"/>
<text text-anchor="middle" x="724.5" y="-5.75" font-family="Helvetica,sans-Serif" font-size="10.00">cmath</text>
</a>
</g>
</g>
<!-- Node3&#45;&gt;Node7 -->
<g id="edge6_Node000003_Node000007" class="edge">
<title>Node3&#45;&gt;Node7</title>
<g id="a_edge6_Node000003_Node000007"><a xlink:title=" ">
<path fill="none" stroke="#63b8ff" d="M780.13,-54.84C770.45,-47.15 756.3,-35.9 744.69,-26.68"/>
<polygon fill="#63b8ff" stroke="#63b8ff" points="746.89,-23.95 736.88,-20.47 742.53,-29.43 746.89,-23.95"/>
</a>
</g>
</g>
<!-- Node8 -->
<g id="Node000008" class="node">
<title>Node8</title>
<g id="a_Node000008"><a xlink:title=" ">
<polygon fill="#e0e0e0" stroke="#999999" points="819.38,-19.25 763.62,-19.25 763.62,0 819.38,0 819.38,-19.25"/>
<text text-anchor="middle" x="791.5" y="-5.75" font-family="Helvetica,sans-Serif" font-size="10.00">algorithm</text>
</a>
</g>
</g>
<!-- Node3&#45;&gt;Node8 -->
<g id="edge7_Node000003_Node000008" class="edge">
<title>Node3&#45;&gt;Node8</title>
<g id="a_edge7_Node000003_Node000008"><a xlink:title=" ">
<path fill="none" stroke="#63b8ff" d="M791.5,-55.08C791.5,-48.57 791.5,-39.42 791.5,-31.12"/>
<polygon fill="#63b8ff" stroke="#63b8ff" points="795,-31.12 791.5,-21.12 788,-31.12 795,-31.12"/>
</a>
</g>
</g>
<!-- Node9&#45;&gt;Node3 -->
<g id="edge10_Node000009_Node000003" class="edge">
<title>Node9&#45;&gt;Node3</title>
<g id="a_edge10_Node000009_Node000003"><a xlink:title=" ">
<path fill="none" stroke="#63b8ff" d="M557.99,-112.27C607.27,-102.48 697.71,-84.51 750.4,-74.04"/>
<polygon fill="#63b8ff" stroke="#63b8ff" points="751.07,-77.48 760.19,-72.1 749.7,-70.61 751.07,-77.48"/>
</a>
</g>
</g>
<!-- Node9&#45;&gt;Node5 -->
<g id="edge11_Node000009_Node000005" class="edge">
<title>Node9&#45;&gt;Node5</title>
<g id="a_edge11_Node000009_Node000005"><a xlink:title=" ">
<path fill="none" stroke="#63b8ff" d="M544.2,-110.11C559.11,-102.62 578.63,-90.58 590.5,-74.5 599.88,-61.81 604.65,-44.5 607.07,-31.11"/>
<polygon fill="#63b8ff" stroke="#63b8ff" points="610.53,-31.64 608.52,-21.24 603.61,-30.63 610.53,-31.64"/>
</a>
</g>
</g>
<!-- Node9&#45;&gt;Node6 -->
<g id="edge12_Node000009_Node000006" class="edge">
<title>Node9&#45;&gt;Node6</title>
<g id="a_edge12_Node000009_Node000006"><a xlink:title=" ">
<path fill="none" stroke="#63b8ff" d="M511.37,-110.3C499.6,-101.57 481.37,-87.66 466.5,-74.5 449.5,-59.46 431.28,-41.02 418.65,-27.83"/>
<polygon fill="#63b8ff" stroke="#63b8ff" points="421.34,-25.59 411.92,-20.74 416.26,-30.41 421.34,-25.59"/>
</a>
</g>
</g>
<!-- Node10 -->
<g id="Node000010" class="node">
<title>Node10</title>
<g id="a_Node000010"><a xlink:title=" ">
<polygon fill="#e0e0e0" stroke="#999999" points="581.88,-74.5 475.12,-74.5 475.12,-55.25 581.88,-55.25 581.88,-74.5"/>
<text text-anchor="middle" x="528.5" y="-61" font-family="Helvetica,sans-Serif" font-size="10.00">./tinyxml2/tinyxml2.h</text>
</a>
</g>
</g>
<!-- Node9&#45;&gt;Node10 -->
<g id="edge9_Node000009_Node000010" class="edge">
<title>Node9&#45;&gt;Node10</title>
<g id="a_edge9_Node000009_Node000010"><a xlink:title=" ">
<path fill="none" stroke="#63b8ff" d="M524.33,-110.33C524.94,-103.74 525.82,-94.46 526.6,-86.07"/>
<polygon fill="#63b8ff" stroke="#63b8ff" points="530.06,-86.65 527.51,-76.37 523.1,-86 530.06,-86.65"/>
</a>
</g>
</g>
<!-- Node11 -->
<g id="Node000011" class="node">
<title>Node11</title>
<g id="a_Node000011"><a xlink:title=" ">
<polygon fill="#e0e0e0" stroke="#999999" points="419.88,-74.5 385.12,-74.5 385.12,-55.25 419.88,-55.25 419.88,-74.5"/>
<text text-anchor="middle" x="402.5" y="-61" font-family="Helvetica,sans-Serif" font-size="10.00">map</text>
</a>
</g>
</g>
<!-- Node9&#45;&gt;Node11 -->
<g id="edge13_Node000009_Node000011" class="edge">
<title>Node9&#45;&gt;Node11</title>
<g id="a_edge13_Node000009_Node000011"><a xlink:title=" ">
<path fill="none" stroke="#63b8ff" d="M502.97,-110.09C483.13,-101.36 452.91,-88.06 430.79,-78.32"/>
<polygon fill="#63b8ff" stroke="#63b8ff" points="432.31,-75.17 421.75,-74.35 429.49,-81.58 432.31,-75.17"/>
</a>
</g>
</g>
<!-- Node12&#45;&gt;Node3 -->
<g id="edge15_Node000012_Node000003" class="edge">
<title>Node12&#45;&gt;Node3</title>
<g id="a_edge15_Node000012_Node000003"><a xlink:title=" ">
<path fill="none" stroke="#63b8ff" d="M342.77,-220.54C386.71,-203.33 484.79,-164.55 566.5,-129.75 585.76,-121.55 589.7,-117.3 609.5,-110.5 657.05,-94.18 713.5,-81.3 750.79,-73.66"/>
<polygon fill="#63b8ff" stroke="#63b8ff" points="751.12,-77.16 760.23,-71.76 749.73,-70.3 751.12,-77.16"/>
</a>
</g>
</g>
<!-- Node12&#45;&gt;Node11 -->
<g id="edge30_Node000012_Node000011" class="edge">
<title>Node12&#45;&gt;Node11</title>
<g id="a_edge30_Node000012_Node000011"><a xlink:title=" ">
<path fill="none" stroke="#63b8ff" d="M321.33,-220.66C324.09,-208.04 329.92,-184.47 338.5,-165.75 352.46,-135.28 374.53,-103.18 388.77,-83.85"/>
<polygon fill="#63b8ff" stroke="#63b8ff" points="391.49,-86.05 394.68,-75.95 385.88,-81.86 391.49,-86.05"/>
</a>
</g>
</g>
<!-- Node13 -->
<g id="Node000013" class="node">
<title>Node13</title>
<g id="a_Node000013"><a xlink:href="ssvalue_8h.html" target="_top" xlink:title=" ">
<polygon fill="white" stroke="#666666" points="405.5,-185 347.5,-185 347.5,-165.75 405.5,-165.75 405.5,-185"/>
<text text-anchor="middle" x="376.5" y="-171.5" font-family="Helvetica,sans-Serif" font-size="10.00">ssvalue.h</text>
</a>
</g>
</g>
<!-- Node12&#45;&gt;Node13 -->
<g id="edge16_Node000012_Node000013" class="edge">
<title>Node12&#45;&gt;Node13</title>
<g id="a_edge16_Node000012_Node000013"><a xlink:title=" ">
<path fill="none" stroke="#63b8ff" d="M329.17,-220.59C337.24,-213.05 348.97,-202.1 358.72,-192.98"/>
<polygon fill="#63b8ff" stroke="#63b8ff" points="360.95,-195.69 365.87,-186.31 356.17,-190.58 360.95,-195.69"/>
</a>
</g>
</g>
<!-- Node12&#45;&gt;Node20 -->
<g id="edge28_Node000012_Node000020" class="edge">
<title>Node12&#45;&gt;Node20</title>
<g id="a_edge28_Node000012_Node000020"><a xlink:title=" ">
<path fill="none" stroke="#63b8ff" d="M293.04,-220.59C267.71,-211.95 229.27,-198.82 200.83,-189.12"/>
<polygon fill="#63b8ff" stroke="#63b8ff" points="202.12,-185.86 191.53,-185.94 199.86,-192.48 202.12,-185.86"/>
</a>
</g>
</g>
<!-- Node21 -->
<g id="Node000021" class="node">
<title>Node21</title>
<g id="a_Node000021"><a xlink:title=" ">
<polygon fill="#e0e0e0" stroke="#999999" points="291.9,-185 263.1,-185 263.1,-165.75 291.9,-165.75 291.9,-185"/>
<text text-anchor="middle" x="277.5" y="-171.5" font-family="Helvetica,sans-Serif" font-size="10.00">list</text>
</a>
</g>
</g>
<!-- Node12&#45;&gt;Node21 -->
<g id="edge29_Node000012_Node000021" class="edge">
<title>Node12&#45;&gt;Node21</title>
<g id="a_edge29_Node000012_Node000021"><a xlink:title=" ">
<path fill="none" stroke="#63b8ff" d="M312.56,-220.83C306.88,-213.63 298.66,-203.21 291.61,-194.26"/>
<polygon fill="#63b8ff" stroke="#63b8ff" points="294.46,-192.23 285.52,-186.55 288.97,-196.57 294.46,-192.23"/>
</a>
</g>
</g>
<!-- Node13&#45;&gt;Node6 -->
<g id="edge26_Node000013_Node000006" class="edge">
<title>Node13&#45;&gt;Node6</title>
<g id="a_edge26_Node000013_Node000006"><a xlink:title=" ">
<path fill="none" stroke="#63b8ff" d="M374.95,-165.5C371.78,-145.43 365.72,-95.18 376.5,-55.25 379.01,-45.97 383.98,-36.63 388.91,-28.91"/>
<polygon fill="#63b8ff" stroke="#63b8ff" points="391.71,-31.02 394.51,-20.8 385.95,-27.04 391.71,-31.02"/>
</a>
</g>
</g>
<!-- Node13&#45;&gt;Node9 -->
<g id="edge17_Node000013_Node000009" class="edge">
<title>Node13&#45;&gt;Node9</title>
<g id="a_edge17_Node000013_Node000009"><a xlink:title=" ">
<path fill="none" stroke="#63b8ff" d="M401.44,-165.34C425.19,-156.74 461.21,-143.69 487.96,-134"/>
<polygon fill="#63b8ff" stroke="#63b8ff" points="488.81,-137.41 497.02,-130.72 486.42,-130.83 488.81,-137.41"/>
</a>
</g>
</g>
<!-- Node13&#45;&gt;Node11 -->
<g id="edge25_Node000013_Node000011" class="edge">
<title>Node13&#45;&gt;Node11</title>
<g id="a_edge25_Node000013_Node000011"><a xlink:title=" ">
<path fill="none" stroke="#63b8ff" d="M378.63,-165.5C382.76,-148.25 391.97,-109.83 397.66,-86.06"/>
<polygon fill="#63b8ff" stroke="#63b8ff" points="401.06,-86.89 399.99,-76.35 394.26,-85.26 401.06,-86.89"/>
</a>
</g>
</g>
<!-- Node14 -->
<g id="Node000014" class="node">
<title>Node14</title>
<g id="a_Node000014"><a xlink:href="ssstring__uty_8h.html" target="_top" xlink:title=" ">
<polygon fill="white" stroke="#666666" points="271.5,-129.75 195.5,-129.75 195.5,-110.5 271.5,-110.5 271.5,-129.75"/>
<text text-anchor="middle" x="233.5" y="-116.25" font-family="Helvetica,sans-Serif" font-size="10.00">ssstring_uty.h</text>
</a>
</g>
</g>
<!-- Node13&#45;&gt;Node14 -->
<g id="edge18_Node000013_Node000014" class="edge">
<title>Node13&#45;&gt;Node14</title>
<g id="a_edge18_Node000013_Node000014"><a xlink:title=" ">
<path fill="none" stroke="#63b8ff" d="M352.24,-165.34C329.23,-156.77 294.41,-143.81 268.42,-134.13"/>
<polygon fill="#63b8ff" stroke="#63b8ff" points="269.89,-130.94 259.3,-130.73 267.45,-137.5 269.89,-130.94"/>
</a>
</g>
</g>
<!-- Node19 -->
<g id="Node000019" class="node">
<title>Node19</title>
<g id="a_Node000019"><a xlink:title=" ">
<polygon fill="#e0e0e0" stroke="#999999" points="471.62,-129.75 423.38,-129.75 423.38,-110.5 471.62,-110.5 471.62,-129.75"/>
<text text-anchor="middle" x="447.5" y="-116.25" font-family="Helvetica,sans-Serif" font-size="10.00">cassert</text>
</a>
</g>
</g>
<!-- Node13&#45;&gt;Node19 -->
<g id="edge27_Node000013_Node000019" class="edge">
<title>Node13&#45;&gt;Node19</title>
<g id="a_edge27_Node000013_Node000019"><a xlink:title=" ">
<path fill="none" stroke="#63b8ff" d="M388.54,-165.34C398.91,-157.57 414.1,-146.17 426.47,-136.9"/>
<polygon fill="#63b8ff" stroke="#63b8ff" points="428.52,-139.73 434.42,-130.93 424.32,-134.13 428.52,-139.73"/>
</a>
</g>
</g>
<!-- Node14&#45;&gt;Node5 -->
<g id="edge19_Node000014_Node000005" class="edge">
<title>Node14&#45;&gt;Node5</title>
<g id="a_edge19_Node000014_Node000005"><a xlink:title=" ">
<path fill="none" stroke="#63b8ff" d="M250.17,-110.15C276.36,-96.4 329.03,-70.18 376.5,-55.25 446.68,-33.18 532.36,-20.18 577.74,-14.34"/>
<polygon fill="#63b8ff" stroke="#63b8ff" points="578.18,-17.82 587.67,-13.1 577.31,-10.87 578.18,-17.82"/>
</a>
</g>
</g>
<!-- Node14&#45;&gt;Node6 -->
<g id="edge21_Node000014_Node000006" class="edge">
<title>Node14&#45;&gt;Node6</title>
<g id="a_edge21_Node000014_Node000006"><a xlink:title=" ">
<path fill="none" stroke="#63b8ff" d="M241.69,-110.37C254.39,-97.15 280.04,-71.88 305.5,-55.25 325.84,-41.97 350.76,-30.6 370.26,-22.65"/>
<polygon fill="#63b8ff" stroke="#63b8ff" points="371.33,-25.99 379.34,-19.05 368.75,-19.49 371.33,-25.99"/>
</a>
</g>
</g>
<!-- Node15 -->
<g id="Node000015" class="node">
<title>Node15</title>
<g id="a_Node000015"><a xlink:title=" ">
<polygon fill="#e0e0e0" stroke="#999999" points="49,-74.5 0,-74.5 0,-55.25 49,-55.25 49,-74.5"/>
<text text-anchor="middle" x="24.5" y="-61" font-family="Helvetica,sans-Serif" font-size="10.00">fstream</text>
</a>
</g>
</g>
<!-- Node14&#45;&gt;Node15 -->
<g id="edge20_Node000014_Node000015" class="edge">
<title>Node14&#45;&gt;Node15</title>
<g id="a_edge20_Node000014_Node000015"><a xlink:title=" ">
<path fill="none" stroke="#63b8ff" d="M197.41,-110.06C164.12,-101.67 113.01,-88.76 60.28,-75.2"/>
<polygon fill="#63b8ff" stroke="#63b8ff" points="61.38,-71.87 50.83,-72.77 59.64,-78.65 61.38,-71.87"/>
</a>
</g>
</g>
<!-- Node16 -->
<g id="Node000016" class="node">
<title>Node16</title>
<g id="a_Node000016"><a xlink:title=" ">
<polygon fill="#e0e0e0" stroke="#999999" points="120.25,-74.5 66.75,-74.5 66.75,-55.25 120.25,-55.25 120.25,-74.5"/>
<text text-anchor="middle" x="93.5" y="-61" font-family="Helvetica,sans-Serif" font-size="10.00">iostream</text>
</a>
</g>
</g>
<!-- Node14&#45;&gt;Node16 -->
<g id="edge22_Node000014_Node000016" class="edge">
<title>Node14&#45;&gt;Node16</title>
<g id="a_edge22_Node000014_Node000016"><a xlink:title=" ">
<path fill="none" stroke="#63b8ff" d="M209.75,-110.09C187.33,-101.56 153.44,-88.67 128.03,-79.01"/>
<polygon fill="#63b8ff" stroke="#63b8ff" points="129.37,-75.77 118.78,-75.49 126.88,-82.32 129.37,-75.77"/>
</a>
</g>
</g>
<!-- Node17 -->
<g id="Node000017" class="node">
<title>Node17</title>
<g id="a_Node000017"><a xlink:title=" ">
<polygon fill="#e0e0e0" stroke="#999999" points="189.12,-74.5 137.88,-74.5 137.88,-55.25 189.12,-55.25 189.12,-74.5"/>
<text text-anchor="middle" x="163.5" y="-61" font-family="Helvetica,sans-Serif" font-size="10.00">sstream</text>
</a>
</g>
</g>
<!-- Node14&#45;&gt;Node17 -->
<g id="edge23_Node000014_Node000017" class="edge">
<title>Node14&#45;&gt;Node17</title>
<g id="a_edge23_Node000014_Node000017"><a xlink:title=" ">
<path fill="none" stroke="#63b8ff" d="M221.63,-110.09C211.41,-102.32 196.43,-90.92 184.24,-81.65"/>
<polygon fill="#63b8ff" stroke="#63b8ff" points="186.48,-78.96 176.4,-75.69 182.24,-84.53 186.48,-78.96"/>
</a>
</g>
</g>
<!-- Node18 -->
<g id="Node000018" class="node">
<title>Node18</title>
<g id="a_Node000018"><a xlink:title=" ">
<polygon fill="#e0e0e0" stroke="#999999" points="253.5,-74.5 207.5,-74.5 207.5,-55.25 253.5,-55.25 253.5,-74.5"/>
<text text-anchor="middle" x="230.5" y="-61" font-family="Helvetica,sans-Serif" font-size="10.00">iterator</text>
</a>
</g>
</g>
<!-- Node14&#45;&gt;Node18 -->
<g id="edge24_Node000014_Node000018" class="edge">
<title>Node14&#45;&gt;Node18</title>
<g id="a_edge24_Node000014_Node000018"><a xlink:title=" ">
<path fill="none" stroke="#63b8ff" d="M233,-110.33C232.63,-103.74 232.11,-94.46 231.64,-86.07"/>
<polygon fill="#63b8ff" stroke="#63b8ff" points="235.15,-86.16 231.09,-76.37 228.16,-86.55 235.15,-86.16"/>
</a>
</g>
</g>
<!-- Node22&#45;&gt;Node3 -->
<g id="edge32_Node000022_Node000003" class="edge">
<title>Node22&#45;&gt;Node3</title>
<g id="a_edge32_Node000022_Node000003"><a xlink:title=" ">
<path fill="none" stroke="#63b8ff" d="M661.99,-340.23C730.53,-337.88 864.47,-322.32 930.5,-240.25 966.72,-195.23 966.92,-147.45 922.5,-110.5 896.77,-89.09 860.25,-77.77 832.3,-71.9"/>
<polygon fill="#63b8ff" stroke="#63b8ff" points="833.26,-68.52 822.78,-70.05 831.93,-75.39 833.26,-68.52"/>
</a>
</g>
</g>
<!-- Node22&#45;&gt;Node9 -->
<g id="edge33_Node000022_Node000009" class="edge">
<title>Node22&#45;&gt;Node9</title>
<g id="a_edge33_Node000022_Node000009"><a xlink:title=" ">
<path fill="none" stroke="#63b8ff" d="M604.18,-331.07C592.15,-323.17 575.9,-310.62 566.5,-295.5 535.69,-245.96 526.95,-175.69 524.47,-141.46"/>
<polygon fill="#63b8ff" stroke="#63b8ff" points="527.98,-141.5 523.89,-131.73 520.99,-141.92 527.98,-141.5"/>
</a>
</g>
</g>
<!-- Node22&#45;&gt;Node14 -->
<g id="edge34_Node000022_Node000014" class="edge">
<title>Node22&#45;&gt;Node14</title>
<g id="a_edge34_Node000022_Node000014"><a xlink:title=" ">
<path fill="none" stroke="#63b8ff" d="M576.94,-337.74C525.02,-333.71 435.31,-323.07 363.5,-295.5 320.39,-278.95 304.78,-275.96 275.5,-240.25 251.48,-210.94 240.75,-166.92 236.31,-141.41"/>
<polygon fill="#63b8ff" stroke="#63b8ff" points="239.8,-141.05 234.8,-131.71 232.88,-142.13 239.8,-141.05"/>
</a>
</g>
</g>
<!-- Node22&#45;&gt;Node23 -->
<g id="edge35_Node000022_Node000023" class="edge">
<title>Node22&#45;&gt;Node23</title>
<g id="a_edge35_Node000022_Node000023"><a xlink:title=" ">
<path fill="none" stroke="#63b8ff" d="M585.06,-331.09C551.23,-322.22 499.41,-308.62 462.16,-298.85"/>
<polygon fill="#63b8ff" stroke="#63b8ff" points="463.13,-295.49 452.57,-296.34 461.35,-302.26 463.13,-295.49"/>
</a>
</g>
</g>
<!-- Node22&#45;&gt;Node24 -->
<g id="edge39_Node000022_Node000024" class="edge">
<title>Node22&#45;&gt;Node24</title>
<g id="a_edge39_Node000022_Node000024"><a xlink:title=" ">
<path fill="none" stroke="#63b8ff" d="M620.79,-331.26C622.03,-322.27 623.8,-307.95 624.5,-295.5 625.31,-281.04 625.03,-264.7 624.57,-252.17"/>
<polygon fill="#63b8ff" stroke="#63b8ff" points="628.07,-252.07 624.12,-242.24 621.07,-252.39 628.07,-252.07"/>
</a>
</g>
</g>
<!-- Node22&#45;&gt;Node25 -->
<g id="edge42_Node000022_Node000025" class="edge">
<title>Node22&#45;&gt;Node25</title>
<g id="a_edge42_Node000022_Node000025"><a xlink:title=" ">
<path fill="none" stroke="#63b8ff" d="M649.86,-331.09C679.31,-322.33 724.21,-308.98 756.96,-299.23"/>
<polygon fill="#63b8ff" stroke="#63b8ff" points="757.95,-302.59 766.54,-296.38 755.95,-295.88 757.95,-302.59"/>
</a>
</g>
</g>
<!-- Node28 -->
<g id="Node000028" class="node">
<title>Node28</title>
<g id="a_Node000028"><a xlink:title=" ">
<polygon fill="#e0e0e0" stroke="#999999" points="741.12,-185 689.88,-185 689.88,-165.75 741.12,-165.75 741.12,-185"/>
<text text-anchor="middle" x="715.5" y="-171.5" font-family="Helvetica,sans-Serif" font-size="10.00">memory</text>
</a>
</g>
</g>
<!-- Node22&#45;&gt;Node28 -->
<g id="edge56_Node000022_Node000028" class="edge">
<title>Node22&#45;&gt;Node28</title>
<g id="a_edge56_Node000022_Node000028"><a xlink:title=" ">
<path fill="none" stroke="#63b8ff" d="M624.66,-331.32C639.77,-305.55 684.12,-229.9 704.74,-194.74"/>
<polygon fill="#63b8ff" stroke="#63b8ff" points="707.51,-196.93 709.55,-186.53 701.47,-193.38 707.51,-196.93"/>
</a>
</g>
</g>
<!-- Node22&#45;&gt;Node29 -->
<g id="edge53_Node000022_Node000029" class="edge">
<title>Node22&#45;&gt;Node29</title>
<g id="a_edge53_Node000022_Node000029"><a xlink:title=" ">
<path fill="none" stroke="#63b8ff" d="M661.9,-339.66C758.39,-338 991.36,-330.38 1060.5,-295.5 1080.71,-285.3 1097.27,-264.89 1107.45,-249.87"/>
<polygon fill="#63b8ff" stroke="#63b8ff" points="1110.17,-252.11 1112.62,-241.8 1104.28,-248.33 1110.17,-252.11"/>
</a>
</g>
</g>
<!-- Node30 -->
<g id="Node000030" class="node">
<title>Node30</title>
<g id="a_Node000030"><a xlink:title=" ">
<polygon fill="#e0e0e0" stroke="#999999" points="615.12,-295.5 575.88,-295.5 575.88,-276.25 615.12,-276.25 615.12,-295.5"/>
<text text-anchor="middle" x="595.5" y="-282" font-family="Helvetica,sans-Serif" font-size="10.00">utility</text>
</a>
</g>
</g>
<!-- Node22&#45;&gt;Node30 -->
<g id="edge57_Node000022_Node000030" class="edge">
<title>Node22&#45;&gt;Node30</title>
<g id="a_edge57_Node000022_Node000030"><a xlink:title=" ">
<path fill="none" stroke="#63b8ff" d="M615.54,-331.33C612.46,-324.51 608.09,-314.81 604.21,-306.2"/>
<polygon fill="#63b8ff" stroke="#63b8ff" points="607.47,-304.92 600.17,-297.24 601.09,-307.79 607.47,-304.92"/>
</a>
</g>
</g>
<!-- Node23&#45;&gt;Node3 -->
<g id="edge36_Node000023_Node000003" class="edge">
<title>Node23&#45;&gt;Node3</title>
<g id="a_edge36_Node000023_Node000003"><a xlink:title=" ">
<path fill="none" stroke="#63b8ff" d="M432,-275.78C476.13,-249.87 606.24,-173.55 714.5,-110.5 731.75,-100.46 751.2,-89.18 766.23,-80.48"/>
<polygon fill="#63b8ff" stroke="#63b8ff" points="767.64,-83.71 774.55,-75.67 764.14,-77.65 767.64,-83.71"/>
</a>
</g>
</g>
<!-- Node23&#45;&gt;Node9 -->
<g id="edge37_Node000023_Node000009" class="edge">
<title>Node23&#45;&gt;Node9</title>
<g id="a_edge37_Node000023_Node000009"><a xlink:title=" ">
<path fill="none" stroke="#63b8ff" d="M417.62,-275.89C420.64,-254.71 430.63,-200.82 457.5,-165.75 467.06,-153.28 481.14,-143.08 493.83,-135.61"/>
<polygon fill="#63b8ff" stroke="#63b8ff" points="495.23,-138.83 502.29,-130.93 491.84,-132.71 495.23,-138.83"/>
</a>
</g>
</g>
<!-- Node23&#45;&gt;Node12 -->
<g id="edge38_Node000023_Node000012" class="edge">
<title>Node23&#45;&gt;Node12</title>
<g id="a_edge38_Node000023_Node000012"><a xlink:title=" ">
<path fill="none" stroke="#63b8ff" d="M400.05,-275.84C385.27,-267.73 363.32,-255.68 346.07,-246.21"/>
<polygon fill="#63b8ff" stroke="#63b8ff" points="347.81,-243.18 337.36,-241.43 344.44,-249.31 347.81,-243.18"/>
</a>
</g>
</g>
<!-- Node24&#45;&gt;Node3 -->
<g id="edge40_Node000024_Node000003" class="edge">
<title>Node24&#45;&gt;Node3</title>
<g id="a_edge40_Node000024_Node000003"><a xlink:title=" ">
<path fill="none" stroke="#63b8ff" d="M630.95,-220.67C641.57,-208.05 661.83,-184.5 680.5,-165.75 711.23,-134.89 749.43,-101.52 772.06,-82.23"/>
<polygon fill="#63b8ff" stroke="#63b8ff" points="774.22,-84.98 779.59,-75.85 769.7,-79.64 774.22,-84.98"/>
</a>
</g>
</g>
<!-- Node24&#45;&gt;Node9 -->
<g id="edge41_Node000024_Node000009" class="edge">
<title>Node24&#45;&gt;Node9</title>
<g id="a_edge41_Node000024_Node000009"><a xlink:title=" ">
<path fill="none" stroke="#63b8ff" d="M615.32,-220.75C598.76,-202.78 561.04,-161.86 539.45,-138.44"/>
<polygon fill="#63b8ff" stroke="#63b8ff" points="542.17,-136.22 532.82,-131.24 537.03,-140.96 542.17,-136.22"/>
</a>
</g>
</g>
<!-- Node25&#45;&gt;Node3 -->
<g id="edge43_Node000025_Node000003" class="edge">
<title>Node25&#45;&gt;Node3</title>
<g id="a_edge43_Node000025_Node000003"><a xlink:title=" ">
<path fill="none" stroke="#63b8ff" d="M836.9,-275.81C859.23,-268.99 886.77,-257.75 906.5,-240.25 933.33,-216.45 948.35,-199.93 937.5,-165.75 928.41,-137.1 921.95,-129.3 898.5,-110.5 878.97,-94.85 853.18,-83.88 831.8,-76.73"/>
<polygon fill="#63b8ff" stroke="#63b8ff" points="833.12,-73.47 822.53,-73.79 831.01,-80.15 833.12,-73.47"/>
</a>
</g>
</g>
<!-- Node25&#45;&gt;Node9 -->
<g id="edge44_Node000025_Node000009" class="edge">
<title>Node25&#45;&gt;Node9</title>
<g id="a_edge44_Node000025_Node000009"><a xlink:title=" ">
<path fill="none" stroke="#63b8ff" d="M796.06,-275.8C789.09,-250.6 768.46,-180.6 750.5,-165.75 723.5,-143.42 627.86,-130.8 569.68,-125.03"/>
<polygon fill="#63b8ff" stroke="#63b8ff" points="570.02,-121.54 559.73,-124.07 569.35,-128.51 570.02,-121.54"/>
</a>
</g>
</g>
<!-- Node26 -->
<g id="Node000026" class="node">
<title>Node26</title>
<g id="a_Node000026"><a xlink:href="_ss_effect_behavior_8h.html" target="_top" xlink:title=" ">
<polygon fill="white" stroke="#666666" points="897.5,-240.25 797.5,-240.25 797.5,-221 897.5,-221 897.5,-240.25"/>
<text text-anchor="middle" x="847.5" y="-226.75" font-family="Helvetica,sans-Serif" font-size="10.00">SsEffectBehavior.h</text>
</a>
</g>
</g>
<!-- Node25&#45;&gt;Node26 -->
<g id="edge45_Node000025_Node000026" class="edge">
<title>Node25&#45;&gt;Node26</title>
<g id="a_edge45_Node000025_Node000026"><a xlink:title=" ">
<path fill="none" stroke="#63b8ff" d="M806.59,-276.08C813.36,-268.73 823.22,-258.01 831.56,-248.94"/>
<polygon fill="#63b8ff" stroke="#63b8ff" points="834.01,-251.45 838.21,-241.72 828.86,-246.71 834.01,-251.45"/>
</a>
</g>
</g>
<!-- Node26&#45;&gt;Node3 -->
<g id="edge50_Node000026_Node000003" class="edge">
<title>Node26&#45;&gt;Node3</title>
<g id="a_edge50_Node000026_Node000003"><a xlink:title=" ">
<path fill="none" stroke="#63b8ff" d="M874.42,-220.55C900.66,-210.03 934.94,-190.89 922.5,-165.75 902.04,-124.42 855.37,-95.52 823.63,-79.8"/>
<polygon fill="#63b8ff" stroke="#63b8ff" points="825.4,-76.77 814.87,-75.63 822.39,-83.09 825.4,-76.77"/>
</a>
</g>
</g>
<!-- Node26&#45;&gt;Node13 -->
<g id="edge51_Node000026_Node000013" class="edge">
<title>Node26&#45;&gt;Node13</title>
<g id="a_edge51_Node000026_Node000013"><a xlink:title=" ">
<path fill="none" stroke="#63b8ff" d="M797.09,-223.93C703.15,-213.3 503.03,-190.68 417.09,-180.96"/>
<polygon fill="#63b8ff" stroke="#63b8ff" points="417.58,-177.5 407.25,-179.85 416.79,-184.45 417.58,-177.5"/>
</a>
</g>
</g>
<!-- Node27 -->
<g id="Node000027" class="node">
<title>Node27</title>
<g id="a_Node000027"><a xlink:href="_ss_effect_element_8h.html" target="_top" xlink:title=" ">
<polygon fill="white" stroke="#666666" points="895.75,-185 797.25,-185 797.25,-165.75 895.75,-165.75 895.75,-185"/>
<text text-anchor="middle" x="846.5" y="-171.5" font-family="Helvetica,sans-Serif" font-size="10.00">SsEffectElement.h</text>
</a>
</g>
</g>
<!-- Node26&#45;&gt;Node27 -->
<g id="edge46_Node000026_Node000027" class="edge">
<title>Node26&#45;&gt;Node27</title>
<g id="a_edge46_Node000026_Node000027"><a xlink:title=" ">
<path fill="none" stroke="#63b8ff" d="M847.33,-220.83C847.21,-214.32 847.04,-205.17 846.88,-196.87"/>
<polygon fill="#63b8ff" stroke="#63b8ff" points="850.38,-196.8 846.7,-186.87 843.39,-196.94 850.38,-196.8"/>
</a>
</g>
</g>
<!-- Node26&#45;&gt;Node28 -->
<g id="edge52_Node000026_Node000028" class="edge">
<title>Node26&#45;&gt;Node28</title>
<g id="a_edge52_Node000026_Node000028"><a xlink:title=" ">
<path fill="none" stroke="#63b8ff" d="M825.11,-220.59C804.06,-212.1 772.3,-199.29 748.38,-189.64"/>
<polygon fill="#63b8ff" stroke="#63b8ff" points="749.99,-186.51 739.41,-186.02 747.37,-193.01 749.99,-186.51"/>
</a>
</g>
</g>
<!-- Node27&#45;&gt;Node3 -->
<g id="edge47_Node000027_Node000003" class="edge">
<title>Node27&#45;&gt;Node3</title>
<g id="a_edge47_Node000027_Node000003"><a xlink:title=" ">
<path fill="none" stroke="#63b8ff" d="M842,-165.5C833.14,-148.01 813.24,-108.77 801.24,-85.09"/>
<polygon fill="#63b8ff" stroke="#63b8ff" points="804.39,-83.56 796.75,-76.23 798.15,-86.73 804.39,-83.56"/>
</a>
</g>
</g>
<!-- Node27&#45;&gt;Node9 -->
<g id="edge48_Node000027_Node000009" class="edge">
<title>Node27&#45;&gt;Node9</title>
<g id="a_edge48_Node000027_Node000009"><a xlink:title=" ">
<path fill="none" stroke="#63b8ff" d="M797.09,-166.23C735,-155.99 629.29,-138.56 569.06,-128.64"/>
<polygon fill="#63b8ff" stroke="#63b8ff" points="569.94,-125.23 559.5,-127.06 568.8,-132.14 569.94,-125.23"/>
</a>
</g>
</g>
<!-- Node27&#45;&gt;Node27 -->
<g id="edge49_Node000027_Node000027" class="edge">
<title>Node27&#45;&gt;Node27</title>
<g id="a_edge49_Node000027_Node000027"><a xlink:title=" ">
<path fill="none" stroke="#63b8ff" d="M881.79,-185.48C898.77,-186.73 913.75,-183.36 913.75,-175.38 913.75,-169.26 904.97,-165.85 893.23,-165.15"/>
<polygon fill="#63b8ff" stroke="#63b8ff" points="893.27,-161.65 883.3,-165.25 893.34,-168.65 893.27,-161.65"/>
</a>
</g>
</g>
<!-- Node29&#45;&gt;Node3 -->
<g id="edge54_Node000029_Node000003" class="edge">
<title>Node29&#45;&gt;Node3</title>
<g id="a_edge54_Node000029_Node000003"><a xlink:title=" ">
<path fill="none" stroke="#63b8ff" d="M1117.72,-220.71C1115.24,-198.23 1105.44,-138.96 1069.5,-110.5 1033.46,-81.95 900.27,-71.26 832.17,-67.6"/>
<polygon fill="#63b8ff" stroke="#63b8ff" points="832.72,-64.13 822.55,-67.11 832.36,-71.12 832.72,-64.13"/>
</a>
</g>
</g>
<!-- Node29&#45;&gt;Node9 -->
<g id="edge55_Node000029_Node000009" class="edge">
<title>Node29&#45;&gt;Node9</title>
<g id="a_edge55_Node000029_Node000009"><a xlink:title=" ">
<path fill="none" stroke="#63b8ff" d="M1095.69,-220.5C1059.56,-206.44 986.69,-179.65 922.5,-165.75 796.4,-138.45 644.06,-127.3 569.35,-123.22"/>
<polygon fill="#63b8ff" stroke="#63b8ff" points="569.72,-119.73 559.55,-122.7 569.35,-126.72 569.72,-119.73"/>
</a>
</g>
</g>
</g>
</svg>
