<?xml version="1.0" encoding="UTF-8" standalone="no"?>
<!DOCTYPE svg PUBLIC "-//W3C//DTD SVG 1.1//EN"
 "http://www.w3.org/Graphics/SVG/1.1/DTD/svg11.dtd">
<!-- Generated by graphviz version 12.2.1 (20241206.2353)
 -->
<!-- Title: Common/Drawer/ssOpenGLSetting.h Pages: 1 -->
<svg width="190pt" height="193pt"
 viewBox="0.00 0.00 190.25 193.00" xmlns="http://www.w3.org/2000/svg" xmlns:xlink="http://www.w3.org/1999/xlink">
<g id="graph0" class="graph" transform="scale(1 1) rotate(0) translate(4 189)">
<title>Common/Drawer/ssOpenGLSetting.h</title>
<!-- Node1 -->
<g id="Node000001" class="node">
<title>Node1</title>
<g id="a_Node000001"><a xlink:title=" ">
<polygon fill="#999999" stroke="#666666" points="182.25,-185 3.5,-185 3.5,-165.75 182.25,-165.75 182.25,-185"/>
<text text-anchor="middle" x="92.88" y="-171.5" font-family="Helvetica,sans-Serif" font-size="10.00">Common/Drawer/ssOpenGLSetting.h</text>
</a>
</g>
</g>
<!-- Node2 -->
<g id="Node000002" class="node">
<title>Node2</title>
<g id="a_Node000002"><a xlink:href="glad_8h.html" target="_top" xlink:title=" ">
<polygon fill="white" stroke="#666666" points="80.5,-129.75 17.25,-129.75 17.25,-110.5 80.5,-110.5 80.5,-129.75"/>
<text text-anchor="middle" x="48.88" y="-116.25" font-family="Helvetica,sans-Serif" font-size="10.00">glad/glad.h</text>
</a>
</g>
</g>
<!-- Node1&#45;&gt;Node2 -->
<g id="edge1_Node000001_Node000002" class="edge">
<title>Node1&#45;&gt;Node2</title>
<g id="a_edge1_Node000001_Node000002"><a xlink:title=" ">
<path fill="none" stroke="#63b8ff" d="M85.61,-165.58C79.59,-158.3 70.86,-147.73 63.42,-138.73"/>
<polygon fill="#63b8ff" stroke="#63b8ff" points="66.33,-136.76 57.26,-131.28 60.93,-141.21 66.33,-136.76"/>
</a>
</g>
</g>
<!-- Node5 -->
<g id="Node000005" class="node">
<title>Node5</title>
<g id="a_Node000005"><a xlink:title=" ">
<polygon fill="#e0e0e0" stroke="#999999" points="177.38,-129.75 98.38,-129.75 98.38,-110.5 177.38,-110.5 177.38,-129.75"/>
<text text-anchor="middle" x="137.88" y="-116.25" font-family="Helvetica,sans-Serif" font-size="10.00">GLFW/glfw3.h</text>
</a>
</g>
</g>
<!-- Node1&#45;&gt;Node5 -->
<g id="edge4_Node000001_Node000005" class="edge">
<title>Node1&#45;&gt;Node5</title>
<g id="a_edge4_Node000001_Node000005"><a xlink:title=" ">
<path fill="none" stroke="#63b8ff" d="M100.31,-165.58C106.46,-158.3 115.39,-147.73 123,-138.73"/>
<polygon fill="#63b8ff" stroke="#63b8ff" points="125.52,-141.16 129.31,-131.27 120.18,-136.64 125.52,-141.16"/>
</a>
</g>
</g>
<!-- Node3 -->
<g id="Node000003" class="node">
<title>Node3</title>
<g id="a_Node000003"><a xlink:href="khrplatform_8h.html" target="_top" xlink:title=" ">
<polygon fill="white" stroke="#666666" points="97.75,-74.5 0,-74.5 0,-55.25 97.75,-55.25 97.75,-74.5"/>
<text text-anchor="middle" x="48.88" y="-61" font-family="Helvetica,sans-Serif" font-size="10.00">KHR/khrplatform.h</text>
</a>
</g>
</g>
<!-- Node2&#45;&gt;Node3 -->
<g id="edge2_Node000002_Node000003" class="edge">
<title>Node2&#45;&gt;Node3</title>
<g id="a_edge2_Node000002_Node000003"><a xlink:title=" ">
<path fill="none" stroke="#63b8ff" d="M48.88,-110.33C48.88,-103.82 48.88,-94.67 48.88,-86.37"/>
<polygon fill="#63b8ff" stroke="#63b8ff" points="52.38,-86.37 48.88,-76.37 45.38,-86.37 52.38,-86.37"/>
</a>
</g>
</g>
<!-- Node4 -->
<g id="Node000004" class="node">
<title>Node4</title>
<g id="a_Node000004"><a xlink:title=" ">
<polygon fill="#e0e0e0" stroke="#999999" points="73,-19.25 24.75,-19.25 24.75,0 73,0 73,-19.25"/>
<text text-anchor="middle" x="48.88" y="-5.75" font-family="Helvetica,sans-Serif" font-size="10.00">stdint.h</text>
</a>
</g>
</g>
<!-- Node3&#45;&gt;Node4 -->
<g id="edge3_Node000003_Node000004" class="edge">
<title>Node3&#45;&gt;Node4</title>
<g id="a_edge3_Node000003_Node000004"><a xlink:title=" ">
<path fill="none" stroke="#63b8ff" d="M48.88,-55.08C48.88,-48.57 48.88,-39.42 48.88,-31.12"/>
<polygon fill="#63b8ff" stroke="#63b8ff" points="52.38,-31.12 48.88,-21.12 45.38,-31.12 52.38,-31.12"/>
</a>
</g>
</g>
</g>
</svg>
