<?xml version="1.0" encoding="UTF-8" standalone="no"?>
<!DOCTYPE svg PUBLIC "-//W3C//DTD SVG 1.1//EN"
 "http://www.w3.org/Graphics/SVG/1.1/DTD/svg11.dtd">
<!-- Generated by graphviz version 12.2.1 (20241206.2353)
 -->
<!-- Title: Common/Drawer/ssOpenGLSetting.h Pages: 1 -->
<svg width="430pt" height="94pt"
 viewBox="0.00 0.00 430.12 93.75" xmlns="http://www.w3.org/2000/svg" xmlns:xlink="http://www.w3.org/1999/xlink">
<g id="graph0" class="graph" transform="scale(1 1) rotate(0) translate(4 89.75)">
<title>Common/Drawer/ssOpenGLSetting.h</title>
<!-- Node1 -->
<g id="Node000001" class="node">
<title>Node1</title>
<g id="a_Node000001"><a xlink:title=" ">
<polygon fill="#999999" stroke="#666666" points="302.38,-85.75 123.62,-85.75 123.62,-66.5 302.38,-66.5 302.38,-85.75"/>
<text text-anchor="middle" x="213" y="-72.25" font-family="Helvetica,sans-Serif" font-size="10.00">Common/Drawer/ssOpenGLSetting.h</text>
</a>
</g>
</g>
<!-- Node2 -->
<g id="Node000002" class="node">
<title>Node2</title>
<g id="a_Node000002"><a xlink:href="ssplayer__render__gl_8cpp.html" target="_top" xlink:title=" ">
<polygon fill="white" stroke="#666666" points="130,-30.5 0,-30.5 0,0 130,0 130,-30.5"/>
<text text-anchor="start" x="8" y="-17" font-family="Helvetica,sans-Serif" font-size="10.00">Common/Drawer/ssplayer</text>
<text text-anchor="middle" x="65" y="-5.75" font-family="Helvetica,sans-Serif" font-size="10.00">_render_gl.cpp</text>
</a>
</g>
</g>
<!-- Node1&#45;&gt;Node2 -->
<g id="edge1_Node000001_Node000002" class="edge">
<title>Node1&#45;&gt;Node2</title>
<g id="a_edge1_Node000001_Node000002"><a xlink:title=" ">
<path fill="none" stroke="#63b8ff" d="M179.54,-61.81C156.45,-52.63 125.75,-40.42 101.94,-30.94"/>
<polygon fill="#63b8ff" stroke="#63b8ff" points="178.21,-65.05 188.79,-65.5 180.79,-58.55 178.21,-65.05"/>
</a>
</g>
</g>
<!-- Node3 -->
<g id="Node000003" class="node">
<title>Node3</title>
<g id="a_Node000003"><a xlink:href="ssplayer__shader__gl_8cpp.html" target="_top" xlink:title=" ">
<polygon fill="white" stroke="#666666" points="278,-30.5 148,-30.5 148,0 278,0 278,-30.5"/>
<text text-anchor="start" x="156" y="-17" font-family="Helvetica,sans-Serif" font-size="10.00">Common/Drawer/ssplayer</text>
<text text-anchor="middle" x="213" y="-5.75" font-family="Helvetica,sans-Serif" font-size="10.00">_shader_gl.cpp</text>
</a>
</g>
</g>
<!-- Node1&#45;&gt;Node3 -->
<g id="edge2_Node000001_Node000003" class="edge">
<title>Node1&#45;&gt;Node3</title>
<g id="a_edge2_Node000001_Node000003"><a xlink:title=" ">
<path fill="none" stroke="#63b8ff" d="M213,-54.92C213,-46.99 213,-38.06 213,-30.78"/>
<polygon fill="#63b8ff" stroke="#63b8ff" points="209.5,-54.67 213,-64.67 216.5,-54.67 209.5,-54.67"/>
</a>
</g>
</g>
<!-- Node4 -->
<g id="Node000004" class="node">
<title>Node4</title>
<g id="a_Node000004"><a xlink:href="_s_s_texture_g_l_8cpp.html" target="_top" xlink:title=" ">
<polygon fill="white" stroke="#666666" points="422.12,-30.5 295.88,-30.5 295.88,0 422.12,0 422.12,-30.5"/>
<text text-anchor="start" x="303.88" y="-17" font-family="Helvetica,sans-Serif" font-size="10.00">Common/Helper/OpenGL</text>
<text text-anchor="middle" x="359" y="-5.75" font-family="Helvetica,sans-Serif" font-size="10.00">/SSTextureGL.cpp</text>
</a>
</g>
</g>
<!-- Node1&#45;&gt;Node4 -->
<g id="edge3_Node000001_Node000004" class="edge">
<title>Node1&#45;&gt;Node4</title>
<g id="a_edge3_Node000001_Node000004"><a xlink:title=" ">
<path fill="none" stroke="#63b8ff" d="M246.01,-61.81C268.78,-52.63 299.07,-40.42 322.56,-30.94"/>
<polygon fill="#63b8ff" stroke="#63b8ff" points="244.86,-58.5 236.9,-65.49 247.48,-64.99 244.86,-58.5"/>
</a>
</g>
</g>
</g>
</svg>
