<?xml version="1.0" encoding="UTF-8" standalone="no"?>
<!DOCTYPE svg PUBLIC "-//W3C//DTD SVG 1.1//EN"
 "http://www.w3.org/Graphics/SVG/1.1/DTD/svg11.dtd">
<!-- Generated by graphviz version 12.2.1 (20241206.2353)
 -->
<!-- Title: Common/Loader/ssarchiver.h Pages: 1 -->
<svg width="355pt" height="138pt"
 viewBox="0.00 0.00 354.88 137.75" xmlns="http://www.w3.org/2000/svg" xmlns:xlink="http://www.w3.org/1999/xlink">
<g id="graph0" class="graph" transform="scale(1 1) rotate(0) translate(4 133.75)">
<title>Common/Loader/ssarchiver.h</title>
<!-- Node1 -->
<g id="Node000001" class="node">
<title>Node1</title>
<g id="a_Node000001"><a xlink:title=" ">
<polygon fill="#999999" stroke="#666666" points="263.12,-129.75 119.62,-129.75 119.62,-110.5 263.12,-110.5 263.12,-129.75"/>
<text text-anchor="middle" x="191.38" y="-116.25" font-family="Helvetica,sans-Serif" font-size="10.00">Common/Loader/ssarchiver.h</text>
</a>
</g>
</g>
<!-- Node2 -->
<g id="Node000002" class="node">
<title>Node2</title>
<g id="a_Node000002"><a xlink:title=" ">
<polygon fill="#e0e0e0" stroke="#999999" points="106.75,-74.5 0,-74.5 0,-55.25 106.75,-55.25 106.75,-74.5"/>
<text text-anchor="middle" x="53.38" y="-61" font-family="Helvetica,sans-Serif" font-size="10.00">./tinyxml2/tinyxml2.h</text>
</a>
</g>
</g>
<!-- Node1&#45;&gt;Node2 -->
<g id="edge1_Node000001_Node000002" class="edge">
<title>Node1&#45;&gt;Node2</title>
<g id="a_edge1_Node000001_Node000002"><a xlink:title=" ">
<path fill="none" stroke="#63b8ff" d="M167.97,-110.09C145.86,-101.56 112.46,-88.67 87.41,-79.01"/>
<polygon fill="#63b8ff" stroke="#63b8ff" points="88.9,-75.83 78.31,-75.5 86.38,-82.36 88.9,-75.83"/>
</a>
</g>
</g>
<!-- Node3 -->
<g id="Node000003" class="node">
<title>Node3</title>
<g id="a_Node000003"><a xlink:href="sstypes_8h.html" target="_top" xlink:title=" ">
<polygon fill="white" stroke="#666666" points="220.75,-74.5 162,-74.5 162,-55.25 220.75,-55.25 220.75,-74.5"/>
<text text-anchor="middle" x="191.38" y="-61" font-family="Helvetica,sans-Serif" font-size="10.00">sstypes.h</text>
</a>
</g>
</g>
<!-- Node1&#45;&gt;Node3 -->
<g id="edge2_Node000001_Node000003" class="edge">
<title>Node1&#45;&gt;Node3</title>
<g id="a_edge2_Node000001_Node000003"><a xlink:title=" ">
<path fill="none" stroke="#63b8ff" d="M191.38,-110.33C191.38,-103.82 191.38,-94.67 191.38,-86.37"/>
<polygon fill="#63b8ff" stroke="#63b8ff" points="194.88,-86.37 191.38,-76.37 187.88,-86.37 194.88,-86.37"/>
</a>
</g>
</g>
<!-- Node5 -->
<g id="Node000005" class="node">
<title>Node5</title>
<g id="a_Node000005"><a xlink:title=" ">
<polygon fill="#e0e0e0" stroke="#999999" points="86.38,-19.25 46.38,-19.25 46.38,0 86.38,0 86.38,-19.25"/>
<text text-anchor="middle" x="66.38" y="-5.75" font-family="Helvetica,sans-Serif" font-size="10.00">string</text>
</a>
</g>
</g>
<!-- Node1&#45;&gt;Node5 -->
<g id="edge8_Node000001_Node000005" class="edge">
<title>Node1&#45;&gt;Node5</title>
<g id="a_edge8_Node000001_Node000005"><a xlink:title=" ">
<path fill="none" stroke="#63b8ff" d="M181.15,-110.25C160.18,-92.05 112.05,-50.27 85.25,-27.01"/>
<polygon fill="#63b8ff" stroke="#63b8ff" points="87.73,-24.53 77.89,-20.62 83.15,-29.82 87.73,-24.53"/>
</a>
</g>
</g>
<!-- Node6 -->
<g id="Node000006" class="node">
<title>Node6</title>
<g id="a_Node000006"><a xlink:title=" ">
<polygon fill="#e0e0e0" stroke="#999999" points="346.88,-19.25 303.88,-19.25 303.88,0 346.88,0 346.88,-19.25"/>
<text text-anchor="middle" x="325.38" y="-5.75" font-family="Helvetica,sans-Serif" font-size="10.00">vector</text>
</a>
</g>
</g>
<!-- Node1&#45;&gt;Node6 -->
<g id="edge9_Node000001_Node000006" class="edge">
<title>Node1&#45;&gt;Node6</title>
<g id="a_edge9_Node000001_Node000006"><a xlink:title=" ">
<path fill="none" stroke="#63b8ff" d="M201.58,-110.3C216.06,-97.85 243.47,-74.48 267.38,-55.25 279.47,-45.52 293.24,-34.91 304.32,-26.48"/>
<polygon fill="#63b8ff" stroke="#63b8ff" points="306.2,-29.45 312.05,-20.62 301.97,-23.87 306.2,-29.45"/>
</a>
</g>
</g>
<!-- Node9 -->
<g id="Node000009" class="node">
<title>Node9</title>
<g id="a_Node000009"><a xlink:title=" ">
<polygon fill="#e0e0e0" stroke="#999999" points="310.75,-74.5 276,-74.5 276,-55.25 310.75,-55.25 310.75,-74.5"/>
<text text-anchor="middle" x="293.38" y="-61" font-family="Helvetica,sans-Serif" font-size="10.00">map</text>
</a>
</g>
</g>
<!-- Node1&#45;&gt;Node9 -->
<g id="edge10_Node000001_Node000009" class="edge">
<title>Node1&#45;&gt;Node9</title>
<g id="a_edge10_Node000001_Node000009"><a xlink:title=" ">
<path fill="none" stroke="#63b8ff" d="M208.68,-110.09C224.36,-101.91 247.73,-89.71 265.95,-80.19"/>
<polygon fill="#63b8ff" stroke="#63b8ff" points="267.4,-83.38 274.65,-75.65 264.16,-77.18 267.4,-83.38"/>
</a>
</g>
</g>
<!-- Node4 -->
<g id="Node000004" class="node">
<title>Node4</title>
<g id="a_Node000004"><a xlink:title=" ">
<polygon fill="#e0e0e0" stroke="#999999" points="152.12,-19.25 104.62,-19.25 104.62,0 152.12,0 152.12,-19.25"/>
<text text-anchor="middle" x="128.38" y="-5.75" font-family="Helvetica,sans-Serif" font-size="10.00">stdlib.h</text>
</a>
</g>
</g>
<!-- Node3&#45;&gt;Node4 -->
<g id="edge3_Node000003_Node000004" class="edge">
<title>Node3&#45;&gt;Node4</title>
<g id="a_edge3_Node000003_Node000004"><a xlink:title=" ">
<path fill="none" stroke="#63b8ff" d="M180.69,-54.84C171.67,-47.22 158.54,-36.12 147.69,-26.95"/>
<polygon fill="#63b8ff" stroke="#63b8ff" points="149.96,-24.28 140.06,-20.5 145.44,-29.63 149.96,-24.28"/>
</a>
</g>
</g>
<!-- Node3&#45;&gt;Node5 -->
<g id="edge4_Node000003_Node000005" class="edge">
<title>Node3&#45;&gt;Node5</title>
<g id="a_edge4_Node000003_Node000005"><a xlink:title=" ">
<path fill="none" stroke="#63b8ff" d="M170.17,-54.84C150.18,-46.32 119.98,-33.46 97.3,-23.8"/>
<polygon fill="#63b8ff" stroke="#63b8ff" points="98.82,-20.64 88.24,-19.94 96.07,-27.08 98.82,-20.64"/>
</a>
</g>
</g>
<!-- Node3&#45;&gt;Node6 -->
<g id="edge5_Node000003_Node000006" class="edge">
<title>Node3&#45;&gt;Node6</title>
<g id="a_edge5_Node000003_Node000006"><a xlink:title=" ">
<path fill="none" stroke="#63b8ff" d="M214.11,-54.84C235.73,-46.25 268.5,-33.23 292.88,-23.54"/>
<polygon fill="#63b8ff" stroke="#63b8ff" points="294.02,-26.85 302.02,-19.91 291.43,-20.35 294.02,-26.85"/>
</a>
</g>
</g>
<!-- Node7 -->
<g id="Node000007" class="node">
<title>Node7</title>
<g id="a_Node000007"><a xlink:title=" ">
<polygon fill="#e0e0e0" stroke="#999999" points="212.88,-19.25 169.88,-19.25 169.88,0 212.88,0 212.88,-19.25"/>
<text text-anchor="middle" x="191.38" y="-5.75" font-family="Helvetica,sans-Serif" font-size="10.00">cmath</text>
</a>
</g>
</g>
<!-- Node3&#45;&gt;Node7 -->
<g id="edge6_Node000003_Node000007" class="edge">
<title>Node3&#45;&gt;Node7</title>
<g id="a_edge6_Node000003_Node000007"><a xlink:title=" ">
<path fill="none" stroke="#63b8ff" d="M191.38,-55.08C191.38,-48.57 191.38,-39.42 191.38,-31.12"/>
<polygon fill="#63b8ff" stroke="#63b8ff" points="194.88,-31.12 191.38,-21.12 187.88,-31.12 194.88,-31.12"/>
</a>
</g>
</g>
<!-- Node8 -->
<g id="Node000008" class="node">
<title>Node8</title>
<g id="a_Node000008"><a xlink:title=" ">
<polygon fill="#e0e0e0" stroke="#999999" points="286.25,-19.25 230.5,-19.25 230.5,0 286.25,0 286.25,-19.25"/>
<text text-anchor="middle" x="258.38" y="-5.75" font-family="Helvetica,sans-Serif" font-size="10.00">algorithm</text>
</a>
</g>
</g>
<!-- Node3&#45;&gt;Node8 -->
<g id="edge7_Node000003_Node000008" class="edge">
<title>Node3&#45;&gt;Node8</title>
<g id="a_edge7_Node000003_Node000008"><a xlink:title=" ">
<path fill="none" stroke="#63b8ff" d="M202.74,-54.84C212.42,-47.15 226.57,-35.9 238.18,-26.68"/>
<polygon fill="#63b8ff" stroke="#63b8ff" points="240.34,-29.43 245.99,-20.47 235.99,-23.95 240.34,-29.43"/>
</a>
</g>
</g>
</g>
</svg>
