<?xml version="1.0" encoding="UTF-8" standalone="no"?>
<!DOCTYPE svg PUBLIC "-//W3C//DTD SVG 1.1//EN"
 "http://www.w3.org/Graphics/SVG/1.1/DTD/svg11.dtd">
<!-- Generated by graphviz version 9.0.0 (20230911.1827)
 -->
<!-- Title: Common/Loader/ssarchiver.cpp Pages: 1 -->
<svg width="596pt" height="193pt"
 viewBox="0.00 0.00 596.00 193.00" xmlns="http://www.w3.org/2000/svg" xmlns:xlink="http://www.w3.org/1999/xlink">
<g id="graph0" class="graph" transform="scale(1 1) rotate(0) translate(4 189)">
<title>Common/Loader/ssarchiver.cpp</title>
<!-- Node1 -->
<g id="Node000001" class="node">
<title>Node1</title>
<g id="a_Node000001"><a xlink:title=" ">
<polygon fill="#999999" stroke="#666666" points="411.38,-185 257.38,-185 257.38,-165.75 411.38,-165.75 411.38,-185"/>
<text text-anchor="middle" x="334.38" y="-171.5" font-family="Helvetica,sans-Serif" font-size="10.00">Common/Loader/ssarchiver.cpp</text>
</a>
</g>
</g>
<!-- Node2 -->
<g id="Node000002" class="node">
<title>Node2</title>
<g id="a_Node000002"><a xlink:href="ssarchiver_8h.html" target="_top" xlink:title=" ">
<polygon fill="white" stroke="#666666" points="257.62,-129.75 189.12,-129.75 189.12,-110.5 257.62,-110.5 257.62,-129.75"/>
<text text-anchor="middle" x="223.38" y="-116.25" font-family="Helvetica,sans-Serif" font-size="10.00">ssarchiver.h</text>
</a>
</g>
</g>
<!-- Node1&#45;&gt;Node2 -->
<g id="edge1_Node000001_Node000002" class="edge">
<title>Node1&#45;&gt;Node2</title>
<g id="a_edge1_Node000001_Node000002"><a xlink:title=" ">
<path fill="none" stroke="#63b8ff" d="M315.55,-165.34C298.32,-157.08 272.57,-144.73 252.67,-135.18"/>
<polygon fill="#63b8ff" stroke="#63b8ff" points="254.19,-132.03 243.66,-130.86 251.16,-138.34 254.19,-132.03"/>
</a>
</g>
</g>
<!-- Node11 -->
<g id="Node000011" class="node">
<title>Node11</title>
<g id="a_Node000011"><a xlink:href="ssstring__uty_8h.html" target="_top" xlink:title=" ">
<polygon fill="white" stroke="#666666" points="447.38,-74.5 371.38,-74.5 371.38,-55.25 447.38,-55.25 447.38,-74.5"/>
<text text-anchor="middle" x="409.38" y="-61" font-family="Helvetica,sans-Serif" font-size="10.00">ssstring_uty.h</text>
</a>
</g>
</g>
<!-- Node1&#45;&gt;Node11 -->
<g id="edge12_Node000001_Node000011" class="edge">
<title>Node1&#45;&gt;Node11</title>
<g id="a_edge12_Node000001_Node000011"><a xlink:title=" ">
<path fill="none" stroke="#63b8ff" d="M350.37,-165.39C362.98,-157.53 380.08,-145 390.38,-129.75 399.2,-116.67 404.02,-99.39 406.59,-86.11"/>
<polygon fill="#63b8ff" stroke="#63b8ff" points="410.02,-86.78 408.18,-76.35 403.12,-85.66 410.02,-86.78"/>
</a>
</g>
</g>
<!-- Node16 -->
<g id="Node000016" class="node">
<title>Node16</title>
<g id="a_Node000016"><a xlink:href="sscharconverter_8h.html" target="_top" xlink:title=" ">
<polygon fill="white" stroke="#666666" points="381,-129.75 287.75,-129.75 287.75,-110.5 381,-110.5 381,-129.75"/>
<text text-anchor="middle" x="334.38" y="-116.25" font-family="Helvetica,sans-Serif" font-size="10.00">sscharconverter.h</text>
</a>
</g>
</g>
<!-- Node1&#45;&gt;Node16 -->
<g id="edge19_Node000001_Node000016" class="edge">
<title>Node1&#45;&gt;Node16</title>
<g id="a_edge19_Node000001_Node000016"><a xlink:title=" ">
<path fill="none" stroke="#63b8ff" d="M334.38,-165.58C334.38,-159.07 334.38,-149.92 334.38,-141.62"/>
<polygon fill="#63b8ff" stroke="#63b8ff" points="337.88,-141.62 334.38,-131.62 330.88,-141.62 337.88,-141.62"/>
</a>
</g>
</g>
<!-- Node3 -->
<g id="Node000003" class="node">
<title>Node3</title>
<g id="a_Node000003"><a xlink:title=" ">
<polygon fill="#e0e0e0" stroke="#999999" points="106.75,-74.5 0,-74.5 0,-55.25 106.75,-55.25 106.75,-74.5"/>
<text text-anchor="middle" x="53.38" y="-61" font-family="Helvetica,sans-Serif" font-size="10.00">./tinyxml2/tinyxml2.h</text>
</a>
</g>
</g>
<!-- Node2&#45;&gt;Node3 -->
<g id="edge2_Node000002_Node000003" class="edge">
<title>Node2&#45;&gt;Node3</title>
<g id="a_edge2_Node000002_Node000003"><a xlink:title=" ">
<path fill="none" stroke="#63b8ff" d="M194.54,-110.09C166.7,-101.37 124.3,-88.09 93.24,-78.36"/>
<polygon fill="#63b8ff" stroke="#63b8ff" points="94.39,-75.05 83.8,-75.4 92.3,-81.73 94.39,-75.05"/>
</a>
</g>
</g>
<!-- Node4 -->
<g id="Node000004" class="node">
<title>Node4</title>
<g id="a_Node000004"><a xlink:href="sstypes_8h.html" target="_top" xlink:title=" ">
<polygon fill="white" stroke="#666666" points="183.75,-74.5 125,-74.5 125,-55.25 183.75,-55.25 183.75,-74.5"/>
<text text-anchor="middle" x="154.38" y="-61" font-family="Helvetica,sans-Serif" font-size="10.00">sstypes.h</text>
</a>
</g>
</g>
<!-- Node2&#45;&gt;Node4 -->
<g id="edge3_Node000002_Node000004" class="edge">
<title>Node2&#45;&gt;Node4</title>
<g id="a_edge3_Node000002_Node000004"><a xlink:title=" ">
<path fill="none" stroke="#63b8ff" d="M211.67,-110.09C201.6,-102.32 186.83,-90.92 174.81,-81.65"/>
<polygon fill="#63b8ff" stroke="#63b8ff" points="177.16,-79.04 167.11,-75.7 172.88,-84.58 177.16,-79.04"/>
</a>
</g>
</g>
<!-- Node6 -->
<g id="Node000006" class="node">
<title>Node6</title>
<g id="a_Node000006"><a xlink:title=" ">
<polygon fill="#e0e0e0" stroke="#999999" points="316.38,-19.25 276.38,-19.25 276.38,0 316.38,0 316.38,-19.25"/>
<text text-anchor="middle" x="296.38" y="-5.75" font-family="Helvetica,sans-Serif" font-size="10.00">string</text>
</a>
</g>
</g>
<!-- Node2&#45;&gt;Node6 -->
<g id="edge9_Node000002_Node000006" class="edge">
<title>Node2&#45;&gt;Node6</title>
<g id="a_edge9_Node000002_Node000006"><a xlink:title=" ">
<path fill="none" stroke="#63b8ff" d="M241.37,-110.08C254.74,-102.42 272.33,-90.18 282.38,-74.5 290.73,-61.46 294.15,-44.18 295.53,-30.88"/>
<polygon fill="#63b8ff" stroke="#63b8ff" points="299.01,-31.35 296.21,-21.13 292.02,-30.86 299.01,-31.35"/>
</a>
</g>
</g>
<!-- Node7 -->
<g id="Node000007" class="node">
<title>Node7</title>
<g id="a_Node000007"><a xlink:title=" ">
<polygon fill="#e0e0e0" stroke="#999999" points="247.88,-19.25 204.88,-19.25 204.88,0 247.88,0 247.88,-19.25"/>
<text text-anchor="middle" x="226.38" y="-5.75" font-family="Helvetica,sans-Serif" font-size="10.00">vector</text>
</a>
</g>
</g>
<!-- Node2&#45;&gt;Node7 -->
<g id="edge10_Node000002_Node000007" class="edge">
<title>Node2&#45;&gt;Node7</title>
<g id="a_edge10_Node000002_Node000007"><a xlink:title=" ">
<path fill="none" stroke="#63b8ff" d="M223.62,-110.25C224.1,-93 225.16,-54.58 225.82,-30.81"/>
<polygon fill="#63b8ff" stroke="#63b8ff" points="229.31,-31.23 226.08,-21.14 222.31,-31.04 229.31,-31.23"/>
</a>
</g>
</g>
<!-- Node10 -->
<g id="Node000010" class="node">
<title>Node10</title>
<g id="a_Node000010"><a xlink:title=" ">
<polygon fill="#e0e0e0" stroke="#999999" points="273.75,-74.5 239,-74.5 239,-55.25 273.75,-55.25 273.75,-74.5"/>
<text text-anchor="middle" x="256.38" y="-61" font-family="Helvetica,sans-Serif" font-size="10.00">map</text>
</a>
</g>
</g>
<!-- Node2&#45;&gt;Node10 -->
<g id="edge11_Node000002_Node000010" class="edge">
<title>Node2&#45;&gt;Node10</title>
<g id="a_edge11_Node000002_Node000010"><a xlink:title=" ">
<path fill="none" stroke="#63b8ff" d="M228.82,-110.33C233.15,-103.36 239.34,-93.37 244.76,-84.62"/>
<polygon fill="#63b8ff" stroke="#63b8ff" points="247.72,-86.49 250.01,-76.15 241.77,-82.8 247.72,-86.49"/>
</a>
</g>
</g>
<!-- Node5 -->
<g id="Node000005" class="node">
<title>Node5</title>
<g id="a_Node000005"><a xlink:title=" ">
<polygon fill="#e0e0e0" stroke="#999999" points="53.12,-19.25 5.62,-19.25 5.62,0 53.12,0 53.12,-19.25"/>
<text text-anchor="middle" x="29.38" y="-5.75" font-family="Helvetica,sans-Serif" font-size="10.00">stdlib.h</text>
</a>
</g>
</g>
<!-- Node4&#45;&gt;Node5 -->
<g id="edge4_Node000004_Node000005" class="edge">
<title>Node4&#45;&gt;Node5</title>
<g id="a_edge4_Node000004_Node000005"><a xlink:title=" ">
<path fill="none" stroke="#63b8ff" d="M133.17,-54.84C113.42,-46.43 83.7,-33.77 61.12,-24.15"/>
<polygon fill="#63b8ff" stroke="#63b8ff" points="62.65,-20.99 52.08,-20.3 59.9,-27.43 62.65,-20.99"/>
</a>
</g>
</g>
<!-- Node4&#45;&gt;Node6 -->
<g id="edge5_Node000004_Node000006" class="edge">
<title>Node4&#45;&gt;Node6</title>
<g id="a_edge5_Node000004_Node000006"><a xlink:title=" ">
<path fill="none" stroke="#63b8ff" d="M178.46,-54.84C202.56,-45.81 239.7,-31.88 265.84,-22.07"/>
<polygon fill="#63b8ff" stroke="#63b8ff" points="266.76,-25.47 274.89,-18.68 264.3,-18.92 266.76,-25.47"/>
</a>
</g>
</g>
<!-- Node4&#45;&gt;Node7 -->
<g id="edge6_Node000004_Node000007" class="edge">
<title>Node4&#45;&gt;Node7</title>
<g id="a_edge6_Node000004_Node000007"><a xlink:title=" ">
<path fill="none" stroke="#63b8ff" d="M166.59,-54.84C177.2,-46.99 192.81,-35.45 205.42,-26.12"/>
<polygon fill="#63b8ff" stroke="#63b8ff" points="207.17,-29.19 213.12,-20.42 203,-23.56 207.17,-29.19"/>
</a>
</g>
</g>
<!-- Node8 -->
<g id="Node000008" class="node">
<title>Node8</title>
<g id="a_Node000008"><a xlink:title=" ">
<polygon fill="#e0e0e0" stroke="#999999" points="113.88,-19.25 70.88,-19.25 70.88,0 113.88,0 113.88,-19.25"/>
<text text-anchor="middle" x="92.38" y="-5.75" font-family="Helvetica,sans-Serif" font-size="10.00">cmath</text>
</a>
</g>
</g>
<!-- Node4&#45;&gt;Node8 -->
<g id="edge7_Node000004_Node000008" class="edge">
<title>Node4&#45;&gt;Node8</title>
<g id="a_edge7_Node000004_Node000008"><a xlink:title=" ">
<path fill="none" stroke="#63b8ff" d="M143.86,-54.84C134.99,-47.22 122.06,-36.12 111.39,-26.95"/>
<polygon fill="#63b8ff" stroke="#63b8ff" points="113.75,-24.37 103.89,-20.51 109.19,-29.68 113.75,-24.37"/>
</a>
</g>
</g>
<!-- Node9 -->
<g id="Node000009" class="node">
<title>Node9</title>
<g id="a_Node000009"><a xlink:title=" ">
<polygon fill="#e0e0e0" stroke="#999999" points="187.25,-19.25 131.5,-19.25 131.5,0 187.25,0 187.25,-19.25"/>
<text text-anchor="middle" x="159.38" y="-5.75" font-family="Helvetica,sans-Serif" font-size="10.00">algorithm</text>
</a>
</g>
</g>
<!-- Node4&#45;&gt;Node9 -->
<g id="edge8_Node000004_Node000009" class="edge">
<title>Node4&#45;&gt;Node9</title>
<g id="a_edge8_Node000004_Node000009"><a xlink:title=" ">
<path fill="none" stroke="#63b8ff" d="M155.2,-55.08C155.82,-48.49 156.69,-39.21 157.48,-30.82"/>
<polygon fill="#63b8ff" stroke="#63b8ff" points="160.94,-31.4 158.39,-21.12 153.97,-30.75 160.94,-31.4"/>
</a>
</g>
</g>
<!-- Node11&#45;&gt;Node6 -->
<g id="edge13_Node000011_Node000006" class="edge">
<title>Node11&#45;&gt;Node6</title>
<g id="a_edge13_Node000011_Node000006"><a xlink:title=" ">
<path fill="none" stroke="#63b8ff" d="M390.21,-54.84C372.59,-46.54 346.22,-34.11 325.91,-24.54"/>
<polygon fill="#63b8ff" stroke="#63b8ff" points="327.55,-21.44 317.01,-20.35 324.56,-27.78 327.55,-21.44"/>
</a>
</g>
</g>
<!-- Node11&#45;&gt;Node7 -->
<g id="edge15_Node000011_Node000007" class="edge">
<title>Node11&#45;&gt;Node7</title>
<g id="a_edge15_Node000011_Node000007"><a xlink:title=" ">
<path fill="none" stroke="#63b8ff" d="M378.33,-54.84C345.17,-45.19 292.82,-29.96 259.04,-20.13"/>
<polygon fill="#63b8ff" stroke="#63b8ff" points="260.39,-16.88 249.81,-17.44 258.43,-23.6 260.39,-16.88"/>
</a>
</g>
</g>
<!-- Node12 -->
<g id="Node000012" class="node">
<title>Node12</title>
<g id="a_Node000012"><a xlink:title=" ">
<polygon fill="#e0e0e0" stroke="#999999" points="447.88,-19.25 398.88,-19.25 398.88,0 447.88,0 447.88,-19.25"/>
<text text-anchor="middle" x="423.38" y="-5.75" font-family="Helvetica,sans-Serif" font-size="10.00">fstream</text>
</a>
</g>
</g>
<!-- Node11&#45;&gt;Node12 -->
<g id="edge14_Node000011_Node000012" class="edge">
<title>Node11&#45;&gt;Node12</title>
<g id="a_edge14_Node000011_Node000012"><a xlink:title=" ">
<path fill="none" stroke="#63b8ff" d="M411.69,-55.08C413.44,-48.42 415.92,-38.99 418.14,-30.53"/>
<polygon fill="#63b8ff" stroke="#63b8ff" points="421.47,-31.63 420.63,-21.07 414.7,-29.85 421.47,-31.63"/>
</a>
</g>
</g>
<!-- Node13 -->
<g id="Node000013" class="node">
<title>Node13</title>
<g id="a_Node000013"><a xlink:title=" ">
<polygon fill="#e0e0e0" stroke="#999999" points="519.12,-19.25 465.62,-19.25 465.62,0 519.12,0 519.12,-19.25"/>
<text text-anchor="middle" x="492.38" y="-5.75" font-family="Helvetica,sans-Serif" font-size="10.00">iostream</text>
</a>
</g>
</g>
<!-- Node11&#45;&gt;Node13 -->
<g id="edge16_Node000011_Node000013" class="edge">
<title>Node11&#45;&gt;Node13</title>
<g id="a_edge16_Node000011_Node000013"><a xlink:title=" ">
<path fill="none" stroke="#63b8ff" d="M423.45,-54.84C435.86,-46.89 454.17,-35.14 468.8,-25.75"/>
<polygon fill="#63b8ff" stroke="#63b8ff" points="470.43,-28.87 476.95,-20.52 466.65,-22.97 470.43,-28.87"/>
</a>
</g>
</g>
<!-- Node14 -->
<g id="Node000014" class="node">
<title>Node14</title>
<g id="a_Node000014"><a xlink:title=" ">
<polygon fill="#e0e0e0" stroke="#999999" points="588,-19.25 536.75,-19.25 536.75,0 588,0 588,-19.25"/>
<text text-anchor="middle" x="562.38" y="-5.75" font-family="Helvetica,sans-Serif" font-size="10.00">sstream</text>
</a>
</g>
</g>
<!-- Node11&#45;&gt;Node14 -->
<g id="edge17_Node000011_Node000014" class="edge">
<title>Node11&#45;&gt;Node14</title>
<g id="a_edge17_Node000011_Node000014"><a xlink:title=" ">
<path fill="none" stroke="#63b8ff" d="M435.33,-54.84C460.17,-46.2 497.87,-33.07 525.76,-23.37"/>
<polygon fill="#63b8ff" stroke="#63b8ff" points="526.57,-26.79 534.86,-20.2 524.27,-20.18 526.57,-26.79"/>
</a>
</g>
</g>
<!-- Node15 -->
<g id="Node000015" class="node">
<title>Node15</title>
<g id="a_Node000015"><a xlink:title=" ">
<polygon fill="#e0e0e0" stroke="#999999" points="380.38,-19.25 334.38,-19.25 334.38,0 380.38,0 380.38,-19.25"/>
<text text-anchor="middle" x="357.38" y="-5.75" font-family="Helvetica,sans-Serif" font-size="10.00">iterator</text>
</a>
</g>
</g>
<!-- Node11&#45;&gt;Node15 -->
<g id="edge18_Node000011_Node000015" class="edge">
<title>Node11&#45;&gt;Node15</title>
<g id="a_edge18_Node000011_Node000015"><a xlink:title=" ">
<path fill="none" stroke="#63b8ff" d="M400.79,-55.08C393.53,-47.65 382.92,-36.79 374.01,-27.66"/>
<polygon fill="#63b8ff" stroke="#63b8ff" points="376.7,-25.4 367.21,-20.69 371.69,-30.29 376.7,-25.4"/>
</a>
</g>
</g>
<!-- Node16&#45;&gt;Node6 -->
<g id="edge20_Node000016_Node000006" class="edge">
<title>Node16&#45;&gt;Node6</title>
<g id="a_edge20_Node000016_Node000006"><a xlink:title=" ">
<path fill="none" stroke="#63b8ff" d="M332.1,-110.34C328.81,-97.94 322.36,-74.62 315.38,-55.25 312.38,-46.94 308.65,-37.94 305.29,-30.22"/>
<polygon fill="#63b8ff" stroke="#63b8ff" points="308.5,-28.83 301.23,-21.12 302.1,-31.68 308.5,-28.83"/>
</a>
</g>
</g>
</g>
</svg>
