<?xml version="1.0" encoding="UTF-8" standalone="no"?>
<!DOCTYPE svg PUBLIC "-//W3C//DTD SVG 1.1//EN"
 "http://www.w3.org/Graphics/SVG/1.1/DTD/svg11.dtd">
<!-- Generated by graphviz version 12.2.1 (20241206.2353)
 -->
<!-- Title: Common/Loader/ssattribute.h Pages: 1 -->
<svg width="1507pt" height="482pt"
 viewBox="0.00 0.00 1506.50 481.50" xmlns="http://www.w3.org/2000/svg" xmlns:xlink="http://www.w3.org/1999/xlink">
<g id="graph0" class="graph" transform="scale(1 1) rotate(0) translate(4 477.5)">
<title>Common/Loader/ssattribute.h</title>
<!-- Node1 -->
<g id="Node000001" class="node">
<title>Node1</title>
<g id="a_Node000001"><a xlink:title=" ">
<polygon fill="#999999" stroke="#666666" points="672.25,-473.5 527.25,-473.5 527.25,-454.25 672.25,-454.25 672.25,-473.5"/>
<text text-anchor="middle" x="599.75" y="-460" font-family="Helvetica,sans-Serif" font-size="10.00">Common/Loader/ssattribute.h</text>
</a>
</g>
</g>
<!-- Node2 -->
<g id="Node000002" class="node">
<title>Node2</title>
<g id="a_Node000002"><a xlink:href="ssattribute_8cpp.html" target="_top" xlink:title=" ">
<polygon fill="white" stroke="#666666" points="155.5,-218.75 0,-218.75 0,-199.5 155.5,-199.5 155.5,-218.75"/>
<text text-anchor="middle" x="77.75" y="-205.25" font-family="Helvetica,sans-Serif" font-size="10.00">Common/Loader/ssattribute.cpp</text>
</a>
</g>
</g>
<!-- Node1&#45;&gt;Node2 -->
<g id="edge1_Node000001_Node000002" class="edge">
<title>Node1&#45;&gt;Node2</title>
<g id="a_edge1_Node000001_Node000002"><a xlink:title=" ">
<path fill="none" stroke="#63b8ff" d="M570.88,-448.9C475.86,-402.89 174.48,-256.96 96.38,-219.14"/>
<polygon fill="#63b8ff" stroke="#63b8ff" points="569.28,-452.01 579.81,-453.22 572.33,-445.71 569.28,-452.01"/>
</a>
</g>
</g>
<!-- Node3 -->
<g id="Node000003" class="node">
<title>Node3</title>
<g id="a_Node000003"><a xlink:href="ssloader_8h.html" target="_top" xlink:title=" ">
<polygon fill="white" stroke="#666666" points="731.38,-279.62 596.12,-279.62 596.12,-260.38 731.38,-260.38 731.38,-279.62"/>
<text text-anchor="middle" x="663.75" y="-266.12" font-family="Helvetica,sans-Serif" font-size="10.00">Common/Loader/ssloader.h</text>
</a>
</g>
</g>
<!-- Node1&#45;&gt;Node3 -->
<g id="edge2_Node000001_Node000003" class="edge">
<title>Node1&#45;&gt;Node3</title>
<g id="a_edge2_Node000001_Node000003"><a xlink:title=" ">
<path fill="none" stroke="#63b8ff" d="M605.98,-443.07C614.65,-415.63 630.97,-364.53 645.75,-321.25 650.72,-306.69 656.81,-289.89 660.48,-279.87"/>
<polygon fill="#63b8ff" stroke="#63b8ff" points="602.69,-441.86 603.02,-452.45 609.36,-443.97 602.69,-441.86"/>
</a>
</g>
</g>
<!-- Node22 -->
<g id="Node000022" class="node">
<title>Node22</title>
<g id="a_Node000022"><a xlink:href="ssloader__ssae_8h.html" target="_top" xlink:title=" ">
<polygon fill="white" stroke="#666666" points="839.62,-418.25 711.88,-418.25 711.88,-387.75 839.62,-387.75 839.62,-418.25"/>
<text text-anchor="start" x="719.88" y="-404.75" font-family="Helvetica,sans-Serif" font-size="10.00">Common/Loader/ssloader</text>
<text text-anchor="middle" x="775.75" y="-393.5" font-family="Helvetica,sans-Serif" font-size="10.00">_ssae.h</text>
</a>
</g>
</g>
<!-- Node1&#45;&gt;Node22 -->
<g id="edge39_Node000001_Node000022" class="edge">
<title>Node1&#45;&gt;Node22</title>
<g id="a_edge39_Node000001_Node000022"><a xlink:title=" ">
<path fill="none" stroke="#63b8ff" d="M637.68,-450.19C665.33,-440.94 702.87,-428.38 731.82,-418.69"/>
<polygon fill="#63b8ff" stroke="#63b8ff" points="636.67,-446.83 628.3,-453.32 638.89,-453.47 636.67,-446.83"/>
</a>
</g>
</g>
<!-- Node3&#45;&gt;Node2 -->
<g id="edge38_Node000003_Node000002" class="edge">
<title>Node3&#45;&gt;Node2</title>
<g id="a_edge38_Node000003_Node000002"><a xlink:title=" ">
<path fill="none" stroke="#63b8ff" d="M584.42,-261.03C472.05,-249.74 267.77,-229.22 155.99,-217.99"/>
<polygon fill="#63b8ff" stroke="#63b8ff" points="583.86,-264.49 594.16,-262.01 584.56,-257.53 583.86,-264.49"/>
</a>
</g>
</g>
<!-- Node4 -->
<g id="Node000004" class="node">
<title>Node4</title>
<g id="a_Node000004"><a xlink:href="ssplayer___part_state_8cpp.html" target="_top" xlink:title=" ">
<polygon fill="white" stroke="#666666" points="1498.5,-30.5 1361,-30.5 1361,0 1498.5,0 1498.5,-30.5"/>
<text text-anchor="start" x="1369" y="-17" font-family="Helvetica,sans-Serif" font-size="10.00">Common/Animator/ssplayer</text>
<text text-anchor="middle" x="1429.75" y="-5.75" font-family="Helvetica,sans-Serif" font-size="10.00">_PartState.cpp</text>
</a>
</g>
</g>
<!-- Node3&#45;&gt;Node4 -->
<g id="edge3_Node000003_Node000004" class="edge">
<title>Node3&#45;&gt;Node4</title>
<g id="a_edge3_Node000003_Node000004"><a xlink:title=" ">
<path fill="none" stroke="#63b8ff" d="M730.05,-258.31C739.33,-257 748.77,-255.77 757.75,-254.75 863.6,-242.76 1139.42,-264.22 1235.75,-218.75 1326.89,-175.73 1397.48,-69.88 1421.17,-30.94"/>
<polygon fill="#63b8ff" stroke="#63b8ff" points="729.72,-254.82 720.33,-259.72 730.73,-261.75 729.72,-254.82"/>
</a>
</g>
</g>
<!-- Node5 -->
<g id="Node000005" class="node">
<title>Node5</title>
<g id="a_Node000005"><a xlink:href="ssplayer__animedecode_8cpp.html" target="_top" xlink:title=" ">
<polygon fill="white" stroke="#666666" points="734.5,-30.5 597,-30.5 597,0 734.5,0 734.5,-30.5"/>
<text text-anchor="start" x="605" y="-17" font-family="Helvetica,sans-Serif" font-size="10.00">Common/Animator/ssplayer</text>
<text text-anchor="middle" x="665.75" y="-5.75" font-family="Helvetica,sans-Serif" font-size="10.00">_animedecode.cpp</text>
</a>
</g>
</g>
<!-- Node3&#45;&gt;Node5 -->
<g id="edge4_Node000003_Node000005" class="edge">
<title>Node3&#45;&gt;Node5</title>
<g id="a_edge4_Node000003_Node000005"><a xlink:title=" ">
<path fill="none" stroke="#63b8ff" d="M628.29,-255.23C612.58,-247.14 595.67,-235.22 586.75,-218.75 568.6,-185.24 575.58,-169.44 586.75,-133 599.45,-91.58 632.35,-51.63 651.45,-30.91"/>
<polygon fill="#63b8ff" stroke="#63b8ff" points="626.44,-258.23 636.97,-259.36 629.44,-251.91 626.44,-258.23"/>
</a>
</g>
</g>
<!-- Node6 -->
<g id="Node000006" class="node">
<title>Node6</title>
<g id="a_Node000006"><a xlink:href="ssplayer__animedecode_8h.html" target="_top" xlink:title=" ">
<polygon fill="white" stroke="#666666" points="1003.5,-97 866,-97 866,-66.5 1003.5,-66.5 1003.5,-97"/>
<text text-anchor="start" x="874" y="-83.5" font-family="Helvetica,sans-Serif" font-size="10.00">Common/Animator/ssplayer</text>
<text text-anchor="middle" x="934.75" y="-72.25" font-family="Helvetica,sans-Serif" font-size="10.00">_animedecode.h</text>
</a>
</g>
</g>
<!-- Node3&#45;&gt;Node6 -->
<g id="edge5_Node000003_Node000006" class="edge">
<title>Node3&#45;&gt;Node6</title>
<g id="a_edge5_Node000003_Node000006"><a xlink:title=" ">
<path fill="none" stroke="#63b8ff" d="M731.08,-258.26C740.04,-256.99 749.11,-255.78 757.75,-254.75 803.71,-249.28 1141.47,-252.86 1172.75,-218.75 1229.92,-156.4 1092.96,-115.07 1003.89,-95.63"/>
<polygon fill="#63b8ff" stroke="#63b8ff" points="730.73,-254.78 721.34,-259.68 731.74,-261.7 730.73,-254.78"/>
</a>
</g>
</g>
<!-- Node7 -->
<g id="Node000007" class="node">
<title>Node7</title>
<g id="a_Node000007"><a xlink:href="ssplayer__cellmap_8cpp.html" target="_top" xlink:title=" ">
<polygon fill="white" stroke="#666666" points="1186.5,-30.5 1049,-30.5 1049,0 1186.5,0 1186.5,-30.5"/>
<text text-anchor="start" x="1057" y="-17" font-family="Helvetica,sans-Serif" font-size="10.00">Common/Animator/ssplayer</text>
<text text-anchor="middle" x="1117.75" y="-5.75" font-family="Helvetica,sans-Serif" font-size="10.00">_cellmap.cpp</text>
</a>
</g>
</g>
<!-- Node3&#45;&gt;Node7 -->
<g id="edge15_Node000003_Node000007" class="edge">
<title>Node3&#45;&gt;Node7</title>
<g id="a_edge15_Node000003_Node000007"><a xlink:title=" ">
<path fill="none" stroke="#63b8ff" d="M730.72,-258.28C739.79,-256.99 748.99,-255.78 757.75,-254.75 805.92,-249.11 1159.9,-254.43 1192.75,-218.75 1244.55,-162.48 1166.17,-67.3 1132.19,-30.96"/>
<polygon fill="#63b8ff" stroke="#63b8ff" points="730.23,-254.81 720.83,-259.72 731.23,-261.74 730.23,-254.81"/>
</a>
</g>
</g>
<!-- Node8 -->
<g id="Node000008" class="node">
<title>Node8</title>
<g id="a_Node000008"><a xlink:href="ssplayer__effect_8cpp.html" target="_top" xlink:title=" ">
<polygon fill="white" stroke="#666666" points="266.5,-30.5 129,-30.5 129,0 266.5,0 266.5,-30.5"/>
<text text-anchor="start" x="137" y="-17" font-family="Helvetica,sans-Serif" font-size="10.00">Common/Animator/ssplayer</text>
<text text-anchor="middle" x="197.75" y="-5.75" font-family="Helvetica,sans-Serif" font-size="10.00">_effect.cpp</text>
</a>
</g>
</g>
<!-- Node3&#45;&gt;Node8 -->
<g id="edge16_Node000003_Node000008" class="edge">
<title>Node3&#45;&gt;Node8</title>
<g id="a_edge16_Node000003_Node000008"><a xlink:title=" ">
<path fill="none" stroke="#63b8ff" d="M584.46,-266.77C501.48,-260.29 372.31,-237.87 291.75,-163.5 248.52,-123.59 216.83,-59.6 204.01,-30.95"/>
<polygon fill="#63b8ff" stroke="#63b8ff" points="584.11,-270.26 594.34,-267.48 584.61,-263.27 584.11,-270.26"/>
</a>
</g>
</g>
<!-- Node9 -->
<g id="Node000009" class="node">
<title>Node9</title>
<g id="a_Node000009"><a xlink:href="ssplayer__effect2_8cpp.html" target="_top" xlink:title=" ">
<polygon fill="white" stroke="#666666" points="578.5,-30.5 441,-30.5 441,0 578.5,0 578.5,-30.5"/>
<text text-anchor="start" x="449" y="-17" font-family="Helvetica,sans-Serif" font-size="10.00">Common/Animator/ssplayer</text>
<text text-anchor="middle" x="509.75" y="-5.75" font-family="Helvetica,sans-Serif" font-size="10.00">_effect2.cpp</text>
</a>
</g>
</g>
<!-- Node3&#45;&gt;Node9 -->
<g id="edge26_Node000003_Node000009" class="edge">
<title>Node3&#45;&gt;Node9</title>
<g id="a_edge26_Node000003_Node000009"><a xlink:title=" ">
<path fill="none" stroke="#63b8ff" d="M626.39,-255.46C608.53,-247.29 588.18,-235.23 574.75,-218.75 527.29,-160.5 514.21,-66.9 510.84,-30.96"/>
<polygon fill="#63b8ff" stroke="#63b8ff" points="624.86,-258.61 635.43,-259.34 627.62,-252.18 624.86,-258.61"/>
</a>
</g>
</g>
<!-- Node10 -->
<g id="Node000010" class="node">
<title>Node10</title>
<g id="a_Node000010"><a xlink:href="ssplayer__effectfunction_8cpp.html" target="_top" xlink:title=" ">
<polygon fill="white" stroke="#666666" points="422.5,-30.5 285,-30.5 285,0 422.5,0 422.5,-30.5"/>
<text text-anchor="start" x="293" y="-17" font-family="Helvetica,sans-Serif" font-size="10.00">Common/Animator/ssplayer</text>
<text text-anchor="middle" x="353.75" y="-5.75" font-family="Helvetica,sans-Serif" font-size="10.00">_effectfunction.cpp</text>
</a>
</g>
</g>
<!-- Node3&#45;&gt;Node10 -->
<g id="edge27_Node000003_Node000010" class="edge">
<title>Node3&#45;&gt;Node10</title>
<g id="a_edge27_Node000003_Node000010"><a xlink:title=" ">
<path fill="none" stroke="#63b8ff" d="M588.77,-257.88C518.55,-244.61 413.27,-217.11 336.75,-163.5 295.61,-134.68 255.1,-110.81 278.75,-66.5 287.16,-50.74 302.96,-39.05 317.89,-30.93"/>
<polygon fill="#63b8ff" stroke="#63b8ff" points="587.77,-261.26 598.24,-259.62 589.03,-254.37 587.77,-261.26"/>
</a>
</g>
</g>
<!-- Node11 -->
<g id="Node000011" class="node">
<title>Node11</title>
<g id="a_Node000011"><a xlink:href="ssplayer__mesh_8cpp.html" target="_top" xlink:title=" ">
<polygon fill="white" stroke="#666666" points="1342.5,-30.5 1205,-30.5 1205,0 1342.5,0 1342.5,-30.5"/>
<text text-anchor="start" x="1213" y="-17" font-family="Helvetica,sans-Serif" font-size="10.00">Common/Animator/ssplayer</text>
<text text-anchor="middle" x="1273.75" y="-5.75" font-family="Helvetica,sans-Serif" font-size="10.00">_mesh.cpp</text>
</a>
</g>
</g>
<!-- Node3&#45;&gt;Node11 -->
<g id="edge28_Node000003_Node000011" class="edge">
<title>Node3&#45;&gt;Node11</title>
<g id="a_edge28_Node000003_Node000011"><a xlink:title=" ">
<path fill="none" stroke="#63b8ff" d="M730.71,-258.25C739.79,-256.97 748.99,-255.76 757.75,-254.75 808.13,-248.95 1173.27,-250.58 1212.75,-218.75 1271.63,-171.27 1275.25,-69.08 1274.42,-30.97"/>
<polygon fill="#63b8ff" stroke="#63b8ff" points="730.22,-254.78 720.83,-259.68 731.23,-261.71 730.22,-254.78"/>
</a>
</g>
</g>
<!-- Node14 -->
<g id="Node000014" class="node">
<title>Node14</title>
<g id="a_Node000014"><a xlink:href="ssplayer__effect_8h.html" target="_top" xlink:title=" ">
<polygon fill="white" stroke="#666666" points="483.5,-163.5 346,-163.5 346,-133 483.5,-133 483.5,-163.5"/>
<text text-anchor="start" x="354" y="-150" font-family="Helvetica,sans-Serif" font-size="10.00">Common/Animator/ssplayer</text>
<text text-anchor="middle" x="414.75" y="-138.75" font-family="Helvetica,sans-Serif" font-size="10.00">_effect.h</text>
</a>
</g>
</g>
<!-- Node3&#45;&gt;Node14 -->
<g id="edge17_Node000003_Node000014" class="edge">
<title>Node3&#45;&gt;Node14</title>
<g id="a_edge17_Node000003_Node000014"><a xlink:title=" ">
<path fill="none" stroke="#63b8ff" d="M617.32,-256.82C587.47,-248.12 548.33,-235.1 515.75,-218.75 484.74,-203.19 452.27,-179.27 432.78,-163.94"/>
<polygon fill="#63b8ff" stroke="#63b8ff" points="616.24,-260.15 626.81,-259.52 618.15,-253.41 616.24,-260.15"/>
</a>
</g>
</g>
<!-- Node16 -->
<g id="Node000016" class="node">
<title>Node16</title>
<g id="a_Node000016"><a xlink:href="ssplayer__types_8h.html" target="_top" xlink:title=" ">
<polygon fill="white" stroke="#666666" points="1069.5,-163.5 932,-163.5 932,-133 1069.5,-133 1069.5,-163.5"/>
<text text-anchor="start" x="940" y="-150" font-family="Helvetica,sans-Serif" font-size="10.00">Common/Animator/ssplayer</text>
<text text-anchor="middle" x="1000.75" y="-138.75" font-family="Helvetica,sans-Serif" font-size="10.00">_types.h</text>
</a>
</g>
</g>
<!-- Node3&#45;&gt;Node16 -->
<g id="edge29_Node000003_Node000016" class="edge">
<title>Node3&#45;&gt;Node16</title>
<g id="a_edge29_Node000003_Node000016"><a xlink:title=" ">
<path fill="none" stroke="#63b8ff" d="M686.81,-253.85C714.68,-235.76 760.15,-206.99 778.75,-199.5 806.15,-188.46 877.26,-173.18 931.68,-162.37"/>
<polygon fill="#63b8ff" stroke="#63b8ff" points="685.15,-250.75 678.69,-259.15 688.98,-256.62 685.15,-250.75"/>
</a>
</g>
</g>
<!-- Node17 -->
<g id="Node000017" class="node">
<title>Node17</title>
<g id="a_Node000017"><a xlink:href="ss_helper_8h.html" target="_top" xlink:title=" ">
<polygon fill="white" stroke="#666666" points="732.12,-218.75 595.38,-218.75 595.38,-199.5 732.12,-199.5 732.12,-218.75"/>
<text text-anchor="middle" x="663.75" y="-205.25" font-family="Helvetica,sans-Serif" font-size="10.00">Common/Helper/ssHelper.h</text>
</a>
</g>
</g>
<!-- Node3&#45;&gt;Node17 -->
<g id="edge31_Node000003_Node000017" class="edge">
<title>Node3&#45;&gt;Node17</title>
<g id="a_edge31_Node000003_Node000017"><a xlink:title=" ">
<path fill="none" stroke="#63b8ff" d="M663.75,-248.57C663.75,-238.54 663.75,-226.96 663.75,-219.15"/>
<polygon fill="#63b8ff" stroke="#63b8ff" points="660.25,-248.54 663.75,-258.54 667.25,-248.54 660.25,-248.54"/>
</a>
</g>
</g>
<!-- Node20 -->
<g id="Node000020" class="node">
<title>Node20</title>
<g id="a_Node000020"><a xlink:href="_ss_effect_element_8cpp.html" target="_top" xlink:title=" ">
<polygon fill="white" stroke="#666666" points="971.75,-218.75 787.75,-218.75 787.75,-199.5 971.75,-199.5 971.75,-218.75"/>
<text text-anchor="middle" x="879.75" y="-205.25" font-family="Helvetica,sans-Serif" font-size="10.00">Common/Loader/SsEffectElement.cpp</text>
</a>
</g>
</g>
<!-- Node3&#45;&gt;Node20 -->
<g id="edge36_Node000003_Node000020" class="edge">
<title>Node3&#45;&gt;Node20</title>
<g id="a_edge36_Node000003_Node000020"><a xlink:title=" ">
<path fill="none" stroke="#63b8ff" d="M708.07,-256.92C749.14,-245.73 809.32,-229.32 846.44,-219.21"/>
<polygon fill="#63b8ff" stroke="#63b8ff" points="707.21,-253.53 698.49,-259.53 709.06,-260.28 707.21,-253.53"/>
</a>
</g>
</g>
<!-- Node21 -->
<g id="Node000021" class="node">
<title>Node21</title>
<g id="a_Node000021"><a xlink:href="ss_interpolation_8cpp.html" target="_top" xlink:title=" ">
<polygon fill="white" stroke="#666666" points="1163.5,-218.75 990,-218.75 990,-199.5 1163.5,-199.5 1163.5,-218.75"/>
<text text-anchor="middle" x="1076.75" y="-205.25" font-family="Helvetica,sans-Serif" font-size="10.00">Common/Loader/ssInterpolation.cpp</text>
</a>
</g>
</g>
<!-- Node3&#45;&gt;Node21 -->
<g id="edge37_Node000003_Node000021" class="edge">
<title>Node3&#45;&gt;Node21</title>
<g id="a_edge37_Node000003_Node000021"><a xlink:title=" ">
<path fill="none" stroke="#63b8ff" d="M734.28,-258.22C742.2,-257.03 750.15,-255.86 757.75,-254.75 844.91,-242.05 945.56,-228.08 1010.12,-219.22"/>
<polygon fill="#63b8ff" stroke="#63b8ff" points="734.02,-254.72 724.65,-259.66 735.06,-261.64 734.02,-254.72"/>
</a>
</g>
</g>
<!-- Node6&#45;&gt;Node4 -->
<g id="edge6_Node000006_Node000004" class="edge">
<title>Node6&#45;&gt;Node4</title>
<g id="a_edge6_Node000006_Node000004"><a xlink:title=" ">
<path fill="none" stroke="#63b8ff" d="M1015.18,-72.52C1099.3,-63.58 1235.09,-48.17 1351.75,-30.5 1354.74,-30.05 1357.8,-29.57 1360.88,-29.07"/>
<polygon fill="#63b8ff" stroke="#63b8ff" points="1015,-69.02 1005.42,-73.56 1015.73,-75.99 1015,-69.02"/>
</a>
</g>
</g>
<!-- Node6&#45;&gt;Node5 -->
<g id="edge7_Node000006_Node000005" class="edge">
<title>Node6&#45;&gt;Node5</title>
<g id="a_edge7_Node000006_Node000005"><a xlink:title=" ">
<path fill="none" stroke="#63b8ff" d="M862.29,-63.38C819.94,-53.22 767.09,-40.55 726.86,-30.9"/>
<polygon fill="#63b8ff" stroke="#63b8ff" points="861.36,-66.75 871.9,-65.68 862.99,-59.95 861.36,-66.75"/>
</a>
</g>
</g>
<!-- Node6&#45;&gt;Node7 -->
<g id="edge8_Node000006_Node000007" class="edge">
<title>Node6&#45;&gt;Node7</title>
<g id="a_edge8_Node000006_Node000007"><a xlink:title=" ">
<path fill="none" stroke="#63b8ff" d="M986.78,-62.41C1015.07,-52.44 1049.58,-40.28 1076.07,-30.94"/>
<polygon fill="#63b8ff" stroke="#63b8ff" points="985.97,-58.99 977.7,-65.61 988.3,-65.59 985.97,-58.99"/>
</a>
</g>
</g>
<!-- Node6&#45;&gt;Node8 -->
<g id="edge9_Node000006_Node000008" class="edge">
<title>Node6&#45;&gt;Node8</title>
<g id="a_edge9_Node000006_Node000008"><a xlink:title=" ">
<path fill="none" stroke="#63b8ff" d="M854.44,-77.34C730.05,-71.44 483.49,-57.32 275.75,-30.5 272.75,-30.11 269.68,-29.69 266.59,-29.23"/>
<polygon fill="#63b8ff" stroke="#63b8ff" points="854.06,-80.82 864.21,-77.8 854.39,-73.83 854.06,-80.82"/>
</a>
</g>
</g>
<!-- Node6&#45;&gt;Node9 -->
<g id="edge10_Node000006_Node000009" class="edge">
<title>Node6&#45;&gt;Node9</title>
<g id="a_edge10_Node000006_Node000009"><a xlink:title=" ">
<path fill="none" stroke="#63b8ff" d="M854.51,-69.99C784.1,-60.33 678.98,-45.43 587.75,-30.5 584.76,-30.01 581.71,-29.5 578.63,-28.98"/>
<polygon fill="#63b8ff" stroke="#63b8ff" points="853.62,-73.4 864.01,-71.28 854.57,-66.46 853.62,-73.4"/>
</a>
</g>
</g>
<!-- Node6&#45;&gt;Node10 -->
<g id="edge11_Node000006_Node000010" class="edge">
<title>Node6&#45;&gt;Node10</title>
<g id="a_edge11_Node000006_Node000010"><a xlink:title=" ">
<path fill="none" stroke="#63b8ff" d="M854.33,-74.74C754.82,-66.84 580.33,-51.46 431.75,-30.5 428.75,-30.08 425.69,-29.62 422.6,-29.14"/>
<polygon fill="#63b8ff" stroke="#63b8ff" points="854.04,-78.23 864.28,-75.52 854.59,-71.25 854.04,-78.23"/>
</a>
</g>
</g>
<!-- Node6&#45;&gt;Node11 -->
<g id="edge12_Node000006_Node000011" class="edge">
<title>Node6&#45;&gt;Node11</title>
<g id="a_edge12_Node000006_Node000011"><a xlink:title=" ">
<path fill="none" stroke="#63b8ff" d="M1015.02,-65.48C1072.67,-54.51 1149.59,-39.87 1204.55,-29.42"/>
<polygon fill="#63b8ff" stroke="#63b8ff" points="1014.42,-62.03 1005.25,-67.34 1015.73,-68.91 1014.42,-62.03"/>
</a>
</g>
</g>
<!-- Node12 -->
<g id="Node000012" class="node">
<title>Node12</title>
<g id="a_Node000012"><a xlink:href="ssplayer__render__dx9_8cpp.html" target="_top" xlink:title=" ">
<polygon fill="white" stroke="#666666" points="882.75,-30.5 752.75,-30.5 752.75,0 882.75,0 882.75,-30.5"/>
<text text-anchor="start" x="760.75" y="-17" font-family="Helvetica,sans-Serif" font-size="10.00">Common/Drawer/ssplayer</text>
<text text-anchor="middle" x="817.75" y="-5.75" font-family="Helvetica,sans-Serif" font-size="10.00">_render_dx9.cpp</text>
</a>
</g>
</g>
<!-- Node6&#45;&gt;Node12 -->
<g id="edge13_Node000006_Node000012" class="edge">
<title>Node6&#45;&gt;Node12</title>
<g id="a_edge13_Node000006_Node000012"><a xlink:title=" ">
<path fill="none" stroke="#63b8ff" d="M898.3,-60.66C880.79,-51 860.18,-39.64 844.19,-30.83"/>
<polygon fill="#63b8ff" stroke="#63b8ff" points="896.43,-63.62 906.88,-65.38 899.81,-57.49 896.43,-63.62"/>
</a>
</g>
</g>
<!-- Node13 -->
<g id="Node000013" class="node">
<title>Node13</title>
<g id="a_Node000013"><a xlink:href="ssplayer__render__gl_8cpp.html" target="_top" xlink:title=" ">
<polygon fill="white" stroke="#666666" points="1030.75,-30.5 900.75,-30.5 900.75,0 1030.75,0 1030.75,-30.5"/>
<text text-anchor="start" x="908.75" y="-17" font-family="Helvetica,sans-Serif" font-size="10.00">Common/Drawer/ssplayer</text>
<text text-anchor="middle" x="965.75" y="-5.75" font-family="Helvetica,sans-Serif" font-size="10.00">_render_gl.cpp</text>
</a>
</g>
</g>
<!-- Node6&#45;&gt;Node13 -->
<g id="edge14_Node000006_Node000013" class="edge">
<title>Node6&#45;&gt;Node13</title>
<g id="a_edge14_Node000006_Node000013"><a xlink:title=" ">
<path fill="none" stroke="#63b8ff" d="M946.67,-55.94C950.75,-47.46 955.18,-38.24 958.74,-30.83"/>
<polygon fill="#63b8ff" stroke="#63b8ff" points="943.62,-54.22 942.44,-64.75 949.93,-57.25 943.62,-54.22"/>
</a>
</g>
</g>
<!-- Node14&#45;&gt;Node5 -->
<g id="edge18_Node000014_Node000005" class="edge">
<title>Node14&#45;&gt;Node5</title>
<g id="a_edge18_Node000014_Node000005"><a xlink:title=" ">
<path fill="none" stroke="#63b8ff" d="M447.56,-126.88C475.39,-109.93 516.6,-85.56 553.75,-66.5 578.97,-53.56 608.21,-40.5 630.5,-30.94"/>
<polygon fill="#63b8ff" stroke="#63b8ff" points="445.93,-123.77 439.23,-131.98 449.59,-129.74 445.93,-123.77"/>
</a>
</g>
</g>
<!-- Node14&#45;&gt;Node8 -->
<g id="edge19_Node000014_Node000008" class="edge">
<title>Node14&#45;&gt;Node8</title>
<g id="a_edge19_Node000014_Node000008"><a xlink:title=" ">
<path fill="none" stroke="#63b8ff" d="M347.92,-128.95C324.98,-121.04 299.8,-110.46 278.75,-97 250.14,-78.71 223.61,-48.82 209.15,-31"/>
<polygon fill="#63b8ff" stroke="#63b8ff" points="346.59,-132.19 357.18,-132.02 348.8,-125.55 346.59,-132.19"/>
</a>
</g>
</g>
<!-- Node14&#45;&gt;Node10 -->
<g id="edge21_Node000014_Node000010" class="edge">
<title>Node14&#45;&gt;Node10</title>
<g id="a_edge21_Node000014_Node000010"><a xlink:title=" ">
<path fill="none" stroke="#63b8ff" d="M429.79,-122.63C437.89,-105.96 444.43,-83.89 434.75,-66.5 425.82,-50.45 409.4,-38.87 393.67,-30.9"/>
<polygon fill="#63b8ff" stroke="#63b8ff" points="426.75,-120.9 425.11,-131.37 432.92,-124.2 426.75,-120.9"/>
</a>
</g>
</g>
<!-- Node14&#45;&gt;Node14 -->
<g id="edge20_Node000014_Node000014" class="edge">
<title>Node14&#45;&gt;Node14</title>
<g id="a_edge20_Node000014_Node000014"><a xlink:title=" ">
<path fill="none" stroke="#63b8ff" d="M494.73,-155.79C498.98,-153.94 501.5,-151.43 501.5,-148.25 501.5,-142.9 494.35,-139.43 483.83,-137.84"/>
<polygon fill="#63b8ff" stroke="#63b8ff" points="494.07,-152.35 485.29,-158.27 495.85,-159.11 494.07,-152.35"/>
</a>
</g>
</g>
<!-- Node15 -->
<g id="Node000015" class="node">
<title>Node15</title>
<g id="a_Node000015"><a xlink:href="ssplayer__effectfunction_8h.html" target="_top" xlink:title=" ">
<polygon fill="white" stroke="#666666" points="425.5,-97 288,-97 288,-66.5 425.5,-66.5 425.5,-97"/>
<text text-anchor="start" x="296" y="-83.5" font-family="Helvetica,sans-Serif" font-size="10.00">Common/Animator/ssplayer</text>
<text text-anchor="middle" x="356.75" y="-72.25" font-family="Helvetica,sans-Serif" font-size="10.00">_effectfunction.h</text>
</a>
</g>
</g>
<!-- Node14&#45;&gt;Node15 -->
<g id="edge22_Node000014_Node000015" class="edge">
<title>Node14&#45;&gt;Node15</title>
<g id="a_edge22_Node000014_Node000015"><a xlink:title=" ">
<path fill="none" stroke="#63b8ff" d="M393.96,-124.13C385.92,-115.19 376.97,-105.24 369.86,-97.33"/>
<polygon fill="#63b8ff" stroke="#63b8ff" points="391.29,-126.39 400.58,-131.49 396.49,-121.71 391.29,-126.39"/>
</a>
</g>
</g>
<!-- Node15&#45;&gt;Node8 -->
<g id="edge23_Node000015_Node000008" class="edge">
<title>Node15&#45;&gt;Node8</title>
<g id="a_edge23_Node000015_Node000008"><a xlink:title=" ">
<path fill="none" stroke="#63b8ff" d="M310.24,-61.88C285.91,-52.01 256.58,-40.11 233.96,-30.94"/>
<polygon fill="#63b8ff" stroke="#63b8ff" points="308.69,-65.03 319.27,-65.54 311.32,-58.54 308.69,-65.03"/>
</a>
</g>
</g>
<!-- Node15&#45;&gt;Node9 -->
<g id="edge24_Node000015_Node000009" class="edge">
<title>Node15&#45;&gt;Node9</title>
<g id="a_edge24_Node000015_Node000009"><a xlink:title=" ">
<path fill="none" stroke="#63b8ff" d="M401.82,-61.75C425.17,-51.91 453.24,-40.07 474.9,-30.94"/>
<polygon fill="#63b8ff" stroke="#63b8ff" points="400.72,-58.42 392.86,-65.53 403.44,-64.87 400.72,-58.42"/>
</a>
</g>
</g>
<!-- Node15&#45;&gt;Node10 -->
<g id="edge25_Node000015_Node000010" class="edge">
<title>Node15&#45;&gt;Node10</title>
<g id="a_edge25_Node000015_Node000010"><a xlink:title=" ">
<path fill="none" stroke="#63b8ff" d="M355.54,-54.81C355.16,-46.64 354.76,-37.91 354.43,-30.83"/>
<polygon fill="#63b8ff" stroke="#63b8ff" points="352.04,-54.78 356,-64.6 359.03,-54.45 352.04,-54.78"/>
</a>
</g>
</g>
<!-- Node16&#45;&gt;Node6 -->
<g id="edge30_Node000016_Node000006" class="edge">
<title>Node16&#45;&gt;Node6</title>
<g id="a_edge30_Node000016_Node000006"><a xlink:title=" ">
<path fill="none" stroke="#63b8ff" d="M977.66,-124.69C968.37,-115.61 957.93,-105.4 949.67,-97.33"/>
<polygon fill="#63b8ff" stroke="#63b8ff" points="975.09,-127.07 984.69,-131.56 979.99,-122.06 975.09,-127.07"/>
</a>
</g>
</g>
<!-- Node17&#45;&gt;Node6 -->
<g id="edge32_Node000017_Node000006" class="edge">
<title>Node17&#45;&gt;Node6</title>
<g id="a_edge32_Node000017_Node000006"><a xlink:title=" ">
<path fill="none" stroke="#63b8ff" d="M743.79,-198.74C797.38,-191.19 862.1,-179.26 884.75,-163.5 908.3,-147.12 922.94,-115.7 929.9,-97.25"/>
<polygon fill="#63b8ff" stroke="#63b8ff" points="743.47,-195.25 734.04,-200.07 744.43,-202.18 743.47,-195.25"/>
</a>
</g>
</g>
<!-- Node17&#45;&gt;Node16 -->
<g id="edge33_Node000017_Node000016" class="edge">
<title>Node17&#45;&gt;Node16</title>
<g id="a_edge33_Node000017_Node000016"><a xlink:title=" ">
<path fill="none" stroke="#63b8ff" d="M726.93,-197.09C785.17,-186.91 871.44,-171.84 931.53,-161.34"/>
<polygon fill="#63b8ff" stroke="#63b8ff" points="726.41,-193.63 717.16,-198.79 727.61,-200.52 726.41,-193.63"/>
</a>
</g>
</g>
<!-- Node18 -->
<g id="Node000018" class="node">
<title>Node18</title>
<g id="a_Node000018"><a xlink:href="_s_s_texture_d_x9_8cpp.html" target="_top" xlink:title=" ">
<polygon fill="white" stroke="#666666" points="875.38,-163.5 752.12,-163.5 752.12,-133 875.38,-133 875.38,-163.5"/>
<text text-anchor="start" x="760.12" y="-150" font-family="Helvetica,sans-Serif" font-size="10.00">Common/Helper/DirectX</text>
<text text-anchor="middle" x="813.75" y="-138.75" font-family="Helvetica,sans-Serif" font-size="10.00">/SSTextureDX9.cpp</text>
</a>
</g>
</g>
<!-- Node17&#45;&gt;Node18 -->
<g id="edge34_Node000017_Node000018" class="edge">
<title>Node17&#45;&gt;Node18</title>
<g id="a_edge34_Node000017_Node000018"><a xlink:title=" ">
<path fill="none" stroke="#63b8ff" d="M697.34,-194.94C720.78,-185.74 752.07,-173.46 776.31,-163.94"/>
<polygon fill="#63b8ff" stroke="#63b8ff" points="696.3,-191.59 688.27,-198.5 698.86,-198.11 696.3,-191.59"/>
</a>
</g>
</g>
<!-- Node19 -->
<g id="Node000019" class="node">
<title>Node19</title>
<g id="a_Node000019"><a xlink:href="ssh_texture_b_m_p_8cpp.html" target="_top" xlink:title=" ">
<polygon fill="white" stroke="#666666" points="733.88,-163.5 595.62,-163.5 595.62,-133 733.88,-133 733.88,-163.5"/>
<text text-anchor="start" x="603.62" y="-150" font-family="Helvetica,sans-Serif" font-size="10.00">Common/Helper/sshTexture</text>
<text text-anchor="middle" x="664.75" y="-138.75" font-family="Helvetica,sans-Serif" font-size="10.00">BMP.cpp</text>
</a>
</g>
</g>
<!-- Node17&#45;&gt;Node19 -->
<g id="edge35_Node000017_Node000019" class="edge">
<title>Node17&#45;&gt;Node19</title>
<g id="a_edge35_Node000017_Node000019"><a xlink:title=" ">
<path fill="none" stroke="#63b8ff" d="M664.09,-187.92C664.23,-179.99 664.38,-171.06 664.5,-163.78"/>
<polygon fill="#63b8ff" stroke="#63b8ff" points="660.6,-187.61 663.93,-197.67 667.6,-187.73 660.6,-187.61"/>
</a>
</g>
</g>
<!-- Node22&#45;&gt;Node3 -->
<g id="edge40_Node000022_Node000003" class="edge">
<title>Node22&#45;&gt;Node3</title>
<g id="a_edge40_Node000022_Node000003"><a xlink:title=" ">
<path fill="none" stroke="#63b8ff" d="M701.15,-385.8C683.72,-378.37 667.22,-367.53 656.75,-351.75 641.97,-329.47 652.99,-295.78 659.65,-279.89"/>
<polygon fill="#63b8ff" stroke="#63b8ff" points="699.47,-388.91 710.06,-389.26 702,-382.38 699.47,-388.91"/>
</a>
</g>
</g>
<!-- Node23 -->
<g id="Node000023" class="node">
<title>Node23</title>
<g id="a_Node000023"><a xlink:href="ssloader__ssae_8cpp.html" target="_top" xlink:title=" ">
<polygon fill="white" stroke="#666666" points="793.62,-351.75 665.88,-351.75 665.88,-321.25 793.62,-321.25 793.62,-351.75"/>
<text text-anchor="start" x="673.88" y="-338.25" font-family="Helvetica,sans-Serif" font-size="10.00">Common/Loader/ssloader</text>
<text text-anchor="middle" x="729.75" y="-327" font-family="Helvetica,sans-Serif" font-size="10.00">_ssae.cpp</text>
</a>
</g>
</g>
<!-- Node22&#45;&gt;Node23 -->
<g id="edge41_Node000022_Node000023" class="edge">
<title>Node22&#45;&gt;Node23</title>
<g id="a_edge41_Node000022_Node000023"><a xlink:title=" ">
<path fill="none" stroke="#63b8ff" d="M758.66,-378.04C752.44,-369.32 745.61,-359.74 740.15,-352.08"/>
<polygon fill="#63b8ff" stroke="#63b8ff" points="755.78,-380.02 764.43,-386.13 761.48,-375.96 755.78,-380.02"/>
</a>
</g>
</g>
<!-- Node24 -->
<g id="Node000024" class="node">
<title>Node24</title>
<g id="a_Node000024"><a xlink:href="ssloader__ssee_8cpp.html" target="_top" xlink:title=" ">
<polygon fill="white" stroke="#666666" points="894.62,-285.25 766.88,-285.25 766.88,-254.75 894.62,-254.75 894.62,-285.25"/>
<text text-anchor="start" x="774.88" y="-271.75" font-family="Helvetica,sans-Serif" font-size="10.00">Common/Loader/ssloader</text>
<text text-anchor="middle" x="830.75" y="-260.5" font-family="Helvetica,sans-Serif" font-size="10.00">_ssee.cpp</text>
</a>
</g>
</g>
<!-- Node22&#45;&gt;Node24 -->
<g id="edge42_Node000022_Node000024" class="edge">
<title>Node22&#45;&gt;Node24</title>
<g id="a_edge42_Node000022_Node000024"><a xlink:title=" ">
<path fill="none" stroke="#63b8ff" d="M789.93,-377.49C794.32,-369.42 798.99,-360.33 802.75,-351.75 812.65,-329.19 821.48,-301.94 826.47,-285.56"/>
<polygon fill="#63b8ff" stroke="#63b8ff" points="786.98,-375.6 785.16,-386.04 793.09,-379.01 786.98,-375.6"/>
</a>
</g>
</g>
<!-- Node25 -->
<g id="Node000025" class="node">
<title>Node25</title>
<g id="a_Node000025"><a xlink:href="ssloader__sspj_8cpp.html" target="_top" xlink:title=" ">
<polygon fill="white" stroke="#666666" points="1059.62,-285.25 931.88,-285.25 931.88,-254.75 1059.62,-254.75 1059.62,-285.25"/>
<text text-anchor="start" x="939.88" y="-271.75" font-family="Helvetica,sans-Serif" font-size="10.00">Common/Loader/ssloader</text>
<text text-anchor="middle" x="995.75" y="-260.5" font-family="Helvetica,sans-Serif" font-size="10.00">_sspj.cpp</text>
</a>
</g>
</g>
<!-- Node22&#45;&gt;Node25 -->
<g id="edge43_Node000022_Node000025" class="edge">
<title>Node22&#45;&gt;Node25</title>
<g id="a_edge43_Node000022_Node000025"><a xlink:title=" ">
<path fill="none" stroke="#63b8ff" d="M850.99,-393.26C904.06,-385.47 968.76,-372.1 986.75,-351.75 1002.82,-333.57 1001.36,-303.37 998.67,-285.51"/>
<polygon fill="#63b8ff" stroke="#63b8ff" points="850.78,-389.76 841.37,-394.63 851.76,-396.69 850.78,-389.76"/>
</a>
</g>
</g>
<!-- Node26 -->
<g id="Node000026" class="node">
<title>Node26</title>
<g id="a_Node000026"><a xlink:href="ssloader__sspj_8h.html" target="_top" xlink:title=" ">
<polygon fill="white" stroke="#666666" points="977.62,-351.75 849.88,-351.75 849.88,-321.25 977.62,-321.25 977.62,-351.75"/>
<text text-anchor="start" x="857.88" y="-338.25" font-family="Helvetica,sans-Serif" font-size="10.00">Common/Loader/ssloader</text>
<text text-anchor="middle" x="913.75" y="-327" font-family="Helvetica,sans-Serif" font-size="10.00">_sspj.h</text>
</a>
</g>
</g>
<!-- Node22&#45;&gt;Node26 -->
<g id="edge44_Node000022_Node000026" class="edge">
<title>Node22&#45;&gt;Node26</title>
<g id="a_edge44_Node000022_Node000026"><a xlink:title=" ">
<path fill="none" stroke="#63b8ff" d="M817.3,-382.58C838.26,-372.78 863.26,-361.1 882.56,-352.08"/>
<polygon fill="#63b8ff" stroke="#63b8ff" points="816.01,-379.32 808.44,-386.72 818.98,-385.66 816.01,-379.32"/>
</a>
</g>
</g>
<!-- Node26&#45;&gt;Node3 -->
<g id="edge45_Node000026_Node000003" class="edge">
<title>Node26&#45;&gt;Node3</title>
<g id="a_edge45_Node000026_Node000003"><a xlink:title=" ">
<path fill="none" stroke="#63b8ff" d="M845.59,-317.91C798.17,-305.68 736.87,-289.87 698.95,-280.08"/>
<polygon fill="#63b8ff" stroke="#63b8ff" points="844.69,-321.3 855.24,-320.41 846.43,-314.52 844.69,-321.3"/>
</a>
</g>
</g>
<!-- Node26&#45;&gt;Node24 -->
<g id="edge46_Node000026_Node000024" class="edge">
<title>Node26&#45;&gt;Node24</title>
<g id="a_edge46_Node000026_Node000024"><a xlink:title=" ">
<path fill="none" stroke="#63b8ff" d="M886.14,-314.04C874.11,-304.69 860.32,-293.98 849.51,-285.58"/>
<polygon fill="#63b8ff" stroke="#63b8ff" points="883.68,-316.56 893.72,-319.94 887.97,-311.04 883.68,-316.56"/>
</a>
</g>
</g>
<!-- Node26&#45;&gt;Node25 -->
<g id="edge47_Node000026_Node000025" class="edge">
<title>Node26&#45;&gt;Node25</title>
<g id="a_edge47_Node000026_Node000025"><a xlink:title=" ">
<path fill="none" stroke="#63b8ff" d="M941.38,-313.77C953.18,-304.48 966.64,-293.9 977.22,-285.58"/>
<polygon fill="#63b8ff" stroke="#63b8ff" points="939.24,-310.99 933.55,-319.93 943.57,-316.5 939.24,-310.99"/>
</a>
</g>
</g>
</g>
</svg>
