<?xml version="1.0" encoding="UTF-8" standalone="no"?>
<!DOCTYPE svg PUBLIC "-//W3C//DTD SVG 1.1//EN"
 "http://www.w3.org/Graphics/SVG/1.1/DTD/svg11.dtd">
<!-- Generated by graphviz version 10.0.1 (20240210.2158)
 -->
<!-- Title: Common/Loader/ssattribute.cpp Pages: 1 -->
<svg width="1268pt" height="469pt"
 viewBox="0.00 0.00 1268.00 469.25" xmlns="http://www.w3.org/2000/svg" xmlns:xlink="http://www.w3.org/1999/xlink">
<g id="graph0" class="graph" transform="scale(1 1) rotate(0) translate(4 465.25)">
<title>Common/Loader/ssattribute.cpp</title>
<!-- Node1 -->
<g id="Node000001" class="node">
<title>Node1</title>
<g id="a_Node000001"><a xlink:title=" ">
<polygon fill="#999999" stroke="#666666" points="267.75,-461.25 112.25,-461.25 112.25,-442 267.75,-442 267.75,-461.25"/>
<text text-anchor="middle" x="190" y="-447.75" font-family="Helvetica,sans-Serif" font-size="10.00">Common/Loader/ssattribute.cpp</text>
</a>
</g>
</g>
<!-- Node2 -->
<g id="Node000002" class="node">
<title>Node2</title>
<g id="a_Node000002"><a xlink:href="ssloader_8h.html" target="_top" xlink:title=" ">
<polygon fill="white" stroke="#666666" points="351.12,-406 290.88,-406 290.88,-386.75 351.12,-386.75 351.12,-406"/>
<text text-anchor="middle" x="321" y="-392.5" font-family="Helvetica,sans-Serif" font-size="10.00">ssloader.h</text>
</a>
</g>
</g>
<!-- Node1&#45;&gt;Node2 -->
<g id="edge1_Node000001_Node000002" class="edge">
<title>Node1&#45;&gt;Node2</title>
<g id="a_edge1_Node000001_Node000002"><a xlink:title=" ">
<path fill="none" stroke="#63b8ff" d="M212.22,-441.59C233.02,-433.14 264.35,-420.4 288.05,-410.77"/>
<polygon fill="#63b8ff" stroke="#63b8ff" points="289.32,-414.03 297.27,-407.02 286.68,-407.55 289.32,-414.03"/>
</a>
</g>
</g>
<!-- Node3 -->
<g id="Node000003" class="node">
<title>Node3</title>
<g id="a_Node000003"><a xlink:href="sstypes_8h.html" target="_top" xlink:title=" ">
<polygon fill="white" stroke="#666666" points="447.38,-74.5 388.62,-74.5 388.62,-55.25 447.38,-55.25 447.38,-74.5"/>
<text text-anchor="middle" x="418" y="-61" font-family="Helvetica,sans-Serif" font-size="10.00">sstypes.h</text>
</a>
</g>
</g>
<!-- Node1&#45;&gt;Node3 -->
<g id="edge63_Node000001_Node000003" class="edge">
<title>Node1&#45;&gt;Node3</title>
<g id="a_edge63_Node000001_Node000003"><a xlink:title=" ">
<path fill="none" stroke="#63b8ff" d="M128.05,-441.54C72.6,-429.49 0,-402.24 0,-342.12 0,-342.12 0,-342.12 0,-174.38 0,-130.93 34.34,-128.24 74,-110.5 127.34,-86.65 297.45,-73.32 376.67,-68.26"/>
<polygon fill="#63b8ff" stroke="#63b8ff" points="376.85,-71.76 386.62,-67.64 376.42,-64.77 376.85,-71.76"/>
</a>
</g>
</g>
<!-- Node12 -->
<g id="Node000012" class="node">
<title>Node12</title>
<g id="a_Node000012"><a xlink:href="ssattribute_8h.html" target="_top" xlink:title=" ">
<polygon fill="white" stroke="#666666" points="213,-240.25 143,-240.25 143,-221 213,-221 213,-240.25"/>
<text text-anchor="middle" x="178" y="-226.75" font-family="Helvetica,sans-Serif" font-size="10.00">ssattribute.h</text>
</a>
</g>
</g>
<!-- Node1&#45;&gt;Node12 -->
<g id="edge64_Node000001_Node000012" class="edge">
<title>Node1&#45;&gt;Node12</title>
<g id="a_edge64_Node000001_Node000012"><a xlink:title=" ">
<path fill="none" stroke="#63b8ff" d="M187.18,-441.56C179.51,-415.74 159.31,-339.6 167,-276.25 167.99,-268.13 169.94,-259.37 171.94,-251.77"/>
<polygon fill="#63b8ff" stroke="#63b8ff" points="175.29,-252.77 174.65,-242.19 168.56,-250.86 175.29,-252.77"/>
</a>
</g>
</g>
<!-- Node31 -->
<g id="Node000031" class="node">
<title>Node31</title>
<g id="a_Node000031"><a xlink:href="_debug_print_8h.html" target="_top" xlink:title=" ">
<polygon fill="white" stroke="#666666" points="1248.75,-350.75 1135.25,-350.75 1135.25,-331.5 1248.75,-331.5 1248.75,-350.75"/>
<text text-anchor="middle" x="1192" y="-337.25" font-family="Helvetica,sans-Serif" font-size="10.00">../Helper/DebugPrint.h</text>
</a>
</g>
</g>
<!-- Node1&#45;&gt;Node31 -->
<g id="edge65_Node000001_Node000031" class="edge">
<title>Node1&#45;&gt;Node31</title>
<g id="a_edge65_Node000001_Node000031"><a xlink:title=" ">
<path fill="none" stroke="#63b8ff" d="M268.21,-442.16C458.62,-421.54 943.85,-369 1123.63,-349.53"/>
<polygon fill="#63b8ff" stroke="#63b8ff" points="1123.95,-353.01 1133.52,-348.46 1123.2,-346.05 1123.95,-353.01"/>
</a>
</g>
</g>
<!-- Node2&#45;&gt;Node3 -->
<g id="edge2_Node000002_Node000003" class="edge">
<title>Node2&#45;&gt;Node3</title>
<g id="a_edge2_Node000002_Node000003"><a xlink:title=" ">
<path fill="none" stroke="#63b8ff" d="M290.45,-392.15C217.27,-382.56 38,-347.28 38,-231.62 38,-231.62 38,-231.62 38,-174.38 38,-104.49 278.64,-77.12 376.93,-68.86"/>
<polygon fill="#63b8ff" stroke="#63b8ff" points="376.99,-72.36 386.67,-68.07 376.42,-65.39 376.99,-72.36"/>
</a>
</g>
</g>
<!-- Node9 -->
<g id="Node000009" class="node">
<title>Node9</title>
<g id="a_Node000009"><a xlink:href="ssarchiver_8h.html" target="_top" xlink:title=" ">
<polygon fill="white" stroke="#666666" points="814.25,-129.75 745.75,-129.75 745.75,-110.5 814.25,-110.5 814.25,-129.75"/>
<text text-anchor="middle" x="780" y="-116.25" font-family="Helvetica,sans-Serif" font-size="10.00">ssarchiver.h</text>
</a>
</g>
</g>
<!-- Node2&#45;&gt;Node9 -->
<g id="edge8_Node000002_Node000009" class="edge">
<title>Node2&#45;&gt;Node9</title>
<g id="a_edge8_Node000002_Node000009"><a xlink:title=" ">
<path fill="none" stroke="#63b8ff" d="M351.53,-393.28C467.92,-384.51 880.37,-346.21 940,-240.25 956.24,-211.39 960.02,-192.12 940,-165.75 926.14,-147.5 867.83,-134.71 825.59,-127.64"/>
<polygon fill="#63b8ff" stroke="#63b8ff" points="826.35,-124.21 815.92,-126.07 825.24,-131.12 826.35,-124.21"/>
</a>
</g>
</g>
<!-- Node2&#45;&gt;Node12 -->
<g id="edge14_Node000002_Node000012" class="edge">
<title>Node2&#45;&gt;Node12</title>
<g id="a_edge14_Node000002_Node000012"><a xlink:title=" ">
<path fill="none" stroke="#63b8ff" d="M295.46,-386.34C261.25,-372.69 201.97,-343.21 177,-295.5 169.98,-282.1 170.73,-264.84 172.96,-251.65"/>
<polygon fill="#63b8ff" stroke="#63b8ff" points="176.36,-252.49 175.02,-241.97 169.51,-251.02 176.36,-252.49"/>
</a>
</g>
</g>
<!-- Node20 -->
<g id="Node000020" class="node">
<title>Node20</title>
<g id="a_Node000020"><a xlink:href="ss_interpolation_8h.html" target="_top" xlink:title=" ">
<polygon fill="white" stroke="#666666" points="314,-185 226,-185 226,-165.75 314,-165.75 314,-185"/>
<text text-anchor="middle" x="270" y="-171.5" font-family="Helvetica,sans-Serif" font-size="10.00">ssInterpolation.h</text>
</a>
</g>
</g>
<!-- Node2&#45;&gt;Node20 -->
<g id="edge62_Node000002_Node000020" class="edge">
<title>Node2&#45;&gt;Node20</title>
<g id="a_edge62_Node000002_Node000020"><a xlink:title=" ">
<path fill="none" stroke="#63b8ff" d="M318.94,-386.52C311.41,-354.19 285.29,-242.03 274.61,-196.16"/>
<polygon fill="#63b8ff" stroke="#63b8ff" points="278.05,-195.52 272.38,-186.58 271.23,-197.11 278.05,-195.52"/>
</a>
</g>
</g>
<!-- Node22 -->
<g id="Node000022" class="node">
<title>Node22</title>
<g id="a_Node000022"><a xlink:href="ssloader__sspj_8h.html" target="_top" xlink:title=" ">
<polygon fill="white" stroke="#666666" points="542.12,-350.75 457.88,-350.75 457.88,-331.5 542.12,-331.5 542.12,-350.75"/>
<text text-anchor="middle" x="500" y="-337.25" font-family="Helvetica,sans-Serif" font-size="10.00">ssloader_sspj.h</text>
</a>
</g>
</g>
<!-- Node2&#45;&gt;Node22 -->
<g id="edge31_Node000002_Node000022" class="edge">
<title>Node2&#45;&gt;Node22</title>
<g id="a_edge31_Node000002_Node000022"><a xlink:title=" ">
<path fill="none" stroke="#63b8ff" d="M351.36,-386.34C380.81,-377.58 425.71,-364.23 458.46,-354.48"/>
<polygon fill="#63b8ff" stroke="#63b8ff" points="459.45,-357.84 468.04,-351.63 457.45,-351.13 459.45,-357.84"/>
</a>
</g>
</g>
<!-- Node23 -->
<g id="Node000023" class="node">
<title>Node23</title>
<g id="a_Node000023"><a xlink:href="ssloader__ssae_8h.html" target="_top" xlink:title=" ">
<polygon fill="white" stroke="#666666" points="273.62,-295.5 186.38,-295.5 186.38,-276.25 273.62,-276.25 273.62,-295.5"/>
<text text-anchor="middle" x="230" y="-282" font-family="Helvetica,sans-Serif" font-size="10.00">ssloader_ssae.h</text>
</a>
</g>
</g>
<!-- Node2&#45;&gt;Node23 -->
<g id="edge58_Node000002_Node000023" class="edge">
<title>Node2&#45;&gt;Node23</title>
<g id="a_edge58_Node000002_Node000023"><a xlink:title=" ">
<path fill="none" stroke="#63b8ff" d="M313.55,-386.5C298.56,-368.61 264.47,-327.97 244.78,-304.5"/>
<polygon fill="#63b8ff" stroke="#63b8ff" points="247.63,-302.45 238.52,-297.04 242.27,-306.95 247.63,-302.45"/>
</a>
</g>
</g>
<!-- Node24 -->
<g id="Node000024" class="node">
<title>Node24</title>
<g id="a_Node000024"><a xlink:href="ssloader__ssce_8h.html" target="_top" xlink:title=" ">
<polygon fill="white" stroke="#666666" points="562.62,-240.25 475.38,-240.25 475.38,-221 562.62,-221 562.62,-240.25"/>
<text text-anchor="middle" x="519" y="-226.75" font-family="Helvetica,sans-Serif" font-size="10.00">ssloader_ssce.h</text>
</a>
</g>
</g>
<!-- Node2&#45;&gt;Node24 -->
<g id="edge59_Node000002_Node000024" class="edge">
<title>Node2&#45;&gt;Node24</title>
<g id="a_edge59_Node000002_Node000024"><a xlink:title=" ">
<path fill="none" stroke="#63b8ff" d="M351.39,-394.1C407.98,-391.02 526.03,-381.03 551,-350.75 575.31,-321.27 550.19,-275.02 532.73,-249.69"/>
<polygon fill="#63b8ff" stroke="#63b8ff" points="535.68,-247.8 526.99,-241.74 530.01,-251.9 535.68,-247.8"/>
</a>
</g>
</g>
<!-- Node25 -->
<g id="Node000025" class="node">
<title>Node25</title>
<g id="a_Node000025"><a xlink:href="ssloader__ssee_8h.html" target="_top" xlink:title=" ">
<polygon fill="white" stroke="#666666" points="711.62,-295.5 624.38,-295.5 624.38,-276.25 711.62,-276.25 711.62,-295.5"/>
<text text-anchor="middle" x="668" y="-282" font-family="Helvetica,sans-Serif" font-size="10.00">ssloader_ssee.h</text>
</a>
</g>
</g>
<!-- Node2&#45;&gt;Node25 -->
<g id="edge60_Node000002_Node000025" class="edge">
<title>Node2&#45;&gt;Node25</title>
<g id="a_edge60_Node000002_Node000025"><a xlink:title=" ">
<path fill="none" stroke="#63b8ff" d="M351.47,-393.24C416.31,-388.3 565.62,-374.61 610,-350.75 629.94,-340.03 646.55,-319.71 656.81,-304.85"/>
<polygon fill="#63b8ff" stroke="#63b8ff" points="659.47,-307.18 662.04,-296.9 653.62,-303.34 659.47,-307.18"/>
</a>
</g>
</g>
<!-- Node29 -->
<g id="Node000029" class="node">
<title>Node29</title>
<g id="a_Node000029"><a xlink:href="ssloader__ssqe_8h.html" target="_top" xlink:title=" ">
<polygon fill="white" stroke="#666666" points="457.62,-240.25 370.38,-240.25 370.38,-221 457.62,-221 457.62,-240.25"/>
<text text-anchor="middle" x="414" y="-226.75" font-family="Helvetica,sans-Serif" font-size="10.00">ssloader_ssqe.h</text>
</a>
</g>
</g>
<!-- Node2&#45;&gt;Node29 -->
<g id="edge61_Node000002_Node000029" class="edge">
<title>Node2&#45;&gt;Node29</title>
<g id="a_edge61_Node000002_Node000029"><a xlink:title=" ">
<path fill="none" stroke="#63b8ff" d="M326,-386.57C340.57,-360.92 383.23,-285.8 403.31,-250.44"/>
<polygon fill="#63b8ff" stroke="#63b8ff" points="406.33,-252.21 408.23,-241.79 400.25,-248.76 406.33,-252.21"/>
</a>
</g>
</g>
<!-- Node4 -->
<g id="Node000004" class="node">
<title>Node4</title>
<g id="a_Node000004"><a xlink:title=" ">
<polygon fill="#e0e0e0" stroke="#999999" points="441.75,-19.25 394.25,-19.25 394.25,0 441.75,0 441.75,-19.25"/>
<text text-anchor="middle" x="418" y="-5.75" font-family="Helvetica,sans-Serif" font-size="10.00">stdlib.h</text>
</a>
</g>
</g>
<!-- Node3&#45;&gt;Node4 -->
<g id="edge3_Node000003_Node000004" class="edge">
<title>Node3&#45;&gt;Node4</title>
<g id="a_edge3_Node000003_Node000004"><a xlink:title=" ">
<path fill="none" stroke="#63b8ff" d="M418,-55.08C418,-48.57 418,-39.42 418,-31.12"/>
<polygon fill="#63b8ff" stroke="#63b8ff" points="421.5,-31.12 418,-21.12 414.5,-31.12 421.5,-31.12"/>
</a>
</g>
</g>
<!-- Node5 -->
<g id="Node000005" class="node">
<title>Node5</title>
<g id="a_Node000005"><a xlink:title=" ">
<polygon fill="#e0e0e0" stroke="#999999" points="1087,-19.25 1047,-19.25 1047,0 1087,0 1087,-19.25"/>
<text text-anchor="middle" x="1067" y="-5.75" font-family="Helvetica,sans-Serif" font-size="10.00">string</text>
</a>
</g>
</g>
<!-- Node3&#45;&gt;Node5 -->
<g id="edge4_Node000003_Node000005" class="edge">
<title>Node3&#45;&gt;Node5</title>
<g id="a_edge4_Node000003_Node000005"><a xlink:title=" ">
<path fill="none" stroke="#63b8ff" d="M447.57,-61.45C555.01,-52.63 924.17,-22.34 1035.18,-13.24"/>
<polygon fill="#63b8ff" stroke="#63b8ff" points="1035.36,-16.73 1045.04,-12.43 1034.78,-9.76 1035.36,-16.73"/>
</a>
</g>
</g>
<!-- Node6 -->
<g id="Node000006" class="node">
<title>Node6</title>
<g id="a_Node000006"><a xlink:title=" ">
<polygon fill="#e0e0e0" stroke="#999999" points="714.5,-19.25 671.5,-19.25 671.5,0 714.5,0 714.5,-19.25"/>
<text text-anchor="middle" x="693" y="-5.75" font-family="Helvetica,sans-Serif" font-size="10.00">vector</text>
</a>
</g>
</g>
<!-- Node3&#45;&gt;Node6 -->
<g id="edge5_Node000003_Node000006" class="edge">
<title>Node3&#45;&gt;Node6</title>
<g id="a_edge5_Node000003_Node000006"><a xlink:title=" ">
<path fill="none" stroke="#63b8ff" d="M447.69,-58.13C499.58,-48.08 606.35,-27.4 660.29,-16.96"/>
<polygon fill="#63b8ff" stroke="#63b8ff" points="660.62,-20.46 669.78,-15.12 659.29,-13.59 660.62,-20.46"/>
</a>
</g>
</g>
<!-- Node7 -->
<g id="Node000007" class="node">
<title>Node7</title>
<g id="a_Node000007"><a xlink:title=" ">
<polygon fill="#e0e0e0" stroke="#999999" points="502.5,-19.25 459.5,-19.25 459.5,0 502.5,0 502.5,-19.25"/>
<text text-anchor="middle" x="481" y="-5.75" font-family="Helvetica,sans-Serif" font-size="10.00">cmath</text>
</a>
</g>
</g>
<!-- Node3&#45;&gt;Node7 -->
<g id="edge6_Node000003_Node000007" class="edge">
<title>Node3&#45;&gt;Node7</title>
<g id="a_edge6_Node000003_Node000007"><a xlink:title=" ">
<path fill="none" stroke="#63b8ff" d="M428.69,-54.84C437.7,-47.22 450.83,-36.12 461.68,-26.95"/>
<polygon fill="#63b8ff" stroke="#63b8ff" points="463.94,-29.63 469.31,-20.5 459.42,-24.28 463.94,-29.63"/>
</a>
</g>
</g>
<!-- Node8 -->
<g id="Node000008" class="node">
<title>Node8</title>
<g id="a_Node000008"><a xlink:title=" ">
<polygon fill="#e0e0e0" stroke="#999999" points="375.88,-19.25 320.12,-19.25 320.12,0 375.88,0 375.88,-19.25"/>
<text text-anchor="middle" x="348" y="-5.75" font-family="Helvetica,sans-Serif" font-size="10.00">algorithm</text>
</a>
</g>
</g>
<!-- Node3&#45;&gt;Node8 -->
<g id="edge7_Node000003_Node000008" class="edge">
<title>Node3&#45;&gt;Node8</title>
<g id="a_edge7_Node000003_Node000008"><a xlink:title=" ">
<path fill="none" stroke="#63b8ff" d="M406.13,-54.84C395.91,-47.07 380.93,-35.67 368.74,-26.4"/>
<polygon fill="#63b8ff" stroke="#63b8ff" points="370.98,-23.71 360.9,-20.44 366.74,-29.28 370.98,-23.71"/>
</a>
</g>
</g>
<!-- Node9&#45;&gt;Node3 -->
<g id="edge10_Node000009_Node000003" class="edge">
<title>Node9&#45;&gt;Node3</title>
<g id="a_edge10_Node000009_Node000003"><a xlink:title=" ">
<path fill="none" stroke="#63b8ff" d="M745.29,-114.02C678.07,-104.13 530.44,-82.42 458.72,-71.86"/>
<polygon fill="#63b8ff" stroke="#63b8ff" points="459.37,-68.42 448.97,-70.43 458.35,-75.35 459.37,-68.42"/>
</a>
</g>
</g>
<!-- Node9&#45;&gt;Node5 -->
<g id="edge11_Node000009_Node000005" class="edge">
<title>Node9&#45;&gt;Node5</title>
<g id="a_edge11_Node000009_Node000005"><a xlink:title=" ">
<path fill="none" stroke="#63b8ff" d="M799.96,-110.14C828.82,-97.29 884.02,-73.23 932,-55.25 967.19,-42.06 1008.27,-28.78 1035.79,-20.17"/>
<polygon fill="#63b8ff" stroke="#63b8ff" points="1036.74,-23.54 1045.25,-17.24 1034.67,-16.86 1036.74,-23.54"/>
</a>
</g>
</g>
<!-- Node9&#45;&gt;Node6 -->
<g id="edge12_Node000009_Node000006" class="edge">
<title>Node9&#45;&gt;Node6</title>
<g id="a_edge12_Node000009_Node000006"><a xlink:title=" ">
<path fill="none" stroke="#63b8ff" d="M768.2,-110.06C757.66,-101.59 742.2,-88.23 731,-74.5 719.53,-60.44 709.19,-42.55 702.21,-29.29"/>
<polygon fill="#63b8ff" stroke="#63b8ff" points="705.52,-28.08 697.86,-20.76 699.29,-31.26 705.52,-28.08"/>
</a>
</g>
</g>
<!-- Node10 -->
<g id="Node000010" class="node">
<title>Node10</title>
<g id="a_Node000010"><a xlink:title=" ">
<polygon fill="#e0e0e0" stroke="#999999" points="846.38,-74.5 739.62,-74.5 739.62,-55.25 846.38,-55.25 846.38,-74.5"/>
<text text-anchor="middle" x="793" y="-61" font-family="Helvetica,sans-Serif" font-size="10.00">./tinyxml2/tinyxml2.h</text>
</a>
</g>
</g>
<!-- Node9&#45;&gt;Node10 -->
<g id="edge9_Node000009_Node000010" class="edge">
<title>Node9&#45;&gt;Node10</title>
<g id="a_edge9_Node000009_Node000010"><a xlink:title=" ">
<path fill="none" stroke="#63b8ff" d="M782.15,-110.33C783.77,-103.67 786.08,-94.24 788.14,-85.78"/>
<polygon fill="#63b8ff" stroke="#63b8ff" points="791.48,-86.87 790.45,-76.33 784.68,-85.21 791.48,-86.87"/>
</a>
</g>
</g>
<!-- Node11 -->
<g id="Node000011" class="node">
<title>Node11</title>
<g id="a_Node000011"><a xlink:title=" ">
<polygon fill="#e0e0e0" stroke="#999999" points="646.38,-74.5 611.62,-74.5 611.62,-55.25 646.38,-55.25 646.38,-74.5"/>
<text text-anchor="middle" x="629" y="-61" font-family="Helvetica,sans-Serif" font-size="10.00">map</text>
</a>
</g>
</g>
<!-- Node9&#45;&gt;Node11 -->
<g id="edge13_Node000009_Node000011" class="edge">
<title>Node9&#45;&gt;Node11</title>
<g id="a_edge13_Node000009_Node000011"><a xlink:title=" ">
<path fill="none" stroke="#63b8ff" d="M754.38,-110.09C727.47,-100.6 685.23,-85.71 657.33,-75.87"/>
<polygon fill="#63b8ff" stroke="#63b8ff" points="658.72,-72.64 648.12,-72.62 656.39,-79.25 658.72,-72.64"/>
</a>
</g>
</g>
<!-- Node12&#45;&gt;Node3 -->
<g id="edge15_Node000012_Node000003" class="edge">
<title>Node12&#45;&gt;Node3</title>
<g id="a_edge15_Node000012_Node000003"><a xlink:title=" ">
<path fill="none" stroke="#63b8ff" d="M164.07,-220.53C153.32,-212.6 139.26,-200.03 133,-185 117.57,-147.96 148.92,-129.98 184,-110.5 245.29,-76.46 328.02,-67.94 376.92,-66.06"/>
<polygon fill="#63b8ff" stroke="#63b8ff" points="376.89,-69.56 386.78,-65.77 376.68,-62.57 376.89,-69.56"/>
</a>
</g>
</g>
<!-- Node12&#45;&gt;Node11 -->
<g id="edge30_Node000012_Node000011" class="edge">
<title>Node12&#45;&gt;Node11</title>
<g id="a_edge30_Node000012_Node000011"><a xlink:title=" ">
<path fill="none" stroke="#63b8ff" d="M180.94,-220.65C185.99,-206.67 197.69,-179.84 217,-165.75 338.41,-77.18 528.25,-66.36 600.12,-65.61"/>
<polygon fill="#63b8ff" stroke="#63b8ff" points="599.87,-69.11 609.86,-65.57 599.85,-62.11 599.87,-69.11"/>
</a>
</g>
</g>
<!-- Node13 -->
<g id="Node000013" class="node">
<title>Node13</title>
<g id="a_Node000013"><a xlink:href="ssvalue_8h.html" target="_top" xlink:title=" ">
<polygon fill="white" stroke="#666666" points="714,-185 656,-185 656,-165.75 714,-165.75 714,-185"/>
<text text-anchor="middle" x="685" y="-171.5" font-family="Helvetica,sans-Serif" font-size="10.00">ssvalue.h</text>
</a>
</g>
</g>
<!-- Node12&#45;&gt;Node13 -->
<g id="edge16_Node000012_Node000013" class="edge">
<title>Node12&#45;&gt;Node13</title>
<g id="a_edge16_Node000012_Node000013"><a xlink:title=" ">
<path fill="none" stroke="#63b8ff" d="M213.5,-227.81C290.35,-223.54 478,-211.32 644.67,-185.18"/>
<polygon fill="#63b8ff" stroke="#63b8ff" points="644.79,-188.7 654.12,-183.67 643.69,-181.79 644.79,-188.7"/>
</a>
</g>
</g>
<!-- Node12&#45;&gt;Node20 -->
<g id="edge28_Node000012_Node000020" class="edge">
<title>Node12&#45;&gt;Node20</title>
<g id="a_edge28_Node000012_Node000020"><a xlink:title=" ">
<path fill="none" stroke="#63b8ff" d="M193.61,-220.59C207.62,-212.48 228.43,-200.43 244.8,-190.96"/>
<polygon fill="#63b8ff" stroke="#63b8ff" points="246.11,-194.25 253.01,-186.21 242.6,-188.19 246.11,-194.25"/>
</a>
</g>
</g>
<!-- Node21 -->
<g id="Node000021" class="node">
<title>Node21</title>
<g id="a_Node000021"><a xlink:title=" ">
<polygon fill="#e0e0e0" stroke="#999999" points="170.4,-185 141.6,-185 141.6,-165.75 170.4,-165.75 170.4,-185"/>
<text text-anchor="middle" x="156" y="-171.5" font-family="Helvetica,sans-Serif" font-size="10.00">list</text>
</a>
</g>
</g>
<!-- Node12&#45;&gt;Node21 -->
<g id="edge29_Node000012_Node000021" class="edge">
<title>Node12&#45;&gt;Node21</title>
<g id="a_edge29_Node000012_Node000021"><a xlink:title=" ">
<path fill="none" stroke="#63b8ff" d="M174.37,-220.83C171.58,-214.09 167.63,-204.52 164.1,-195.99"/>
<polygon fill="#63b8ff" stroke="#63b8ff" points="167.34,-194.66 160.29,-186.76 160.87,-197.34 167.34,-194.66"/>
</a>
</g>
</g>
<!-- Node13&#45;&gt;Node6 -->
<g id="edge26_Node000013_Node000006" class="edge">
<title>Node13&#45;&gt;Node6</title>
<g id="a_edge26_Node000013_Node000006"><a xlink:title=" ">
<path fill="none" stroke="#63b8ff" d="M685.43,-165.57C686.67,-140.25 690.26,-66.75 692.01,-30.84"/>
<polygon fill="#63b8ff" stroke="#63b8ff" points="695.5,-31.14 692.49,-20.98 688.51,-30.8 695.5,-31.14"/>
</a>
</g>
</g>
<!-- Node13&#45;&gt;Node9 -->
<g id="edge17_Node000013_Node000009" class="edge">
<title>Node13&#45;&gt;Node9</title>
<g id="a_edge17_Node000013_Node000009"><a xlink:title=" ">
<path fill="none" stroke="#63b8ff" d="M701.12,-165.34C715.58,-157.23 737.08,-145.18 753.98,-135.71"/>
<polygon fill="#63b8ff" stroke="#63b8ff" points="755.47,-138.89 762.49,-130.94 752.05,-132.78 755.47,-138.89"/>
</a>
</g>
</g>
<!-- Node13&#45;&gt;Node11 -->
<g id="edge25_Node000013_Node000011" class="edge">
<title>Node13&#45;&gt;Node11</title>
<g id="a_edge25_Node000013_Node000011"><a xlink:title=" ">
<path fill="none" stroke="#63b8ff" d="M679.86,-165.57C674.7,-156.63 666.58,-142.34 660,-129.75 652.22,-114.86 643.94,-97.72 637.9,-84.95"/>
<polygon fill="#63b8ff" stroke="#63b8ff" points="641.11,-83.57 633.69,-76 634.78,-86.54 641.11,-83.57"/>
</a>
</g>
</g>
<!-- Node14 -->
<g id="Node000014" class="node">
<title>Node14</title>
<g id="a_Node000014"><a xlink:href="ssstring__uty_8h.html" target="_top" xlink:title=" ">
<polygon fill="white" stroke="#666666" points="1075,-129.75 999,-129.75 999,-110.5 1075,-110.5 1075,-129.75"/>
<text text-anchor="middle" x="1037" y="-116.25" font-family="Helvetica,sans-Serif" font-size="10.00">ssstring_uty.h</text>
</a>
</g>
</g>
<!-- Node13&#45;&gt;Node14 -->
<g id="edge18_Node000013_Node000014" class="edge">
<title>Node13&#45;&gt;Node14</title>
<g id="a_edge18_Node000013_Node000014"><a xlink:title=" ">
<path fill="none" stroke="#63b8ff" d="M714.41,-169.93C774.71,-160.8 912.96,-139.89 987.39,-128.63"/>
<polygon fill="#63b8ff" stroke="#63b8ff" points="987.91,-132.09 997.27,-127.14 986.86,-125.17 987.91,-132.09"/>
</a>
</g>
</g>
<!-- Node19 -->
<g id="Node000019" class="node">
<title>Node19</title>
<g id="a_Node000019"><a xlink:title=" ">
<polygon fill="#e0e0e0" stroke="#999999" points="608.12,-129.75 559.88,-129.75 559.88,-110.5 608.12,-110.5 608.12,-129.75"/>
<text text-anchor="middle" x="584" y="-116.25" font-family="Helvetica,sans-Serif" font-size="10.00">cassert</text>
</a>
</g>
</g>
<!-- Node13&#45;&gt;Node19 -->
<g id="edge27_Node000013_Node000019" class="edge">
<title>Node13&#45;&gt;Node19</title>
<g id="a_edge27_Node000013_Node000019"><a xlink:title=" ">
<path fill="none" stroke="#63b8ff" d="M667.87,-165.34C652.34,-157.16 629.2,-144.96 611.16,-135.44"/>
<polygon fill="#63b8ff" stroke="#63b8ff" points="613.03,-132.48 602.56,-130.91 609.77,-138.67 613.03,-132.48"/>
</a>
</g>
</g>
<!-- Node14&#45;&gt;Node5 -->
<g id="edge19_Node000014_Node000005" class="edge">
<title>Node14&#45;&gt;Node5</title>
<g id="a_edge19_Node000014_Node000005"><a xlink:title=" ">
<path fill="none" stroke="#63b8ff" d="M1075.39,-114.22C1119.43,-107.7 1187.57,-94.63 1203,-74.5 1232.54,-35.96 1147.21,-19.7 1098.45,-13.69"/>
<polygon fill="#63b8ff" stroke="#63b8ff" points="1099.05,-10.24 1088.72,-12.58 1098.26,-17.19 1099.05,-10.24"/>
</a>
</g>
</g>
<!-- Node14&#45;&gt;Node6 -->
<g id="edge21_Node000014_Node000006" class="edge">
<title>Node14&#45;&gt;Node6</title>
<g id="a_edge21_Node000014_Node000006"><a xlink:title=" ">
<path fill="none" stroke="#63b8ff" d="M1012.74,-110.01C978.03,-97.11 912.05,-73.09 855,-55.25 810.54,-41.34 758.52,-27.42 725.67,-18.92"/>
<polygon fill="#63b8ff" stroke="#63b8ff" points="726.91,-15.62 716.35,-16.52 725.17,-22.4 726.91,-15.62"/>
</a>
</g>
</g>
<!-- Node15 -->
<g id="Node000015" class="node">
<title>Node15</title>
<g id="a_Node000015"><a xlink:title=" ">
<polygon fill="#e0e0e0" stroke="#999999" points="989.5,-74.5 940.5,-74.5 940.5,-55.25 989.5,-55.25 989.5,-74.5"/>
<text text-anchor="middle" x="965" y="-61" font-family="Helvetica,sans-Serif" font-size="10.00">fstream</text>
</a>
</g>
</g>
<!-- Node14&#45;&gt;Node15 -->
<g id="edge20_Node000014_Node000015" class="edge">
<title>Node14&#45;&gt;Node15</title>
<g id="a_edge20_Node000014_Node000015"><a xlink:title=" ">
<path fill="none" stroke="#63b8ff" d="M1024.79,-110.09C1014.17,-102.24 998.56,-90.7 985.96,-81.37"/>
<polygon fill="#63b8ff" stroke="#63b8ff" points="988.37,-78.81 978.25,-75.67 984.21,-84.44 988.37,-78.81"/>
</a>
</g>
</g>
<!-- Node16 -->
<g id="Node000016" class="node">
<title>Node16</title>
<g id="a_Node000016"><a xlink:title=" ">
<polygon fill="#e0e0e0" stroke="#999999" points="1060.75,-74.5 1007.25,-74.5 1007.25,-55.25 1060.75,-55.25 1060.75,-74.5"/>
<text text-anchor="middle" x="1034" y="-61" font-family="Helvetica,sans-Serif" font-size="10.00">iostream</text>
</a>
</g>
</g>
<!-- Node14&#45;&gt;Node16 -->
<g id="edge22_Node000014_Node000016" class="edge">
<title>Node14&#45;&gt;Node16</title>
<g id="a_edge22_Node000014_Node000016"><a xlink:title=" ">
<path fill="none" stroke="#63b8ff" d="M1036.5,-110.33C1036.13,-103.74 1035.61,-94.46 1035.14,-86.07"/>
<polygon fill="#63b8ff" stroke="#63b8ff" points="1038.65,-86.16 1034.59,-76.37 1031.66,-86.55 1038.65,-86.16"/>
</a>
</g>
</g>
<!-- Node17 -->
<g id="Node000017" class="node">
<title>Node17</title>
<g id="a_Node000017"><a xlink:title=" ">
<polygon fill="#e0e0e0" stroke="#999999" points="1129.62,-74.5 1078.38,-74.5 1078.38,-55.25 1129.62,-55.25 1129.62,-74.5"/>
<text text-anchor="middle" x="1104" y="-61" font-family="Helvetica,sans-Serif" font-size="10.00">sstream</text>
</a>
</g>
</g>
<!-- Node14&#45;&gt;Node17 -->
<g id="edge23_Node000014_Node000017" class="edge">
<title>Node14&#45;&gt;Node17</title>
<g id="a_edge23_Node000014_Node000017"><a xlink:title=" ">
<path fill="none" stroke="#63b8ff" d="M1048.37,-110.09C1058.05,-102.4 1072.2,-91.15 1083.81,-81.93"/>
<polygon fill="#63b8ff" stroke="#63b8ff" points="1085.97,-84.68 1091.62,-75.72 1081.61,-79.2 1085.97,-84.68"/>
</a>
</g>
</g>
<!-- Node18 -->
<g id="Node000018" class="node">
<title>Node18</title>
<g id="a_Node000018"><a xlink:title=" ">
<polygon fill="#e0e0e0" stroke="#999999" points="1194,-74.5 1148,-74.5 1148,-55.25 1194,-55.25 1194,-74.5"/>
<text text-anchor="middle" x="1171" y="-61" font-family="Helvetica,sans-Serif" font-size="10.00">iterator</text>
</a>
</g>
</g>
<!-- Node14&#45;&gt;Node18 -->
<g id="edge24_Node000014_Node000018" class="edge">
<title>Node14&#45;&gt;Node18</title>
<g id="a_edge24_Node000014_Node000018"><a xlink:title=" ">
<path fill="none" stroke="#63b8ff" d="M1059.73,-110.09C1081.1,-101.6 1113.34,-88.79 1137.63,-79.14"/>
<polygon fill="#63b8ff" stroke="#63b8ff" points="1138.75,-82.46 1146.75,-75.51 1136.16,-75.95 1138.75,-82.46"/>
</a>
</g>
</g>
<!-- Node22&#45;&gt;Node3 -->
<g id="edge32_Node000022_Node000003" class="edge">
<title>Node22&#45;&gt;Node3</title>
<g id="a_edge32_Node000022_Node000003"><a xlink:title=" ">
<path fill="none" stroke="#63b8ff" d="M471.99,-331.13C451.72,-323.71 424.42,-311.75 404,-295.5 379.65,-276.12 371.1,-269.68 361,-240.25 341.5,-183.44 381.66,-115.7 404.17,-83.96"/>
<polygon fill="#63b8ff" stroke="#63b8ff" points="406.77,-86.34 409.86,-76.2 401.12,-82.2 406.77,-86.34"/>
</a>
</g>
</g>
<!-- Node22&#45;&gt;Node9 -->
<g id="edge33_Node000022_Node000009" class="edge">
<title>Node22&#45;&gt;Node9</title>
<g id="a_edge33_Node000022_Node000009"><a xlink:title=" ">
<path fill="none" stroke="#63b8ff" d="M542.52,-336.69C640.07,-327.84 875.1,-300.55 921,-240.25 941.06,-213.9 940.56,-192.46 921,-165.75 899.45,-136.32 858.4,-125.81 826.13,-122.29"/>
<polygon fill="#63b8ff" stroke="#63b8ff" points="826.46,-118.8 816.19,-121.42 825.85,-125.78 826.46,-118.8"/>
</a>
</g>
</g>
<!-- Node22&#45;&gt;Node14 -->
<g id="edge34_Node000022_Node000014" class="edge">
<title>Node22&#45;&gt;Node14</title>
<g id="a_edge34_Node000022_Node000014"><a xlink:title=" ">
<path fill="none" stroke="#63b8ff" d="M542.39,-340.32C609.39,-339.4 743.05,-332.55 849,-295.5 893.66,-279.88 904.32,-271.33 940,-240.25 975.55,-209.29 1008.25,-164.3 1025.09,-139.4"/>
<polygon fill="#63b8ff" stroke="#63b8ff" points="1027.84,-141.59 1030.46,-131.33 1022.01,-137.72 1027.84,-141.59"/>
</a>
</g>
</g>
<!-- Node22&#45;&gt;Node23 -->
<g id="edge35_Node000022_Node000023" class="edge">
<title>Node22&#45;&gt;Node23</title>
<g id="a_edge35_Node000022_Node000023"><a xlink:title=" ">
<path fill="none" stroke="#63b8ff" d="M457.52,-331.75C410.99,-322.57 336.21,-307.82 285.18,-297.76"/>
<polygon fill="#63b8ff" stroke="#63b8ff" points="286,-294.35 275.51,-295.85 284.65,-301.22 286,-294.35"/>
</a>
</g>
</g>
<!-- Node22&#45;&gt;Node24 -->
<g id="edge39_Node000022_Node000024" class="edge">
<title>Node22&#45;&gt;Node24</title>
<g id="a_edge39_Node000022_Node000024"><a xlink:title=" ">
<path fill="none" stroke="#63b8ff" d="M501.55,-331.25C504.57,-314 511.3,-275.58 515.46,-251.81"/>
<polygon fill="#63b8ff" stroke="#63b8ff" points="518.89,-252.57 517.16,-242.12 511.99,-251.36 518.89,-252.57"/>
</a>
</g>
</g>
<!-- Node22&#45;&gt;Node25 -->
<g id="edge42_Node000022_Node000025" class="edge">
<title>Node22&#45;&gt;Node25</title>
<g id="a_edge42_Node000022_Node000025"><a xlink:title=" ">
<path fill="none" stroke="#63b8ff" d="M528.5,-331.09C556.01,-322.37 597.91,-309.09 628.61,-299.36"/>
<polygon fill="#63b8ff" stroke="#63b8ff" points="629.44,-302.77 637.92,-296.41 627.33,-296.09 629.44,-302.77"/>
</a>
</g>
</g>
<!-- Node28 -->
<g id="Node000028" class="node">
<title>Node28</title>
<g id="a_Node000028"><a xlink:title=" ">
<polygon fill="#e0e0e0" stroke="#999999" points="859.62,-185 808.38,-185 808.38,-165.75 859.62,-165.75 859.62,-185"/>
<text text-anchor="middle" x="834" y="-171.5" font-family="Helvetica,sans-Serif" font-size="10.00">memory</text>
</a>
</g>
</g>
<!-- Node22&#45;&gt;Node28 -->
<g id="edge56_Node000022_Node000028" class="edge">
<title>Node22&#45;&gt;Node28</title>
<g id="a_edge56_Node000022_Node000028"><a xlink:title=" ">
<path fill="none" stroke="#63b8ff" d="M514.06,-331.11C535.28,-317.78 577.05,-292.64 615,-276.25 663.39,-255.35 679.99,-262 728,-240.25 758.44,-226.46 791.02,-205.85 811.91,-191.79"/>
<polygon fill="#63b8ff" stroke="#63b8ff" points="813.62,-194.86 819.91,-186.33 809.68,-189.08 813.62,-194.86"/>
</a>
</g>
</g>
<!-- Node22&#45;&gt;Node29 -->
<g id="edge53_Node000022_Node000029" class="edge">
<title>Node22&#45;&gt;Node29</title>
<g id="a_edge53_Node000022_Node000029"><a xlink:title=" ">
<path fill="none" stroke="#63b8ff" d="M495.8,-331.36C489.45,-318.56 476.59,-294.32 462,-276.25 453.74,-266.02 443.17,-255.94 434.04,-247.96"/>
<polygon fill="#63b8ff" stroke="#63b8ff" points="436.59,-245.52 426.7,-241.72 432.06,-250.86 436.59,-245.52"/>
</a>
</g>
</g>
<!-- Node30 -->
<g id="Node000030" class="node">
<title>Node30</title>
<g id="a_Node000030"><a xlink:title=" ">
<polygon fill="#e0e0e0" stroke="#999999" points="452.62,-295.5 413.38,-295.5 413.38,-276.25 452.62,-276.25 452.62,-295.5"/>
<text text-anchor="middle" x="433" y="-282" font-family="Helvetica,sans-Serif" font-size="10.00">utility</text>
</a>
</g>
</g>
<!-- Node22&#45;&gt;Node30 -->
<g id="edge57_Node000022_Node000030" class="edge">
<title>Node22&#45;&gt;Node30</title>
<g id="a_edge57_Node000022_Node000030"><a xlink:title=" ">
<path fill="none" stroke="#63b8ff" d="M488.63,-331.09C478.95,-323.4 464.8,-312.15 453.19,-302.93"/>
<polygon fill="#63b8ff" stroke="#63b8ff" points="455.39,-300.2 445.38,-296.72 451.03,-305.68 455.39,-300.2"/>
</a>
</g>
</g>
<!-- Node23&#45;&gt;Node3 -->
<g id="edge36_Node000023_Node000003" class="edge">
<title>Node23&#45;&gt;Node3</title>
<g id="a_edge36_Node000023_Node000003"><a xlink:title=" ">
<path fill="none" stroke="#63b8ff" d="M190.25,-275.84C170.35,-269.27 147.66,-258.27 134,-240.25 98.93,-193.99 103.24,-146.22 149,-110.5 183.85,-83.3 311.05,-72.03 377.28,-67.93"/>
<polygon fill="#63b8ff" stroke="#63b8ff" points="377.24,-71.44 387.01,-67.36 376.82,-64.45 377.24,-71.44"/>
</a>
</g>
</g>
<!-- Node23&#45;&gt;Node9 -->
<g id="edge37_Node000023_Node000009" class="edge">
<title>Node23&#45;&gt;Node9</title>
<g id="a_edge37_Node000023_Node000009"><a xlink:title=" ">
<path fill="none" stroke="#63b8ff" d="M273.78,-282.55C378.7,-276.72 642.14,-260.48 728,-240.25 793.51,-224.81 831.07,-240.6 869,-185 884.51,-162.26 854.04,-144.82 824.62,-133.95"/>
<polygon fill="#63b8ff" stroke="#63b8ff" points="825.94,-130.7 815.34,-130.74 823.65,-137.32 825.94,-130.7"/>
</a>
</g>
</g>
<!-- Node23&#45;&gt;Node12 -->
<g id="edge38_Node000023_Node000012" class="edge">
<title>Node23&#45;&gt;Node12</title>
<g id="a_edge38_Node000023_Node000012"><a xlink:title=" ">
<path fill="none" stroke="#63b8ff" d="M221.41,-276.08C214.16,-268.65 203.55,-257.79 194.63,-248.66"/>
<polygon fill="#63b8ff" stroke="#63b8ff" points="197.32,-246.4 187.83,-241.69 192.31,-251.29 197.32,-246.4"/>
</a>
</g>
</g>
<!-- Node24&#45;&gt;Node3 -->
<g id="edge40_Node000024_Node000003" class="edge">
<title>Node24&#45;&gt;Node3</title>
<g id="a_edge40_Node000024_Node000003"><a xlink:title=" ">
<path fill="none" stroke="#63b8ff" d="M491.8,-220.5C474.9,-213.43 454.16,-201.95 442,-185 420.85,-155.51 417.29,-111.87 417.23,-86.4"/>
<polygon fill="#63b8ff" stroke="#63b8ff" points="420.72,-86.49 417.41,-76.43 413.73,-86.36 420.72,-86.49"/>
</a>
</g>
</g>
<!-- Node24&#45;&gt;Node9 -->
<g id="edge41_Node000024_Node000009" class="edge">
<title>Node24&#45;&gt;Node9</title>
<g id="a_edge41_Node000024_Node000009"><a xlink:title=" ">
<path fill="none" stroke="#63b8ff" d="M563.04,-223.7C627.47,-214.69 741.39,-197.27 756,-185 768.91,-174.16 774.88,-155.63 777.64,-141.31"/>
<polygon fill="#63b8ff" stroke="#63b8ff" points="781.07,-142.02 779.11,-131.61 774.15,-140.98 781.07,-142.02"/>
</a>
</g>
</g>
<!-- Node25&#45;&gt;Node3 -->
<g id="edge43_Node000025_Node000003" class="edge">
<title>Node25&#45;&gt;Node3</title>
<g id="a_edge43_Node000025_Node000003"><a xlink:title=" ">
<path fill="none" stroke="#63b8ff" d="M655.98,-275.94C638.19,-262.93 603.54,-238.43 572,-221 537.88,-202.14 521.34,-210.68 492,-185 459.75,-156.77 436.86,-111.04 425.71,-85.22"/>
<polygon fill="#63b8ff" stroke="#63b8ff" points="429.07,-84.18 422,-76.29 422.6,-86.87 429.07,-84.18"/>
</a>
</g>
</g>
<!-- Node25&#45;&gt;Node9 -->
<g id="edge44_Node000025_Node000009" class="edge">
<title>Node25&#45;&gt;Node9</title>
<g id="a_edge44_Node000025_Node000009"><a xlink:title=" ">
<path fill="none" stroke="#63b8ff" d="M712.12,-282.95C773.11,-279.25 878.37,-268.81 902,-240.25 923.11,-214.74 920.97,-192.89 902,-165.75 884.87,-141.25 852.77,-130.15 825.79,-125.15"/>
<polygon fill="#63b8ff" stroke="#63b8ff" points="826.53,-121.73 816.1,-123.6 825.42,-128.64 826.53,-121.73"/>
</a>
</g>
</g>
<!-- Node26 -->
<g id="Node000026" class="node">
<title>Node26</title>
<g id="a_Node000026"><a xlink:href="_ss_effect_behavior_8h.html" target="_top" xlink:title=" ">
<polygon fill="white" stroke="#666666" points="719,-240.25 619,-240.25 619,-221 719,-221 719,-240.25"/>
<text text-anchor="middle" x="669" y="-226.75" font-family="Helvetica,sans-Serif" font-size="10.00">SsEffectBehavior.h</text>
</a>
</g>
</g>
<!-- Node25&#45;&gt;Node26 -->
<g id="edge45_Node000025_Node000026" class="edge">
<title>Node25&#45;&gt;Node26</title>
<g id="a_edge45_Node000025_Node000026"><a xlink:title=" ">
<path fill="none" stroke="#63b8ff" d="M668.17,-276.08C668.29,-269.57 668.46,-260.42 668.62,-252.12"/>
<polygon fill="#63b8ff" stroke="#63b8ff" points="672.11,-252.19 668.8,-242.12 665.12,-252.05 672.11,-252.19"/>
</a>
</g>
</g>
<!-- Node26&#45;&gt;Node3 -->
<g id="edge50_Node000026_Node000003" class="edge">
<title>Node26&#45;&gt;Node3</title>
<g id="a_edge50_Node000026_Node000003"><a xlink:title=" ">
<path fill="none" stroke="#63b8ff" d="M623.35,-220.54C583.77,-211.96 530.21,-198.44 513,-185 482.87,-161.47 494.41,-139.92 470,-110.5 461.14,-99.81 449.55,-89.6 439.56,-81.64"/>
<polygon fill="#63b8ff" stroke="#63b8ff" points="441.88,-79.01 431.82,-75.69 437.61,-84.56 441.88,-79.01"/>
</a>
</g>
</g>
<!-- Node26&#45;&gt;Node13 -->
<g id="edge51_Node000026_Node000013" class="edge">
<title>Node26&#45;&gt;Node13</title>
<g id="a_edge51_Node000026_Node000013"><a xlink:title=" ">
<path fill="none" stroke="#63b8ff" d="M671.64,-220.83C673.64,-214.17 676.48,-204.74 679.02,-196.28"/>
<polygon fill="#63b8ff" stroke="#63b8ff" points="682.34,-197.39 681.86,-186.81 675.64,-195.38 682.34,-197.39"/>
</a>
</g>
</g>
<!-- Node27 -->
<g id="Node000027" class="node">
<title>Node27</title>
<g id="a_Node000027"><a xlink:href="_ss_effect_element_8h.html" target="_top" xlink:title=" ">
<polygon fill="white" stroke="#666666" points="620.25,-185 521.75,-185 521.75,-165.75 620.25,-165.75 620.25,-185"/>
<text text-anchor="middle" x="571" y="-171.5" font-family="Helvetica,sans-Serif" font-size="10.00">SsEffectElement.h</text>
</a>
</g>
</g>
<!-- Node26&#45;&gt;Node27 -->
<g id="edge46_Node000026_Node000027" class="edge">
<title>Node26&#45;&gt;Node27</title>
<g id="a_edge46_Node000026_Node000027"><a xlink:title=" ">
<path fill="none" stroke="#63b8ff" d="M652.38,-220.59C637.31,-212.41 614.86,-200.21 597.35,-190.69"/>
<polygon fill="#63b8ff" stroke="#63b8ff" points="599.49,-187.87 589.04,-186.18 596.15,-194.02 599.49,-187.87"/>
</a>
</g>
</g>
<!-- Node26&#45;&gt;Node28 -->
<g id="edge52_Node000026_Node000028" class="edge">
<title>Node26&#45;&gt;Node28</title>
<g id="a_edge52_Node000026_Node000028"><a xlink:title=" ">
<path fill="none" stroke="#63b8ff" d="M696.99,-220.59C724.67,-211.66 767.16,-197.95 797.48,-188.16"/>
<polygon fill="#63b8ff" stroke="#63b8ff" points="798.17,-191.62 806.61,-185.21 796.02,-184.95 798.17,-191.62"/>
</a>
</g>
</g>
<!-- Node27&#45;&gt;Node3 -->
<g id="edge47_Node000027_Node000003" class="edge">
<title>Node27&#45;&gt;Node3</title>
<g id="a_edge47_Node000027_Node000003"><a xlink:title=" ">
<path fill="none" stroke="#63b8ff" d="M564.01,-165.61C553.12,-152.39 530.97,-127.12 508,-110.5 490.68,-97.97 469.32,-87.21 451.75,-79.4"/>
<polygon fill="#63b8ff" stroke="#63b8ff" points="453.33,-76.27 442.76,-75.52 450.56,-82.69 453.33,-76.27"/>
</a>
</g>
</g>
<!-- Node27&#45;&gt;Node9 -->
<g id="edge48_Node000027_Node000009" class="edge">
<title>Node27&#45;&gt;Node9</title>
<g id="a_edge48_Node000027_Node000009"><a xlink:title=" ">
<path fill="none" stroke="#63b8ff" d="M606.45,-165.34C641.75,-156.35 696.07,-142.51 734.53,-132.71"/>
<polygon fill="#63b8ff" stroke="#63b8ff" points="735.12,-136.17 743.95,-130.31 733.4,-129.39 735.12,-136.17"/>
</a>
</g>
</g>
<!-- Node27&#45;&gt;Node27 -->
<g id="edge49_Node000027_Node000027" class="edge">
<title>Node27&#45;&gt;Node27</title>
<g id="a_edge49_Node000027_Node000027"><a xlink:title=" ">
<path fill="none" stroke="#63b8ff" d="M606.29,-185.48C623.27,-186.73 638.25,-183.36 638.25,-175.38 638.25,-169.26 629.47,-165.85 617.73,-165.15"/>
<polygon fill="#63b8ff" stroke="#63b8ff" points="617.77,-161.65 607.8,-165.25 617.84,-168.65 617.77,-161.65"/>
</a>
</g>
</g>
<!-- Node29&#45;&gt;Node3 -->
<g id="edge54_Node000029_Node000003" class="edge">
<title>Node29&#45;&gt;Node3</title>
<g id="a_edge54_Node000029_Node000003"><a xlink:title=" ">
<path fill="none" stroke="#63b8ff" d="M411.43,-220.83C408.95,-211.9 405.4,-197.63 404,-185 400.36,-152.09 398.99,-143.23 404,-110.5 405.27,-102.18 407.81,-93.28 410.38,-85.63"/>
<polygon fill="#63b8ff" stroke="#63b8ff" points="413.64,-86.93 413.75,-76.33 407.05,-84.54 413.64,-86.93"/>
</a>
</g>
</g>
<!-- Node29&#45;&gt;Node9 -->
<g id="edge55_Node000029_Node000009" class="edge">
<title>Node29&#45;&gt;Node9</title>
<g id="a_edge55_Node000029_Node000009"><a xlink:title=" ">
<path fill="none" stroke="#63b8ff" d="M457.96,-222.25C460.68,-221.82 463.38,-221.4 466,-221 580.01,-203.56 621.27,-239.35 723,-185 742.62,-174.52 758.78,-154.46 768.82,-139.6"/>
<polygon fill="#63b8ff" stroke="#63b8ff" points="771.76,-141.5 774.2,-131.19 765.86,-137.73 771.76,-141.5"/>
</a>
</g>
</g>
<!-- Node31&#45;&gt;Node5 -->
<g id="edge66_Node000031_Node000005" class="edge">
<title>Node31&#45;&gt;Node5</title>
<g id="a_edge66_Node000031_Node000005"><a xlink:title=" ">
<path fill="none" stroke="#63b8ff" d="M1202.62,-331.17C1221.75,-314 1260,-274.31 1260,-231.62 1260,-231.62 1260,-231.62 1260,-119.12 1260,-45.89 1153.1,-21.57 1098.42,-13.92"/>
<polygon fill="#63b8ff" stroke="#63b8ff" points="1099.15,-10.48 1088.79,-12.68 1098.26,-17.42 1099.15,-10.48"/>
</a>
</g>
</g>
</g>
</svg>
