<?xml version="1.0" encoding="UTF-8" standalone="no"?>
<!DOCTYPE svg PUBLIC "-//W3C//DTD SVG 1.1//EN"
 "http://www.w3.org/Graphics/SVG/1.1/DTD/svg11.dtd">
<!-- Generated by graphviz version 10.0.1 (20240210.2158)
 -->
<!-- Title: Common/Loader/ssattribute.h Pages: 1 -->
<svg width="645pt" height="248pt"
 viewBox="0.00 0.00 644.75 248.25" xmlns="http://www.w3.org/2000/svg" xmlns:xlink="http://www.w3.org/1999/xlink">
<g id="graph0" class="graph" transform="scale(1 1) rotate(0) translate(4 244.25)">
<title>Common/Loader/ssattribute.h</title>
<!-- Node1 -->
<g id="Node000001" class="node">
<title>Node1</title>
<g id="a_Node000001"><a xlink:title=" ">
<polygon fill="#999999" stroke="#666666" points="538.25,-240.25 393.25,-240.25 393.25,-221 538.25,-221 538.25,-240.25"/>
<text text-anchor="middle" x="465.75" y="-226.75" font-family="Helvetica,sans-Serif" font-size="10.00">Common/Loader/ssattribute.h</text>
</a>
</g>
</g>
<!-- Node2 -->
<g id="Node000002" class="node">
<title>Node2</title>
<g id="a_Node000002"><a xlink:href="sstypes_8h.html" target="_top" xlink:title=" ">
<polygon fill="white" stroke="#666666" points="165.12,-74.5 106.38,-74.5 106.38,-55.25 165.12,-55.25 165.12,-74.5"/>
<text text-anchor="middle" x="135.75" y="-61" font-family="Helvetica,sans-Serif" font-size="10.00">sstypes.h</text>
</a>
</g>
</g>
<!-- Node1&#45;&gt;Node2 -->
<g id="edge1_Node000001_Node000002" class="edge">
<title>Node1&#45;&gt;Node2</title>
<g id="a_edge1_Node000001_Node000002"><a xlink:title=" ">
<path fill="none" stroke="#63b8ff" d="M421.7,-220.58C388.77,-213.06 343.01,-201.01 304.75,-185 259.34,-166 248.8,-158.37 208.75,-129.75 188.33,-115.15 166.94,-95.9 152.63,-82.36"/>
<polygon fill="#63b8ff" stroke="#63b8ff" points="155.44,-80.21 145.8,-75.81 150.6,-85.26 155.44,-80.21"/>
</a>
</g>
</g>
<!-- Node8 -->
<g id="Node000008" class="node">
<title>Node8</title>
<g id="a_Node000008"><a xlink:href="ssvalue_8h.html" target="_top" xlink:title=" ">
<polygon fill="white" stroke="#666666" points="371.75,-185 313.75,-185 313.75,-165.75 371.75,-165.75 371.75,-185"/>
<text text-anchor="middle" x="342.75" y="-171.5" font-family="Helvetica,sans-Serif" font-size="10.00">ssvalue.h</text>
</a>
</g>
</g>
<!-- Node1&#45;&gt;Node8 -->
<g id="edge7_Node000001_Node000008" class="edge">
<title>Node1&#45;&gt;Node8</title>
<g id="a_edge7_Node000001_Node000008"><a xlink:title=" ">
<path fill="none" stroke="#63b8ff" d="M444.88,-220.59C425.45,-212.18 396.21,-199.52 373.99,-189.9"/>
<polygon fill="#63b8ff" stroke="#63b8ff" points="375.67,-186.81 365.11,-186.05 372.89,-193.24 375.67,-186.81"/>
</a>
</g>
</g>
<!-- Node11 -->
<g id="Node000011" class="node">
<title>Node11</title>
<g id="a_Node000011"><a xlink:title=" ">
<polygon fill="#e0e0e0" stroke="#999999" points="456.12,-74.5 421.38,-74.5 421.38,-55.25 456.12,-55.25 456.12,-74.5"/>
<text text-anchor="middle" x="438.75" y="-61" font-family="Helvetica,sans-Serif" font-size="10.00">map</text>
</a>
</g>
</g>
<!-- Node1&#45;&gt;Node11 -->
<g id="edge26_Node000001_Node000011" class="edge">
<title>Node1&#45;&gt;Node11</title>
<g id="a_edge26_Node000001_Node000011"><a xlink:title=" ">
<path fill="none" stroke="#63b8ff" d="M464.38,-220.65C461.33,-200.78 453.71,-151.59 446.75,-110.5 445.39,-102.45 443.81,-93.59 442.43,-85.91"/>
<polygon fill="#63b8ff" stroke="#63b8ff" points="445.9,-85.46 440.67,-76.25 439.01,-86.71 445.9,-85.46"/>
</a>
</g>
</g>
<!-- Node18 -->
<g id="Node000018" class="node">
<title>Node18</title>
<g id="a_Node000018"><a xlink:href="ss_interpolation_8h.html" target="_top" xlink:title=" ">
<polygon fill="white" stroke="#666666" points="581.75,-185 493.75,-185 493.75,-165.75 581.75,-165.75 581.75,-185"/>
<text text-anchor="middle" x="537.75" y="-171.5" font-family="Helvetica,sans-Serif" font-size="10.00">ssInterpolation.h</text>
</a>
</g>
</g>
<!-- Node1&#45;&gt;Node18 -->
<g id="edge24_Node000001_Node000018" class="edge">
<title>Node1&#45;&gt;Node18</title>
<g id="a_edge24_Node000001_Node000018"><a xlink:title=" ">
<path fill="none" stroke="#63b8ff" d="M477.96,-220.59C488.58,-212.74 504.19,-201.2 516.79,-191.87"/>
<polygon fill="#63b8ff" stroke="#63b8ff" points="518.54,-194.94 524.5,-186.17 514.38,-189.31 518.54,-194.94"/>
</a>
</g>
</g>
<!-- Node19 -->
<g id="Node000019" class="node">
<title>Node19</title>
<g id="a_Node000019"><a xlink:title=" ">
<polygon fill="#e0e0e0" stroke="#999999" points="628.15,-185 599.35,-185 599.35,-165.75 628.15,-165.75 628.15,-185"/>
<text text-anchor="middle" x="613.75" y="-171.5" font-family="Helvetica,sans-Serif" font-size="10.00">list</text>
</a>
</g>
</g>
<!-- Node1&#45;&gt;Node19 -->
<g id="edge25_Node000001_Node000019" class="edge">
<title>Node1&#45;&gt;Node19</title>
<g id="a_edge25_Node000001_Node000019"><a xlink:title=" ">
<path fill="none" stroke="#63b8ff" d="M491.65,-220.51C514.88,-212.31 550.16,-199.79 588.74,-185.7"/>
<polygon fill="#63b8ff" stroke="#63b8ff" points="589.55,-189.13 597.74,-182.41 587.15,-182.56 589.55,-189.13"/>
</a>
</g>
</g>
<!-- Node3 -->
<g id="Node000003" class="node">
<title>Node3</title>
<g id="a_Node000003"><a xlink:title=" ">
<polygon fill="#e0e0e0" stroke="#999999" points="47.5,-19.25 0,-19.25 0,0 47.5,0 47.5,-19.25"/>
<text text-anchor="middle" x="23.75" y="-5.75" font-family="Helvetica,sans-Serif" font-size="10.00">stdlib.h</text>
</a>
</g>
</g>
<!-- Node2&#45;&gt;Node3 -->
<g id="edge2_Node000002_Node000003" class="edge">
<title>Node2&#45;&gt;Node3</title>
<g id="a_edge2_Node000002_Node000003"><a xlink:title=" ">
<path fill="none" stroke="#63b8ff" d="M116.75,-54.84C99.29,-46.54 73.15,-34.11 53.03,-24.54"/>
<polygon fill="#63b8ff" stroke="#63b8ff" points="54.74,-21.49 44.21,-20.35 51.74,-27.81 54.74,-21.49"/>
</a>
</g>
</g>
<!-- Node4 -->
<g id="Node000004" class="node">
<title>Node4</title>
<g id="a_Node000004"><a xlink:title=" ">
<polygon fill="#e0e0e0" stroke="#999999" points="239.75,-19.25 199.75,-19.25 199.75,0 239.75,0 239.75,-19.25"/>
<text text-anchor="middle" x="219.75" y="-5.75" font-family="Helvetica,sans-Serif" font-size="10.00">string</text>
</a>
</g>
</g>
<!-- Node2&#45;&gt;Node4 -->
<g id="edge3_Node000002_Node000004" class="edge">
<title>Node2&#45;&gt;Node4</title>
<g id="a_edge3_Node000002_Node000004"><a xlink:title=" ">
<path fill="none" stroke="#63b8ff" d="M150,-54.84C162.55,-46.89 181.08,-35.14 195.89,-25.75"/>
<polygon fill="#63b8ff" stroke="#63b8ff" points="197.58,-28.82 204.15,-20.51 193.83,-22.91 197.58,-28.82"/>
</a>
</g>
</g>
<!-- Node5 -->
<g id="Node000005" class="node">
<title>Node5</title>
<g id="a_Node000005"><a xlink:title=" ">
<polygon fill="#e0e0e0" stroke="#999999" points="301.25,-19.25 258.25,-19.25 258.25,0 301.25,0 301.25,-19.25"/>
<text text-anchor="middle" x="279.75" y="-5.75" font-family="Helvetica,sans-Serif" font-size="10.00">vector</text>
</a>
</g>
</g>
<!-- Node2&#45;&gt;Node5 -->
<g id="edge4_Node000002_Node000005" class="edge">
<title>Node2&#45;&gt;Node5</title>
<g id="a_edge4_Node000002_Node000005"><a xlink:title=" ">
<path fill="none" stroke="#63b8ff" d="M160.18,-54.84C184.19,-45.96 220.98,-32.36 247.41,-22.58"/>
<polygon fill="#63b8ff" stroke="#63b8ff" points="248.45,-25.93 256.61,-19.18 246.02,-19.37 248.45,-25.93"/>
</a>
</g>
</g>
<!-- Node6 -->
<g id="Node000006" class="node">
<title>Node6</title>
<g id="a_Node000006"><a xlink:title=" ">
<polygon fill="#e0e0e0" stroke="#999999" points="108.25,-19.25 65.25,-19.25 65.25,0 108.25,0 108.25,-19.25"/>
<text text-anchor="middle" x="86.75" y="-5.75" font-family="Helvetica,sans-Serif" font-size="10.00">cmath</text>
</a>
</g>
</g>
<!-- Node2&#45;&gt;Node6 -->
<g id="edge5_Node000002_Node000006" class="edge">
<title>Node2&#45;&gt;Node6</title>
<g id="a_edge5_Node000002_Node000006"><a xlink:title=" ">
<path fill="none" stroke="#63b8ff" d="M127.66,-55.08C120.89,-47.73 111.03,-37.01 102.69,-27.94"/>
<polygon fill="#63b8ff" stroke="#63b8ff" points="105.39,-25.71 96.04,-20.72 100.24,-30.45 105.39,-25.71"/>
</a>
</g>
</g>
<!-- Node7 -->
<g id="Node000007" class="node">
<title>Node7</title>
<g id="a_Node000007"><a xlink:title=" ">
<polygon fill="#e0e0e0" stroke="#999999" points="181.62,-19.25 125.88,-19.25 125.88,0 181.62,0 181.62,-19.25"/>
<text text-anchor="middle" x="153.75" y="-5.75" font-family="Helvetica,sans-Serif" font-size="10.00">algorithm</text>
</a>
</g>
</g>
<!-- Node2&#45;&gt;Node7 -->
<g id="edge6_Node000002_Node000007" class="edge">
<title>Node2&#45;&gt;Node7</title>
<g id="a_edge6_Node000002_Node000007"><a xlink:title=" ">
<path fill="none" stroke="#63b8ff" d="M138.72,-55.08C141,-48.34 144.24,-38.77 147.12,-30.24"/>
<polygon fill="#63b8ff" stroke="#63b8ff" points="150.34,-31.64 150.23,-21.04 143.71,-29.4 150.34,-31.64"/>
</a>
</g>
</g>
<!-- Node8&#45;&gt;Node5 -->
<g id="edge22_Node000008_Node000005" class="edge">
<title>Node8&#45;&gt;Node5</title>
<g id="a_edge22_Node000008_Node000005"><a xlink:title=" ">
<path fill="none" stroke="#63b8ff" d="M313.49,-173.01C284.06,-169.89 240.06,-160.07 218.75,-129.75 194.73,-95.57 234.54,-50.64 260.37,-26.92"/>
<polygon fill="#63b8ff" stroke="#63b8ff" points="262.49,-29.72 267.66,-20.47 257.85,-24.47 262.49,-29.72"/>
</a>
</g>
</g>
<!-- Node9 -->
<g id="Node000009" class="node">
<title>Node9</title>
<g id="a_Node000009"><a xlink:href="ssarchiver_8h.html" target="_top" xlink:title=" ">
<polygon fill="white" stroke="#666666" points="296,-129.75 227.5,-129.75 227.5,-110.5 296,-110.5 296,-129.75"/>
<text text-anchor="middle" x="261.75" y="-116.25" font-family="Helvetica,sans-Serif" font-size="10.00">ssarchiver.h</text>
</a>
</g>
</g>
<!-- Node8&#45;&gt;Node9 -->
<g id="edge8_Node000008_Node000009" class="edge">
<title>Node8&#45;&gt;Node9</title>
<g id="a_edge8_Node000008_Node000009"><a xlink:title=" ">
<path fill="none" stroke="#63b8ff" d="M329.01,-165.34C317.02,-157.46 299.38,-145.86 285.17,-136.52"/>
<polygon fill="#63b8ff" stroke="#63b8ff" points="287.1,-133.6 276.82,-131.03 283.26,-139.45 287.1,-133.6"/>
</a>
</g>
</g>
<!-- Node8&#45;&gt;Node11 -->
<g id="edge21_Node000008_Node000011" class="edge">
<title>Node8&#45;&gt;Node11</title>
<g id="a_edge21_Node000008_Node000011"><a xlink:title=" ">
<path fill="none" stroke="#63b8ff" d="M340.91,-165.65C338.65,-152.47 336.38,-127.25 347.75,-110.5 355.34,-99.32 386.61,-85.48 410.39,-76.2"/>
<polygon fill="#63b8ff" stroke="#63b8ff" points="411.49,-79.53 419.59,-72.71 409,-72.99 411.49,-79.53"/>
</a>
</g>
</g>
<!-- Node12 -->
<g id="Node000012" class="node">
<title>Node12</title>
<g id="a_Node000012"><a xlink:href="ssstring__uty_8h.html" target="_top" xlink:title=" ">
<polygon fill="white" stroke="#666666" points="549.75,-74.5 473.75,-74.5 473.75,-55.25 549.75,-55.25 549.75,-74.5"/>
<text text-anchor="middle" x="511.75" y="-61" font-family="Helvetica,sans-Serif" font-size="10.00">ssstring_uty.h</text>
</a>
</g>
</g>
<!-- Node8&#45;&gt;Node12 -->
<g id="edge14_Node000008_Node000012" class="edge">
<title>Node8&#45;&gt;Node12</title>
<g id="a_edge14_Node000008_Node000012"><a xlink:title=" ">
<path fill="none" stroke="#63b8ff" d="M345.7,-165.61C350.74,-151.91 362.31,-125.45 380.75,-110.5 394.06,-99.71 433.23,-87.08 465.29,-78.02"/>
<polygon fill="#63b8ff" stroke="#63b8ff" points="466.13,-81.42 474.83,-75.38 464.26,-74.68 466.13,-81.42"/>
</a>
</g>
</g>
<!-- Node17 -->
<g id="Node000017" class="node">
<title>Node17</title>
<g id="a_Node000017"><a xlink:title=" ">
<polygon fill="#e0e0e0" stroke="#999999" points="437.88,-129.75 389.62,-129.75 389.62,-110.5 437.88,-110.5 437.88,-129.75"/>
<text text-anchor="middle" x="413.75" y="-116.25" font-family="Helvetica,sans-Serif" font-size="10.00">cassert</text>
</a>
</g>
</g>
<!-- Node8&#45;&gt;Node17 -->
<g id="edge23_Node000008_Node000017" class="edge">
<title>Node8&#45;&gt;Node17</title>
<g id="a_edge23_Node000008_Node000017"><a xlink:title=" ">
<path fill="none" stroke="#63b8ff" d="M354.79,-165.34C365.16,-157.57 380.35,-146.17 392.72,-136.9"/>
<polygon fill="#63b8ff" stroke="#63b8ff" points="394.77,-139.73 400.67,-130.93 390.57,-134.13 394.77,-139.73"/>
</a>
</g>
</g>
<!-- Node9&#45;&gt;Node2 -->
<g id="edge10_Node000009_Node000002" class="edge">
<title>Node9&#45;&gt;Node2</title>
<g id="a_edge10_Node000009_Node000002"><a xlink:title=" ">
<path fill="none" stroke="#63b8ff" d="M240.38,-110.09C220.46,-101.68 190.51,-89.02 167.75,-79.4"/>
<polygon fill="#63b8ff" stroke="#63b8ff" points="169.2,-76.21 158.62,-75.54 166.47,-82.66 169.2,-76.21"/>
</a>
</g>
</g>
<!-- Node9&#45;&gt;Node4 -->
<g id="edge11_Node000009_Node000004" class="edge">
<title>Node9&#45;&gt;Node4</title>
<g id="a_edge11_Node000009_Node000004"><a xlink:title=" ">
<path fill="none" stroke="#63b8ff" d="M258.31,-110.25C251.58,-92.84 236.49,-53.87 227.31,-30.16"/>
<polygon fill="#63b8ff" stroke="#63b8ff" points="230.65,-29.1 223.78,-21.04 224.13,-31.63 230.65,-29.1"/>
</a>
</g>
</g>
<!-- Node9&#45;&gt;Node5 -->
<g id="edge12_Node000009_Node000005" class="edge">
<title>Node9&#45;&gt;Node5</title>
<g id="a_edge12_Node000009_Node000005"><a xlink:title=" ">
<path fill="none" stroke="#63b8ff" d="M263.22,-110.25C266.08,-93 272.46,-54.58 276.4,-30.81"/>
<polygon fill="#63b8ff" stroke="#63b8ff" points="279.83,-31.56 278.01,-21.12 272.92,-30.41 279.83,-31.56"/>
</a>
</g>
</g>
<!-- Node10 -->
<g id="Node000010" class="node">
<title>Node10</title>
<g id="a_Node000010"><a xlink:title=" ">
<polygon fill="#e0e0e0" stroke="#999999" points="403.12,-74.5 296.38,-74.5 296.38,-55.25 403.12,-55.25 403.12,-74.5"/>
<text text-anchor="middle" x="349.75" y="-61" font-family="Helvetica,sans-Serif" font-size="10.00">./tinyxml2/tinyxml2.h</text>
</a>
</g>
</g>
<!-- Node9&#45;&gt;Node10 -->
<g id="edge9_Node000009_Node000010" class="edge">
<title>Node9&#45;&gt;Node10</title>
<g id="a_edge9_Node000009_Node000010"><a xlink:title=" ">
<path fill="none" stroke="#63b8ff" d="M276.68,-110.09C289.95,-102.06 309.62,-90.16 325.2,-80.73"/>
<polygon fill="#63b8ff" stroke="#63b8ff" points="326.71,-83.91 333.45,-75.74 323.09,-77.92 326.71,-83.91"/>
</a>
</g>
</g>
<!-- Node9&#45;&gt;Node11 -->
<g id="edge13_Node000009_Node000011" class="edge">
<title>Node9&#45;&gt;Node11</title>
<g id="a_edge13_Node000009_Node000011"><a xlink:title=" ">
<path fill="none" stroke="#63b8ff" d="M292.83,-110.08C321.01,-101.83 363.95,-89.15 410.19,-74.94"/>
<polygon fill="#63b8ff" stroke="#63b8ff" points="411.08,-78.32 419.6,-72.03 409.01,-71.63 411.08,-78.32"/>
</a>
</g>
</g>
<!-- Node12&#45;&gt;Node4 -->
<g id="edge15_Node000012_Node000004" class="edge">
<title>Node12&#45;&gt;Node4</title>
<g id="a_edge15_Node000012_Node000004"><a xlink:title=" ">
<path fill="none" stroke="#63b8ff" d="M473.29,-56.76C470.4,-56.25 467.53,-55.74 464.75,-55.25 372.35,-39.07 345.5,-40.99 250.88,-19.5"/>
<polygon fill="#63b8ff" stroke="#63b8ff" points="251.95,-16.15 241.42,-17.32 250.38,-22.97 251.95,-16.15"/>
</a>
</g>
</g>
<!-- Node12&#45;&gt;Node5 -->
<g id="edge17_Node000012_Node000005" class="edge">
<title>Node12&#45;&gt;Node5</title>
<g id="a_edge17_Node000012_Node000005"><a xlink:title=" ">
<path fill="none" stroke="#63b8ff" d="M473.44,-55.08C428.62,-44.79 355.16,-27.93 312.76,-18.2"/>
<polygon fill="#63b8ff" stroke="#63b8ff" points="313.68,-14.82 303.15,-15.99 312.11,-21.64 313.68,-14.82"/>
</a>
</g>
</g>
<!-- Node13 -->
<g id="Node000013" class="node">
<title>Node13</title>
<g id="a_Node000013"><a xlink:title=" ">
<polygon fill="#e0e0e0" stroke="#999999" points="432.25,-19.25 383.25,-19.25 383.25,0 432.25,0 432.25,-19.25"/>
<text text-anchor="middle" x="407.75" y="-5.75" font-family="Helvetica,sans-Serif" font-size="10.00">fstream</text>
</a>
</g>
</g>
<!-- Node12&#45;&gt;Node13 -->
<g id="edge16_Node000012_Node000013" class="edge">
<title>Node12&#45;&gt;Node13</title>
<g id="a_edge16_Node000012_Node000013"><a xlink:title=" ">
<path fill="none" stroke="#63b8ff" d="M494.11,-54.84C478.12,-46.66 454.29,-34.46 435.71,-24.94"/>
<polygon fill="#63b8ff" stroke="#63b8ff" points="437.32,-21.83 426.83,-20.39 434.13,-28.07 437.32,-21.83"/>
</a>
</g>
</g>
<!-- Node14 -->
<g id="Node000014" class="node">
<title>Node14</title>
<g id="a_Node000014"><a xlink:title=" ">
<polygon fill="#e0e0e0" stroke="#999999" points="503.5,-19.25 450,-19.25 450,0 503.5,0 503.5,-19.25"/>
<text text-anchor="middle" x="476.75" y="-5.75" font-family="Helvetica,sans-Serif" font-size="10.00">iostream</text>
</a>
</g>
</g>
<!-- Node12&#45;&gt;Node14 -->
<g id="edge18_Node000012_Node000014" class="edge">
<title>Node12&#45;&gt;Node14</title>
<g id="a_edge18_Node000012_Node000014"><a xlink:title=" ">
<path fill="none" stroke="#63b8ff" d="M505.97,-55.08C501.34,-48.03 494.68,-37.9 488.88,-29.08"/>
<polygon fill="#63b8ff" stroke="#63b8ff" points="491.9,-27.31 483.49,-20.87 486.05,-31.15 491.9,-27.31"/>
</a>
</g>
</g>
<!-- Node15 -->
<g id="Node000015" class="node">
<title>Node15</title>
<g id="a_Node000015"><a xlink:title=" ">
<polygon fill="#e0e0e0" stroke="#999999" points="572.38,-19.25 521.12,-19.25 521.12,0 572.38,0 572.38,-19.25"/>
<text text-anchor="middle" x="546.75" y="-5.75" font-family="Helvetica,sans-Serif" font-size="10.00">sstream</text>
</a>
</g>
</g>
<!-- Node12&#45;&gt;Node15 -->
<g id="edge19_Node000012_Node000015" class="edge">
<title>Node12&#45;&gt;Node15</title>
<g id="a_edge19_Node000012_Node000015"><a xlink:title=" ">
<path fill="none" stroke="#63b8ff" d="M517.53,-55.08C522.16,-48.03 528.82,-37.9 534.62,-29.08"/>
<polygon fill="#63b8ff" stroke="#63b8ff" points="537.45,-31.15 540.01,-20.87 531.6,-27.31 537.45,-31.15"/>
</a>
</g>
</g>
<!-- Node16 -->
<g id="Node000016" class="node">
<title>Node16</title>
<g id="a_Node000016"><a xlink:title=" ">
<polygon fill="#e0e0e0" stroke="#999999" points="636.75,-19.25 590.75,-19.25 590.75,0 636.75,0 636.75,-19.25"/>
<text text-anchor="middle" x="613.75" y="-5.75" font-family="Helvetica,sans-Serif" font-size="10.00">iterator</text>
</a>
</g>
</g>
<!-- Node12&#45;&gt;Node16 -->
<g id="edge20_Node000012_Node000016" class="edge">
<title>Node12&#45;&gt;Node16</title>
<g id="a_edge20_Node000012_Node000016"><a xlink:title=" ">
<path fill="none" stroke="#63b8ff" d="M529.05,-54.84C544.73,-46.66 568.1,-34.46 586.33,-24.94"/>
<polygon fill="#63b8ff" stroke="#63b8ff" points="587.78,-28.13 595.02,-20.4 584.54,-21.93 587.78,-28.13"/>
</a>
</g>
</g>
</g>
</svg>
