<?xml version="1.0" encoding="UTF-8" standalone="no"?>
<!DOCTYPE svg PUBLIC "-//W3C//DTD SVG 1.1//EN"
 "http://www.w3.org/Graphics/SVG/1.1/DTD/svg11.dtd">
<!-- Generated by graphviz version 9.0.0 (20230911.1827)
 -->
<!-- Title: Common/Loader/ssattribute.h Pages: 1 -->
<svg width="1506pt" height="482pt"
 viewBox="0.00 0.00 1505.50 481.50" xmlns="http://www.w3.org/2000/svg" xmlns:xlink="http://www.w3.org/1999/xlink">
<g id="graph0" class="graph" transform="scale(1 1) rotate(0) translate(4 477.5)">
<title>Common/Loader/ssattribute.h</title>
<!-- Node1 -->
<g id="Node000001" class="node">
<title>Node1</title>
<g id="a_Node000001"><a xlink:title=" ">
<polygon fill="#999999" stroke="#666666" points="672.25,-473.5 527.25,-473.5 527.25,-454.25 672.25,-454.25 672.25,-473.5"/>
<text text-anchor="middle" x="599.75" y="-460" font-family="Helvetica,sans-Serif" font-size="10.00">Common/Loader/ssattribute.h</text>
</a>
</g>
</g>
<!-- Node2 -->
<g id="Node000002" class="node">
<title>Node2</title>
<g id="a_Node000002"><a xlink:href="ssattribute_8cpp.html" target="_top" xlink:title=" ">
<polygon fill="white" stroke="#666666" points="155.5,-218.75 0,-218.75 0,-199.5 155.5,-199.5 155.5,-218.75"/>
<text text-anchor="middle" x="77.75" y="-205.25" font-family="Helvetica,sans-Serif" font-size="10.00">Common/Loader/ssattribute.cpp</text>
</a>
</g>
</g>
<!-- Node1&#45;&gt;Node2 -->
<g id="edge1_Node000001_Node000002" class="edge">
<title>Node1&#45;&gt;Node2</title>
<g id="a_edge1_Node000001_Node000002"><a xlink:title=" ">
<path fill="none" stroke="#63b8ff" d="M570.88,-448.9C475.86,-402.89 174.48,-256.96 96.38,-219.14"/>
<polygon fill="#63b8ff" stroke="#63b8ff" points="569.28,-452.01 579.81,-453.22 572.33,-445.71 569.28,-452.01"/>
</a>
</g>
</g>
<!-- Node3 -->
<g id="Node000003" class="node">
<title>Node3</title>
<g id="a_Node000003"><a xlink:href="ssloader_8h.html" target="_top" xlink:title=" ">
<polygon fill="white" stroke="#666666" points="731.38,-279.62 596.12,-279.62 596.12,-260.38 731.38,-260.38 731.38,-279.62"/>
<text text-anchor="middle" x="663.75" y="-266.12" font-family="Helvetica,sans-Serif" font-size="10.00">Common/Loader/ssloader.h</text>
</a>
</g>
</g>
<!-- Node1&#45;&gt;Node3 -->
<g id="edge2_Node000001_Node000003" class="edge">
<title>Node1&#45;&gt;Node3</title>
<g id="a_edge2_Node000001_Node000003"><a xlink:title=" ">
<path fill="none" stroke="#63b8ff" d="M605.98,-443.07C614.65,-415.63 630.97,-364.53 645.75,-321.25 650.72,-306.69 656.81,-289.89 660.48,-279.87"/>
<polygon fill="#63b8ff" stroke="#63b8ff" points="602.69,-441.86 603.02,-452.45 609.36,-443.97 602.69,-441.86"/>
</a>
</g>
</g>
<!-- Node22 -->
<g id="Node000022" class="node">
<title>Node22</title>
<g id="a_Node000022"><a xlink:href="ssloader__ssae_8h.html" target="_top" xlink:title=" ">
<polygon fill="white" stroke="#666666" points="839.62,-418.25 711.88,-418.25 711.88,-387.75 839.62,-387.75 839.62,-418.25"/>
<text text-anchor="start" x="719.88" y="-404.75" font-family="Helvetica,sans-Serif" font-size="10.00">Common/Loader/ssloader</text>
<text text-anchor="middle" x="775.75" y="-393.5" font-family="Helvetica,sans-Serif" font-size="10.00">_ssae.h</text>
</a>
</g>
</g>
<!-- Node1&#45;&gt;Node22 -->
<g id="edge39_Node000001_Node000022" class="edge">
<title>Node1&#45;&gt;Node22</title>
<g id="a_edge39_Node000001_Node000022"><a xlink:title=" ">
<path fill="none" stroke="#63b8ff" d="M637.68,-450.19C665.33,-440.94 702.87,-428.38 731.82,-418.69"/>
<polygon fill="#63b8ff" stroke="#63b8ff" points="636.67,-446.83 628.3,-453.32 638.89,-453.47 636.67,-446.83"/>
</a>
</g>
</g>
<!-- Node3&#45;&gt;Node2 -->
<g id="edge38_Node000003_Node000002" class="edge">
<title>Node3&#45;&gt;Node2</title>
<g id="a_edge38_Node000003_Node000002"><a xlink:title=" ">
<path fill="none" stroke="#63b8ff" d="M584.42,-261.03C472.05,-249.74 267.77,-229.22 155.99,-217.99"/>
<polygon fill="#63b8ff" stroke="#63b8ff" points="583.86,-264.49 594.16,-262.01 584.56,-257.53 583.86,-264.49"/>
</a>
</g>
</g>
<!-- Node4 -->
<g id="Node000004" class="node">
<title>Node4</title>
<g id="a_Node000004"><a xlink:href="ssplayer___part_state_8cpp.html" target="_top" xlink:title=" ">
<polygon fill="white" stroke="#666666" points="1497.5,-30.5 1360,-30.5 1360,0 1497.5,0 1497.5,-30.5"/>
<text text-anchor="start" x="1368" y="-17" font-family="Helvetica,sans-Serif" font-size="10.00">Common/Animator/ssplayer</text>
<text text-anchor="middle" x="1428.75" y="-5.75" font-family="Helvetica,sans-Serif" font-size="10.00">_PartState.cpp</text>
</a>
</g>
</g>
<!-- Node3&#45;&gt;Node4 -->
<g id="edge3_Node000003_Node000004" class="edge">
<title>Node3&#45;&gt;Node4</title>
<g id="a_edge3_Node000003_Node000004"><a xlink:title=" ">
<path fill="none" stroke="#63b8ff" d="M730.05,-258.32C739.34,-257 748.77,-255.77 757.75,-254.75 862.93,-242.81 1136.91,-263.71 1232.75,-218.75 1324.44,-175.73 1396,-69.88 1420.03,-30.94"/>
<polygon fill="#63b8ff" stroke="#63b8ff" points="729.72,-254.83 720.33,-259.73 730.73,-261.75 729.72,-254.83"/>
</a>
</g>
</g>
<!-- Node5 -->
<g id="Node000005" class="node">
<title>Node5</title>
<g id="a_Node000005"><a xlink:href="ssplayer__animedecode_8cpp.html" target="_top" xlink:title=" ">
<polygon fill="white" stroke="#666666" points="733.5,-30.5 596,-30.5 596,0 733.5,0 733.5,-30.5"/>
<text text-anchor="start" x="604" y="-17" font-family="Helvetica,sans-Serif" font-size="10.00">Common/Animator/ssplayer</text>
<text text-anchor="middle" x="664.75" y="-5.75" font-family="Helvetica,sans-Serif" font-size="10.00">_animedecode.cpp</text>
</a>
</g>
</g>
<!-- Node3&#45;&gt;Node5 -->
<g id="edge4_Node000003_Node000005" class="edge">
<title>Node3&#45;&gt;Node5</title>
<g id="a_edge4_Node000003_Node000005"><a xlink:title=" ">
<path fill="none" stroke="#63b8ff" d="M628.29,-255.23C612.58,-247.14 595.67,-235.22 586.75,-218.75 568.6,-185.24 575.69,-169.47 586.75,-133 599.27,-91.71 631.77,-51.71 650.63,-30.95"/>
<polygon fill="#63b8ff" stroke="#63b8ff" points="626.44,-258.23 636.97,-259.36 629.44,-251.91 626.44,-258.23"/>
</a>
</g>
</g>
<!-- Node6 -->
<g id="Node000006" class="node">
<title>Node6</title>
<g id="a_Node000006"><a xlink:href="ssplayer__animedecode_8h.html" target="_top" xlink:title=" ">
<polygon fill="white" stroke="#666666" points="1002.5,-97 865,-97 865,-66.5 1002.5,-66.5 1002.5,-97"/>
<text text-anchor="start" x="873" y="-83.5" font-family="Helvetica,sans-Serif" font-size="10.00">Common/Animator/ssplayer</text>
<text text-anchor="middle" x="933.75" y="-72.25" font-family="Helvetica,sans-Serif" font-size="10.00">_animedecode.h</text>
</a>
</g>
</g>
<!-- Node3&#45;&gt;Node6 -->
<g id="edge5_Node000003_Node000006" class="edge">
<title>Node3&#45;&gt;Node6</title>
<g id="a_edge5_Node000003_Node000006"><a xlink:title=" ">
<path fill="none" stroke="#63b8ff" d="M731.08,-258.26C740.04,-256.99 749.11,-255.78 757.75,-254.75 803.71,-249.28 1141.47,-252.86 1172.75,-218.75 1230.18,-156.12 1092.2,-114.83 1002.79,-95.49"/>
<polygon fill="#63b8ff" stroke="#63b8ff" points="730.73,-254.78 721.34,-259.68 731.74,-261.7 730.73,-254.78"/>
</a>
</g>
</g>
<!-- Node7 -->
<g id="Node000007" class="node">
<title>Node7</title>
<g id="a_Node000007"><a xlink:href="ssplayer__cellmap_8cpp.html" target="_top" xlink:title=" ">
<polygon fill="white" stroke="#666666" points="1185.5,-30.5 1048,-30.5 1048,0 1185.5,0 1185.5,-30.5"/>
<text text-anchor="start" x="1056" y="-17" font-family="Helvetica,sans-Serif" font-size="10.00">Common/Animator/ssplayer</text>
<text text-anchor="middle" x="1116.75" y="-5.75" font-family="Helvetica,sans-Serif" font-size="10.00">_cellmap.cpp</text>
</a>
</g>
</g>
<!-- Node3&#45;&gt;Node7 -->
<g id="edge15_Node000003_Node000007" class="edge">
<title>Node3&#45;&gt;Node7</title>
<g id="a_edge15_Node000003_Node000007"><a xlink:title=" ">
<path fill="none" stroke="#63b8ff" d="M730.72,-258.28C739.79,-256.99 748.99,-255.78 757.75,-254.75 805.81,-249.12 1158.98,-254.35 1191.75,-218.75 1243.55,-162.48 1165.17,-67.3 1131.19,-30.96"/>
<polygon fill="#63b8ff" stroke="#63b8ff" points="730.23,-254.82 720.83,-259.72 731.23,-261.74 730.23,-254.82"/>
</a>
</g>
</g>
<!-- Node8 -->
<g id="Node000008" class="node">
<title>Node8</title>
<g id="a_Node000008"><a xlink:href="ssplayer__effect_8cpp.html" target="_top" xlink:title=" ">
<polygon fill="white" stroke="#666666" points="265.5,-30.5 128,-30.5 128,0 265.5,0 265.5,-30.5"/>
<text text-anchor="start" x="136" y="-17" font-family="Helvetica,sans-Serif" font-size="10.00">Common/Animator/ssplayer</text>
<text text-anchor="middle" x="196.75" y="-5.75" font-family="Helvetica,sans-Serif" font-size="10.00">_effect.cpp</text>
</a>
</g>
</g>
<!-- Node3&#45;&gt;Node8 -->
<g id="edge16_Node000003_Node000008" class="edge">
<title>Node3&#45;&gt;Node8</title>
<g id="a_edge16_Node000003_Node000008"><a xlink:title=" ">
<path fill="none" stroke="#63b8ff" d="M584.39,-266.58C501.7,-259.92 373.19,-237.35 292.75,-163.5 249.14,-123.46 216.49,-59.54 203.24,-30.93"/>
<polygon fill="#63b8ff" stroke="#63b8ff" points="584.01,-270.06 594.24,-267.31 584.52,-263.08 584.01,-270.06"/>
</a>
</g>
</g>
<!-- Node9 -->
<g id="Node000009" class="node">
<title>Node9</title>
<g id="a_Node000009"><a xlink:href="ssplayer__effect2_8cpp.html" target="_top" xlink:title=" ">
<polygon fill="white" stroke="#666666" points="577.5,-30.5 440,-30.5 440,0 577.5,0 577.5,-30.5"/>
<text text-anchor="start" x="448" y="-17" font-family="Helvetica,sans-Serif" font-size="10.00">Common/Animator/ssplayer</text>
<text text-anchor="middle" x="508.75" y="-5.75" font-family="Helvetica,sans-Serif" font-size="10.00">_effect2.cpp</text>
</a>
</g>
</g>
<!-- Node3&#45;&gt;Node9 -->
<g id="edge26_Node000003_Node000009" class="edge">
<title>Node3&#45;&gt;Node9</title>
<g id="a_edge26_Node000003_Node000009"><a xlink:title=" ">
<path fill="none" stroke="#63b8ff" d="M626.42,-255.43C608.57,-247.26 588.22,-235.2 574.75,-218.75 527.09,-160.52 513.5,-66.91 509.93,-30.96"/>
<polygon fill="#63b8ff" stroke="#63b8ff" points="624.88,-258.58 635.45,-259.32 627.65,-252.15 624.88,-258.58"/>
</a>
</g>
</g>
<!-- Node10 -->
<g id="Node000010" class="node">
<title>Node10</title>
<g id="a_Node000010"><a xlink:href="ssplayer__effectfunction_8cpp.html" target="_top" xlink:title=" ">
<polygon fill="white" stroke="#666666" points="421.5,-30.5 284,-30.5 284,0 421.5,0 421.5,-30.5"/>
<text text-anchor="start" x="292" y="-17" font-family="Helvetica,sans-Serif" font-size="10.00">Common/Animator/ssplayer</text>
<text text-anchor="middle" x="352.75" y="-5.75" font-family="Helvetica,sans-Serif" font-size="10.00">_effectfunction.cpp</text>
</a>
</g>
</g>
<!-- Node3&#45;&gt;Node10 -->
<g id="edge27_Node000003_Node000010" class="edge">
<title>Node3&#45;&gt;Node10</title>
<g id="a_edge27_Node000003_Node000010"><a xlink:title=" ">
<path fill="none" stroke="#63b8ff" d="M588.77,-257.88C518.55,-244.61 413.27,-217.11 336.75,-163.5 295.61,-134.68 255.24,-110.89 278.75,-66.5 287.11,-50.72 302.89,-38.98 317.74,-30.83"/>
<polygon fill="#63b8ff" stroke="#63b8ff" points="587.77,-261.26 598.24,-259.62 589.03,-254.37 587.77,-261.26"/>
</a>
</g>
</g>
<!-- Node11 -->
<g id="Node000011" class="node">
<title>Node11</title>
<g id="a_Node000011"><a xlink:href="ssplayer__mesh_8cpp.html" target="_top" xlink:title=" ">
<polygon fill="white" stroke="#666666" points="1341.5,-30.5 1204,-30.5 1204,0 1341.5,0 1341.5,-30.5"/>
<text text-anchor="start" x="1212" y="-17" font-family="Helvetica,sans-Serif" font-size="10.00">Common/Animator/ssplayer</text>
<text text-anchor="middle" x="1272.75" y="-5.75" font-family="Helvetica,sans-Serif" font-size="10.00">_mesh.cpp</text>
</a>
</g>
</g>
<!-- Node3&#45;&gt;Node11 -->
<g id="edge28_Node000003_Node000011" class="edge">
<title>Node3&#45;&gt;Node11</title>
<g id="a_edge28_Node000003_Node000011"><a xlink:title=" ">
<path fill="none" stroke="#63b8ff" d="M730.71,-258.25C739.79,-256.97 748.99,-255.76 757.75,-254.75 807.91,-248.96 1171.38,-250.36 1210.75,-218.75 1269.81,-171.33 1273.97,-69.1 1273.34,-30.98"/>
<polygon fill="#63b8ff" stroke="#63b8ff" points="730.22,-254.79 720.83,-259.69 731.23,-261.71 730.22,-254.79"/>
</a>
</g>
</g>
<!-- Node14 -->
<g id="Node000014" class="node">
<title>Node14</title>
<g id="a_Node000014"><a xlink:href="ssplayer__effect_8h.html" target="_top" xlink:title=" ">
<polygon fill="white" stroke="#666666" points="483.5,-163.5 346,-163.5 346,-133 483.5,-133 483.5,-163.5"/>
<text text-anchor="start" x="354" y="-150" font-family="Helvetica,sans-Serif" font-size="10.00">Common/Animator/ssplayer</text>
<text text-anchor="middle" x="414.75" y="-138.75" font-family="Helvetica,sans-Serif" font-size="10.00">_effect.h</text>
</a>
</g>
</g>
<!-- Node3&#45;&gt;Node14 -->
<g id="edge17_Node000003_Node000014" class="edge">
<title>Node3&#45;&gt;Node14</title>
<g id="a_edge17_Node000003_Node000014"><a xlink:title=" ">
<path fill="none" stroke="#63b8ff" d="M617.32,-256.82C587.47,-248.12 548.33,-235.1 515.75,-218.75 484.74,-203.19 452.27,-179.27 432.78,-163.94"/>
<polygon fill="#63b8ff" stroke="#63b8ff" points="616.24,-260.15 626.81,-259.52 618.15,-253.41 616.24,-260.15"/>
</a>
</g>
</g>
<!-- Node16 -->
<g id="Node000016" class="node">
<title>Node16</title>
<g id="a_Node000016"><a xlink:href="ssplayer__types_8h.html" target="_top" xlink:title=" ">
<polygon fill="white" stroke="#666666" points="1069.5,-163.5 932,-163.5 932,-133 1069.5,-133 1069.5,-163.5"/>
<text text-anchor="start" x="940" y="-150" font-family="Helvetica,sans-Serif" font-size="10.00">Common/Animator/ssplayer</text>
<text text-anchor="middle" x="1000.75" y="-138.75" font-family="Helvetica,sans-Serif" font-size="10.00">_types.h</text>
</a>
</g>
</g>
<!-- Node3&#45;&gt;Node16 -->
<g id="edge29_Node000003_Node000016" class="edge">
<title>Node3&#45;&gt;Node16</title>
<g id="a_edge29_Node000003_Node000016"><a xlink:title=" ">
<path fill="none" stroke="#63b8ff" d="M686.81,-253.85C714.68,-235.76 760.15,-206.99 778.75,-199.5 806.15,-188.46 877.26,-173.18 931.68,-162.37"/>
<polygon fill="#63b8ff" stroke="#63b8ff" points="685.15,-250.75 678.69,-259.15 688.98,-256.62 685.15,-250.75"/>
</a>
</g>
</g>
<!-- Node17 -->
<g id="Node000017" class="node">
<title>Node17</title>
<g id="a_Node000017"><a xlink:href="ss_helper_8h.html" target="_top" xlink:title=" ">
<polygon fill="white" stroke="#666666" points="732.12,-218.75 595.38,-218.75 595.38,-199.5 732.12,-199.5 732.12,-218.75"/>
<text text-anchor="middle" x="663.75" y="-205.25" font-family="Helvetica,sans-Serif" font-size="10.00">Common/Helper/ssHelper.h</text>
</a>
</g>
</g>
<!-- Node3&#45;&gt;Node17 -->
<g id="edge31_Node000003_Node000017" class="edge">
<title>Node3&#45;&gt;Node17</title>
<g id="a_edge31_Node000003_Node000017"><a xlink:title=" ">
<path fill="none" stroke="#63b8ff" d="M663.75,-248.57C663.75,-238.54 663.75,-226.96 663.75,-219.15"/>
<polygon fill="#63b8ff" stroke="#63b8ff" points="660.25,-248.54 663.75,-258.54 667.25,-248.54 660.25,-248.54"/>
</a>
</g>
</g>
<!-- Node20 -->
<g id="Node000020" class="node">
<title>Node20</title>
<g id="a_Node000020"><a xlink:href="_ss_effect_element_8cpp.html" target="_top" xlink:title=" ">
<polygon fill="white" stroke="#666666" points="971.75,-218.75 787.75,-218.75 787.75,-199.5 971.75,-199.5 971.75,-218.75"/>
<text text-anchor="middle" x="879.75" y="-205.25" font-family="Helvetica,sans-Serif" font-size="10.00">Common/Loader/SsEffectElement.cpp</text>
</a>
</g>
</g>
<!-- Node3&#45;&gt;Node20 -->
<g id="edge36_Node000003_Node000020" class="edge">
<title>Node3&#45;&gt;Node20</title>
<g id="a_edge36_Node000003_Node000020"><a xlink:title=" ">
<path fill="none" stroke="#63b8ff" d="M708.07,-256.92C749.14,-245.73 809.32,-229.32 846.44,-219.21"/>
<polygon fill="#63b8ff" stroke="#63b8ff" points="707.21,-253.53 698.49,-259.53 709.06,-260.28 707.21,-253.53"/>
</a>
</g>
</g>
<!-- Node21 -->
<g id="Node000021" class="node">
<title>Node21</title>
<g id="a_Node000021"><a xlink:href="ss_interpolation_8cpp.html" target="_top" xlink:title=" ">
<polygon fill="white" stroke="#666666" points="1163.5,-218.75 990,-218.75 990,-199.5 1163.5,-199.5 1163.5,-218.75"/>
<text text-anchor="middle" x="1076.75" y="-205.25" font-family="Helvetica,sans-Serif" font-size="10.00">Common/Loader/ssInterpolation.cpp</text>
</a>
</g>
</g>
<!-- Node3&#45;&gt;Node21 -->
<g id="edge37_Node000003_Node000021" class="edge">
<title>Node3&#45;&gt;Node21</title>
<g id="a_edge37_Node000003_Node000021"><a xlink:title=" ">
<path fill="none" stroke="#63b8ff" d="M734.28,-258.22C742.2,-257.03 750.15,-255.86 757.75,-254.75 844.91,-242.05 945.56,-228.08 1010.12,-219.22"/>
<polygon fill="#63b8ff" stroke="#63b8ff" points="734.02,-254.72 724.65,-259.66 735.06,-261.64 734.02,-254.72"/>
</a>
</g>
</g>
<!-- Node6&#45;&gt;Node4 -->
<g id="edge6_Node000006_Node000004" class="edge">
<title>Node6&#45;&gt;Node4</title>
<g id="a_edge6_Node000006_Node000004"><a xlink:title=" ">
<path fill="none" stroke="#63b8ff" d="M1014.18,-72.52C1098.3,-63.58 1234.09,-48.17 1350.75,-30.5 1353.74,-30.05 1356.8,-29.57 1359.88,-29.07"/>
<polygon fill="#63b8ff" stroke="#63b8ff" points="1014,-69.02 1004.42,-73.56 1014.73,-75.99 1014,-69.02"/>
</a>
</g>
</g>
<!-- Node6&#45;&gt;Node5 -->
<g id="edge7_Node000006_Node000005" class="edge">
<title>Node6&#45;&gt;Node5</title>
<g id="a_edge7_Node000006_Node000005"><a xlink:title=" ">
<path fill="none" stroke="#63b8ff" d="M861.29,-63.38C818.94,-53.22 766.09,-40.55 725.86,-30.9"/>
<polygon fill="#63b8ff" stroke="#63b8ff" points="860.36,-66.75 870.9,-65.68 861.99,-59.95 860.36,-66.75"/>
</a>
</g>
</g>
<!-- Node6&#45;&gt;Node7 -->
<g id="edge8_Node000006_Node000007" class="edge">
<title>Node6&#45;&gt;Node7</title>
<g id="a_edge8_Node000006_Node000007"><a xlink:title=" ">
<path fill="none" stroke="#63b8ff" d="M985.78,-62.41C1014.07,-52.44 1048.58,-40.28 1075.07,-30.94"/>
<polygon fill="#63b8ff" stroke="#63b8ff" points="984.97,-58.99 976.7,-65.61 987.3,-65.59 984.97,-58.99"/>
</a>
</g>
</g>
<!-- Node6&#45;&gt;Node8 -->
<g id="edge9_Node000006_Node000008" class="edge">
<title>Node6&#45;&gt;Node8</title>
<g id="a_edge9_Node000006_Node000008"><a xlink:title=" ">
<path fill="none" stroke="#63b8ff" d="M853.44,-77.34C729.05,-71.44 482.49,-57.32 274.75,-30.5 271.75,-30.11 268.68,-29.69 265.59,-29.23"/>
<polygon fill="#63b8ff" stroke="#63b8ff" points="853.06,-80.82 863.21,-77.8 853.39,-73.83 853.06,-80.82"/>
</a>
</g>
</g>
<!-- Node6&#45;&gt;Node9 -->
<g id="edge10_Node000006_Node000009" class="edge">
<title>Node6&#45;&gt;Node9</title>
<g id="a_edge10_Node000006_Node000009"><a xlink:title=" ">
<path fill="none" stroke="#63b8ff" d="M853.51,-69.99C783.1,-60.33 677.98,-45.43 586.75,-30.5 583.76,-30.01 580.71,-29.5 577.63,-28.98"/>
<polygon fill="#63b8ff" stroke="#63b8ff" points="852.62,-73.4 863.01,-71.28 853.57,-66.46 852.62,-73.4"/>
</a>
</g>
</g>
<!-- Node6&#45;&gt;Node10 -->
<g id="edge11_Node000006_Node000010" class="edge">
<title>Node6&#45;&gt;Node10</title>
<g id="a_edge11_Node000006_Node000010"><a xlink:title=" ">
<path fill="none" stroke="#63b8ff" d="M853.33,-74.74C753.82,-66.84 579.33,-51.46 430.75,-30.5 427.75,-30.08 424.69,-29.62 421.6,-29.14"/>
<polygon fill="#63b8ff" stroke="#63b8ff" points="853.04,-78.23 863.28,-75.52 853.59,-71.25 853.04,-78.23"/>
</a>
</g>
</g>
<!-- Node6&#45;&gt;Node11 -->
<g id="edge12_Node000006_Node000011" class="edge">
<title>Node6&#45;&gt;Node11</title>
<g id="a_edge12_Node000006_Node000011"><a xlink:title=" ">
<path fill="none" stroke="#63b8ff" d="M1014.02,-65.48C1071.67,-54.51 1148.59,-39.87 1203.55,-29.42"/>
<polygon fill="#63b8ff" stroke="#63b8ff" points="1013.42,-62.03 1004.25,-67.34 1014.73,-68.91 1013.42,-62.03"/>
</a>
</g>
</g>
<!-- Node12 -->
<g id="Node000012" class="node">
<title>Node12</title>
<g id="a_Node000012"><a xlink:href="ssplayer__render__dx9_8cpp.html" target="_top" xlink:title=" ">
<polygon fill="white" stroke="#666666" points="881.75,-30.5 751.75,-30.5 751.75,0 881.75,0 881.75,-30.5"/>
<text text-anchor="start" x="759.75" y="-17" font-family="Helvetica,sans-Serif" font-size="10.00">Common/Drawer/ssplayer</text>
<text text-anchor="middle" x="816.75" y="-5.75" font-family="Helvetica,sans-Serif" font-size="10.00">_render_dx9.cpp</text>
</a>
</g>
</g>
<!-- Node6&#45;&gt;Node12 -->
<g id="edge13_Node000006_Node000012" class="edge">
<title>Node6&#45;&gt;Node12</title>
<g id="a_edge13_Node000006_Node000012"><a xlink:title=" ">
<path fill="none" stroke="#63b8ff" d="M897.3,-60.66C879.79,-51 859.18,-39.64 843.19,-30.83"/>
<polygon fill="#63b8ff" stroke="#63b8ff" points="895.43,-63.62 905.88,-65.38 898.81,-57.49 895.43,-63.62"/>
</a>
</g>
</g>
<!-- Node13 -->
<g id="Node000013" class="node">
<title>Node13</title>
<g id="a_Node000013"><a xlink:href="ssplayer__render__gl_8cpp.html" target="_top" xlink:title=" ">
<polygon fill="white" stroke="#666666" points="1029.75,-30.5 899.75,-30.5 899.75,0 1029.75,0 1029.75,-30.5"/>
<text text-anchor="start" x="907.75" y="-17" font-family="Helvetica,sans-Serif" font-size="10.00">Common/Drawer/ssplayer</text>
<text text-anchor="middle" x="964.75" y="-5.75" font-family="Helvetica,sans-Serif" font-size="10.00">_render_gl.cpp</text>
</a>
</g>
</g>
<!-- Node6&#45;&gt;Node13 -->
<g id="edge14_Node000006_Node000013" class="edge">
<title>Node6&#45;&gt;Node13</title>
<g id="a_edge14_Node000006_Node000013"><a xlink:title=" ">
<path fill="none" stroke="#63b8ff" d="M945.67,-55.94C949.75,-47.46 954.18,-38.24 957.74,-30.83"/>
<polygon fill="#63b8ff" stroke="#63b8ff" points="942.62,-54.22 941.44,-64.75 948.93,-57.25 942.62,-54.22"/>
</a>
</g>
</g>
<!-- Node14&#45;&gt;Node5 -->
<g id="edge18_Node000014_Node000005" class="edge">
<title>Node14&#45;&gt;Node5</title>
<g id="a_edge18_Node000014_Node000005"><a xlink:title=" ">
<path fill="none" stroke="#63b8ff" d="M447.58,-126.92C475.42,-109.98 516.63,-85.62 553.75,-66.5 578.76,-53.62 607.74,-40.56 629.82,-30.98"/>
<polygon fill="#63b8ff" stroke="#63b8ff" points="445.95,-123.8 439.25,-132.01 449.61,-129.78 445.95,-123.8"/>
</a>
</g>
</g>
<!-- Node14&#45;&gt;Node8 -->
<g id="edge19_Node000014_Node000008" class="edge">
<title>Node14&#45;&gt;Node8</title>
<g id="a_edge19_Node000014_Node000008"><a xlink:title=" ">
<path fill="none" stroke="#63b8ff" d="M348.26,-128.98C325.25,-121.05 299.94,-110.46 278.75,-97 249.91,-78.68 223.01,-48.81 208.33,-30.99"/>
<polygon fill="#63b8ff" stroke="#63b8ff" points="346.97,-132.23 357.56,-132.06 349.17,-125.59 346.97,-132.23"/>
</a>
</g>
</g>
<!-- Node14&#45;&gt;Node10 -->
<g id="edge21_Node000014_Node000010" class="edge">
<title>Node14&#45;&gt;Node10</title>
<g id="a_edge21_Node000014_Node000010"><a xlink:title=" ">
<path fill="none" stroke="#63b8ff" d="M429.82,-122.61C437.93,-105.94 444.48,-83.87 434.75,-66.5 425.69,-50.33 409.08,-38.74 393.15,-30.79"/>
<polygon fill="#63b8ff" stroke="#63b8ff" points="426.77,-120.89 425.13,-131.36 432.94,-124.2 426.77,-120.89"/>
</a>
</g>
</g>
<!-- Node14&#45;&gt;Node14 -->
<g id="edge20_Node000014_Node000014" class="edge">
<title>Node14&#45;&gt;Node14</title>
<g id="a_edge20_Node000014_Node000014"><a xlink:title=" ">
<path fill="none" stroke="#63b8ff" d="M494.73,-155.79C498.98,-153.94 501.5,-151.43 501.5,-148.25 501.5,-142.9 494.35,-139.43 483.83,-137.84"/>
<polygon fill="#63b8ff" stroke="#63b8ff" points="494.07,-152.35 485.29,-158.27 495.85,-159.11 494.07,-152.35"/>
</a>
</g>
</g>
<!-- Node15 -->
<g id="Node000015" class="node">
<title>Node15</title>
<g id="a_Node000015"><a xlink:href="ssplayer__effectfunction_8h.html" target="_top" xlink:title=" ">
<polygon fill="white" stroke="#666666" points="425.5,-97 288,-97 288,-66.5 425.5,-66.5 425.5,-97"/>
<text text-anchor="start" x="296" y="-83.5" font-family="Helvetica,sans-Serif" font-size="10.00">Common/Animator/ssplayer</text>
<text text-anchor="middle" x="356.75" y="-72.25" font-family="Helvetica,sans-Serif" font-size="10.00">_effectfunction.h</text>
</a>
</g>
</g>
<!-- Node14&#45;&gt;Node15 -->
<g id="edge22_Node000014_Node000015" class="edge">
<title>Node14&#45;&gt;Node15</title>
<g id="a_edge22_Node000014_Node000015"><a xlink:title=" ">
<path fill="none" stroke="#63b8ff" d="M393.96,-124.13C385.92,-115.19 376.97,-105.24 369.86,-97.33"/>
<polygon fill="#63b8ff" stroke="#63b8ff" points="391.29,-126.39 400.58,-131.49 396.49,-121.71 391.29,-126.39"/>
</a>
</g>
</g>
<!-- Node15&#45;&gt;Node8 -->
<g id="edge23_Node000015_Node000008" class="edge">
<title>Node15&#45;&gt;Node8</title>
<g id="a_edge23_Node000015_Node000008"><a xlink:title=" ">
<path fill="none" stroke="#63b8ff" d="M309.95,-61.88C285.47,-52.01 255.95,-40.11 233.19,-30.94"/>
<polygon fill="#63b8ff" stroke="#63b8ff" points="308.46,-65.06 319.04,-65.55 311.07,-58.56 308.46,-65.06"/>
</a>
</g>
</g>
<!-- Node15&#45;&gt;Node9 -->
<g id="edge24_Node000015_Node000009" class="edge">
<title>Node15&#45;&gt;Node9</title>
<g id="a_edge24_Node000015_Node000009"><a xlink:title=" ">
<path fill="none" stroke="#63b8ff" d="M401.53,-61.75C424.72,-51.91 452.61,-40.07 474.13,-30.94"/>
<polygon fill="#63b8ff" stroke="#63b8ff" points="400.47,-58.39 392.63,-65.52 403.21,-64.84 400.47,-58.39"/>
</a>
</g>
</g>
<!-- Node15&#45;&gt;Node10 -->
<g id="edge25_Node000015_Node000010" class="edge">
<title>Node15&#45;&gt;Node10</title>
<g id="a_edge25_Node000015_Node000010"><a xlink:title=" ">
<path fill="none" stroke="#63b8ff" d="M355.14,-54.81C354.63,-46.64 354.09,-37.91 353.65,-30.83"/>
<polygon fill="#63b8ff" stroke="#63b8ff" points="351.64,-54.84 355.75,-64.6 358.62,-54.41 351.64,-54.84"/>
</a>
</g>
</g>
<!-- Node16&#45;&gt;Node6 -->
<g id="edge30_Node000016_Node000006" class="edge">
<title>Node16&#45;&gt;Node6</title>
<g id="a_edge30_Node000016_Node000006"><a xlink:title=" ">
<path fill="none" stroke="#63b8ff" d="M977.31,-124.69C967.88,-115.61 957.28,-105.4 948.89,-97.33"/>
<polygon fill="#63b8ff" stroke="#63b8ff" points="974.82,-127.15 984.46,-131.56 979.68,-122.11 974.82,-127.15"/>
</a>
</g>
</g>
<!-- Node17&#45;&gt;Node6 -->
<g id="edge32_Node000017_Node000006" class="edge">
<title>Node17&#45;&gt;Node6</title>
<g id="a_edge32_Node000017_Node000006"><a xlink:title=" ">
<path fill="none" stroke="#63b8ff" d="M743.83,-198.8C797.44,-191.28 862.17,-179.36 884.75,-163.5 908.1,-147.1 922.34,-115.69 929.08,-97.25"/>
<polygon fill="#63b8ff" stroke="#63b8ff" points="743.52,-195.31 734.08,-200.13 744.46,-202.24 743.52,-195.31"/>
</a>
</g>
</g>
<!-- Node17&#45;&gt;Node16 -->
<g id="edge33_Node000017_Node000016" class="edge">
<title>Node17&#45;&gt;Node16</title>
<g id="a_edge33_Node000017_Node000016"><a xlink:title=" ">
<path fill="none" stroke="#63b8ff" d="M726.93,-197.09C785.17,-186.91 871.44,-171.84 931.53,-161.34"/>
<polygon fill="#63b8ff" stroke="#63b8ff" points="726.41,-193.63 717.16,-198.79 727.61,-200.52 726.41,-193.63"/>
</a>
</g>
</g>
<!-- Node18 -->
<g id="Node000018" class="node">
<title>Node18</title>
<g id="a_Node000018"><a xlink:href="_s_s_texture_d_x9_8cpp.html" target="_top" xlink:title=" ">
<polygon fill="white" stroke="#666666" points="875.38,-163.5 752.12,-163.5 752.12,-133 875.38,-133 875.38,-163.5"/>
<text text-anchor="start" x="760.12" y="-150" font-family="Helvetica,sans-Serif" font-size="10.00">Common/Helper/DirectX</text>
<text text-anchor="middle" x="813.75" y="-138.75" font-family="Helvetica,sans-Serif" font-size="10.00">/SSTextureDX9.cpp</text>
</a>
</g>
</g>
<!-- Node17&#45;&gt;Node18 -->
<g id="edge34_Node000017_Node000018" class="edge">
<title>Node17&#45;&gt;Node18</title>
<g id="a_edge34_Node000017_Node000018"><a xlink:title=" ">
<path fill="none" stroke="#63b8ff" d="M697.34,-194.94C720.78,-185.74 752.07,-173.46 776.31,-163.94"/>
<polygon fill="#63b8ff" stroke="#63b8ff" points="696.3,-191.59 688.27,-198.5 698.86,-198.11 696.3,-191.59"/>
</a>
</g>
</g>
<!-- Node19 -->
<g id="Node000019" class="node">
<title>Node19</title>
<g id="a_Node000019"><a xlink:href="ssh_texture_b_m_p_8cpp.html" target="_top" xlink:title=" ">
<polygon fill="white" stroke="#666666" points="733.88,-163.5 595.62,-163.5 595.62,-133 733.88,-133 733.88,-163.5"/>
<text text-anchor="start" x="603.62" y="-150" font-family="Helvetica,sans-Serif" font-size="10.00">Common/Helper/sshTexture</text>
<text text-anchor="middle" x="664.75" y="-138.75" font-family="Helvetica,sans-Serif" font-size="10.00">BMP.cpp</text>
</a>
</g>
</g>
<!-- Node17&#45;&gt;Node19 -->
<g id="edge35_Node000017_Node000019" class="edge">
<title>Node17&#45;&gt;Node19</title>
<g id="a_edge35_Node000017_Node000019"><a xlink:title=" ">
<path fill="none" stroke="#63b8ff" d="M664.09,-187.92C664.23,-179.99 664.38,-171.06 664.5,-163.78"/>
<polygon fill="#63b8ff" stroke="#63b8ff" points="660.6,-187.61 663.93,-197.67 667.6,-187.73 660.6,-187.61"/>
</a>
</g>
</g>
<!-- Node22&#45;&gt;Node3 -->
<g id="edge40_Node000022_Node000003" class="edge">
<title>Node22&#45;&gt;Node3</title>
<g id="a_edge40_Node000022_Node000003"><a xlink:title=" ">
<path fill="none" stroke="#63b8ff" d="M701.15,-385.8C683.72,-378.37 667.22,-367.53 656.75,-351.75 641.97,-329.47 652.99,-295.78 659.65,-279.89"/>
<polygon fill="#63b8ff" stroke="#63b8ff" points="699.47,-388.91 710.06,-389.26 702,-382.38 699.47,-388.91"/>
</a>
</g>
</g>
<!-- Node23 -->
<g id="Node000023" class="node">
<title>Node23</title>
<g id="a_Node000023"><a xlink:href="ssloader__ssae_8cpp.html" target="_top" xlink:title=" ">
<polygon fill="white" stroke="#666666" points="793.62,-351.75 665.88,-351.75 665.88,-321.25 793.62,-321.25 793.62,-351.75"/>
<text text-anchor="start" x="673.88" y="-338.25" font-family="Helvetica,sans-Serif" font-size="10.00">Common/Loader/ssloader</text>
<text text-anchor="middle" x="729.75" y="-327" font-family="Helvetica,sans-Serif" font-size="10.00">_ssae.cpp</text>
</a>
</g>
</g>
<!-- Node22&#45;&gt;Node23 -->
<g id="edge41_Node000022_Node000023" class="edge">
<title>Node22&#45;&gt;Node23</title>
<g id="a_edge41_Node000022_Node000023"><a xlink:title=" ">
<path fill="none" stroke="#63b8ff" d="M758.66,-378.04C752.44,-369.32 745.61,-359.74 740.15,-352.08"/>
<polygon fill="#63b8ff" stroke="#63b8ff" points="755.78,-380.02 764.43,-386.13 761.48,-375.96 755.78,-380.02"/>
</a>
</g>
</g>
<!-- Node24 -->
<g id="Node000024" class="node">
<title>Node24</title>
<g id="a_Node000024"><a xlink:href="ssloader__ssee_8cpp.html" target="_top" xlink:title=" ">
<polygon fill="white" stroke="#666666" points="894.62,-285.25 766.88,-285.25 766.88,-254.75 894.62,-254.75 894.62,-285.25"/>
<text text-anchor="start" x="774.88" y="-271.75" font-family="Helvetica,sans-Serif" font-size="10.00">Common/Loader/ssloader</text>
<text text-anchor="middle" x="830.75" y="-260.5" font-family="Helvetica,sans-Serif" font-size="10.00">_ssee.cpp</text>
</a>
</g>
</g>
<!-- Node22&#45;&gt;Node24 -->
<g id="edge42_Node000022_Node000024" class="edge">
<title>Node22&#45;&gt;Node24</title>
<g id="a_edge42_Node000022_Node000024"><a xlink:title=" ">
<path fill="none" stroke="#63b8ff" d="M789.93,-377.49C794.32,-369.42 798.99,-360.33 802.75,-351.75 812.65,-329.19 821.48,-301.94 826.47,-285.56"/>
<polygon fill="#63b8ff" stroke="#63b8ff" points="786.98,-375.6 785.16,-386.04 793.09,-379.01 786.98,-375.6"/>
</a>
</g>
</g>
<!-- Node25 -->
<g id="Node000025" class="node">
<title>Node25</title>
<g id="a_Node000025"><a xlink:href="ssloader__sspj_8cpp.html" target="_top" xlink:title=" ">
<polygon fill="white" stroke="#666666" points="1059.62,-285.25 931.88,-285.25 931.88,-254.75 1059.62,-254.75 1059.62,-285.25"/>
<text text-anchor="start" x="939.88" y="-271.75" font-family="Helvetica,sans-Serif" font-size="10.00">Common/Loader/ssloader</text>
<text text-anchor="middle" x="995.75" y="-260.5" font-family="Helvetica,sans-Serif" font-size="10.00">_sspj.cpp</text>
</a>
</g>
</g>
<!-- Node22&#45;&gt;Node25 -->
<g id="edge43_Node000022_Node000025" class="edge">
<title>Node22&#45;&gt;Node25</title>
<g id="a_edge43_Node000022_Node000025"><a xlink:title=" ">
<path fill="none" stroke="#63b8ff" d="M850.99,-393.26C904.06,-385.47 968.76,-372.1 986.75,-351.75 1002.82,-333.57 1001.36,-303.37 998.67,-285.51"/>
<polygon fill="#63b8ff" stroke="#63b8ff" points="850.78,-389.76 841.37,-394.63 851.76,-396.69 850.78,-389.76"/>
</a>
</g>
</g>
<!-- Node26 -->
<g id="Node000026" class="node">
<title>Node26</title>
<g id="a_Node000026"><a xlink:href="ssloader__sspj_8h.html" target="_top" xlink:title=" ">
<polygon fill="white" stroke="#666666" points="977.62,-351.75 849.88,-351.75 849.88,-321.25 977.62,-321.25 977.62,-351.75"/>
<text text-anchor="start" x="857.88" y="-338.25" font-family="Helvetica,sans-Serif" font-size="10.00">Common/Loader/ssloader</text>
<text text-anchor="middle" x="913.75" y="-327" font-family="Helvetica,sans-Serif" font-size="10.00">_sspj.h</text>
</a>
</g>
</g>
<!-- Node22&#45;&gt;Node26 -->
<g id="edge44_Node000022_Node000026" class="edge">
<title>Node22&#45;&gt;Node26</title>
<g id="a_edge44_Node000022_Node000026"><a xlink:title=" ">
<path fill="none" stroke="#63b8ff" d="M817.3,-382.58C838.26,-372.78 863.26,-361.1 882.56,-352.08"/>
<polygon fill="#63b8ff" stroke="#63b8ff" points="816.01,-379.32 808.44,-386.72 818.98,-385.66 816.01,-379.32"/>
</a>
</g>
</g>
<!-- Node26&#45;&gt;Node3 -->
<g id="edge45_Node000026_Node000003" class="edge">
<title>Node26&#45;&gt;Node3</title>
<g id="a_edge45_Node000026_Node000003"><a xlink:title=" ">
<path fill="none" stroke="#63b8ff" d="M845.59,-317.91C798.17,-305.68 736.87,-289.87 698.95,-280.08"/>
<polygon fill="#63b8ff" stroke="#63b8ff" points="844.69,-321.3 855.24,-320.41 846.43,-314.52 844.69,-321.3"/>
</a>
</g>
</g>
<!-- Node26&#45;&gt;Node24 -->
<g id="edge46_Node000026_Node000024" class="edge">
<title>Node26&#45;&gt;Node24</title>
<g id="a_edge46_Node000026_Node000024"><a xlink:title=" ">
<path fill="none" stroke="#63b8ff" d="M886.14,-314.04C874.11,-304.69 860.32,-293.98 849.51,-285.58"/>
<polygon fill="#63b8ff" stroke="#63b8ff" points="883.68,-316.56 893.72,-319.94 887.97,-311.04 883.68,-316.56"/>
</a>
</g>
</g>
<!-- Node26&#45;&gt;Node25 -->
<g id="edge47_Node000026_Node000025" class="edge">
<title>Node26&#45;&gt;Node25</title>
<g id="a_edge47_Node000026_Node000025"><a xlink:title=" ">
<path fill="none" stroke="#63b8ff" d="M941.38,-313.77C953.18,-304.48 966.64,-293.9 977.22,-285.58"/>
<polygon fill="#63b8ff" stroke="#63b8ff" points="939.24,-310.99 933.55,-319.93 943.57,-316.5 939.24,-310.99"/>
</a>
</g>
</g>
</g>
</svg>
