<?xml version="1.0" encoding="UTF-8" standalone="no"?>
<!DOCTYPE svg PUBLIC "-//W3C//DTD SVG 1.1//EN"
 "http://www.w3.org/Graphics/SVG/1.1/DTD/svg11.dtd">
<!-- Generated by graphviz version 9.0.0 (20230911.1827)
 -->
<!-- Title: Common/Loader/sscharconverter.h Pages: 1 -->
<svg width="966pt" height="94pt"
 viewBox="0.00 0.00 965.50 93.75" xmlns="http://www.w3.org/2000/svg" xmlns:xlink="http://www.w3.org/1999/xlink">
<g id="graph0" class="graph" transform="scale(1 1) rotate(0) translate(4 89.75)">
<title>Common/Loader/sscharconverter.h</title>
<!-- Node1 -->
<g id="Node000001" class="node">
<title>Node1</title>
<g id="a_Node000001"><a xlink:title=" ">
<polygon fill="#999999" stroke="#666666" points="585.88,-85.75 417.62,-85.75 417.62,-66.5 585.88,-66.5 585.88,-85.75"/>
<text text-anchor="middle" x="501.75" y="-72.25" font-family="Helvetica,sans-Serif" font-size="10.00">Common/Loader/sscharconverter.h</text>
</a>
</g>
</g>
<!-- Node2 -->
<g id="Node000002" class="node">
<title>Node2</title>
<g id="a_Node000002"><a xlink:href="ssplayer__cellmap_8cpp.html" target="_top" xlink:title=" ">
<polygon fill="white" stroke="#666666" points="137.5,-30.5 0,-30.5 0,0 137.5,0 137.5,-30.5"/>
<text text-anchor="start" x="8" y="-17" font-family="Helvetica,sans-Serif" font-size="10.00">Common/Animator/ssplayer</text>
<text text-anchor="middle" x="68.75" y="-5.75" font-family="Helvetica,sans-Serif" font-size="10.00">_cellmap.cpp</text>
</a>
</g>
</g>
<!-- Node1&#45;&gt;Node2 -->
<g id="edge1_Node000001_Node000002" class="edge">
<title>Node1&#45;&gt;Node2</title>
<g id="a_edge1_Node000001_Node000002"><a xlink:title=" ">
<path fill="none" stroke="#63b8ff" d="M407.48,-64.72C335.82,-56.46 234.89,-44.08 146.75,-30.5 143.76,-30.04 140.7,-29.55 137.62,-29.05"/>
<polygon fill="#63b8ff" stroke="#63b8ff" points="406.88,-68.18 417.22,-65.84 407.68,-61.22 406.88,-68.18"/>
</a>
</g>
</g>
<!-- Node3 -->
<g id="Node000003" class="node">
<title>Node3</title>
<g id="a_Node000003"><a xlink:href="ssarchiver_8cpp.html" target="_top" xlink:title=" ">
<polygon fill="white" stroke="#666666" points="309.75,-24.88 155.75,-24.88 155.75,-5.63 309.75,-5.63 309.75,-24.88"/>
<text text-anchor="middle" x="232.75" y="-11.38" font-family="Helvetica,sans-Serif" font-size="10.00">Common/Loader/ssarchiver.cpp</text>
</a>
</g>
</g>
<!-- Node1&#45;&gt;Node3 -->
<g id="edge2_Node000001_Node000003" class="edge">
<title>Node1&#45;&gt;Node3</title>
<g id="a_edge2_Node000001_Node000003"><a xlink:title=" ">
<path fill="none" stroke="#63b8ff" d="M449.16,-63.61C397.98,-52.41 321.25,-35.62 274.24,-25.33"/>
<polygon fill="#63b8ff" stroke="#63b8ff" points="448.31,-67.01 458.83,-65.73 449.81,-60.17 448.31,-67.01"/>
</a>
</g>
</g>
<!-- Node4 -->
<g id="Node000004" class="node">
<title>Node4</title>
<g id="a_Node000004"><a xlink:href="sscharconverter_8cpp.html" target="_top" xlink:title=" ">
<polygon fill="white" stroke="#666666" points="506.12,-24.88 327.38,-24.88 327.38,-5.63 506.12,-5.63 506.12,-24.88"/>
<text text-anchor="middle" x="416.75" y="-11.38" font-family="Helvetica,sans-Serif" font-size="10.00">Common/Loader/sscharconverter.cpp</text>
</a>
</g>
</g>
<!-- Node1&#45;&gt;Node4 -->
<g id="edge3_Node000001_Node000004" class="edge">
<title>Node1&#45;&gt;Node4</title>
<g id="a_edge3_Node000001_Node000004"><a xlink:title=" ">
<path fill="none" stroke="#63b8ff" d="M479.73,-59.88C463.89,-48.9 443.06,-34.47 429.78,-25.28"/>
<polygon fill="#63b8ff" stroke="#63b8ff" points="477.38,-62.5 487.6,-65.32 481.37,-56.75 477.38,-62.5"/>
</a>
</g>
</g>
<!-- Node5 -->
<g id="Node000005" class="node">
<title>Node5</title>
<g id="a_Node000005"><a xlink:href="ssloader__sspj_8cpp.html" target="_top" xlink:title=" ">
<polygon fill="white" stroke="#666666" points="651.62,-30.5 523.88,-30.5 523.88,0 651.62,0 651.62,-30.5"/>
<text text-anchor="start" x="531.88" y="-17" font-family="Helvetica,sans-Serif" font-size="10.00">Common/Loader/ssloader</text>
<text text-anchor="middle" x="587.75" y="-5.75" font-family="Helvetica,sans-Serif" font-size="10.00">_sspj.cpp</text>
</a>
</g>
</g>
<!-- Node1&#45;&gt;Node5 -->
<g id="edge4_Node000001_Node000005" class="edge">
<title>Node1&#45;&gt;Node5</title>
<g id="a_edge4_Node000001_Node000005"><a xlink:title=" ">
<path fill="none" stroke="#63b8ff" d="M524.06,-59.85C537.16,-50.89 553.62,-39.62 566.52,-30.78"/>
<polygon fill="#63b8ff" stroke="#63b8ff" points="522.33,-56.79 516.06,-65.33 526.29,-62.57 522.33,-56.79"/>
</a>
</g>
</g>
<!-- Node6 -->
<g id="Node000006" class="node">
<title>Node6</title>
<g id="a_Node000006"><a xlink:href="ssstring__uty_8cpp.html" target="_top" xlink:title=" ">
<polygon fill="white" stroke="#666666" points="795.5,-30.5 670,-30.5 670,0 795.5,0 795.5,-30.5"/>
<text text-anchor="start" x="678" y="-17" font-family="Helvetica,sans-Serif" font-size="10.00">Common/Loader/ssstring</text>
<text text-anchor="middle" x="732.75" y="-5.75" font-family="Helvetica,sans-Serif" font-size="10.00">_uty.cpp</text>
</a>
</g>
</g>
<!-- Node1&#45;&gt;Node6 -->
<g id="edge5_Node000001_Node000006" class="edge">
<title>Node1&#45;&gt;Node6</title>
<g id="a_edge5_Node000001_Node000006"><a xlink:title=" ">
<path fill="none" stroke="#63b8ff" d="M548.19,-63.29C584.75,-53.97 635.91,-40.93 675.09,-30.94"/>
<polygon fill="#63b8ff" stroke="#63b8ff" points="547.63,-59.82 538.8,-65.68 549.36,-66.6 547.63,-59.82"/>
</a>
</g>
</g>
<!-- Node7 -->
<g id="Node000007" class="node">
<title>Node7</title>
<g id="a_Node000007"><a xlink:href="ssvalue_8cpp.html" target="_top" xlink:title=" ">
<polygon fill="white" stroke="#666666" points="957.5,-24.88 814,-24.88 814,-5.63 957.5,-5.63 957.5,-24.88"/>
<text text-anchor="middle" x="885.75" y="-11.38" font-family="Helvetica,sans-Serif" font-size="10.00">Common/Loader/ssvalue.cpp</text>
</a>
</g>
</g>
<!-- Node1&#45;&gt;Node7 -->
<g id="edge6_Node000001_Node000007" class="edge">
<title>Node1&#45;&gt;Node7</title>
<g id="a_edge6_Node000001_Node000007"><a xlink:title=" ">
<path fill="none" stroke="#63b8ff" d="M578.27,-64.46C639.59,-55.76 727.79,-42.94 804.75,-30.5 814.62,-28.91 825.14,-27.12 835.23,-25.36"/>
<polygon fill="#63b8ff" stroke="#63b8ff" points="578.05,-60.95 568.64,-65.82 579.03,-67.88 578.05,-60.95"/>
</a>
</g>
</g>
</g>
</svg>
