<?xml version="1.0" encoding="UTF-8" standalone="no"?>
<!DOCTYPE svg PUBLIC "-//W3C//DTD SVG 1.1//EN"
 "http://www.w3.org/Graphics/SVG/1.1/DTD/svg11.dtd">
<!-- Generated by graphviz version 12.2.1 (20241206.2353)
 -->
<!-- Title: Common/Loader/sscharconverter.h Pages: 1 -->
<svg width="1152pt" height="94pt"
 viewBox="0.00 0.00 1151.50 93.75" xmlns="http://www.w3.org/2000/svg" xmlns:xlink="http://www.w3.org/1999/xlink">
<g id="graph0" class="graph" transform="scale(1 1) rotate(0) translate(4 89.75)">
<title>Common/Loader/sscharconverter.h</title>
<!-- Node1 -->
<g id="Node000001" class="node">
<title>Node1</title>
<g id="a_Node000001"><a xlink:title=" ">
<polygon fill="#999999" stroke="#666666" points="686.88,-85.75 518.62,-85.75 518.62,-66.5 686.88,-66.5 686.88,-85.75"/>
<text text-anchor="middle" x="602.75" y="-72.25" font-family="Helvetica,sans-Serif" font-size="10.00">Common/Loader/sscharconverter.h</text>
</a>
</g>
</g>
<!-- Node2 -->
<g id="Node000002" class="node">
<title>Node2</title>
<g id="a_Node000002"><a xlink:href="ssplayer__cellmap_8cpp.html" target="_top" xlink:title=" ">
<polygon fill="white" stroke="#666666" points="137.5,-30.5 0,-30.5 0,0 137.5,0 137.5,-30.5"/>
<text text-anchor="start" x="8" y="-17" font-family="Helvetica,sans-Serif" font-size="10.00">Common/Animator/ssplayer</text>
<text text-anchor="middle" x="68.75" y="-5.75" font-family="Helvetica,sans-Serif" font-size="10.00">_cellmap.cpp</text>
</a>
</g>
</g>
<!-- Node1&#45;&gt;Node2 -->
<g id="edge1_Node000001_Node000002" class="edge">
<title>Node1&#45;&gt;Node2</title>
<g id="a_edge1_Node000001_Node000002"><a xlink:title=" ">
<path fill="none" stroke="#63b8ff" d="M507.16,-68.1C414.71,-60.75 270.77,-47.87 146.75,-30.5 143.75,-30.08 140.69,-29.63 137.6,-29.15"/>
<polygon fill="#63b8ff" stroke="#63b8ff" points="506.7,-71.57 516.95,-68.87 507.25,-64.59 506.7,-71.57"/>
</a>
</g>
</g>
<!-- Node3 -->
<g id="Node000003" class="node">
<title>Node3</title>
<g id="a_Node000003"><a xlink:href="ss_filesystem_8cpp.html" target="_top" xlink:title=" ">
<polygon fill="white" stroke="#666666" points="323.88,-24.88 155.62,-24.88 155.62,-5.63 323.88,-5.63 323.88,-24.88"/>
<text text-anchor="middle" x="239.75" y="-11.38" font-family="Helvetica,sans-Serif" font-size="10.00">Common/Loader/ssFilesystem.cpp</text>
</a>
</g>
</g>
<!-- Node1&#45;&gt;Node3 -->
<g id="edge2_Node000001_Node000003" class="edge">
<title>Node1&#45;&gt;Node3</title>
<g id="a_edge2_Node000001_Node000003"><a xlink:title=" ">
<path fill="none" stroke="#63b8ff" d="M535.66,-64.24C466.65,-53.05 360.38,-35.82 295.74,-25.33"/>
<polygon fill="#63b8ff" stroke="#63b8ff" points="534.9,-67.67 545.33,-65.81 536.02,-60.76 534.9,-67.67"/>
</a>
</g>
</g>
<!-- Node4 -->
<g id="Node000004" class="node">
<title>Node4</title>
<g id="a_Node000004"><a xlink:href="ssarchiver_8cpp.html" target="_top" xlink:title=" ">
<polygon fill="white" stroke="#666666" points="495.75,-24.88 341.75,-24.88 341.75,-5.63 495.75,-5.63 495.75,-24.88"/>
<text text-anchor="middle" x="418.75" y="-11.38" font-family="Helvetica,sans-Serif" font-size="10.00">Common/Loader/ssarchiver.cpp</text>
</a>
</g>
</g>
<!-- Node1&#45;&gt;Node4 -->
<g id="edge3_Node000001_Node000004" class="edge">
<title>Node1&#45;&gt;Node4</title>
<g id="a_edge3_Node000001_Node000004"><a xlink:title=" ">
<path fill="none" stroke="#63b8ff" d="M563.64,-62.61C528.7,-51.43 478.34,-35.32 447.13,-25.33"/>
<polygon fill="#63b8ff" stroke="#63b8ff" points="562.37,-65.88 572.96,-65.59 564.5,-59.21 562.37,-65.88"/>
</a>
</g>
</g>
<!-- Node5 -->
<g id="Node000005" class="node">
<title>Node5</title>
<g id="a_Node000005"><a xlink:href="sscharconverter_8cpp.html" target="_top" xlink:title=" ">
<polygon fill="white" stroke="#666666" points="692.12,-24.88 513.38,-24.88 513.38,-5.63 692.12,-5.63 692.12,-24.88"/>
<text text-anchor="middle" x="602.75" y="-11.38" font-family="Helvetica,sans-Serif" font-size="10.00">Common/Loader/sscharconverter.cpp</text>
</a>
</g>
</g>
<!-- Node1&#45;&gt;Node5 -->
<g id="edge4_Node000001_Node000005" class="edge">
<title>Node1&#45;&gt;Node5</title>
<g id="a_edge4_Node000001_Node000005"><a xlink:title=" ">
<path fill="none" stroke="#63b8ff" d="M602.75,-54.7C602.75,-44.67 602.75,-33.08 602.75,-25.28"/>
<polygon fill="#63b8ff" stroke="#63b8ff" points="599.25,-54.67 602.75,-64.67 606.25,-54.67 599.25,-54.67"/>
</a>
</g>
</g>
<!-- Node6 -->
<g id="Node000006" class="node">
<title>Node6</title>
<g id="a_Node000006"><a xlink:href="ssloader__sspj_8cpp.html" target="_top" xlink:title=" ">
<polygon fill="white" stroke="#666666" points="837.62,-30.5 709.88,-30.5 709.88,0 837.62,0 837.62,-30.5"/>
<text text-anchor="start" x="717.88" y="-17" font-family="Helvetica,sans-Serif" font-size="10.00">Common/Loader/ssloader</text>
<text text-anchor="middle" x="773.75" y="-5.75" font-family="Helvetica,sans-Serif" font-size="10.00">_sspj.cpp</text>
</a>
</g>
</g>
<!-- Node1&#45;&gt;Node6 -->
<g id="edge5_Node000001_Node000006" class="edge">
<title>Node1&#45;&gt;Node6</title>
<g id="a_edge5_Node000001_Node000006"><a xlink:title=" ">
<path fill="none" stroke="#63b8ff" d="M639.96,-62.31C666.79,-53.07 703.06,-40.59 731.07,-30.94"/>
<polygon fill="#63b8ff" stroke="#63b8ff" points="638.84,-59 630.53,-65.56 641.12,-65.62 638.84,-59"/>
</a>
</g>
</g>
<!-- Node7 -->
<g id="Node000007" class="node">
<title>Node7</title>
<g id="a_Node000007"><a xlink:href="ssstring__uty_8cpp.html" target="_top" xlink:title=" ">
<polygon fill="white" stroke="#666666" points="981.5,-30.5 856,-30.5 856,0 981.5,0 981.5,-30.5"/>
<text text-anchor="start" x="864" y="-17" font-family="Helvetica,sans-Serif" font-size="10.00">Common/Loader/ssstring</text>
<text text-anchor="middle" x="918.75" y="-5.75" font-family="Helvetica,sans-Serif" font-size="10.00">_uty.cpp</text>
</a>
</g>
</g>
<!-- Node1&#45;&gt;Node7 -->
<g id="edge6_Node000001_Node000007" class="edge">
<title>Node1&#45;&gt;Node7</title>
<g id="a_edge6_Node000001_Node000007"><a xlink:title=" ">
<path fill="none" stroke="#63b8ff" d="M664.86,-64.02C714.19,-55.14 784.94,-42.27 846.75,-30.5 849.63,-29.95 852.57,-29.39 855.54,-28.81"/>
<polygon fill="#63b8ff" stroke="#63b8ff" points="664.44,-60.54 655.22,-65.76 665.68,-67.43 664.44,-60.54"/>
</a>
</g>
</g>
<!-- Node8 -->
<g id="Node000008" class="node">
<title>Node8</title>
<g id="a_Node000008"><a xlink:href="ssvalue_8cpp.html" target="_top" xlink:title=" ">
<polygon fill="white" stroke="#666666" points="1143.5,-24.88 1000,-24.88 1000,-5.63 1143.5,-5.63 1143.5,-24.88"/>
<text text-anchor="middle" x="1071.75" y="-11.38" font-family="Helvetica,sans-Serif" font-size="10.00">Common/Loader/ssvalue.cpp</text>
</a>
</g>
</g>
<!-- Node1&#45;&gt;Node8 -->
<g id="edge7_Node000001_Node000008" class="edge">
<title>Node1&#45;&gt;Node8</title>
<g id="a_edge7_Node000001_Node000008"><a xlink:title=" ">
<path fill="none" stroke="#63b8ff" d="M698.67,-65.7C777.32,-57.59 891.46,-44.93 990.75,-30.5 1001.21,-28.98 1012.39,-27.15 1023,-25.31"/>
<polygon fill="#63b8ff" stroke="#63b8ff" points="698.43,-62.21 688.84,-66.71 699.14,-69.17 698.43,-62.21"/>
</a>
</g>
</g>
</g>
</svg>
