<?xml version="1.0" encoding="UTF-8" standalone="no"?>
<!DOCTYPE svg PUBLIC "-//W3C//DTD SVG 1.1//EN"
 "http://www.w3.org/Graphics/SVG/1.1/DTD/svg11.dtd">
<!-- Generated by graphviz version 12.2.1 (20241206.2353)
 -->
<!-- Title: Common/Helper/sshObject.cpp Pages: 1 -->
<svg width="168pt" height="193pt"
 viewBox="0.00 0.00 168.25 193.00" xmlns="http://www.w3.org/2000/svg" xmlns:xlink="http://www.w3.org/1999/xlink">
<g id="graph0" class="graph" transform="scale(1 1) rotate(0) translate(4 189)">
<title>Common/Helper/sshObject.cpp</title>
<!-- Node1 -->
<g id="Node000001" class="node">
<title>Node1</title>
<g id="a_Node000001"><a xlink:title=" ">
<polygon fill="#999999" stroke="#666666" points="153.25,-185 0,-185 0,-165.75 153.25,-165.75 153.25,-185"/>
<text text-anchor="middle" x="76.62" y="-171.5" font-family="Helvetica,sans-Serif" font-size="10.00">Common/Helper/sshObject.cpp</text>
</a>
</g>
</g>
<!-- Node2 -->
<g id="Node000002" class="node">
<title>Node2</title>
<g id="a_Node000002"><a xlink:href="ssh_object_8h.html" target="_top" xlink:title=" ">
<polygon fill="white" stroke="#666666" points="110.88,-129.75 42.38,-129.75 42.38,-110.5 110.88,-110.5 110.88,-129.75"/>
<text text-anchor="middle" x="76.62" y="-116.25" font-family="Helvetica,sans-Serif" font-size="10.00">sshObject.h</text>
</a>
</g>
</g>
<!-- Node1&#45;&gt;Node2 -->
<g id="edge1_Node000001_Node000002" class="edge">
<title>Node1&#45;&gt;Node2</title>
<g id="a_edge1_Node000001_Node000002"><a xlink:title=" ">
<path fill="none" stroke="#63b8ff" d="M76.62,-165.58C76.62,-159.07 76.62,-149.92 76.62,-141.62"/>
<polygon fill="#63b8ff" stroke="#63b8ff" points="80.13,-141.62 76.63,-131.62 73.13,-141.62 80.13,-141.62"/>
</a>
</g>
</g>
<!-- Node3 -->
<g id="Node000003" class="node">
<title>Node3</title>
<g id="a_Node000003"><a xlink:href="ssh_task_8h.html" target="_top" xlink:title=" ">
<polygon fill="white" stroke="#666666" points="107.12,-74.5 46.12,-74.5 46.12,-55.25 107.12,-55.25 107.12,-74.5"/>
<text text-anchor="middle" x="76.62" y="-61" font-family="Helvetica,sans-Serif" font-size="10.00">sshTask.h</text>
</a>
</g>
</g>
<!-- Node2&#45;&gt;Node3 -->
<g id="edge2_Node000002_Node000003" class="edge">
<title>Node2&#45;&gt;Node3</title>
<g id="a_edge2_Node000002_Node000003"><a xlink:title=" ">
<path fill="none" stroke="#63b8ff" d="M76.62,-110.33C76.62,-103.82 76.62,-94.67 76.62,-86.37"/>
<polygon fill="#63b8ff" stroke="#63b8ff" points="80.13,-86.37 76.63,-76.37 73.13,-86.37 80.13,-86.37"/>
</a>
</g>
</g>
<!-- Node4 -->
<g id="Node000004" class="node">
<title>Node4</title>
<g id="a_Node000004"><a xlink:title=" ">
<polygon fill="#e0e0e0" stroke="#999999" points="44.12,-19.25 1.12,-19.25 1.12,0 44.12,0 44.12,-19.25"/>
<text text-anchor="middle" x="22.62" y="-5.75" font-family="Helvetica,sans-Serif" font-size="10.00">vector</text>
</a>
</g>
</g>
<!-- Node3&#45;&gt;Node4 -->
<g id="edge3_Node000003_Node000004" class="edge">
<title>Node3&#45;&gt;Node4</title>
<g id="a_edge3_Node000003_Node000004"><a xlink:title=" ">
<path fill="none" stroke="#63b8ff" d="M67.71,-55.08C60.17,-47.65 49.16,-36.79 39.9,-27.66"/>
<polygon fill="#63b8ff" stroke="#63b8ff" points="42.39,-25.2 32.81,-20.67 37.48,-30.19 42.39,-25.2"/>
</a>
</g>
</g>
<!-- Node5 -->
<g id="Node000005" class="node">
<title>Node5</title>
<g id="a_Node000005"><a xlink:title=" ">
<polygon fill="#e0e0e0" stroke="#999999" points="91.03,-19.25 62.23,-19.25 62.23,0 91.03,0 91.03,-19.25"/>
<text text-anchor="middle" x="76.62" y="-5.75" font-family="Helvetica,sans-Serif" font-size="10.00">list</text>
</a>
</g>
</g>
<!-- Node3&#45;&gt;Node5 -->
<g id="edge4_Node000003_Node000005" class="edge">
<title>Node3&#45;&gt;Node5</title>
<g id="a_edge4_Node000003_Node000005"><a xlink:title=" ">
<path fill="none" stroke="#63b8ff" d="M76.62,-55.08C76.62,-48.57 76.62,-39.42 76.62,-31.12"/>
<polygon fill="#63b8ff" stroke="#63b8ff" points="80.13,-31.12 76.63,-21.12 73.13,-31.12 80.13,-31.12"/>
</a>
</g>
</g>
<!-- Node6 -->
<g id="Node000006" class="node">
<title>Node6</title>
<g id="a_Node000006"><a xlink:title=" ">
<polygon fill="#e0e0e0" stroke="#999999" points="160.25,-19.25 109,-19.25 109,0 160.25,0 160.25,-19.25"/>
<text text-anchor="middle" x="134.62" y="-5.75" font-family="Helvetica,sans-Serif" font-size="10.00">memory</text>
</a>
</g>
</g>
<!-- Node3&#45;&gt;Node6 -->
<g id="edge5_Node000003_Node000006" class="edge">
<title>Node3&#45;&gt;Node6</title>
<g id="a_edge5_Node000003_Node000006"><a xlink:title=" ">
<path fill="none" stroke="#63b8ff" d="M86.46,-54.84C94.68,-47.3 106.61,-36.35 116.54,-27.23"/>
<polygon fill="#63b8ff" stroke="#63b8ff" points="118.82,-29.89 123.82,-20.55 114.08,-24.73 118.82,-29.89"/>
</a>
</g>
</g>
</g>
</svg>
