<?xml version="1.0" encoding="UTF-8" standalone="no"?>
<!DOCTYPE svg PUBLIC "-//W3C//DTD SVG 1.1//EN"
 "http://www.w3.org/Graphics/SVG/1.1/DTD/svg11.dtd">
<!-- Generated by graphviz version 9.0.0 (20230911.1827)
 -->
<!-- Title: Common/Helper/sshTask.h Pages: 1 -->
<svg width="1378pt" height="393pt"
 viewBox="0.00 0.00 1377.75 392.50" xmlns="http://www.w3.org/2000/svg" xmlns:xlink="http://www.w3.org/1999/xlink">
<g id="graph0" class="graph" transform="scale(1 1) rotate(0) translate(4 388.5)">
<title>Common/Helper/sshTask.h</title>
<!-- Node1 -->
<g id="Node000001" class="node">
<title>Node1</title>
<g id="a_Node000001"><a xlink:title=" ">
<polygon fill="#999999" stroke="#666666" points="966.38,-384.5 831.12,-384.5 831.12,-365.25 966.38,-365.25 966.38,-384.5"/>
<text text-anchor="middle" x="898.75" y="-371" font-family="Helvetica,sans-Serif" font-size="10.00">Common/Helper/sshTask.h</text>
</a>
</g>
</g>
<!-- Node2 -->
<g id="Node000002" class="node">
<title>Node2</title>
<g id="a_Node000002"><a xlink:href="ss_helper_8h.html" target="_top" xlink:title=" ">
<polygon fill="white" stroke="#666666" points="884.12,-218.75 747.38,-218.75 747.38,-199.5 884.12,-199.5 884.12,-218.75"/>
<text text-anchor="middle" x="815.75" y="-205.25" font-family="Helvetica,sans-Serif" font-size="10.00">Common/Helper/ssHelper.h</text>
</a>
</g>
</g>
<!-- Node1&#45;&gt;Node2 -->
<g id="edge1_Node000001_Node000002" class="edge">
<title>Node1&#45;&gt;Node2</title>
<g id="a_edge1_Node000001_Node000002"><a xlink:title=" ">
<path fill="none" stroke="#63b8ff" d="M856.6,-360.29C842.06,-353.39 827.29,-343.38 818.75,-329.25 797.14,-293.48 807.76,-239.99 813.21,-219.02"/>
<polygon fill="#63b8ff" stroke="#63b8ff" points="855.09,-363.46 865.66,-364.19 857.86,-357.03 855.09,-363.46"/>
</a>
</g>
</g>
<!-- Node16 -->
<g id="Node000016" class="node">
<title>Node16</title>
<g id="a_Node000016"><a xlink:href="ssh_object_8h.html" target="_top" xlink:title=" ">
<polygon fill="white" stroke="#666666" points="970.12,-329.25 827.38,-329.25 827.38,-310 970.12,-310 970.12,-329.25"/>
<text text-anchor="middle" x="898.75" y="-315.75" font-family="Helvetica,sans-Serif" font-size="10.00">Common/Helper/sshObject.h</text>
</a>
</g>
</g>
<!-- Node1&#45;&gt;Node16 -->
<g id="edge16_Node000001_Node000016" class="edge">
<title>Node1&#45;&gt;Node16</title>
<g id="a_edge16_Node000001_Node000016"><a xlink:title=" ">
<path fill="none" stroke="#63b8ff" d="M898.75,-353.63C898.75,-345.34 898.75,-336.17 898.75,-329.61"/>
<polygon fill="#63b8ff" stroke="#63b8ff" points="895.25,-353.57 898.75,-363.57 902.25,-353.57 895.25,-353.57"/>
</a>
</g>
</g>
<!-- Node20 -->
<g id="Node000020" class="node">
<title>Node20</title>
<g id="a_Node000020"><a xlink:href="ssh_task_8cpp.html" target="_top" xlink:title=" ">
<polygon fill="white" stroke="#666666" points="1133.62,-329.25 987.88,-329.25 987.88,-310 1133.62,-310 1133.62,-329.25"/>
<text text-anchor="middle" x="1060.75" y="-315.75" font-family="Helvetica,sans-Serif" font-size="10.00">Common/Helper/sshTask.cpp</text>
</a>
</g>
</g>
<!-- Node1&#45;&gt;Node20 -->
<g id="edge22_Node000001_Node000020" class="edge">
<title>Node1&#45;&gt;Node20</title>
<g id="a_edge22_Node000001_Node000020"><a xlink:title=" ">
<path fill="none" stroke="#63b8ff" d="M936.98,-361.31C966.51,-351.6 1006.67,-338.4 1033.13,-329.7"/>
<polygon fill="#63b8ff" stroke="#63b8ff" points="936.08,-357.92 927.67,-364.37 938.26,-364.57 936.08,-357.92"/>
</a>
</g>
</g>
<!-- Node3 -->
<g id="Node000003" class="node">
<title>Node3</title>
<g id="a_Node000003"><a xlink:href="ssplayer__animedecode_8h.html" target="_top" xlink:title=" ">
<polygon fill="white" stroke="#666666" points="761.5,-97 624,-97 624,-66.5 761.5,-66.5 761.5,-97"/>
<text text-anchor="start" x="632" y="-83.5" font-family="Helvetica,sans-Serif" font-size="10.00">Common/Animator/ssplayer</text>
<text text-anchor="middle" x="692.75" y="-72.25" font-family="Helvetica,sans-Serif" font-size="10.00">_animedecode.h</text>
</a>
</g>
</g>
<!-- Node2&#45;&gt;Node3 -->
<g id="edge2_Node000002_Node000003" class="edge">
<title>Node2&#45;&gt;Node3</title>
<g id="a_edge2_Node000002_Node000003"><a xlink:title=" ">
<path fill="none" stroke="#63b8ff" d="M749.73,-196.82C713.79,-189.18 674.5,-177.87 663.75,-163.5 648.66,-143.35 666.13,-114.61 679.75,-97.41"/>
<polygon fill="#63b8ff" stroke="#63b8ff" points="748.76,-200.2 759.26,-198.77 750.16,-193.34 748.76,-200.2"/>
</a>
</g>
</g>
<!-- Node13 -->
<g id="Node000013" class="node">
<title>Node13</title>
<g id="a_Node000013"><a xlink:href="ssplayer__types_8h.html" target="_top" xlink:title=" ">
<polygon fill="white" stroke="#666666" points="810.5,-163.5 673,-163.5 673,-133 810.5,-133 810.5,-163.5"/>
<text text-anchor="start" x="681" y="-150" font-family="Helvetica,sans-Serif" font-size="10.00">Common/Animator/ssplayer</text>
<text text-anchor="middle" x="741.75" y="-138.75" font-family="Helvetica,sans-Serif" font-size="10.00">_types.h</text>
</a>
</g>
</g>
<!-- Node2&#45;&gt;Node13 -->
<g id="edge12_Node000002_Node000013" class="edge">
<title>Node2&#45;&gt;Node13</title>
<g id="a_edge12_Node000002_Node000013"><a xlink:title=" ">
<path fill="none" stroke="#63b8ff" d="M795.55,-192.06C784.45,-183.23 770.79,-172.36 760.02,-163.78"/>
<polygon fill="#63b8ff" stroke="#63b8ff" points="793.32,-194.75 803.33,-198.24 797.68,-189.28 793.32,-194.75"/>
</a>
</g>
</g>
<!-- Node14 -->
<g id="Node000014" class="node">
<title>Node14</title>
<g id="a_Node000014"><a xlink:href="_s_s_texture_d_x9_8cpp.html" target="_top" xlink:title=" ">
<polygon fill="white" stroke="#666666" points="951.38,-163.5 828.12,-163.5 828.12,-133 951.38,-133 951.38,-163.5"/>
<text text-anchor="start" x="836.12" y="-150" font-family="Helvetica,sans-Serif" font-size="10.00">Common/Helper/DirectX</text>
<text text-anchor="middle" x="889.75" y="-138.75" font-family="Helvetica,sans-Serif" font-size="10.00">/SSTextureDX9.cpp</text>
</a>
</g>
</g>
<!-- Node2&#45;&gt;Node14 -->
<g id="edge14_Node000002_Node000014" class="edge">
<title>Node2&#45;&gt;Node14</title>
<g id="a_edge14_Node000002_Node000014"><a xlink:title=" ">
<path fill="none" stroke="#63b8ff" d="M835.95,-192.06C847.05,-183.23 860.71,-172.36 871.48,-163.78"/>
<polygon fill="#63b8ff" stroke="#63b8ff" points="833.82,-189.28 828.17,-198.24 838.18,-194.75 833.82,-189.28"/>
</a>
</g>
</g>
<!-- Node15 -->
<g id="Node000015" class="node">
<title>Node15</title>
<g id="a_Node000015"><a xlink:href="ssh_texture_b_m_p_8cpp.html" target="_top" xlink:title=" ">
<polygon fill="white" stroke="#666666" points="1107.88,-163.5 969.62,-163.5 969.62,-133 1107.88,-133 1107.88,-163.5"/>
<text text-anchor="start" x="977.62" y="-150" font-family="Helvetica,sans-Serif" font-size="10.00">Common/Helper/sshTexture</text>
<text text-anchor="middle" x="1038.75" y="-138.75" font-family="Helvetica,sans-Serif" font-size="10.00">BMP.cpp</text>
</a>
</g>
</g>
<!-- Node2&#45;&gt;Node15 -->
<g id="edge15_Node000002_Node000015" class="edge">
<title>Node2&#45;&gt;Node15</title>
<g id="a_edge15_Node000002_Node000015"><a xlink:title=" ">
<path fill="none" stroke="#63b8ff" d="M861.04,-196.17C896.3,-186.86 945.43,-173.89 983.09,-163.94"/>
<polygon fill="#63b8ff" stroke="#63b8ff" points="860.34,-192.73 851.57,-198.67 862.13,-199.5 860.34,-192.73"/>
</a>
</g>
</g>
<!-- Node4 -->
<g id="Node000004" class="node">
<title>Node4</title>
<g id="a_Node000004"><a xlink:href="ssplayer___part_state_8cpp.html" target="_top" xlink:title=" ">
<polygon fill="white" stroke="#666666" points="137.5,-30.5 0,-30.5 0,0 137.5,0 137.5,-30.5"/>
<text text-anchor="start" x="8" y="-17" font-family="Helvetica,sans-Serif" font-size="10.00">Common/Animator/ssplayer</text>
<text text-anchor="middle" x="68.75" y="-5.75" font-family="Helvetica,sans-Serif" font-size="10.00">_PartState.cpp</text>
</a>
</g>
</g>
<!-- Node3&#45;&gt;Node4 -->
<g id="edge3_Node000003_Node000004" class="edge">
<title>Node3&#45;&gt;Node4</title>
<g id="a_edge3_Node000003_Node000004"><a xlink:title=" ">
<path fill="none" stroke="#63b8ff" d="M612.26,-75.59C505.53,-68.24 311.45,-53.08 146.75,-30.5 143.75,-30.09 140.69,-29.64 137.6,-29.17"/>
<polygon fill="#63b8ff" stroke="#63b8ff" points="611.85,-79.07 622.06,-76.26 612.32,-72.09 611.85,-79.07"/>
</a>
</g>
</g>
<!-- Node5 -->
<g id="Node000005" class="node">
<title>Node5</title>
<g id="a_Node000005"><a xlink:href="ssplayer__animedecode_8cpp.html" target="_top" xlink:title=" ">
<polygon fill="white" stroke="#666666" points="293.5,-30.5 156,-30.5 156,0 293.5,0 293.5,-30.5"/>
<text text-anchor="start" x="164" y="-17" font-family="Helvetica,sans-Serif" font-size="10.00">Common/Animator/ssplayer</text>
<text text-anchor="middle" x="224.75" y="-5.75" font-family="Helvetica,sans-Serif" font-size="10.00">_animedecode.cpp</text>
</a>
</g>
</g>
<!-- Node3&#45;&gt;Node5 -->
<g id="edge4_Node000003_Node000005" class="edge">
<title>Node3&#45;&gt;Node5</title>
<g id="a_edge4_Node000003_Node000005"><a xlink:title=" ">
<path fill="none" stroke="#63b8ff" d="M612.23,-71.63C533.25,-62.39 409.48,-47.11 302.75,-30.5 299.76,-30.03 296.7,-29.54 293.62,-29.03"/>
<polygon fill="#63b8ff" stroke="#63b8ff" points="611.71,-75.09 622.05,-72.77 612.52,-68.14 611.71,-75.09"/>
</a>
</g>
</g>
<!-- Node6 -->
<g id="Node000006" class="node">
<title>Node6</title>
<g id="a_Node000006"><a xlink:href="ssplayer__cellmap_8cpp.html" target="_top" xlink:title=" ">
<polygon fill="white" stroke="#666666" points="449.5,-30.5 312,-30.5 312,0 449.5,0 449.5,-30.5"/>
<text text-anchor="start" x="320" y="-17" font-family="Helvetica,sans-Serif" font-size="10.00">Common/Animator/ssplayer</text>
<text text-anchor="middle" x="380.75" y="-5.75" font-family="Helvetica,sans-Serif" font-size="10.00">_cellmap.cpp</text>
</a>
</g>
</g>
<!-- Node3&#45;&gt;Node6 -->
<g id="edge5_Node000003_Node000006" class="edge">
<title>Node3&#45;&gt;Node6</title>
<g id="a_edge5_Node000003_Node000006"><a xlink:title=" ">
<path fill="none" stroke="#63b8ff" d="M612.34,-64.13C562,-53.72 497.82,-40.45 449.8,-30.52"/>
<polygon fill="#63b8ff" stroke="#63b8ff" points="611.52,-67.53 622.02,-66.13 612.94,-60.68 611.52,-67.53"/>
</a>
</g>
</g>
<!-- Node7 -->
<g id="Node000007" class="node">
<title>Node7</title>
<g id="a_Node000007"><a xlink:href="ssplayer__effect_8cpp.html" target="_top" xlink:title=" ">
<polygon fill="white" stroke="#666666" points="605.5,-30.5 468,-30.5 468,0 605.5,0 605.5,-30.5"/>
<text text-anchor="start" x="476" y="-17" font-family="Helvetica,sans-Serif" font-size="10.00">Common/Animator/ssplayer</text>
<text text-anchor="middle" x="536.75" y="-5.75" font-family="Helvetica,sans-Serif" font-size="10.00">_effect.cpp</text>
</a>
</g>
</g>
<!-- Node3&#45;&gt;Node7 -->
<g id="edge6_Node000003_Node000007" class="edge">
<title>Node3&#45;&gt;Node7</title>
<g id="a_edge6_Node000003_Node000007"><a xlink:title=" ">
<path fill="none" stroke="#63b8ff" d="M646.79,-61.75C622.99,-51.91 594.37,-40.07 572.28,-30.94"/>
<polygon fill="#63b8ff" stroke="#63b8ff" points="645.37,-64.95 655.95,-65.54 648.05,-58.48 645.37,-64.95"/>
</a>
</g>
</g>
<!-- Node8 -->
<g id="Node000008" class="node">
<title>Node8</title>
<g id="a_Node000008"><a xlink:href="ssplayer__effect2_8cpp.html" target="_top" xlink:title=" ">
<polygon fill="white" stroke="#666666" points="761.5,-30.5 624,-30.5 624,0 761.5,0 761.5,-30.5"/>
<text text-anchor="start" x="632" y="-17" font-family="Helvetica,sans-Serif" font-size="10.00">Common/Animator/ssplayer</text>
<text text-anchor="middle" x="692.75" y="-5.75" font-family="Helvetica,sans-Serif" font-size="10.00">_effect2.cpp</text>
</a>
</g>
</g>
<!-- Node3&#45;&gt;Node8 -->
<g id="edge7_Node000003_Node000008" class="edge">
<title>Node3&#45;&gt;Node8</title>
<g id="a_edge7_Node000003_Node000008"><a xlink:title=" ">
<path fill="none" stroke="#63b8ff" d="M692.75,-54.81C692.75,-46.64 692.75,-37.91 692.75,-30.83"/>
<polygon fill="#63b8ff" stroke="#63b8ff" points="689.25,-54.6 692.75,-64.6 696.25,-54.6 689.25,-54.6"/>
</a>
</g>
</g>
<!-- Node9 -->
<g id="Node000009" class="node">
<title>Node9</title>
<g id="a_Node000009"><a xlink:href="ssplayer__effectfunction_8cpp.html" target="_top" xlink:title=" ">
<polygon fill="white" stroke="#666666" points="917.5,-30.5 780,-30.5 780,0 917.5,0 917.5,-30.5"/>
<text text-anchor="start" x="788" y="-17" font-family="Helvetica,sans-Serif" font-size="10.00">Common/Animator/ssplayer</text>
<text text-anchor="middle" x="848.75" y="-5.75" font-family="Helvetica,sans-Serif" font-size="10.00">_effectfunction.cpp</text>
</a>
</g>
</g>
<!-- Node3&#45;&gt;Node9 -->
<g id="edge8_Node000003_Node000009" class="edge">
<title>Node3&#45;&gt;Node9</title>
<g id="a_edge8_Node000003_Node000009"><a xlink:title=" ">
<path fill="none" stroke="#63b8ff" d="M738.71,-61.75C762.51,-51.91 791.13,-40.07 813.22,-30.94"/>
<polygon fill="#63b8ff" stroke="#63b8ff" points="737.45,-58.48 729.55,-65.54 740.13,-64.95 737.45,-58.48"/>
</a>
</g>
</g>
<!-- Node10 -->
<g id="Node000010" class="node">
<title>Node10</title>
<g id="a_Node000010"><a xlink:href="ssplayer__mesh_8cpp.html" target="_top" xlink:title=" ">
<polygon fill="white" stroke="#666666" points="1073.5,-30.5 936,-30.5 936,0 1073.5,0 1073.5,-30.5"/>
<text text-anchor="start" x="944" y="-17" font-family="Helvetica,sans-Serif" font-size="10.00">Common/Animator/ssplayer</text>
<text text-anchor="middle" x="1004.75" y="-5.75" font-family="Helvetica,sans-Serif" font-size="10.00">_mesh.cpp</text>
</a>
</g>
</g>
<!-- Node3&#45;&gt;Node10 -->
<g id="edge9_Node000003_Node000010" class="edge">
<title>Node3&#45;&gt;Node10</title>
<g id="a_edge9_Node000003_Node000010"><a xlink:title=" ">
<path fill="none" stroke="#63b8ff" d="M773.16,-64.13C823.5,-53.72 887.68,-40.45 935.7,-30.52"/>
<polygon fill="#63b8ff" stroke="#63b8ff" points="772.56,-60.68 763.48,-66.13 773.98,-67.53 772.56,-60.68"/>
</a>
</g>
</g>
<!-- Node11 -->
<g id="Node000011" class="node">
<title>Node11</title>
<g id="a_Node000011"><a xlink:href="ssplayer__render__dx9_8cpp.html" target="_top" xlink:title=" ">
<polygon fill="white" stroke="#666666" points="1221.75,-30.5 1091.75,-30.5 1091.75,0 1221.75,0 1221.75,-30.5"/>
<text text-anchor="start" x="1099.75" y="-17" font-family="Helvetica,sans-Serif" font-size="10.00">Common/Drawer/ssplayer</text>
<text text-anchor="middle" x="1156.75" y="-5.75" font-family="Helvetica,sans-Serif" font-size="10.00">_render_dx9.cpp</text>
</a>
</g>
</g>
<!-- Node3&#45;&gt;Node11 -->
<g id="edge10_Node000003_Node000011" class="edge">
<title>Node3&#45;&gt;Node11</title>
<g id="a_edge10_Node000003_Node000011"><a xlink:title=" ">
<path fill="none" stroke="#63b8ff" d="M773.3,-71.85C852.31,-62.77 976.1,-47.62 1082.75,-30.5 1085.59,-30.04 1088.49,-29.56 1091.42,-29.06"/>
<polygon fill="#63b8ff" stroke="#63b8ff" points="773.02,-68.36 763.48,-72.97 773.81,-75.32 773.02,-68.36"/>
</a>
</g>
</g>
<!-- Node12 -->
<g id="Node000012" class="node">
<title>Node12</title>
<g id="a_Node000012"><a xlink:href="ssplayer__render__gl_8cpp.html" target="_top" xlink:title=" ">
<polygon fill="white" stroke="#666666" points="1369.75,-30.5 1239.75,-30.5 1239.75,0 1369.75,0 1369.75,-30.5"/>
<text text-anchor="start" x="1247.75" y="-17" font-family="Helvetica,sans-Serif" font-size="10.00">Common/Drawer/ssplayer</text>
<text text-anchor="middle" x="1304.75" y="-5.75" font-family="Helvetica,sans-Serif" font-size="10.00">_render_gl.cpp</text>
</a>
</g>
</g>
<!-- Node3&#45;&gt;Node12 -->
<g id="edge11_Node000003_Node000012" class="edge">
<title>Node3&#45;&gt;Node12</title>
<g id="a_edge11_Node000003_Node000012"><a xlink:title=" ">
<path fill="none" stroke="#63b8ff" d="M772.97,-75.7C878.35,-68.51 1069.01,-53.57 1230.75,-30.5 1233.6,-30.09 1236.51,-29.65 1239.44,-29.18"/>
<polygon fill="#63b8ff" stroke="#63b8ff" points="773.04,-72.19 763.3,-76.35 773.52,-79.17 773.04,-72.19"/>
</a>
</g>
</g>
<!-- Node13&#45;&gt;Node3 -->
<g id="edge13_Node000013_Node000003" class="edge">
<title>Node13&#45;&gt;Node3</title>
<g id="a_edge13_Node000013_Node000003"><a xlink:title=" ">
<path fill="none" stroke="#63b8ff" d="M723.76,-123.57C717.08,-114.78 709.71,-105.07 703.82,-97.33"/>
<polygon fill="#63b8ff" stroke="#63b8ff" points="720.88,-125.56 729.72,-131.41 726.45,-121.33 720.88,-125.56"/>
</a>
</g>
</g>
<!-- Node16&#45;&gt;Node2 -->
<g id="edge17_Node000016_Node000002" class="edge">
<title>Node16&#45;&gt;Node2</title>
<g id="a_edge17_Node000016_Node000002"><a xlink:title=" ">
<path fill="none" stroke="#63b8ff" d="M869.38,-303.92C857.11,-296.47 843.67,-286.35 834.75,-274 822.56,-257.12 818.12,-232.4 816.56,-219.21"/>
<polygon fill="#63b8ff" stroke="#63b8ff" points="867.54,-306.91 877.96,-308.81 871,-300.82 867.54,-306.91"/>
</a>
</g>
</g>
<!-- Node17 -->
<g id="Node000017" class="node">
<title>Node17</title>
<g id="a_Node000017"><a xlink:href="ssh_object_8cpp.html" target="_top" xlink:title=" ">
<polygon fill="white" stroke="#666666" points="997.38,-274 844.12,-274 844.12,-254.75 997.38,-254.75 997.38,-274"/>
<text text-anchor="middle" x="920.75" y="-260.5" font-family="Helvetica,sans-Serif" font-size="10.00">Common/Helper/sshObject.cpp</text>
</a>
</g>
</g>
<!-- Node16&#45;&gt;Node17 -->
<g id="edge18_Node000016_Node000017" class="edge">
<title>Node16&#45;&gt;Node17</title>
<g id="a_edge18_Node000016_Node000017"><a xlink:title=" ">
<path fill="none" stroke="#63b8ff" d="M906.75,-299.25C910.27,-290.74 914.23,-281.15 917.04,-274.36"/>
<polygon fill="#63b8ff" stroke="#63b8ff" points="903.54,-297.85 902.96,-308.43 910.01,-300.53 903.54,-297.85"/>
</a>
</g>
</g>
<!-- Node18 -->
<g id="Node000018" class="node">
<title>Node18</title>
<g id="a_Node000018"><a xlink:href="ssh_scene_8h.html" target="_top" xlink:title=" ">
<polygon fill="white" stroke="#666666" points="1157.75,-274 1015.75,-274 1015.75,-254.75 1157.75,-254.75 1157.75,-274"/>
<text text-anchor="middle" x="1086.75" y="-260.5" font-family="Helvetica,sans-Serif" font-size="10.00">Common/Helper/sshScene.h</text>
</a>
</g>
</g>
<!-- Node16&#45;&gt;Node18 -->
<g id="edge19_Node000016_Node000018" class="edge">
<title>Node16&#45;&gt;Node18</title>
<g id="a_edge19_Node000016_Node000018"><a xlink:title=" ">
<path fill="none" stroke="#63b8ff" d="M941.31,-306.57C975.73,-296.82 1023.45,-283.3 1054.7,-274.45"/>
<polygon fill="#63b8ff" stroke="#63b8ff" points="940.77,-303.09 932.1,-309.18 942.67,-309.82 940.77,-303.09"/>
</a>
</g>
</g>
<!-- Node18&#45;&gt;Node2 -->
<g id="edge20_Node000018_Node000002" class="edge">
<title>Node18&#45;&gt;Node2</title>
<g id="a_edge20_Node000018_Node000002"><a xlink:title=" ">
<path fill="none" stroke="#63b8ff" d="M1029.22,-252.07C979.33,-242.27 908.05,-228.26 861.84,-219.18"/>
<polygon fill="#63b8ff" stroke="#63b8ff" points="1028.5,-255.5 1038.99,-253.99 1029.85,-248.63 1028.5,-255.5"/>
</a>
</g>
</g>
<!-- Node19 -->
<g id="Node000019" class="node">
<title>Node19</title>
<g id="a_Node000019"><a xlink:href="ssh_scene_8cpp.html" target="_top" xlink:title=" ">
<polygon fill="white" stroke="#666666" points="1163,-218.75 1010.5,-218.75 1010.5,-199.5 1163,-199.5 1163,-218.75"/>
<text text-anchor="middle" x="1086.75" y="-205.25" font-family="Helvetica,sans-Serif" font-size="10.00">Common/Helper/sshScene.cpp</text>
</a>
</g>
</g>
<!-- Node18&#45;&gt;Node19 -->
<g id="edge21_Node000018_Node000019" class="edge">
<title>Node18&#45;&gt;Node19</title>
<g id="a_edge21_Node000018_Node000019"><a xlink:title=" ">
<path fill="none" stroke="#63b8ff" d="M1086.75,-243.13C1086.75,-234.84 1086.75,-225.67 1086.75,-219.11"/>
<polygon fill="#63b8ff" stroke="#63b8ff" points="1083.25,-243.07 1086.75,-253.07 1090.25,-243.07 1083.25,-243.07"/>
</a>
</g>
</g>
</g>
</svg>
