<?xml version="1.0" encoding="UTF-8" standalone="no"?>
<!DOCTYPE svg PUBLIC "-//W3C//DTD SVG 1.1//EN"
 "http://www.w3.org/Graphics/SVG/1.1/DTD/svg11.dtd">
<!-- Generated by graphviz version 9.0.0 (20230911.1827)
 -->
<!-- Title: Common/Helper/sshScene.cpp Pages: 1 -->
<svg width="168pt" height="248pt"
 viewBox="0.00 0.00 167.88 248.25" xmlns="http://www.w3.org/2000/svg" xmlns:xlink="http://www.w3.org/1999/xlink">
<g id="graph0" class="graph" transform="scale(1 1) rotate(0) translate(4 244.25)">
<title>Common/Helper/sshScene.cpp</title>
<!-- Node1 -->
<g id="Node000001" class="node">
<title>Node1</title>
<g id="a_Node000001"><a xlink:title=" ">
<polygon fill="#999999" stroke="#666666" points="152.5,-240.25 0,-240.25 0,-221 152.5,-221 152.5,-240.25"/>
<text text-anchor="middle" x="76.25" y="-226.75" font-family="Helvetica,sans-Serif" font-size="10.00">Common/Helper/sshScene.cpp</text>
</a>
</g>
</g>
<!-- Node2 -->
<g id="Node000002" class="node">
<title>Node2</title>
<g id="a_Node000002"><a xlink:href="ssh_scene_8h.html" target="_top" xlink:title=" ">
<polygon fill="white" stroke="#666666" points="110.12,-185 42.38,-185 42.38,-165.75 110.12,-165.75 110.12,-185"/>
<text text-anchor="middle" x="76.25" y="-171.5" font-family="Helvetica,sans-Serif" font-size="10.00">sshScene.h</text>
</a>
</g>
</g>
<!-- Node1&#45;&gt;Node2 -->
<g id="edge1_Node000001_Node000002" class="edge">
<title>Node1&#45;&gt;Node2</title>
<g id="a_edge1_Node000001_Node000002"><a xlink:title=" ">
<path fill="none" stroke="#63b8ff" d="M76.25,-220.83C76.25,-214.32 76.25,-205.17 76.25,-196.87"/>
<polygon fill="#63b8ff" stroke="#63b8ff" points="79.75,-196.87 76.25,-186.87 72.75,-196.87 79.75,-196.87"/>
</a>
</g>
</g>
<!-- Node3 -->
<g id="Node000003" class="node">
<title>Node3</title>
<g id="a_Node000003"><a xlink:href="ssh_object_8h.html" target="_top" xlink:title=" ">
<polygon fill="white" stroke="#666666" points="110.5,-129.75 42,-129.75 42,-110.5 110.5,-110.5 110.5,-129.75"/>
<text text-anchor="middle" x="76.25" y="-116.25" font-family="Helvetica,sans-Serif" font-size="10.00">sshObject.h</text>
</a>
</g>
</g>
<!-- Node2&#45;&gt;Node3 -->
<g id="edge2_Node000002_Node000003" class="edge">
<title>Node2&#45;&gt;Node3</title>
<g id="a_edge2_Node000002_Node000003"><a xlink:title=" ">
<path fill="none" stroke="#63b8ff" d="M76.25,-165.58C76.25,-159.07 76.25,-149.92 76.25,-141.62"/>
<polygon fill="#63b8ff" stroke="#63b8ff" points="79.75,-141.62 76.25,-131.62 72.75,-141.62 79.75,-141.62"/>
</a>
</g>
</g>
<!-- Node4 -->
<g id="Node000004" class="node">
<title>Node4</title>
<g id="a_Node000004"><a xlink:href="ssh_task_8h.html" target="_top" xlink:title=" ">
<polygon fill="white" stroke="#666666" points="106.75,-74.5 45.75,-74.5 45.75,-55.25 106.75,-55.25 106.75,-74.5"/>
<text text-anchor="middle" x="76.25" y="-61" font-family="Helvetica,sans-Serif" font-size="10.00">sshTask.h</text>
</a>
</g>
</g>
<!-- Node3&#45;&gt;Node4 -->
<g id="edge3_Node000003_Node000004" class="edge">
<title>Node3&#45;&gt;Node4</title>
<g id="a_edge3_Node000003_Node000004"><a xlink:title=" ">
<path fill="none" stroke="#63b8ff" d="M76.25,-110.33C76.25,-103.82 76.25,-94.67 76.25,-86.37"/>
<polygon fill="#63b8ff" stroke="#63b8ff" points="79.75,-86.37 76.25,-76.37 72.75,-86.37 79.75,-86.37"/>
</a>
</g>
</g>
<!-- Node5 -->
<g id="Node000005" class="node">
<title>Node5</title>
<g id="a_Node000005"><a xlink:title=" ">
<polygon fill="#e0e0e0" stroke="#999999" points="43.75,-19.25 0.75,-19.25 0.75,0 43.75,0 43.75,-19.25"/>
<text text-anchor="middle" x="22.25" y="-5.75" font-family="Helvetica,sans-Serif" font-size="10.00">vector</text>
</a>
</g>
</g>
<!-- Node4&#45;&gt;Node5 -->
<g id="edge4_Node000004_Node000005" class="edge">
<title>Node4&#45;&gt;Node5</title>
<g id="a_edge4_Node000004_Node000005"><a xlink:title=" ">
<path fill="none" stroke="#63b8ff" d="M67.33,-55.08C59.8,-47.65 48.78,-36.79 39.52,-27.66"/>
<polygon fill="#63b8ff" stroke="#63b8ff" points="42.02,-25.2 32.44,-20.67 37.1,-30.19 42.02,-25.2"/>
</a>
</g>
</g>
<!-- Node6 -->
<g id="Node000006" class="node">
<title>Node6</title>
<g id="a_Node000006"><a xlink:title=" ">
<polygon fill="#e0e0e0" stroke="#999999" points="90.65,-19.25 61.85,-19.25 61.85,0 90.65,0 90.65,-19.25"/>
<text text-anchor="middle" x="76.25" y="-5.75" font-family="Helvetica,sans-Serif" font-size="10.00">list</text>
</a>
</g>
</g>
<!-- Node4&#45;&gt;Node6 -->
<g id="edge5_Node000004_Node000006" class="edge">
<title>Node4&#45;&gt;Node6</title>
<g id="a_edge5_Node000004_Node000006"><a xlink:title=" ">
<path fill="none" stroke="#63b8ff" d="M76.25,-55.08C76.25,-48.57 76.25,-39.42 76.25,-31.12"/>
<polygon fill="#63b8ff" stroke="#63b8ff" points="79.75,-31.12 76.25,-21.12 72.75,-31.12 79.75,-31.12"/>
</a>
</g>
</g>
<!-- Node7 -->
<g id="Node000007" class="node">
<title>Node7</title>
<g id="a_Node000007"><a xlink:title=" ">
<polygon fill="#e0e0e0" stroke="#999999" points="159.88,-19.25 108.62,-19.25 108.62,0 159.88,0 159.88,-19.25"/>
<text text-anchor="middle" x="134.25" y="-5.75" font-family="Helvetica,sans-Serif" font-size="10.00">memory</text>
</a>
</g>
</g>
<!-- Node4&#45;&gt;Node7 -->
<g id="edge6_Node000004_Node000007" class="edge">
<title>Node4&#45;&gt;Node7</title>
<g id="a_edge6_Node000004_Node000007"><a xlink:title=" ">
<path fill="none" stroke="#63b8ff" d="M86.09,-54.84C94.3,-47.3 106.23,-36.35 116.16,-27.23"/>
<polygon fill="#63b8ff" stroke="#63b8ff" points="118.44,-29.89 123.44,-20.55 113.71,-24.73 118.44,-29.89"/>
</a>
</g>
</g>
</g>
</svg>
