<?xml version="1.0" encoding="UTF-8" standalone="no"?>
<!DOCTYPE svg PUBLIC "-//W3C//DTD SVG 1.1//EN"
 "http://www.w3.org/Graphics/SVG/1.1/DTD/svg11.dtd">
<!-- Generated by graphviz version 10.0.1 (20240210.2158)
 -->
<!-- Title: Common/Helper/sshScene.h Pages: 1 -->
<svg width="167pt" height="193pt"
 viewBox="0.00 0.00 167.12 193.00" xmlns="http://www.w3.org/2000/svg" xmlns:xlink="http://www.w3.org/1999/xlink">
<g id="graph0" class="graph" transform="scale(1 1) rotate(0) translate(4 189)">
<title>Common/Helper/sshScene.h</title>
<!-- Node1 -->
<g id="Node000001" class="node">
<title>Node1</title>
<g id="a_Node000001"><a xlink:title=" ">
<polygon fill="#999999" stroke="#666666" points="146.5,-185 4.5,-185 4.5,-165.75 146.5,-165.75 146.5,-185"/>
<text text-anchor="middle" x="75.5" y="-171.5" font-family="Helvetica,sans-Serif" font-size="10.00">Common/Helper/sshScene.h</text>
</a>
</g>
</g>
<!-- Node2 -->
<g id="Node000002" class="node">
<title>Node2</title>
<g id="a_Node000002"><a xlink:href="ssh_object_8h.html" target="_top" xlink:title=" ">
<polygon fill="white" stroke="#666666" points="109.75,-129.75 41.25,-129.75 41.25,-110.5 109.75,-110.5 109.75,-129.75"/>
<text text-anchor="middle" x="75.5" y="-116.25" font-family="Helvetica,sans-Serif" font-size="10.00">sshObject.h</text>
</a>
</g>
</g>
<!-- Node1&#45;&gt;Node2 -->
<g id="edge1_Node000001_Node000002" class="edge">
<title>Node1&#45;&gt;Node2</title>
<g id="a_edge1_Node000001_Node000002"><a xlink:title=" ">
<path fill="none" stroke="#63b8ff" d="M75.5,-165.58C75.5,-159.07 75.5,-149.92 75.5,-141.62"/>
<polygon fill="#63b8ff" stroke="#63b8ff" points="79,-141.62 75.5,-131.62 72,-141.62 79,-141.62"/>
</a>
</g>
</g>
<!-- Node3 -->
<g id="Node000003" class="node">
<title>Node3</title>
<g id="a_Node000003"><a xlink:href="ssh_task_8h.html" target="_top" xlink:title=" ">
<polygon fill="white" stroke="#666666" points="106,-74.5 45,-74.5 45,-55.25 106,-55.25 106,-74.5"/>
<text text-anchor="middle" x="75.5" y="-61" font-family="Helvetica,sans-Serif" font-size="10.00">sshTask.h</text>
</a>
</g>
</g>
<!-- Node2&#45;&gt;Node3 -->
<g id="edge2_Node000002_Node000003" class="edge">
<title>Node2&#45;&gt;Node3</title>
<g id="a_edge2_Node000002_Node000003"><a xlink:title=" ">
<path fill="none" stroke="#63b8ff" d="M75.5,-110.33C75.5,-103.82 75.5,-94.67 75.5,-86.37"/>
<polygon fill="#63b8ff" stroke="#63b8ff" points="79,-86.37 75.5,-76.37 72,-86.37 79,-86.37"/>
</a>
</g>
</g>
<!-- Node4 -->
<g id="Node000004" class="node">
<title>Node4</title>
<g id="a_Node000004"><a xlink:title=" ">
<polygon fill="#e0e0e0" stroke="#999999" points="43,-19.25 0,-19.25 0,0 43,0 43,-19.25"/>
<text text-anchor="middle" x="21.5" y="-5.75" font-family="Helvetica,sans-Serif" font-size="10.00">vector</text>
</a>
</g>
</g>
<!-- Node3&#45;&gt;Node4 -->
<g id="edge3_Node000003_Node000004" class="edge">
<title>Node3&#45;&gt;Node4</title>
<g id="a_edge3_Node000003_Node000004"><a xlink:title=" ">
<path fill="none" stroke="#63b8ff" d="M66.58,-55.08C59.05,-47.65 48.03,-36.79 38.77,-27.66"/>
<polygon fill="#63b8ff" stroke="#63b8ff" points="41.27,-25.2 31.69,-20.67 36.35,-30.19 41.27,-25.2"/>
</a>
</g>
</g>
<!-- Node5 -->
<g id="Node000005" class="node">
<title>Node5</title>
<g id="a_Node000005"><a xlink:title=" ">
<polygon fill="#e0e0e0" stroke="#999999" points="89.9,-19.25 61.1,-19.25 61.1,0 89.9,0 89.9,-19.25"/>
<text text-anchor="middle" x="75.5" y="-5.75" font-family="Helvetica,sans-Serif" font-size="10.00">list</text>
</a>
</g>
</g>
<!-- Node3&#45;&gt;Node5 -->
<g id="edge4_Node000003_Node000005" class="edge">
<title>Node3&#45;&gt;Node5</title>
<g id="a_edge4_Node000003_Node000005"><a xlink:title=" ">
<path fill="none" stroke="#63b8ff" d="M75.5,-55.08C75.5,-48.57 75.5,-39.42 75.5,-31.12"/>
<polygon fill="#63b8ff" stroke="#63b8ff" points="79,-31.12 75.5,-21.12 72,-31.12 79,-31.12"/>
</a>
</g>
</g>
<!-- Node6 -->
<g id="Node000006" class="node">
<title>Node6</title>
<g id="a_Node000006"><a xlink:title=" ">
<polygon fill="#e0e0e0" stroke="#999999" points="159.12,-19.25 107.88,-19.25 107.88,0 159.12,0 159.12,-19.25"/>
<text text-anchor="middle" x="133.5" y="-5.75" font-family="Helvetica,sans-Serif" font-size="10.00">memory</text>
</a>
</g>
</g>
<!-- Node3&#45;&gt;Node6 -->
<g id="edge5_Node000003_Node000006" class="edge">
<title>Node3&#45;&gt;Node6</title>
<g id="a_edge5_Node000003_Node000006"><a xlink:title=" ">
<path fill="none" stroke="#63b8ff" d="M85.34,-54.84C93.55,-47.3 105.48,-36.35 115.41,-27.23"/>
<polygon fill="#63b8ff" stroke="#63b8ff" points="117.69,-29.89 122.69,-20.55 112.96,-24.73 117.69,-29.89"/>
</a>
</g>
</g>
</g>
</svg>
