<?xml version="1.0" encoding="UTF-8" standalone="no"?>
<!DOCTYPE svg PUBLIC "-//W3C//DTD SVG 1.1//EN"
 "http://www.w3.org/Graphics/SVG/1.1/DTD/svg11.dtd">
<!-- Generated by graphviz version 12.2.1 (20241206.2353)
 -->
<!-- Title: Common/Loader/ssloader_ssce.cpp Pages: 1 -->
<svg width="670pt" height="260pt"
 viewBox="0.00 0.00 670.38 259.50" xmlns="http://www.w3.org/2000/svg" xmlns:xlink="http://www.w3.org/1999/xlink">
<g id="graph0" class="graph" transform="scale(1 1) rotate(0) translate(4 255.5)">
<title>Common/Loader/ssloader_ssce.cpp</title>
<!-- Node1 -->
<g id="Node000001" class="node">
<title>Node1</title>
<g id="a_Node000001"><a xlink:title=" ">
<polygon fill="#999999" stroke="#666666" points="486.62,-251.5 358.88,-251.5 358.88,-221 486.62,-221 486.62,-251.5"/>
<text text-anchor="start" x="366.88" y="-238" font-family="Helvetica,sans-Serif" font-size="10.00">Common/Loader/ssloader</text>
<text text-anchor="middle" x="422.75" y="-226.75" font-family="Helvetica,sans-Serif" font-size="10.00">_ssce.cpp</text>
</a>
</g>
</g>
<!-- Node2 -->
<g id="Node000002" class="node">
<title>Node2</title>
<g id="a_Node000002"><a xlink:href="ssloader__ssce_8h.html" target="_top" xlink:title=" ">
<polygon fill="white" stroke="#666666" points="252.38,-185 165.12,-185 165.12,-165.75 252.38,-165.75 252.38,-185"/>
<text text-anchor="middle" x="208.75" y="-171.5" font-family="Helvetica,sans-Serif" font-size="10.00">ssloader_ssce.h</text>
</a>
</g>
</g>
<!-- Node1&#45;&gt;Node2 -->
<g id="edge1_Node000001_Node000002" class="edge">
<title>Node1&#45;&gt;Node2</title>
<g id="a_edge1_Node000001_Node000002"><a xlink:title=" ">
<path fill="none" stroke="#63b8ff" d="M369.3,-220.55C333.37,-210.66 286.6,-197.79 252.81,-188.5"/>
<polygon fill="#63b8ff" stroke="#63b8ff" points="253.91,-185.17 243.34,-185.89 252.06,-191.92 253.91,-185.17"/>
</a>
</g>
</g>
<!-- Node12 -->
<g id="Node000012" class="node">
<title>Node12</title>
<g id="a_Node000012"><a xlink:href="ssstring__uty_8h.html" target="_top" xlink:title=" ">
<polygon fill="white" stroke="#666666" points="535.75,-74.5 459.75,-74.5 459.75,-55.25 535.75,-55.25 535.75,-74.5"/>
<text text-anchor="middle" x="497.75" y="-61" font-family="Helvetica,sans-Serif" font-size="10.00">ssstring_uty.h</text>
</a>
</g>
</g>
<!-- Node1&#45;&gt;Node12 -->
<g id="edge14_Node000001_Node000012" class="edge">
<title>Node1&#45;&gt;Node12</title>
<g id="a_edge14_Node000001_Node000012"><a xlink:title=" ">
<path fill="none" stroke="#63b8ff" d="M441.35,-220.78C451.98,-211.59 464.74,-198.85 472.75,-185 490.85,-153.68 495.92,-110.99 497.3,-86.13"/>
<polygon fill="#63b8ff" stroke="#63b8ff" points="500.78,-86.56 497.67,-76.43 493.79,-86.29 500.78,-86.56"/>
</a>
</g>
</g>
<!-- Node17 -->
<g id="Node000017" class="node">
<title>Node17</title>
<g id="a_Node000017"><a xlink:href="ss_filesystem_8h.html" target="_top" xlink:title=" ">
<polygon fill="white" stroke="#666666" points="464.12,-185 381.38,-185 381.38,-165.75 464.12,-165.75 464.12,-185"/>
<text text-anchor="middle" x="422.75" y="-171.5" font-family="Helvetica,sans-Serif" font-size="10.00">ssFilesystem.h</text>
</a>
</g>
</g>
<!-- Node1&#45;&gt;Node17 -->
<g id="edge21_Node000001_Node000017" class="edge">
<title>Node1&#45;&gt;Node17</title>
<g id="a_edge21_Node000001_Node000017"><a xlink:title=" ">
<path fill="none" stroke="#63b8ff" d="M422.75,-220.7C422.75,-213.46 422.75,-204.59 422.75,-196.69"/>
<polygon fill="#63b8ff" stroke="#63b8ff" points="426.25,-196.96 422.75,-186.96 419.25,-196.96 426.25,-196.96"/>
</a>
</g>
</g>
<!-- Node3 -->
<g id="Node000003" class="node">
<title>Node3</title>
<g id="a_Node000003"><a xlink:href="sstypes_8h.html" target="_top" xlink:title=" ">
<polygon fill="white" stroke="#666666" points="128.12,-74.5 69.38,-74.5 69.38,-55.25 128.12,-55.25 128.12,-74.5"/>
<text text-anchor="middle" x="98.75" y="-61" font-family="Helvetica,sans-Serif" font-size="10.00">sstypes.h</text>
</a>
</g>
</g>
<!-- Node2&#45;&gt;Node3 -->
<g id="edge2_Node000002_Node000003" class="edge">
<title>Node2&#45;&gt;Node3</title>
<g id="a_edge2_Node000002_Node000003"><a xlink:title=" ">
<path fill="none" stroke="#63b8ff" d="M199.75,-165.5C181.46,-147.46 139.68,-106.25 115.99,-82.88"/>
<polygon fill="#63b8ff" stroke="#63b8ff" points="118.53,-80.47 108.95,-75.94 113.62,-85.45 118.53,-80.47"/>
</a>
</g>
</g>
<!-- Node9 -->
<g id="Node000009" class="node">
<title>Node9</title>
<g id="a_Node000009"><a xlink:href="ssarchiver_8h.html" target="_top" xlink:title=" ">
<polygon fill="white" stroke="#666666" points="243,-129.75 174.5,-129.75 174.5,-110.5 243,-110.5 243,-129.75"/>
<text text-anchor="middle" x="208.75" y="-116.25" font-family="Helvetica,sans-Serif" font-size="10.00">ssarchiver.h</text>
</a>
</g>
</g>
<!-- Node2&#45;&gt;Node9 -->
<g id="edge8_Node000002_Node000009" class="edge">
<title>Node2&#45;&gt;Node9</title>
<g id="a_edge8_Node000002_Node000009"><a xlink:title=" ">
<path fill="none" stroke="#63b8ff" d="M208.75,-165.58C208.75,-159.07 208.75,-149.92 208.75,-141.62"/>
<polygon fill="#63b8ff" stroke="#63b8ff" points="212.25,-141.62 208.75,-131.62 205.25,-141.62 212.25,-141.62"/>
</a>
</g>
</g>
<!-- Node4 -->
<g id="Node000004" class="node">
<title>Node4</title>
<g id="a_Node000004"><a xlink:title=" ">
<polygon fill="#e0e0e0" stroke="#999999" points="47.5,-19.25 0,-19.25 0,0 47.5,0 47.5,-19.25"/>
<text text-anchor="middle" x="23.75" y="-5.75" font-family="Helvetica,sans-Serif" font-size="10.00">stdlib.h</text>
</a>
</g>
</g>
<!-- Node3&#45;&gt;Node4 -->
<g id="edge3_Node000003_Node000004" class="edge">
<title>Node3&#45;&gt;Node4</title>
<g id="a_edge3_Node000003_Node000004"><a xlink:title=" ">
<path fill="none" stroke="#63b8ff" d="M86.03,-54.84C75.04,-47.04 58.91,-35.59 45.82,-26.29"/>
<polygon fill="#63b8ff" stroke="#63b8ff" points="47.95,-23.51 37.77,-20.58 43.9,-29.22 47.95,-23.51"/>
</a>
</g>
</g>
<!-- Node5 -->
<g id="Node000005" class="node">
<title>Node5</title>
<g id="a_Node000005"><a xlink:title=" ">
<polygon fill="#e0e0e0" stroke="#999999" points="390.75,-19.25 350.75,-19.25 350.75,0 390.75,0 390.75,-19.25"/>
<text text-anchor="middle" x="370.75" y="-5.75" font-family="Helvetica,sans-Serif" font-size="10.00">string</text>
</a>
</g>
</g>
<!-- Node3&#45;&gt;Node5 -->
<g id="edge4_Node000003_Node000005" class="edge">
<title>Node3&#45;&gt;Node5</title>
<g id="a_edge4_Node000003_Node000005"><a xlink:title=" ">
<path fill="none" stroke="#63b8ff" d="M128.54,-57.2C131.65,-56.53 134.76,-55.87 137.75,-55.25 209.62,-40.42 294.31,-24.62 339.16,-16.38"/>
<polygon fill="#63b8ff" stroke="#63b8ff" points="339.76,-19.83 348.96,-14.58 338.5,-12.94 339.76,-19.83"/>
</a>
</g>
</g>
<!-- Node6 -->
<g id="Node000006" class="node">
<title>Node6</title>
<g id="a_Node000006"><a xlink:title=" ">
<polygon fill="#e0e0e0" stroke="#999999" points="242.25,-19.25 199.25,-19.25 199.25,0 242.25,0 242.25,-19.25"/>
<text text-anchor="middle" x="220.75" y="-5.75" font-family="Helvetica,sans-Serif" font-size="10.00">vector</text>
</a>
</g>
</g>
<!-- Node3&#45;&gt;Node6 -->
<g id="edge5_Node000003_Node000006" class="edge">
<title>Node3&#45;&gt;Node6</title>
<g id="a_edge5_Node000003_Node000006"><a xlink:title=" ">
<path fill="none" stroke="#63b8ff" d="M119.45,-54.84C138.64,-46.47 167.46,-33.88 189.47,-24.28"/>
<polygon fill="#63b8ff" stroke="#63b8ff" points="190.8,-27.52 198.57,-20.31 188,-21.1 190.8,-27.52"/>
</a>
</g>
</g>
<!-- Node7 -->
<g id="Node000007" class="node">
<title>Node7</title>
<g id="a_Node000007"><a xlink:title=" ">
<polygon fill="#e0e0e0" stroke="#999999" points="108.25,-19.25 65.25,-19.25 65.25,0 108.25,0 108.25,-19.25"/>
<text text-anchor="middle" x="86.75" y="-5.75" font-family="Helvetica,sans-Serif" font-size="10.00">cmath</text>
</a>
</g>
</g>
<!-- Node3&#45;&gt;Node7 -->
<g id="edge6_Node000003_Node000007" class="edge">
<title>Node3&#45;&gt;Node7</title>
<g id="a_edge6_Node000003_Node000007"><a xlink:title=" ">
<path fill="none" stroke="#63b8ff" d="M96.77,-55.08C95.28,-48.49 93.19,-39.21 91.3,-30.82"/>
<polygon fill="#63b8ff" stroke="#63b8ff" points="94.72,-30.07 89.11,-21.09 87.89,-31.61 94.72,-30.07"/>
</a>
</g>
</g>
<!-- Node8 -->
<g id="Node000008" class="node">
<title>Node8</title>
<g id="a_Node000008"><a xlink:title=" ">
<polygon fill="#e0e0e0" stroke="#999999" points="181.62,-19.25 125.88,-19.25 125.88,0 181.62,0 181.62,-19.25"/>
<text text-anchor="middle" x="153.75" y="-5.75" font-family="Helvetica,sans-Serif" font-size="10.00">algorithm</text>
</a>
</g>
</g>
<!-- Node3&#45;&gt;Node8 -->
<g id="edge7_Node000003_Node000008" class="edge">
<title>Node3&#45;&gt;Node8</title>
<g id="a_edge7_Node000003_Node000008"><a xlink:title=" ">
<path fill="none" stroke="#63b8ff" d="M107.83,-55.08C115.59,-47.57 126.96,-36.56 136.45,-27.38"/>
<polygon fill="#63b8ff" stroke="#63b8ff" points="138.63,-30.13 143.38,-20.66 133.76,-25.1 138.63,-30.13"/>
</a>
</g>
</g>
<!-- Node9&#45;&gt;Node3 -->
<g id="edge10_Node000009_Node000003" class="edge">
<title>Node9&#45;&gt;Node3</title>
<g id="a_edge10_Node000009_Node000003"><a xlink:title=" ">
<path fill="none" stroke="#63b8ff" d="M190.09,-110.09C173.02,-101.83 147.51,-89.48 127.78,-79.93"/>
<polygon fill="#63b8ff" stroke="#63b8ff" points="129.39,-76.82 118.86,-75.61 126.34,-83.12 129.39,-76.82"/>
</a>
</g>
</g>
<!-- Node9&#45;&gt;Node5 -->
<g id="edge11_Node000009_Node000005" class="edge">
<title>Node9&#45;&gt;Node5</title>
<g id="a_edge11_Node000009_Node000005"><a xlink:title=" ">
<path fill="none" stroke="#63b8ff" d="M243.19,-117.34C275.48,-113.83 322.98,-103.66 351.75,-74.5 363.2,-62.9 367.8,-44.72 369.62,-30.72"/>
<polygon fill="#63b8ff" stroke="#63b8ff" points="373.1,-31.12 370.5,-20.85 366.13,-30.5 373.1,-31.12"/>
</a>
</g>
</g>
<!-- Node9&#45;&gt;Node6 -->
<g id="edge12_Node000009_Node000006" class="edge">
<title>Node9&#45;&gt;Node6</title>
<g id="a_edge12_Node000009_Node000006"><a xlink:title=" ">
<path fill="none" stroke="#63b8ff" d="M209.73,-110.25C211.64,-93 215.89,-54.58 218.52,-30.81"/>
<polygon fill="#63b8ff" stroke="#63b8ff" points="221.97,-31.46 219.59,-21.13 215.01,-30.69 221.97,-31.46"/>
</a>
</g>
</g>
<!-- Node10 -->
<g id="Node000010" class="node">
<title>Node10</title>
<g id="a_Node000010"><a xlink:title=" ">
<polygon fill="#e0e0e0" stroke="#999999" points="343.12,-74.5 236.38,-74.5 236.38,-55.25 343.12,-55.25 343.12,-74.5"/>
<text text-anchor="middle" x="289.75" y="-61" font-family="Helvetica,sans-Serif" font-size="10.00">./tinyxml2/tinyxml2.h</text>
</a>
</g>
</g>
<!-- Node9&#45;&gt;Node10 -->
<g id="edge9_Node000009_Node000010" class="edge">
<title>Node9&#45;&gt;Node10</title>
<g id="a_edge9_Node000009_Node000010"><a xlink:title=" ">
<path fill="none" stroke="#63b8ff" d="M222.49,-110.09C234.48,-102.21 252.12,-90.61 266.33,-81.27"/>
<polygon fill="#63b8ff" stroke="#63b8ff" points="268.24,-84.2 274.68,-75.78 264.4,-78.35 268.24,-84.2"/>
</a>
</g>
</g>
<!-- Node11 -->
<g id="Node000011" class="node">
<title>Node11</title>
<g id="a_Node000011"><a xlink:title=" ">
<polygon fill="#e0e0e0" stroke="#999999" points="181.12,-74.5 146.38,-74.5 146.38,-55.25 181.12,-55.25 181.12,-74.5"/>
<text text-anchor="middle" x="163.75" y="-61" font-family="Helvetica,sans-Serif" font-size="10.00">map</text>
</a>
</g>
</g>
<!-- Node9&#45;&gt;Node11 -->
<g id="edge13_Node000009_Node000011" class="edge">
<title>Node9&#45;&gt;Node11</title>
<g id="a_edge13_Node000009_Node000011"><a xlink:title=" ">
<path fill="none" stroke="#63b8ff" d="M201.32,-110.33C195.17,-103.05 186.24,-92.48 178.62,-83.48"/>
<polygon fill="#63b8ff" stroke="#63b8ff" points="181.45,-81.39 172.32,-76.02 176.1,-85.91 181.45,-81.39"/>
</a>
</g>
</g>
<!-- Node12&#45;&gt;Node5 -->
<g id="edge15_Node000012_Node000005" class="edge">
<title>Node12&#45;&gt;Node5</title>
<g id="a_edge15_Node000012_Node000005"><a xlink:title=" ">
<path fill="none" stroke="#63b8ff" d="M476.21,-54.84C455.68,-46.23 424.56,-33.19 401.45,-23.5"/>
<polygon fill="#63b8ff" stroke="#63b8ff" points="403.11,-20.4 392.53,-19.76 400.4,-26.85 403.11,-20.4"/>
</a>
</g>
</g>
<!-- Node12&#45;&gt;Node6 -->
<g id="edge17_Node000012_Node000006" class="edge">
<title>Node12&#45;&gt;Node6</title>
<g id="a_edge17_Node000012_Node000006"><a xlink:title=" ">
<path fill="none" stroke="#63b8ff" d="M459.53,-56.53C404.86,-46.02 305.28,-26.88 253.7,-16.96"/>
<polygon fill="#63b8ff" stroke="#63b8ff" points="254.53,-13.55 244.05,-15.1 253.21,-20.43 254.53,-13.55"/>
</a>
</g>
</g>
<!-- Node13 -->
<g id="Node000013" class="node">
<title>Node13</title>
<g id="a_Node000013"><a xlink:title=" ">
<polygon fill="#e0e0e0" stroke="#999999" points="522.25,-19.25 473.25,-19.25 473.25,0 522.25,0 522.25,-19.25"/>
<text text-anchor="middle" x="497.75" y="-5.75" font-family="Helvetica,sans-Serif" font-size="10.00">fstream</text>
</a>
</g>
</g>
<!-- Node12&#45;&gt;Node13 -->
<g id="edge16_Node000012_Node000013" class="edge">
<title>Node12&#45;&gt;Node13</title>
<g id="a_edge16_Node000012_Node000013"><a xlink:title=" ">
<path fill="none" stroke="#63b8ff" d="M497.75,-55.08C497.75,-48.57 497.75,-39.42 497.75,-31.12"/>
<polygon fill="#63b8ff" stroke="#63b8ff" points="501.25,-31.12 497.75,-21.12 494.25,-31.12 501.25,-31.12"/>
</a>
</g>
</g>
<!-- Node14 -->
<g id="Node000014" class="node">
<title>Node14</title>
<g id="a_Node000014"><a xlink:title=" ">
<polygon fill="#e0e0e0" stroke="#999999" points="593.5,-19.25 540,-19.25 540,0 593.5,0 593.5,-19.25"/>
<text text-anchor="middle" x="566.75" y="-5.75" font-family="Helvetica,sans-Serif" font-size="10.00">iostream</text>
</a>
</g>
</g>
<!-- Node12&#45;&gt;Node14 -->
<g id="edge18_Node000012_Node000014" class="edge">
<title>Node12&#45;&gt;Node14</title>
<g id="a_edge18_Node000012_Node000014"><a xlink:title=" ">
<path fill="none" stroke="#63b8ff" d="M509.45,-54.84C519.53,-47.07 534.29,-35.67 546.31,-26.4"/>
<polygon fill="#63b8ff" stroke="#63b8ff" points="548.24,-29.33 554.02,-20.45 543.96,-23.79 548.24,-29.33"/>
</a>
</g>
</g>
<!-- Node15 -->
<g id="Node000015" class="node">
<title>Node15</title>
<g id="a_Node000015"><a xlink:title=" ">
<polygon fill="#e0e0e0" stroke="#999999" points="662.38,-19.25 611.12,-19.25 611.12,0 662.38,0 662.38,-19.25"/>
<text text-anchor="middle" x="636.75" y="-5.75" font-family="Helvetica,sans-Serif" font-size="10.00">sstream</text>
</a>
</g>
</g>
<!-- Node12&#45;&gt;Node15 -->
<g id="edge19_Node000012_Node000015" class="edge">
<title>Node12&#45;&gt;Node15</title>
<g id="a_edge19_Node000012_Node000015"><a xlink:title=" ">
<path fill="none" stroke="#63b8ff" d="M521.33,-54.84C543.59,-46.31 577.24,-33.42 602.47,-23.76"/>
<polygon fill="#63b8ff" stroke="#63b8ff" points="603.56,-27.09 611.64,-20.24 601.05,-20.55 603.56,-27.09"/>
</a>
</g>
</g>
<!-- Node16 -->
<g id="Node000016" class="node">
<title>Node16</title>
<g id="a_Node000016"><a xlink:title=" ">
<polygon fill="#e0e0e0" stroke="#999999" points="454.75,-19.25 408.75,-19.25 408.75,0 454.75,0 454.75,-19.25"/>
<text text-anchor="middle" x="431.75" y="-5.75" font-family="Helvetica,sans-Serif" font-size="10.00">iterator</text>
</a>
</g>
</g>
<!-- Node12&#45;&gt;Node16 -->
<g id="edge20_Node000012_Node000016" class="edge">
<title>Node12&#45;&gt;Node16</title>
<g id="a_edge20_Node000012_Node000016"><a xlink:title=" ">
<path fill="none" stroke="#63b8ff" d="M486.55,-54.84C477.01,-47.15 463.08,-35.9 451.64,-26.68"/>
<polygon fill="#63b8ff" stroke="#63b8ff" points="453.94,-24.03 443.96,-20.48 449.54,-29.48 453.94,-24.03"/>
</a>
</g>
</g>
<!-- Node17&#45;&gt;Node5 -->
<g id="edge22_Node000017_Node000005" class="edge">
<title>Node17&#45;&gt;Node5</title>
<g id="a_edge22_Node000017_Node000005"><a xlink:title=" ">
<path fill="none" stroke="#63b8ff" d="M419.95,-165.57C411.88,-140.14 388.37,-66.1 377.02,-30.37"/>
<polygon fill="#63b8ff" stroke="#63b8ff" points="380.38,-29.39 374.02,-20.91 373.71,-31.51 380.38,-29.39"/>
</a>
</g>
</g>
<!-- Node18 -->
<g id="Node000018" class="node">
<title>Node18</title>
<g id="a_Node000018"><a xlink:title=" ">
<polygon fill="#e0e0e0" stroke="#999999" points="478.88,-129.75 436.62,-129.75 436.62,-110.5 478.88,-110.5 478.88,-129.75"/>
<text text-anchor="middle" x="457.75" y="-116.25" font-family="Helvetica,sans-Serif" font-size="10.00">cstdio</text>
</a>
</g>
</g>
<!-- Node17&#45;&gt;Node18 -->
<g id="edge23_Node000017_Node000018" class="edge">
<title>Node17&#45;&gt;Node18</title>
<g id="a_edge23_Node000017_Node000018"><a xlink:title=" ">
<path fill="none" stroke="#63b8ff" d="M428.53,-165.58C433.16,-158.53 439.82,-148.4 445.62,-139.58"/>
<polygon fill="#63b8ff" stroke="#63b8ff" points="448.45,-141.65 451.01,-131.37 442.6,-137.81 448.45,-141.65"/>
</a>
</g>
</g>
</g>
</svg>
