<?xml version="1.0" encoding="UTF-8" standalone="no"?>
<!DOCTYPE svg PUBLIC "-//W3C//DTD SVG 1.1//EN"
 "http://www.w3.org/Graphics/SVG/1.1/DTD/svg11.dtd">
<!-- Generated by graphviz version 9.0.0 (20230911.1827)
 -->
<!-- Title: Common/Loader/ssloader_sspj.cpp Pages: 1 -->
<svg width="1227pt" height="425pt"
 viewBox="0.00 0.00 1227.38 425.25" xmlns="http://www.w3.org/2000/svg" xmlns:xlink="http://www.w3.org/1999/xlink">
<g id="graph0" class="graph" transform="scale(1 1) rotate(0) translate(4 421.25)">
<title>Common/Loader/ssloader_sspj.cpp</title>
<!-- Node1 -->
<g id="Node000001" class="node">
<title>Node1</title>
<g id="a_Node000001"><a xlink:title=" ">
<polygon fill="#999999" stroke="#666666" points="800.62,-417.25 672.88,-417.25 672.88,-386.75 800.62,-386.75 800.62,-417.25"/>
<text text-anchor="start" x="680.88" y="-403.75" font-family="Helvetica,sans-Serif" font-size="10.00">Common/Loader/ssloader</text>
<text text-anchor="middle" x="736.75" y="-392.5" font-family="Helvetica,sans-Serif" font-size="10.00">_sspj.cpp</text>
</a>
</g>
</g>
<!-- Node2 -->
<g id="Node000002" class="node">
<title>Node2</title>
<g id="a_Node000002"><a xlink:href="ssloader__sspj_8h.html" target="_top" xlink:title=" ">
<polygon fill="white" stroke="#666666" points="821.88,-350.75 737.62,-350.75 737.62,-331.5 821.88,-331.5 821.88,-350.75"/>
<text text-anchor="middle" x="779.75" y="-337.25" font-family="Helvetica,sans-Serif" font-size="10.00">ssloader_sspj.h</text>
</a>
</g>
</g>
<!-- Node1&#45;&gt;Node2 -->
<g id="edge1_Node000001_Node000002" class="edge">
<title>Node1&#45;&gt;Node2</title>
<g id="a_edge1_Node000001_Node000002"><a xlink:title=" ">
<path fill="none" stroke="#63b8ff" d="M747.38,-386.45C753.11,-378.6 760.23,-368.85 766.34,-360.49"/>
<polygon fill="#63b8ff" stroke="#63b8ff" points="769.16,-362.56 772.23,-352.42 763.5,-358.43 769.16,-362.56"/>
</a>
</g>
</g>
<!-- Node12 -->
<g id="Node000012" class="node">
<title>Node12</title>
<g id="a_Node000012"><a xlink:href="ssstring__uty_8h.html" target="_top" xlink:title=" ">
<polygon fill="white" stroke="#666666" points="353.75,-129.75 277.75,-129.75 277.75,-110.5 353.75,-110.5 353.75,-129.75"/>
<text text-anchor="middle" x="315.75" y="-116.25" font-family="Helvetica,sans-Serif" font-size="10.00">ssstring_uty.h</text>
</a>
</g>
</g>
<!-- Node1&#45;&gt;Node12 -->
<g id="edge58_Node000001_Node000012" class="edge">
<title>Node1&#45;&gt;Node12</title>
<g id="a_edge58_Node000001_Node000012"><a xlink:title=" ">
<path fill="none" stroke="#63b8ff" d="M672.69,-397.34C552.63,-388.71 305.75,-361.86 305.75,-286.88 305.75,-286.88 305.75,-286.88 305.75,-229.62 305.75,-198.78 309.81,-163.2 312.75,-141.44"/>
<polygon fill="#63b8ff" stroke="#63b8ff" points="316.21,-141.99 314.15,-131.6 309.28,-141.01 316.21,-141.99"/>
</a>
</g>
</g>
<!-- Node17 -->
<g id="Node000017" class="node">
<title>Node17</title>
<g id="a_Node000017"><a xlink:href="ssloader__ssae_8h.html" target="_top" xlink:title=" ">
<polygon fill="white" stroke="#666666" points="695.38,-295.5 608.12,-295.5 608.12,-276.25 695.38,-276.25 695.38,-295.5"/>
<text text-anchor="middle" x="651.75" y="-282" font-family="Helvetica,sans-Serif" font-size="10.00">ssloader_ssae.h</text>
</a>
</g>
</g>
<!-- Node1&#45;&gt;Node17 -->
<g id="edge54_Node000001_Node000017" class="edge">
<title>Node1&#45;&gt;Node17</title>
<g id="a_edge54_Node000001_Node000017"><a xlink:title=" ">
<path fill="none" stroke="#63b8ff" d="M725.98,-386.55C710.57,-365.84 682.2,-327.76 665.35,-305.14"/>
<polygon fill="#63b8ff" stroke="#63b8ff" points="668.19,-303.09 659.41,-297.16 662.58,-307.27 668.19,-303.09"/>
</a>
</g>
</g>
<!-- Node23 -->
<g id="Node000023" class="node">
<title>Node23</title>
<g id="a_Node000023"><a xlink:href="ssloader__ssce_8h.html" target="_top" xlink:title=" ">
<polygon fill="white" stroke="#666666" points="877.38,-240.25 790.12,-240.25 790.12,-221 877.38,-221 877.38,-240.25"/>
<text text-anchor="middle" x="833.75" y="-226.75" font-family="Helvetica,sans-Serif" font-size="10.00">ssloader_ssce.h</text>
</a>
</g>
</g>
<!-- Node1&#45;&gt;Node23 -->
<g id="edge55_Node000001_Node000023" class="edge">
<title>Node1&#45;&gt;Node23</title>
<g id="a_edge55_Node000001_Node000023"><a xlink:title=" ">
<path fill="none" stroke="#63b8ff" d="M785.64,-386.44C802.91,-378.71 820.55,-367.29 830.75,-350.75 849.51,-320.32 844.31,-276.69 838.95,-251.55"/>
<polygon fill="#63b8ff" stroke="#63b8ff" points="842.4,-250.93 836.68,-242.01 835.59,-252.55 842.4,-250.93"/>
</a>
</g>
</g>
<!-- Node24 -->
<g id="Node000024" class="node">
<title>Node24</title>
<g id="a_Node000024"><a xlink:href="ssloader__ssee_8h.html" target="_top" xlink:title=" ">
<polygon fill="white" stroke="#666666" points="1219.38,-295.5 1132.12,-295.5 1132.12,-276.25 1219.38,-276.25 1219.38,-295.5"/>
<text text-anchor="middle" x="1175.75" y="-282" font-family="Helvetica,sans-Serif" font-size="10.00">ssloader_ssee.h</text>
</a>
</g>
</g>
<!-- Node1&#45;&gt;Node24 -->
<g id="edge56_Node000001_Node000024" class="edge">
<title>Node1&#45;&gt;Node24</title>
<g id="a_edge56_Node000001_Node000024"><a xlink:title=" ">
<path fill="none" stroke="#63b8ff" d="M793.24,-386.31C881.16,-363.46 1049,-319.82 1129.91,-298.79"/>
<polygon fill="#63b8ff" stroke="#63b8ff" points="1130.47,-302.26 1139.26,-296.36 1128.7,-295.49 1130.47,-302.26"/>
</a>
</g>
</g>
<!-- Node28 -->
<g id="Node000028" class="node">
<title>Node28</title>
<g id="a_Node000028"><a xlink:href="ssloader__ssqe_8h.html" target="_top" xlink:title=" ">
<polygon fill="white" stroke="#666666" points="1114.38,-295.5 1027.12,-295.5 1027.12,-276.25 1114.38,-276.25 1114.38,-295.5"/>
<text text-anchor="middle" x="1070.75" y="-282" font-family="Helvetica,sans-Serif" font-size="10.00">ssloader_ssqe.h</text>
</a>
</g>
</g>
<!-- Node1&#45;&gt;Node28 -->
<g id="edge57_Node000001_Node000028" class="edge">
<title>Node1&#45;&gt;Node28</title>
<g id="a_edge57_Node000001_Node000028"><a xlink:title=" ">
<path fill="none" stroke="#63b8ff" d="M779.73,-386.31C845.88,-363.71 971.51,-320.78 1033.81,-299.5"/>
<polygon fill="#63b8ff" stroke="#63b8ff" points="1034.56,-302.94 1042.89,-296.39 1032.29,-296.32 1034.56,-302.94"/>
</a>
</g>
</g>
<!-- Node30 -->
<g id="Node000030" class="node">
<title>Node30</title>
<g id="a_Node000030"><a xlink:href="_debug_print_8h.html" target="_top" xlink:title=" ">
<polygon fill="white" stroke="#666666" points="113.5,-240.25 0,-240.25 0,-221 113.5,-221 113.5,-240.25"/>
<text text-anchor="middle" x="56.75" y="-226.75" font-family="Helvetica,sans-Serif" font-size="10.00">../Helper/DebugPrint.h</text>
</a>
</g>
</g>
<!-- Node1&#45;&gt;Node30 -->
<g id="edge59_Node000001_Node000030" class="edge">
<title>Node1&#45;&gt;Node30</title>
<g id="a_edge59_Node000001_Node000030"><a xlink:title=" ">
<path fill="none" stroke="#63b8ff" d="M672.45,-398.42C529.4,-392.26 193.87,-375.35 148.75,-350.75 107.4,-328.2 78.67,-278.35 65.29,-250.82"/>
<polygon fill="#63b8ff" stroke="#63b8ff" points="68.53,-249.5 61.14,-241.91 62.18,-252.45 68.53,-249.5"/>
</a>
</g>
</g>
<!-- Node31 -->
<g id="Node000031" class="node">
<title>Node31</title>
<g id="a_Node000031"><a xlink:href="sscharconverter_8h.html" target="_top" xlink:title=" ">
<polygon fill="white" stroke="#666666" points="251.38,-350.75 158.12,-350.75 158.12,-331.5 251.38,-331.5 251.38,-350.75"/>
<text text-anchor="middle" x="204.75" y="-337.25" font-family="Helvetica,sans-Serif" font-size="10.00">sscharconverter.h</text>
</a>
</g>
</g>
<!-- Node1&#45;&gt;Node31 -->
<g id="edge61_Node000001_Node000031" class="edge">
<title>Node1&#45;&gt;Node31</title>
<g id="a_edge61_Node000001_Node000031"><a xlink:title=" ">
<path fill="none" stroke="#63b8ff" d="M672.58,-393.9C568.24,-382.35 363.39,-359.68 263,-348.57"/>
<polygon fill="#63b8ff" stroke="#63b8ff" points="263.41,-345.1 253.09,-347.47 262.64,-352.05 263.41,-345.1"/>
</a>
</g>
</g>
<!-- Node3 -->
<g id="Node000003" class="node">
<title>Node3</title>
<g id="a_Node000003"><a xlink:href="sstypes_8h.html" target="_top" xlink:title=" ">
<polygon fill="white" stroke="#666666" points="868.12,-74.5 809.38,-74.5 809.38,-55.25 868.12,-55.25 868.12,-74.5"/>
<text text-anchor="middle" x="838.75" y="-61" font-family="Helvetica,sans-Serif" font-size="10.00">sstypes.h</text>
</a>
</g>
</g>
<!-- Node2&#45;&gt;Node3 -->
<g id="edge2_Node000002_Node000003" class="edge">
<title>Node2&#45;&gt;Node3</title>
<g id="a_edge2_Node000002_Node000003"><a xlink:title=" ">
<path fill="none" stroke="#63b8ff" d="M818.1,-331.06C889.75,-313.56 1040.4,-273.87 1081.75,-240.25 1103.77,-222.35 1106.39,-212.4 1113.75,-185 1140.38,-85.88 962.69,-68.78 879.75,-66.16"/>
<polygon fill="#63b8ff" stroke="#63b8ff" points="880.07,-62.66 869.98,-65.91 879.89,-69.66 880.07,-62.66"/>
</a>
</g>
</g>
<!-- Node9 -->
<g id="Node000009" class="node">
<title>Node9</title>
<g id="a_Node000009"><a xlink:href="ssarchiver_8h.html" target="_top" xlink:title=" ">
<polygon fill="white" stroke="#666666" points="772,-129.75 703.5,-129.75 703.5,-110.5 772,-110.5 772,-129.75"/>
<text text-anchor="middle" x="737.75" y="-116.25" font-family="Helvetica,sans-Serif" font-size="10.00">ssarchiver.h</text>
</a>
</g>
</g>
<!-- Node2&#45;&gt;Node9 -->
<g id="edge8_Node000002_Node000009" class="edge">
<title>Node2&#45;&gt;Node9</title>
<g id="a_edge8_Node000002_Node000009"><a xlink:title=" ">
<path fill="none" stroke="#63b8ff" d="M769.06,-331.1C760.18,-322.86 748.15,-309.81 742.75,-295.5 722.86,-242.73 729.26,-174.47 734.23,-141.17"/>
<polygon fill="#63b8ff" stroke="#63b8ff" points="737.61,-142.15 735.76,-131.72 730.7,-141.03 737.61,-142.15"/>
</a>
</g>
</g>
<!-- Node2&#45;&gt;Node12 -->
<g id="edge14_Node000002_Node000012" class="edge">
<title>Node2&#45;&gt;Node12</title>
<g id="a_edge14_Node000002_Node000012"><a xlink:title=" ">
<path fill="none" stroke="#63b8ff" d="M737.17,-332.66C699.92,-325.43 644.74,-312.97 598.75,-295.5 500.16,-258.05 475.7,-244.69 388.75,-185 368.05,-170.79 346.71,-151.47 332.49,-137.81"/>
<polygon fill="#63b8ff" stroke="#63b8ff" points="335.31,-135.67 325.71,-131.19 330.42,-140.68 335.31,-135.67"/>
</a>
</g>
</g>
<!-- Node2&#45;&gt;Node17 -->
<g id="edge21_Node000002_Node000017" class="edge">
<title>Node2&#45;&gt;Node17</title>
<g id="a_edge21_Node000002_Node000017"><a xlink:title=" ">
<path fill="none" stroke="#63b8ff" d="M758.04,-331.09C737.72,-322.64 707.1,-309.9 683.94,-300.27"/>
<polygon fill="#63b8ff" stroke="#63b8ff" points="685.54,-297.14 674.97,-296.53 682.86,-303.61 685.54,-297.14"/>
</a>
</g>
</g>
<!-- Node2&#45;&gt;Node23 -->
<g id="edge35_Node000002_Node000023" class="edge">
<title>Node2&#45;&gt;Node23</title>
<g id="a_edge35_Node000002_Node000023"><a xlink:title=" ">
<path fill="none" stroke="#63b8ff" d="M784.17,-331.25C792.87,-313.76 812.4,-274.52 824.19,-250.84"/>
<polygon fill="#63b8ff" stroke="#63b8ff" points="827.27,-252.49 828.6,-241.98 821.01,-249.37 827.27,-252.49"/>
</a>
</g>
</g>
<!-- Node2&#45;&gt;Node24 -->
<g id="edge38_Node000002_Node000024" class="edge">
<title>Node2&#45;&gt;Node24</title>
<g id="a_edge38_Node000002_Node000024"><a xlink:title=" ">
<path fill="none" stroke="#63b8ff" d="M822.18,-335.11C885.1,-327.57 1007.13,-312.53 1120.5,-295.94"/>
<polygon fill="#63b8ff" stroke="#63b8ff" points="1120.91,-299.42 1130.3,-294.5 1119.89,-292.49 1120.91,-299.42"/>
</a>
</g>
</g>
<!-- Node27 -->
<g id="Node000027" class="node">
<title>Node27</title>
<g id="a_Node000027"><a xlink:title=" ">
<polygon fill="#e0e0e0" stroke="#999999" points="955.38,-185 904.12,-185 904.12,-165.75 955.38,-165.75 955.38,-185"/>
<text text-anchor="middle" x="929.75" y="-171.5" font-family="Helvetica,sans-Serif" font-size="10.00">memory</text>
</a>
</g>
</g>
<!-- Node2&#45;&gt;Node27 -->
<g id="edge52_Node000002_Node000027" class="edge">
<title>Node2&#45;&gt;Node27</title>
<g id="a_edge52_Node000002_Node000027"><a xlink:title=" ">
<path fill="none" stroke="#63b8ff" d="M790.85,-331.22C811.19,-314.6 855.25,-277.18 886.75,-240.25 898.95,-225.95 910.72,-208.08 918.85,-194.89"/>
<polygon fill="#63b8ff" stroke="#63b8ff" points="921.82,-196.75 923.98,-186.38 915.82,-193.14 921.82,-196.75"/>
</a>
</g>
</g>
<!-- Node2&#45;&gt;Node28 -->
<g id="edge49_Node000002_Node000028" class="edge">
<title>Node2&#45;&gt;Node28</title>
<g id="a_edge49_Node000002_Node000028"><a xlink:title=" ">
<path fill="none" stroke="#63b8ff" d="M822.06,-332.38C873.24,-323.02 959.49,-307.23 1015.77,-296.94"/>
<polygon fill="#63b8ff" stroke="#63b8ff" points="1016.26,-300.4 1025.47,-295.16 1015,-293.52 1016.26,-300.4"/>
</a>
</g>
</g>
<!-- Node29 -->
<g id="Node000029" class="node">
<title>Node29</title>
<g id="a_Node000029"><a xlink:title=" ">
<polygon fill="#e0e0e0" stroke="#999999" points="791.38,-295.5 752.12,-295.5 752.12,-276.25 791.38,-276.25 791.38,-295.5"/>
<text text-anchor="middle" x="771.75" y="-282" font-family="Helvetica,sans-Serif" font-size="10.00">utility</text>
</a>
</g>
</g>
<!-- Node2&#45;&gt;Node29 -->
<g id="edge53_Node000002_Node000029" class="edge">
<title>Node2&#45;&gt;Node29</title>
<g id="a_edge53_Node000002_Node000029"><a xlink:title=" ">
<path fill="none" stroke="#63b8ff" d="M778.43,-331.33C777.44,-324.74 776.04,-315.46 774.78,-307.07"/>
<polygon fill="#63b8ff" stroke="#63b8ff" points="778.27,-306.72 773.32,-297.36 771.35,-307.76 778.27,-306.72"/>
</a>
</g>
</g>
<!-- Node4 -->
<g id="Node000004" class="node">
<title>Node4</title>
<g id="a_Node000004"><a xlink:title=" ">
<polygon fill="#e0e0e0" stroke="#999999" points="862.5,-19.25 815,-19.25 815,0 862.5,0 862.5,-19.25"/>
<text text-anchor="middle" x="838.75" y="-5.75" font-family="Helvetica,sans-Serif" font-size="10.00">stdlib.h</text>
</a>
</g>
</g>
<!-- Node3&#45;&gt;Node4 -->
<g id="edge3_Node000003_Node000004" class="edge">
<title>Node3&#45;&gt;Node4</title>
<g id="a_edge3_Node000003_Node000004"><a xlink:title=" ">
<path fill="none" stroke="#63b8ff" d="M838.75,-55.08C838.75,-48.57 838.75,-39.42 838.75,-31.12"/>
<polygon fill="#63b8ff" stroke="#63b8ff" points="842.25,-31.12 838.75,-21.12 835.25,-31.12 842.25,-31.12"/>
</a>
</g>
</g>
<!-- Node5 -->
<g id="Node000005" class="node">
<title>Node5</title>
<g id="a_Node000005"><a xlink:title=" ">
<polygon fill="#e0e0e0" stroke="#999999" points="199.75,-19.25 159.75,-19.25 159.75,0 199.75,0 199.75,-19.25"/>
<text text-anchor="middle" x="179.75" y="-5.75" font-family="Helvetica,sans-Serif" font-size="10.00">string</text>
</a>
</g>
</g>
<!-- Node3&#45;&gt;Node5 -->
<g id="edge4_Node000003_Node000005" class="edge">
<title>Node3&#45;&gt;Node5</title>
<g id="a_edge4_Node000003_Node000005"><a xlink:title=" ">
<path fill="none" stroke="#63b8ff" d="M809.02,-56.83C805.9,-56.23 802.77,-55.69 799.75,-55.25 576.16,-22.66 303.58,-13.53 211.71,-11.28"/>
<polygon fill="#63b8ff" stroke="#63b8ff" points="211.8,-7.78 201.72,-11.05 211.63,-14.78 211.8,-7.78"/>
</a>
</g>
</g>
<!-- Node6 -->
<g id="Node000006" class="node">
<title>Node6</title>
<g id="a_Node000006"><a xlink:title=" ">
<polygon fill="#e0e0e0" stroke="#999999" points="640.25,-19.25 597.25,-19.25 597.25,0 640.25,0 640.25,-19.25"/>
<text text-anchor="middle" x="618.75" y="-5.75" font-family="Helvetica,sans-Serif" font-size="10.00">vector</text>
</a>
</g>
</g>
<!-- Node3&#45;&gt;Node6 -->
<g id="edge5_Node000003_Node000006" class="edge">
<title>Node3&#45;&gt;Node6</title>
<g id="a_edge5_Node000003_Node000006"><a xlink:title=" ">
<path fill="none" stroke="#63b8ff" d="M809.08,-56.69C768.13,-46.78 694.51,-28.96 651.83,-18.63"/>
<polygon fill="#63b8ff" stroke="#63b8ff" points="652.68,-15.24 642.14,-16.29 651.03,-22.04 652.68,-15.24"/>
</a>
</g>
</g>
<!-- Node7 -->
<g id="Node000007" class="node">
<title>Node7</title>
<g id="a_Node000007"><a xlink:title=" ">
<polygon fill="#e0e0e0" stroke="#999999" points="923.25,-19.25 880.25,-19.25 880.25,0 923.25,0 923.25,-19.25"/>
<text text-anchor="middle" x="901.75" y="-5.75" font-family="Helvetica,sans-Serif" font-size="10.00">cmath</text>
</a>
</g>
</g>
<!-- Node3&#45;&gt;Node7 -->
<g id="edge6_Node000003_Node000007" class="edge">
<title>Node3&#45;&gt;Node7</title>
<g id="a_edge6_Node000003_Node000007"><a xlink:title=" ">
<path fill="none" stroke="#63b8ff" d="M849.44,-54.84C858.45,-47.22 871.58,-36.12 882.43,-26.95"/>
<polygon fill="#63b8ff" stroke="#63b8ff" points="884.69,-29.63 890.06,-20.5 880.17,-24.28 884.69,-29.63"/>
</a>
</g>
</g>
<!-- Node8 -->
<g id="Node000008" class="node">
<title>Node8</title>
<g id="a_Node000008"><a xlink:title=" ">
<polygon fill="#e0e0e0" stroke="#999999" points="796.62,-19.25 740.88,-19.25 740.88,0 796.62,0 796.62,-19.25"/>
<text text-anchor="middle" x="768.75" y="-5.75" font-family="Helvetica,sans-Serif" font-size="10.00">algorithm</text>
</a>
</g>
</g>
<!-- Node3&#45;&gt;Node8 -->
<g id="edge7_Node000003_Node000008" class="edge">
<title>Node3&#45;&gt;Node8</title>
<g id="a_edge7_Node000003_Node000008"><a xlink:title=" ">
<path fill="none" stroke="#63b8ff" d="M826.88,-54.84C816.66,-47.07 801.68,-35.67 789.49,-26.4"/>
<polygon fill="#63b8ff" stroke="#63b8ff" points="791.73,-23.71 781.65,-20.44 787.49,-29.28 791.73,-23.71"/>
</a>
</g>
</g>
<!-- Node9&#45;&gt;Node3 -->
<g id="edge10_Node000009_Node000003" class="edge">
<title>Node9&#45;&gt;Node3</title>
<g id="a_edge10_Node000009_Node000003"><a xlink:title=" ">
<path fill="none" stroke="#63b8ff" d="M754.88,-110.09C770.41,-101.91 793.55,-89.71 811.59,-80.19"/>
<polygon fill="#63b8ff" stroke="#63b8ff" points="812.98,-83.42 820.19,-75.66 809.72,-77.23 812.98,-83.42"/>
</a>
</g>
</g>
<!-- Node9&#45;&gt;Node5 -->
<g id="edge11_Node000009_Node000005" class="edge">
<title>Node9&#45;&gt;Node5</title>
<g id="a_edge11_Node000009_Node000005"><a xlink:title=" ">
<path fill="none" stroke="#63b8ff" d="M717.63,-110.08C685.41,-95.99 619.95,-69.01 561.75,-55.25 433.9,-25.02 276.93,-14.9 211.12,-11.83"/>
<polygon fill="#63b8ff" stroke="#63b8ff" points="211.57,-8.35 201.43,-11.4 211.27,-15.34 211.57,-8.35"/>
</a>
</g>
</g>
<!-- Node9&#45;&gt;Node6 -->
<g id="edge12_Node000009_Node000006" class="edge">
<title>Node9&#45;&gt;Node6</title>
<g id="a_edge12_Node000009_Node000006"><a xlink:title=" ">
<path fill="none" stroke="#63b8ff" d="M723.29,-110.03C710.28,-101.54 690.93,-88.17 675.75,-74.5 659.75,-60.1 643.61,-41.54 632.61,-28.15"/>
<polygon fill="#63b8ff" stroke="#63b8ff" points="635.54,-26.2 626.53,-20.62 630.09,-30.6 635.54,-26.2"/>
</a>
</g>
</g>
<!-- Node10 -->
<g id="Node000010" class="node">
<title>Node10</title>
<g id="a_Node000010"><a xlink:title=" ">
<polygon fill="#e0e0e0" stroke="#999999" points="791.12,-74.5 684.38,-74.5 684.38,-55.25 791.12,-55.25 791.12,-74.5"/>
<text text-anchor="middle" x="737.75" y="-61" font-family="Helvetica,sans-Serif" font-size="10.00">./tinyxml2/tinyxml2.h</text>
</a>
</g>
</g>
<!-- Node9&#45;&gt;Node10 -->
<g id="edge9_Node000009_Node000010" class="edge">
<title>Node9&#45;&gt;Node10</title>
<g id="a_edge9_Node000009_Node000010"><a xlink:title=" ">
<path fill="none" stroke="#63b8ff" d="M737.75,-110.33C737.75,-103.82 737.75,-94.67 737.75,-86.37"/>
<polygon fill="#63b8ff" stroke="#63b8ff" points="741.25,-86.37 737.75,-76.37 734.25,-86.37 741.25,-86.37"/>
</a>
</g>
</g>
<!-- Node11 -->
<g id="Node000011" class="node">
<title>Node11</title>
<g id="a_Node000011"><a xlink:title=" ">
<polygon fill="#e0e0e0" stroke="#999999" points="553.12,-74.5 518.38,-74.5 518.38,-55.25 553.12,-55.25 553.12,-74.5"/>
<text text-anchor="middle" x="535.75" y="-61" font-family="Helvetica,sans-Serif" font-size="10.00">map</text>
</a>
</g>
</g>
<!-- Node9&#45;&gt;Node11 -->
<g id="edge13_Node000009_Node000011" class="edge">
<title>Node9&#45;&gt;Node11</title>
<g id="a_edge13_Node000009_Node000011"><a xlink:title=" ">
<path fill="none" stroke="#63b8ff" d="M703.48,-110.09C664.38,-99.78 601.12,-83.11 564.49,-73.45"/>
<polygon fill="#63b8ff" stroke="#63b8ff" points="565.62,-70.13 555.06,-70.96 563.83,-76.9 565.62,-70.13"/>
</a>
</g>
</g>
<!-- Node12&#45;&gt;Node5 -->
<g id="edge15_Node000012_Node000005" class="edge">
<title>Node12&#45;&gt;Node5</title>
<g id="a_edge15_Node000012_Node000005"><a xlink:title=" ">
<path fill="none" stroke="#63b8ff" d="M277.37,-113.5C251.79,-107.83 219.22,-96.58 198.75,-74.5 187.79,-62.68 183.13,-44.8 181.16,-30.96"/>
<polygon fill="#63b8ff" stroke="#63b8ff" points="184.66,-30.78 180.16,-21.19 177.7,-31.49 184.66,-30.78"/>
</a>
</g>
</g>
<!-- Node12&#45;&gt;Node6 -->
<g id="edge17_Node000012_Node000006" class="edge">
<title>Node12&#45;&gt;Node6</title>
<g id="a_edge17_Node000012_Node000006"><a xlink:title=" ">
<path fill="none" stroke="#63b8ff" d="M354.25,-110.29C386.24,-102.43 432.67,-89.82 471.75,-74.5 489.38,-67.59 492.53,-63.12 509.75,-55.25 535.09,-43.67 564.33,-31.77 586.15,-23.18"/>
<polygon fill="#63b8ff" stroke="#63b8ff" points="587.37,-26.46 595.41,-19.56 584.82,-19.94 587.37,-26.46"/>
</a>
</g>
</g>
<!-- Node13 -->
<g id="Node000013" class="node">
<title>Node13</title>
<g id="a_Node000013"><a xlink:title=" ">
<polygon fill="#e0e0e0" stroke="#999999" points="462.25,-74.5 413.25,-74.5 413.25,-55.25 462.25,-55.25 462.25,-74.5"/>
<text text-anchor="middle" x="437.75" y="-61" font-family="Helvetica,sans-Serif" font-size="10.00">fstream</text>
</a>
</g>
</g>
<!-- Node12&#45;&gt;Node13 -->
<g id="edge16_Node000012_Node000013" class="edge">
<title>Node12&#45;&gt;Node13</title>
<g id="a_edge16_Node000012_Node000013"><a xlink:title=" ">
<path fill="none" stroke="#63b8ff" d="M336.45,-110.09C355.64,-101.72 384.46,-89.13 406.47,-79.53"/>
<polygon fill="#63b8ff" stroke="#63b8ff" points="407.8,-82.77 415.57,-75.56 405,-76.35 407.8,-82.77"/>
</a>
</g>
</g>
<!-- Node14 -->
<g id="Node000014" class="node">
<title>Node14</title>
<g id="a_Node000014"><a xlink:title=" ">
<polygon fill="#e0e0e0" stroke="#999999" points="261.5,-74.5 208,-74.5 208,-55.25 261.5,-55.25 261.5,-74.5"/>
<text text-anchor="middle" x="234.75" y="-61" font-family="Helvetica,sans-Serif" font-size="10.00">iostream</text>
</a>
</g>
</g>
<!-- Node12&#45;&gt;Node14 -->
<g id="edge18_Node000012_Node000014" class="edge">
<title>Node12&#45;&gt;Node14</title>
<g id="a_edge18_Node000012_Node000014"><a xlink:title=" ">
<path fill="none" stroke="#63b8ff" d="M302.01,-110.09C290.02,-102.21 272.38,-90.61 258.17,-81.27"/>
<polygon fill="#63b8ff" stroke="#63b8ff" points="260.1,-78.35 249.82,-75.78 256.26,-84.2 260.1,-78.35"/>
</a>
</g>
</g>
<!-- Node15 -->
<g id="Node000015" class="node">
<title>Node15</title>
<g id="a_Node000015"><a xlink:title=" ">
<polygon fill="#e0e0e0" stroke="#999999" points="330.38,-74.5 279.12,-74.5 279.12,-55.25 330.38,-55.25 330.38,-74.5"/>
<text text-anchor="middle" x="304.75" y="-61" font-family="Helvetica,sans-Serif" font-size="10.00">sstream</text>
</a>
</g>
</g>
<!-- Node12&#45;&gt;Node15 -->
<g id="edge19_Node000012_Node000015" class="edge">
<title>Node12&#45;&gt;Node15</title>
<g id="a_edge19_Node000012_Node000015"><a xlink:title=" ">
<path fill="none" stroke="#63b8ff" d="M313.93,-110.33C312.57,-103.74 310.65,-94.46 308.92,-86.07"/>
<polygon fill="#63b8ff" stroke="#63b8ff" points="312.36,-85.43 306.91,-76.34 305.51,-86.84 312.36,-85.43"/>
</a>
</g>
</g>
<!-- Node16 -->
<g id="Node000016" class="node">
<title>Node16</title>
<g id="a_Node000016"><a xlink:title=" ">
<polygon fill="#e0e0e0" stroke="#999999" points="394.75,-74.5 348.75,-74.5 348.75,-55.25 394.75,-55.25 394.75,-74.5"/>
<text text-anchor="middle" x="371.75" y="-61" font-family="Helvetica,sans-Serif" font-size="10.00">iterator</text>
</a>
</g>
</g>
<!-- Node12&#45;&gt;Node16 -->
<g id="edge20_Node000012_Node000016" class="edge">
<title>Node12&#45;&gt;Node16</title>
<g id="a_edge20_Node000012_Node000016"><a xlink:title=" ">
<path fill="none" stroke="#63b8ff" d="M325.25,-110.09C333.18,-102.55 344.7,-91.6 354.29,-82.48"/>
<polygon fill="#63b8ff" stroke="#63b8ff" points="356.46,-85.24 361.29,-75.82 351.64,-80.17 356.46,-85.24"/>
</a>
</g>
</g>
<!-- Node17&#45;&gt;Node3 -->
<g id="edge22_Node000017_Node000003" class="edge">
<title>Node17&#45;&gt;Node3</title>
<g id="a_edge22_Node000017_Node000003"><a xlink:title=" ">
<path fill="none" stroke="#63b8ff" d="M659.56,-276.02C667.46,-267.04 680.01,-252.72 690.75,-240.25 739.83,-183.26 797.3,-115.15 823.88,-83.57"/>
<polygon fill="#63b8ff" stroke="#63b8ff" points="826.36,-86.06 830.12,-76.15 821,-81.55 826.36,-86.06"/>
</a>
</g>
</g>
<!-- Node17&#45;&gt;Node9 -->
<g id="edge23_Node000017_Node000009" class="edge">
<title>Node17&#45;&gt;Node9</title>
<g id="a_edge23_Node000017_Node000009"><a xlink:title=" ">
<path fill="none" stroke="#63b8ff" d="M655.66,-276.04C664.58,-256.06 687.42,-205.97 709.75,-165.75 714.57,-157.06 720.34,-147.71 725.39,-139.83"/>
<polygon fill="#63b8ff" stroke="#63b8ff" points="728.32,-141.74 730.84,-131.45 722.45,-137.92 728.32,-141.74"/>
</a>
</g>
</g>
<!-- Node18 -->
<g id="Node000018" class="node">
<title>Node18</title>
<g id="a_Node000018"><a xlink:href="ssattribute_8h.html" target="_top" xlink:title=" ">
<polygon fill="white" stroke="#666666" points="580.75,-240.25 510.75,-240.25 510.75,-221 580.75,-221 580.75,-240.25"/>
<text text-anchor="middle" x="545.75" y="-226.75" font-family="Helvetica,sans-Serif" font-size="10.00">ssattribute.h</text>
</a>
</g>
</g>
<!-- Node17&#45;&gt;Node18 -->
<g id="edge24_Node000017_Node000018" class="edge">
<title>Node17&#45;&gt;Node18</title>
<g id="a_edge24_Node000017_Node000018"><a xlink:title=" ">
<path fill="none" stroke="#63b8ff" d="M633.77,-275.84C617.4,-267.62 592.96,-255.34 573.99,-245.81"/>
<polygon fill="#63b8ff" stroke="#63b8ff" points="575.68,-242.74 565.17,-241.38 572.54,-249 575.68,-242.74"/>
</a>
</g>
</g>
<!-- Node18&#45;&gt;Node3 -->
<g id="edge25_Node000018_Node000003" class="edge">
<title>Node18&#45;&gt;Node3</title>
<g id="a_edge25_Node000018_Node000003"><a xlink:title=" ">
<path fill="none" stroke="#63b8ff" d="M567.47,-220.52C584.99,-212.59 609.76,-200.03 628.75,-185 663.43,-157.55 657.58,-134.49 694.75,-110.5 711.99,-99.37 762.12,-85.14 798.39,-75.77"/>
<polygon fill="#63b8ff" stroke="#63b8ff" points="798.86,-79.27 807.69,-73.41 797.13,-72.48 798.86,-79.27"/>
</a>
</g>
</g>
<!-- Node18&#45;&gt;Node11 -->
<g id="edge34_Node000018_Node000011" class="edge">
<title>Node18&#45;&gt;Node11</title>
<g id="a_edge34_Node000018_Node000011"><a xlink:title=" ">
<path fill="none" stroke="#63b8ff" d="M510.43,-229.81C476.17,-227.86 425.79,-218.9 400.75,-185 365.26,-136.95 458,-94.25 507.29,-75.69"/>
<polygon fill="#63b8ff" stroke="#63b8ff" points="508.32,-79.04 516.51,-72.32 505.92,-72.47 508.32,-79.04"/>
</a>
</g>
</g>
<!-- Node19 -->
<g id="Node000019" class="node">
<title>Node19</title>
<g id="a_Node000019"><a xlink:href="ssvalue_8h.html" target="_top" xlink:title=" ">
<polygon fill="white" stroke="#666666" points="619.75,-185 561.75,-185 561.75,-165.75 619.75,-165.75 619.75,-185"/>
<text text-anchor="middle" x="590.75" y="-171.5" font-family="Helvetica,sans-Serif" font-size="10.00">ssvalue.h</text>
</a>
</g>
</g>
<!-- Node18&#45;&gt;Node19 -->
<g id="edge26_Node000018_Node000019" class="edge">
<title>Node18&#45;&gt;Node19</title>
<g id="a_edge26_Node000018_Node000019"><a xlink:title=" ">
<path fill="none" stroke="#63b8ff" d="M553.18,-220.83C559.33,-213.55 568.26,-202.98 575.88,-193.98"/>
<polygon fill="#63b8ff" stroke="#63b8ff" points="578.4,-196.41 582.18,-186.52 573.05,-191.89 578.4,-196.41"/>
</a>
</g>
</g>
<!-- Node21 -->
<g id="Node000021" class="node">
<title>Node21</title>
<g id="a_Node000021"><a xlink:href="ss_interpolation_8h.html" target="_top" xlink:title=" ">
<polygon fill="white" stroke="#666666" points="543.75,-185 455.75,-185 455.75,-165.75 543.75,-165.75 543.75,-185"/>
<text text-anchor="middle" x="499.75" y="-171.5" font-family="Helvetica,sans-Serif" font-size="10.00">ssInterpolation.h</text>
</a>
</g>
</g>
<!-- Node18&#45;&gt;Node21 -->
<g id="edge32_Node000018_Node000021" class="edge">
<title>Node18&#45;&gt;Node21</title>
<g id="a_edge32_Node000018_Node000021"><a xlink:title=" ">
<path fill="none" stroke="#63b8ff" d="M538.15,-220.83C531.87,-213.55 522.74,-202.98 514.95,-193.98"/>
<polygon fill="#63b8ff" stroke="#63b8ff" points="517.69,-191.78 508.5,-186.5 512.39,-196.36 517.69,-191.78"/>
</a>
</g>
</g>
<!-- Node22 -->
<g id="Node000022" class="node">
<title>Node22</title>
<g id="a_Node000022"><a xlink:title=" ">
<polygon fill="#e0e0e0" stroke="#999999" points="438.15,-185 409.35,-185 409.35,-165.75 438.15,-165.75 438.15,-185"/>
<text text-anchor="middle" x="423.75" y="-171.5" font-family="Helvetica,sans-Serif" font-size="10.00">list</text>
</a>
</g>
</g>
<!-- Node18&#45;&gt;Node22 -->
<g id="edge33_Node000018_Node000022" class="edge">
<title>Node18&#45;&gt;Node22</title>
<g id="a_edge33_Node000018_Node000022"><a xlink:title=" ">
<path fill="none" stroke="#63b8ff" d="M525.05,-220.59C504,-211.4 471.36,-197.15 448.84,-187.33"/>
<polygon fill="#63b8ff" stroke="#63b8ff" points="450.36,-184.17 439.79,-183.38 447.56,-190.58 450.36,-184.17"/>
</a>
</g>
</g>
<!-- Node19&#45;&gt;Node6 -->
<g id="edge30_Node000019_Node000006" class="edge">
<title>Node19&#45;&gt;Node6</title>
<g id="a_edge30_Node000019_Node000006"><a xlink:title=" ">
<path fill="none" stroke="#63b8ff" d="M590,-165.65C589.11,-153.3 588.06,-130.06 590.75,-110.5 594.67,-81.99 604.61,-50.15 611.52,-30.25"/>
<polygon fill="#63b8ff" stroke="#63b8ff" points="614.77,-31.56 614.85,-20.96 608.18,-29.2 614.77,-31.56"/>
</a>
</g>
</g>
<!-- Node19&#45;&gt;Node9 -->
<g id="edge27_Node000019_Node000009" class="edge">
<title>Node19&#45;&gt;Node9</title>
<g id="a_edge27_Node000019_Node000009"><a xlink:title=" ">
<path fill="none" stroke="#63b8ff" d="M615.69,-165.34C639.44,-156.74 675.46,-143.69 702.21,-134"/>
<polygon fill="#63b8ff" stroke="#63b8ff" points="703.06,-137.41 711.27,-130.72 700.67,-130.83 703.06,-137.41"/>
</a>
</g>
</g>
<!-- Node19&#45;&gt;Node11 -->
<g id="edge29_Node000019_Node000011" class="edge">
<title>Node19&#45;&gt;Node11</title>
<g id="a_edge29_Node000019_Node000011"><a xlink:title=" ">
<path fill="none" stroke="#63b8ff" d="M582.78,-165.36C575.47,-156.71 564.75,-143.05 557.75,-129.75 550.39,-115.75 544.67,-98.77 540.92,-85.83"/>
<polygon fill="#63b8ff" stroke="#63b8ff" points="544.34,-85.09 538.33,-76.36 537.59,-86.93 544.34,-85.09"/>
</a>
</g>
</g>
<!-- Node19&#45;&gt;Node12 -->
<g id="edge28_Node000019_Node000012" class="edge">
<title>Node19&#45;&gt;Node12</title>
<g id="a_edge28_Node000019_Node000012"><a xlink:title=" ">
<path fill="none" stroke="#63b8ff" d="M561.32,-167.58C558.42,-166.95 555.53,-166.33 552.75,-165.75 488.18,-152.35 413.34,-138.54 365.32,-129.91"/>
<polygon fill="#63b8ff" stroke="#63b8ff" points="365.96,-126.47 355.5,-128.15 364.73,-133.36 365.96,-126.47"/>
</a>
</g>
</g>
<!-- Node20 -->
<g id="Node000020" class="node">
<title>Node20</title>
<g id="a_Node000020"><a xlink:title=" ">
<polygon fill="#e0e0e0" stroke="#999999" points="647.88,-129.75 599.62,-129.75 599.62,-110.5 647.88,-110.5 647.88,-129.75"/>
<text text-anchor="middle" x="623.75" y="-116.25" font-family="Helvetica,sans-Serif" font-size="10.00">cassert</text>
</a>
</g>
</g>
<!-- Node19&#45;&gt;Node20 -->
<g id="edge31_Node000019_Node000020" class="edge">
<title>Node19&#45;&gt;Node20</title>
<g id="a_edge31_Node000019_Node000020"><a xlink:title=" ">
<path fill="none" stroke="#63b8ff" d="M596.2,-165.58C600.52,-158.61 606.71,-148.62 612.13,-139.87"/>
<polygon fill="#63b8ff" stroke="#63b8ff" points="615.09,-141.74 617.39,-131.4 609.14,-138.05 615.09,-141.74"/>
</a>
</g>
</g>
<!-- Node23&#45;&gt;Node3 -->
<g id="edge36_Node000023_Node000003" class="edge">
<title>Node23&#45;&gt;Node3</title>
<g id="a_edge36_Node000023_Node000003"><a xlink:title=" ">
<path fill="none" stroke="#63b8ff" d="M834.02,-220.82C834.79,-195.5 837.04,-122 838.13,-86.09"/>
<polygon fill="#63b8ff" stroke="#63b8ff" points="841.63,-86.34 838.43,-76.24 834.63,-86.12 841.63,-86.34"/>
</a>
</g>
</g>
<!-- Node23&#45;&gt;Node9 -->
<g id="edge37_Node000023_Node000009" class="edge">
<title>Node23&#45;&gt;Node9</title>
<g id="a_edge37_Node000023_Node000009"><a xlink:title=" ">
<path fill="none" stroke="#63b8ff" d="M825.89,-220.75C810.07,-202.86 774.11,-162.22 753.34,-138.75"/>
<polygon fill="#63b8ff" stroke="#63b8ff" points="755.97,-136.43 746.72,-131.26 750.72,-141.07 755.97,-136.43"/>
</a>
</g>
</g>
<!-- Node24&#45;&gt;Node3 -->
<g id="edge39_Node000024_Node000003" class="edge">
<title>Node24&#45;&gt;Node3</title>
<g id="a_edge39_Node000024_Node000003"><a xlink:title=" ">
<path fill="none" stroke="#63b8ff" d="M1180.53,-275.98C1195.31,-247.17 1236.51,-155.65 1189.75,-110.5 1146.37,-68.61 963.06,-64.73 879.98,-65.19"/>
<polygon fill="#63b8ff" stroke="#63b8ff" points="879.96,-61.69 869.99,-65.27 880.02,-68.69 879.96,-61.69"/>
</a>
</g>
</g>
<!-- Node24&#45;&gt;Node9 -->
<g id="edge40_Node000024_Node000009" class="edge">
<title>Node24&#45;&gt;Node9</title>
<g id="a_edge40_Node000024_Node000009"><a xlink:title=" ">
<path fill="none" stroke="#63b8ff" d="M1172.89,-275.77C1165.17,-252.82 1141.52,-192.56 1098.75,-165.75 1047.2,-133.43 868.73,-124.48 783.61,-122.03"/>
<polygon fill="#63b8ff" stroke="#63b8ff" points="783.85,-118.54 773.76,-121.77 783.66,-125.54 783.85,-118.54"/>
</a>
</g>
</g>
<!-- Node25 -->
<g id="Node000025" class="node">
<title>Node25</title>
<g id="a_Node000025"><a xlink:href="_ss_effect_behavior_8h.html" target="_top" xlink:title=" ">
<polygon fill="white" stroke="#666666" points="1072.75,-240.25 972.75,-240.25 972.75,-221 1072.75,-221 1072.75,-240.25"/>
<text text-anchor="middle" x="1022.75" y="-226.75" font-family="Helvetica,sans-Serif" font-size="10.00">SsEffectBehavior.h</text>
</a>
</g>
</g>
<!-- Node24&#45;&gt;Node25 -->
<g id="edge41_Node000024_Node000025" class="edge">
<title>Node24&#45;&gt;Node25</title>
<g id="a_edge41_Node000024_Node000025"><a xlink:title=" ">
<path fill="none" stroke="#63b8ff" d="M1149.8,-275.84C1124.96,-267.2 1087.25,-254.07 1059.37,-244.37"/>
<polygon fill="#63b8ff" stroke="#63b8ff" points="1060.86,-241.18 1050.26,-241.2 1058.56,-247.79 1060.86,-241.18"/>
</a>
</g>
</g>
<!-- Node25&#45;&gt;Node3 -->
<g id="edge46_Node000025_Node000003" class="edge">
<title>Node25&#45;&gt;Node3</title>
<g id="a_edge46_Node000025_Node000003"><a xlink:title=" ">
<path fill="none" stroke="#63b8ff" d="M1049.58,-220.53C1077.52,-209.55 1115.1,-189.54 1098.75,-165.75 1049.07,-93.45 939.24,-73.47 879.46,-67.96"/>
<polygon fill="#63b8ff" stroke="#63b8ff" points="879.96,-64.49 869.71,-67.16 879.39,-71.46 879.96,-64.49"/>
</a>
</g>
</g>
<!-- Node25&#45;&gt;Node19 -->
<g id="edge47_Node000025_Node000019" class="edge">
<title>Node25&#45;&gt;Node19</title>
<g id="a_edge47_Node000025_Node000019"><a xlink:title=" ">
<path fill="none" stroke="#63b8ff" d="M972.35,-223.41C885.69,-212.73 710.16,-191.09 631.03,-181.34"/>
<polygon fill="#63b8ff" stroke="#63b8ff" points="631.94,-177.93 621.58,-180.18 631.08,-184.87 631.94,-177.93"/>
</a>
</g>
</g>
<!-- Node26 -->
<g id="Node000026" class="node">
<title>Node26</title>
<g id="a_Node000026"><a xlink:href="_ss_effect_element_8h.html" target="_top" xlink:title=" ">
<polygon fill="white" stroke="#666666" points="1072,-185 973.5,-185 973.5,-165.75 1072,-165.75 1072,-185"/>
<text text-anchor="middle" x="1022.75" y="-171.5" font-family="Helvetica,sans-Serif" font-size="10.00">SsEffectElement.h</text>
</a>
</g>
</g>
<!-- Node25&#45;&gt;Node26 -->
<g id="edge42_Node000025_Node000026" class="edge">
<title>Node25&#45;&gt;Node26</title>
<g id="a_edge42_Node000025_Node000026"><a xlink:title=" ">
<path fill="none" stroke="#63b8ff" d="M1022.75,-220.83C1022.75,-214.32 1022.75,-205.17 1022.75,-196.87"/>
<polygon fill="#63b8ff" stroke="#63b8ff" points="1026.25,-196.87 1022.75,-186.87 1019.25,-196.87 1026.25,-196.87"/>
</a>
</g>
</g>
<!-- Node25&#45;&gt;Node27 -->
<g id="edge48_Node000025_Node000027" class="edge">
<title>Node25&#45;&gt;Node27</title>
<g id="a_edge48_Node000025_Node000027"><a xlink:title=" ">
<path fill="none" stroke="#63b8ff" d="M1006.97,-220.59C992.81,-212.48 971.77,-200.43 955.22,-190.96"/>
<polygon fill="#63b8ff" stroke="#63b8ff" points="957.33,-188.14 946.92,-186.2 953.86,-194.21 957.33,-188.14"/>
</a>
</g>
</g>
<!-- Node26&#45;&gt;Node3 -->
<g id="edge43_Node000026_Node000003" class="edge">
<title>Node26&#45;&gt;Node3</title>
<g id="a_edge43_Node000026_Node000003"><a xlink:title=" ">
<path fill="none" stroke="#63b8ff" d="M1007.38,-165.31C975.58,-146.56 902.34,-103.37 863.69,-80.58"/>
<polygon fill="#63b8ff" stroke="#63b8ff" points="865.9,-77.82 855.51,-75.76 862.35,-83.85 865.9,-77.82"/>
</a>
</g>
</g>
<!-- Node26&#45;&gt;Node9 -->
<g id="edge44_Node000026_Node000009" class="edge">
<title>Node26&#45;&gt;Node9</title>
<g id="a_edge44_Node000026_Node000009"><a xlink:title=" ">
<path fill="none" stroke="#63b8ff" d="M974.08,-165.28C920.72,-155.31 835.77,-139.44 783.57,-129.69"/>
<polygon fill="#63b8ff" stroke="#63b8ff" points="784.28,-126.26 773.8,-127.86 782.99,-133.14 784.28,-126.26"/>
</a>
</g>
</g>
<!-- Node26&#45;&gt;Node26 -->
<g id="edge45_Node000026_Node000026" class="edge">
<title>Node26&#45;&gt;Node26</title>
<g id="a_edge45_Node000026_Node000026"><a xlink:title=" ">
<path fill="none" stroke="#63b8ff" d="M1058.04,-185.48C1075.02,-186.73 1090,-183.36 1090,-175.38 1090,-169.26 1081.22,-165.85 1069.48,-165.15"/>
<polygon fill="#63b8ff" stroke="#63b8ff" points="1069.52,-161.65 1059.55,-165.25 1069.59,-168.65 1069.52,-161.65"/>
</a>
</g>
</g>
<!-- Node28&#45;&gt;Node3 -->
<g id="edge50_Node000028_Node000003" class="edge">
<title>Node28&#45;&gt;Node3</title>
<g id="a_edge50_Node000028_Node000003"><a xlink:title=" ">
<path fill="none" stroke="#63b8ff" d="M1091.55,-275.9C1107.25,-268.28 1128.45,-256.07 1142.75,-240.25 1182.26,-196.56 1208.52,-154.85 1169.75,-110.5 1132.51,-67.9 959.7,-64.32 879.65,-65.02"/>
<polygon fill="#63b8ff" stroke="#63b8ff" points="880.01,-61.52 870.05,-65.13 880.09,-68.52 880.01,-61.52"/>
</a>
</g>
</g>
<!-- Node28&#45;&gt;Node9 -->
<g id="edge51_Node000028_Node000009" class="edge">
<title>Node28&#45;&gt;Node9</title>
<g id="a_edge51_Node000028_Node000009"><a xlink:title=" ">
<path fill="none" stroke="#63b8ff" d="M1047.53,-275.89C1025.68,-267.27 992.16,-253.63 963.75,-240.25 889.74,-205.4 805.06,-158.93 763.5,-135.67"/>
<polygon fill="#63b8ff" stroke="#63b8ff" points="765.42,-132.74 754.99,-130.89 761.99,-138.84 765.42,-132.74"/>
</a>
</g>
</g>
<!-- Node30&#45;&gt;Node5 -->
<g id="edge60_Node000030_Node000005" class="edge">
<title>Node30&#45;&gt;Node5</title>
<g id="a_edge60_Node000030_Node000005"><a xlink:title=" ">
<path fill="none" stroke="#63b8ff" d="M58.82,-220.54C65.35,-193.39 87.45,-111.22 127.75,-55.25 135.76,-44.13 147.09,-33.98 157.13,-26.18"/>
<polygon fill="#63b8ff" stroke="#63b8ff" points="159.03,-29.13 164.99,-20.37 154.87,-23.5 159.03,-29.13"/>
</a>
</g>
</g>
<!-- Node31&#45;&gt;Node5 -->
<g id="edge62_Node000031_Node000005" class="edge">
<title>Node31&#45;&gt;Node5</title>
<g id="a_edge62_Node000031_Node000005"><a xlink:title=" ">
<path fill="none" stroke="#63b8ff" d="M194.91,-331.01C177.19,-313.57 141.75,-273.45 141.75,-231.62 141.75,-231.62 141.75,-231.62 141.75,-119.12 141.75,-86.13 157.59,-50.51 168.82,-29.41"/>
<polygon fill="#63b8ff" stroke="#63b8ff" points="171.77,-31.3 173.57,-20.86 165.65,-27.9 171.77,-31.3"/>
</a>
</g>
</g>
</g>
</svg>
