<?xml version="1.0" encoding="UTF-8" standalone="no"?>
<!DOCTYPE svg PUBLIC "-//W3C//DTD SVG 1.1//EN"
 "http://www.w3.org/Graphics/SVG/1.1/DTD/svg11.dtd">
<!-- Generated by graphviz version 12.2.1 (20241206.2353)
 -->
<!-- Title: Common/Loader/ssloader_ssae.cpp Pages: 1 -->
<svg width="687pt" height="370pt"
 viewBox="0.00 0.00 687.38 370.00" xmlns="http://www.w3.org/2000/svg" xmlns:xlink="http://www.w3.org/1999/xlink">
<g id="graph0" class="graph" transform="scale(1 1) rotate(0) translate(4 366)">
<title>Common/Loader/ssloader_ssae.cpp</title>
<!-- Node1 -->
<g id="Node000001" class="node">
<title>Node1</title>
<g id="a_Node000001"><a xlink:title=" ">
<polygon fill="#999999" stroke="#666666" points="645.38,-362 517.62,-362 517.62,-331.5 645.38,-331.5 645.38,-362"/>
<text text-anchor="start" x="525.62" y="-348.5" font-family="Helvetica,sans-Serif" font-size="10.00">Common/Loader/ssloader</text>
<text text-anchor="middle" x="581.5" y="-337.25" font-family="Helvetica,sans-Serif" font-size="10.00">_ssae.cpp</text>
</a>
</g>
</g>
<!-- Node2 -->
<g id="Node000002" class="node">
<title>Node2</title>
<g id="a_Node000002"><a xlink:href="ssloader__ssae_8h.html" target="_top" xlink:title=" ">
<polygon fill="white" stroke="#666666" points="574.12,-295.5 486.88,-295.5 486.88,-276.25 574.12,-276.25 574.12,-295.5"/>
<text text-anchor="middle" x="530.5" y="-282" font-family="Helvetica,sans-Serif" font-size="10.00">ssloader_ssae.h</text>
</a>
</g>
</g>
<!-- Node1&#45;&gt;Node2 -->
<g id="edge1_Node000001_Node000002" class="edge">
<title>Node1&#45;&gt;Node2</title>
<g id="a_edge1_Node000001_Node000002"><a xlink:title=" ">
<path fill="none" stroke="#63b8ff" d="M568.89,-331.2C561.87,-323.09 553.09,-312.95 545.69,-304.41"/>
<polygon fill="#63b8ff" stroke="#63b8ff" points="548.55,-302.36 539.35,-297.1 543.26,-306.95 548.55,-302.36"/>
</a>
</g>
</g>
<!-- Node22 -->
<g id="Node000022" class="node">
<title>Node22</title>
<g id="a_Node000022"><a xlink:href="ss_filesystem_8h.html" target="_top" xlink:title=" ">
<polygon fill="white" stroke="#666666" points="674.88,-295.5 592.12,-295.5 592.12,-276.25 674.88,-276.25 674.88,-295.5"/>
<text text-anchor="middle" x="633.5" y="-282" font-family="Helvetica,sans-Serif" font-size="10.00">ssFilesystem.h</text>
</a>
</g>
</g>
<!-- Node1&#45;&gt;Node22 -->
<g id="edge31_Node000001_Node000022" class="edge">
<title>Node1&#45;&gt;Node22</title>
<g id="a_edge31_Node000001_Node000022"><a xlink:title=" ">
<path fill="none" stroke="#63b8ff" d="M594.35,-331.2C601.51,-323.09 610.47,-312.95 618.01,-304.41"/>
<polygon fill="#63b8ff" stroke="#63b8ff" points="620.49,-306.9 624.48,-297.09 615.24,-302.26 620.49,-306.9"/>
</a>
</g>
</g>
<!-- Node3 -->
<g id="Node000003" class="node">
<title>Node3</title>
<g id="a_Node000003"><a xlink:href="sstypes_8h.html" target="_top" xlink:title=" ">
<polygon fill="white" stroke="#666666" points="550.88,-74.5 492.12,-74.5 492.12,-55.25 550.88,-55.25 550.88,-74.5"/>
<text text-anchor="middle" x="521.5" y="-61" font-family="Helvetica,sans-Serif" font-size="10.00">sstypes.h</text>
</a>
</g>
</g>
<!-- Node2&#45;&gt;Node3 -->
<g id="edge2_Node000002_Node000003" class="edge">
<title>Node2&#45;&gt;Node3</title>
<g id="a_edge2_Node000002_Node000003"><a xlink:title=" ">
<path fill="none" stroke="#63b8ff" d="M530.14,-276.02C528.81,-243.76 524.22,-132.01 522.33,-85.96"/>
<polygon fill="#63b8ff" stroke="#63b8ff" points="525.83,-85.96 521.92,-76.11 518.83,-86.25 525.83,-85.96"/>
</a>
</g>
</g>
<!-- Node9 -->
<g id="Node000009" class="node">
<title>Node9</title>
<g id="a_Node000009"><a xlink:href="ssarchiver_8h.html" target="_top" xlink:title=" ">
<polygon fill="white" stroke="#666666" points="417.75,-129.75 349.25,-129.75 349.25,-110.5 417.75,-110.5 417.75,-129.75"/>
<text text-anchor="middle" x="383.5" y="-116.25" font-family="Helvetica,sans-Serif" font-size="10.00">ssarchiver.h</text>
</a>
</g>
</g>
<!-- Node2&#45;&gt;Node9 -->
<g id="edge8_Node000002_Node000009" class="edge">
<title>Node2&#45;&gt;Node9</title>
<g id="a_edge8_Node000002_Node000009"><a xlink:title=" ">
<path fill="none" stroke="#63b8ff" d="M528.38,-275.93C522.87,-254.38 506.18,-198.89 473.5,-165.75 459.71,-151.76 440.63,-141.45 423.59,-134.28"/>
<polygon fill="#63b8ff" stroke="#63b8ff" points="425.3,-131.19 414.72,-130.77 422.73,-137.7 425.3,-131.19"/>
</a>
</g>
</g>
<!-- Node12 -->
<g id="Node000012" class="node">
<title>Node12</title>
<g id="a_Node000012"><a xlink:href="ssattribute_8h.html" target="_top" xlink:title=" ">
<polygon fill="white" stroke="#666666" points="447.5,-240.25 377.5,-240.25 377.5,-221 447.5,-221 447.5,-240.25"/>
<text text-anchor="middle" x="412.5" y="-226.75" font-family="Helvetica,sans-Serif" font-size="10.00">ssattribute.h</text>
</a>
</g>
</g>
<!-- Node2&#45;&gt;Node12 -->
<g id="edge14_Node000002_Node000012" class="edge">
<title>Node2&#45;&gt;Node12</title>
<g id="a_edge14_Node000002_Node000012"><a xlink:title=" ">
<path fill="none" stroke="#63b8ff" d="M510.48,-275.84C492.01,-267.5 464.29,-255 443.05,-245.41"/>
<polygon fill="#63b8ff" stroke="#63b8ff" points="444.55,-242.25 433.99,-241.33 441.67,-248.63 444.55,-242.25"/>
</a>
</g>
</g>
<!-- Node4 -->
<g id="Node000004" class="node">
<title>Node4</title>
<g id="a_Node000004"><a xlink:title=" ">
<polygon fill="#e0e0e0" stroke="#999999" points="545.25,-19.25 497.75,-19.25 497.75,0 545.25,0 545.25,-19.25"/>
<text text-anchor="middle" x="521.5" y="-5.75" font-family="Helvetica,sans-Serif" font-size="10.00">stdlib.h</text>
</a>
</g>
</g>
<!-- Node3&#45;&gt;Node4 -->
<g id="edge3_Node000003_Node000004" class="edge">
<title>Node3&#45;&gt;Node4</title>
<g id="a_edge3_Node000003_Node000004"><a xlink:title=" ">
<path fill="none" stroke="#63b8ff" d="M521.5,-55.08C521.5,-48.57 521.5,-39.42 521.5,-31.12"/>
<polygon fill="#63b8ff" stroke="#63b8ff" points="525,-31.12 521.5,-21.12 518,-31.12 525,-31.12"/>
</a>
</g>
</g>
<!-- Node5 -->
<g id="Node000005" class="node">
<title>Node5</title>
<g id="a_Node000005"><a xlink:title=" ">
<polygon fill="#e0e0e0" stroke="#999999" points="479.5,-19.25 439.5,-19.25 439.5,0 479.5,0 479.5,-19.25"/>
<text text-anchor="middle" x="459.5" y="-5.75" font-family="Helvetica,sans-Serif" font-size="10.00">string</text>
</a>
</g>
</g>
<!-- Node3&#45;&gt;Node5 -->
<g id="edge4_Node000003_Node000005" class="edge">
<title>Node3&#45;&gt;Node5</title>
<g id="a_edge4_Node000003_Node000005"><a xlink:title=" ">
<path fill="none" stroke="#63b8ff" d="M510.98,-54.84C502.11,-47.22 489.19,-36.12 478.51,-26.95"/>
<polygon fill="#63b8ff" stroke="#63b8ff" points="480.88,-24.37 471.01,-20.51 476.32,-29.68 480.88,-24.37"/>
</a>
</g>
</g>
<!-- Node6 -->
<g id="Node000006" class="node">
<title>Node6</title>
<g id="a_Node000006"><a xlink:title=" ">
<polygon fill="#e0e0e0" stroke="#999999" points="319,-19.25 276,-19.25 276,0 319,0 319,-19.25"/>
<text text-anchor="middle" x="297.5" y="-5.75" font-family="Helvetica,sans-Serif" font-size="10.00">vector</text>
</a>
</g>
</g>
<!-- Node3&#45;&gt;Node6 -->
<g id="edge5_Node000003_Node000006" class="edge">
<title>Node3&#45;&gt;Node6</title>
<g id="a_edge5_Node000003_Node000006"><a xlink:title=" ">
<path fill="none" stroke="#63b8ff" d="M491.75,-56.8C449.89,-46.85 373.87,-28.78 330.37,-18.44"/>
<polygon fill="#63b8ff" stroke="#63b8ff" points="331.29,-15.06 320.76,-16.15 329.68,-21.87 331.29,-15.06"/>
</a>
</g>
</g>
<!-- Node7 -->
<g id="Node000007" class="node">
<title>Node7</title>
<g id="a_Node000007"><a xlink:title=" ">
<polygon fill="#e0e0e0" stroke="#999999" points="606,-19.25 563,-19.25 563,0 606,0 606,-19.25"/>
<text text-anchor="middle" x="584.5" y="-5.75" font-family="Helvetica,sans-Serif" font-size="10.00">cmath</text>
</a>
</g>
</g>
<!-- Node3&#45;&gt;Node7 -->
<g id="edge6_Node000003_Node000007" class="edge">
<title>Node3&#45;&gt;Node7</title>
<g id="a_edge6_Node000003_Node000007"><a xlink:title=" ">
<path fill="none" stroke="#63b8ff" d="M532.19,-54.84C541.2,-47.22 554.33,-36.12 565.18,-26.95"/>
<polygon fill="#63b8ff" stroke="#63b8ff" points="567.44,-29.63 572.81,-20.5 562.92,-24.28 567.44,-29.63"/>
</a>
</g>
</g>
<!-- Node8 -->
<g id="Node000008" class="node">
<title>Node8</title>
<g id="a_Node000008"><a xlink:title=" ">
<polygon fill="#e0e0e0" stroke="#999999" points="679.38,-19.25 623.62,-19.25 623.62,0 679.38,0 679.38,-19.25"/>
<text text-anchor="middle" x="651.5" y="-5.75" font-family="Helvetica,sans-Serif" font-size="10.00">algorithm</text>
</a>
</g>
</g>
<!-- Node3&#45;&gt;Node8 -->
<g id="edge7_Node000003_Node000008" class="edge">
<title>Node3&#45;&gt;Node8</title>
<g id="a_edge7_Node000003_Node000008"><a xlink:title=" ">
<path fill="none" stroke="#63b8ff" d="M543.55,-54.84C564.19,-46.39 595.28,-33.65 618.8,-24.02"/>
<polygon fill="#63b8ff" stroke="#63b8ff" points="620.01,-27.31 627.94,-20.28 617.36,-20.83 620.01,-27.31"/>
</a>
</g>
</g>
<!-- Node9&#45;&gt;Node3 -->
<g id="edge10_Node000009_Node000003" class="edge">
<title>Node9&#45;&gt;Node3</title>
<g id="a_edge10_Node000009_Node000003"><a xlink:title=" ">
<path fill="none" stroke="#63b8ff" d="M406.91,-110.09C429.02,-101.56 462.42,-88.67 487.47,-79.01"/>
<polygon fill="#63b8ff" stroke="#63b8ff" points="488.49,-82.36 496.56,-75.5 485.97,-75.83 488.49,-82.36"/>
</a>
</g>
</g>
<!-- Node9&#45;&gt;Node5 -->
<g id="edge11_Node000009_Node000005" class="edge">
<title>Node9&#45;&gt;Node5</title>
<g id="a_edge11_Node000009_Node000005"><a xlink:title=" ">
<path fill="none" stroke="#63b8ff" d="M402.7,-110.14C416.71,-102.58 435.01,-90.46 445.5,-74.5 454,-61.56 457.42,-44.27 458.76,-30.95"/>
<polygon fill="#63b8ff" stroke="#63b8ff" points="462.24,-31.37 459.4,-21.17 455.25,-30.92 462.24,-31.37"/>
</a>
</g>
</g>
<!-- Node9&#45;&gt;Node6 -->
<g id="edge12_Node000009_Node000006" class="edge">
<title>Node9&#45;&gt;Node6</title>
<g id="a_edge12_Node000009_Node000006"><a xlink:title=" ">
<path fill="none" stroke="#63b8ff" d="M365.51,-110.01C351.78,-102.23 333.27,-89.88 321.5,-74.5 311.58,-61.53 305.38,-44.02 301.78,-30.61"/>
<polygon fill="#63b8ff" stroke="#63b8ff" points="305.25,-30.07 299.52,-21.17 298.44,-31.71 305.25,-30.07"/>
</a>
</g>
</g>
<!-- Node10 -->
<g id="Node000010" class="node">
<title>Node10</title>
<g id="a_Node000010"><a xlink:title=" ">
<polygon fill="#e0e0e0" stroke="#999999" points="436.88,-74.5 330.12,-74.5 330.12,-55.25 436.88,-55.25 436.88,-74.5"/>
<text text-anchor="middle" x="383.5" y="-61" font-family="Helvetica,sans-Serif" font-size="10.00">./tinyxml2/tinyxml2.h</text>
</a>
</g>
</g>
<!-- Node9&#45;&gt;Node10 -->
<g id="edge9_Node000009_Node000010" class="edge">
<title>Node9&#45;&gt;Node10</title>
<g id="a_edge9_Node000009_Node000010"><a xlink:title=" ">
<path fill="none" stroke="#63b8ff" d="M383.5,-110.33C383.5,-103.82 383.5,-94.67 383.5,-86.37"/>
<polygon fill="#63b8ff" stroke="#63b8ff" points="387,-86.37 383.5,-76.37 380,-86.37 387,-86.37"/>
</a>
</g>
</g>
<!-- Node11 -->
<g id="Node000011" class="node">
<title>Node11</title>
<g id="a_Node000011"><a xlink:title=" ">
<polygon fill="#e0e0e0" stroke="#999999" points="274.88,-74.5 240.12,-74.5 240.12,-55.25 274.88,-55.25 274.88,-74.5"/>
<text text-anchor="middle" x="257.5" y="-61" font-family="Helvetica,sans-Serif" font-size="10.00">map</text>
</a>
</g>
</g>
<!-- Node9&#45;&gt;Node11 -->
<g id="edge13_Node000009_Node000011" class="edge">
<title>Node9&#45;&gt;Node11</title>
<g id="a_edge13_Node000009_Node000011"><a xlink:title=" ">
<path fill="none" stroke="#63b8ff" d="M362.13,-110.09C341.13,-101.22 308.96,-87.62 285.84,-77.85"/>
<polygon fill="#63b8ff" stroke="#63b8ff" points="287.27,-74.66 276.7,-73.99 284.55,-81.11 287.27,-74.66"/>
</a>
</g>
</g>
<!-- Node12&#45;&gt;Node3 -->
<g id="edge15_Node000012_Node000003" class="edge">
<title>Node12&#45;&gt;Node3</title>
<g id="a_edge15_Node000012_Node000003"><a xlink:title=" ">
<path fill="none" stroke="#63b8ff" d="M429.82,-220.52C443.3,-212.68 461.66,-200.22 473.5,-185 497.16,-154.59 510.75,-110.95 517.08,-85.81"/>
<polygon fill="#63b8ff" stroke="#63b8ff" points="520.44,-86.8 519.34,-76.27 513.63,-85.19 520.44,-86.8"/>
</a>
</g>
</g>
<!-- Node12&#45;&gt;Node11 -->
<g id="edge30_Node000012_Node000011" class="edge">
<title>Node12&#45;&gt;Node11</title>
<g id="a_edge30_Node000012_Node000011"><a xlink:title=" ">
<path fill="none" stroke="#63b8ff" d="M383.04,-220.5C363.7,-213.33 338.86,-201.73 321.5,-185 291.87,-156.45 272.82,-111.17 263.74,-85.44"/>
<polygon fill="#63b8ff" stroke="#63b8ff" points="267.16,-84.63 260.66,-76.26 260.53,-86.86 267.16,-84.63"/>
</a>
</g>
</g>
<!-- Node13 -->
<g id="Node000013" class="node">
<title>Node13</title>
<g id="a_Node000013"><a xlink:href="ssvalue_8h.html" target="_top" xlink:title=" ">
<polygon fill="white" stroke="#666666" points="258.5,-185 200.5,-185 200.5,-165.75 258.5,-165.75 258.5,-185"/>
<text text-anchor="middle" x="229.5" y="-171.5" font-family="Helvetica,sans-Serif" font-size="10.00">ssvalue.h</text>
</a>
</g>
</g>
<!-- Node12&#45;&gt;Node13 -->
<g id="edge16_Node000012_Node000013" class="edge">
<title>Node12&#45;&gt;Node13</title>
<g id="a_edge16_Node000012_Node000013"><a xlink:title=" ">
<path fill="none" stroke="#63b8ff" d="M381.46,-220.59C350.67,-211.63 303.37,-197.87 269.72,-188.08"/>
<polygon fill="#63b8ff" stroke="#63b8ff" points="270.91,-184.78 260.33,-185.35 268.95,-191.5 270.91,-184.78"/>
</a>
</g>
</g>
<!-- Node20 -->
<g id="Node000020" class="node">
<title>Node20</title>
<g id="a_Node000020"><a xlink:href="ss_interpolation_8h.html" target="_top" xlink:title=" ">
<polygon fill="white" stroke="#666666" points="418.5,-185 330.5,-185 330.5,-165.75 418.5,-165.75 418.5,-185"/>
<text text-anchor="middle" x="374.5" y="-171.5" font-family="Helvetica,sans-Serif" font-size="10.00">ssInterpolation.h</text>
</a>
</g>
</g>
<!-- Node12&#45;&gt;Node20 -->
<g id="edge28_Node000012_Node000020" class="edge">
<title>Node12&#45;&gt;Node20</title>
<g id="a_edge28_Node000012_Node000020"><a xlink:title=" ">
<path fill="none" stroke="#63b8ff" d="M406.23,-220.83C401.14,-213.71 393.8,-203.43 387.47,-194.55"/>
<polygon fill="#63b8ff" stroke="#63b8ff" points="390.45,-192.7 381.79,-186.59 384.75,-196.76 390.45,-192.7"/>
</a>
</g>
</g>
<!-- Node21 -->
<g id="Node000021" class="node">
<title>Node21</title>
<g id="a_Node000021"><a xlink:title=" ">
<polygon fill="#e0e0e0" stroke="#999999" points="464.9,-185 436.1,-185 436.1,-165.75 464.9,-165.75 464.9,-185"/>
<text text-anchor="middle" x="450.5" y="-171.5" font-family="Helvetica,sans-Serif" font-size="10.00">list</text>
</a>
</g>
</g>
<!-- Node12&#45;&gt;Node21 -->
<g id="edge29_Node000012_Node000021" class="edge">
<title>Node12&#45;&gt;Node21</title>
<g id="a_edge29_Node000012_Node000021"><a xlink:title=" ">
<path fill="none" stroke="#63b8ff" d="M418.77,-220.83C423.86,-213.71 431.2,-203.43 437.53,-194.55"/>
<polygon fill="#63b8ff" stroke="#63b8ff" points="440.25,-196.76 443.21,-186.59 434.55,-192.7 440.25,-196.76"/>
</a>
</g>
</g>
<!-- Node13&#45;&gt;Node6 -->
<g id="edge26_Node000013_Node000006" class="edge">
<title>Node13&#45;&gt;Node6</title>
<g id="a_edge26_Node000013_Node000006"><a xlink:title=" ">
<path fill="none" stroke="#63b8ff" d="M213.69,-165.33C195.91,-153.87 170.62,-132.89 179.5,-110.5 195.45,-70.28 238.1,-41.11 267.5,-25.02"/>
<polygon fill="#63b8ff" stroke="#63b8ff" points="269.09,-28.14 276.32,-20.39 265.84,-21.94 269.09,-28.14"/>
</a>
</g>
</g>
<!-- Node13&#45;&gt;Node9 -->
<g id="edge17_Node000013_Node000009" class="edge">
<title>Node13&#45;&gt;Node9</title>
<g id="a_edge17_Node000013_Node000009"><a xlink:title=" ">
<path fill="none" stroke="#63b8ff" d="M255.62,-165.34C280.62,-156.7 318.58,-143.57 346.65,-133.87"/>
<polygon fill="#63b8ff" stroke="#63b8ff" points="347.51,-137.27 355.82,-130.7 345.22,-130.66 347.51,-137.27"/>
</a>
</g>
</g>
<!-- Node13&#45;&gt;Node11 -->
<g id="edge25_Node000013_Node000011" class="edge">
<title>Node13&#45;&gt;Node11</title>
<g id="a_edge25_Node000013_Node000011"><a xlink:title=" ">
<path fill="none" stroke="#63b8ff" d="M233.24,-165.28C236.8,-156.36 242.09,-142.3 245.5,-129.75 249.44,-115.21 252.54,-98.47 254.6,-85.77"/>
<polygon fill="#63b8ff" stroke="#63b8ff" points="258.02,-86.56 256.07,-76.15 251.1,-85.5 258.02,-86.56"/>
</a>
</g>
</g>
<!-- Node14 -->
<g id="Node000014" class="node">
<title>Node14</title>
<g id="a_Node000014"><a xlink:href="ssstring__uty_8h.html" target="_top" xlink:title=" ">
<polygon fill="white" stroke="#666666" points="138.5,-74.5 62.5,-74.5 62.5,-55.25 138.5,-55.25 138.5,-74.5"/>
<text text-anchor="middle" x="100.5" y="-61" font-family="Helvetica,sans-Serif" font-size="10.00">ssstring_uty.h</text>
</a>
</g>
</g>
<!-- Node13&#45;&gt;Node14 -->
<g id="edge18_Node000013_Node000014" class="edge">
<title>Node13&#45;&gt;Node14</title>
<g id="a_edge18_Node000013_Node000014"><a xlink:title=" ">
<path fill="none" stroke="#63b8ff" d="M206.28,-165.3C188.59,-157.63 164.33,-145.39 146.5,-129.75 131.75,-116.81 119.07,-98.29 110.78,-84.52"/>
<polygon fill="#63b8ff" stroke="#63b8ff" points="113.9,-82.92 105.88,-76 107.84,-86.41 113.9,-82.92"/>
</a>
</g>
</g>
<!-- Node19 -->
<g id="Node000019" class="node">
<title>Node19</title>
<g id="a_Node000019"><a xlink:title=" ">
<polygon fill="#e0e0e0" stroke="#999999" points="236.62,-129.75 188.38,-129.75 188.38,-110.5 236.62,-110.5 236.62,-129.75"/>
<text text-anchor="middle" x="212.5" y="-116.25" font-family="Helvetica,sans-Serif" font-size="10.00">cassert</text>
</a>
</g>
</g>
<!-- Node13&#45;&gt;Node19 -->
<g id="edge27_Node000013_Node000019" class="edge">
<title>Node13&#45;&gt;Node19</title>
<g id="a_edge27_Node000013_Node000019"><a xlink:title=" ">
<path fill="none" stroke="#63b8ff" d="M226.69,-165.58C224.56,-158.92 221.56,-149.49 218.86,-141.03"/>
<polygon fill="#63b8ff" stroke="#63b8ff" points="222.2,-140.01 215.83,-131.55 215.54,-142.14 222.2,-140.01"/>
</a>
</g>
</g>
<!-- Node14&#45;&gt;Node5 -->
<g id="edge19_Node000014_Node000005" class="edge">
<title>Node14&#45;&gt;Node5</title>
<g id="a_edge19_Node000014_Node000005"><a xlink:title=" ">
<path fill="none" stroke="#63b8ff" d="M138.92,-58.18C210.27,-47.59 361.96,-25.09 427.85,-15.32"/>
<polygon fill="#63b8ff" stroke="#63b8ff" points="428.24,-18.8 437.62,-13.87 427.21,-11.88 428.24,-18.8"/>
</a>
</g>
</g>
<!-- Node14&#45;&gt;Node6 -->
<g id="edge21_Node000014_Node000006" class="edge">
<title>Node14&#45;&gt;Node6</title>
<g id="a_edge21_Node000014_Node000006"><a xlink:title=" ">
<path fill="none" stroke="#63b8ff" d="M133.92,-54.84C170.37,-44.99 228.35,-29.32 264.6,-19.52"/>
<polygon fill="#63b8ff" stroke="#63b8ff" points="265.34,-22.94 274.09,-16.95 263.52,-16.18 265.34,-22.94"/>
</a>
</g>
</g>
<!-- Node15 -->
<g id="Node000015" class="node">
<title>Node15</title>
<g id="a_Node000015"><a xlink:title=" ">
<polygon fill="#e0e0e0" stroke="#999999" points="49,-19.25 0,-19.25 0,0 49,0 49,-19.25"/>
<text text-anchor="middle" x="24.5" y="-5.75" font-family="Helvetica,sans-Serif" font-size="10.00">fstream</text>
</a>
</g>
</g>
<!-- Node14&#45;&gt;Node15 -->
<g id="edge20_Node000014_Node000015" class="edge">
<title>Node14&#45;&gt;Node15</title>
<g id="a_edge20_Node000014_Node000015"><a xlink:title=" ">
<path fill="none" stroke="#63b8ff" d="M87.61,-54.84C76.47,-47.04 60.13,-35.59 46.86,-26.29"/>
<polygon fill="#63b8ff" stroke="#63b8ff" points="48.89,-23.44 38.7,-20.57 44.88,-29.18 48.89,-23.44"/>
</a>
</g>
</g>
<!-- Node16 -->
<g id="Node000016" class="node">
<title>Node16</title>
<g id="a_Node000016"><a xlink:title=" ">
<polygon fill="#e0e0e0" stroke="#999999" points="120.25,-19.25 66.75,-19.25 66.75,0 120.25,0 120.25,-19.25"/>
<text text-anchor="middle" x="93.5" y="-5.75" font-family="Helvetica,sans-Serif" font-size="10.00">iostream</text>
</a>
</g>
</g>
<!-- Node14&#45;&gt;Node16 -->
<g id="edge22_Node000014_Node000016" class="edge">
<title>Node14&#45;&gt;Node16</title>
<g id="a_edge22_Node000014_Node000016"><a xlink:title=" ">
<path fill="none" stroke="#63b8ff" d="M99.34,-55.08C98.48,-48.49 97.26,-39.21 96.16,-30.82"/>
<polygon fill="#63b8ff" stroke="#63b8ff" points="99.65,-30.57 94.88,-21.11 92.71,-31.48 99.65,-30.57"/>
</a>
</g>
</g>
<!-- Node17 -->
<g id="Node000017" class="node">
<title>Node17</title>
<g id="a_Node000017"><a xlink:title=" ">
<polygon fill="#e0e0e0" stroke="#999999" points="189.12,-19.25 137.88,-19.25 137.88,0 189.12,0 189.12,-19.25"/>
<text text-anchor="middle" x="163.5" y="-5.75" font-family="Helvetica,sans-Serif" font-size="10.00">sstream</text>
</a>
</g>
</g>
<!-- Node14&#45;&gt;Node17 -->
<g id="edge23_Node000014_Node000017" class="edge">
<title>Node14&#45;&gt;Node17</title>
<g id="a_edge23_Node000014_Node000017"><a xlink:title=" ">
<path fill="none" stroke="#63b8ff" d="M111.19,-54.84C120.2,-47.22 133.33,-36.12 144.18,-26.95"/>
<polygon fill="#63b8ff" stroke="#63b8ff" points="146.44,-29.63 151.81,-20.5 141.92,-24.28 146.44,-29.63"/>
</a>
</g>
</g>
<!-- Node18 -->
<g id="Node000018" class="node">
<title>Node18</title>
<g id="a_Node000018"><a xlink:title=" ">
<polygon fill="#e0e0e0" stroke="#999999" points="253.5,-19.25 207.5,-19.25 207.5,0 253.5,0 253.5,-19.25"/>
<text text-anchor="middle" x="230.5" y="-5.75" font-family="Helvetica,sans-Serif" font-size="10.00">iterator</text>
</a>
</g>
</g>
<!-- Node14&#45;&gt;Node18 -->
<g id="edge24_Node000014_Node000018" class="edge">
<title>Node14&#45;&gt;Node18</title>
<g id="a_edge24_Node000014_Node000018"><a xlink:title=" ">
<path fill="none" stroke="#63b8ff" d="M122.55,-54.84C143.19,-46.39 174.28,-33.65 197.8,-24.02"/>
<polygon fill="#63b8ff" stroke="#63b8ff" points="199.01,-27.31 206.94,-20.28 196.36,-20.83 199.01,-27.31"/>
</a>
</g>
</g>
<!-- Node22&#45;&gt;Node5 -->
<g id="edge32_Node000022_Node000005" class="edge">
<title>Node22&#45;&gt;Node5</title>
<g id="a_edge32_Node000022_Node000005"><a xlink:title=" ">
<path fill="none" stroke="#63b8ff" d="M629.63,-275.78C622.17,-257.37 606.5,-214.23 606.5,-176.38 606.5,-176.38 606.5,-176.38 606.5,-119.12 606.5,-83.88 586.95,-77.36 559.5,-55.25 548.28,-46.21 515.29,-32.23 490.24,-22.33"/>
<polygon fill="#63b8ff" stroke="#63b8ff" points="491.74,-19.16 481.15,-18.78 489.2,-25.68 491.74,-19.16"/>
</a>
</g>
</g>
<!-- Node23 -->
<g id="Node000023" class="node">
<title>Node23</title>
<g id="a_Node000023"><a xlink:title=" ">
<polygon fill="#e0e0e0" stroke="#999999" points="676.62,-240.25 634.38,-240.25 634.38,-221 676.62,-221 676.62,-240.25"/>
<text text-anchor="middle" x="655.5" y="-226.75" font-family="Helvetica,sans-Serif" font-size="10.00">cstdio</text>
</a>
</g>
</g>
<!-- Node22&#45;&gt;Node23 -->
<g id="edge33_Node000022_Node000023" class="edge">
<title>Node22&#45;&gt;Node23</title>
<g id="a_edge33_Node000022_Node000023"><a xlink:title=" ">
<path fill="none" stroke="#63b8ff" d="M637.13,-276.08C639.92,-269.34 643.87,-259.77 647.4,-251.24"/>
<polygon fill="#63b8ff" stroke="#63b8ff" points="650.63,-252.59 651.21,-242.01 644.16,-249.91 650.63,-252.59"/>
</a>
</g>
</g>
</g>
</svg>
