<?xml version="1.0" encoding="UTF-8" standalone="no"?>
<!DOCTYPE svg PUBLIC "-//W3C//DTD SVG 1.1//EN"
 "http://www.w3.org/Graphics/SVG/1.1/DTD/svg11.dtd">
<!-- Generated by graphviz version 10.0.1 (20240210.2158)
 -->
<!-- Title: Common/Loader/ssloader_ssee.cpp Pages: 1 -->
<svg width="1231pt" height="425pt"
 viewBox="0.00 0.00 1230.75 425.25" xmlns="http://www.w3.org/2000/svg" xmlns:xlink="http://www.w3.org/1999/xlink">
<g id="graph0" class="graph" transform="scale(1 1) rotate(0) translate(4 421.25)">
<title>Common/Loader/ssloader_ssee.cpp</title>
<!-- Node1 -->
<g id="Node000001" class="node">
<title>Node1</title>
<g id="a_Node000001"><a xlink:title=" ">
<polygon fill="#999999" stroke="#666666" points="623.88,-417.25 496.12,-417.25 496.12,-386.75 623.88,-386.75 623.88,-417.25"/>
<text text-anchor="start" x="504.12" y="-403.75" font-family="Helvetica,sans-Serif" font-size="10.00">Common/Loader/ssloader</text>
<text text-anchor="middle" x="560" y="-392.5" font-family="Helvetica,sans-Serif" font-size="10.00">_ssee.cpp</text>
</a>
</g>
</g>
<!-- Node2 -->
<g id="Node000002" class="node">
<title>Node2</title>
<g id="a_Node000002"><a xlink:href="ssloader__sspj_8h.html" target="_top" xlink:title=" ">
<polygon fill="white" stroke="#666666" points="562.12,-350.75 477.88,-350.75 477.88,-331.5 562.12,-331.5 562.12,-350.75"/>
<text text-anchor="middle" x="520" y="-337.25" font-family="Helvetica,sans-Serif" font-size="10.00">ssloader_sspj.h</text>
</a>
</g>
</g>
<!-- Node1&#45;&gt;Node2 -->
<g id="edge1_Node000001_Node000002" class="edge">
<title>Node1&#45;&gt;Node2</title>
<g id="a_edge1_Node000001_Node000002"><a xlink:title=" ">
<path fill="none" stroke="#63b8ff" d="M550.11,-386.45C544.78,-378.6 538.15,-368.85 532.47,-360.49"/>
<polygon fill="#63b8ff" stroke="#63b8ff" points="535.53,-358.76 527.02,-352.45 529.74,-362.69 535.53,-358.76"/>
</a>
</g>
</g>
<!-- Node12 -->
<g id="Node000012" class="node">
<title>Node12</title>
<g id="a_Node000012"><a xlink:href="ssstring__uty_8h.html" target="_top" xlink:title=" ">
<polygon fill="white" stroke="#666666" points="1042,-129.75 966,-129.75 966,-110.5 1042,-110.5 1042,-129.75"/>
<text text-anchor="middle" x="1004" y="-116.25" font-family="Helvetica,sans-Serif" font-size="10.00">ssstring_uty.h</text>
</a>
</g>
</g>
<!-- Node1&#45;&gt;Node12 -->
<g id="edge57_Node000001_Node000012" class="edge">
<title>Node1&#45;&gt;Node12</title>
<g id="a_edge57_Node000001_Node000012"><a xlink:title=" ">
<path fill="none" stroke="#63b8ff" d="M624.01,-399.15C755.12,-393.61 1042,-371.79 1042,-286.88 1042,-286.88 1042,-286.88 1042,-229.62 1042,-196.63 1026.16,-161.01 1014.93,-139.91"/>
<polygon fill="#63b8ff" stroke="#63b8ff" points="1018.1,-138.4 1010.18,-131.36 1011.98,-141.8 1018.1,-138.4"/>
</a>
</g>
</g>
<!-- Node17 -->
<g id="Node000017" class="node">
<title>Node17</title>
<g id="a_Node000017"><a xlink:href="ssloader__ssae_8h.html" target="_top" xlink:title=" ">
<polygon fill="white" stroke="#666666" points="315.62,-295.5 228.38,-295.5 228.38,-276.25 315.62,-276.25 315.62,-295.5"/>
<text text-anchor="middle" x="272" y="-282" font-family="Helvetica,sans-Serif" font-size="10.00">ssloader_ssae.h</text>
</a>
</g>
</g>
<!-- Node1&#45;&gt;Node17 -->
<g id="edge54_Node000001_Node000017" class="edge">
<title>Node1&#45;&gt;Node17</title>
<g id="a_edge54_Node000001_Node000017"><a xlink:title=" ">
<path fill="none" stroke="#63b8ff" d="M495.71,-397.48C447.35,-392.43 380.95,-380.22 330,-350.75 310.61,-339.54 294.09,-319.64 283.7,-305.02"/>
<polygon fill="#63b8ff" stroke="#63b8ff" points="286.88,-303.48 278.37,-297.17 281.09,-307.41 286.88,-303.48"/>
</a>
</g>
</g>
<!-- Node23 -->
<g id="Node000023" class="node">
<title>Node23</title>
<g id="a_Node000023"><a xlink:href="ssloader__ssce_8h.html" target="_top" xlink:title=" ">
<polygon fill="white" stroke="#666666" points="429.62,-240.25 342.38,-240.25 342.38,-221 429.62,-221 429.62,-240.25"/>
<text text-anchor="middle" x="386" y="-226.75" font-family="Helvetica,sans-Serif" font-size="10.00">ssloader_ssce.h</text>
</a>
</g>
</g>
<!-- Node1&#45;&gt;Node23 -->
<g id="edge55_Node000001_Node000023" class="edge">
<title>Node1&#45;&gt;Node23</title>
<g id="a_edge55_Node000001_Node000023"><a xlink:title=" ">
<path fill="none" stroke="#63b8ff" d="M527.11,-386.35C509,-377.45 486.68,-365.05 469,-350.75 443.71,-330.3 439.59,-322.19 421,-295.5 411.05,-281.21 401.68,-263.82 395.14,-250.79"/>
<polygon fill="#63b8ff" stroke="#63b8ff" points="398.39,-249.46 390.85,-242.02 392.1,-252.54 398.39,-249.46"/>
</a>
</g>
</g>
<!-- Node24 -->
<g id="Node000024" class="node">
<title>Node24</title>
<g id="a_Node000024"><a xlink:href="ssloader__ssee_8h.html" target="_top" xlink:title=" ">
<polygon fill="white" stroke="#666666" points="641.62,-295.5 554.38,-295.5 554.38,-276.25 641.62,-276.25 641.62,-295.5"/>
<text text-anchor="middle" x="598" y="-282" font-family="Helvetica,sans-Serif" font-size="10.00">ssloader_ssee.h</text>
</a>
</g>
</g>
<!-- Node1&#45;&gt;Node24 -->
<g id="edge56_Node000001_Node000024" class="edge">
<title>Node1&#45;&gt;Node24</title>
<g id="a_edge56_Node000001_Node000024"><a xlink:title=" ">
<path fill="none" stroke="#63b8ff" d="M564.81,-386.55C571.55,-366.31 583.82,-329.47 591.4,-306.69"/>
<polygon fill="#63b8ff" stroke="#63b8ff" points="594.66,-307.98 594.5,-297.38 588.02,-305.77 594.66,-307.98"/>
</a>
</g>
</g>
<!-- Node30 -->
<g id="Node000030" class="node">
<title>Node30</title>
<g id="a_Node000030"><a xlink:href="_debug_print_8h.html" target="_top" xlink:title=" ">
<polygon fill="white" stroke="#666666" points="1222.75,-350.75 1109.25,-350.75 1109.25,-331.5 1222.75,-331.5 1222.75,-350.75"/>
<text text-anchor="middle" x="1166" y="-337.25" font-family="Helvetica,sans-Serif" font-size="10.00">../Helper/DebugPrint.h</text>
</a>
</g>
</g>
<!-- Node1&#45;&gt;Node30 -->
<g id="edge58_Node000001_Node000030" class="edge">
<title>Node1&#45;&gt;Node30</title>
<g id="a_edge58_Node000001_Node000030"><a xlink:title=" ">
<path fill="none" stroke="#63b8ff" d="M624.28,-394.76C739.4,-383.57 979.71,-360.22 1097.69,-348.76"/>
<polygon fill="#63b8ff" stroke="#63b8ff" points="1097.93,-352.25 1107.55,-347.8 1097.26,-345.29 1097.93,-352.25"/>
</a>
</g>
</g>
<!-- Node3 -->
<g id="Node000003" class="node">
<title>Node3</title>
<g id="a_Node000003"><a xlink:href="sstypes_8h.html" target="_top" xlink:title=" ">
<polygon fill="white" stroke="#666666" points="525.38,-74.5 466.62,-74.5 466.62,-55.25 525.38,-55.25 525.38,-74.5"/>
<text text-anchor="middle" x="496" y="-61" font-family="Helvetica,sans-Serif" font-size="10.00">sstypes.h</text>
</a>
</g>
</g>
<!-- Node2&#45;&gt;Node3 -->
<g id="edge2_Node000002_Node000003" class="edge">
<title>Node2&#45;&gt;Node3</title>
<g id="a_edge2_Node000002_Node000003"><a xlink:title=" ">
<path fill="none" stroke="#63b8ff" d="M477.46,-331.49C431.99,-319.68 362.47,-293.56 333,-240.25 307.26,-193.69 310.67,-186.5 394,-110.5 411.35,-94.67 435.21,-83.82 455.49,-76.78"/>
<polygon fill="#63b8ff" stroke="#63b8ff" points="456.46,-80.15 464.88,-73.72 454.29,-73.49 456.46,-80.15"/>
</a>
</g>
</g>
<!-- Node9 -->
<g id="Node000009" class="node">
<title>Node9</title>
<g id="a_Node000009"><a xlink:href="ssarchiver_8h.html" target="_top" xlink:title=" ">
<polygon fill="white" stroke="#666666" points="784.25,-129.75 715.75,-129.75 715.75,-110.5 784.25,-110.5 784.25,-129.75"/>
<text text-anchor="middle" x="750" y="-116.25" font-family="Helvetica,sans-Serif" font-size="10.00">ssarchiver.h</text>
</a>
</g>
</g>
<!-- Node2&#45;&gt;Node9 -->
<g id="edge8_Node000002_Node000009" class="edge">
<title>Node2&#45;&gt;Node9</title>
<g id="a_edge8_Node000002_Node000009"><a xlink:title=" ">
<path fill="none" stroke="#63b8ff" d="M562.43,-340.6C652.77,-338.92 861.15,-320.01 926,-185 951.12,-132.7 855.65,-122.28 795.54,-120.76"/>
<polygon fill="#63b8ff" stroke="#63b8ff" points="795.97,-117.27 785.91,-120.6 795.85,-124.27 795.97,-117.27"/>
</a>
</g>
</g>
<!-- Node2&#45;&gt;Node12 -->
<g id="edge14_Node000002_Node000012" class="edge">
<title>Node2&#45;&gt;Node12</title>
<g id="a_edge14_Node000002_Node000012"><a xlink:title=" ">
<path fill="none" stroke="#63b8ff" d="M562.62,-340.32C624.41,-339.22 741.46,-331.95 833,-295.5 910.44,-264.66 969.79,-178.35 993.16,-139.96"/>
<polygon fill="#63b8ff" stroke="#63b8ff" points="996.15,-141.77 998.24,-131.39 990.13,-138.2 996.15,-141.77"/>
</a>
</g>
</g>
<!-- Node2&#45;&gt;Node17 -->
<g id="edge21_Node000002_Node000017" class="edge">
<title>Node2&#45;&gt;Node17</title>
<g id="a_edge21_Node000002_Node000017"><a xlink:title=" ">
<path fill="none" stroke="#63b8ff" d="M477.65,-331.03C435.56,-321.99 370.89,-308.11 325.32,-298.32"/>
<polygon fill="#63b8ff" stroke="#63b8ff" points="326.17,-294.93 315.66,-296.25 324.7,-301.77 326.17,-294.93"/>
</a>
</g>
</g>
<!-- Node2&#45;&gt;Node23 -->
<g id="edge35_Node000002_Node000023" class="edge">
<title>Node2&#45;&gt;Node23</title>
<g id="a_edge35_Node000002_Node000023"><a xlink:title=" ">
<path fill="none" stroke="#63b8ff" d="M501.18,-331.11C485.15,-322.98 461.93,-310.07 444,-295.5 427.16,-281.82 410.81,-263.17 399.78,-249.56"/>
<polygon fill="#63b8ff" stroke="#63b8ff" points="402.65,-247.54 393.71,-241.86 397.16,-251.88 402.65,-247.54"/>
</a>
</g>
</g>
<!-- Node2&#45;&gt;Node24 -->
<g id="edge38_Node000002_Node000024" class="edge">
<title>Node2&#45;&gt;Node24</title>
<g id="a_edge38_Node000002_Node000024"><a xlink:title=" ">
<path fill="none" stroke="#63b8ff" d="M533.23,-331.09C544.77,-323.21 561.77,-311.61 575.45,-302.27"/>
<polygon fill="#63b8ff" stroke="#63b8ff" points="577.17,-305.33 583.45,-296.81 573.22,-299.55 577.17,-305.33"/>
</a>
</g>
</g>
<!-- Node27 -->
<g id="Node000027" class="node">
<title>Node27</title>
<g id="a_Node000027"><a xlink:title=" ">
<polygon fill="#e0e0e0" stroke="#999999" points="899.62,-185 848.38,-185 848.38,-165.75 899.62,-165.75 899.62,-185"/>
<text text-anchor="middle" x="874" y="-171.5" font-family="Helvetica,sans-Serif" font-size="10.00">memory</text>
</a>
</g>
</g>
<!-- Node2&#45;&gt;Node27 -->
<g id="edge52_Node000002_Node000027" class="edge">
<title>Node2&#45;&gt;Node27</title>
<g id="a_edge52_Node000002_Node000027"><a xlink:title=" ">
<path fill="none" stroke="#63b8ff" d="M562.39,-335.98C627.05,-327.75 751.5,-304.23 834,-240.25 849.01,-228.61 859.86,-209.63 866.44,-195.37"/>
<polygon fill="#63b8ff" stroke="#63b8ff" points="869.49,-197.15 870.21,-186.58 863.05,-194.4 869.49,-197.15"/>
</a>
</g>
</g>
<!-- Node28 -->
<g id="Node000028" class="node">
<title>Node28</title>
<g id="a_Node000028"><a xlink:href="ssloader__ssqe_8h.html" target="_top" xlink:title=" ">
<polygon fill="white" stroke="#666666" points="467.62,-185 380.38,-185 380.38,-165.75 467.62,-165.75 467.62,-185"/>
<text text-anchor="middle" x="424" y="-171.5" font-family="Helvetica,sans-Serif" font-size="10.00">ssloader_ssqe.h</text>
</a>
</g>
</g>
<!-- Node2&#45;&gt;Node28 -->
<g id="edge49_Node000002_Node000028" class="edge">
<title>Node2&#45;&gt;Node28</title>
<g id="a_edge49_Node000002_Node000028"><a xlink:title=" ">
<path fill="none" stroke="#63b8ff" d="M513.03,-331.13C506.29,-322.28 495.97,-308.28 488,-295.5 466.65,-261.26 445.12,-219.3 433.27,-195.42"/>
<polygon fill="#63b8ff" stroke="#63b8ff" points="436.5,-194.05 428.95,-186.62 430.22,-197.14 436.5,-194.05"/>
</a>
</g>
</g>
<!-- Node29 -->
<g id="Node000029" class="node">
<title>Node29</title>
<g id="a_Node000029"><a xlink:title=" ">
<polygon fill="#e0e0e0" stroke="#999999" points="536.62,-295.5 497.38,-295.5 497.38,-276.25 536.62,-276.25 536.62,-295.5"/>
<text text-anchor="middle" x="517" y="-282" font-family="Helvetica,sans-Serif" font-size="10.00">utility</text>
</a>
</g>
</g>
<!-- Node2&#45;&gt;Node29 -->
<g id="edge53_Node000002_Node000029" class="edge">
<title>Node2&#45;&gt;Node29</title>
<g id="a_edge53_Node000002_Node000029"><a xlink:title=" ">
<path fill="none" stroke="#63b8ff" d="M519.5,-331.33C519.13,-324.74 518.61,-315.46 518.14,-307.07"/>
<polygon fill="#63b8ff" stroke="#63b8ff" points="521.65,-307.16 517.59,-297.37 514.66,-307.55 521.65,-307.16"/>
</a>
</g>
</g>
<!-- Node4 -->
<g id="Node000004" class="node">
<title>Node4</title>
<g id="a_Node000004"><a xlink:title=" ">
<polygon fill="#e0e0e0" stroke="#999999" points="519.75,-19.25 472.25,-19.25 472.25,0 519.75,0 519.75,-19.25"/>
<text text-anchor="middle" x="496" y="-5.75" font-family="Helvetica,sans-Serif" font-size="10.00">stdlib.h</text>
</a>
</g>
</g>
<!-- Node3&#45;&gt;Node4 -->
<g id="edge3_Node000003_Node000004" class="edge">
<title>Node3&#45;&gt;Node4</title>
<g id="a_edge3_Node000003_Node000004"><a xlink:title=" ">
<path fill="none" stroke="#63b8ff" d="M496,-55.08C496,-48.57 496,-39.42 496,-31.12"/>
<polygon fill="#63b8ff" stroke="#63b8ff" points="499.5,-31.12 496,-21.12 492.5,-31.12 499.5,-31.12"/>
</a>
</g>
</g>
<!-- Node5 -->
<g id="Node000005" class="node">
<title>Node5</title>
<g id="a_Node000005"><a xlink:title=" ">
<polygon fill="#e0e0e0" stroke="#999999" points="911,-19.25 871,-19.25 871,0 911,0 911,-19.25"/>
<text text-anchor="middle" x="891" y="-5.75" font-family="Helvetica,sans-Serif" font-size="10.00">string</text>
</a>
</g>
</g>
<!-- Node3&#45;&gt;Node5 -->
<g id="edge4_Node000003_Node000005" class="edge">
<title>Node3&#45;&gt;Node5</title>
<g id="a_edge4_Node000003_Node000005"><a xlink:title=" ">
<path fill="none" stroke="#63b8ff" d="M525.69,-59.87C598.43,-50.07 785.03,-24.91 859.56,-14.86"/>
<polygon fill="#63b8ff" stroke="#63b8ff" points="859.99,-18.34 869.43,-13.53 859.05,-11.4 859.99,-18.34"/>
</a>
</g>
</g>
<!-- Node6 -->
<g id="Node000006" class="node">
<title>Node6</title>
<g id="a_Node000006"><a xlink:title=" ">
<polygon fill="#e0e0e0" stroke="#999999" points="674.5,-19.25 631.5,-19.25 631.5,0 674.5,0 674.5,-19.25"/>
<text text-anchor="middle" x="653" y="-5.75" font-family="Helvetica,sans-Serif" font-size="10.00">vector</text>
</a>
</g>
</g>
<!-- Node3&#45;&gt;Node6 -->
<g id="edge5_Node000003_Node000006" class="edge">
<title>Node3&#45;&gt;Node6</title>
<g id="a_edge5_Node000003_Node000006"><a xlink:title=" ">
<path fill="none" stroke="#63b8ff" d="M522.63,-54.84C549.66,-45.67 591.55,-31.47 620.51,-21.64"/>
<polygon fill="#63b8ff" stroke="#63b8ff" points="621.52,-25 629.87,-18.47 619.27,-18.37 621.52,-25"/>
</a>
</g>
</g>
<!-- Node7 -->
<g id="Node000007" class="node">
<title>Node7</title>
<g id="a_Node000007"><a xlink:title=" ">
<polygon fill="#e0e0e0" stroke="#999999" points="580.5,-19.25 537.5,-19.25 537.5,0 580.5,0 580.5,-19.25"/>
<text text-anchor="middle" x="559" y="-5.75" font-family="Helvetica,sans-Serif" font-size="10.00">cmath</text>
</a>
</g>
</g>
<!-- Node3&#45;&gt;Node7 -->
<g id="edge6_Node000003_Node000007" class="edge">
<title>Node3&#45;&gt;Node7</title>
<g id="a_edge6_Node000003_Node000007"><a xlink:title=" ">
<path fill="none" stroke="#63b8ff" d="M506.69,-54.84C515.7,-47.22 528.83,-36.12 539.68,-26.95"/>
<polygon fill="#63b8ff" stroke="#63b8ff" points="541.94,-29.63 547.31,-20.5 537.42,-24.28 541.94,-29.63"/>
</a>
</g>
</g>
<!-- Node8 -->
<g id="Node000008" class="node">
<title>Node8</title>
<g id="a_Node000008"><a xlink:title=" ">
<polygon fill="#e0e0e0" stroke="#999999" points="453.88,-19.25 398.12,-19.25 398.12,0 453.88,0 453.88,-19.25"/>
<text text-anchor="middle" x="426" y="-5.75" font-family="Helvetica,sans-Serif" font-size="10.00">algorithm</text>
</a>
</g>
</g>
<!-- Node3&#45;&gt;Node8 -->
<g id="edge7_Node000003_Node000008" class="edge">
<title>Node3&#45;&gt;Node8</title>
<g id="a_edge7_Node000003_Node000008"><a xlink:title=" ">
<path fill="none" stroke="#63b8ff" d="M484.13,-54.84C473.91,-47.07 458.93,-35.67 446.74,-26.4"/>
<polygon fill="#63b8ff" stroke="#63b8ff" points="448.98,-23.71 438.9,-20.44 444.74,-29.28 448.98,-23.71"/>
</a>
</g>
</g>
<!-- Node9&#45;&gt;Node3 -->
<g id="edge10_Node000009_Node000003" class="edge">
<title>Node9&#45;&gt;Node3</title>
<g id="a_edge10_Node000009_Node000003"><a xlink:title=" ">
<path fill="none" stroke="#63b8ff" d="M715.48,-111.89C669.02,-102.15 586.49,-84.85 536.94,-74.46"/>
<polygon fill="#63b8ff" stroke="#63b8ff" points="537.69,-71.04 527.18,-72.41 536.25,-77.89 537.69,-71.04"/>
</a>
</g>
</g>
<!-- Node9&#45;&gt;Node5 -->
<g id="edge11_Node000009_Node000005" class="edge">
<title>Node9&#45;&gt;Node5</title>
<g id="a_edge11_Node000009_Node000005"><a xlink:title=" ">
<path fill="none" stroke="#63b8ff" d="M763.97,-110.1C777.32,-101.35 797.9,-87.51 815,-74.5 835.22,-59.12 857.35,-40.27 872.49,-27.05"/>
<polygon fill="#63b8ff" stroke="#63b8ff" points="874.6,-29.86 879.8,-20.63 869.98,-24.6 874.6,-29.86"/>
</a>
</g>
</g>
<!-- Node9&#45;&gt;Node6 -->
<g id="edge12_Node000009_Node000006" class="edge">
<title>Node9&#45;&gt;Node6</title>
<g id="a_edge12_Node000009_Node000006"><a xlink:title=" ">
<path fill="none" stroke="#63b8ff" d="M734.89,-110.06C722.14,-101.88 703.93,-88.95 691,-74.5 678.9,-60.98 668.63,-43.04 661.82,-29.61"/>
<polygon fill="#63b8ff" stroke="#63b8ff" points="665.14,-28.43 657.62,-20.96 658.84,-31.48 665.14,-28.43"/>
</a>
</g>
</g>
<!-- Node10 -->
<g id="Node000010" class="node">
<title>Node10</title>
<g id="a_Node000010"><a xlink:title=" ">
<polygon fill="#e0e0e0" stroke="#999999" points="806.38,-74.5 699.62,-74.5 699.62,-55.25 806.38,-55.25 806.38,-74.5"/>
<text text-anchor="middle" x="753" y="-61" font-family="Helvetica,sans-Serif" font-size="10.00">./tinyxml2/tinyxml2.h</text>
</a>
</g>
</g>
<!-- Node9&#45;&gt;Node10 -->
<g id="edge9_Node000009_Node000010" class="edge">
<title>Node9&#45;&gt;Node10</title>
<g id="a_edge9_Node000009_Node000010"><a xlink:title=" ">
<path fill="none" stroke="#63b8ff" d="M750.5,-110.33C750.87,-103.74 751.39,-94.46 751.86,-86.07"/>
<polygon fill="#63b8ff" stroke="#63b8ff" points="755.34,-86.55 752.41,-76.37 748.35,-86.16 755.34,-86.55"/>
</a>
</g>
</g>
<!-- Node11 -->
<g id="Node000011" class="node">
<title>Node11</title>
<g id="a_Node000011"><a xlink:title=" ">
<polygon fill="#e0e0e0" stroke="#999999" points="255.38,-74.5 220.62,-74.5 220.62,-55.25 255.38,-55.25 255.38,-74.5"/>
<text text-anchor="middle" x="238" y="-61" font-family="Helvetica,sans-Serif" font-size="10.00">map</text>
</a>
</g>
</g>
<!-- Node9&#45;&gt;Node11 -->
<g id="edge13_Node000009_Node000011" class="edge">
<title>Node9&#45;&gt;Node11</title>
<g id="a_edge13_Node000009_Node000011"><a xlink:title=" ">
<path fill="none" stroke="#63b8ff" d="M715.61,-115.55C620.53,-105.66 355.32,-78.08 267.02,-68.89"/>
<polygon fill="#63b8ff" stroke="#63b8ff" points="267.58,-65.43 257.27,-67.88 266.86,-72.4 267.58,-65.43"/>
</a>
</g>
</g>
<!-- Node12&#45;&gt;Node5 -->
<g id="edge15_Node000012_Node000005" class="edge">
<title>Node12&#45;&gt;Node5</title>
<g id="a_edge15_Node000012_Node000005"><a xlink:title=" ">
<path fill="none" stroke="#63b8ff" d="M983.02,-110.15C966.84,-102.46 944.64,-90.14 929,-74.5 916.03,-61.53 905.74,-43.26 899.16,-29.58"/>
<polygon fill="#63b8ff" stroke="#63b8ff" points="902.48,-28.42 895.15,-20.77 896.11,-31.32 902.48,-28.42"/>
</a>
</g>
</g>
<!-- Node12&#45;&gt;Node6 -->
<g id="edge17_Node000012_Node000006" class="edge">
<title>Node12&#45;&gt;Node6</title>
<g id="a_edge17_Node000012_Node000006"><a xlink:title=" ">
<path fill="none" stroke="#63b8ff" d="M978.78,-110.09C942.68,-97.27 874.11,-73.36 815,-55.25 770.46,-41.6 718.46,-27.62 685.63,-19.03"/>
<polygon fill="#63b8ff" stroke="#63b8ff" points="686.89,-15.74 676.33,-16.6 685.12,-22.51 686.89,-15.74"/>
</a>
</g>
</g>
<!-- Node13 -->
<g id="Node000013" class="node">
<title>Node13</title>
<g id="a_Node000013"><a xlink:title=" ">
<polygon fill="#e0e0e0" stroke="#999999" points="987.5,-74.5 938.5,-74.5 938.5,-55.25 987.5,-55.25 987.5,-74.5"/>
<text text-anchor="middle" x="963" y="-61" font-family="Helvetica,sans-Serif" font-size="10.00">fstream</text>
</a>
</g>
</g>
<!-- Node12&#45;&gt;Node13 -->
<g id="edge16_Node000012_Node000013" class="edge">
<title>Node12&#45;&gt;Node13</title>
<g id="a_edge16_Node000012_Node000013"><a xlink:title=" ">
<path fill="none" stroke="#63b8ff" d="M997.23,-110.33C991.68,-103.13 983.66,-92.71 976.77,-83.76"/>
<polygon fill="#63b8ff" stroke="#63b8ff" points="979.71,-81.85 970.84,-76.06 974.17,-86.12 979.71,-81.85"/>
</a>
</g>
</g>
<!-- Node14 -->
<g id="Node000014" class="node">
<title>Node14</title>
<g id="a_Node000014"><a xlink:title=" ">
<polygon fill="#e0e0e0" stroke="#999999" points="1058.75,-74.5 1005.25,-74.5 1005.25,-55.25 1058.75,-55.25 1058.75,-74.5"/>
<text text-anchor="middle" x="1032" y="-61" font-family="Helvetica,sans-Serif" font-size="10.00">iostream</text>
</a>
</g>
</g>
<!-- Node12&#45;&gt;Node14 -->
<g id="edge18_Node000012_Node000014" class="edge">
<title>Node12&#45;&gt;Node14</title>
<g id="a_edge18_Node000012_Node000014"><a xlink:title=" ">
<path fill="none" stroke="#63b8ff" d="M1008.62,-110.33C1012.25,-103.44 1017.43,-93.59 1021.99,-84.91"/>
<polygon fill="#63b8ff" stroke="#63b8ff" points="1025.02,-86.68 1026.57,-76.2 1018.82,-83.42 1025.02,-86.68"/>
</a>
</g>
</g>
<!-- Node15 -->
<g id="Node000015" class="node">
<title>Node15</title>
<g id="a_Node000015"><a xlink:title=" ">
<polygon fill="#e0e0e0" stroke="#999999" points="1127.62,-74.5 1076.38,-74.5 1076.38,-55.25 1127.62,-55.25 1127.62,-74.5"/>
<text text-anchor="middle" x="1102" y="-61" font-family="Helvetica,sans-Serif" font-size="10.00">sstream</text>
</a>
</g>
</g>
<!-- Node12&#45;&gt;Node15 -->
<g id="edge19_Node000012_Node000015" class="edge">
<title>Node12&#45;&gt;Node15</title>
<g id="a_edge19_Node000012_Node000015"><a xlink:title=" ">
<path fill="none" stroke="#63b8ff" d="M1020.62,-110.09C1035.69,-101.91 1058.14,-89.71 1075.65,-80.19"/>
<polygon fill="#63b8ff" stroke="#63b8ff" points="1076.85,-83.52 1083.96,-75.68 1073.51,-77.37 1076.85,-83.52"/>
</a>
</g>
</g>
<!-- Node16 -->
<g id="Node000016" class="node">
<title>Node16</title>
<g id="a_Node000016"><a xlink:title=" ">
<polygon fill="#e0e0e0" stroke="#999999" points="1192,-74.5 1146,-74.5 1146,-55.25 1192,-55.25 1192,-74.5"/>
<text text-anchor="middle" x="1169" y="-61" font-family="Helvetica,sans-Serif" font-size="10.00">iterator</text>
</a>
</g>
</g>
<!-- Node12&#45;&gt;Node16 -->
<g id="edge20_Node000012_Node000016" class="edge">
<title>Node12&#45;&gt;Node16</title>
<g id="a_edge20_Node000012_Node000016"><a xlink:title=" ">
<path fill="none" stroke="#63b8ff" d="M1031.99,-110.09C1060.36,-100.94 1104.3,-86.75 1134.74,-76.93"/>
<polygon fill="#63b8ff" stroke="#63b8ff" points="1135.8,-80.27 1144.24,-73.87 1133.65,-73.61 1135.8,-80.27"/>
</a>
</g>
</g>
<!-- Node17&#45;&gt;Node3 -->
<g id="edge22_Node000017_Node000003" class="edge">
<title>Node17&#45;&gt;Node3</title>
<g id="a_edge22_Node000017_Node000003"><a xlink:title=" ">
<path fill="none" stroke="#63b8ff" d="M270.32,-275.8C265.61,-247.22 255.34,-158.15 300,-110.5 320.76,-88.35 403.8,-75.7 454.9,-69.86"/>
<polygon fill="#63b8ff" stroke="#63b8ff" points="455.15,-73.36 464.71,-68.79 454.39,-66.4 455.15,-73.36"/>
</a>
</g>
</g>
<!-- Node17&#45;&gt;Node9 -->
<g id="edge23_Node000017_Node000009" class="edge">
<title>Node17&#45;&gt;Node9</title>
<g id="a_edge23_Node000017_Node000009"><a xlink:title=" ">
<path fill="none" stroke="#63b8ff" d="M315.85,-284.85C390.07,-283.73 544.54,-276.73 669,-240.25 722.26,-224.64 751.69,-232.14 781,-185 790.41,-169.86 779.3,-151.44 767.84,-138.28"/>
<polygon fill="#63b8ff" stroke="#63b8ff" points="770.57,-136.06 761.15,-131.21 765.48,-140.88 770.57,-136.06"/>
</a>
</g>
</g>
<!-- Node18 -->
<g id="Node000018" class="node">
<title>Node18</title>
<g id="a_Node000018"><a xlink:href="ssattribute_8h.html" target="_top" xlink:title=" ">
<polygon fill="white" stroke="#666666" points="216,-240.25 146,-240.25 146,-221 216,-221 216,-240.25"/>
<text text-anchor="middle" x="181" y="-226.75" font-family="Helvetica,sans-Serif" font-size="10.00">ssattribute.h</text>
</a>
</g>
</g>
<!-- Node17&#45;&gt;Node18 -->
<g id="edge24_Node000017_Node000018" class="edge">
<title>Node17&#45;&gt;Node18</title>
<g id="a_edge24_Node000017_Node000018"><a xlink:title=" ">
<path fill="none" stroke="#63b8ff" d="M256.56,-275.84C242.84,-267.81 222.5,-255.91 206.38,-246.48"/>
<polygon fill="#63b8ff" stroke="#63b8ff" points="208.22,-243.5 197.82,-241.47 204.68,-249.54 208.22,-243.5"/>
</a>
</g>
</g>
<!-- Node18&#45;&gt;Node3 -->
<g id="edge25_Node000018_Node000003" class="edge">
<title>Node18&#45;&gt;Node3</title>
<g id="a_edge25_Node000018_Node000003"><a xlink:title=" ">
<path fill="none" stroke="#63b8ff" d="M184.26,-220.68C192.98,-198.1 219.14,-138.64 262,-110.5 293.21,-90.01 396.8,-76.22 455.15,-69.88"/>
<polygon fill="#63b8ff" stroke="#63b8ff" points="455.44,-73.37 465.02,-68.83 454.7,-66.4 455.44,-73.37"/>
</a>
</g>
</g>
<!-- Node18&#45;&gt;Node11 -->
<g id="edge34_Node000018_Node000011" class="edge">
<title>Node18&#45;&gt;Node11</title>
<g id="a_edge34_Node000018_Node000011"><a xlink:title=" ">
<path fill="none" stroke="#63b8ff" d="M179.08,-220.68C175.11,-200.02 167.84,-147.93 186,-110.5 191.75,-98.66 202.24,-88.72 212.3,-81.25"/>
<polygon fill="#63b8ff" stroke="#63b8ff" points="214.12,-84.24 220.4,-75.71 210.17,-78.46 214.12,-84.24"/>
</a>
</g>
</g>
<!-- Node19 -->
<g id="Node000019" class="node">
<title>Node19</title>
<g id="a_Node000019"><a xlink:href="ssvalue_8h.html" target="_top" xlink:title=" ">
<polygon fill="white" stroke="#666666" points="582,-185 524,-185 524,-165.75 582,-165.75 582,-185"/>
<text text-anchor="middle" x="553" y="-171.5" font-family="Helvetica,sans-Serif" font-size="10.00">ssvalue.h</text>
</a>
</g>
</g>
<!-- Node18&#45;&gt;Node19 -->
<g id="edge26_Node000018_Node000019" class="edge">
<title>Node18&#45;&gt;Node19</title>
<g id="a_edge26_Node000018_Node000019"><a xlink:title=" ">
<path fill="none" stroke="#63b8ff" d="M216.33,-224.57C285.71,-214.64 439.35,-192.64 512.62,-182.16"/>
<polygon fill="#63b8ff" stroke="#63b8ff" points="512.76,-185.67 522.16,-180.79 511.77,-178.74 512.76,-185.67"/>
</a>
</g>
</g>
<!-- Node21 -->
<g id="Node000021" class="node">
<title>Node21</title>
<g id="a_Node000021"><a xlink:href="ss_interpolation_8h.html" target="_top" xlink:title=" ">
<polygon fill="white" stroke="#666666" points="88,-185 0,-185 0,-165.75 88,-165.75 88,-185"/>
<text text-anchor="middle" x="44" y="-171.5" font-family="Helvetica,sans-Serif" font-size="10.00">ssInterpolation.h</text>
</a>
</g>
</g>
<!-- Node18&#45;&gt;Node21 -->
<g id="edge32_Node000018_Node000021" class="edge">
<title>Node18&#45;&gt;Node21</title>
<g id="a_edge32_Node000018_Node000021"><a xlink:title=" ">
<path fill="none" stroke="#63b8ff" d="M157.76,-220.59C135.81,-212.06 102.65,-199.17 77.79,-189.51"/>
<polygon fill="#63b8ff" stroke="#63b8ff" points="79.35,-186.36 68.76,-186 76.82,-192.89 79.35,-186.36"/>
</a>
</g>
</g>
<!-- Node22 -->
<g id="Node000022" class="node">
<title>Node22</title>
<g id="a_Node000022"><a xlink:title=" ">
<polygon fill="#e0e0e0" stroke="#999999" points="134.4,-185 105.6,-185 105.6,-165.75 134.4,-165.75 134.4,-185"/>
<text text-anchor="middle" x="120" y="-171.5" font-family="Helvetica,sans-Serif" font-size="10.00">list</text>
</a>
</g>
</g>
<!-- Node18&#45;&gt;Node22 -->
<g id="edge33_Node000018_Node000022" class="edge">
<title>Node18&#45;&gt;Node22</title>
<g id="a_edge33_Node000018_Node000022"><a xlink:title=" ">
<path fill="none" stroke="#63b8ff" d="M170.65,-220.59C161.92,-212.97 149.21,-201.87 138.7,-192.7"/>
<polygon fill="#63b8ff" stroke="#63b8ff" points="141.17,-190.21 131.34,-186.27 136.57,-195.48 141.17,-190.21"/>
</a>
</g>
</g>
<!-- Node19&#45;&gt;Node6 -->
<g id="edge30_Node000019_Node000006" class="edge">
<title>Node19&#45;&gt;Node6</title>
<g id="a_edge30_Node000019_Node000006"><a xlink:title=" ">
<path fill="none" stroke="#63b8ff" d="M558.62,-165.51C564.31,-156.53 573.33,-142.21 581,-129.75 602.77,-94.4 627.75,-52.85 641.82,-29.34"/>
<polygon fill="#63b8ff" stroke="#63b8ff" points="644.73,-31.3 646.85,-20.92 638.72,-27.71 644.73,-31.3"/>
</a>
</g>
</g>
<!-- Node19&#45;&gt;Node9 -->
<g id="edge27_Node000019_Node000009" class="edge">
<title>Node19&#45;&gt;Node9</title>
<g id="a_edge27_Node000019_Node000009"><a xlink:title=" ">
<path fill="none" stroke="#63b8ff" d="M582.49,-166.4C615.12,-157.58 668.06,-143.28 705.68,-133.11"/>
<polygon fill="#63b8ff" stroke="#63b8ff" points="706.14,-136.61 714.88,-130.62 704.31,-129.85 706.14,-136.61"/>
</a>
</g>
</g>
<!-- Node19&#45;&gt;Node11 -->
<g id="edge29_Node000019_Node000011" class="edge">
<title>Node19&#45;&gt;Node11</title>
<g id="a_edge29_Node000019_Node000011"><a xlink:title=" ">
<path fill="none" stroke="#63b8ff" d="M526.69,-165.31C468.06,-145.12 327.14,-96.58 266.52,-75.7"/>
<polygon fill="#63b8ff" stroke="#63b8ff" points="267.87,-72.46 257.27,-72.51 265.59,-79.08 267.87,-72.46"/>
</a>
</g>
</g>
<!-- Node19&#45;&gt;Node12 -->
<g id="edge28_Node000019_Node000012" class="edge">
<title>Node19&#45;&gt;Node12</title>
<g id="a_edge28_Node000019_Node000012"><a xlink:title=" ">
<path fill="none" stroke="#63b8ff" d="M582.24,-170.92C657.85,-162 860.45,-138.07 954.62,-126.96"/>
<polygon fill="#63b8ff" stroke="#63b8ff" points="954.79,-130.46 964.31,-125.81 953.97,-123.51 954.79,-130.46"/>
</a>
</g>
</g>
<!-- Node20 -->
<g id="Node000020" class="node">
<title>Node20</title>
<g id="a_Node000020"><a xlink:title=" ">
<polygon fill="#e0e0e0" stroke="#999999" points="572.12,-129.75 523.88,-129.75 523.88,-110.5 572.12,-110.5 572.12,-129.75"/>
<text text-anchor="middle" x="548" y="-116.25" font-family="Helvetica,sans-Serif" font-size="10.00">cassert</text>
</a>
</g>
</g>
<!-- Node19&#45;&gt;Node20 -->
<g id="edge31_Node000019_Node000020" class="edge">
<title>Node19&#45;&gt;Node20</title>
<g id="a_edge31_Node000019_Node000020"><a xlink:title=" ">
<path fill="none" stroke="#63b8ff" d="M552.17,-165.58C551.56,-158.99 550.68,-149.71 549.9,-141.32"/>
<polygon fill="#63b8ff" stroke="#63b8ff" points="553.4,-141.25 548.99,-131.62 546.44,-141.9 553.4,-141.25"/>
</a>
</g>
</g>
<!-- Node23&#45;&gt;Node3 -->
<g id="edge36_Node000023_Node000003" class="edge">
<title>Node23&#45;&gt;Node3</title>
<g id="a_edge36_Node000023_Node000003"><a xlink:title=" ">
<path fill="none" stroke="#63b8ff" d="M380.22,-220.54C372.9,-207.77 362.21,-184.02 371,-165.75 390.5,-125.22 435.33,-96.01 465.66,-80.01"/>
<polygon fill="#63b8ff" stroke="#63b8ff" points="467.03,-83.24 474.36,-75.59 463.86,-76.99 467.03,-83.24"/>
</a>
</g>
</g>
<!-- Node23&#45;&gt;Node9 -->
<g id="edge37_Node000023_Node000009" class="edge">
<title>Node23&#45;&gt;Node9</title>
<g id="a_edge37_Node000023_Node000009"><a xlink:title=" ">
<path fill="none" stroke="#63b8ff" d="M429.79,-227.65C524.41,-222.95 741.16,-209.57 763,-185 773.8,-172.85 768.39,-154.23 761.56,-140.22"/>
<polygon fill="#63b8ff" stroke="#63b8ff" points="764.66,-138.61 756.79,-131.52 758.52,-141.97 764.66,-138.61"/>
</a>
</g>
</g>
<!-- Node24&#45;&gt;Node3 -->
<g id="edge39_Node000024_Node000003" class="edge">
<title>Node24&#45;&gt;Node3</title>
<g id="a_edge39_Node000024_Node000003"><a xlink:title=" ">
<path fill="none" stroke="#63b8ff" d="M586.77,-275.85C567.86,-259.87 530.24,-224.55 515,-185 502.23,-151.87 498.04,-110.38 496.67,-86.13"/>
<polygon fill="#63b8ff" stroke="#63b8ff" points="500.18,-86.22 496.23,-76.38 493.18,-86.53 500.18,-86.22"/>
</a>
</g>
</g>
<!-- Node24&#45;&gt;Node9 -->
<g id="edge40_Node000024_Node000009" class="edge">
<title>Node24&#45;&gt;Node9</title>
<g id="a_edge40_Node000024_Node000009"><a xlink:title=" ">
<path fill="none" stroke="#63b8ff" d="M641.91,-282.42C690.63,-278.39 770.73,-267.82 834,-240.25 871.96,-223.71 890.33,-221.95 909,-185 932.36,-138.77 850.39,-125.88 795.57,-122.36"/>
<polygon fill="#63b8ff" stroke="#63b8ff" points="796.02,-118.88 785.84,-121.83 795.63,-125.87 796.02,-118.88"/>
</a>
</g>
</g>
<!-- Node25 -->
<g id="Node000025" class="node">
<title>Node25</title>
<g id="a_Node000025"><a xlink:href="_ss_effect_behavior_8h.html" target="_top" xlink:title=" ">
<polygon fill="white" stroke="#666666" points="660,-240.25 560,-240.25 560,-221 660,-221 660,-240.25"/>
<text text-anchor="middle" x="610" y="-226.75" font-family="Helvetica,sans-Serif" font-size="10.00">SsEffectBehavior.h</text>
</a>
</g>
</g>
<!-- Node24&#45;&gt;Node25 -->
<g id="edge41_Node000024_Node000025" class="edge">
<title>Node24&#45;&gt;Node25</title>
<g id="a_edge41_Node000024_Node000025"><a xlink:title=" ">
<path fill="none" stroke="#63b8ff" d="M599.98,-276.08C601.47,-269.49 603.56,-260.21 605.45,-251.82"/>
<polygon fill="#63b8ff" stroke="#63b8ff" points="608.86,-252.61 607.64,-242.09 602.03,-251.07 608.86,-252.61"/>
</a>
</g>
</g>
<!-- Node25&#45;&gt;Node3 -->
<g id="edge46_Node000025_Node000003" class="edge">
<title>Node25&#45;&gt;Node3</title>
<g id="a_edge46_Node000025_Node000003"><a xlink:title=" ">
<path fill="none" stroke="#63b8ff" d="M610.21,-220.8C610.25,-199.51 607.6,-144.55 581,-110.5 569.64,-95.95 552.2,-85.64 536.07,-78.62"/>
<polygon fill="#63b8ff" stroke="#63b8ff" points="537.72,-75.52 527.14,-75.04 535.12,-82.01 537.72,-75.52"/>
</a>
</g>
</g>
<!-- Node25&#45;&gt;Node19 -->
<g id="edge47_Node000025_Node000019" class="edge">
<title>Node25&#45;&gt;Node19</title>
<g id="a_edge47_Node000025_Node000019"><a xlink:title=" ">
<path fill="none" stroke="#63b8ff" d="M600.33,-220.59C592.26,-213.05 580.53,-202.1 570.78,-192.98"/>
<polygon fill="#63b8ff" stroke="#63b8ff" points="573.33,-190.58 563.63,-186.31 568.55,-195.69 573.33,-190.58"/>
</a>
</g>
</g>
<!-- Node26 -->
<g id="Node000026" class="node">
<title>Node26</title>
<g id="a_Node000026"><a xlink:href="_ss_effect_element_8h.html" target="_top" xlink:title=" ">
<polygon fill="white" stroke="#666666" points="736.25,-185 637.75,-185 637.75,-165.75 736.25,-165.75 736.25,-185"/>
<text text-anchor="middle" x="687" y="-171.5" font-family="Helvetica,sans-Serif" font-size="10.00">SsEffectElement.h</text>
</a>
</g>
</g>
<!-- Node25&#45;&gt;Node26 -->
<g id="edge42_Node000025_Node000026" class="edge">
<title>Node25&#45;&gt;Node26</title>
<g id="a_edge42_Node000025_Node000026"><a xlink:title=" ">
<path fill="none" stroke="#63b8ff" d="M623.06,-220.59C634.46,-212.71 651.23,-201.11 664.74,-191.77"/>
<polygon fill="#63b8ff" stroke="#63b8ff" points="666.4,-194.88 672.63,-186.31 662.41,-189.12 666.4,-194.88"/>
</a>
</g>
</g>
<!-- Node25&#45;&gt;Node27 -->
<g id="edge48_Node000025_Node000027" class="edge">
<title>Node25&#45;&gt;Node27</title>
<g id="a_edge48_Node000025_Node000027"><a xlink:title=" ">
<path fill="none" stroke="#63b8ff" d="M655.08,-220.53C706.37,-210.19 789.18,-193.48 836.9,-183.86"/>
<polygon fill="#63b8ff" stroke="#63b8ff" points="837.35,-187.34 846.46,-181.93 835.97,-180.48 837.35,-187.34"/>
</a>
</g>
</g>
<!-- Node26&#45;&gt;Node3 -->
<g id="edge43_Node000026_Node000003" class="edge">
<title>Node26&#45;&gt;Node3</title>
<g id="a_edge43_Node000026_Node000003"><a xlink:title=" ">
<path fill="none" stroke="#63b8ff" d="M678.82,-165.4C666.09,-151.9 640.29,-126.26 614,-110.5 589.68,-95.91 559.77,-84.67 536.15,-77.11"/>
<polygon fill="#63b8ff" stroke="#63b8ff" points="537.48,-73.86 526.89,-74.25 535.41,-80.55 537.48,-73.86"/>
</a>
</g>
</g>
<!-- Node26&#45;&gt;Node9 -->
<g id="edge44_Node000026_Node000009" class="edge">
<title>Node26&#45;&gt;Node9</title>
<g id="a_edge44_Node000026_Node000009"><a xlink:title=" ">
<path fill="none" stroke="#63b8ff" d="M697.69,-165.34C706.7,-157.72 719.83,-146.62 730.68,-137.45"/>
<polygon fill="#63b8ff" stroke="#63b8ff" points="732.94,-140.13 738.31,-131 728.42,-134.78 732.94,-140.13"/>
</a>
</g>
</g>
<!-- Node26&#45;&gt;Node26 -->
<g id="edge45_Node000026_Node000026" class="edge">
<title>Node26&#45;&gt;Node26</title>
<g id="a_edge45_Node000026_Node000026"><a xlink:title=" ">
<path fill="none" stroke="#63b8ff" d="M722.29,-185.48C739.27,-186.73 754.25,-183.36 754.25,-175.38 754.25,-169.26 745.47,-165.85 733.73,-165.15"/>
<polygon fill="#63b8ff" stroke="#63b8ff" points="733.77,-161.65 723.8,-165.25 733.84,-168.65 733.77,-161.65"/>
</a>
</g>
</g>
<!-- Node28&#45;&gt;Node3 -->
<g id="edge50_Node000028_Node000003" class="edge">
<title>Node28&#45;&gt;Node3</title>
<g id="a_edge50_Node000028_Node000003"><a xlink:title=" ">
<path fill="none" stroke="#63b8ff" d="M429.89,-165.5C441.6,-147.85 468.01,-108.05 483.68,-84.45"/>
<polygon fill="#63b8ff" stroke="#63b8ff" points="486.58,-86.41 489.19,-76.14 480.74,-82.53 486.58,-86.41"/>
</a>
</g>
</g>
<!-- Node28&#45;&gt;Node9 -->
<g id="edge51_Node000028_Node000009" class="edge">
<title>Node28&#45;&gt;Node9</title>
<g id="a_edge51_Node000028_Node000009"><a xlink:title=" ">
<path fill="none" stroke="#63b8ff" d="M467.97,-167.19C529.81,-157.09 641.93,-138.78 704.56,-128.55"/>
<polygon fill="#63b8ff" stroke="#63b8ff" points="704.86,-132.05 714.16,-126.98 703.73,-125.14 704.86,-132.05"/>
</a>
</g>
</g>
<!-- Node30&#45;&gt;Node5 -->
<g id="edge59_Node000030_Node000005" class="edge">
<title>Node30&#45;&gt;Node5</title>
<g id="a_edge59_Node000030_Node000005"><a xlink:title=" ">
<path fill="none" stroke="#63b8ff" d="M1174.2,-331.02C1189.31,-313.28 1220,-272.23 1220,-231.62 1220,-231.62 1220,-231.62 1220,-119.12 1220,-89.51 1223.42,-74.61 1201,-55.25 1159.76,-19.64 993.11,-12.44 922.67,-10.99"/>
<polygon fill="#63b8ff" stroke="#63b8ff" points="923.03,-7.49 912.97,-10.81 922.91,-14.49 923.03,-7.49"/>
</a>
</g>
</g>
</g>
</svg>
