<?xml version="1.0" encoding="UTF-8" standalone="no"?>
<!DOCTYPE svg PUBLIC "-//W3C//DTD SVG 1.1//EN"
 "http://www.w3.org/Graphics/SVG/1.1/DTD/svg11.dtd">
<!-- Generated by graphviz version 9.0.0 (20230911.1827)
 -->
<!-- Title: Common/Loader/ssloader.h Pages: 1 -->
<svg width="1088pt" height="414pt"
 viewBox="0.00 0.00 1088.00 414.00" xmlns="http://www.w3.org/2000/svg" xmlns:xlink="http://www.w3.org/1999/xlink">
<g id="graph0" class="graph" transform="scale(1 1) rotate(0) translate(4 410)">
<title>Common/Loader/ssloader.h</title>
<!-- Node1 -->
<g id="Node000001" class="node">
<title>Node1</title>
<g id="a_Node000001"><a xlink:title=" ">
<polygon fill="#999999" stroke="#666666" points="644.62,-406 509.38,-406 509.38,-386.75 644.62,-386.75 644.62,-406"/>
<text text-anchor="middle" x="577" y="-392.5" font-family="Helvetica,sans-Serif" font-size="10.00">Common/Loader/ssloader.h</text>
</a>
</g>
</g>
<!-- Node2 -->
<g id="Node000002" class="node">
<title>Node2</title>
<g id="a_Node000002"><a xlink:href="sstypes_8h.html" target="_top" xlink:title=" ">
<polygon fill="white" stroke="#666666" points="831.38,-74.5 772.62,-74.5 772.62,-55.25 831.38,-55.25 831.38,-74.5"/>
<text text-anchor="middle" x="802" y="-61" font-family="Helvetica,sans-Serif" font-size="10.00">sstypes.h</text>
</a>
</g>
</g>
<!-- Node1&#45;&gt;Node2 -->
<g id="edge1_Node000001_Node000002" class="edge">
<title>Node1&#45;&gt;Node2</title>
<g id="a_edge1_Node000001_Node000002"><a xlink:title=" ">
<path fill="none" stroke="#63b8ff" d="M645.1,-394.76C782.51,-391.67 1080,-374.81 1080,-286.88 1080,-286.88 1080,-286.88 1080,-174.38 1080,-124.11 920.29,-87.71 842.97,-73.03"/>
<polygon fill="#63b8ff" stroke="#63b8ff" points="843.71,-69.61 833.24,-71.22 842.43,-76.49 843.71,-69.61"/>
</a>
</g>
</g>
<!-- Node8 -->
<g id="Node000008" class="node">
<title>Node8</title>
<g id="a_Node000008"><a xlink:href="ssarchiver_8h.html" target="_top" xlink:title=" ">
<polygon fill="white" stroke="#666666" points="386.25,-129.75 317.75,-129.75 317.75,-110.5 386.25,-110.5 386.25,-129.75"/>
<text text-anchor="middle" x="352" y="-116.25" font-family="Helvetica,sans-Serif" font-size="10.00">ssarchiver.h</text>
</a>
</g>
</g>
<!-- Node1&#45;&gt;Node8 -->
<g id="edge7_Node000001_Node000008" class="edge">
<title>Node1&#45;&gt;Node8</title>
<g id="a_edge7_Node000001_Node000008"><a xlink:title=" ">
<path fill="none" stroke="#63b8ff" d="M508.92,-393.27C440.45,-387.06 338.19,-365.72 289,-295.5 253.38,-244.65 307.19,-171.45 335.9,-138.43"/>
<polygon fill="#63b8ff" stroke="#63b8ff" points="338.16,-141.15 342.22,-131.37 332.94,-136.48 338.16,-141.15"/>
</a>
</g>
</g>
<!-- Node11 -->
<g id="Node000011" class="node">
<title>Node11</title>
<g id="a_Node000011"><a xlink:href="ssattribute_8h.html" target="_top" xlink:title=" ">
<polygon fill="white" stroke="#666666" points="248,-240.25 178,-240.25 178,-221 248,-221 248,-240.25"/>
<text text-anchor="middle" x="213" y="-226.75" font-family="Helvetica,sans-Serif" font-size="10.00">ssattribute.h</text>
</a>
</g>
</g>
<!-- Node1&#45;&gt;Node11 -->
<g id="edge13_Node000001_Node000011" class="edge">
<title>Node1&#45;&gt;Node11</title>
<g id="a_edge13_Node000001_Node000011"><a xlink:title=" ">
<path fill="none" stroke="#63b8ff" d="M509.22,-394C426.72,-390.98 293.75,-381.36 256,-350.75 225.77,-326.24 216.79,-278.69 214.12,-251.67"/>
<polygon fill="#63b8ff" stroke="#63b8ff" points="217.64,-251.76 213.39,-242.05 210.66,-252.29 217.64,-251.76"/>
</a>
</g>
</g>
<!-- Node19 -->
<g id="Node000019" class="node">
<title>Node19</title>
<g id="a_Node000019"><a xlink:href="ss_interpolation_8h.html" target="_top" xlink:title=" ">
<polygon fill="white" stroke="#666666" points="88,-185 0,-185 0,-165.75 88,-165.75 88,-185"/>
<text text-anchor="middle" x="44" y="-171.5" font-family="Helvetica,sans-Serif" font-size="10.00">ssInterpolation.h</text>
</a>
</g>
</g>
<!-- Node1&#45;&gt;Node19 -->
<g id="edge61_Node000001_Node000019" class="edge">
<title>Node1&#45;&gt;Node19</title>
<g id="a_edge61_Node000001_Node000019"><a xlink:title=" ">
<path fill="none" stroke="#63b8ff" d="M508.96,-391.29C423.73,-385.35 283.13,-372.58 236,-350.75 155.7,-313.56 85.54,-230.71 57.27,-194.22"/>
<polygon fill="#63b8ff" stroke="#63b8ff" points="60.19,-192.27 51.35,-186.43 54.62,-196.51 60.19,-192.27"/>
</a>
</g>
</g>
<!-- Node21 -->
<g id="Node000021" class="node">
<title>Node21</title>
<g id="a_Node000021"><a xlink:href="ssloader__sspj_8h.html" target="_top" xlink:title=" ">
<polygon fill="white" stroke="#666666" points="693.12,-350.75 608.88,-350.75 608.88,-331.5 693.12,-331.5 693.12,-350.75"/>
<text text-anchor="middle" x="651" y="-337.25" font-family="Helvetica,sans-Serif" font-size="10.00">ssloader_sspj.h</text>
</a>
</g>
</g>
<!-- Node1&#45;&gt;Node21 -->
<g id="edge30_Node000001_Node000021" class="edge">
<title>Node1&#45;&gt;Node21</title>
<g id="a_edge30_Node000001_Node000021"><a xlink:title=" ">
<path fill="none" stroke="#63b8ff" d="M589.55,-386.34C600.46,-378.49 616.5,-366.95 629.46,-357.62"/>
<polygon fill="#63b8ff" stroke="#63b8ff" points="631.33,-360.59 637.4,-351.91 627.24,-354.91 631.33,-360.59"/>
</a>
</g>
</g>
<!-- Node22 -->
<g id="Node000022" class="node">
<title>Node22</title>
<g id="a_Node000022"><a xlink:href="ssloader__ssae_8h.html" target="_top" xlink:title=" ">
<polygon fill="white" stroke="#666666" points="385.62,-295.5 298.38,-295.5 298.38,-276.25 385.62,-276.25 385.62,-295.5"/>
<text text-anchor="middle" x="342" y="-282" font-family="Helvetica,sans-Serif" font-size="10.00">ssloader_ssae.h</text>
</a>
</g>
</g>
<!-- Node1&#45;&gt;Node22 -->
<g id="edge57_Node000001_Node000022" class="edge">
<title>Node1&#45;&gt;Node22</title>
<g id="a_edge57_Node000001_Node000022"><a xlink:title=" ">
<path fill="none" stroke="#63b8ff" d="M557.37,-386.31C516.24,-367.32 420.82,-323.27 371.98,-300.72"/>
<polygon fill="#63b8ff" stroke="#63b8ff" points="373.66,-297.64 363.12,-296.62 370.73,-303.99 373.66,-297.64"/>
</a>
</g>
</g>
<!-- Node23 -->
<g id="Node000023" class="node">
<title>Node23</title>
<g id="a_Node000023"><a xlink:href="ssloader__ssce_8h.html" target="_top" xlink:title=" ">
<polygon fill="white" stroke="#666666" points="1051.62,-240.25 964.38,-240.25 964.38,-221 1051.62,-221 1051.62,-240.25"/>
<text text-anchor="middle" x="1008" y="-226.75" font-family="Helvetica,sans-Serif" font-size="10.00">ssloader_ssce.h</text>
</a>
</g>
</g>
<!-- Node1&#45;&gt;Node23 -->
<g id="edge58_Node000001_Node000023" class="edge">
<title>Node1&#45;&gt;Node23</title>
<g id="a_edge58_Node000001_Node000023"><a xlink:title=" ">
<path fill="none" stroke="#63b8ff" d="M612.88,-386.33C644.35,-378.08 691.17,-365.02 731,-350.75 823.32,-317.67 928.85,-269.21 978.83,-245.6"/>
<polygon fill="#63b8ff" stroke="#63b8ff" points="980.28,-248.78 987.82,-241.33 977.28,-242.46 980.28,-248.78"/>
</a>
</g>
</g>
<!-- Node24 -->
<g id="Node000024" class="node">
<title>Node24</title>
<g id="a_Node000024"><a xlink:href="ssloader__ssee_8h.html" target="_top" xlink:title=" ">
<polygon fill="white" stroke="#666666" points="620.62,-295.5 533.38,-295.5 533.38,-276.25 620.62,-276.25 620.62,-295.5"/>
<text text-anchor="middle" x="577" y="-282" font-family="Helvetica,sans-Serif" font-size="10.00">ssloader_ssee.h</text>
</a>
</g>
</g>
<!-- Node1&#45;&gt;Node24 -->
<g id="edge59_Node000001_Node000024" class="edge">
<title>Node1&#45;&gt;Node24</title>
<g id="a_edge59_Node000001_Node000024"><a xlink:title=" ">
<path fill="none" stroke="#63b8ff" d="M577,-386.5C577,-369.25 577,-330.83 577,-307.06"/>
<polygon fill="#63b8ff" stroke="#63b8ff" points="580.5,-307.39 577,-297.39 573.5,-307.39 580.5,-307.39"/>
</a>
</g>
</g>
<!-- Node28 -->
<g id="Node000028" class="node">
<title>Node28</title>
<g id="a_Node000028"><a xlink:href="ssloader__ssqe_8h.html" target="_top" xlink:title=" ">
<polygon fill="white" stroke="#666666" points="907.62,-240.25 820.38,-240.25 820.38,-221 907.62,-221 907.62,-240.25"/>
<text text-anchor="middle" x="864" y="-226.75" font-family="Helvetica,sans-Serif" font-size="10.00">ssloader_ssqe.h</text>
</a>
</g>
</g>
<!-- Node1&#45;&gt;Node28 -->
<g id="edge60_Node000001_Node000028" class="edge">
<title>Node1&#45;&gt;Node28</title>
<g id="a_edge60_Node000001_Node000028"><a xlink:title=" ">
<path fill="none" stroke="#63b8ff" d="M610.48,-386.32C636.31,-378.66 672.5,-366.43 702,-350.75 758.22,-320.87 816.56,-273.1 845.46,-248.1"/>
<polygon fill="#63b8ff" stroke="#63b8ff" points="847.73,-250.77 852.95,-241.55 843.12,-245.5 847.73,-250.77"/>
</a>
</g>
</g>
<!-- Node3 -->
<g id="Node000003" class="node">
<title>Node3</title>
<g id="a_Node000003"><a xlink:title=" ">
<polygon fill="#e0e0e0" stroke="#999999" points="928.75,-19.25 881.25,-19.25 881.25,0 928.75,0 928.75,-19.25"/>
<text text-anchor="middle" x="905" y="-5.75" font-family="Helvetica,sans-Serif" font-size="10.00">stdlib.h</text>
</a>
</g>
</g>
<!-- Node2&#45;&gt;Node3 -->
<g id="edge2_Node000002_Node000003" class="edge">
<title>Node2&#45;&gt;Node3</title>
<g id="a_edge2_Node000002_Node000003"><a xlink:title=" ">
<path fill="none" stroke="#63b8ff" d="M819.47,-54.84C835.31,-46.66 858.91,-34.46 877.31,-24.94"/>
<polygon fill="#63b8ff" stroke="#63b8ff" points="878.82,-28.1 886.1,-20.4 875.61,-21.88 878.82,-28.1"/>
</a>
</g>
</g>
<!-- Node4 -->
<g id="Node000004" class="node">
<title>Node4</title>
<g id="a_Node000004"><a xlink:title=" ">
<polygon fill="#e0e0e0" stroke="#999999" points="728,-19.25 688,-19.25 688,0 728,0 728,-19.25"/>
<text text-anchor="middle" x="708" y="-5.75" font-family="Helvetica,sans-Serif" font-size="10.00">string</text>
</a>
</g>
</g>
<!-- Node2&#45;&gt;Node4 -->
<g id="edge3_Node000002_Node000004" class="edge">
<title>Node2&#45;&gt;Node4</title>
<g id="a_edge3_Node000002_Node000004"><a xlink:title=" ">
<path fill="none" stroke="#63b8ff" d="M786.05,-54.84C771.74,-46.73 750.47,-34.68 733.75,-25.21"/>
<polygon fill="#63b8ff" stroke="#63b8ff" points="735.77,-22.33 725.34,-20.45 732.32,-28.42 735.77,-22.33"/>
</a>
</g>
</g>
<!-- Node5 -->
<g id="Node000005" class="node">
<title>Node5</title>
<g id="a_Node000005"><a xlink:title=" ">
<polygon fill="#e0e0e0" stroke="#999999" points="337.5,-19.25 294.5,-19.25 294.5,0 337.5,0 337.5,-19.25"/>
<text text-anchor="middle" x="316" y="-5.75" font-family="Helvetica,sans-Serif" font-size="10.00">vector</text>
</a>
</g>
</g>
<!-- Node2&#45;&gt;Node5 -->
<g id="edge4_Node000002_Node000005" class="edge">
<title>Node2&#45;&gt;Node5</title>
<g id="a_edge4_Node000002_Node000005"><a xlink:title=" ">
<path fill="none" stroke="#63b8ff" d="M772.41,-60.48C758.35,-58.88 741.31,-56.95 726,-55.25 585.74,-39.66 418.42,-21.62 348.85,-14.15"/>
<polygon fill="#63b8ff" stroke="#63b8ff" points="349.6,-10.71 339.29,-13.12 348.86,-17.67 349.6,-10.71"/>
</a>
</g>
</g>
<!-- Node6 -->
<g id="Node000006" class="node">
<title>Node6</title>
<g id="a_Node000006"><a xlink:title=" ">
<polygon fill="#e0e0e0" stroke="#999999" points="789.5,-19.25 746.5,-19.25 746.5,0 789.5,0 789.5,-19.25"/>
<text text-anchor="middle" x="768" y="-5.75" font-family="Helvetica,sans-Serif" font-size="10.00">cmath</text>
</a>
</g>
</g>
<!-- Node2&#45;&gt;Node6 -->
<g id="edge5_Node000002_Node000006" class="edge">
<title>Node2&#45;&gt;Node6</title>
<g id="a_edge5_Node000002_Node000006"><a xlink:title=" ">
<path fill="none" stroke="#63b8ff" d="M796.39,-55.08C791.88,-48.03 785.41,-37.9 779.79,-29.08"/>
<polygon fill="#63b8ff" stroke="#63b8ff" points="782.88,-27.43 774.55,-20.88 776.98,-31.2 782.88,-27.43"/>
</a>
</g>
</g>
<!-- Node7 -->
<g id="Node000007" class="node">
<title>Node7</title>
<g id="a_Node000007"><a xlink:title=" ">
<polygon fill="#e0e0e0" stroke="#999999" points="862.88,-19.25 807.12,-19.25 807.12,0 862.88,0 862.88,-19.25"/>
<text text-anchor="middle" x="835" y="-5.75" font-family="Helvetica,sans-Serif" font-size="10.00">algorithm</text>
</a>
</g>
</g>
<!-- Node2&#45;&gt;Node7 -->
<g id="edge6_Node000002_Node000007" class="edge">
<title>Node2&#45;&gt;Node7</title>
<g id="a_edge6_Node000002_Node000007"><a xlink:title=" ">
<path fill="none" stroke="#63b8ff" d="M807.45,-55.08C811.77,-48.11 817.96,-38.12 823.38,-29.37"/>
<polygon fill="#63b8ff" stroke="#63b8ff" points="826.34,-31.24 828.64,-20.9 820.39,-27.55 826.34,-31.24"/>
</a>
</g>
</g>
<!-- Node8&#45;&gt;Node2 -->
<g id="edge9_Node000008_Node000002" class="edge">
<title>Node8&#45;&gt;Node2</title>
<g id="a_edge9_Node000008_Node000002"><a xlink:title=" ">
<path fill="none" stroke="#63b8ff" d="M386.56,-115.03C468.32,-105.36 673.29,-81.11 761.07,-70.72"/>
<polygon fill="#63b8ff" stroke="#63b8ff" points="761.38,-74.21 770.9,-69.56 760.56,-67.25 761.38,-74.21"/>
</a>
</g>
</g>
<!-- Node8&#45;&gt;Node4 -->
<g id="edge10_Node000008_Node000004" class="edge">
<title>Node8&#45;&gt;Node4</title>
<g id="a_edge10_Node000008_Node000004"><a xlink:title=" ">
<path fill="none" stroke="#63b8ff" d="M363.28,-110.09C381.45,-96.02 418.83,-69.06 455,-55.25 531.05,-26.2 627.27,-15.89 676.24,-12.36"/>
<polygon fill="#63b8ff" stroke="#63b8ff" points="676.37,-15.86 686.12,-11.71 675.91,-8.88 676.37,-15.86"/>
</a>
</g>
</g>
<!-- Node8&#45;&gt;Node5 -->
<g id="edge11_Node000008_Node000005" class="edge">
<title>Node8&#45;&gt;Node5</title>
<g id="a_edge11_Node000008_Node000005"><a xlink:title=" ">
<path fill="none" stroke="#63b8ff" d="M317.63,-113.25C295.35,-107.47 267.96,-96.2 254,-74.5 241.71,-55.4 263.96,-37.18 285.15,-25.12"/>
<polygon fill="#63b8ff" stroke="#63b8ff" points="286.78,-28.22 293.97,-20.43 283.49,-22.04 286.78,-28.22"/>
</a>
</g>
</g>
<!-- Node9 -->
<g id="Node000009" class="node">
<title>Node9</title>
<g id="a_Node000009"><a xlink:title=" ">
<polygon fill="#e0e0e0" stroke="#999999" points="369.38,-74.5 262.62,-74.5 262.62,-55.25 369.38,-55.25 369.38,-74.5"/>
<text text-anchor="middle" x="316" y="-61" font-family="Helvetica,sans-Serif" font-size="10.00">./tinyxml2/tinyxml2.h</text>
</a>
</g>
</g>
<!-- Node8&#45;&gt;Node9 -->
<g id="edge8_Node000008_Node000009" class="edge">
<title>Node8&#45;&gt;Node9</title>
<g id="a_edge8_Node000008_Node000009"><a xlink:title=" ">
<path fill="none" stroke="#63b8ff" d="M346.06,-110.33C341.29,-103.28 334.44,-93.15 328.48,-84.33"/>
<polygon fill="#63b8ff" stroke="#63b8ff" points="331.42,-82.44 322.92,-76.11 325.62,-86.36 331.42,-82.44"/>
</a>
</g>
</g>
<!-- Node10 -->
<g id="Node000010" class="node">
<title>Node10</title>
<g id="a_Node000010"><a xlink:title=" ">
<polygon fill="#e0e0e0" stroke="#999999" points="169.38,-74.5 134.62,-74.5 134.62,-55.25 169.38,-55.25 169.38,-74.5"/>
<text text-anchor="middle" x="152" y="-61" font-family="Helvetica,sans-Serif" font-size="10.00">map</text>
</a>
</g>
</g>
<!-- Node8&#45;&gt;Node10 -->
<g id="edge12_Node000008_Node000010" class="edge">
<title>Node8&#45;&gt;Node10</title>
<g id="a_edge12_Node000008_Node000010"><a xlink:title=" ">
<path fill="none" stroke="#63b8ff" d="M318.07,-110.09C279.36,-99.78 216.72,-83.11 180.45,-73.45"/>
<polygon fill="#63b8ff" stroke="#63b8ff" points="181.69,-70.16 171.13,-70.97 179.89,-76.92 181.69,-70.16"/>
</a>
</g>
</g>
<!-- Node11&#45;&gt;Node2 -->
<g id="edge14_Node000011_Node000002" class="edge">
<title>Node11&#45;&gt;Node2</title>
<g id="a_edge14_Node000011_Node000002"><a xlink:title=" ">
<path fill="none" stroke="#63b8ff" d="M248.35,-230.26C315.25,-230.39 464.13,-225.61 581,-185 641.01,-164.15 646.82,-140.17 703,-110.5 724.7,-99.04 749.93,-87.7 769.49,-79.31"/>
<polygon fill="#63b8ff" stroke="#63b8ff" points="770.76,-82.58 778.6,-75.45 768.03,-76.13 770.76,-82.58"/>
</a>
</g>
</g>
<!-- Node11&#45;&gt;Node10 -->
<g id="edge29_Node000011_Node000010" class="edge">
<title>Node11&#45;&gt;Node10</title>
<g id="a_edge29_Node000011_Node000010"><a xlink:title=" ">
<path fill="none" stroke="#63b8ff" d="M182.31,-220.59C165.13,-213.78 145.18,-202.54 135,-185 116.81,-153.64 131.09,-110.06 142.18,-85.24"/>
<polygon fill="#63b8ff" stroke="#63b8ff" points="145.28,-86.88 146.42,-76.34 138.96,-83.87 145.28,-86.88"/>
</a>
</g>
</g>
<!-- Node12 -->
<g id="Node000012" class="node">
<title>Node12</title>
<g id="a_Node000012"><a xlink:href="ssvalue_8h.html" target="_top" xlink:title=" ">
<polygon fill="white" stroke="#666666" points="248,-185 190,-185 190,-165.75 248,-165.75 248,-185"/>
<text text-anchor="middle" x="219" y="-171.5" font-family="Helvetica,sans-Serif" font-size="10.00">ssvalue.h</text>
</a>
</g>
</g>
<!-- Node11&#45;&gt;Node12 -->
<g id="edge15_Node000011_Node000012" class="edge">
<title>Node11&#45;&gt;Node12</title>
<g id="a_edge15_Node000011_Node000012"><a xlink:title=" ">
<path fill="none" stroke="#63b8ff" d="M213.99,-220.83C214.73,-214.24 215.78,-204.96 216.72,-196.57"/>
<polygon fill="#63b8ff" stroke="#63b8ff" points="220.18,-197.19 217.82,-186.86 213.22,-196.41 220.18,-197.19"/>
</a>
</g>
</g>
<!-- Node11&#45;&gt;Node19 -->
<g id="edge27_Node000011_Node000019" class="edge">
<title>Node11&#45;&gt;Node19</title>
<g id="a_edge27_Node000011_Node000019"><a xlink:title=" ">
<path fill="none" stroke="#63b8ff" d="M184.33,-220.59C156.65,-211.87 114.51,-198.59 83.63,-188.86"/>
<polygon fill="#63b8ff" stroke="#63b8ff" points="84.84,-185.57 74.25,-185.91 82.74,-192.25 84.84,-185.57"/>
</a>
</g>
</g>
<!-- Node20 -->
<g id="Node000020" class="node">
<title>Node20</title>
<g id="a_Node000020"><a xlink:title=" ">
<polygon fill="#e0e0e0" stroke="#999999" points="172.4,-185 143.6,-185 143.6,-165.75 172.4,-165.75 172.4,-185"/>
<text text-anchor="middle" x="158" y="-171.5" font-family="Helvetica,sans-Serif" font-size="10.00">list</text>
</a>
</g>
</g>
<!-- Node11&#45;&gt;Node20 -->
<g id="edge28_Node000011_Node000020" class="edge">
<title>Node11&#45;&gt;Node20</title>
<g id="a_edge28_Node000011_Node000020"><a xlink:title=" ">
<path fill="none" stroke="#63b8ff" d="M203.92,-220.83C196.16,-213.32 184.79,-202.31 175.3,-193.13"/>
<polygon fill="#63b8ff" stroke="#63b8ff" points="177.99,-190.85 168.37,-186.41 173.12,-195.88 177.99,-190.85"/>
</a>
</g>
</g>
<!-- Node12&#45;&gt;Node5 -->
<g id="edge25_Node000012_Node000005" class="edge">
<title>Node12&#45;&gt;Node5</title>
<g id="a_edge25_Node000012_Node000005"><a xlink:title=" ">
<path fill="none" stroke="#63b8ff" d="M218.23,-165.49C217.48,-156.49 216.42,-142.17 216,-129.75 215.71,-121.2 213.84,-118.78 216,-110.5 223.12,-83.26 227.72,-75.77 247,-55.25 258.44,-43.07 273.86,-32.69 287.22,-25.02"/>
<polygon fill="#63b8ff" stroke="#63b8ff" points="288.52,-28.3 295.61,-20.42 285.15,-22.16 288.52,-28.3"/>
</a>
</g>
</g>
<!-- Node12&#45;&gt;Node8 -->
<g id="edge16_Node000012_Node000008" class="edge">
<title>Node12&#45;&gt;Node8</title>
<g id="a_edge16_Node000012_Node000008"><a xlink:title=" ">
<path fill="none" stroke="#63b8ff" d="M241.56,-165.34C262.77,-156.85 294.77,-144.04 318.88,-134.39"/>
<polygon fill="#63b8ff" stroke="#63b8ff" points="319.94,-137.73 327.92,-130.77 317.34,-131.23 319.94,-137.73"/>
</a>
</g>
</g>
<!-- Node12&#45;&gt;Node10 -->
<g id="edge24_Node000012_Node000010" class="edge">
<title>Node12&#45;&gt;Node10</title>
<g id="a_edge24_Node000012_Node000010"><a xlink:title=" ">
<path fill="none" stroke="#63b8ff" d="M210.62,-165.27C202.87,-156.57 191.32,-142.86 183,-129.75 174,-115.57 165.8,-98.38 160.09,-85.41"/>
<polygon fill="#63b8ff" stroke="#63b8ff" points="163.34,-84.11 156.2,-76.28 156.9,-86.85 163.34,-84.11"/>
</a>
</g>
</g>
<!-- Node13 -->
<g id="Node000013" class="node">
<title>Node13</title>
<g id="a_Node000013"><a xlink:href="ssstring__uty_8h.html" target="_top" xlink:title=" ">
<polygon fill="white" stroke="#666666" points="528,-129.75 452,-129.75 452,-110.5 528,-110.5 528,-129.75"/>
<text text-anchor="middle" x="490" y="-116.25" font-family="Helvetica,sans-Serif" font-size="10.00">ssstring_uty.h</text>
</a>
</g>
</g>
<!-- Node12&#45;&gt;Node13 -->
<g id="edge17_Node000012_Node000013" class="edge">
<title>Node12&#45;&gt;Node13</title>
<g id="a_edge17_Node000012_Node000013"><a xlink:title=" ">
<path fill="none" stroke="#63b8ff" d="M248.26,-168.63C294.35,-159.57 384.41,-141.87 440.64,-130.82"/>
<polygon fill="#63b8ff" stroke="#63b8ff" points="441.14,-134.29 450.28,-128.93 439.79,-127.42 441.14,-134.29"/>
</a>
</g>
</g>
<!-- Node18 -->
<g id="Node000018" class="node">
<title>Node18</title>
<g id="a_Node000018"><a xlink:title=" ">
<polygon fill="#e0e0e0" stroke="#999999" points="273.12,-129.75 224.88,-129.75 224.88,-110.5 273.12,-110.5 273.12,-129.75"/>
<text text-anchor="middle" x="249" y="-116.25" font-family="Helvetica,sans-Serif" font-size="10.00">cassert</text>
</a>
</g>
</g>
<!-- Node12&#45;&gt;Node18 -->
<g id="edge26_Node000012_Node000018" class="edge">
<title>Node12&#45;&gt;Node18</title>
<g id="a_edge26_Node000012_Node000018"><a xlink:title=" ">
<path fill="none" stroke="#63b8ff" d="M223.95,-165.58C227.88,-158.61 233.51,-148.62 238.44,-139.87"/>
<polygon fill="#63b8ff" stroke="#63b8ff" points="241.34,-141.86 243.2,-131.43 235.24,-138.42 241.34,-141.86"/>
</a>
</g>
</g>
<!-- Node13&#45;&gt;Node4 -->
<g id="edge18_Node000013_Node000004" class="edge">
<title>Node13&#45;&gt;Node4</title>
<g id="a_edge18_Node000013_Node000004"><a xlink:title=" ">
<path fill="none" stroke="#63b8ff" d="M528.48,-113.15C593.74,-102.85 719.71,-82.1 726,-74.5 736.66,-61.63 729.47,-42.84 721.22,-28.97"/>
<polygon fill="#63b8ff" stroke="#63b8ff" points="724.25,-27.2 715.83,-20.77 718.4,-31.05 724.25,-27.2"/>
</a>
</g>
</g>
<!-- Node13&#45;&gt;Node5 -->
<g id="edge20_Node000013_Node000005" class="edge">
<title>Node13&#45;&gt;Node5</title>
<g id="a_edge20_Node000013_Node000005"><a xlink:title=" ">
<path fill="none" stroke="#63b8ff" d="M475.46,-110.06C445.45,-91.35 376.38,-48.28 339.78,-25.45"/>
<polygon fill="#63b8ff" stroke="#63b8ff" points="341.99,-22.71 331.66,-20.39 338.29,-28.65 341.99,-22.71"/>
</a>
</g>
</g>
<!-- Node14 -->
<g id="Node000014" class="node">
<title>Node14</title>
<g id="a_Node000014"><a xlink:title=" ">
<polygon fill="#e0e0e0" stroke="#999999" points="512.5,-74.5 463.5,-74.5 463.5,-55.25 512.5,-55.25 512.5,-74.5"/>
<text text-anchor="middle" x="488" y="-61" font-family="Helvetica,sans-Serif" font-size="10.00">fstream</text>
</a>
</g>
</g>
<!-- Node13&#45;&gt;Node14 -->
<g id="edge19_Node000013_Node000014" class="edge">
<title>Node13&#45;&gt;Node14</title>
<g id="a_edge19_Node000013_Node000014"><a xlink:title=" ">
<path fill="none" stroke="#63b8ff" d="M489.67,-110.33C489.42,-103.74 489.07,-94.46 488.76,-86.07"/>
<polygon fill="#63b8ff" stroke="#63b8ff" points="492.27,-86.23 488.39,-76.37 485.27,-86.5 492.27,-86.23"/>
</a>
</g>
</g>
<!-- Node15 -->
<g id="Node000015" class="node">
<title>Node15</title>
<g id="a_Node000015"><a xlink:title=" ">
<polygon fill="#e0e0e0" stroke="#999999" points="583.75,-74.5 530.25,-74.5 530.25,-55.25 583.75,-55.25 583.75,-74.5"/>
<text text-anchor="middle" x="557" y="-61" font-family="Helvetica,sans-Serif" font-size="10.00">iostream</text>
</a>
</g>
</g>
<!-- Node13&#45;&gt;Node15 -->
<g id="edge21_Node000013_Node000015" class="edge">
<title>Node13&#45;&gt;Node15</title>
<g id="a_edge21_Node000013_Node000015"><a xlink:title=" ">
<path fill="none" stroke="#63b8ff" d="M501.37,-110.09C511.05,-102.4 525.2,-91.15 536.81,-81.93"/>
<polygon fill="#63b8ff" stroke="#63b8ff" points="538.97,-84.68 544.62,-75.72 534.61,-79.2 538.97,-84.68"/>
</a>
</g>
</g>
<!-- Node16 -->
<g id="Node000016" class="node">
<title>Node16</title>
<g id="a_Node000016"><a xlink:title=" ">
<polygon fill="#e0e0e0" stroke="#999999" points="652.62,-74.5 601.38,-74.5 601.38,-55.25 652.62,-55.25 652.62,-74.5"/>
<text text-anchor="middle" x="627" y="-61" font-family="Helvetica,sans-Serif" font-size="10.00">sstream</text>
</a>
</g>
</g>
<!-- Node13&#45;&gt;Node16 -->
<g id="edge22_Node000013_Node000016" class="edge">
<title>Node13&#45;&gt;Node16</title>
<g id="a_edge22_Node000013_Node000016"><a xlink:title=" ">
<path fill="none" stroke="#63b8ff" d="M513.24,-110.09C535.19,-101.56 568.35,-88.67 593.21,-79.01"/>
<polygon fill="#63b8ff" stroke="#63b8ff" points="594.18,-82.39 602.24,-75.5 591.65,-75.86 594.18,-82.39"/>
</a>
</g>
</g>
<!-- Node17 -->
<g id="Node000017" class="node">
<title>Node17</title>
<g id="a_Node000017"><a xlink:title=" ">
<polygon fill="#e0e0e0" stroke="#999999" points="717,-74.5 671,-74.5 671,-55.25 717,-55.25 717,-74.5"/>
<text text-anchor="middle" x="694" y="-61" font-family="Helvetica,sans-Serif" font-size="10.00">iterator</text>
</a>
</g>
</g>
<!-- Node13&#45;&gt;Node17 -->
<g id="edge23_Node000013_Node000017" class="edge">
<title>Node13&#45;&gt;Node17</title>
<g id="a_edge23_Node000013_Node000017"><a xlink:title=" ">
<path fill="none" stroke="#63b8ff" d="M525.27,-110.08C557.75,-101.72 607.56,-88.86 659.48,-75.15"/>
<polygon fill="#63b8ff" stroke="#63b8ff" points="660.35,-78.54 669.12,-72.6 658.56,-71.77 660.35,-78.54"/>
</a>
</g>
</g>
<!-- Node21&#45;&gt;Node2 -->
<g id="edge31_Node000021_Node000002" class="edge">
<title>Node21&#45;&gt;Node2</title>
<g id="a_edge31_Node000021_Node000002"><a xlink:title=" ">
<path fill="none" stroke="#63b8ff" d="M690.68,-331.06C758.15,-314.76 890.51,-278.6 917,-240.25 957.06,-182.26 870,-111.81 825.76,-81.25"/>
<polygon fill="#63b8ff" stroke="#63b8ff" points="827.78,-78.39 817.53,-75.7 823.87,-84.2 827.78,-78.39"/>
</a>
</g>
</g>
<!-- Node21&#45;&gt;Node8 -->
<g id="edge32_Node000021_Node000008" class="edge">
<title>Node21&#45;&gt;Node8</title>
<g id="a_edge32_Node000021_Node000008"><a xlink:title=" ">
<path fill="none" stroke="#63b8ff" d="M608.68,-334.91C575.8,-329.28 530.19,-317.92 496,-295.5 432.33,-253.75 382.48,-175.18 362.06,-139.54"/>
<polygon fill="#63b8ff" stroke="#63b8ff" points="365.36,-138.28 357.42,-131.27 359.26,-141.7 365.36,-138.28"/>
</a>
</g>
</g>
<!-- Node21&#45;&gt;Node13 -->
<g id="edge33_Node000021_Node000013" class="edge">
<title>Node21&#45;&gt;Node13</title>
<g id="a_edge33_Node000021_Node000013"><a xlink:title=" ">
<path fill="none" stroke="#63b8ff" d="M608.65,-332.22C582.31,-325.71 548.84,-314.38 524,-295.5 476.35,-259.27 464.94,-242.11 447,-185 444.44,-176.84 443.8,-173.68 447,-165.75 451.43,-154.76 460.01,-144.96 468.35,-137.37"/>
<polygon fill="#63b8ff" stroke="#63b8ff" points="470.52,-140.12 475.93,-131.02 466.02,-134.76 470.52,-140.12"/>
</a>
</g>
</g>
<!-- Node21&#45;&gt;Node22 -->
<g id="edge34_Node000021_Node000022" class="edge">
<title>Node21&#45;&gt;Node22</title>
<g id="a_edge34_Node000021_Node000022"><a xlink:title=" ">
<path fill="none" stroke="#63b8ff" d="M608.68,-332.83C553.79,-323.37 457.91,-306.85 397.31,-296.41"/>
<polygon fill="#63b8ff" stroke="#63b8ff" points="397.99,-292.97 387.54,-294.72 396.8,-299.87 397.99,-292.97"/>
</a>
</g>
</g>
<!-- Node21&#45;&gt;Node23 -->
<g id="edge38_Node000021_Node000023" class="edge">
<title>Node21&#45;&gt;Node23</title>
<g id="a_edge38_Node000021_Node000023"><a xlink:title=" ">
<path fill="none" stroke="#63b8ff" d="M693.31,-337.9C745.39,-334.01 835.81,-323.52 908,-295.5 938.09,-283.82 968.81,-262.51 988.11,-247.73"/>
<polygon fill="#63b8ff" stroke="#63b8ff" points="990.2,-250.54 995.91,-241.62 985.88,-245.03 990.2,-250.54"/>
</a>
</g>
</g>
<!-- Node21&#45;&gt;Node24 -->
<g id="edge41_Node000021_Node000024" class="edge">
<title>Node21&#45;&gt;Node24</title>
<g id="a_edge41_Node000021_Node000024"><a xlink:title=" ">
<path fill="none" stroke="#63b8ff" d="M638.45,-331.09C627.54,-323.24 611.5,-311.7 598.54,-302.37"/>
<polygon fill="#63b8ff" stroke="#63b8ff" points="600.76,-299.66 590.6,-296.66 596.67,-305.34 600.76,-299.66"/>
</a>
</g>
</g>
<!-- Node27 -->
<g id="Node000027" class="node">
<title>Node27</title>
<g id="a_Node000027"><a xlink:title=" ">
<polygon fill="#e0e0e0" stroke="#999999" points="717.62,-185 666.38,-185 666.38,-165.75 717.62,-165.75 717.62,-185"/>
<text text-anchor="middle" x="692" y="-171.5" font-family="Helvetica,sans-Serif" font-size="10.00">memory</text>
</a>
</g>
</g>
<!-- Node21&#45;&gt;Node27 -->
<g id="edge55_Node000021_Node000027" class="edge">
<title>Node21&#45;&gt;Node27</title>
<g id="a_edge55_Node000021_Node000027"><a xlink:title=" ">
<path fill="none" stroke="#63b8ff" d="M653.2,-331.32C659.57,-305.89 678.11,-231.85 687.06,-196.12"/>
<polygon fill="#63b8ff" stroke="#63b8ff" points="690.38,-197.24 689.42,-186.69 683.59,-195.54 690.38,-197.24"/>
</a>
</g>
</g>
<!-- Node21&#45;&gt;Node28 -->
<g id="edge52_Node000021_Node000028" class="edge">
<title>Node21&#45;&gt;Node28</title>
<g id="a_edge52_Node000021_Node000028"><a xlink:title=" ">
<path fill="none" stroke="#63b8ff" d="M668.79,-331.06C705.83,-312.19 791.47,-268.57 835.98,-245.9"/>
<polygon fill="#63b8ff" stroke="#63b8ff" points="837.44,-249.08 844.76,-241.43 834.26,-242.85 837.44,-249.08"/>
</a>
</g>
</g>
<!-- Node29 -->
<g id="Node000029" class="node">
<title>Node29</title>
<g id="a_Node000029"><a xlink:title=" ">
<polygon fill="#e0e0e0" stroke="#999999" points="720.62,-295.5 681.38,-295.5 681.38,-276.25 720.62,-276.25 720.62,-295.5"/>
<text text-anchor="middle" x="701" y="-282" font-family="Helvetica,sans-Serif" font-size="10.00">utility</text>
</a>
</g>
</g>
<!-- Node21&#45;&gt;Node29 -->
<g id="edge56_Node000021_Node000029" class="edge">
<title>Node21&#45;&gt;Node29</title>
<g id="a_edge56_Node000021_Node000029"><a xlink:title=" ">
<path fill="none" stroke="#63b8ff" d="M659.26,-331.33C666.16,-323.98 676.22,-313.26 684.74,-304.19"/>
<polygon fill="#63b8ff" stroke="#63b8ff" points="687.23,-306.65 691.53,-296.96 682.13,-301.86 687.23,-306.65"/>
</a>
</g>
</g>
<!-- Node22&#45;&gt;Node2 -->
<g id="edge35_Node000022_Node000002" class="edge">
<title>Node22&#45;&gt;Node2</title>
<g id="a_edge35_Node000022_Node000002"><a xlink:title=" ">
<path fill="none" stroke="#63b8ff" d="M386.07,-283.37C444.38,-280.22 549.63,-270.46 634,-240.25 679.26,-224.04 692.57,-218.55 727,-185 757.66,-155.12 781.48,-110.36 793.46,-85.07"/>
<polygon fill="#63b8ff" stroke="#63b8ff" points="796.49,-86.86 797.48,-76.32 790.13,-83.94 796.49,-86.86"/>
</a>
</g>
</g>
<!-- Node22&#45;&gt;Node8 -->
<g id="edge36_Node000022_Node000008" class="edge">
<title>Node22&#45;&gt;Node8</title>
<g id="a_edge36_Node000022_Node000008"><a xlink:title=" ">
<path fill="none" stroke="#63b8ff" d="M340.57,-275.84C337.64,-255.86 331.76,-206.45 338,-165.75 339.27,-157.43 341.81,-148.53 344.38,-140.88"/>
<polygon fill="#63b8ff" stroke="#63b8ff" points="347.64,-142.18 347.75,-131.58 341.05,-139.79 347.64,-142.18"/>
</a>
</g>
</g>
<!-- Node22&#45;&gt;Node11 -->
<g id="edge37_Node000022_Node000011" class="edge">
<title>Node22&#45;&gt;Node11</title>
<g id="a_edge37_Node000022_Node000011"><a xlink:title=" ">
<path fill="none" stroke="#63b8ff" d="M320.12,-275.84C299.64,-267.39 268.79,-254.65 245.44,-245.02"/>
<polygon fill="#63b8ff" stroke="#63b8ff" points="246.97,-241.86 236.39,-241.28 244.3,-248.33 246.97,-241.86"/>
</a>
</g>
</g>
<!-- Node23&#45;&gt;Node2 -->
<g id="edge39_Node000023_Node000002" class="edge">
<title>Node23&#45;&gt;Node2</title>
<g id="a_edge39_Node000023_Node000002"><a xlink:title=" ">
<path fill="none" stroke="#63b8ff" d="M1006.22,-220.64C1001.35,-198.5 985.73,-140.92 950,-110.5 919.88,-84.86 875.38,-73.95 843.04,-69.31"/>
<polygon fill="#63b8ff" stroke="#63b8ff" points="843.59,-65.85 833.23,-68.06 842.71,-72.8 843.59,-65.85"/>
</a>
</g>
</g>
<!-- Node23&#45;&gt;Node8 -->
<g id="edge40_Node000023_Node000008" class="edge">
<title>Node23&#45;&gt;Node8</title>
<g id="a_edge40_Node000023_Node000008"><a xlink:title=" ">
<path fill="none" stroke="#63b8ff" d="M979.26,-220.53C934.26,-206.63 844.19,-180.2 766,-165.75 730.48,-159.19 498.14,-135.68 397.91,-125.68"/>
<polygon fill="#63b8ff" stroke="#63b8ff" points="398.45,-122.21 388.15,-124.71 397.75,-129.18 398.45,-122.21"/>
</a>
</g>
</g>
<!-- Node24&#45;&gt;Node2 -->
<g id="edge42_Node000024_Node000002" class="edge">
<title>Node24&#45;&gt;Node2</title>
<g id="a_edge42_Node000024_Node000002"><a xlink:title=" ">
<path fill="none" stroke="#63b8ff" d="M620.69,-278.9C669.66,-271.47 745.19,-257.65 768,-240.25 815.38,-204.13 810.62,-123.24 805.42,-85.71"/>
<polygon fill="#63b8ff" stroke="#63b8ff" points="808.95,-85.6 803.95,-76.26 802.03,-86.68 808.95,-85.6"/>
</a>
</g>
</g>
<!-- Node24&#45;&gt;Node8 -->
<g id="edge43_Node000024_Node000008" class="edge">
<title>Node24&#45;&gt;Node8</title>
<g id="a_edge43_Node000024_Node000008"><a xlink:title=" ">
<path fill="none" stroke="#63b8ff" d="M564.58,-275.84C527.93,-249.17 419.9,-170.54 373.54,-136.8"/>
<polygon fill="#63b8ff" stroke="#63b8ff" points="375.75,-134.08 365.6,-131.02 371.63,-139.74 375.75,-134.08"/>
</a>
</g>
</g>
<!-- Node25 -->
<g id="Node000025" class="node">
<title>Node25</title>
<g id="a_Node000025"><a xlink:href="_ss_effect_behavior_8h.html" target="_top" xlink:title=" ">
<polygon fill="white" stroke="#666666" points="625,-240.25 525,-240.25 525,-221 625,-221 625,-240.25"/>
<text text-anchor="middle" x="575" y="-226.75" font-family="Helvetica,sans-Serif" font-size="10.00">SsEffectBehavior.h</text>
</a>
</g>
</g>
<!-- Node24&#45;&gt;Node25 -->
<g id="edge44_Node000024_Node000025" class="edge">
<title>Node24&#45;&gt;Node25</title>
<g id="a_edge44_Node000024_Node000025"><a xlink:title=" ">
<path fill="none" stroke="#63b8ff" d="M576.67,-276.08C576.42,-269.49 576.07,-260.21 575.76,-251.82"/>
<polygon fill="#63b8ff" stroke="#63b8ff" points="579.27,-251.98 575.39,-242.12 572.27,-252.25 579.27,-251.98"/>
</a>
</g>
</g>
<!-- Node25&#45;&gt;Node2 -->
<g id="edge49_Node000025_Node000002" class="edge">
<title>Node25&#45;&gt;Node2</title>
<g id="a_edge49_Node000025_Node000002"><a xlink:title=" ">
<path fill="none" stroke="#63b8ff" d="M586.25,-220.53C601.9,-207.94 631.24,-184.63 657,-165.75 699.34,-134.72 750.14,-100.37 778.98,-81.12"/>
<polygon fill="#63b8ff" stroke="#63b8ff" points="780.57,-84.27 786.96,-75.81 776.7,-78.44 780.57,-84.27"/>
</a>
</g>
</g>
<!-- Node25&#45;&gt;Node12 -->
<g id="edge50_Node000025_Node000012" class="edge">
<title>Node25&#45;&gt;Node12</title>
<g id="a_edge50_Node000025_Node000012"><a xlink:title=" ">
<path fill="none" stroke="#63b8ff" d="M524.75,-222.11C453.51,-211.45 324.57,-192.17 259.25,-182.4"/>
<polygon fill="#63b8ff" stroke="#63b8ff" points="260.11,-178.98 249.7,-180.97 259.07,-185.91 260.11,-178.98"/>
</a>
</g>
</g>
<!-- Node26 -->
<g id="Node000026" class="node">
<title>Node26</title>
<g id="a_Node000026"><a xlink:href="_ss_effect_element_8h.html" target="_top" xlink:title=" ">
<polygon fill="white" stroke="#666666" points="554.25,-185 455.75,-185 455.75,-165.75 554.25,-165.75 554.25,-185"/>
<text text-anchor="middle" x="505" y="-171.5" font-family="Helvetica,sans-Serif" font-size="10.00">SsEffectElement.h</text>
</a>
</g>
</g>
<!-- Node25&#45;&gt;Node26 -->
<g id="edge45_Node000025_Node000026" class="edge">
<title>Node25&#45;&gt;Node26</title>
<g id="a_edge45_Node000025_Node000026"><a xlink:title=" ">
<path fill="none" stroke="#63b8ff" d="M563.13,-220.59C552.91,-212.82 537.93,-201.42 525.74,-192.15"/>
<polygon fill="#63b8ff" stroke="#63b8ff" points="527.98,-189.46 517.9,-186.19 523.74,-195.03 527.98,-189.46"/>
</a>
</g>
</g>
<!-- Node25&#45;&gt;Node27 -->
<g id="edge51_Node000025_Node000027" class="edge">
<title>Node25&#45;&gt;Node27</title>
<g id="a_edge51_Node000025_Node000027"><a xlink:title=" ">
<path fill="none" stroke="#63b8ff" d="M594.85,-220.59C613.17,-212.25 640.65,-199.75 661.71,-190.16"/>
<polygon fill="#63b8ff" stroke="#63b8ff" points="663.03,-193.41 670.68,-186.08 660.13,-187.04 663.03,-193.41"/>
</a>
</g>
</g>
<!-- Node26&#45;&gt;Node2 -->
<g id="edge46_Node000026_Node000002" class="edge">
<title>Node26&#45;&gt;Node2</title>
<g id="a_edge46_Node000026_Node000002"><a xlink:title=" ">
<path fill="none" stroke="#63b8ff" d="M513.53,-165.36C527.35,-151.32 556.13,-124.41 586,-110.5 616.64,-96.23 707.75,-80.42 761.35,-71.98"/>
<polygon fill="#63b8ff" stroke="#63b8ff" points="761.67,-75.47 771.01,-70.48 760.59,-68.56 761.67,-75.47"/>
</a>
</g>
</g>
<!-- Node26&#45;&gt;Node8 -->
<g id="edge47_Node000026_Node000008" class="edge">
<title>Node26&#45;&gt;Node8</title>
<g id="a_edge47_Node000026_Node000008"><a xlink:title=" ">
<path fill="none" stroke="#63b8ff" d="M479.05,-165.34C454.21,-156.7 416.5,-143.57 388.62,-133.87"/>
<polygon fill="#63b8ff" stroke="#63b8ff" points="390.11,-130.68 379.51,-130.7 387.81,-137.29 390.11,-130.68"/>
</a>
</g>
</g>
<!-- Node26&#45;&gt;Node26 -->
<g id="edge48_Node000026_Node000026" class="edge">
<title>Node26&#45;&gt;Node26</title>
<g id="a_edge48_Node000026_Node000026"><a xlink:title=" ">
<path fill="none" stroke="#63b8ff" d="M540.29,-185.48C557.27,-186.73 572.25,-183.36 572.25,-175.38 572.25,-169.26 563.47,-165.85 551.73,-165.15"/>
<polygon fill="#63b8ff" stroke="#63b8ff" points="551.77,-161.65 541.8,-165.25 551.84,-168.65 551.77,-161.65"/>
</a>
</g>
</g>
<!-- Node28&#45;&gt;Node2 -->
<g id="edge53_Node000028_Node000002" class="edge">
<title>Node28&#45;&gt;Node2</title>
<g id="a_edge53_Node000028_Node000002"><a xlink:title=" ">
<path fill="none" stroke="#63b8ff" d="M863.17,-220.53C861.02,-200.02 854.14,-148.93 836,-110.5 831.39,-100.73 824.39,-91.05 817.94,-83.22"/>
<polygon fill="#63b8ff" stroke="#63b8ff" points="820.73,-81.09 811.53,-75.84 815.45,-85.68 820.73,-81.09"/>
</a>
</g>
</g>
<!-- Node28&#45;&gt;Node8 -->
<g id="edge54_Node000028_Node000008" class="edge">
<title>Node28&#45;&gt;Node8</title>
<g id="a_edge54_Node000028_Node000008"><a xlink:title=" ">
<path fill="none" stroke="#63b8ff" d="M849.01,-220.68C824.45,-206.48 773.69,-179.04 727,-165.75 695.97,-156.92 490.97,-135.29 397.86,-125.76"/>
<polygon fill="#63b8ff" stroke="#63b8ff" points="398.36,-122.29 388.06,-124.76 397.65,-129.26 398.36,-122.29"/>
</a>
</g>
</g>
</g>
</svg>
