<?xml version="1.0" encoding="UTF-8" standalone="no"?>
<!DOCTYPE svg PUBLIC "-//W3C//DTD SVG 1.1//EN"
 "http://www.w3.org/Graphics/SVG/1.1/DTD/svg11.dtd">
<!-- Generated by graphviz version 10.0.1 (20240210.2158)
 -->
<!-- Title: Common/Loader/ssloader_ssqe.h Pages: 1 -->
<svg width="423pt" height="204pt"
 viewBox="0.00 0.00 423.25 204.25" xmlns="http://www.w3.org/2000/svg" xmlns:xlink="http://www.w3.org/1999/xlink">
<g id="graph0" class="graph" transform="scale(1 1) rotate(0) translate(4 200.25)">
<title>Common/Loader/ssloader_ssqe.h</title>
<!-- Node1 -->
<g id="Node000001" class="node">
<title>Node1</title>
<g id="a_Node000001"><a xlink:title=" ">
<polygon fill="#999999" stroke="#666666" points="251.75,-196.25 124,-196.25 124,-165.75 251.75,-165.75 251.75,-196.25"/>
<text text-anchor="start" x="132" y="-182.75" font-family="Helvetica,sans-Serif" font-size="10.00">Common/Loader/ssloader</text>
<text text-anchor="middle" x="187.88" y="-171.5" font-family="Helvetica,sans-Serif" font-size="10.00">_ssqe.h</text>
</a>
</g>
</g>
<!-- Node2 -->
<g id="Node000002" class="node">
<title>Node2</title>
<g id="a_Node000002"><a xlink:href="sstypes_8h.html" target="_top" xlink:title=" ">
<polygon fill="white" stroke="#666666" points="162.25,-74.5 103.5,-74.5 103.5,-55.25 162.25,-55.25 162.25,-74.5"/>
<text text-anchor="middle" x="132.88" y="-61" font-family="Helvetica,sans-Serif" font-size="10.00">sstypes.h</text>
</a>
</g>
</g>
<!-- Node1&#45;&gt;Node2 -->
<g id="edge1_Node000001_Node000002" class="edge">
<title>Node1&#45;&gt;Node2</title>
<g id="a_edge1_Node000001_Node000002"><a xlink:title=" ">
<path fill="none" stroke="#63b8ff" d="M180.91,-165.55C171.07,-145.12 153.07,-107.79 142.12,-85.06"/>
<polygon fill="#63b8ff" stroke="#63b8ff" points="145.4,-83.8 137.9,-76.31 139.09,-86.84 145.4,-83.8"/>
</a>
</g>
</g>
<!-- Node8 -->
<g id="Node000008" class="node">
<title>Node8</title>
<g id="a_Node000008"><a xlink:href="ssarchiver_8h.html" target="_top" xlink:title=" ">
<polygon fill="white" stroke="#666666" points="254.12,-129.75 185.62,-129.75 185.62,-110.5 254.12,-110.5 254.12,-129.75"/>
<text text-anchor="middle" x="219.88" y="-116.25" font-family="Helvetica,sans-Serif" font-size="10.00">ssarchiver.h</text>
</a>
</g>
</g>
<!-- Node1&#45;&gt;Node8 -->
<g id="edge7_Node000001_Node000008" class="edge">
<title>Node1&#45;&gt;Node8</title>
<g id="a_edge7_Node000001_Node000008"><a xlink:title=" ">
<path fill="none" stroke="#63b8ff" d="M195.79,-165.45C199.91,-157.86 205,-148.49 209.44,-140.32"/>
<polygon fill="#63b8ff" stroke="#63b8ff" points="212.52,-141.99 214.22,-131.53 206.37,-138.65 212.52,-141.99"/>
</a>
</g>
</g>
<!-- Node3 -->
<g id="Node000003" class="node">
<title>Node3</title>
<g id="a_Node000003"><a xlink:title=" ">
<polygon fill="#e0e0e0" stroke="#999999" points="121.62,-19.25 74.12,-19.25 74.12,0 121.62,0 121.62,-19.25"/>
<text text-anchor="middle" x="97.88" y="-5.75" font-family="Helvetica,sans-Serif" font-size="10.00">stdlib.h</text>
</a>
</g>
</g>
<!-- Node2&#45;&gt;Node3 -->
<g id="edge2_Node000002_Node000003" class="edge">
<title>Node2&#45;&gt;Node3</title>
<g id="a_edge2_Node000002_Node000003"><a xlink:title=" ">
<path fill="none" stroke="#63b8ff" d="M127.1,-55.08C122.46,-48.03 115.8,-37.9 110.01,-29.08"/>
<polygon fill="#63b8ff" stroke="#63b8ff" points="113.03,-27.31 104.61,-20.87 107.18,-31.15 113.03,-27.31"/>
</a>
</g>
</g>
<!-- Node4 -->
<g id="Node000004" class="node">
<title>Node4</title>
<g id="a_Node000004"><a xlink:title=" ">
<polygon fill="#e0e0e0" stroke="#999999" points="240.88,-19.25 200.88,-19.25 200.88,0 240.88,0 240.88,-19.25"/>
<text text-anchor="middle" x="220.88" y="-5.75" font-family="Helvetica,sans-Serif" font-size="10.00">string</text>
</a>
</g>
</g>
<!-- Node2&#45;&gt;Node4 -->
<g id="edge3_Node000002_Node000004" class="edge">
<title>Node2&#45;&gt;Node4</title>
<g id="a_edge3_Node000002_Node000004"><a xlink:title=" ">
<path fill="none" stroke="#63b8ff" d="M147.8,-54.84C161.08,-46.81 180.74,-34.91 196.33,-25.48"/>
<polygon fill="#63b8ff" stroke="#63b8ff" points="197.84,-28.66 204.58,-20.49 194.21,-22.67 197.84,-28.66"/>
</a>
</g>
</g>
<!-- Node5 -->
<g id="Node000005" class="node">
<title>Node5</title>
<g id="a_Node000005"><a xlink:title=" ">
<polygon fill="#e0e0e0" stroke="#999999" points="302.38,-19.25 259.38,-19.25 259.38,0 302.38,0 302.38,-19.25"/>
<text text-anchor="middle" x="280.88" y="-5.75" font-family="Helvetica,sans-Serif" font-size="10.00">vector</text>
</a>
</g>
</g>
<!-- Node2&#45;&gt;Node5 -->
<g id="edge4_Node000002_Node000005" class="edge">
<title>Node2&#45;&gt;Node5</title>
<g id="a_edge4_Node000002_Node000005"><a xlink:title=" ">
<path fill="none" stroke="#63b8ff" d="M157.98,-54.84C182.92,-45.87 221.26,-32.08 248.47,-22.28"/>
<polygon fill="#63b8ff" stroke="#63b8ff" points="249.38,-25.68 257.6,-19 247.01,-19.09 249.38,-25.68"/>
</a>
</g>
</g>
<!-- Node6 -->
<g id="Node000006" class="node">
<title>Node6</title>
<g id="a_Node000006"><a xlink:title=" ">
<polygon fill="#e0e0e0" stroke="#999999" points="182.38,-19.25 139.38,-19.25 139.38,0 182.38,0 182.38,-19.25"/>
<text text-anchor="middle" x="160.88" y="-5.75" font-family="Helvetica,sans-Serif" font-size="10.00">cmath</text>
</a>
</g>
</g>
<!-- Node2&#45;&gt;Node6 -->
<g id="edge5_Node000002_Node000006" class="edge">
<title>Node2&#45;&gt;Node6</title>
<g id="a_edge5_Node000002_Node000006"><a xlink:title=" ">
<path fill="none" stroke="#63b8ff" d="M137.5,-55.08C141.12,-48.19 146.3,-38.34 150.87,-29.66"/>
<polygon fill="#63b8ff" stroke="#63b8ff" points="153.89,-31.43 155.45,-20.95 147.69,-28.17 153.89,-31.43"/>
</a>
</g>
</g>
<!-- Node7 -->
<g id="Node000007" class="node">
<title>Node7</title>
<g id="a_Node000007"><a xlink:title=" ">
<polygon fill="#e0e0e0" stroke="#999999" points="55.75,-19.25 0,-19.25 0,0 55.75,0 55.75,-19.25"/>
<text text-anchor="middle" x="27.88" y="-5.75" font-family="Helvetica,sans-Serif" font-size="10.00">algorithm</text>
</a>
</g>
</g>
<!-- Node2&#45;&gt;Node7 -->
<g id="edge6_Node000002_Node000007" class="edge">
<title>Node2&#45;&gt;Node7</title>
<g id="a_edge6_Node000002_Node000007"><a xlink:title=" ">
<path fill="none" stroke="#63b8ff" d="M115.06,-54.84C98.85,-46.62 74.64,-34.34 55.84,-24.81"/>
<polygon fill="#63b8ff" stroke="#63b8ff" points="57.63,-21.79 47.12,-20.39 54.46,-28.03 57.63,-21.79"/>
</a>
</g>
</g>
<!-- Node8&#45;&gt;Node2 -->
<g id="edge9_Node000008_Node000002" class="edge">
<title>Node8&#45;&gt;Node2</title>
<g id="a_edge9_Node000008_Node000002"><a xlink:title=" ">
<path fill="none" stroke="#63b8ff" d="M205.12,-110.09C191.99,-102.06 172.55,-90.16 157.14,-80.73"/>
<polygon fill="#63b8ff" stroke="#63b8ff" points="159.35,-77.98 149,-75.74 155.7,-83.95 159.35,-77.98"/>
</a>
</g>
</g>
<!-- Node8&#45;&gt;Node4 -->
<g id="edge10_Node000008_Node000004" class="edge">
<title>Node8&#45;&gt;Node4</title>
<g id="a_edge10_Node000008_Node000004"><a xlink:title=" ">
<path fill="none" stroke="#63b8ff" d="M220.91,-110.25C221.9,-101.26 223.32,-86.93 223.88,-74.5 224.52,-60.01 223.73,-43.68 222.8,-31.16"/>
<polygon fill="#63b8ff" stroke="#63b8ff" points="226.29,-30.9 221.95,-21.23 219.31,-31.49 226.29,-30.9"/>
</a>
</g>
</g>
<!-- Node8&#45;&gt;Node5 -->
<g id="edge11_Node000008_Node000005" class="edge">
<title>Node8&#45;&gt;Node5</title>
<g id="a_edge11_Node000008_Node000005"><a xlink:title=" ">
<path fill="none" stroke="#63b8ff" d="M224.87,-110.25C234.74,-92.68 256.96,-53.16 270.25,-29.52"/>
<polygon fill="#63b8ff" stroke="#63b8ff" points="273.22,-31.38 275.07,-20.95 267.12,-27.95 273.22,-31.38"/>
</a>
</g>
</g>
<!-- Node9 -->
<g id="Node000009" class="node">
<title>Node9</title>
<g id="a_Node000009"><a xlink:title=" ">
<polygon fill="#e0e0e0" stroke="#999999" points="415.25,-74.5 308.5,-74.5 308.5,-55.25 415.25,-55.25 415.25,-74.5"/>
<text text-anchor="middle" x="361.88" y="-61" font-family="Helvetica,sans-Serif" font-size="10.00">./tinyxml2/tinyxml2.h</text>
</a>
</g>
</g>
<!-- Node8&#45;&gt;Node9 -->
<g id="edge8_Node000008_Node000009" class="edge">
<title>Node8&#45;&gt;Node9</title>
<g id="a_edge8_Node000008_Node000009"><a xlink:title=" ">
<path fill="none" stroke="#63b8ff" d="M243.96,-110.09C266.81,-101.52 301.39,-88.56 327.2,-78.88"/>
<polygon fill="#63b8ff" stroke="#63b8ff" points="328.12,-82.27 336.25,-75.48 325.66,-75.72 328.12,-82.27"/>
</a>
</g>
</g>
<!-- Node10 -->
<g id="Node000010" class="node">
<title>Node10</title>
<g id="a_Node000010"><a xlink:title=" ">
<polygon fill="#e0e0e0" stroke="#999999" points="215.25,-74.5 180.5,-74.5 180.5,-55.25 215.25,-55.25 215.25,-74.5"/>
<text text-anchor="middle" x="197.88" y="-61" font-family="Helvetica,sans-Serif" font-size="10.00">map</text>
</a>
</g>
</g>
<!-- Node8&#45;&gt;Node10 -->
<g id="edge12_Node000008_Node000010" class="edge">
<title>Node8&#45;&gt;Node10</title>
<g id="a_edge12_Node000008_Node000010"><a xlink:title=" ">
<path fill="none" stroke="#63b8ff" d="M216.24,-110.33C213.46,-103.59 209.5,-94.02 205.98,-85.49"/>
<polygon fill="#63b8ff" stroke="#63b8ff" points="209.22,-84.16 202.16,-76.26 202.75,-86.84 209.22,-84.16"/>
</a>
</g>
</g>
</g>
</svg>
