<?xml version="1.0" encoding="UTF-8" standalone="no"?>
<!DOCTYPE svg PUBLIC "-//W3C//DTD SVG 1.1//EN"
 "http://www.w3.org/Graphics/SVG/1.1/DTD/svg11.dtd">
<!-- Generated by graphviz version 10.0.1 (20240210.2158)
 -->
<!-- Title: Common/Loader/ssloader.h Pages: 1 -->
<svg width="1755pt" height="282pt"
 viewBox="0.00 0.00 1754.50 282.00" xmlns="http://www.w3.org/2000/svg" xmlns:xlink="http://www.w3.org/1999/xlink">
<g id="graph0" class="graph" transform="scale(1 1) rotate(0) translate(4 278)">
<title>Common/Loader/ssloader.h</title>
<!-- Node1 -->
<g id="Node000001" class="node">
<title>Node1</title>
<g id="a_Node000001"><a xlink:title=" ">
<polygon fill="#999999" stroke="#666666" points="963.38,-274 828.12,-274 828.12,-254.75 963.38,-254.75 963.38,-274"/>
<text text-anchor="middle" x="895.75" y="-260.5" font-family="Helvetica,sans-Serif" font-size="10.00">Common/Loader/ssloader.h</text>
</a>
</g>
</g>
<!-- Node2 -->
<g id="Node000002" class="node">
<title>Node2</title>
<g id="a_Node000002"><a xlink:href="ssplayer___part_state_8cpp.html" target="_top" xlink:title=" ">
<polygon fill="white" stroke="#666666" points="137.5,-30.5 0,-30.5 0,0 137.5,0 137.5,-30.5"/>
<text text-anchor="start" x="8" y="-17" font-family="Helvetica,sans-Serif" font-size="10.00">Common/Animator/ssplayer</text>
<text text-anchor="middle" x="68.75" y="-5.75" font-family="Helvetica,sans-Serif" font-size="10.00">_PartState.cpp</text>
</a>
</g>
</g>
<!-- Node1&#45;&gt;Node2 -->
<g id="edge1_Node000001_Node000002" class="edge">
<title>Node1&#45;&gt;Node2</title>
<g id="a_edge1_Node000001_Node000002"><a xlink:title=" ">
<path fill="none" stroke="#63b8ff" d="M816.5,-261.72C688.94,-258.22 444.13,-247.84 362.75,-218.75 241.94,-175.56 124.28,-69.82 83.66,-30.92"/>
<polygon fill="#63b8ff" stroke="#63b8ff" points="816.12,-265.21 826.21,-261.98 816.31,-258.21 816.12,-265.21"/>
</a>
</g>
</g>
<!-- Node3 -->
<g id="Node000003" class="node">
<title>Node3</title>
<g id="a_Node000003"><a xlink:href="ssplayer__animedecode_8cpp.html" target="_top" xlink:title=" ">
<polygon fill="white" stroke="#666666" points="901.5,-30.5 764,-30.5 764,0 901.5,0 901.5,-30.5"/>
<text text-anchor="start" x="772" y="-17" font-family="Helvetica,sans-Serif" font-size="10.00">Common/Animator/ssplayer</text>
<text text-anchor="middle" x="832.75" y="-5.75" font-family="Helvetica,sans-Serif" font-size="10.00">_animedecode.cpp</text>
</a>
</g>
</g>
<!-- Node1&#45;&gt;Node3 -->
<g id="edge2_Node000001_Node000003" class="edge">
<title>Node1&#45;&gt;Node3</title>
<g id="a_edge2_Node000001_Node000003"><a xlink:title=" ">
<path fill="none" stroke="#63b8ff" d="M890.6,-243.16C878.23,-194.66 847.12,-72.63 836.43,-30.68"/>
<polygon fill="#63b8ff" stroke="#63b8ff" points="887.2,-243.99 893.06,-252.82 893.98,-242.27 887.2,-243.99"/>
</a>
</g>
</g>
<!-- Node4 -->
<g id="Node000004" class="node">
<title>Node4</title>
<g id="a_Node000004"><a xlink:href="ssplayer__animedecode_8h.html" target="_top" xlink:title=" ">
<polygon fill="white" stroke="#666666" points="759.5,-97 622,-97 622,-66.5 759.5,-66.5 759.5,-97"/>
<text text-anchor="start" x="630" y="-83.5" font-family="Helvetica,sans-Serif" font-size="10.00">Common/Animator/ssplayer</text>
<text text-anchor="middle" x="690.75" y="-72.25" font-family="Helvetica,sans-Serif" font-size="10.00">_animedecode.h</text>
</a>
</g>
</g>
<!-- Node1&#45;&gt;Node4 -->
<g id="edge3_Node000001_Node000004" class="edge">
<title>Node1&#45;&gt;Node4</title>
<g id="a_edge3_Node000001_Node000004"><a xlink:title=" ">
<path fill="none" stroke="#63b8ff" d="M881.38,-245.44C875.31,-237.48 868.35,-227.87 862.75,-218.75 840.44,-182.42 851.27,-161.71 819.75,-133 801.54,-116.41 777.23,-105.05 754.62,-97.39"/>
<polygon fill="#63b8ff" stroke="#63b8ff" points="878.6,-247.55 887.52,-253.27 884.11,-243.24 878.6,-247.55"/>
</a>
</g>
</g>
<!-- Node5 -->
<g id="Node000005" class="node">
<title>Node5</title>
<g id="a_Node000005"><a xlink:href="ssplayer__cellmap_8cpp.html" target="_top" xlink:title=" ">
<polygon fill="white" stroke="#666666" points="293.5,-30.5 156,-30.5 156,0 293.5,0 293.5,-30.5"/>
<text text-anchor="start" x="164" y="-17" font-family="Helvetica,sans-Serif" font-size="10.00">Common/Animator/ssplayer</text>
<text text-anchor="middle" x="224.75" y="-5.75" font-family="Helvetica,sans-Serif" font-size="10.00">_cellmap.cpp</text>
</a>
</g>
</g>
<!-- Node1&#45;&gt;Node5 -->
<g id="edge13_Node000001_Node000005" class="edge">
<title>Node1&#45;&gt;Node5</title>
<g id="a_edge13_Node000001_Node000005"><a xlink:title=" ">
<path fill="none" stroke="#63b8ff" d="M816.35,-262.09C695.96,-259.17 473.57,-249.63 400.75,-218.75 311.55,-180.93 251.11,-70.89 231.58,-30.95"/>
<polygon fill="#63b8ff" stroke="#63b8ff" points="816.08,-265.59 826.16,-262.32 816.24,-258.59 816.08,-265.59"/>
</a>
</g>
</g>
<!-- Node6 -->
<g id="Node000006" class="node">
<title>Node6</title>
<g id="a_Node000006"><a xlink:href="ssplayer__effect_8cpp.html" target="_top" xlink:title=" ">
<polygon fill="white" stroke="#666666" points="1213.5,-30.5 1076,-30.5 1076,0 1213.5,0 1213.5,-30.5"/>
<text text-anchor="start" x="1084" y="-17" font-family="Helvetica,sans-Serif" font-size="10.00">Common/Animator/ssplayer</text>
<text text-anchor="middle" x="1144.75" y="-5.75" font-family="Helvetica,sans-Serif" font-size="10.00">_effect.cpp</text>
</a>
</g>
</g>
<!-- Node1&#45;&gt;Node6 -->
<g id="edge14_Node000001_Node000006" class="edge">
<title>Node1&#45;&gt;Node6</title>
<g id="a_edge14_Node000001_Node000006"><a xlink:title=" ">
<path fill="none" stroke="#63b8ff" d="M904.77,-244.2C925.94,-199.88 979.28,-92.23 1009.75,-66.5 1029.34,-49.96 1054.88,-38.61 1078.47,-30.95"/>
<polygon fill="#63b8ff" stroke="#63b8ff" points="901.68,-242.55 900.56,-253.09 908,-245.55 901.68,-242.55"/>
</a>
</g>
</g>
<!-- Node7 -->
<g id="Node000007" class="node">
<title>Node7</title>
<g id="a_Node000007"><a xlink:href="ssplayer__effect2_8cpp.html" target="_top" xlink:title=" ">
<polygon fill="white" stroke="#666666" points="1057.5,-30.5 920,-30.5 920,0 1057.5,0 1057.5,-30.5"/>
<text text-anchor="start" x="928" y="-17" font-family="Helvetica,sans-Serif" font-size="10.00">Common/Animator/ssplayer</text>
<text text-anchor="middle" x="988.75" y="-5.75" font-family="Helvetica,sans-Serif" font-size="10.00">_effect2.cpp</text>
</a>
</g>
</g>
<!-- Node1&#45;&gt;Node7 -->
<g id="edge24_Node000001_Node000007" class="edge">
<title>Node1&#45;&gt;Node7</title>
<g id="a_edge24_Node000001_Node000007"><a xlink:title=" ">
<path fill="none" stroke="#63b8ff" d="M896.46,-243.34C898.54,-206.25 906.7,-125.31 938.75,-66.5 946.41,-52.45 959.18,-39.71 969.9,-30.58"/>
<polygon fill="#63b8ff" stroke="#63b8ff" points="892.98,-242.86 896.02,-253.01 899.97,-243.18 892.98,-242.86"/>
</a>
</g>
</g>
<!-- Node8 -->
<g id="Node000008" class="node">
<title>Node8</title>
<g id="a_Node000008"><a xlink:href="ssplayer__effectfunction_8cpp.html" target="_top" xlink:title=" ">
<polygon fill="white" stroke="#666666" points="1369.5,-30.5 1232,-30.5 1232,0 1369.5,0 1369.5,-30.5"/>
<text text-anchor="start" x="1240" y="-17" font-family="Helvetica,sans-Serif" font-size="10.00">Common/Animator/ssplayer</text>
<text text-anchor="middle" x="1300.75" y="-5.75" font-family="Helvetica,sans-Serif" font-size="10.00">_effectfunction.cpp</text>
</a>
</g>
</g>
<!-- Node1&#45;&gt;Node8 -->
<g id="edge25_Node000001_Node000008" class="edge">
<title>Node1&#45;&gt;Node8</title>
<g id="a_edge25_Node000001_Node000008"><a xlink:title=" ">
<path fill="none" stroke="#63b8ff" d="M960.15,-251.91C1021.91,-238.54 1115.57,-211.83 1183.75,-163.5 1235.96,-126.49 1276.81,-59.84 1293.09,-30.63"/>
<polygon fill="#63b8ff" stroke="#63b8ff" points="959.55,-248.46 950.49,-253.94 960.99,-255.31 959.55,-248.46"/>
</a>
</g>
</g>
<!-- Node9 -->
<g id="Node000009" class="node">
<title>Node9</title>
<g id="a_Node000009"><a xlink:href="ssplayer__mesh_8cpp.html" target="_top" xlink:title=" ">
<polygon fill="white" stroke="#666666" points="449.5,-30.5 312,-30.5 312,0 449.5,0 449.5,-30.5"/>
<text text-anchor="start" x="320" y="-17" font-family="Helvetica,sans-Serif" font-size="10.00">Common/Animator/ssplayer</text>
<text text-anchor="middle" x="380.75" y="-5.75" font-family="Helvetica,sans-Serif" font-size="10.00">_mesh.cpp</text>
</a>
</g>
</g>
<!-- Node1&#45;&gt;Node9 -->
<g id="edge26_Node000001_Node000009" class="edge">
<title>Node1&#45;&gt;Node9</title>
<g id="a_edge26_Node000001_Node000009"><a xlink:title=" ">
<path fill="none" stroke="#63b8ff" d="M816.5,-261.73C678.69,-256.91 404.48,-237.96 351.75,-163.5 322.54,-122.25 354.25,-58.96 371.33,-30.72"/>
<polygon fill="#63b8ff" stroke="#63b8ff" points="816.17,-265.22 826.28,-262.05 816.4,-258.22 816.17,-265.22"/>
</a>
</g>
</g>
<!-- Node12 -->
<g id="Node000012" class="node">
<title>Node12</title>
<g id="a_Node000012"><a xlink:href="ssplayer__effect_8h.html" target="_top" xlink:title=" ">
<polygon fill="white" stroke="#666666" points="1156.5,-163.5 1019,-163.5 1019,-133 1156.5,-133 1156.5,-163.5"/>
<text text-anchor="start" x="1027" y="-150" font-family="Helvetica,sans-Serif" font-size="10.00">Common/Animator/ssplayer</text>
<text text-anchor="middle" x="1087.75" y="-138.75" font-family="Helvetica,sans-Serif" font-size="10.00">_effect.h</text>
</a>
</g>
</g>
<!-- Node1&#45;&gt;Node12 -->
<g id="edge15_Node000001_Node000012" class="edge">
<title>Node1&#45;&gt;Node12</title>
<g id="a_edge15_Node000001_Node000012"><a xlink:title=" ">
<path fill="none" stroke="#63b8ff" d="M920.28,-248.79C957.06,-226.93 1026.09,-185.9 1063,-163.96"/>
<polygon fill="#63b8ff" stroke="#63b8ff" points="918.92,-245.53 912.12,-253.65 922.5,-251.55 918.92,-245.53"/>
</a>
</g>
</g>
<!-- Node14 -->
<g id="Node000014" class="node">
<title>Node14</title>
<g id="a_Node000014"><a xlink:href="ssplayer__types_8h.html" target="_top" xlink:title=" ">
<polygon fill="white" stroke="#666666" points="810.5,-163.5 673,-163.5 673,-133 810.5,-133 810.5,-163.5"/>
<text text-anchor="start" x="681" y="-150" font-family="Helvetica,sans-Serif" font-size="10.00">Common/Animator/ssplayer</text>
<text text-anchor="middle" x="741.75" y="-138.75" font-family="Helvetica,sans-Serif" font-size="10.00">_types.h</text>
</a>
</g>
</g>
<!-- Node1&#45;&gt;Node14 -->
<g id="edge27_Node000001_Node000014" class="edge">
<title>Node1&#45;&gt;Node14</title>
<g id="a_edge27_Node000001_Node000014"><a xlink:title=" ">
<path fill="none" stroke="#63b8ff" d="M870.33,-248.55C856.55,-240.23 839.38,-229.4 824.75,-218.75 800.44,-201.06 774.09,-178.33 757.75,-163.78"/>
<polygon fill="#63b8ff" stroke="#63b8ff" points="868.44,-251.5 878.82,-253.61 872.02,-245.48 868.44,-251.5"/>
</a>
</g>
</g>
<!-- Node15 -->
<g id="Node000015" class="node">
<title>Node15</title>
<g id="a_Node000015"><a xlink:href="ss_helper_8h.html" target="_top" xlink:title=" ">
<polygon fill="white" stroke="#666666" points="654.12,-218.75 517.38,-218.75 517.38,-199.5 654.12,-199.5 654.12,-218.75"/>
<text text-anchor="middle" x="585.75" y="-205.25" font-family="Helvetica,sans-Serif" font-size="10.00">Common/Helper/ssHelper.h</text>
</a>
</g>
</g>
<!-- Node1&#45;&gt;Node15 -->
<g id="edge29_Node000001_Node000015" class="edge">
<title>Node1&#45;&gt;Node15</title>
<g id="a_edge29_Node000001_Node000015"><a xlink:title=" ">
<path fill="none" stroke="#63b8ff" d="M831.76,-252.38C774.7,-242.58 692.16,-228.4 638.73,-219.23"/>
<polygon fill="#63b8ff" stroke="#63b8ff" points="830.87,-255.78 841.32,-254.03 832.06,-248.88 830.87,-255.78"/>
</a>
</g>
</g>
<!-- Node18 -->
<g id="Node000018" class="node">
<title>Node18</title>
<g id="a_Node000018"><a xlink:href="_ss_effect_element_8cpp.html" target="_top" xlink:title=" ">
<polygon fill="white" stroke="#666666" points="1380.75,-218.75 1196.75,-218.75 1196.75,-199.5 1380.75,-199.5 1380.75,-218.75"/>
<text text-anchor="middle" x="1288.75" y="-205.25" font-family="Helvetica,sans-Serif" font-size="10.00">Common/Loader/SsEffectElement.cpp</text>
</a>
</g>
</g>
<!-- Node1&#45;&gt;Node18 -->
<g id="edge34_Node000001_Node000018" class="edge">
<title>Node1&#45;&gt;Node18</title>
<g id="a_edge34_Node000001_Node000018"><a xlink:title=" ">
<path fill="none" stroke="#63b8ff" d="M974.18,-252.75C1046.59,-242.94 1153,-228.52 1221.59,-219.23"/>
<polygon fill="#63b8ff" stroke="#63b8ff" points="973.8,-249.27 964.36,-254.08 974.74,-256.2 973.8,-249.27"/>
</a>
</g>
</g>
<!-- Node19 -->
<g id="Node000019" class="node">
<title>Node19</title>
<g id="a_Node000019"><a xlink:href="ss_interpolation_8cpp.html" target="_top" xlink:title=" ">
<polygon fill="white" stroke="#666666" points="1572.5,-218.75 1399,-218.75 1399,-199.5 1572.5,-199.5 1572.5,-218.75"/>
<text text-anchor="middle" x="1485.75" y="-205.25" font-family="Helvetica,sans-Serif" font-size="10.00">Common/Loader/ssInterpolation.cpp</text>
</a>
</g>
</g>
<!-- Node1&#45;&gt;Node19 -->
<g id="edge35_Node000001_Node000019" class="edge">
<title>Node1&#45;&gt;Node19</title>
<g id="a_edge35_Node000001_Node000019"><a xlink:title=" ">
<path fill="none" stroke="#63b8ff" d="M975.09,-256.21C1085.4,-246.26 1284.4,-228.3 1398.69,-217.98"/>
<polygon fill="#63b8ff" stroke="#63b8ff" points="974.87,-252.72 965.23,-257.1 975.5,-259.69 974.87,-252.72"/>
</a>
</g>
</g>
<!-- Node20 -->
<g id="Node000020" class="node">
<title>Node20</title>
<g id="a_Node000020"><a xlink:href="ssattribute_8cpp.html" target="_top" xlink:title=" ">
<polygon fill="white" stroke="#666666" points="1746.5,-218.75 1591,-218.75 1591,-199.5 1746.5,-199.5 1746.5,-218.75"/>
<text text-anchor="middle" x="1668.75" y="-205.25" font-family="Helvetica,sans-Serif" font-size="10.00">Common/Loader/ssattribute.cpp</text>
</a>
</g>
</g>
<!-- Node1&#45;&gt;Node20 -->
<g id="edge36_Node000001_Node000020" class="edge">
<title>Node1&#45;&gt;Node20</title>
<g id="a_edge36_Node000001_Node000020"><a xlink:title=" ">
<path fill="none" stroke="#63b8ff" d="M974.67,-259.11C1102.35,-252.02 1362.08,-236.78 1581.75,-218.75 1584.62,-218.51 1587.55,-218.27 1590.51,-218.01"/>
<polygon fill="#63b8ff" stroke="#63b8ff" points="974.78,-255.6 964.99,-259.65 975.17,-262.59 974.78,-255.6"/>
</a>
</g>
</g>
<!-- Node4&#45;&gt;Node2 -->
<g id="edge4_Node000004_Node000002" class="edge">
<title>Node4&#45;&gt;Node2</title>
<g id="a_edge4_Node000004_Node000002"><a xlink:title=" ">
<path fill="none" stroke="#63b8ff" d="M610.55,-75.57C504.22,-68.2 310.85,-53.02 146.75,-30.5 143.75,-30.09 140.69,-29.64 137.6,-29.17"/>
<polygon fill="#63b8ff" stroke="#63b8ff" points="610.1,-79.05 620.32,-76.25 610.58,-72.07 610.1,-79.05"/>
</a>
</g>
</g>
<!-- Node4&#45;&gt;Node3 -->
<g id="edge5_Node000004_Node000003" class="edge">
<title>Node4&#45;&gt;Node3</title>
<g id="a_edge5_Node000004_Node000003"><a xlink:title=" ">
<path fill="none" stroke="#63b8ff" d="M733.21,-61.47C754.84,-51.64 780.71,-39.89 800.66,-30.83"/>
<polygon fill="#63b8ff" stroke="#63b8ff" points="732.01,-58.17 724.35,-65.49 734.9,-64.54 732.01,-58.17"/>
</a>
</g>
</g>
<!-- Node4&#45;&gt;Node5 -->
<g id="edge6_Node000004_Node000005" class="edge">
<title>Node4&#45;&gt;Node5</title>
<g id="a_edge6_Node000004_Node000005"><a xlink:title=" ">
<path fill="none" stroke="#63b8ff" d="M610.29,-71.56C531.7,-62.3 408.77,-47.04 302.75,-30.5 299.76,-30.03 296.7,-29.54 293.62,-29.03"/>
<polygon fill="#63b8ff" stroke="#63b8ff" points="609.72,-75.02 620.06,-72.71 610.53,-68.07 609.72,-75.02"/>
</a>
</g>
</g>
<!-- Node4&#45;&gt;Node6 -->
<g id="edge7_Node000004_Node000006" class="edge">
<title>Node4&#45;&gt;Node6</title>
<g id="a_edge7_Node000004_Node000006"><a xlink:title=" ">
<path fill="none" stroke="#63b8ff" d="M771.26,-71.12C847.5,-61.74 965.12,-46.56 1066.75,-30.5 1069.74,-30.03 1072.79,-29.53 1075.88,-29.02"/>
<polygon fill="#63b8ff" stroke="#63b8ff" points="770.85,-67.65 761.35,-72.34 771.7,-74.59 770.85,-67.65"/>
</a>
</g>
</g>
<!-- Node4&#45;&gt;Node7 -->
<g id="edge8_Node000004_Node000007" class="edge">
<title>Node4&#45;&gt;Node7</title>
<g id="a_edge8_Node000004_Node000007"><a xlink:title=" ">
<path fill="none" stroke="#63b8ff" d="M769.81,-63.64C816.83,-53.46 875.87,-40.68 920.79,-30.96"/>
<polygon fill="#63b8ff" stroke="#63b8ff" points="769.26,-60.18 760.22,-65.71 770.74,-67.02 769.26,-60.18"/>
</a>
</g>
</g>
<!-- Node4&#45;&gt;Node8 -->
<g id="edge9_Node000004_Node000008" class="edge">
<title>Node4&#45;&gt;Node8</title>
<g id="a_edge9_Node000004_Node000008"><a xlink:title=" ">
<path fill="none" stroke="#63b8ff" d="M771.22,-75.33C875.63,-67.79 1063.31,-52.55 1222.75,-30.5 1225.75,-30.09 1228.81,-29.64 1231.9,-29.16"/>
<polygon fill="#63b8ff" stroke="#63b8ff" points="771.07,-71.83 761.35,-76.03 771.57,-78.81 771.07,-71.83"/>
</a>
</g>
</g>
<!-- Node4&#45;&gt;Node9 -->
<g id="edge10_Node000004_Node000009" class="edge">
<title>Node4&#45;&gt;Node9</title>
<g id="a_edge10_Node000004_Node000009"><a xlink:title=" ">
<path fill="none" stroke="#63b8ff" d="M610.52,-64.06C560.78,-53.71 497.53,-40.55 449.99,-30.66"/>
<polygon fill="#63b8ff" stroke="#63b8ff" points="609.58,-67.44 620.08,-66.05 611.01,-60.58 609.58,-67.44"/>
</a>
</g>
</g>
<!-- Node10 -->
<g id="Node000010" class="node">
<title>Node10</title>
<g id="a_Node000010"><a xlink:href="ssplayer__render__dx9_8cpp.html" target="_top" xlink:title=" ">
<polygon fill="white" stroke="#666666" points="745.75,-30.5 615.75,-30.5 615.75,0 745.75,0 745.75,-30.5"/>
<text text-anchor="start" x="623.75" y="-17" font-family="Helvetica,sans-Serif" font-size="10.00">Common/Drawer/ssplayer</text>
<text text-anchor="middle" x="680.75" y="-5.75" font-family="Helvetica,sans-Serif" font-size="10.00">_render_dx9.cpp</text>
</a>
</g>
</g>
<!-- Node4&#45;&gt;Node10 -->
<g id="edge11_Node000004_Node000010" class="edge">
<title>Node4&#45;&gt;Node10</title>
<g id="a_edge11_Node000004_Node000010"><a xlink:title=" ">
<path fill="none" stroke="#63b8ff" d="M686.73,-54.81C685.46,-46.64 684.11,-37.91 683.01,-30.83"/>
<polygon fill="#63b8ff" stroke="#63b8ff" points="683.26,-55.27 688.25,-64.62 690.18,-54.2 683.26,-55.27"/>
</a>
</g>
</g>
<!-- Node11 -->
<g id="Node000011" class="node">
<title>Node11</title>
<g id="a_Node000011"><a xlink:href="ssplayer__render__gl_8cpp.html" target="_top" xlink:title=" ">
<polygon fill="white" stroke="#666666" points="597.75,-30.5 467.75,-30.5 467.75,0 597.75,0 597.75,-30.5"/>
<text text-anchor="start" x="475.75" y="-17" font-family="Helvetica,sans-Serif" font-size="10.00">Common/Drawer/ssplayer</text>
<text text-anchor="middle" x="532.75" y="-5.75" font-family="Helvetica,sans-Serif" font-size="10.00">_render_gl.cpp</text>
</a>
</g>
</g>
<!-- Node4&#45;&gt;Node11 -->
<g id="edge12_Node000004_Node000011" class="edge">
<title>Node4&#45;&gt;Node11</title>
<g id="a_edge12_Node000004_Node000011"><a xlink:title=" ">
<path fill="none" stroke="#63b8ff" d="M644.53,-61.88C620.36,-52.01 591.21,-40.11 568.73,-30.94"/>
<polygon fill="#63b8ff" stroke="#63b8ff" points="642.91,-65 653.5,-65.54 645.56,-58.52 642.91,-65"/>
</a>
</g>
</g>
<!-- Node12&#45;&gt;Node3 -->
<g id="edge16_Node000012_Node000003" class="edge">
<title>Node12&#45;&gt;Node3</title>
<g id="a_edge16_Node000012_Node000003"><a xlink:title=" ">
<path fill="none" stroke="#63b8ff" d="M1049.4,-127.55C997.76,-101.02 907.08,-54.44 861.14,-30.83"/>
<polygon fill="#63b8ff" stroke="#63b8ff" points="1047.65,-130.58 1058.14,-132.04 1050.84,-124.36 1047.65,-130.58"/>
</a>
</g>
</g>
<!-- Node12&#45;&gt;Node6 -->
<g id="edge17_Node000012_Node000006" class="edge">
<title>Node12&#45;&gt;Node6</title>
<g id="a_edge17_Node000012_Node000006"><a xlink:title=" ">
<path fill="none" stroke="#63b8ff" d="M1135.19,-127.11C1147.32,-119.53 1158.87,-109.61 1165.75,-97 1177.4,-75.63 1164.72,-47.54 1154.62,-30.74"/>
<polygon fill="#63b8ff" stroke="#63b8ff" points="1133.68,-123.94 1126.73,-131.94 1137.15,-130.02 1133.68,-123.94"/>
</a>
</g>
</g>
<!-- Node12&#45;&gt;Node8 -->
<g id="edge19_Node000012_Node000008" class="edge">
<title>Node12&#45;&gt;Node8</title>
<g id="a_edge19_Node000012_Node000008"><a xlink:title=" ">
<path fill="none" stroke="#63b8ff" d="M1127.15,-127.37C1144.17,-118.48 1164.17,-107.62 1181.75,-97 1217.44,-75.44 1257.2,-47.64 1280.54,-30.92"/>
<polygon fill="#63b8ff" stroke="#63b8ff" points="1125.6,-124.23 1118.33,-131.93 1128.82,-130.44 1125.6,-124.23"/>
</a>
</g>
</g>
<!-- Node12&#45;&gt;Node12 -->
<g id="edge18_Node000012_Node000012" class="edge">
<title>Node12&#45;&gt;Node12</title>
<g id="a_edge18_Node000012_Node000012"><a xlink:title=" ">
<path fill="none" stroke="#63b8ff" d="M1167.73,-155.79C1171.98,-153.94 1174.5,-151.43 1174.5,-148.25 1174.5,-142.9 1167.35,-139.43 1156.83,-137.84"/>
<polygon fill="#63b8ff" stroke="#63b8ff" points="1167.07,-152.35 1158.29,-158.27 1168.85,-159.11 1167.07,-152.35"/>
</a>
</g>
</g>
<!-- Node13 -->
<g id="Node000013" class="node">
<title>Node13</title>
<g id="a_Node000013"><a xlink:href="ssplayer__effectfunction_8h.html" target="_top" xlink:title=" ">
<polygon fill="white" stroke="#666666" points="1156.5,-97 1019,-97 1019,-66.5 1156.5,-66.5 1156.5,-97"/>
<text text-anchor="start" x="1027" y="-83.5" font-family="Helvetica,sans-Serif" font-size="10.00">Common/Animator/ssplayer</text>
<text text-anchor="middle" x="1087.75" y="-72.25" font-family="Helvetica,sans-Serif" font-size="10.00">_effectfunction.h</text>
</a>
</g>
</g>
<!-- Node12&#45;&gt;Node13 -->
<g id="edge20_Node000012_Node000013" class="edge">
<title>Node12&#45;&gt;Node13</title>
<g id="a_edge20_Node000012_Node000013"><a xlink:title=" ">
<path fill="none" stroke="#63b8ff" d="M1087.75,-121.31C1087.75,-113.14 1087.75,-104.41 1087.75,-97.33"/>
<polygon fill="#63b8ff" stroke="#63b8ff" points="1084.25,-121.1 1087.75,-131.1 1091.25,-121.1 1084.25,-121.1"/>
</a>
</g>
</g>
<!-- Node13&#45;&gt;Node6 -->
<g id="edge21_Node000013_Node000006" class="edge">
<title>Node13&#45;&gt;Node6</title>
<g id="a_edge21_Node000013_Node000006"><a xlink:title=" ">
<path fill="none" stroke="#63b8ff" d="M1108.18,-57.63C1116.08,-48.69 1124.88,-38.74 1131.87,-30.83"/>
<polygon fill="#63b8ff" stroke="#63b8ff" points="1105.69,-55.17 1101.69,-64.98 1110.93,-59.8 1105.69,-55.17"/>
</a>
</g>
</g>
<!-- Node13&#45;&gt;Node7 -->
<g id="edge22_Node000013_Node000007" class="edge">
<title>Node13&#45;&gt;Node7</title>
<g id="a_edge22_Node000013_Node000007"><a xlink:title=" ">
<path fill="none" stroke="#63b8ff" d="M1055.66,-59.84C1041.11,-50.37 1024.27,-39.39 1011.13,-30.83"/>
<polygon fill="#63b8ff" stroke="#63b8ff" points="1053.73,-62.76 1064.02,-65.29 1057.55,-56.9 1053.73,-62.76"/>
</a>
</g>
</g>
<!-- Node13&#45;&gt;Node8 -->
<g id="edge23_Node000013_Node000008" class="edge">
<title>Node13&#45;&gt;Node8</title>
<g id="a_edge23_Node000013_Node000008"><a xlink:title=" ">
<path fill="none" stroke="#63b8ff" d="M1147.28,-62.72C1180.43,-52.68 1221.18,-40.34 1252.36,-30.9"/>
<polygon fill="#63b8ff" stroke="#63b8ff" points="1146.35,-59.35 1137.8,-65.59 1148.38,-66.05 1146.35,-59.35"/>
</a>
</g>
</g>
<!-- Node14&#45;&gt;Node4 -->
<g id="edge28_Node000014_Node000004" class="edge">
<title>Node14&#45;&gt;Node4</title>
<g id="a_edge28_Node000014_Node000004"><a xlink:title=" ">
<path fill="none" stroke="#63b8ff" d="M723.25,-123.85C716.24,-114.98 708.46,-105.15 702.28,-97.33"/>
<polygon fill="#63b8ff" stroke="#63b8ff" points="720.29,-125.75 729.24,-131.43 725.78,-121.41 720.29,-125.75"/>
</a>
</g>
</g>
<!-- Node15&#45;&gt;Node4 -->
<g id="edge30_Node000015_Node000004" class="edge">
<title>Node15&#45;&gt;Node4</title>
<g id="a_edge30_Node000015_Node000004"><a xlink:title=" ">
<path fill="none" stroke="#63b8ff" d="M506.02,-205.58C426.62,-200.2 322.35,-183.63 365.75,-133 398.03,-95.34 536.2,-85.65 621.66,-83.32"/>
<polygon fill="#63b8ff" stroke="#63b8ff" points="505.33,-209.05 515.53,-206.18 505.76,-202.06 505.33,-209.05"/>
</a>
</g>
</g>
<!-- Node15&#45;&gt;Node14 -->
<g id="edge31_Node000015_Node000014" class="edge">
<title>Node15&#45;&gt;Node14</title>
<g id="a_edge31_Node000015_Node000014"><a xlink:title=" ">
<path fill="none" stroke="#63b8ff" d="M620.36,-195.06C644.77,-185.85 677.49,-173.5 702.81,-163.94"/>
<polygon fill="#63b8ff" stroke="#63b8ff" points="619.32,-191.71 611.2,-198.52 621.79,-198.26 619.32,-191.71"/>
</a>
</g>
</g>
<!-- Node16 -->
<g id="Node000016" class="node">
<title>Node16</title>
<g id="a_Node000016"><a xlink:href="_s_s_texture_d_x9_8cpp.html" target="_top" xlink:title=" ">
<polygon fill="white" stroke="#666666" points="498.38,-163.5 375.12,-163.5 375.12,-133 498.38,-133 498.38,-163.5"/>
<text text-anchor="start" x="383.12" y="-150" font-family="Helvetica,sans-Serif" font-size="10.00">Common/Helper/DirectX</text>
<text text-anchor="middle" x="436.75" y="-138.75" font-family="Helvetica,sans-Serif" font-size="10.00">/SSTextureDX9.cpp</text>
</a>
</g>
</g>
<!-- Node15&#45;&gt;Node16 -->
<g id="edge32_Node000015_Node000016" class="edge">
<title>Node15&#45;&gt;Node16</title>
<g id="a_edge32_Node000015_Node000016"><a xlink:title=" ">
<path fill="none" stroke="#63b8ff" d="M552.38,-194.94C529.1,-185.74 498.02,-173.46 473.94,-163.94"/>
<polygon fill="#63b8ff" stroke="#63b8ff" points="550.8,-198.08 561.39,-198.5 553.37,-191.57 550.8,-198.08"/>
</a>
</g>
</g>
<!-- Node17 -->
<g id="Node000017" class="node">
<title>Node17</title>
<g id="a_Node000017"><a xlink:href="ssh_texture_b_m_p_8cpp.html" target="_top" xlink:title=" ">
<polygon fill="white" stroke="#666666" points="654.88,-163.5 516.62,-163.5 516.62,-133 654.88,-133 654.88,-163.5"/>
<text text-anchor="start" x="524.62" y="-150" font-family="Helvetica,sans-Serif" font-size="10.00">Common/Helper/sshTexture</text>
<text text-anchor="middle" x="585.75" y="-138.75" font-family="Helvetica,sans-Serif" font-size="10.00">BMP.cpp</text>
</a>
</g>
</g>
<!-- Node15&#45;&gt;Node17 -->
<g id="edge33_Node000015_Node000017" class="edge">
<title>Node15&#45;&gt;Node17</title>
<g id="a_edge33_Node000015_Node000017"><a xlink:title=" ">
<path fill="none" stroke="#63b8ff" d="M585.75,-187.92C585.75,-179.99 585.75,-171.06 585.75,-163.78"/>
<polygon fill="#63b8ff" stroke="#63b8ff" points="582.25,-187.67 585.75,-197.67 589.25,-187.67 582.25,-187.67"/>
</a>
</g>
</g>
</g>
</svg>
