<?xml version="1.0" encoding="UTF-8" standalone="no"?>
<!DOCTYPE svg PUBLIC "-//W3C//DTD SVG 1.1//EN"
 "http://www.w3.org/Graphics/SVG/1.1/DTD/svg11.dtd">
<!-- Generated by graphviz version 9.0.0 (20230911.1827)
 -->
<!-- Title: Common/Loader/ssloader_ssee.h Pages: 1 -->
<svg width="628pt" height="315pt"
 viewBox="0.00 0.00 628.25 314.75" xmlns="http://www.w3.org/2000/svg" xmlns:xlink="http://www.w3.org/1999/xlink">
<g id="graph0" class="graph" transform="scale(1 1) rotate(0) translate(4 310.75)">
<title>Common/Loader/ssloader_ssee.h</title>
<!-- Node1 -->
<g id="Node000001" class="node">
<title>Node1</title>
<g id="a_Node000001"><a xlink:title=" ">
<polygon fill="#999999" stroke="#666666" points="257.62,-306.75 129.88,-306.75 129.88,-276.25 257.62,-276.25 257.62,-306.75"/>
<text text-anchor="start" x="137.88" y="-293.25" font-family="Helvetica,sans-Serif" font-size="10.00">Common/Loader/ssloader</text>
<text text-anchor="middle" x="193.75" y="-282" font-family="Helvetica,sans-Serif" font-size="10.00">_ssee.h</text>
</a>
</g>
</g>
<!-- Node2 -->
<g id="Node000002" class="node">
<title>Node2</title>
<g id="a_Node000002"><a xlink:href="sstypes_8h.html" target="_top" xlink:title=" ">
<polygon fill="white" stroke="#666666" points="116.12,-74.5 57.38,-74.5 57.38,-55.25 116.12,-55.25 116.12,-74.5"/>
<text text-anchor="middle" x="86.75" y="-61" font-family="Helvetica,sans-Serif" font-size="10.00">sstypes.h</text>
</a>
</g>
</g>
<!-- Node1&#45;&gt;Node2 -->
<g id="edge1_Node000001_Node000002" class="edge">
<title>Node1&#45;&gt;Node2</title>
<g id="a_edge1_Node000001_Node000002"><a xlink:title=" ">
<path fill="none" stroke="#63b8ff" d="M169.03,-275.85C141.76,-258.15 99.16,-225.64 79.75,-185 65.43,-155.03 69.06,-143.39 73.75,-110.5 74.93,-102.22 77.29,-93.32 79.68,-85.67"/>
<polygon fill="#63b8ff" stroke="#63b8ff" points="82.93,-86.97 82.8,-76.37 76.3,-84.74 82.93,-86.97"/>
</a>
</g>
</g>
<!-- Node8 -->
<g id="Node000008" class="node">
<title>Node8</title>
<g id="a_Node000008"><a xlink:href="ssarchiver_8h.html" target="_top" xlink:title=" ">
<polygon fill="white" stroke="#666666" points="265,-129.75 196.5,-129.75 196.5,-110.5 265,-110.5 265,-129.75"/>
<text text-anchor="middle" x="230.75" y="-116.25" font-family="Helvetica,sans-Serif" font-size="10.00">ssarchiver.h</text>
</a>
</g>
</g>
<!-- Node1&#45;&gt;Node8 -->
<g id="edge7_Node000001_Node000008" class="edge">
<title>Node1&#45;&gt;Node8</title>
<g id="a_edge7_Node000001_Node000008"><a xlink:title=" ">
<path fill="none" stroke="#63b8ff" d="M216.87,-276.06C242.64,-258.34 282.56,-225.6 296.75,-185 299.57,-176.92 300.76,-173.31 296.75,-165.75 289.74,-152.54 276.88,-142.53 264.36,-135.38"/>
<polygon fill="#63b8ff" stroke="#63b8ff" points="266.34,-132.46 255.86,-130.94 263.1,-138.67 266.34,-132.46"/>
</a>
</g>
</g>
<!-- Node11 -->
<g id="Node000011" class="node">
<title>Node11</title>
<g id="a_Node000011"><a xlink:href="_ss_effect_behavior_8h.html" target="_top" xlink:title=" ">
<polygon fill="white" stroke="#666666" points="243.75,-240.25 143.75,-240.25 143.75,-221 243.75,-221 243.75,-240.25"/>
<text text-anchor="middle" x="193.75" y="-226.75" font-family="Helvetica,sans-Serif" font-size="10.00">SsEffectBehavior.h</text>
</a>
</g>
</g>
<!-- Node1&#45;&gt;Node11 -->
<g id="edge13_Node000001_Node000011" class="edge">
<title>Node1&#45;&gt;Node11</title>
<g id="a_edge13_Node000001_Node000011"><a xlink:title=" ">
<path fill="none" stroke="#63b8ff" d="M193.75,-275.95C193.75,-268.71 193.75,-259.84 193.75,-251.94"/>
<polygon fill="#63b8ff" stroke="#63b8ff" points="197.25,-252.21 193.75,-242.21 190.25,-252.21 197.25,-252.21"/>
</a>
</g>
</g>
<!-- Node3 -->
<g id="Node000003" class="node">
<title>Node3</title>
<g id="a_Node000003"><a xlink:title=" ">
<polygon fill="#e0e0e0" stroke="#999999" points="47.5,-19.25 0,-19.25 0,0 47.5,0 47.5,-19.25"/>
<text text-anchor="middle" x="23.75" y="-5.75" font-family="Helvetica,sans-Serif" font-size="10.00">stdlib.h</text>
</a>
</g>
</g>
<!-- Node2&#45;&gt;Node3 -->
<g id="edge2_Node000002_Node000003" class="edge">
<title>Node2&#45;&gt;Node3</title>
<g id="a_edge2_Node000002_Node000003"><a xlink:title=" ">
<path fill="none" stroke="#63b8ff" d="M76.06,-54.84C67.05,-47.22 53.92,-36.12 43.07,-26.95"/>
<polygon fill="#63b8ff" stroke="#63b8ff" points="45.33,-24.28 35.44,-20.5 40.81,-29.63 45.33,-24.28"/>
</a>
</g>
</g>
<!-- Node4 -->
<g id="Node000004" class="node">
<title>Node4</title>
<g id="a_Node000004"><a xlink:title=" ">
<polygon fill="#e0e0e0" stroke="#999999" points="286.75,-19.25 246.75,-19.25 246.75,0 286.75,0 286.75,-19.25"/>
<text text-anchor="middle" x="266.75" y="-5.75" font-family="Helvetica,sans-Serif" font-size="10.00">string</text>
</a>
</g>
</g>
<!-- Node2&#45;&gt;Node4 -->
<g id="edge3_Node000002_Node000004" class="edge">
<title>Node2&#45;&gt;Node4</title>
<g id="a_edge3_Node000002_Node000004"><a xlink:title=" ">
<path fill="none" stroke="#63b8ff" d="M116.47,-55.08C149.34,-45.36 202.07,-29.76 235.53,-19.86"/>
<polygon fill="#63b8ff" stroke="#63b8ff" points="236.45,-23.24 245.04,-17.05 234.46,-16.53 236.45,-23.24"/>
</a>
</g>
</g>
<!-- Node5 -->
<g id="Node000005" class="node">
<title>Node5</title>
<g id="a_Node000005"><a xlink:title=" ">
<polygon fill="#e0e0e0" stroke="#999999" points="348.25,-19.25 305.25,-19.25 305.25,0 348.25,0 348.25,-19.25"/>
<text text-anchor="middle" x="326.75" y="-5.75" font-family="Helvetica,sans-Serif" font-size="10.00">vector</text>
</a>
</g>
</g>
<!-- Node2&#45;&gt;Node5 -->
<g id="edge4_Node000002_Node000005" class="edge">
<title>Node2&#45;&gt;Node5</title>
<g id="a_edge4_Node000002_Node000005"><a xlink:title=" ">
<path fill="none" stroke="#63b8ff" d="M116.55,-57.25C119.66,-56.57 122.77,-55.9 125.75,-55.25 197.84,-39.65 218.87,-37.76 293.83,-19.59"/>
<polygon fill="#63b8ff" stroke="#63b8ff" points="294.43,-23.05 303.31,-17.28 292.76,-16.25 294.43,-23.05"/>
</a>
</g>
</g>
<!-- Node6 -->
<g id="Node000006" class="node">
<title>Node6</title>
<g id="a_Node000006"><a xlink:title=" ">
<polygon fill="#e0e0e0" stroke="#999999" points="108.25,-19.25 65.25,-19.25 65.25,0 108.25,0 108.25,-19.25"/>
<text text-anchor="middle" x="86.75" y="-5.75" font-family="Helvetica,sans-Serif" font-size="10.00">cmath</text>
</a>
</g>
</g>
<!-- Node2&#45;&gt;Node6 -->
<g id="edge5_Node000002_Node000006" class="edge">
<title>Node2&#45;&gt;Node6</title>
<g id="a_edge5_Node000002_Node000006"><a xlink:title=" ">
<path fill="none" stroke="#63b8ff" d="M86.75,-55.08C86.75,-48.57 86.75,-39.42 86.75,-31.12"/>
<polygon fill="#63b8ff" stroke="#63b8ff" points="90.25,-31.12 86.75,-21.12 83.25,-31.12 90.25,-31.12"/>
</a>
</g>
</g>
<!-- Node7 -->
<g id="Node000007" class="node">
<title>Node7</title>
<g id="a_Node000007"><a xlink:title=" ">
<polygon fill="#e0e0e0" stroke="#999999" points="181.62,-19.25 125.88,-19.25 125.88,0 181.62,0 181.62,-19.25"/>
<text text-anchor="middle" x="153.75" y="-5.75" font-family="Helvetica,sans-Serif" font-size="10.00">algorithm</text>
</a>
</g>
</g>
<!-- Node2&#45;&gt;Node7 -->
<g id="edge6_Node000002_Node000007" class="edge">
<title>Node2&#45;&gt;Node7</title>
<g id="a_edge6_Node000002_Node000007"><a xlink:title=" ">
<path fill="none" stroke="#63b8ff" d="M98.12,-54.84C107.8,-47.15 121.95,-35.9 133.56,-26.68"/>
<polygon fill="#63b8ff" stroke="#63b8ff" points="135.72,-29.43 141.37,-20.47 131.36,-23.95 135.72,-29.43"/>
</a>
</g>
</g>
<!-- Node8&#45;&gt;Node2 -->
<g id="edge9_Node000008_Node000002" class="edge">
<title>Node8&#45;&gt;Node2</title>
<g id="a_edge9_Node000008_Node000002"><a xlink:title=" ">
<path fill="none" stroke="#63b8ff" d="M206.32,-110.09C183.15,-101.52 148.09,-88.56 121.91,-78.88"/>
<polygon fill="#63b8ff" stroke="#63b8ff" points="123.31,-75.66 112.72,-75.48 120.88,-82.23 123.31,-75.66"/>
</a>
</g>
</g>
<!-- Node8&#45;&gt;Node4 -->
<g id="edge10_Node000008_Node000004" class="edge">
<title>Node8&#45;&gt;Node4</title>
<g id="a_edge10_Node000008_Node000004"><a xlink:title=" ">
<path fill="none" stroke="#63b8ff" d="M235.07,-110.04C239.2,-101.13 245.42,-87.08 249.75,-74.5 254.73,-60.01 259.14,-43.27 262.22,-30.55"/>
<polygon fill="#63b8ff" stroke="#63b8ff" points="265.61,-31.43 264.48,-20.9 258.79,-29.83 265.61,-31.43"/>
</a>
</g>
</g>
<!-- Node8&#45;&gt;Node5 -->
<g id="edge11_Node000008_Node000005" class="edge">
<title>Node8&#45;&gt;Node5</title>
<g id="a_edge11_Node000008_Node000005"><a xlink:title=" ">
<path fill="none" stroke="#63b8ff" d="M238.61,-110.25C254.43,-92.36 290.39,-51.72 311.16,-28.25"/>
<polygon fill="#63b8ff" stroke="#63b8ff" points="313.78,-30.57 317.78,-20.76 308.53,-25.93 313.78,-30.57"/>
</a>
</g>
</g>
<!-- Node9 -->
<g id="Node000009" class="node">
<title>Node9</title>
<g id="a_Node000009"><a xlink:title=" ">
<polygon fill="#e0e0e0" stroke="#999999" points="241.12,-74.5 134.38,-74.5 134.38,-55.25 241.12,-55.25 241.12,-74.5"/>
<text text-anchor="middle" x="187.75" y="-61" font-family="Helvetica,sans-Serif" font-size="10.00">./tinyxml2/tinyxml2.h</text>
</a>
</g>
</g>
<!-- Node8&#45;&gt;Node9 -->
<g id="edge8_Node000008_Node000009" class="edge">
<title>Node8&#45;&gt;Node9</title>
<g id="a_edge8_Node000008_Node000009"><a xlink:title=" ">
<path fill="none" stroke="#63b8ff" d="M223.65,-110.33C217.83,-103.13 209.42,-92.71 202.19,-83.76"/>
<polygon fill="#63b8ff" stroke="#63b8ff" points="204.96,-81.62 195.96,-76.04 199.52,-86.02 204.96,-81.62"/>
</a>
</g>
</g>
<!-- Node10 -->
<g id="Node000010" class="node">
<title>Node10</title>
<g id="a_Node000010"><a xlink:title=" ">
<polygon fill="#e0e0e0" stroke="#999999" points="369.12,-74.5 334.38,-74.5 334.38,-55.25 369.12,-55.25 369.12,-74.5"/>
<text text-anchor="middle" x="351.75" y="-61" font-family="Helvetica,sans-Serif" font-size="10.00">map</text>
</a>
</g>
</g>
<!-- Node8&#45;&gt;Node10 -->
<g id="edge12_Node000008_Node000010" class="edge">
<title>Node8&#45;&gt;Node10</title>
<g id="a_edge12_Node000008_Node000010"><a xlink:title=" ">
<path fill="none" stroke="#63b8ff" d="M251.28,-110.09C271.12,-101.36 301.34,-88.06 323.46,-78.32"/>
<polygon fill="#63b8ff" stroke="#63b8ff" points="324.76,-81.58 332.5,-74.35 321.94,-75.17 324.76,-81.58"/>
</a>
</g>
</g>
<!-- Node11&#45;&gt;Node2 -->
<g id="edge18_Node000011_Node000002" class="edge">
<title>Node11&#45;&gt;Node2</title>
<g id="a_edge18_Node000011_Node000002"><a xlink:title=" ">
<path fill="none" stroke="#63b8ff" d="M147.22,-220.54C127.08,-214.11 105.3,-203.24 92.75,-185 72.47,-155.52 76.83,-111.56 81.81,-86.1"/>
<polygon fill="#63b8ff" stroke="#63b8ff" points="85.21,-86.94 83.95,-76.42 78.38,-85.43 85.21,-86.94"/>
</a>
</g>
</g>
<!-- Node12 -->
<g id="Node000012" class="node">
<title>Node12</title>
<g id="a_Node000012"><a xlink:href="_ss_effect_element_8h.html" target="_top" xlink:title=" ">
<polygon fill="white" stroke="#666666" points="200,-185 101.5,-185 101.5,-165.75 200,-165.75 200,-185"/>
<text text-anchor="middle" x="150.75" y="-171.5" font-family="Helvetica,sans-Serif" font-size="10.00">SsEffectElement.h</text>
</a>
</g>
</g>
<!-- Node11&#45;&gt;Node12 -->
<g id="edge14_Node000011_Node000012" class="edge">
<title>Node11&#45;&gt;Node12</title>
<g id="a_edge14_Node000011_Node000012"><a xlink:title=" ">
<path fill="none" stroke="#63b8ff" d="M186.65,-220.83C180.83,-213.63 172.42,-203.21 165.19,-194.26"/>
<polygon fill="#63b8ff" stroke="#63b8ff" points="167.96,-192.12 158.96,-186.54 162.52,-196.52 167.96,-192.12"/>
</a>
</g>
</g>
<!-- Node13 -->
<g id="Node000013" class="node">
<title>Node13</title>
<g id="a_Node000013"><a xlink:href="ssvalue_8h.html" target="_top" xlink:title=" ">
<polygon fill="white" stroke="#666666" points="401.75,-185 343.75,-185 343.75,-165.75 401.75,-165.75 401.75,-185"/>
<text text-anchor="middle" x="372.75" y="-171.5" font-family="Helvetica,sans-Serif" font-size="10.00">ssvalue.h</text>
</a>
</g>
</g>
<!-- Node11&#45;&gt;Node13 -->
<g id="edge19_Node000011_Node000013" class="edge">
<title>Node11&#45;&gt;Node13</title>
<g id="a_edge19_Node000011_Node000013"><a xlink:title=" ">
<path fill="none" stroke="#63b8ff" d="M224.11,-220.59C254.05,-211.69 299.95,-198.03 332.82,-188.25"/>
<polygon fill="#63b8ff" stroke="#63b8ff" points="333.39,-191.74 341.98,-185.53 331.39,-185.03 333.39,-191.74"/>
</a>
</g>
</g>
<!-- Node20 -->
<g id="Node000020" class="node">
<title>Node20</title>
<g id="a_Node000020"><a xlink:title=" ">
<polygon fill="#e0e0e0" stroke="#999999" points="287.38,-185 236.12,-185 236.12,-165.75 287.38,-165.75 287.38,-185"/>
<text text-anchor="middle" x="261.75" y="-171.5" font-family="Helvetica,sans-Serif" font-size="10.00">memory</text>
</a>
</g>
</g>
<!-- Node11&#45;&gt;Node20 -->
<g id="edge31_Node000011_Node000020" class="edge">
<title>Node11&#45;&gt;Node20</title>
<g id="a_edge31_Node000011_Node000020"><a xlink:title=" ">
<path fill="none" stroke="#63b8ff" d="M205.29,-220.59C215.21,-212.82 229.76,-201.42 241.61,-192.15"/>
<polygon fill="#63b8ff" stroke="#63b8ff" points="243.48,-195.13 249.19,-186.21 239.16,-189.62 243.48,-195.13"/>
</a>
</g>
</g>
<!-- Node12&#45;&gt;Node2 -->
<g id="edge15_Node000012_Node000002" class="edge">
<title>Node12&#45;&gt;Node2</title>
<g id="a_edge15_Node000012_Node000002"><a xlink:title=" ">
<path fill="none" stroke="#63b8ff" d="M145.51,-165.5C135.15,-147.93 111.84,-108.41 97.89,-84.77"/>
<polygon fill="#63b8ff" stroke="#63b8ff" points="100.92,-83.02 92.83,-76.18 94.89,-86.57 100.92,-83.02"/>
</a>
</g>
</g>
<!-- Node12&#45;&gt;Node8 -->
<g id="edge16_Node000012_Node000008" class="edge">
<title>Node12&#45;&gt;Node8</title>
<g id="a_edge16_Node000012_Node000008"><a xlink:title=" ">
<path fill="none" stroke="#63b8ff" d="M164.32,-165.34C176.16,-157.46 193.59,-145.86 207.62,-136.52"/>
<polygon fill="#63b8ff" stroke="#63b8ff" points="209.47,-139.5 215.85,-131.04 205.59,-133.67 209.47,-139.5"/>
</a>
</g>
</g>
<!-- Node12&#45;&gt;Node12 -->
<g id="edge17_Node000012_Node000012" class="edge">
<title>Node12&#45;&gt;Node12</title>
<g id="a_edge17_Node000012_Node000012"><a xlink:title=" ">
<path fill="none" stroke="#63b8ff" d="M186.04,-185.48C203.02,-186.73 218,-183.36 218,-175.38 218,-169.26 209.22,-165.85 197.48,-165.15"/>
<polygon fill="#63b8ff" stroke="#63b8ff" points="197.52,-161.65 187.55,-165.25 197.59,-168.65 197.52,-161.65"/>
</a>
</g>
</g>
<!-- Node13&#45;&gt;Node5 -->
<g id="edge29_Node000013_Node000005" class="edge">
<title>Node13&#45;&gt;Node5</title>
<g id="a_edge29_Node000013_Node000005"><a xlink:title=" ">
<path fill="none" stroke="#63b8ff" d="M375.72,-165.49C382.06,-144.97 394.94,-93.14 377.75,-55.25 372.37,-43.4 362.12,-33.45 352.2,-25.98"/>
<polygon fill="#63b8ff" stroke="#63b8ff" points="354.43,-23.27 344.22,-20.46 350.45,-29.03 354.43,-23.27"/>
</a>
</g>
</g>
<!-- Node13&#45;&gt;Node8 -->
<g id="edge20_Node000013_Node000008" class="edge">
<title>Node13&#45;&gt;Node8</title>
<g id="a_edge20_Node000013_Node000008"><a xlink:title=" ">
<path fill="none" stroke="#63b8ff" d="M348.66,-165.34C325.81,-156.77 291.23,-143.81 265.42,-134.13"/>
<polygon fill="#63b8ff" stroke="#63b8ff" points="266.97,-130.97 256.37,-130.73 264.51,-137.52 266.97,-130.97"/>
</a>
</g>
</g>
<!-- Node13&#45;&gt;Node10 -->
<g id="edge28_Node000013_Node000010" class="edge">
<title>Node13&#45;&gt;Node10</title>
<g id="a_edge28_Node000013_Node000010"><a xlink:title=" ">
<path fill="none" stroke="#63b8ff" d="M371.03,-165.5C367.69,-148.25 360.26,-109.83 355.66,-86.06"/>
<polygon fill="#63b8ff" stroke="#63b8ff" points="359.12,-85.52 353.78,-76.36 352.24,-86.85 359.12,-85.52"/>
</a>
</g>
</g>
<!-- Node14 -->
<g id="Node000014" class="node">
<title>Node14</title>
<g id="a_Node000014"><a xlink:href="ssstring__uty_8h.html" target="_top" xlink:title=" ">
<polygon fill="white" stroke="#666666" points="500.75,-74.5 424.75,-74.5 424.75,-55.25 500.75,-55.25 500.75,-74.5"/>
<text text-anchor="middle" x="462.75" y="-61" font-family="Helvetica,sans-Serif" font-size="10.00">ssstring_uty.h</text>
</a>
</g>
</g>
<!-- Node13&#45;&gt;Node14 -->
<g id="edge21_Node000013_Node000014" class="edge">
<title>Node13&#45;&gt;Node14</title>
<g id="a_edge21_Node000013_Node000014"><a xlink:title=" ">
<path fill="none" stroke="#63b8ff" d="M380.38,-165.53C388.09,-156.57 400.33,-142.26 410.75,-129.75 423.73,-114.16 438.29,-96.24 448.69,-83.35"/>
<polygon fill="#63b8ff" stroke="#63b8ff" points="451.25,-85.76 454.8,-75.78 445.8,-81.37 451.25,-85.76"/>
</a>
</g>
</g>
<!-- Node19 -->
<g id="Node000019" class="node">
<title>Node19</title>
<g id="a_Node000019"><a xlink:title=" ">
<polygon fill="#e0e0e0" stroke="#999999" points="330.88,-129.75 282.62,-129.75 282.62,-110.5 330.88,-110.5 330.88,-129.75"/>
<text text-anchor="middle" x="306.75" y="-116.25" font-family="Helvetica,sans-Serif" font-size="10.00">cassert</text>
</a>
</g>
</g>
<!-- Node13&#45;&gt;Node19 -->
<g id="edge30_Node000013_Node000019" class="edge">
<title>Node13&#45;&gt;Node19</title>
<g id="a_edge30_Node000013_Node000019"><a xlink:title=" ">
<path fill="none" stroke="#63b8ff" d="M361.55,-165.34C352.01,-157.65 338.08,-146.4 326.64,-137.18"/>
<polygon fill="#63b8ff" stroke="#63b8ff" points="328.94,-134.53 318.96,-130.98 324.54,-139.98 328.94,-134.53"/>
</a>
</g>
</g>
<!-- Node14&#45;&gt;Node4 -->
<g id="edge22_Node000014_Node000004" class="edge">
<title>Node14&#45;&gt;Node4</title>
<g id="a_edge22_Node000014_Node000004"><a xlink:title=" ">
<path fill="none" stroke="#63b8ff" d="M427.49,-54.76C395.95,-46.54 348.19,-33.92 298.07,-19.85"/>
<polygon fill="#63b8ff" stroke="#63b8ff" points="299.04,-16.49 288.47,-17.14 297.14,-23.22 299.04,-16.49"/>
</a>
</g>
</g>
<!-- Node14&#45;&gt;Node5 -->
<g id="edge24_Node000014_Node000005" class="edge">
<title>Node14&#45;&gt;Node5</title>
<g id="a_edge24_Node000014_Node000005"><a xlink:title=" ">
<path fill="none" stroke="#63b8ff" d="M439.68,-54.84C417.6,-46.2 384.08,-33.07 359.29,-23.36"/>
<polygon fill="#63b8ff" stroke="#63b8ff" points="360.58,-20.11 349.99,-19.72 358.03,-26.63 360.58,-20.11"/>
</a>
</g>
</g>
<!-- Node15 -->
<g id="Node000015" class="node">
<title>Node15</title>
<g id="a_Node000015"><a xlink:title=" ">
<polygon fill="#e0e0e0" stroke="#999999" points="620.25,-19.25 571.25,-19.25 571.25,0 620.25,0 620.25,-19.25"/>
<text text-anchor="middle" x="595.75" y="-5.75" font-family="Helvetica,sans-Serif" font-size="10.00">fstream</text>
</a>
</g>
</g>
<!-- Node14&#45;&gt;Node15 -->
<g id="edge23_Node000014_Node000015" class="edge">
<title>Node14&#45;&gt;Node15</title>
<g id="a_edge23_Node000014_Node000015"><a xlink:title=" ">
<path fill="none" stroke="#63b8ff" d="M485.31,-54.84C506.52,-46.35 538.52,-33.54 562.63,-23.89"/>
<polygon fill="#63b8ff" stroke="#63b8ff" points="563.69,-27.23 571.67,-20.27 561.09,-20.73 563.69,-27.23"/>
</a>
</g>
</g>
<!-- Node16 -->
<g id="Node000016" class="node">
<title>Node16</title>
<g id="a_Node000016"><a xlink:title=" ">
<polygon fill="#e0e0e0" stroke="#999999" points="419.5,-19.25 366,-19.25 366,0 419.5,0 419.5,-19.25"/>
<text text-anchor="middle" x="392.75" y="-5.75" font-family="Helvetica,sans-Serif" font-size="10.00">iostream</text>
</a>
</g>
</g>
<!-- Node14&#45;&gt;Node16 -->
<g id="edge25_Node000014_Node000016" class="edge">
<title>Node14&#45;&gt;Node16</title>
<g id="a_edge25_Node000014_Node000016"><a xlink:title=" ">
<path fill="none" stroke="#63b8ff" d="M450.88,-54.84C440.66,-47.07 425.68,-35.67 413.49,-26.4"/>
<polygon fill="#63b8ff" stroke="#63b8ff" points="415.73,-23.71 405.65,-20.44 411.49,-29.28 415.73,-23.71"/>
</a>
</g>
</g>
<!-- Node17 -->
<g id="Node000017" class="node">
<title>Node17</title>
<g id="a_Node000017"><a xlink:title=" ">
<polygon fill="#e0e0e0" stroke="#999999" points="488.38,-19.25 437.12,-19.25 437.12,0 488.38,0 488.38,-19.25"/>
<text text-anchor="middle" x="462.75" y="-5.75" font-family="Helvetica,sans-Serif" font-size="10.00">sstream</text>
</a>
</g>
</g>
<!-- Node14&#45;&gt;Node17 -->
<g id="edge26_Node000014_Node000017" class="edge">
<title>Node14&#45;&gt;Node17</title>
<g id="a_edge26_Node000014_Node000017"><a xlink:title=" ">
<path fill="none" stroke="#63b8ff" d="M462.75,-55.08C462.75,-48.57 462.75,-39.42 462.75,-31.12"/>
<polygon fill="#63b8ff" stroke="#63b8ff" points="466.25,-31.12 462.75,-21.12 459.25,-31.12 466.25,-31.12"/>
</a>
</g>
</g>
<!-- Node18 -->
<g id="Node000018" class="node">
<title>Node18</title>
<g id="a_Node000018"><a xlink:title=" ">
<polygon fill="#e0e0e0" stroke="#999999" points="552.75,-19.25 506.75,-19.25 506.75,0 552.75,0 552.75,-19.25"/>
<text text-anchor="middle" x="529.75" y="-5.75" font-family="Helvetica,sans-Serif" font-size="10.00">iterator</text>
</a>
</g>
</g>
<!-- Node14&#45;&gt;Node18 -->
<g id="edge27_Node000014_Node000018" class="edge">
<title>Node14&#45;&gt;Node18</title>
<g id="a_edge27_Node000014_Node000018"><a xlink:title=" ">
<path fill="none" stroke="#63b8ff" d="M474.12,-54.84C483.8,-47.15 497.95,-35.9 509.56,-26.68"/>
<polygon fill="#63b8ff" stroke="#63b8ff" points="511.72,-29.43 517.37,-20.47 507.36,-23.95 511.72,-29.43"/>
</a>
</g>
</g>
</g>
</svg>
