<?xml version="1.0" encoding="UTF-8" standalone="no"?>
<!DOCTYPE svg PUBLIC "-//W3C//DTD SVG 1.1//EN"
 "http://www.w3.org/Graphics/SVG/1.1/DTD/svg11.dtd">
<!-- Generated by graphviz version 12.2.1 (20241206.2353)
 -->
<!-- Title: Common/Loader/ssloader_ssqe.cpp Pages: 1 -->
<svg width="549pt" height="260pt"
 viewBox="0.00 0.00 549.00 259.50" xmlns="http://www.w3.org/2000/svg" xmlns:xlink="http://www.w3.org/1999/xlink">
<g id="graph0" class="graph" transform="scale(1 1) rotate(0) translate(4 255.5)">
<title>Common/Loader/ssloader_ssqe.cpp</title>
<!-- Node1 -->
<g id="Node000001" class="node">
<title>Node1</title>
<g id="a_Node000001"><a xlink:title=" ">
<polygon fill="#999999" stroke="#666666" points="448.75,-251.5 321,-251.5 321,-221 448.75,-221 448.75,-251.5"/>
<text text-anchor="start" x="329" y="-238" font-family="Helvetica,sans-Serif" font-size="10.00">Common/Loader/ssloader</text>
<text text-anchor="middle" x="384.88" y="-226.75" font-family="Helvetica,sans-Serif" font-size="10.00">_ssqe.cpp</text>
</a>
</g>
</g>
<!-- Node2 -->
<g id="Node000002" class="node">
<title>Node2</title>
<g id="a_Node000002"><a xlink:href="ssloader__ssqe_8h.html" target="_top" xlink:title=" ">
<polygon fill="white" stroke="#666666" points="342.5,-185 255.25,-185 255.25,-165.75 342.5,-165.75 342.5,-185"/>
<text text-anchor="middle" x="298.88" y="-171.5" font-family="Helvetica,sans-Serif" font-size="10.00">ssloader_ssqe.h</text>
</a>
</g>
</g>
<!-- Node1&#45;&gt;Node2 -->
<g id="edge1_Node000001_Node000002" class="edge">
<title>Node1&#45;&gt;Node2</title>
<g id="a_edge1_Node000001_Node000002"><a xlink:title=" ">
<path fill="none" stroke="#63b8ff" d="M363.62,-220.7C350.77,-211.9 334.42,-200.71 321.36,-191.77"/>
<polygon fill="#63b8ff" stroke="#63b8ff" points="323.61,-189.07 313.38,-186.31 319.66,-194.84 323.61,-189.07"/>
</a>
</g>
</g>
<!-- Node12 -->
<g id="Node000012" class="node">
<title>Node12</title>
<g id="a_Node000012"><a xlink:href="ss_filesystem_8h.html" target="_top" xlink:title=" ">
<polygon fill="white" stroke="#666666" points="512.25,-185 429.5,-185 429.5,-165.75 512.25,-165.75 512.25,-185"/>
<text text-anchor="middle" x="470.88" y="-171.5" font-family="Helvetica,sans-Serif" font-size="10.00">ssFilesystem.h</text>
</a>
</g>
</g>
<!-- Node1&#45;&gt;Node12 -->
<g id="edge14_Node000001_Node000012" class="edge">
<title>Node1&#45;&gt;Node12</title>
<g id="a_edge14_Node000001_Node000012"><a xlink:title=" ">
<path fill="none" stroke="#63b8ff" d="M406.13,-220.7C418.98,-211.9 435.33,-200.71 448.39,-191.77"/>
<polygon fill="#63b8ff" stroke="#63b8ff" points="450.09,-194.84 456.37,-186.31 446.14,-189.07 450.09,-194.84"/>
</a>
</g>
</g>
<!-- Node3 -->
<g id="Node000003" class="node">
<title>Node3</title>
<g id="a_Node000003"><a xlink:href="sstypes_8h.html" target="_top" xlink:title=" ">
<polygon fill="white" stroke="#666666" points="190.25,-74.5 131.5,-74.5 131.5,-55.25 190.25,-55.25 190.25,-74.5"/>
<text text-anchor="middle" x="160.88" y="-61" font-family="Helvetica,sans-Serif" font-size="10.00">sstypes.h</text>
</a>
</g>
</g>
<!-- Node2&#45;&gt;Node3 -->
<g id="edge2_Node000002_Node000003" class="edge">
<title>Node2&#45;&gt;Node3</title>
<g id="a_edge2_Node000002_Node000003"><a xlink:title=" ">
<path fill="none" stroke="#63b8ff" d="M287.58,-165.5C264.33,-147.22 210.83,-105.15 181.33,-81.96"/>
<polygon fill="#63b8ff" stroke="#63b8ff" points="183.54,-79.24 173.51,-75.81 179.21,-84.74 183.54,-79.24"/>
</a>
</g>
</g>
<!-- Node9 -->
<g id="Node000009" class="node">
<title>Node9</title>
<g id="a_Node000009"><a xlink:href="ssarchiver_8h.html" target="_top" xlink:title=" ">
<polygon fill="white" stroke="#666666" points="333.12,-129.75 264.62,-129.75 264.62,-110.5 333.12,-110.5 333.12,-129.75"/>
<text text-anchor="middle" x="298.88" y="-116.25" font-family="Helvetica,sans-Serif" font-size="10.00">ssarchiver.h</text>
</a>
</g>
</g>
<!-- Node2&#45;&gt;Node9 -->
<g id="edge8_Node000002_Node000009" class="edge">
<title>Node2&#45;&gt;Node9</title>
<g id="a_edge8_Node000002_Node000009"><a xlink:title=" ">
<path fill="none" stroke="#63b8ff" d="M298.88,-165.58C298.88,-159.07 298.88,-149.92 298.88,-141.62"/>
<polygon fill="#63b8ff" stroke="#63b8ff" points="302.38,-141.62 298.88,-131.62 295.38,-141.62 302.38,-141.62"/>
</a>
</g>
</g>
<!-- Node4 -->
<g id="Node000004" class="node">
<title>Node4</title>
<g id="a_Node000004"><a xlink:title=" ">
<polygon fill="#e0e0e0" stroke="#999999" points="121.62,-19.25 74.12,-19.25 74.12,0 121.62,0 121.62,-19.25"/>
<text text-anchor="middle" x="97.88" y="-5.75" font-family="Helvetica,sans-Serif" font-size="10.00">stdlib.h</text>
</a>
</g>
</g>
<!-- Node3&#45;&gt;Node4 -->
<g id="edge3_Node000003_Node000004" class="edge">
<title>Node3&#45;&gt;Node4</title>
<g id="a_edge3_Node000003_Node000004"><a xlink:title=" ">
<path fill="none" stroke="#63b8ff" d="M150.19,-54.84C141.17,-47.22 128.04,-36.12 117.19,-26.95"/>
<polygon fill="#63b8ff" stroke="#63b8ff" points="119.46,-24.28 109.56,-20.5 114.94,-29.63 119.46,-24.28"/>
</a>
</g>
</g>
<!-- Node5 -->
<g id="Node000005" class="node">
<title>Node5</title>
<g id="a_Node000005"><a xlink:title=" ">
<polygon fill="#e0e0e0" stroke="#999999" points="452.88,-19.25 412.88,-19.25 412.88,0 452.88,0 452.88,-19.25"/>
<text text-anchor="middle" x="432.88" y="-5.75" font-family="Helvetica,sans-Serif" font-size="10.00">string</text>
</a>
</g>
</g>
<!-- Node3&#45;&gt;Node5 -->
<g id="edge4_Node000003_Node000005" class="edge">
<title>Node3&#45;&gt;Node5</title>
<g id="a_edge4_Node000003_Node000005"><a xlink:title=" ">
<path fill="none" stroke="#63b8ff" d="M190.5,-58.07C242.22,-47.95 348.49,-27.15 401.44,-16.78"/>
<polygon fill="#63b8ff" stroke="#63b8ff" points="401.87,-20.26 411.01,-14.91 400.53,-13.39 401.87,-20.26"/>
</a>
</g>
</g>
<!-- Node6 -->
<g id="Node000006" class="node">
<title>Node6</title>
<g id="a_Node000006"><a xlink:title=" ">
<polygon fill="#e0e0e0" stroke="#999999" points="243.38,-19.25 200.38,-19.25 200.38,0 243.38,0 243.38,-19.25"/>
<text text-anchor="middle" x="221.88" y="-5.75" font-family="Helvetica,sans-Serif" font-size="10.00">vector</text>
</a>
</g>
</g>
<!-- Node3&#45;&gt;Node6 -->
<g id="edge5_Node000003_Node000006" class="edge">
<title>Node3&#45;&gt;Node6</title>
<g id="a_edge5_Node000003_Node000006"><a xlink:title=" ">
<path fill="none" stroke="#63b8ff" d="M171.22,-54.84C179.95,-47.22 192.66,-36.12 203.17,-26.95"/>
<polygon fill="#63b8ff" stroke="#63b8ff" points="205.31,-29.73 210.54,-20.52 200.7,-24.46 205.31,-29.73"/>
</a>
</g>
</g>
<!-- Node7 -->
<g id="Node000007" class="node">
<title>Node7</title>
<g id="a_Node000007"><a xlink:title=" ">
<polygon fill="#e0e0e0" stroke="#999999" points="182.38,-19.25 139.38,-19.25 139.38,0 182.38,0 182.38,-19.25"/>
<text text-anchor="middle" x="160.88" y="-5.75" font-family="Helvetica,sans-Serif" font-size="10.00">cmath</text>
</a>
</g>
</g>
<!-- Node3&#45;&gt;Node7 -->
<g id="edge6_Node000003_Node000007" class="edge">
<title>Node3&#45;&gt;Node7</title>
<g id="a_edge6_Node000003_Node000007"><a xlink:title=" ">
<path fill="none" stroke="#63b8ff" d="M160.88,-55.08C160.88,-48.57 160.88,-39.42 160.88,-31.12"/>
<polygon fill="#63b8ff" stroke="#63b8ff" points="164.38,-31.12 160.88,-21.12 157.38,-31.12 164.38,-31.12"/>
</a>
</g>
</g>
<!-- Node8 -->
<g id="Node000008" class="node">
<title>Node8</title>
<g id="a_Node000008"><a xlink:title=" ">
<polygon fill="#e0e0e0" stroke="#999999" points="55.75,-19.25 0,-19.25 0,0 55.75,0 55.75,-19.25"/>
<text text-anchor="middle" x="27.88" y="-5.75" font-family="Helvetica,sans-Serif" font-size="10.00">algorithm</text>
</a>
</g>
</g>
<!-- Node3&#45;&gt;Node8 -->
<g id="edge7_Node000003_Node000008" class="edge">
<title>Node3&#45;&gt;Node8</title>
<g id="a_edge7_Node000003_Node000008"><a xlink:title=" ">
<path fill="none" stroke="#63b8ff" d="M138.31,-54.84C117.1,-46.35 85.1,-33.54 61,-23.89"/>
<polygon fill="#63b8ff" stroke="#63b8ff" points="62.54,-20.73 51.95,-20.27 59.94,-27.23 62.54,-20.73"/>
</a>
</g>
</g>
<!-- Node9&#45;&gt;Node3 -->
<g id="edge10_Node000009_Node000003" class="edge">
<title>Node9&#45;&gt;Node3</title>
<g id="a_edge10_Node000009_Node000003"><a xlink:title=" ">
<path fill="none" stroke="#63b8ff" d="M275.47,-110.09C253.36,-101.56 219.96,-88.67 194.91,-79.01"/>
<polygon fill="#63b8ff" stroke="#63b8ff" points="196.4,-75.83 185.81,-75.5 193.88,-82.36 196.4,-75.83"/>
</a>
</g>
</g>
<!-- Node9&#45;&gt;Node5 -->
<g id="edge11_Node000009_Node000005" class="edge">
<title>Node9&#45;&gt;Node5</title>
<g id="a_edge11_Node000009_Node000005"><a xlink:title=" ">
<path fill="none" stroke="#63b8ff" d="M333.38,-114.05C358.96,-108.54 392.9,-97.25 413.88,-74.5 424.8,-62.65 429.46,-44.77 431.44,-30.94"/>
<polygon fill="#63b8ff" stroke="#63b8ff" points="434.91,-31.48 432.45,-21.18 427.94,-30.76 434.91,-31.48"/>
</a>
</g>
</g>
<!-- Node9&#45;&gt;Node6 -->
<g id="edge12_Node000009_Node000006" class="edge">
<title>Node9&#45;&gt;Node6</title>
<g id="a_edge12_Node000009_Node000006"><a xlink:title=" ">
<path fill="none" stroke="#63b8ff" d="M279.75,-110.09C265.77,-102.52 247.48,-90.38 236.88,-74.5 228.25,-61.58 224.55,-44.29 222.99,-30.96"/>
<polygon fill="#63b8ff" stroke="#63b8ff" points="226.49,-30.85 222.17,-21.17 219.51,-31.43 226.49,-30.85"/>
</a>
</g>
</g>
<!-- Node10 -->
<g id="Node000010" class="node">
<title>Node10</title>
<g id="a_Node000010"><a xlink:title=" ">
<polygon fill="#e0e0e0" stroke="#999999" points="352.25,-74.5 245.5,-74.5 245.5,-55.25 352.25,-55.25 352.25,-74.5"/>
<text text-anchor="middle" x="298.88" y="-61" font-family="Helvetica,sans-Serif" font-size="10.00">./tinyxml2/tinyxml2.h</text>
</a>
</g>
</g>
<!-- Node9&#45;&gt;Node10 -->
<g id="edge9_Node000009_Node000010" class="edge">
<title>Node9&#45;&gt;Node10</title>
<g id="a_edge9_Node000009_Node000010"><a xlink:title=" ">
<path fill="none" stroke="#63b8ff" d="M298.88,-110.33C298.88,-103.82 298.88,-94.67 298.88,-86.37"/>
<polygon fill="#63b8ff" stroke="#63b8ff" points="302.38,-86.37 298.88,-76.37 295.38,-86.37 302.38,-86.37"/>
</a>
</g>
</g>
<!-- Node11 -->
<g id="Node000011" class="node">
<title>Node11</title>
<g id="a_Node000011"><a xlink:title=" ">
<polygon fill="#e0e0e0" stroke="#999999" points="405.25,-74.5 370.5,-74.5 370.5,-55.25 405.25,-55.25 405.25,-74.5"/>
<text text-anchor="middle" x="387.88" y="-61" font-family="Helvetica,sans-Serif" font-size="10.00">map</text>
</a>
</g>
</g>
<!-- Node9&#45;&gt;Node11 -->
<g id="edge13_Node000009_Node000011" class="edge">
<title>Node9&#45;&gt;Node11</title>
<g id="a_edge13_Node000009_Node000011"><a xlink:title=" ">
<path fill="none" stroke="#63b8ff" d="M313.97,-110.09C327.4,-102.06 347.29,-90.16 363.05,-80.73"/>
<polygon fill="#63b8ff" stroke="#63b8ff" points="364.62,-83.87 371.4,-75.73 361.03,-77.86 364.62,-83.87"/>
</a>
</g>
</g>
<!-- Node12&#45;&gt;Node5 -->
<g id="edge15_Node000012_Node000005" class="edge">
<title>Node12&#45;&gt;Node5</title>
<g id="a_edge15_Node000012_Node000005"><a xlink:title=" ">
<path fill="none" stroke="#63b8ff" d="M468.83,-165.57C462.93,-140.14 445.75,-66.1 437.46,-30.37"/>
<polygon fill="#63b8ff" stroke="#63b8ff" points="440.94,-29.9 435.27,-20.95 434.12,-31.48 440.94,-29.9"/>
</a>
</g>
</g>
<!-- Node13 -->
<g id="Node000013" class="node">
<title>Node13</title>
<g id="a_Node000013"><a xlink:title=" ">
<polygon fill="#e0e0e0" stroke="#999999" points="541,-129.75 498.75,-129.75 498.75,-110.5 541,-110.5 541,-129.75"/>
<text text-anchor="middle" x="519.88" y="-116.25" font-family="Helvetica,sans-Serif" font-size="10.00">cstdio</text>
</a>
</g>
</g>
<!-- Node12&#45;&gt;Node13 -->
<g id="edge16_Node000012_Node000013" class="edge">
<title>Node12&#45;&gt;Node13</title>
<g id="a_edge16_Node000012_Node000013"><a xlink:title=" ">
<path fill="none" stroke="#63b8ff" d="M478.97,-165.58C485.73,-158.23 495.6,-147.51 503.94,-138.44"/>
<polygon fill="#63b8ff" stroke="#63b8ff" points="506.39,-140.95 510.58,-131.22 501.24,-136.21 506.39,-140.95"/>
</a>
</g>
</g>
</g>
</svg>
