<?xml version="1.0" encoding="UTF-8" standalone="no"?>
<!DOCTYPE svg PUBLIC "-//W3C//DTD SVG 1.1//EN"
 "http://www.w3.org/Graphics/SVG/1.1/DTD/svg11.dtd">
<!-- Generated by graphviz version 10.0.1 (20240210.2158)
 -->
<!-- Title: Common/Loader/ssloader_ssae.h Pages: 1 -->
<svg width="628pt" height="315pt"
 viewBox="0.00 0.00 628.25 314.75" xmlns="http://www.w3.org/2000/svg" xmlns:xlink="http://www.w3.org/1999/xlink">
<g id="graph0" class="graph" transform="scale(1 1) rotate(0) translate(4 310.75)">
<title>Common/Loader/ssloader_ssae.h</title>
<!-- Node1 -->
<g id="Node000001" class="node">
<title>Node1</title>
<g id="a_Node000001"><a xlink:title=" ">
<polygon fill="#999999" stroke="#666666" points="156.62,-306.75 28.88,-306.75 28.88,-276.25 156.62,-276.25 156.62,-306.75"/>
<text text-anchor="start" x="36.88" y="-293.25" font-family="Helvetica,sans-Serif" font-size="10.00">Common/Loader/ssloader</text>
<text text-anchor="middle" x="92.75" y="-282" font-family="Helvetica,sans-Serif" font-size="10.00">_ssae.h</text>
</a>
</g>
</g>
<!-- Node2 -->
<g id="Node000002" class="node">
<title>Node2</title>
<g id="a_Node000002"><a xlink:href="sstypes_8h.html" target="_top" xlink:title=" ">
<polygon fill="white" stroke="#666666" points="116.12,-74.5 57.38,-74.5 57.38,-55.25 116.12,-55.25 116.12,-74.5"/>
<text text-anchor="middle" x="86.75" y="-61" font-family="Helvetica,sans-Serif" font-size="10.00">sstypes.h</text>
</a>
</g>
</g>
<!-- Node1&#45;&gt;Node2 -->
<g id="edge1_Node000001_Node000002" class="edge">
<title>Node1&#45;&gt;Node2</title>
<g id="a_edge1_Node000001_Node000002"><a xlink:title=" ">
<path fill="none" stroke="#63b8ff" d="M92.36,-275.76C91.31,-236.67 88.47,-130.33 87.28,-85.85"/>
<polygon fill="#63b8ff" stroke="#63b8ff" points="90.79,-86.03 87.02,-76.12 83.79,-86.21 90.79,-86.03"/>
</a>
</g>
</g>
<!-- Node8 -->
<g id="Node000008" class="node">
<title>Node8</title>
<g id="a_Node000008"><a xlink:href="ssarchiver_8h.html" target="_top" xlink:title=" ">
<polygon fill="white" stroke="#666666" points="293,-129.75 224.5,-129.75 224.5,-110.5 293,-110.5 293,-129.75"/>
<text text-anchor="middle" x="258.75" y="-116.25" font-family="Helvetica,sans-Serif" font-size="10.00">ssarchiver.h</text>
</a>
</g>
</g>
<!-- Node1&#45;&gt;Node8 -->
<g id="edge7_Node000001_Node000008" class="edge">
<title>Node1&#45;&gt;Node8</title>
<g id="a_edge7_Node000001_Node000008"><a xlink:title=" ">
<path fill="none" stroke="#63b8ff" d="M95.66,-276.15C101.53,-250.63 117.13,-197.09 149.75,-165.75 167.2,-148.98 191.82,-138.18 213.24,-131.41"/>
<polygon fill="#63b8ff" stroke="#63b8ff" points="214.04,-134.83 222.65,-128.65 212.07,-128.11 214.04,-134.83"/>
</a>
</g>
</g>
<!-- Node11 -->
<g id="Node000011" class="node">
<title>Node11</title>
<g id="a_Node000011"><a xlink:href="ssattribute_8h.html" target="_top" xlink:title=" ">
<polygon fill="white" stroke="#666666" points="275.75,-240.25 205.75,-240.25 205.75,-221 275.75,-221 275.75,-240.25"/>
<text text-anchor="middle" x="240.75" y="-226.75" font-family="Helvetica,sans-Serif" font-size="10.00">ssattribute.h</text>
</a>
</g>
</g>
<!-- Node1&#45;&gt;Node11 -->
<g id="edge13_Node000001_Node000011" class="edge">
<title>Node1&#45;&gt;Node11</title>
<g id="a_edge13_Node000001_Node000011"><a xlink:title=" ">
<path fill="none" stroke="#63b8ff" d="M129.71,-275.8C153.55,-266.31 184.3,-254.08 207.4,-244.89"/>
<polygon fill="#63b8ff" stroke="#63b8ff" points="208.65,-248.16 216.65,-241.21 206.06,-241.66 208.65,-248.16"/>
</a>
</g>
</g>
<!-- Node3 -->
<g id="Node000003" class="node">
<title>Node3</title>
<g id="a_Node000003"><a xlink:title=" ">
<polygon fill="#e0e0e0" stroke="#999999" points="47.5,-19.25 0,-19.25 0,0 47.5,0 47.5,-19.25"/>
<text text-anchor="middle" x="23.75" y="-5.75" font-family="Helvetica,sans-Serif" font-size="10.00">stdlib.h</text>
</a>
</g>
</g>
<!-- Node2&#45;&gt;Node3 -->
<g id="edge2_Node000002_Node000003" class="edge">
<title>Node2&#45;&gt;Node3</title>
<g id="a_edge2_Node000002_Node000003"><a xlink:title=" ">
<path fill="none" stroke="#63b8ff" d="M76.06,-54.84C67.05,-47.22 53.92,-36.12 43.07,-26.95"/>
<polygon fill="#63b8ff" stroke="#63b8ff" points="45.33,-24.28 35.44,-20.5 40.81,-29.63 45.33,-24.28"/>
</a>
</g>
</g>
<!-- Node4 -->
<g id="Node000004" class="node">
<title>Node4</title>
<g id="a_Node000004"><a xlink:title=" ">
<polygon fill="#e0e0e0" stroke="#999999" points="286.75,-19.25 246.75,-19.25 246.75,0 286.75,0 286.75,-19.25"/>
<text text-anchor="middle" x="266.75" y="-5.75" font-family="Helvetica,sans-Serif" font-size="10.00">string</text>
</a>
</g>
</g>
<!-- Node2&#45;&gt;Node4 -->
<g id="edge3_Node000002_Node000004" class="edge">
<title>Node2&#45;&gt;Node4</title>
<g id="a_edge3_Node000002_Node000004"><a xlink:title=" ">
<path fill="none" stroke="#63b8ff" d="M116.47,-55.08C149.34,-45.36 202.07,-29.76 235.53,-19.86"/>
<polygon fill="#63b8ff" stroke="#63b8ff" points="236.45,-23.24 245.04,-17.05 234.46,-16.53 236.45,-23.24"/>
</a>
</g>
</g>
<!-- Node5 -->
<g id="Node000005" class="node">
<title>Node5</title>
<g id="a_Node000005"><a xlink:title=" ">
<polygon fill="#e0e0e0" stroke="#999999" points="348.25,-19.25 305.25,-19.25 305.25,0 348.25,0 348.25,-19.25"/>
<text text-anchor="middle" x="326.75" y="-5.75" font-family="Helvetica,sans-Serif" font-size="10.00">vector</text>
</a>
</g>
</g>
<!-- Node2&#45;&gt;Node5 -->
<g id="edge4_Node000002_Node000005" class="edge">
<title>Node2&#45;&gt;Node5</title>
<g id="a_edge4_Node000002_Node000005"><a xlink:title=" ">
<path fill="none" stroke="#63b8ff" d="M116.55,-57.25C119.66,-56.57 122.77,-55.9 125.75,-55.25 197.84,-39.65 218.87,-37.76 293.83,-19.59"/>
<polygon fill="#63b8ff" stroke="#63b8ff" points="294.43,-23.05 303.31,-17.28 292.76,-16.25 294.43,-23.05"/>
</a>
</g>
</g>
<!-- Node6 -->
<g id="Node000006" class="node">
<title>Node6</title>
<g id="a_Node000006"><a xlink:title=" ">
<polygon fill="#e0e0e0" stroke="#999999" points="108.25,-19.25 65.25,-19.25 65.25,0 108.25,0 108.25,-19.25"/>
<text text-anchor="middle" x="86.75" y="-5.75" font-family="Helvetica,sans-Serif" font-size="10.00">cmath</text>
</a>
</g>
</g>
<!-- Node2&#45;&gt;Node6 -->
<g id="edge5_Node000002_Node000006" class="edge">
<title>Node2&#45;&gt;Node6</title>
<g id="a_edge5_Node000002_Node000006"><a xlink:title=" ">
<path fill="none" stroke="#63b8ff" d="M86.75,-55.08C86.75,-48.57 86.75,-39.42 86.75,-31.12"/>
<polygon fill="#63b8ff" stroke="#63b8ff" points="90.25,-31.12 86.75,-21.12 83.25,-31.12 90.25,-31.12"/>
</a>
</g>
</g>
<!-- Node7 -->
<g id="Node000007" class="node">
<title>Node7</title>
<g id="a_Node000007"><a xlink:title=" ">
<polygon fill="#e0e0e0" stroke="#999999" points="181.62,-19.25 125.88,-19.25 125.88,0 181.62,0 181.62,-19.25"/>
<text text-anchor="middle" x="153.75" y="-5.75" font-family="Helvetica,sans-Serif" font-size="10.00">algorithm</text>
</a>
</g>
</g>
<!-- Node2&#45;&gt;Node7 -->
<g id="edge6_Node000002_Node000007" class="edge">
<title>Node2&#45;&gt;Node7</title>
<g id="a_edge6_Node000002_Node000007"><a xlink:title=" ">
<path fill="none" stroke="#63b8ff" d="M98.12,-54.84C107.8,-47.15 121.95,-35.9 133.56,-26.68"/>
<polygon fill="#63b8ff" stroke="#63b8ff" points="135.72,-29.43 141.37,-20.47 131.36,-23.95 135.72,-29.43"/>
</a>
</g>
</g>
<!-- Node8&#45;&gt;Node2 -->
<g id="edge9_Node000008_Node000002" class="edge">
<title>Node8&#45;&gt;Node2</title>
<g id="a_edge9_Node000008_Node000002"><a xlink:title=" ">
<path fill="none" stroke="#63b8ff" d="M229.57,-110.09C201.28,-101.33 158.14,-87.98 126.67,-78.23"/>
<polygon fill="#63b8ff" stroke="#63b8ff" points="128.1,-75.01 117.52,-75.4 126.03,-81.7 128.1,-75.01"/>
</a>
</g>
</g>
<!-- Node8&#45;&gt;Node4 -->
<g id="edge10_Node000008_Node000004" class="edge">
<title>Node8&#45;&gt;Node4</title>
<g id="a_edge10_Node000008_Node000004"><a xlink:title=" ">
<path fill="none" stroke="#63b8ff" d="M259.4,-110.25C260.68,-93 263.51,-54.58 265.26,-30.81"/>
<polygon fill="#63b8ff" stroke="#63b8ff" points="268.73,-31.37 265.97,-21.14 261.75,-30.85 268.73,-31.37"/>
</a>
</g>
</g>
<!-- Node8&#45;&gt;Node5 -->
<g id="edge11_Node000008_Node000005" class="edge">
<title>Node8&#45;&gt;Node5</title>
<g id="a_edge11_Node000008_Node000005"><a xlink:title=" ">
<path fill="none" stroke="#63b8ff" d="M264.31,-110.25C275.37,-92.6 300.32,-52.8 315.11,-29.2"/>
<polygon fill="#63b8ff" stroke="#63b8ff" points="317.96,-31.24 320.3,-20.91 312.03,-27.52 317.96,-31.24"/>
</a>
</g>
</g>
<!-- Node9 -->
<g id="Node000009" class="node">
<title>Node9</title>
<g id="a_Node000009"><a xlink:title=" ">
<polygon fill="#e0e0e0" stroke="#999999" points="241.12,-74.5 134.38,-74.5 134.38,-55.25 241.12,-55.25 241.12,-74.5"/>
<text text-anchor="middle" x="187.75" y="-61" font-family="Helvetica,sans-Serif" font-size="10.00">./tinyxml2/tinyxml2.h</text>
</a>
</g>
</g>
<!-- Node8&#45;&gt;Node9 -->
<g id="edge8_Node000008_Node000009" class="edge">
<title>Node8&#45;&gt;Node9</title>
<g id="a_edge8_Node000008_Node000009"><a xlink:title=" ">
<path fill="none" stroke="#63b8ff" d="M246.71,-110.09C236.34,-102.32 221.15,-90.92 208.78,-81.65"/>
<polygon fill="#63b8ff" stroke="#63b8ff" points="210.93,-78.88 200.83,-75.68 206.73,-84.48 210.93,-78.88"/>
</a>
</g>
</g>
<!-- Node10 -->
<g id="Node000010" class="node">
<title>Node10</title>
<g id="a_Node000010"><a xlink:title=" ">
<polygon fill="#e0e0e0" stroke="#999999" points="369.12,-74.5 334.38,-74.5 334.38,-55.25 369.12,-55.25 369.12,-74.5"/>
<text text-anchor="middle" x="351.75" y="-61" font-family="Helvetica,sans-Serif" font-size="10.00">map</text>
</a>
</g>
</g>
<!-- Node8&#45;&gt;Node10 -->
<g id="edge12_Node000008_Node000010" class="edge">
<title>Node8&#45;&gt;Node10</title>
<g id="a_edge12_Node000008_Node000010"><a xlink:title=" ">
<path fill="none" stroke="#63b8ff" d="M274.53,-110.09C288.69,-101.98 309.73,-89.93 326.28,-80.46"/>
<polygon fill="#63b8ff" stroke="#63b8ff" points="327.64,-83.71 334.58,-75.7 324.17,-77.64 327.64,-83.71"/>
</a>
</g>
</g>
<!-- Node11&#45;&gt;Node2 -->
<g id="edge14_Node000011_Node000002" class="edge">
<title>Node11&#45;&gt;Node2</title>
<g id="a_edge14_Node000011_Node000002"><a xlink:title=" ">
<path fill="none" stroke="#63b8ff" d="M211.26,-220.54C191.9,-213.38 167.05,-201.78 149.75,-185 120.32,-156.45 101.66,-111.17 92.82,-85.44"/>
<polygon fill="#63b8ff" stroke="#63b8ff" points="96.25,-84.68 89.82,-76.27 89.6,-86.86 96.25,-84.68"/>
</a>
</g>
</g>
<!-- Node11&#45;&gt;Node10 -->
<g id="edge29_Node000011_Node000010" class="edge">
<title>Node11&#45;&gt;Node10</title>
<g id="a_edge29_Node000011_Node000010"><a xlink:title=" ">
<path fill="none" stroke="#63b8ff" d="M257.73,-220.64C271.21,-212.78 289.72,-200.24 301.75,-185 325.77,-154.58 340.14,-110.95 346.95,-85.8"/>
<polygon fill="#63b8ff" stroke="#63b8ff" points="350.3,-86.81 349.39,-76.26 343.52,-85.08 350.3,-86.81"/>
</a>
</g>
</g>
<!-- Node12 -->
<g id="Node000012" class="node">
<title>Node12</title>
<g id="a_Node000012"><a xlink:href="ssvalue_8h.html" target="_top" xlink:title=" ">
<polygon fill="white" stroke="#666666" points="416.75,-185 358.75,-185 358.75,-165.75 416.75,-165.75 416.75,-185"/>
<text text-anchor="middle" x="387.75" y="-171.5" font-family="Helvetica,sans-Serif" font-size="10.00">ssvalue.h</text>
</a>
</g>
</g>
<!-- Node11&#45;&gt;Node12 -->
<g id="edge15_Node000011_Node000012" class="edge">
<title>Node11&#45;&gt;Node12</title>
<g id="a_edge15_Node000011_Node000012"><a xlink:title=" ">
<path fill="none" stroke="#63b8ff" d="M265.69,-220.59C289.44,-211.99 325.46,-198.94 352.21,-189.25"/>
<polygon fill="#63b8ff" stroke="#63b8ff" points="353.06,-192.66 361.27,-185.97 350.67,-186.08 353.06,-192.66"/>
</a>
</g>
</g>
<!-- Node19 -->
<g id="Node000019" class="node">
<title>Node19</title>
<g id="a_Node000019"><a xlink:href="ss_interpolation_8h.html" target="_top" xlink:title=" ">
<polygon fill="white" stroke="#666666" points="246.75,-185 158.75,-185 158.75,-165.75 246.75,-165.75 246.75,-185"/>
<text text-anchor="middle" x="202.75" y="-171.5" font-family="Helvetica,sans-Serif" font-size="10.00">ssInterpolation.h</text>
</a>
</g>
</g>
<!-- Node11&#45;&gt;Node19 -->
<g id="edge27_Node000011_Node000019" class="edge">
<title>Node11&#45;&gt;Node19</title>
<g id="a_edge27_Node000011_Node000019"><a xlink:title=" ">
<path fill="none" stroke="#63b8ff" d="M234.48,-220.83C229.39,-213.71 222.05,-203.43 215.72,-194.55"/>
<polygon fill="#63b8ff" stroke="#63b8ff" points="218.7,-192.7 210.04,-186.59 213,-196.76 218.7,-192.7"/>
</a>
</g>
</g>
<!-- Node20 -->
<g id="Node000020" class="node">
<title>Node20</title>
<g id="a_Node000020"><a xlink:title=" ">
<polygon fill="#e0e0e0" stroke="#999999" points="293.15,-185 264.35,-185 264.35,-165.75 293.15,-165.75 293.15,-185"/>
<text text-anchor="middle" x="278.75" y="-171.5" font-family="Helvetica,sans-Serif" font-size="10.00">list</text>
</a>
</g>
</g>
<!-- Node11&#45;&gt;Node20 -->
<g id="edge28_Node000011_Node000020" class="edge">
<title>Node11&#45;&gt;Node20</title>
<g id="a_edge28_Node000011_Node000020"><a xlink:title=" ">
<path fill="none" stroke="#63b8ff" d="M247.02,-220.83C252.11,-213.71 259.45,-203.43 265.78,-194.55"/>
<polygon fill="#63b8ff" stroke="#63b8ff" points="268.5,-196.76 271.46,-186.59 262.8,-192.7 268.5,-196.76"/>
</a>
</g>
</g>
<!-- Node12&#45;&gt;Node5 -->
<g id="edge25_Node000012_Node000005" class="edge">
<title>Node12&#45;&gt;Node5</title>
<g id="a_edge25_Node000012_Node000005"><a xlink:title=" ">
<path fill="none" stroke="#63b8ff" d="M389.19,-165.39C392.05,-144.66 396.68,-92.42 377.75,-55.25 371.76,-43.49 361.23,-33.47 351.29,-25.92"/>
<polygon fill="#63b8ff" stroke="#63b8ff" points="353.53,-23.22 343.34,-20.34 349.51,-28.95 353.53,-23.22"/>
</a>
</g>
</g>
<!-- Node12&#45;&gt;Node8 -->
<g id="edge16_Node000012_Node000008" class="edge">
<title>Node12&#45;&gt;Node8</title>
<g id="a_edge16_Node000012_Node000008"><a xlink:title=" ">
<path fill="none" stroke="#63b8ff" d="M365.87,-165.34C345.39,-156.89 314.54,-144.15 291.19,-134.52"/>
<polygon fill="#63b8ff" stroke="#63b8ff" points="292.72,-131.36 282.14,-130.78 290.05,-137.83 292.72,-131.36"/>
</a>
</g>
</g>
<!-- Node12&#45;&gt;Node10 -->
<g id="edge24_Node000012_Node000010" class="edge">
<title>Node12&#45;&gt;Node10</title>
<g id="a_edge24_Node000012_Node000010"><a xlink:title=" ">
<path fill="none" stroke="#63b8ff" d="M384.8,-165.5C379.06,-148.17 366.22,-109.48 358.34,-85.74"/>
<polygon fill="#63b8ff" stroke="#63b8ff" points="361.68,-84.7 355.21,-76.31 355.04,-86.91 361.68,-84.7"/>
</a>
</g>
</g>
<!-- Node13 -->
<g id="Node000013" class="node">
<title>Node13</title>
<g id="a_Node000013"><a xlink:href="ssstring__uty_8h.html" target="_top" xlink:title=" ">
<polygon fill="white" stroke="#666666" points="500.75,-74.5 424.75,-74.5 424.75,-55.25 500.75,-55.25 500.75,-74.5"/>
<text text-anchor="middle" x="462.75" y="-61" font-family="Helvetica,sans-Serif" font-size="10.00">ssstring_uty.h</text>
</a>
</g>
</g>
<!-- Node12&#45;&gt;Node13 -->
<g id="edge17_Node000012_Node000013" class="edge">
<title>Node12&#45;&gt;Node13</title>
<g id="a_edge17_Node000012_Node000013"><a xlink:title=" ">
<path fill="none" stroke="#63b8ff" d="M393.89,-165.5C406.14,-147.77 433.84,-107.69 450.13,-84.13"/>
<polygon fill="#63b8ff" stroke="#63b8ff" points="452.86,-86.34 455.67,-76.12 447.1,-82.36 452.86,-86.34"/>
</a>
</g>
</g>
<!-- Node18 -->
<g id="Node000018" class="node">
<title>Node18</title>
<g id="a_Node000018"><a xlink:title=" ">
<polygon fill="#e0e0e0" stroke="#999999" points="510.88,-129.75 462.62,-129.75 462.62,-110.5 510.88,-110.5 510.88,-129.75"/>
<text text-anchor="middle" x="486.75" y="-116.25" font-family="Helvetica,sans-Serif" font-size="10.00">cassert</text>
</a>
</g>
</g>
<!-- Node12&#45;&gt;Node18 -->
<g id="edge26_Node000012_Node000018" class="edge">
<title>Node12&#45;&gt;Node18</title>
<g id="a_edge26_Node000012_Node000018"><a xlink:title=" ">
<path fill="none" stroke="#63b8ff" d="M404.54,-165.34C419.76,-157.16 442.45,-144.96 460.13,-135.44"/>
<polygon fill="#63b8ff" stroke="#63b8ff" points="461.39,-138.74 468.54,-130.92 458.08,-132.57 461.39,-138.74"/>
</a>
</g>
</g>
<!-- Node13&#45;&gt;Node4 -->
<g id="edge18_Node000013_Node000004" class="edge">
<title>Node13&#45;&gt;Node4</title>
<g id="a_edge18_Node000013_Node000004"><a xlink:title=" ">
<path fill="none" stroke="#63b8ff" d="M428.37,-54.82C396.99,-46.51 349.08,-33.73 298.01,-19.56"/>
<polygon fill="#63b8ff" stroke="#63b8ff" points="299.1,-16.23 288.53,-16.92 297.22,-22.98 299.1,-16.23"/>
</a>
</g>
</g>
<!-- Node13&#45;&gt;Node5 -->
<g id="edge20_Node000013_Node000005" class="edge">
<title>Node13&#45;&gt;Node5</title>
<g id="a_edge20_Node000013_Node000005"><a xlink:title=" ">
<path fill="none" stroke="#63b8ff" d="M439.68,-54.84C417.6,-46.2 384.08,-33.07 359.29,-23.36"/>
<polygon fill="#63b8ff" stroke="#63b8ff" points="360.58,-20.11 349.99,-19.72 358.03,-26.63 360.58,-20.11"/>
</a>
</g>
</g>
<!-- Node14 -->
<g id="Node000014" class="node">
<title>Node14</title>
<g id="a_Node000014"><a xlink:title=" ">
<polygon fill="#e0e0e0" stroke="#999999" points="620.25,-19.25 571.25,-19.25 571.25,0 620.25,0 620.25,-19.25"/>
<text text-anchor="middle" x="595.75" y="-5.75" font-family="Helvetica,sans-Serif" font-size="10.00">fstream</text>
</a>
</g>
</g>
<!-- Node13&#45;&gt;Node14 -->
<g id="edge19_Node000013_Node000014" class="edge">
<title>Node13&#45;&gt;Node14</title>
<g id="a_edge19_Node000013_Node000014"><a xlink:title=" ">
<path fill="none" stroke="#63b8ff" d="M485.31,-54.84C506.52,-46.35 538.52,-33.54 562.63,-23.89"/>
<polygon fill="#63b8ff" stroke="#63b8ff" points="563.69,-27.23 571.67,-20.27 561.09,-20.73 563.69,-27.23"/>
</a>
</g>
</g>
<!-- Node15 -->
<g id="Node000015" class="node">
<title>Node15</title>
<g id="a_Node000015"><a xlink:title=" ">
<polygon fill="#e0e0e0" stroke="#999999" points="419.5,-19.25 366,-19.25 366,0 419.5,0 419.5,-19.25"/>
<text text-anchor="middle" x="392.75" y="-5.75" font-family="Helvetica,sans-Serif" font-size="10.00">iostream</text>
</a>
</g>
</g>
<!-- Node13&#45;&gt;Node15 -->
<g id="edge21_Node000013_Node000015" class="edge">
<title>Node13&#45;&gt;Node15</title>
<g id="a_edge21_Node000013_Node000015"><a xlink:title=" ">
<path fill="none" stroke="#63b8ff" d="M450.88,-54.84C440.66,-47.07 425.68,-35.67 413.49,-26.4"/>
<polygon fill="#63b8ff" stroke="#63b8ff" points="415.73,-23.71 405.65,-20.44 411.49,-29.28 415.73,-23.71"/>
</a>
</g>
</g>
<!-- Node16 -->
<g id="Node000016" class="node">
<title>Node16</title>
<g id="a_Node000016"><a xlink:title=" ">
<polygon fill="#e0e0e0" stroke="#999999" points="488.38,-19.25 437.12,-19.25 437.12,0 488.38,0 488.38,-19.25"/>
<text text-anchor="middle" x="462.75" y="-5.75" font-family="Helvetica,sans-Serif" font-size="10.00">sstream</text>
</a>
</g>
</g>
<!-- Node13&#45;&gt;Node16 -->
<g id="edge22_Node000013_Node000016" class="edge">
<title>Node13&#45;&gt;Node16</title>
<g id="a_edge22_Node000013_Node000016"><a xlink:title=" ">
<path fill="none" stroke="#63b8ff" d="M462.75,-55.08C462.75,-48.57 462.75,-39.42 462.75,-31.12"/>
<polygon fill="#63b8ff" stroke="#63b8ff" points="466.25,-31.12 462.75,-21.12 459.25,-31.12 466.25,-31.12"/>
</a>
</g>
</g>
<!-- Node17 -->
<g id="Node000017" class="node">
<title>Node17</title>
<g id="a_Node000017"><a xlink:title=" ">
<polygon fill="#e0e0e0" stroke="#999999" points="552.75,-19.25 506.75,-19.25 506.75,0 552.75,0 552.75,-19.25"/>
<text text-anchor="middle" x="529.75" y="-5.75" font-family="Helvetica,sans-Serif" font-size="10.00">iterator</text>
</a>
</g>
</g>
<!-- Node13&#45;&gt;Node17 -->
<g id="edge23_Node000013_Node000017" class="edge">
<title>Node13&#45;&gt;Node17</title>
<g id="a_edge23_Node000013_Node000017"><a xlink:title=" ">
<path fill="none" stroke="#63b8ff" d="M474.12,-54.84C483.8,-47.15 497.95,-35.9 509.56,-26.68"/>
<polygon fill="#63b8ff" stroke="#63b8ff" points="511.72,-29.43 517.37,-20.47 507.36,-23.95 511.72,-29.43"/>
</a>
</g>
</g>
</g>
</svg>
