<?xml version="1.0" encoding="UTF-8" standalone="no"?>
<!DOCTYPE svg PUBLIC "-//W3C//DTD SVG 1.1//EN"
 "http://www.w3.org/Graphics/SVG/1.1/DTD/svg11.dtd">
<!-- Generated by graphviz version 12.2.1 (20241206.2353)
 -->
<!-- Title: Common/Loader/ssloader_ssee.cpp Pages: 1 -->
<svg width="1359pt" height="425pt"
 viewBox="0.00 0.00 1358.75 425.25" xmlns="http://www.w3.org/2000/svg" xmlns:xlink="http://www.w3.org/1999/xlink">
<g id="graph0" class="graph" transform="scale(1 1) rotate(0) translate(4 421.25)">
<title>Common/Loader/ssloader_ssee.cpp</title>
<!-- Node1 -->
<g id="Node000001" class="node">
<title>Node1</title>
<g id="a_Node000001"><a xlink:title=" ">
<polygon fill="#999999" stroke="#666666" points="892.88,-417.25 765.12,-417.25 765.12,-386.75 892.88,-386.75 892.88,-417.25"/>
<text text-anchor="start" x="773.12" y="-403.75" font-family="Helvetica,sans-Serif" font-size="10.00">Common/Loader/ssloader</text>
<text text-anchor="middle" x="829" y="-392.5" font-family="Helvetica,sans-Serif" font-size="10.00">_ssee.cpp</text>
</a>
</g>
</g>
<!-- Node2 -->
<g id="Node000002" class="node">
<title>Node2</title>
<g id="a_Node000002"><a xlink:href="ssloader__sspj_8h.html" target="_top" xlink:title=" ">
<polygon fill="white" stroke="#666666" points="747.12,-350.75 662.88,-350.75 662.88,-331.5 747.12,-331.5 747.12,-350.75"/>
<text text-anchor="middle" x="705" y="-337.25" font-family="Helvetica,sans-Serif" font-size="10.00">ssloader_sspj.h</text>
</a>
</g>
</g>
<!-- Node1&#45;&gt;Node2 -->
<g id="edge1_Node000001_Node000002" class="edge">
<title>Node1&#45;&gt;Node2</title>
<g id="a_edge1_Node000001_Node000002"><a xlink:title=" ">
<path fill="none" stroke="#63b8ff" d="M798.03,-386.3C778.51,-377.03 753.46,-365.13 734.27,-356.02"/>
<polygon fill="#63b8ff" stroke="#63b8ff" points="735.92,-352.93 725.38,-351.8 732.92,-359.25 735.92,-352.93"/>
</a>
</g>
</g>
<!-- Node12 -->
<g id="Node000012" class="node">
<title>Node12</title>
<g id="a_Node000012"><a xlink:href="ssstring__uty_8h.html" target="_top" xlink:title=" ">
<polygon fill="white" stroke="#666666" points="218,-129.75 142,-129.75 142,-110.5 218,-110.5 218,-129.75"/>
<text text-anchor="middle" x="180" y="-116.25" font-family="Helvetica,sans-Serif" font-size="10.00">ssstring_uty.h</text>
</a>
</g>
</g>
<!-- Node1&#45;&gt;Node12 -->
<g id="edge57_Node000001_Node000012" class="edge">
<title>Node1&#45;&gt;Node12</title>
<g id="a_edge57_Node000001_Node000012"><a xlink:title=" ">
<path fill="none" stroke="#63b8ff" d="M764.91,-396.6C599.31,-384.36 170,-346.85 170,-286.88 170,-286.88 170,-286.88 170,-229.62 170,-198.78 174.06,-163.2 177,-141.44"/>
<polygon fill="#63b8ff" stroke="#63b8ff" points="180.46,-141.99 178.4,-131.6 173.53,-141.01 180.46,-141.99"/>
</a>
</g>
</g>
<!-- Node17 -->
<g id="Node000017" class="node">
<title>Node17</title>
<g id="a_Node000017"><a xlink:href="ssloader__ssae_8h.html" target="_top" xlink:title=" ">
<polygon fill="white" stroke="#666666" points="554.62,-295.5 467.38,-295.5 467.38,-276.25 554.62,-276.25 554.62,-295.5"/>
<text text-anchor="middle" x="511" y="-282" font-family="Helvetica,sans-Serif" font-size="10.00">ssloader_ssae.h</text>
</a>
</g>
</g>
<!-- Node1&#45;&gt;Node17 -->
<g id="edge54_Node000001_Node000017" class="edge">
<title>Node1&#45;&gt;Node17</title>
<g id="a_edge54_Node000001_Node000017"><a xlink:title=" ">
<path fill="none" stroke="#63b8ff" d="M770.01,-386.28C735.76,-377.18 692.01,-364.62 654,-350.75 613.23,-335.87 567.71,-314.72 539.21,-300.9"/>
<polygon fill="#63b8ff" stroke="#63b8ff" points="541.05,-297.9 530.53,-296.65 537.98,-304.19 541.05,-297.9"/>
</a>
</g>
</g>
<!-- Node23 -->
<g id="Node000023" class="node">
<title>Node23</title>
<g id="a_Node000023"><a xlink:href="ssloader__ssce_8h.html" target="_top" xlink:title=" ">
<polygon fill="white" stroke="#666666" points="793.62,-240.25 706.38,-240.25 706.38,-221 793.62,-221 793.62,-240.25"/>
<text text-anchor="middle" x="750" y="-226.75" font-family="Helvetica,sans-Serif" font-size="10.00">ssloader_ssce.h</text>
</a>
</g>
</g>
<!-- Node1&#45;&gt;Node23 -->
<g id="edge55_Node000001_Node000023" class="edge">
<title>Node1&#45;&gt;Node23</title>
<g id="a_edge55_Node000001_Node000023"><a xlink:title=" ">
<path fill="none" stroke="#63b8ff" d="M822.13,-386.27C807.83,-355.61 774.88,-284.97 758.95,-250.81"/>
<polygon fill="#63b8ff" stroke="#63b8ff" points="762.29,-249.69 754.89,-242.11 755.94,-252.65 762.29,-249.69"/>
</a>
</g>
</g>
<!-- Node24 -->
<g id="Node000024" class="node">
<title>Node24</title>
<g id="a_Node000024"><a xlink:href="ssloader__ssee_8h.html" target="_top" xlink:title=" ">
<polygon fill="white" stroke="#666666" points="982.62,-295.5 895.38,-295.5 895.38,-276.25 982.62,-276.25 982.62,-295.5"/>
<text text-anchor="middle" x="939" y="-282" font-family="Helvetica,sans-Serif" font-size="10.00">ssloader_ssee.h</text>
</a>
</g>
</g>
<!-- Node1&#45;&gt;Node24 -->
<g id="edge56_Node000001_Node000024" class="edge">
<title>Node1&#45;&gt;Node24</title>
<g id="a_edge56_Node000001_Node000024"><a xlink:title=" ">
<path fill="none" stroke="#63b8ff" d="M842.93,-386.55C863.15,-365.56 900.59,-326.73 922.27,-304.23"/>
<polygon fill="#63b8ff" stroke="#63b8ff" points="924.78,-306.67 929.2,-297.04 919.74,-301.81 924.78,-306.67"/>
</a>
</g>
</g>
<!-- Node30 -->
<g id="Node000030" class="node">
<title>Node30</title>
<g id="a_Node000030"><a xlink:href="ss_filesystem_8h.html" target="_top" xlink:title=" ">
<polygon fill="white" stroke="#666666" points="1243.38,-350.75 1160.62,-350.75 1160.62,-331.5 1243.38,-331.5 1243.38,-350.75"/>
<text text-anchor="middle" x="1202" y="-337.25" font-family="Helvetica,sans-Serif" font-size="10.00">ssFilesystem.h</text>
</a>
</g>
</g>
<!-- Node1&#45;&gt;Node30 -->
<g id="edge58_Node000001_Node000030" class="edge">
<title>Node1&#45;&gt;Node30</title>
<g id="a_edge58_Node000001_Node000030"><a xlink:title=" ">
<path fill="none" stroke="#63b8ff" d="M893.12,-390.88C965.48,-379.46 1081.85,-361.09 1149.19,-350.46"/>
<polygon fill="#63b8ff" stroke="#63b8ff" points="1149.54,-353.95 1158.88,-348.93 1148.45,-347.03 1149.54,-353.95"/>
</a>
</g>
</g>
<!-- Node32 -->
<g id="Node000032" class="node">
<title>Node32</title>
<g id="a_Node000032"><a xlink:href="_debug_print_8h.html" target="_top" xlink:title=" ">
<polygon fill="white" stroke="#666666" points="1350.75,-240.25 1237.25,-240.25 1237.25,-221 1350.75,-221 1350.75,-240.25"/>
<text text-anchor="middle" x="1294" y="-226.75" font-family="Helvetica,sans-Serif" font-size="10.00">../Helper/DebugPrint.h</text>
</a>
</g>
</g>
<!-- Node1&#45;&gt;Node32 -->
<g id="edge61_Node000001_Node000032" class="edge">
<title>Node1&#45;&gt;Node32</title>
<g id="a_edge61_Node000001_Node000032"><a xlink:title=" ">
<path fill="none" stroke="#63b8ff" d="M893.04,-400.55C996.66,-398.65 1195.19,-389.85 1252,-350.75 1284.12,-328.64 1291.88,-279.76 1293.63,-251.98"/>
<polygon fill="#63b8ff" stroke="#63b8ff" points="1297.12,-252.19 1294.02,-242.06 1290.13,-251.92 1297.12,-252.19"/>
</a>
</g>
</g>
<!-- Node3 -->
<g id="Node000003" class="node">
<title>Node3</title>
<g id="a_Node000003"><a xlink:href="sstypes_8h.html" target="_top" xlink:title=" ">
<polygon fill="white" stroke="#666666" points="846.38,-74.5 787.62,-74.5 787.62,-55.25 846.38,-55.25 846.38,-74.5"/>
<text text-anchor="middle" x="817" y="-61" font-family="Helvetica,sans-Serif" font-size="10.00">sstypes.h</text>
</a>
</g>
</g>
<!-- Node2&#45;&gt;Node3 -->
<g id="edge2_Node000002_Node000003" class="edge">
<title>Node2&#45;&gt;Node3</title>
<g id="a_edge2_Node000002_Node000003"><a xlink:title=" ">
<path fill="none" stroke="#63b8ff" d="M718.13,-331.2C747.89,-310.04 819.85,-253.44 845,-185 856.43,-153.9 857.91,-142.12 848,-110.5 844.95,-100.75 838.93,-91.27 833,-83.57"/>
<polygon fill="#63b8ff" stroke="#63b8ff" points="835.83,-81.49 826.74,-76.04 830.45,-85.97 835.83,-81.49"/>
</a>
</g>
</g>
<!-- Node9 -->
<g id="Node000009" class="node">
<title>Node9</title>
<g id="a_Node000009"><a xlink:href="ssarchiver_8h.html" target="_top" xlink:title=" ">
<polygon fill="white" stroke="#666666" points="698.25,-129.75 629.75,-129.75 629.75,-110.5 698.25,-110.5 698.25,-129.75"/>
<text text-anchor="middle" x="664" y="-116.25" font-family="Helvetica,sans-Serif" font-size="10.00">ssarchiver.h</text>
</a>
</g>
</g>
<!-- Node2&#45;&gt;Node9 -->
<g id="edge8_Node000002_Node000009" class="edge">
<title>Node2&#45;&gt;Node9</title>
<g id="a_edge8_Node000002_Node000009"><a xlink:title=" ">
<path fill="none" stroke="#63b8ff" d="M699.75,-331.23C694.83,-322.46 687.7,-308.51 684,-295.5 668.55,-241.16 664.99,-174.08 664.2,-141.2"/>
<polygon fill="#63b8ff" stroke="#63b8ff" points="667.7,-141.48 664.04,-131.54 660.71,-141.6 667.7,-141.48"/>
</a>
</g>
</g>
<!-- Node2&#45;&gt;Node12 -->
<g id="edge14_Node000002_Node000012" class="edge">
<title>Node2&#45;&gt;Node12</title>
<g id="a_edge14_Node000002_Node000012"><a xlink:title=" ">
<path fill="none" stroke="#63b8ff" d="M662.45,-336.55C612.39,-331.41 527.31,-319.75 458,-295.5 360.3,-261.32 338.04,-244.01 253,-185 232.38,-170.69 211.02,-151.39 196.78,-137.76"/>
<polygon fill="#63b8ff" stroke="#63b8ff" points="199.59,-135.62 189.98,-131.16 194.71,-140.64 199.59,-135.62"/>
</a>
</g>
</g>
<!-- Node2&#45;&gt;Node17 -->
<g id="edge21_Node000002_Node000017" class="edge">
<title>Node2&#45;&gt;Node17</title>
<g id="a_edge21_Node000002_Node000017"><a xlink:title=" ">
<path fill="none" stroke="#63b8ff" d="M672.09,-331.09C639.9,-322.26 590.66,-308.74 555.1,-298.98"/>
<polygon fill="#63b8ff" stroke="#63b8ff" points="556.1,-295.62 545.53,-296.35 554.25,-302.38 556.1,-295.62"/>
</a>
</g>
</g>
<!-- Node2&#45;&gt;Node23 -->
<g id="edge35_Node000002_Node000023" class="edge">
<title>Node2&#45;&gt;Node23</title>
<g id="a_edge35_Node000002_Node000023"><a xlink:title=" ">
<path fill="none" stroke="#63b8ff" d="M708.68,-331.25C715.9,-313.84 732.06,-274.87 741.9,-251.16"/>
<polygon fill="#63b8ff" stroke="#63b8ff" points="745.09,-252.6 745.69,-242.02 738.62,-249.92 745.09,-252.6"/>
</a>
</g>
</g>
<!-- Node2&#45;&gt;Node24 -->
<g id="edge38_Node000002_Node000024" class="edge">
<title>Node2&#45;&gt;Node24</title>
<g id="a_edge38_Node000002_Node000024"><a xlink:title=" ">
<path fill="none" stroke="#63b8ff" d="M744.96,-331.03C784.5,-322.03 845.18,-308.23 888.14,-298.45"/>
<polygon fill="#63b8ff" stroke="#63b8ff" points="888.75,-301.9 897.73,-296.27 887.2,-295.07 888.75,-301.9"/>
</a>
</g>
</g>
<!-- Node27 -->
<g id="Node000027" class="node">
<title>Node27</title>
<g id="a_Node000027"><a xlink:title=" ">
<polygon fill="#e0e0e0" stroke="#999999" points="963.62,-185 912.38,-185 912.38,-165.75 963.62,-165.75 963.62,-185"/>
<text text-anchor="middle" x="938" y="-171.5" font-family="Helvetica,sans-Serif" font-size="10.00">memory</text>
</a>
</g>
</g>
<!-- Node2&#45;&gt;Node27 -->
<g id="edge52_Node000002_Node000027" class="edge">
<title>Node2&#45;&gt;Node27</title>
<g id="a_edge52_Node000002_Node000027"><a xlink:title=" ">
<path fill="none" stroke="#63b8ff" d="M717.86,-331.09C755.89,-304.36 868.15,-225.46 916,-191.84"/>
<polygon fill="#63b8ff" stroke="#63b8ff" points="917.77,-194.87 923.94,-186.25 913.75,-189.14 917.77,-194.87"/>
</a>
</g>
</g>
<!-- Node28 -->
<g id="Node000028" class="node">
<title>Node28</title>
<g id="a_Node000028"><a xlink:href="ssloader__ssqe_8h.html" target="_top" xlink:title=" ">
<polygon fill="white" stroke="#666666" points="817.62,-185 730.38,-185 730.38,-165.75 817.62,-165.75 817.62,-185"/>
<text text-anchor="middle" x="774" y="-171.5" font-family="Helvetica,sans-Serif" font-size="10.00">ssloader_ssqe.h</text>
</a>
</g>
</g>
<!-- Node2&#45;&gt;Node28 -->
<g id="edge49_Node000002_Node000028" class="edge">
<title>Node2&#45;&gt;Node28</title>
<g id="a_edge49_Node000002_Node000028"><a xlink:title=" ">
<path fill="none" stroke="#63b8ff" d="M701.29,-331.3C693.16,-310.47 676.09,-257.28 697,-221 705.13,-206.89 719.62,-196.83 733.86,-189.88"/>
<polygon fill="#63b8ff" stroke="#63b8ff" points="734.97,-193.22 742.7,-185.97 732.14,-186.82 734.97,-193.22"/>
</a>
</g>
</g>
<!-- Node29 -->
<g id="Node000029" class="node">
<title>Node29</title>
<g id="a_Node000029"><a xlink:title=" ">
<polygon fill="#e0e0e0" stroke="#999999" points="611.62,-295.5 572.38,-295.5 572.38,-276.25 611.62,-276.25 611.62,-295.5"/>
<text text-anchor="middle" x="592" y="-282" font-family="Helvetica,sans-Serif" font-size="10.00">utility</text>
</a>
</g>
</g>
<!-- Node2&#45;&gt;Node29 -->
<g id="edge53_Node000002_Node000029" class="edge">
<title>Node2&#45;&gt;Node29</title>
<g id="a_edge53_Node000002_Node000029"><a xlink:title=" ">
<path fill="none" stroke="#63b8ff" d="M685.83,-331.09C668.22,-322.79 641.84,-310.36 621.54,-300.79"/>
<polygon fill="#63b8ff" stroke="#63b8ff" points="623.17,-297.69 612.63,-296.6 620.19,-304.03 623.17,-297.69"/>
</a>
</g>
</g>
<!-- Node4 -->
<g id="Node000004" class="node">
<title>Node4</title>
<g id="a_Node000004"><a xlink:title=" ">
<polygon fill="#e0e0e0" stroke="#999999" points="935.75,-19.25 888.25,-19.25 888.25,0 935.75,0 935.75,-19.25"/>
<text text-anchor="middle" x="912" y="-5.75" font-family="Helvetica,sans-Serif" font-size="10.00">stdlib.h</text>
</a>
</g>
</g>
<!-- Node3&#45;&gt;Node4 -->
<g id="edge3_Node000003_Node000004" class="edge">
<title>Node3&#45;&gt;Node4</title>
<g id="a_edge3_Node000003_Node000004"><a xlink:title=" ">
<path fill="none" stroke="#63b8ff" d="M833.12,-54.84C847.58,-46.73 869.08,-34.68 885.98,-25.21"/>
<polygon fill="#63b8ff" stroke="#63b8ff" points="887.47,-28.39 894.49,-20.44 884.05,-22.28 887.47,-28.39"/>
</a>
</g>
</g>
<!-- Node5 -->
<g id="Node000005" class="node">
<title>Node5</title>
<g id="a_Node000005"><a xlink:title=" ">
<polygon fill="#e0e0e0" stroke="#999999" points="870,-19.25 830,-19.25 830,0 870,0 870,-19.25"/>
<text text-anchor="middle" x="850" y="-5.75" font-family="Helvetica,sans-Serif" font-size="10.00">string</text>
</a>
</g>
</g>
<!-- Node3&#45;&gt;Node5 -->
<g id="edge4_Node000003_Node000005" class="edge">
<title>Node3&#45;&gt;Node5</title>
<g id="a_edge4_Node000003_Node000005"><a xlink:title=" ">
<path fill="none" stroke="#63b8ff" d="M822.45,-55.08C826.77,-48.11 832.96,-38.12 838.38,-29.37"/>
<polygon fill="#63b8ff" stroke="#63b8ff" points="841.34,-31.24 843.64,-20.9 835.39,-27.55 841.34,-31.24"/>
</a>
</g>
</g>
<!-- Node6 -->
<g id="Node000006" class="node">
<title>Node6</title>
<g id="a_Node000006"><a xlink:title=" ">
<polygon fill="#e0e0e0" stroke="#999999" points="486.5,-19.25 443.5,-19.25 443.5,0 486.5,0 486.5,-19.25"/>
<text text-anchor="middle" x="465" y="-5.75" font-family="Helvetica,sans-Serif" font-size="10.00">vector</text>
</a>
</g>
</g>
<!-- Node3&#45;&gt;Node6 -->
<g id="edge5_Node000003_Node000006" class="edge">
<title>Node3&#45;&gt;Node6</title>
<g id="a_edge5_Node000003_Node000006"><a xlink:title=" ">
<path fill="none" stroke="#63b8ff" d="M787.29,-59.38C721.93,-49.49 566.08,-25.92 497.89,-15.6"/>
<polygon fill="#63b8ff" stroke="#63b8ff" points="498.5,-12.15 488.09,-14.12 497.46,-19.07 498.5,-12.15"/>
</a>
</g>
</g>
<!-- Node7 -->
<g id="Node000007" class="node">
<title>Node7</title>
<g id="a_Node000007"><a xlink:title=" ">
<polygon fill="#e0e0e0" stroke="#999999" points="738.5,-19.25 695.5,-19.25 695.5,0 738.5,0 738.5,-19.25"/>
<text text-anchor="middle" x="717" y="-5.75" font-family="Helvetica,sans-Serif" font-size="10.00">cmath</text>
</a>
</g>
</g>
<!-- Node3&#45;&gt;Node7 -->
<g id="edge6_Node000003_Node000007" class="edge">
<title>Node3&#45;&gt;Node7</title>
<g id="a_edge6_Node000003_Node000007"><a xlink:title=" ">
<path fill="none" stroke="#63b8ff" d="M800.04,-54.84C784.74,-46.69 761.97,-34.57 744.14,-25.08"/>
<polygon fill="#63b8ff" stroke="#63b8ff" points="745.85,-22.02 735.38,-20.41 742.56,-28.2 745.85,-22.02"/>
</a>
</g>
</g>
<!-- Node8 -->
<g id="Node000008" class="node">
<title>Node8</title>
<g id="a_Node000008"><a xlink:title=" ">
<polygon fill="#e0e0e0" stroke="#999999" points="811.88,-19.25 756.12,-19.25 756.12,0 811.88,0 811.88,-19.25"/>
<text text-anchor="middle" x="784" y="-5.75" font-family="Helvetica,sans-Serif" font-size="10.00">algorithm</text>
</a>
</g>
</g>
<!-- Node3&#45;&gt;Node8 -->
<g id="edge7_Node000003_Node000008" class="edge">
<title>Node3&#45;&gt;Node8</title>
<g id="a_edge7_Node000003_Node000008"><a xlink:title=" ">
<path fill="none" stroke="#63b8ff" d="M811.55,-55.08C807.23,-48.11 801.04,-38.12 795.62,-29.37"/>
<polygon fill="#63b8ff" stroke="#63b8ff" points="798.61,-27.55 790.36,-20.9 792.66,-31.24 798.61,-27.55"/>
</a>
</g>
</g>
<!-- Node9&#45;&gt;Node3 -->
<g id="edge10_Node000009_Node000003" class="edge">
<title>Node9&#45;&gt;Node3</title>
<g id="a_edge10_Node000009_Node000003"><a xlink:title=" ">
<path fill="none" stroke="#63b8ff" d="M689.95,-110.09C714.79,-101.45 752.5,-88.32 780.38,-78.62"/>
<polygon fill="#63b8ff" stroke="#63b8ff" points="781.19,-82.04 789.49,-75.45 778.89,-75.43 781.19,-82.04"/>
</a>
</g>
</g>
<!-- Node9&#45;&gt;Node5 -->
<g id="edge11_Node000009_Node000005" class="edge">
<title>Node9&#45;&gt;Node5</title>
<g id="a_edge11_Node000009_Node000005"><a xlink:title=" ">
<path fill="none" stroke="#63b8ff" d="M679.54,-110.06C711.61,-91.35 785.4,-48.31 824.54,-25.48"/>
<polygon fill="#63b8ff" stroke="#63b8ff" points="826.19,-28.56 833.07,-20.5 822.67,-22.52 826.19,-28.56"/>
</a>
</g>
</g>
<!-- Node9&#45;&gt;Node6 -->
<g id="edge12_Node000009_Node000006" class="edge">
<title>Node9&#45;&gt;Node6</title>
<g id="a_edge12_Node000009_Node000006"><a xlink:title=" ">
<path fill="none" stroke="#63b8ff" d="M647.38,-110.06C612.92,-91.27 533.44,-47.94 491.7,-25.18"/>
<polygon fill="#63b8ff" stroke="#63b8ff" points="493.5,-22.18 483.05,-20.46 490.15,-28.32 493.5,-22.18"/>
</a>
</g>
</g>
<!-- Node10 -->
<g id="Node000010" class="node">
<title>Node10</title>
<g id="a_Node000010"><a xlink:title=" ">
<polygon fill="#e0e0e0" stroke="#999999" points="717.38,-74.5 610.62,-74.5 610.62,-55.25 717.38,-55.25 717.38,-74.5"/>
<text text-anchor="middle" x="664" y="-61" font-family="Helvetica,sans-Serif" font-size="10.00">./tinyxml2/tinyxml2.h</text>
</a>
</g>
</g>
<!-- Node9&#45;&gt;Node10 -->
<g id="edge9_Node000009_Node000010" class="edge">
<title>Node9&#45;&gt;Node10</title>
<g id="a_edge9_Node000009_Node000010"><a xlink:title=" ">
<path fill="none" stroke="#63b8ff" d="M664,-110.33C664,-103.82 664,-94.67 664,-86.37"/>
<polygon fill="#63b8ff" stroke="#63b8ff" points="667.5,-86.37 664,-76.37 660.5,-86.37 667.5,-86.37"/>
</a>
</g>
</g>
<!-- Node11 -->
<g id="Node000011" class="node">
<title>Node11</title>
<g id="a_Node000011"><a xlink:title=" ">
<polygon fill="#e0e0e0" stroke="#999999" points="382.38,-74.5 347.62,-74.5 347.62,-55.25 382.38,-55.25 382.38,-74.5"/>
<text text-anchor="middle" x="365" y="-61" font-family="Helvetica,sans-Serif" font-size="10.00">map</text>
</a>
</g>
</g>
<!-- Node9&#45;&gt;Node11 -->
<g id="edge13_Node000009_Node000011" class="edge">
<title>Node9&#45;&gt;Node11</title>
<g id="a_edge13_Node000009_Node000011"><a xlink:title=" ">
<path fill="none" stroke="#63b8ff" d="M629.41,-112.96C569.83,-102.35 448.95,-80.83 393.71,-70.99"/>
<polygon fill="#63b8ff" stroke="#63b8ff" points="394.61,-67.59 384.15,-69.28 393.38,-74.48 394.61,-67.59"/>
</a>
</g>
</g>
<!-- Node12&#45;&gt;Node5 -->
<g id="edge15_Node000012_Node000005" class="edge">
<title>Node12&#45;&gt;Node5</title>
<g id="a_edge15_Node000012_Node000005"><a xlink:title=" ">
<path fill="none" stroke="#63b8ff" d="M206.53,-110.14C231.05,-101.63 268.37,-88.15 300,-74.5 317.75,-66.84 320.35,-60.34 339,-55.25 542.69,0.36 607.51,-56.1 818.4,-19.31"/>
<polygon fill="#63b8ff" stroke="#63b8ff" points="818.83,-22.79 828.05,-17.57 817.59,-15.9 818.83,-22.79"/>
</a>
</g>
</g>
<!-- Node12&#45;&gt;Node6 -->
<g id="edge17_Node000012_Node000006" class="edge">
<title>Node12&#45;&gt;Node6</title>
<g id="a_edge17_Node000012_Node000006"><a xlink:title=" ">
<path fill="none" stroke="#63b8ff" d="M196.94,-110.02C226.02,-94.47 284.4,-63.66 306,-55.25 348.47,-38.71 399.51,-25.5 432.1,-17.87"/>
<polygon fill="#63b8ff" stroke="#63b8ff" points="432.78,-21.3 441.74,-15.65 431.21,-14.48 432.78,-21.3"/>
</a>
</g>
</g>
<!-- Node13 -->
<g id="Node000013" class="node">
<title>Node13</title>
<g id="a_Node000013"><a xlink:title=" ">
<polygon fill="#e0e0e0" stroke="#999999" points="113.5,-74.5 64.5,-74.5 64.5,-55.25 113.5,-55.25 113.5,-74.5"/>
<text text-anchor="middle" x="89" y="-61" font-family="Helvetica,sans-Serif" font-size="10.00">fstream</text>
</a>
</g>
</g>
<!-- Node12&#45;&gt;Node13 -->
<g id="edge16_Node000012_Node000013" class="edge">
<title>Node12&#45;&gt;Node13</title>
<g id="a_edge16_Node000012_Node000013"><a xlink:title=" ">
<path fill="none" stroke="#63b8ff" d="M164.56,-110.09C150.84,-102.06 130.5,-90.16 114.38,-80.73"/>
<polygon fill="#63b8ff" stroke="#63b8ff" points="116.22,-77.75 105.82,-75.72 112.68,-83.79 116.22,-77.75"/>
</a>
</g>
</g>
<!-- Node14 -->
<g id="Node000014" class="node">
<title>Node14</title>
<g id="a_Node000014"><a xlink:title=" ">
<polygon fill="#e0e0e0" stroke="#999999" points="184.75,-74.5 131.25,-74.5 131.25,-55.25 184.75,-55.25 184.75,-74.5"/>
<text text-anchor="middle" x="158" y="-61" font-family="Helvetica,sans-Serif" font-size="10.00">iostream</text>
</a>
</g>
</g>
<!-- Node12&#45;&gt;Node14 -->
<g id="edge18_Node000012_Node000014" class="edge">
<title>Node12&#45;&gt;Node14</title>
<g id="a_edge18_Node000012_Node000014"><a xlink:title=" ">
<path fill="none" stroke="#63b8ff" d="M176.37,-110.33C173.58,-103.59 169.63,-94.02 166.1,-85.49"/>
<polygon fill="#63b8ff" stroke="#63b8ff" points="169.34,-84.16 162.29,-76.26 162.87,-86.84 169.34,-84.16"/>
</a>
</g>
</g>
<!-- Node15 -->
<g id="Node000015" class="node">
<title>Node15</title>
<g id="a_Node000015"><a xlink:title=" ">
<polygon fill="#e0e0e0" stroke="#999999" points="253.62,-74.5 202.38,-74.5 202.38,-55.25 253.62,-55.25 253.62,-74.5"/>
<text text-anchor="middle" x="228" y="-61" font-family="Helvetica,sans-Serif" font-size="10.00">sstream</text>
</a>
</g>
</g>
<!-- Node12&#45;&gt;Node15 -->
<g id="edge19_Node000012_Node000015" class="edge">
<title>Node12&#45;&gt;Node15</title>
<g id="a_edge19_Node000012_Node000015"><a xlink:title=" ">
<path fill="none" stroke="#63b8ff" d="M187.93,-110.33C194.56,-102.98 204.22,-92.26 212.39,-83.19"/>
<polygon fill="#63b8ff" stroke="#63b8ff" points="214.79,-85.75 218.89,-75.98 209.59,-81.07 214.79,-85.75"/>
</a>
</g>
</g>
<!-- Node16 -->
<g id="Node000016" class="node">
<title>Node16</title>
<g id="a_Node000016"><a xlink:title=" ">
<polygon fill="#e0e0e0" stroke="#999999" points="46,-74.5 0,-74.5 0,-55.25 46,-55.25 46,-74.5"/>
<text text-anchor="middle" x="23" y="-61" font-family="Helvetica,sans-Serif" font-size="10.00">iterator</text>
</a>
</g>
</g>
<!-- Node12&#45;&gt;Node16 -->
<g id="edge20_Node000012_Node000016" class="edge">
<title>Node12&#45;&gt;Node16</title>
<g id="a_edge20_Node000012_Node000016"><a xlink:title=" ">
<path fill="none" stroke="#63b8ff" d="M153.37,-110.09C126.88,-101.11 86.12,-87.28 57.24,-77.49"/>
<polygon fill="#63b8ff" stroke="#63b8ff" points="58.45,-74.2 47.86,-74.31 56.21,-80.83 58.45,-74.2"/>
</a>
</g>
</g>
<!-- Node17&#45;&gt;Node3 -->
<g id="edge22_Node000017_Node000003" class="edge">
<title>Node17&#45;&gt;Node3</title>
<g id="a_edge22_Node000017_Node000003"><a xlink:title=" ">
<path fill="none" stroke="#63b8ff" d="M513.86,-275.91C523.62,-246.87 558.48,-154.75 621,-110.5 645.59,-93.09 726.17,-78.87 776.03,-71.45"/>
<polygon fill="#63b8ff" stroke="#63b8ff" points="776.49,-74.92 785.88,-70.02 775.48,-67.99 776.49,-74.92"/>
</a>
</g>
</g>
<!-- Node17&#45;&gt;Node9 -->
<g id="edge23_Node000017_Node000009" class="edge">
<title>Node17&#45;&gt;Node9</title>
<g id="a_edge23_Node000017_Node000009"><a xlink:title=" ">
<path fill="none" stroke="#63b8ff" d="M523.71,-275.89C535.07,-267.48 551.76,-254.16 564,-240.25 590.02,-210.68 586.12,-195.44 612,-165.75 621.12,-155.28 632.73,-145.09 642.67,-137.09"/>
<polygon fill="#63b8ff" stroke="#63b8ff" points="644.63,-140 650.35,-131.09 640.32,-134.48 644.63,-140"/>
</a>
</g>
</g>
<!-- Node18 -->
<g id="Node000018" class="node">
<title>Node18</title>
<g id="a_Node000018"><a xlink:href="ssattribute_8h.html" target="_top" xlink:title=" ">
<polygon fill="white" stroke="#666666" points="460,-240.25 390,-240.25 390,-221 460,-221 460,-240.25"/>
<text text-anchor="middle" x="425" y="-226.75" font-family="Helvetica,sans-Serif" font-size="10.00">ssattribute.h</text>
</a>
</g>
</g>
<!-- Node17&#45;&gt;Node18 -->
<g id="edge24_Node000017_Node000018" class="edge">
<title>Node17&#45;&gt;Node18</title>
<g id="a_edge24_Node000017_Node000018"><a xlink:title=" ">
<path fill="none" stroke="#63b8ff" d="M496.41,-275.84C483.56,-267.89 464.59,-256.14 449.43,-246.75"/>
<polygon fill="#63b8ff" stroke="#63b8ff" points="451.29,-243.79 440.95,-241.5 447.61,-249.74 451.29,-243.79"/>
</a>
</g>
</g>
<!-- Node18&#45;&gt;Node3 -->
<g id="edge25_Node000018_Node000003" class="edge">
<title>Node18&#45;&gt;Node3</title>
<g id="a_edge25_Node000018_Node000003"><a xlink:title=" ">
<path fill="none" stroke="#63b8ff" d="M443.44,-220.61C458.17,-212.74 478.65,-200.19 493,-185 519.25,-157.2 504.5,-132.16 536,-110.5 555.49,-97.1 703.07,-78.78 776.19,-70.39"/>
<polygon fill="#63b8ff" stroke="#63b8ff" points="776.21,-73.91 785.75,-69.31 775.42,-66.96 776.21,-73.91"/>
</a>
</g>
</g>
<!-- Node18&#45;&gt;Node11 -->
<g id="edge34_Node000018_Node000011" class="edge">
<title>Node18&#45;&gt;Node11</title>
<g id="a_edge34_Node000018_Node000011"><a xlink:title=" ">
<path fill="none" stroke="#63b8ff" d="M389.84,-224.8C347.46,-218.18 280.04,-204.81 265,-185 235.25,-145.81 298.51,-102.06 337.45,-80.09"/>
<polygon fill="#63b8ff" stroke="#63b8ff" points="338.81,-83.34 345.9,-75.47 335.45,-77.2 338.81,-83.34"/>
</a>
</g>
</g>
<!-- Node19 -->
<g id="Node000019" class="node">
<title>Node19</title>
<g id="a_Node000019"><a xlink:href="ssvalue_8h.html" target="_top" xlink:title=" ">
<polygon fill="white" stroke="#666666" points="484,-185 426,-185 426,-165.75 484,-165.75 484,-185"/>
<text text-anchor="middle" x="455" y="-171.5" font-family="Helvetica,sans-Serif" font-size="10.00">ssvalue.h</text>
</a>
</g>
</g>
<!-- Node18&#45;&gt;Node19 -->
<g id="edge26_Node000018_Node000019" class="edge">
<title>Node18&#45;&gt;Node19</title>
<g id="a_edge26_Node000018_Node000019"><a xlink:title=" ">
<path fill="none" stroke="#63b8ff" d="M429.95,-220.83C433.88,-213.86 439.51,-203.87 444.44,-195.12"/>
<polygon fill="#63b8ff" stroke="#63b8ff" points="447.34,-197.11 449.2,-186.68 441.24,-193.67 447.34,-197.11"/>
</a>
</g>
</g>
<!-- Node21 -->
<g id="Node000021" class="node">
<title>Node21</title>
<g id="a_Node000021"><a xlink:href="ss_interpolation_8h.html" target="_top" xlink:title=" ">
<polygon fill="white" stroke="#666666" points="362,-185 274,-185 274,-165.75 362,-165.75 362,-185"/>
<text text-anchor="middle" x="318" y="-171.5" font-family="Helvetica,sans-Serif" font-size="10.00">ssInterpolation.h</text>
</a>
</g>
</g>
<!-- Node18&#45;&gt;Node21 -->
<g id="edge32_Node000018_Node000021" class="edge">
<title>Node18&#45;&gt;Node21</title>
<g id="a_edge32_Node000018_Node000021"><a xlink:title=" ">
<path fill="none" stroke="#63b8ff" d="M406.85,-220.59C390.32,-212.37 365.66,-200.09 346.5,-190.56"/>
<polygon fill="#63b8ff" stroke="#63b8ff" points="348.11,-187.45 337.6,-186.13 344.99,-193.72 348.11,-187.45"/>
</a>
</g>
</g>
<!-- Node22 -->
<g id="Node000022" class="node">
<title>Node22</title>
<g id="a_Node000022"><a xlink:title=" ">
<polygon fill="#e0e0e0" stroke="#999999" points="408.4,-185 379.6,-185 379.6,-165.75 408.4,-165.75 408.4,-185"/>
<text text-anchor="middle" x="394" y="-171.5" font-family="Helvetica,sans-Serif" font-size="10.00">list</text>
</a>
</g>
</g>
<!-- Node18&#45;&gt;Node22 -->
<g id="edge33_Node000018_Node000022" class="edge">
<title>Node18&#45;&gt;Node22</title>
<g id="a_edge33_Node000018_Node000022"><a xlink:title=" ">
<path fill="none" stroke="#63b8ff" d="M419.88,-220.83C415.82,-213.86 410.01,-203.87 404.91,-195.12"/>
<polygon fill="#63b8ff" stroke="#63b8ff" points="408.05,-193.55 399.99,-186.67 402,-197.07 408.05,-193.55"/>
</a>
</g>
</g>
<!-- Node19&#45;&gt;Node6 -->
<g id="edge30_Node000019_Node000006" class="edge">
<title>Node19&#45;&gt;Node6</title>
<g id="a_edge30_Node000019_Node000006"><a xlink:title=" ">
<path fill="none" stroke="#63b8ff" d="M447.33,-165.54C440.48,-157.03 430.95,-143.46 427,-129.75 424.63,-121.53 425.45,-118.91 427,-110.5 432.38,-81.21 445.95,-49.39 455.33,-29.73"/>
<polygon fill="#63b8ff" stroke="#63b8ff" points="458.34,-31.54 459.6,-21.02 452.05,-28.45 458.34,-31.54"/>
</a>
</g>
</g>
<!-- Node19&#45;&gt;Node9 -->
<g id="edge27_Node000019_Node000009" class="edge">
<title>Node19&#45;&gt;Node9</title>
<g id="a_edge27_Node000019_Node000009"><a xlink:title=" ">
<path fill="none" stroke="#63b8ff" d="M484.06,-166.97C518.82,-158.12 577.41,-143.19 618.26,-132.78"/>
<polygon fill="#63b8ff" stroke="#63b8ff" points="618.98,-136.21 627.81,-130.35 617.25,-129.42 618.98,-136.21"/>
</a>
</g>
</g>
<!-- Node19&#45;&gt;Node11 -->
<g id="edge29_Node000019_Node000011" class="edge">
<title>Node19&#45;&gt;Node11</title>
<g id="a_edge29_Node000019_Node000011"><a xlink:title=" ">
<path fill="none" stroke="#63b8ff" d="M438.13,-165.29C424.73,-157.38 406.25,-144.82 394,-129.75 383.41,-116.73 375.82,-99.22 371.07,-85.82"/>
<polygon fill="#63b8ff" stroke="#63b8ff" points="374.41,-84.77 367.96,-76.36 367.75,-86.96 374.41,-84.77"/>
</a>
</g>
</g>
<!-- Node19&#45;&gt;Node12 -->
<g id="edge28_Node000019_Node000012" class="edge">
<title>Node19&#45;&gt;Node12</title>
<g id="a_edge28_Node000019_Node000012"><a xlink:title=" ">
<path fill="none" stroke="#63b8ff" d="M425.57,-167.58C422.67,-166.95 419.78,-166.33 417,-165.75 352.43,-152.35 277.59,-138.54 229.57,-129.91"/>
<polygon fill="#63b8ff" stroke="#63b8ff" points="230.21,-126.47 219.75,-128.15 228.98,-133.36 230.21,-126.47"/>
</a>
</g>
</g>
<!-- Node20 -->
<g id="Node000020" class="node">
<title>Node20</title>
<g id="a_Node000020"><a xlink:title=" ">
<polygon fill="#e0e0e0" stroke="#999999" points="484.12,-129.75 435.88,-129.75 435.88,-110.5 484.12,-110.5 484.12,-129.75"/>
<text text-anchor="middle" x="460" y="-116.25" font-family="Helvetica,sans-Serif" font-size="10.00">cassert</text>
</a>
</g>
</g>
<!-- Node19&#45;&gt;Node20 -->
<g id="edge31_Node000019_Node000020" class="edge">
<title>Node19&#45;&gt;Node20</title>
<g id="a_edge31_Node000019_Node000020"><a xlink:title=" ">
<path fill="none" stroke="#63b8ff" d="M455.83,-165.58C456.44,-158.99 457.32,-149.71 458.1,-141.32"/>
<polygon fill="#63b8ff" stroke="#63b8ff" points="461.56,-141.9 459.01,-131.62 454.6,-141.25 461.56,-141.9"/>
</a>
</g>
</g>
<!-- Node23&#45;&gt;Node3 -->
<g id="edge36_Node000023_Node000003" class="edge">
<title>Node23&#45;&gt;Node3</title>
<g id="a_edge36_Node000023_Node000003"><a xlink:title=" ">
<path fill="none" stroke="#63b8ff" d="M779.92,-220.64C796.97,-213.81 816.89,-202.54 827,-185 844.99,-153.78 833.98,-110.13 825.03,-85.26"/>
<polygon fill="#63b8ff" stroke="#63b8ff" points="828.36,-84.16 821.49,-76.1 821.84,-86.69 828.36,-84.16"/>
</a>
</g>
</g>
<!-- Node23&#45;&gt;Node9 -->
<g id="edge37_Node000023_Node000009" class="edge">
<title>Node23&#45;&gt;Node9</title>
<g id="a_edge37_Node000023_Node000009"><a xlink:title=" ">
<path fill="none" stroke="#63b8ff" d="M732.01,-220.51C718.28,-212.73 699.77,-200.38 688,-185 678.08,-172.03 671.88,-154.52 668.28,-141.11"/>
<polygon fill="#63b8ff" stroke="#63b8ff" points="671.75,-140.57 666.02,-131.67 664.94,-142.21 671.75,-140.57"/>
</a>
</g>
</g>
<!-- Node24&#45;&gt;Node3 -->
<g id="edge39_Node000024_Node000003" class="edge">
<title>Node24&#45;&gt;Node3</title>
<g id="a_edge39_Node000024_Node000003"><a xlink:title=" ">
<path fill="none" stroke="#63b8ff" d="M983.04,-276.94C1045.42,-263.3 1149.28,-230.41 1124,-165.75 1111.83,-134.63 1102.34,-126.49 1073,-110.5 1004.13,-72.97 910.74,-65.83 857.89,-65.12"/>
<polygon fill="#63b8ff" stroke="#63b8ff" points="858.16,-61.62 848.14,-65.06 858.12,-68.62 858.16,-61.62"/>
</a>
</g>
</g>
<!-- Node24&#45;&gt;Node9 -->
<g id="edge40_Node000024_Node000009" class="edge">
<title>Node24&#45;&gt;Node9</title>
<g id="a_edge40_Node000024_Node000009"><a xlink:title=" ">
<path fill="none" stroke="#63b8ff" d="M920.15,-275.84C893.96,-263.32 845.04,-240.1 803,-221 766.76,-204.54 753.21,-208.38 721,-185 703.39,-172.21 687.27,-153.15 676.7,-139.18"/>
<polygon fill="#63b8ff" stroke="#63b8ff" points="679.67,-137.3 670.94,-131.29 674.01,-141.43 679.67,-137.3"/>
</a>
</g>
</g>
<!-- Node25 -->
<g id="Node000025" class="node">
<title>Node25</title>
<g id="a_Node000025"><a xlink:href="_ss_effect_behavior_8h.html" target="_top" xlink:title=" ">
<polygon fill="white" stroke="#666666" points="1033,-240.25 933,-240.25 933,-221 1033,-221 1033,-240.25"/>
<text text-anchor="middle" x="983" y="-226.75" font-family="Helvetica,sans-Serif" font-size="10.00">SsEffectBehavior.h</text>
</a>
</g>
</g>
<!-- Node24&#45;&gt;Node25 -->
<g id="edge41_Node000024_Node000025" class="edge">
<title>Node24&#45;&gt;Node25</title>
<g id="a_edge41_Node000024_Node000025"><a xlink:title=" ">
<path fill="none" stroke="#63b8ff" d="M946.27,-276.08C952.28,-268.8 961.01,-258.23 968.46,-249.23"/>
<polygon fill="#63b8ff" stroke="#63b8ff" points="970.94,-251.71 974.61,-241.78 965.54,-247.26 970.94,-251.71"/>
</a>
</g>
</g>
<!-- Node25&#45;&gt;Node3 -->
<g id="edge46_Node000025_Node000003" class="edge">
<title>Node25&#45;&gt;Node3</title>
<g id="a_edge46_Node000025_Node000003"><a xlink:title=" ">
<path fill="none" stroke="#63b8ff" d="M1033.37,-222.4C1076.78,-213.93 1129.22,-196.9 1107,-165.75 1049.8,-85.55 923.84,-69.11 858.36,-66.15"/>
<polygon fill="#63b8ff" stroke="#63b8ff" points="858.5,-62.66 848.38,-65.8 858.25,-69.65 858.5,-62.66"/>
</a>
</g>
</g>
<!-- Node25&#45;&gt;Node19 -->
<g id="edge47_Node000025_Node000019" class="edge">
<title>Node25&#45;&gt;Node19</title>
<g id="a_edge47_Node000025_Node000019"><a xlink:title=" ">
<path fill="none" stroke="#63b8ff" d="M932.85,-224.57C828.8,-214.07 591.21,-190.11 495.78,-180.49"/>
<polygon fill="#63b8ff" stroke="#63b8ff" points="496.15,-177.01 485.85,-179.49 495.45,-183.97 496.15,-177.01"/>
</a>
</g>
</g>
<!-- Node26 -->
<g id="Node000026" class="node">
<title>Node26</title>
<g id="a_Node000026"><a xlink:href="_ss_effect_element_8h.html" target="_top" xlink:title=" ">
<polygon fill="white" stroke="#666666" points="1080.25,-185 981.75,-185 981.75,-165.75 1080.25,-165.75 1080.25,-185"/>
<text text-anchor="middle" x="1031" y="-171.5" font-family="Helvetica,sans-Serif" font-size="10.00">SsEffectElement.h</text>
</a>
</g>
</g>
<!-- Node25&#45;&gt;Node26 -->
<g id="edge42_Node000025_Node000026" class="edge">
<title>Node25&#45;&gt;Node26</title>
<g id="a_edge42_Node000025_Node000026"><a xlink:title=" ">
<path fill="none" stroke="#63b8ff" d="M990.93,-220.83C997.56,-213.48 1007.22,-202.76 1015.39,-193.69"/>
<polygon fill="#63b8ff" stroke="#63b8ff" points="1017.79,-196.25 1021.89,-186.48 1012.59,-191.57 1017.79,-196.25"/>
</a>
</g>
</g>
<!-- Node25&#45;&gt;Node27 -->
<g id="edge48_Node000025_Node000027" class="edge">
<title>Node25&#45;&gt;Node27</title>
<g id="a_edge48_Node000025_Node000027"><a xlink:title=" ">
<path fill="none" stroke="#63b8ff" d="M975.57,-220.83C969.42,-213.55 960.49,-202.98 952.87,-193.98"/>
<polygon fill="#63b8ff" stroke="#63b8ff" points="955.7,-191.89 946.57,-186.52 950.35,-196.41 955.7,-191.89"/>
</a>
</g>
</g>
<!-- Node26&#45;&gt;Node3 -->
<g id="edge43_Node000026_Node000003" class="edge">
<title>Node26&#45;&gt;Node3</title>
<g id="a_edge43_Node000026_Node000003"><a xlink:title=" ">
<path fill="none" stroke="#63b8ff" d="M1013.12,-165.31C975.91,-146.44 889.87,-102.82 845.15,-80.15"/>
<polygon fill="#63b8ff" stroke="#63b8ff" points="846.83,-77.07 836.33,-75.67 843.66,-83.32 846.83,-77.07"/>
</a>
</g>
</g>
<!-- Node26&#45;&gt;Node9 -->
<g id="edge44_Node000026_Node000009" class="edge">
<title>Node26&#45;&gt;Node9</title>
<g id="a_edge44_Node000026_Node000009"><a xlink:title=" ">
<path fill="none" stroke="#63b8ff" d="M981.33,-166.97C978.51,-166.56 975.72,-166.15 973,-165.75 879.48,-152.04 770,-136.31 709.69,-127.66"/>
<polygon fill="#63b8ff" stroke="#63b8ff" points="710.19,-124.2 699.8,-126.25 709.2,-131.13 710.19,-124.2"/>
</a>
</g>
</g>
<!-- Node26&#45;&gt;Node26 -->
<g id="edge45_Node000026_Node000026" class="edge">
<title>Node26&#45;&gt;Node26</title>
<g id="a_edge45_Node000026_Node000026"><a xlink:title=" ">
<path fill="none" stroke="#63b8ff" d="M1066.29,-185.48C1083.27,-186.73 1098.25,-183.36 1098.25,-175.38 1098.25,-169.26 1089.47,-165.85 1077.73,-165.15"/>
<polygon fill="#63b8ff" stroke="#63b8ff" points="1077.77,-161.65 1067.8,-165.25 1077.84,-168.65 1077.77,-161.65"/>
</a>
</g>
</g>
<!-- Node28&#45;&gt;Node3 -->
<g id="edge50_Node000028_Node000003" class="edge">
<title>Node28&#45;&gt;Node3</title>
<g id="a_edge50_Node000028_Node000003"><a xlink:title=" ">
<path fill="none" stroke="#63b8ff" d="M777.52,-165.5C784.42,-148.09 799.86,-109.12 809.26,-85.41"/>
<polygon fill="#63b8ff" stroke="#63b8ff" points="812.44,-86.87 812.87,-76.28 805.94,-84.29 812.44,-86.87"/>
</a>
</g>
</g>
<!-- Node28&#45;&gt;Node9 -->
<g id="edge51_Node000028_Node000009" class="edge">
<title>Node28&#45;&gt;Node9</title>
<g id="a_edge51_Node000028_Node000009"><a xlink:title=" ">
<path fill="none" stroke="#63b8ff" d="M755.34,-165.34C738.27,-157.08 712.76,-144.73 693.03,-135.18"/>
<polygon fill="#63b8ff" stroke="#63b8ff" points="694.64,-132.07 684.11,-130.86 691.59,-138.37 694.64,-132.07"/>
</a>
</g>
</g>
<!-- Node30&#45;&gt;Node5 -->
<g id="edge59_Node000030_Node000005" class="edge">
<title>Node30&#45;&gt;Node5</title>
<g id="a_edge59_Node000030_Node000005"><a xlink:title=" ">
<path fill="none" stroke="#63b8ff" d="M1202,-331.12C1202,-312.53 1202,-268.55 1202,-231.62 1202,-231.62 1202,-231.62 1202,-119.12 1202,-117.04 967.61,-46.11 881.36,-20.08"/>
<polygon fill="#63b8ff" stroke="#63b8ff" points="882.48,-16.76 871.9,-17.22 880.46,-23.46 882.48,-16.76"/>
</a>
</g>
</g>
<!-- Node31 -->
<g id="Node000031" class="node">
<title>Node31</title>
<g id="a_Node000031"><a xlink:title=" ">
<polygon fill="#e0e0e0" stroke="#999999" points="1272.12,-295.5 1229.88,-295.5 1229.88,-276.25 1272.12,-276.25 1272.12,-295.5"/>
<text text-anchor="middle" x="1251" y="-282" font-family="Helvetica,sans-Serif" font-size="10.00">cstdio</text>
</a>
</g>
</g>
<!-- Node30&#45;&gt;Node31 -->
<g id="edge60_Node000030_Node000031" class="edge">
<title>Node30&#45;&gt;Node31</title>
<g id="a_edge60_Node000030_Node000031"><a xlink:title=" ">
<path fill="none" stroke="#63b8ff" d="M1210.09,-331.33C1216.86,-323.98 1226.72,-313.26 1235.06,-304.19"/>
<polygon fill="#63b8ff" stroke="#63b8ff" points="1237.51,-306.7 1241.71,-296.97 1232.36,-301.96 1237.51,-306.7"/>
</a>
</g>
</g>
<!-- Node32&#45;&gt;Node5 -->
<g id="edge62_Node000032_Node000005" class="edge">
<title>Node32&#45;&gt;Node5</title>
<g id="a_edge62_Node000032_Node000005"><a xlink:title=" ">
<path fill="none" stroke="#63b8ff" d="M1293.08,-220.86C1289.49,-191.67 1273.69,-97.16 1216,-55.25 1157.69,-12.88 969.96,-32.19 881.74,-19.18"/>
<polygon fill="#63b8ff" stroke="#63b8ff" points="882.42,-15.74 871.97,-17.48 881.22,-22.64 882.42,-15.74"/>
</a>
</g>
</g>
</g>
</svg>
