<?xml version="1.0" encoding="UTF-8" standalone="no"?>
<!DOCTYPE svg PUBLIC "-//W3C//DTD SVG 1.1//EN"
 "http://www.w3.org/Graphics/SVG/1.1/DTD/svg11.dtd">
<!-- Generated by graphviz version 9.0.0 (20230911.1827)
 -->
<!-- Title: Common/Loader/ssloader_sspj.h Pages: 1 -->
<svg width="1223pt" height="370pt"
 viewBox="0.00 0.00 1223.00 370.00" xmlns="http://www.w3.org/2000/svg" xmlns:xlink="http://www.w3.org/1999/xlink">
<g id="graph0" class="graph" transform="scale(1 1) rotate(0) translate(4 366)">
<title>Common/Loader/ssloader_sspj.h</title>
<!-- Node1 -->
<g id="Node000001" class="node">
<title>Node1</title>
<g id="a_Node000001"><a xlink:title=" ">
<polygon fill="#999999" stroke="#666666" points="579.88,-362 452.12,-362 452.12,-331.5 579.88,-331.5 579.88,-362"/>
<text text-anchor="start" x="460.12" y="-348.5" font-family="Helvetica,sans-Serif" font-size="10.00">Common/Loader/ssloader</text>
<text text-anchor="middle" x="516" y="-337.25" font-family="Helvetica,sans-Serif" font-size="10.00">_sspj.h</text>
</a>
</g>
</g>
<!-- Node2 -->
<g id="Node000002" class="node">
<title>Node2</title>
<g id="a_Node000002"><a xlink:href="sstypes_8h.html" target="_top" xlink:title=" ">
<polygon fill="white" stroke="#666666" points="507.38,-74.5 448.62,-74.5 448.62,-55.25 507.38,-55.25 507.38,-74.5"/>
<text text-anchor="middle" x="478" y="-61" font-family="Helvetica,sans-Serif" font-size="10.00">sstypes.h</text>
</a>
</g>
</g>
<!-- Node1&#45;&gt;Node2 -->
<g id="edge1_Node000001_Node000002" class="edge">
<title>Node1&#45;&gt;Node2</title>
<g id="a_edge1_Node000001_Node000002"><a xlink:title=" ">
<path fill="none" stroke="#63b8ff" d="M451.69,-344.9C313.37,-341.33 0,-323.14 0,-231.62 0,-231.62 0,-231.62 0,-174.38 0,-85.1 321.11,-69.28 436.96,-66.48"/>
<polygon fill="#63b8ff" stroke="#63b8ff" points="437.03,-69.98 446.95,-66.26 436.87,-62.98 437.03,-69.98"/>
</a>
</g>
</g>
<!-- Node8 -->
<g id="Node000008" class="node">
<title>Node8</title>
<g id="a_Node000008"><a xlink:href="ssarchiver_8h.html" target="_top" xlink:title=" ">
<polygon fill="white" stroke="#666666" points="716.25,-129.75 647.75,-129.75 647.75,-110.5 716.25,-110.5 716.25,-129.75"/>
<text text-anchor="middle" x="682" y="-116.25" font-family="Helvetica,sans-Serif" font-size="10.00">ssarchiver.h</text>
</a>
</g>
</g>
<!-- Node1&#45;&gt;Node8 -->
<g id="edge7_Node000001_Node000008" class="edge">
<title>Node1&#45;&gt;Node8</title>
<g id="a_edge7_Node000001_Node000008"><a xlink:title=" ">
<path fill="none" stroke="#63b8ff" d="M520.75,-331.12C531.99,-298.29 562.95,-217.57 611,-165.75 622.52,-153.33 638.23,-142.98 651.95,-135.39"/>
<polygon fill="#63b8ff" stroke="#63b8ff" points="653.38,-138.59 660.6,-130.83 650.12,-132.39 653.38,-138.59"/>
</a>
</g>
</g>
<!-- Node11 -->
<g id="Node000011" class="node">
<title>Node11</title>
<g id="a_Node000011"><a xlink:href="ssstring__uty_8h.html" target="_top" xlink:title=" ">
<polygon fill="white" stroke="#666666" points="1024,-129.75 948,-129.75 948,-110.5 1024,-110.5 1024,-129.75"/>
<text text-anchor="middle" x="986" y="-116.25" font-family="Helvetica,sans-Serif" font-size="10.00">ssstring_uty.h</text>
</a>
</g>
</g>
<!-- Node1&#45;&gt;Node11 -->
<g id="edge13_Node000001_Node000011" class="edge">
<title>Node1&#45;&gt;Node11</title>
<g id="a_edge13_Node000001_Node000011"><a xlink:title=" ">
<path fill="none" stroke="#63b8ff" d="M580.24,-342.28C645.83,-337.21 749.82,-324.93 835,-295.5 882.63,-279.05 897.85,-275.35 934,-240.25 962.24,-212.83 976.14,-167.46 982.13,-141.34"/>
<polygon fill="#63b8ff" stroke="#63b8ff" points="985.52,-142.21 984.15,-131.71 978.67,-140.77 985.52,-142.21"/>
</a>
</g>
</g>
<!-- Node16 -->
<g id="Node000016" class="node">
<title>Node16</title>
<g id="a_Node000016"><a xlink:href="ssloader__ssae_8h.html" target="_top" xlink:title=" ">
<polygon fill="white" stroke="#666666" points="471.62,-295.5 384.38,-295.5 384.38,-276.25 471.62,-276.25 471.62,-295.5"/>
<text text-anchor="middle" x="428" y="-282" font-family="Helvetica,sans-Serif" font-size="10.00">ssloader_ssae.h</text>
</a>
</g>
</g>
<!-- Node1&#45;&gt;Node16 -->
<g id="edge20_Node000001_Node000016" class="edge">
<title>Node1&#45;&gt;Node16</title>
<g id="a_edge20_Node000001_Node000016"><a xlink:title=" ">
<path fill="none" stroke="#63b8ff" d="M494.25,-331.2C481.11,-322.4 464.37,-311.21 451.01,-302.27"/>
<polygon fill="#63b8ff" stroke="#63b8ff" points="453.08,-299.44 442.82,-296.79 449.19,-305.26 453.08,-299.44"/>
</a>
</g>
</g>
<!-- Node22 -->
<g id="Node000022" class="node">
<title>Node22</title>
<g id="a_Node000022"><a xlink:href="ssloader__ssce_8h.html" target="_top" xlink:title=" ">
<polygon fill="white" stroke="#666666" points="115.62,-185 28.38,-185 28.38,-165.75 115.62,-165.75 115.62,-185"/>
<text text-anchor="middle" x="72" y="-171.5" font-family="Helvetica,sans-Serif" font-size="10.00">ssloader_ssce.h</text>
</a>
</g>
</g>
<!-- Node1&#45;&gt;Node22 -->
<g id="edge34_Node000001_Node000022" class="edge">
<title>Node1&#45;&gt;Node22</title>
<g id="a_edge34_Node000001_Node000022"><a xlink:title=" ">
<path fill="none" stroke="#63b8ff" d="M457.42,-331.09C423.12,-321.97 379.18,-309.36 341,-295.5 251.06,-262.85 148.71,-214.19 100.27,-190.44"/>
<polygon fill="#63b8ff" stroke="#63b8ff" points="102.11,-187.45 91.59,-186.17 99.01,-193.73 102.11,-187.45"/>
</a>
</g>
</g>
<!-- Node23 -->
<g id="Node000023" class="node">
<title>Node23</title>
<g id="a_Node000023"><a xlink:href="ssloader__ssee_8h.html" target="_top" xlink:title=" ">
<polygon fill="white" stroke="#666666" points="725.62,-295.5 638.38,-295.5 638.38,-276.25 725.62,-276.25 725.62,-295.5"/>
<text text-anchor="middle" x="682" y="-282" font-family="Helvetica,sans-Serif" font-size="10.00">ssloader_ssee.h</text>
</a>
</g>
</g>
<!-- Node1&#45;&gt;Node23 -->
<g id="edge37_Node000001_Node000023" class="edge">
<title>Node1&#45;&gt;Node23</title>
<g id="a_edge37_Node000001_Node000023"><a xlink:title=" ">
<path fill="none" stroke="#63b8ff" d="M557.46,-331.05C584.69,-321.39 619.94,-308.88 645.99,-299.65"/>
<polygon fill="#63b8ff" stroke="#63b8ff" points="646.86,-303.05 655.12,-296.41 644.52,-296.45 646.86,-303.05"/>
</a>
</g>
</g>
<!-- Node26 -->
<g id="Node000026" class="node">
<title>Node26</title>
<g id="a_Node000026"><a xlink:title=" ">
<polygon fill="#e0e0e0" stroke="#999999" points="957.62,-185 906.38,-185 906.38,-165.75 957.62,-165.75 957.62,-185"/>
<text text-anchor="middle" x="932" y="-171.5" font-family="Helvetica,sans-Serif" font-size="10.00">memory</text>
</a>
</g>
</g>
<!-- Node1&#45;&gt;Node26 -->
<g id="edge51_Node000001_Node000026" class="edge">
<title>Node1&#45;&gt;Node26</title>
<g id="a_edge51_Node000001_Node000026"><a xlink:title=" ">
<path fill="none" stroke="#63b8ff" d="M580.03,-336.98C680.62,-321.92 868.96,-288.05 915,-240.25 926.21,-228.61 930.23,-210.43 931.58,-196.45"/>
<polygon fill="#63b8ff" stroke="#63b8ff" points="935.07,-196.77 932.12,-186.59 928.08,-196.39 935.07,-196.77"/>
</a>
</g>
</g>
<!-- Node27 -->
<g id="Node000027" class="node">
<title>Node27</title>
<g id="a_Node000027"><a xlink:href="ssloader__ssqe_8h.html" target="_top" xlink:title=" ">
<polygon fill="white" stroke="#666666" points="259.62,-185 172.38,-185 172.38,-165.75 259.62,-165.75 259.62,-185"/>
<text text-anchor="middle" x="216" y="-171.5" font-family="Helvetica,sans-Serif" font-size="10.00">ssloader_ssqe.h</text>
</a>
</g>
</g>
<!-- Node1&#45;&gt;Node27 -->
<g id="edge48_Node000001_Node000027" class="edge">
<title>Node1&#45;&gt;Node27</title>
<g id="a_edge48_Node000001_Node000027"><a xlink:title=" ">
<path fill="none" stroke="#63b8ff" d="M463.17,-331.08C435.99,-322.51 402.82,-310.43 375,-295.5 319.57,-265.75 262.42,-217.92 234.13,-192.88"/>
<polygon fill="#63b8ff" stroke="#63b8ff" points="236.6,-190.39 226.82,-186.33 231.93,-195.61 236.6,-190.39"/>
</a>
</g>
</g>
<!-- Node28 -->
<g id="Node000028" class="node">
<title>Node28</title>
<g id="a_Node000028"><a xlink:title=" ">
<polygon fill="#e0e0e0" stroke="#999999" points="1053.62,-295.5 1014.38,-295.5 1014.38,-276.25 1053.62,-276.25 1053.62,-295.5"/>
<text text-anchor="middle" x="1034" y="-282" font-family="Helvetica,sans-Serif" font-size="10.00">utility</text>
</a>
</g>
</g>
<!-- Node1&#45;&gt;Node28 -->
<g id="edge52_Node000001_Node000028" class="edge">
<title>Node1&#45;&gt;Node28</title>
<g id="a_edge52_Node000001_Node000028"><a xlink:title=" ">
<path fill="none" stroke="#63b8ff" d="M580.22,-342.06C673.31,-336.03 850.91,-322.01 1000,-295.5 1001,-295.32 1002.01,-295.13 1003.03,-294.93"/>
<polygon fill="#63b8ff" stroke="#63b8ff" points="1003.5,-298.41 1012.49,-292.8 1001.97,-291.58 1003.5,-298.41"/>
</a>
</g>
</g>
<!-- Node3 -->
<g id="Node000003" class="node">
<title>Node3</title>
<g id="a_Node000003"><a xlink:title=" ">
<polygon fill="#e0e0e0" stroke="#999999" points="571.75,-19.25 524.25,-19.25 524.25,0 571.75,0 571.75,-19.25"/>
<text text-anchor="middle" x="548" y="-5.75" font-family="Helvetica,sans-Serif" font-size="10.00">stdlib.h</text>
</a>
</g>
</g>
<!-- Node2&#45;&gt;Node3 -->
<g id="edge2_Node000002_Node000003" class="edge">
<title>Node2&#45;&gt;Node3</title>
<g id="a_edge2_Node000002_Node000003"><a xlink:title=" ">
<path fill="none" stroke="#63b8ff" d="M489.87,-54.84C500.09,-47.07 515.07,-35.67 527.26,-26.4"/>
<polygon fill="#63b8ff" stroke="#63b8ff" points="529.26,-29.28 535.1,-20.44 525.02,-23.71 529.26,-29.28"/>
</a>
</g>
</g>
<!-- Node4 -->
<g id="Node000004" class="node">
<title>Node4</title>
<g id="a_Node000004"><a xlink:title=" ">
<polygon fill="#e0e0e0" stroke="#999999" points="702,-19.25 662,-19.25 662,0 702,0 702,-19.25"/>
<text text-anchor="middle" x="682" y="-5.75" font-family="Helvetica,sans-Serif" font-size="10.00">string</text>
</a>
</g>
</g>
<!-- Node2&#45;&gt;Node4 -->
<g id="edge3_Node000002_Node000004" class="edge">
<title>Node2&#45;&gt;Node4</title>
<g id="a_edge3_Node000002_Node000004"><a xlink:title=" ">
<path fill="none" stroke="#63b8ff" d="M507.66,-56.13C545.88,-46.16 612.02,-28.89 650.92,-18.74"/>
<polygon fill="#63b8ff" stroke="#63b8ff" points="651.33,-22.25 660.12,-16.34 649.56,-15.48 651.33,-22.25"/>
</a>
</g>
</g>
<!-- Node5 -->
<g id="Node000005" class="node">
<title>Node5</title>
<g id="a_Node000005"><a xlink:title=" ">
<polygon fill="#e0e0e0" stroke="#999999" points="825.5,-19.25 782.5,-19.25 782.5,0 825.5,0 825.5,-19.25"/>
<text text-anchor="middle" x="804" y="-5.75" font-family="Helvetica,sans-Serif" font-size="10.00">vector</text>
</a>
</g>
</g>
<!-- Node2&#45;&gt;Node5 -->
<g id="edge4_Node000002_Node000005" class="edge">
<title>Node2&#45;&gt;Node5</title>
<g id="a_edge4_Node000002_Node000005"><a xlink:title=" ">
<path fill="none" stroke="#63b8ff" d="M507.79,-59.01C568.78,-49.05 707.44,-26.4 771.02,-16.01"/>
<polygon fill="#63b8ff" stroke="#63b8ff" points="771.54,-19.47 780.85,-14.41 770.41,-12.56 771.54,-19.47"/>
</a>
</g>
</g>
<!-- Node6 -->
<g id="Node000006" class="node">
<title>Node6</title>
<g id="a_Node000006"><a xlink:title=" ">
<polygon fill="#e0e0e0" stroke="#999999" points="432.5,-19.25 389.5,-19.25 389.5,0 432.5,0 432.5,-19.25"/>
<text text-anchor="middle" x="411" y="-5.75" font-family="Helvetica,sans-Serif" font-size="10.00">cmath</text>
</a>
</g>
</g>
<!-- Node2&#45;&gt;Node6 -->
<g id="edge5_Node000002_Node000006" class="edge">
<title>Node2&#45;&gt;Node6</title>
<g id="a_edge5_Node000002_Node000006"><a xlink:title=" ">
<path fill="none" stroke="#63b8ff" d="M466.63,-54.84C456.95,-47.15 442.8,-35.9 431.19,-26.68"/>
<polygon fill="#63b8ff" stroke="#63b8ff" points="433.39,-23.95 423.38,-20.47 429.03,-29.43 433.39,-23.95"/>
</a>
</g>
</g>
<!-- Node7 -->
<g id="Node000007" class="node">
<title>Node7</title>
<g id="a_Node000007"><a xlink:title=" ">
<polygon fill="#e0e0e0" stroke="#999999" points="505.88,-19.25 450.12,-19.25 450.12,0 505.88,0 505.88,-19.25"/>
<text text-anchor="middle" x="478" y="-5.75" font-family="Helvetica,sans-Serif" font-size="10.00">algorithm</text>
</a>
</g>
</g>
<!-- Node2&#45;&gt;Node7 -->
<g id="edge6_Node000002_Node000007" class="edge">
<title>Node2&#45;&gt;Node7</title>
<g id="a_edge6_Node000002_Node000007"><a xlink:title=" ">
<path fill="none" stroke="#63b8ff" d="M478,-55.08C478,-48.57 478,-39.42 478,-31.12"/>
<polygon fill="#63b8ff" stroke="#63b8ff" points="481.5,-31.12 478,-21.12 474.5,-31.12 481.5,-31.12"/>
</a>
</g>
</g>
<!-- Node8&#45;&gt;Node2 -->
<g id="edge9_Node000008_Node000002" class="edge">
<title>Node8&#45;&gt;Node2</title>
<g id="a_edge9_Node000008_Node000002"><a xlink:title=" ">
<path fill="none" stroke="#63b8ff" d="M647.39,-110.09C611.85,-100.81 556.55,-86.38 518.88,-76.54"/>
<polygon fill="#63b8ff" stroke="#63b8ff" points="519.82,-73.17 509.26,-74.03 518.05,-79.95 519.82,-73.17"/>
</a>
</g>
</g>
<!-- Node8&#45;&gt;Node4 -->
<g id="edge10_Node000008_Node000004" class="edge">
<title>Node8&#45;&gt;Node4</title>
<g id="a_edge10_Node000008_Node000004"><a xlink:title=" ">
<path fill="none" stroke="#63b8ff" d="M682,-110.25C682,-93 682,-54.58 682,-30.81"/>
<polygon fill="#63b8ff" stroke="#63b8ff" points="685.5,-31.14 682,-21.14 678.5,-31.14 685.5,-31.14"/>
</a>
</g>
</g>
<!-- Node8&#45;&gt;Node5 -->
<g id="edge11_Node000008_Node000005" class="edge">
<title>Node8&#45;&gt;Node5</title>
<g id="a_edge11_Node000008_Node000005"><a xlink:title=" ">
<path fill="none" stroke="#63b8ff" d="M688.78,-110.25C698.9,-97.33 718.92,-72.93 739,-55.25 751.48,-44.26 766.76,-33.65 779.37,-25.53"/>
<polygon fill="#63b8ff" stroke="#63b8ff" points="780.92,-28.69 787.52,-20.4 777.19,-22.77 780.92,-28.69"/>
</a>
</g>
</g>
<!-- Node9 -->
<g id="Node000009" class="node">
<title>Node9</title>
<g id="a_Node000009"><a xlink:title=" ">
<polygon fill="#e0e0e0" stroke="#999999" points="654.38,-74.5 547.62,-74.5 547.62,-55.25 654.38,-55.25 654.38,-74.5"/>
<text text-anchor="middle" x="601" y="-61" font-family="Helvetica,sans-Serif" font-size="10.00">./tinyxml2/tinyxml2.h</text>
</a>
</g>
</g>
<!-- Node8&#45;&gt;Node9 -->
<g id="edge8_Node000008_Node000009" class="edge">
<title>Node8&#45;&gt;Node9</title>
<g id="a_edge8_Node000008_Node000009"><a xlink:title=" ">
<path fill="none" stroke="#63b8ff" d="M668.26,-110.09C656.27,-102.21 638.63,-90.61 624.42,-81.27"/>
<polygon fill="#63b8ff" stroke="#63b8ff" points="626.35,-78.35 616.07,-75.78 622.51,-84.2 626.35,-78.35"/>
</a>
</g>
</g>
<!-- Node10 -->
<g id="Node000010" class="node">
<title>Node10</title>
<g id="a_Node000010"><a xlink:title=" ">
<polygon fill="#e0e0e0" stroke="#999999" points="782.38,-74.5 747.62,-74.5 747.62,-55.25 782.38,-55.25 782.38,-74.5"/>
<text text-anchor="middle" x="765" y="-61" font-family="Helvetica,sans-Serif" font-size="10.00">map</text>
</a>
</g>
</g>
<!-- Node8&#45;&gt;Node10 -->
<g id="edge12_Node000008_Node000010" class="edge">
<title>Node8&#45;&gt;Node10</title>
<g id="a_edge12_Node000008_Node000010"><a xlink:title=" ">
<path fill="none" stroke="#63b8ff" d="M696.08,-110.09C708.48,-102.14 726.79,-90.39 741.43,-81"/>
<polygon fill="#63b8ff" stroke="#63b8ff" points="743.05,-84.12 749.58,-75.77 739.27,-78.22 743.05,-84.12"/>
</a>
</g>
</g>
<!-- Node11&#45;&gt;Node4 -->
<g id="edge14_Node000011_Node000004" class="edge">
<title>Node11&#45;&gt;Node4</title>
<g id="a_edge14_Node000011_Node000004"><a xlink:title=" ">
<path fill="none" stroke="#63b8ff" d="M960.6,-110.06C905.1,-90.25 773.16,-43.16 712.93,-21.66"/>
<polygon fill="#63b8ff" stroke="#63b8ff" points="714.24,-18.42 703.65,-18.35 711.89,-25.01 714.24,-18.42"/>
</a>
</g>
</g>
<!-- Node11&#45;&gt;Node5 -->
<g id="edge16_Node000011_Node000005" class="edge">
<title>Node11&#45;&gt;Node5</title>
<g id="a_edge16_Node000011_Node000005"><a xlink:title=" ">
<path fill="none" stroke="#63b8ff" d="M977.19,-110.32C963.53,-97.04 936,-71.7 909,-55.25 886.06,-41.27 857.95,-29.58 836.6,-21.68"/>
<polygon fill="#63b8ff" stroke="#63b8ff" points="837.82,-18.4 827.23,-18.3 835.45,-24.98 837.82,-18.4"/>
</a>
</g>
</g>
<!-- Node12 -->
<g id="Node000012" class="node">
<title>Node12</title>
<g id="a_Node000012"><a xlink:title=" ">
<polygon fill="#e0e0e0" stroke="#999999" points="1010.5,-74.5 961.5,-74.5 961.5,-55.25 1010.5,-55.25 1010.5,-74.5"/>
<text text-anchor="middle" x="986" y="-61" font-family="Helvetica,sans-Serif" font-size="10.00">fstream</text>
</a>
</g>
</g>
<!-- Node11&#45;&gt;Node12 -->
<g id="edge15_Node000011_Node000012" class="edge">
<title>Node11&#45;&gt;Node12</title>
<g id="a_edge15_Node000011_Node000012"><a xlink:title=" ">
<path fill="none" stroke="#63b8ff" d="M986,-110.33C986,-103.82 986,-94.67 986,-86.37"/>
<polygon fill="#63b8ff" stroke="#63b8ff" points="989.5,-86.37 986,-76.37 982.5,-86.37 989.5,-86.37"/>
</a>
</g>
</g>
<!-- Node13 -->
<g id="Node000013" class="node">
<title>Node13</title>
<g id="a_Node000013"><a xlink:title=" ">
<polygon fill="#e0e0e0" stroke="#999999" points="1081.75,-74.5 1028.25,-74.5 1028.25,-55.25 1081.75,-55.25 1081.75,-74.5"/>
<text text-anchor="middle" x="1055" y="-61" font-family="Helvetica,sans-Serif" font-size="10.00">iostream</text>
</a>
</g>
</g>
<!-- Node11&#45;&gt;Node13 -->
<g id="edge17_Node000011_Node000013" class="edge">
<title>Node11&#45;&gt;Node13</title>
<g id="a_edge17_Node000011_Node000013"><a xlink:title=" ">
<path fill="none" stroke="#63b8ff" d="M997.7,-110.09C1007.78,-102.32 1022.54,-90.92 1034.56,-81.65"/>
<polygon fill="#63b8ff" stroke="#63b8ff" points="1036.49,-84.58 1042.27,-75.7 1032.21,-79.04 1036.49,-84.58"/>
</a>
</g>
</g>
<!-- Node14 -->
<g id="Node000014" class="node">
<title>Node14</title>
<g id="a_Node000014"><a xlink:title=" ">
<polygon fill="#e0e0e0" stroke="#999999" points="1150.62,-74.5 1099.38,-74.5 1099.38,-55.25 1150.62,-55.25 1150.62,-74.5"/>
<text text-anchor="middle" x="1125" y="-61" font-family="Helvetica,sans-Serif" font-size="10.00">sstream</text>
</a>
</g>
</g>
<!-- Node11&#45;&gt;Node14 -->
<g id="edge18_Node000011_Node000014" class="edge">
<title>Node11&#45;&gt;Node14</title>
<g id="a_edge18_Node000011_Node000014"><a xlink:title=" ">
<path fill="none" stroke="#63b8ff" d="M1009.58,-110.09C1031.84,-101.56 1065.49,-88.67 1090.72,-79.01"/>
<polygon fill="#63b8ff" stroke="#63b8ff" points="1091.81,-82.34 1099.89,-75.49 1089.3,-75.8 1091.81,-82.34"/>
</a>
</g>
</g>
<!-- Node15 -->
<g id="Node000015" class="node">
<title>Node15</title>
<g id="a_Node000015"><a xlink:title=" ">
<polygon fill="#e0e0e0" stroke="#999999" points="1215,-74.5 1169,-74.5 1169,-55.25 1215,-55.25 1215,-74.5"/>
<text text-anchor="middle" x="1192" y="-61" font-family="Helvetica,sans-Serif" font-size="10.00">iterator</text>
</a>
</g>
</g>
<!-- Node11&#45;&gt;Node15 -->
<g id="edge19_Node000011_Node000015" class="edge">
<title>Node11&#45;&gt;Node15</title>
<g id="a_edge19_Node000011_Node000015"><a xlink:title=" ">
<path fill="none" stroke="#63b8ff" d="M1022.02,-110.02C1054.97,-101.67 1105.32,-88.82 1157.73,-75.07"/>
<polygon fill="#63b8ff" stroke="#63b8ff" points="1158.34,-78.53 1167.13,-72.6 1156.56,-71.76 1158.34,-78.53"/>
</a>
</g>
</g>
<!-- Node16&#45;&gt;Node2 -->
<g id="edge21_Node000016_Node000002" class="edge">
<title>Node16&#45;&gt;Node2</title>
<g id="a_edge21_Node000016_Node000002"><a xlink:title=" ">
<path fill="none" stroke="#63b8ff" d="M384.09,-282.85C322.68,-277.37 213.07,-257.38 163,-185 158.13,-177.96 158.96,-173.29 163,-165.75 183.92,-126.69 204.99,-127.29 246,-110.5 309.68,-84.42 389.55,-73.36 437.02,-68.83"/>
<polygon fill="#63b8ff" stroke="#63b8ff" points="437.21,-72.33 446.86,-67.95 436.59,-65.36 437.21,-72.33"/>
</a>
</g>
</g>
<!-- Node16&#45;&gt;Node8 -->
<g id="edge22_Node000016_Node000008" class="edge">
<title>Node16&#45;&gt;Node8</title>
<g id="a_edge22_Node000016_Node000008"><a xlink:title=" ">
<path fill="none" stroke="#63b8ff" d="M441.73,-275.83C472.12,-255.84 547.45,-206.4 611,-165.75 626.54,-155.81 644.09,-144.78 657.85,-136.17"/>
<polygon fill="#63b8ff" stroke="#63b8ff" points="659.63,-139.18 666.26,-130.92 655.92,-133.25 659.63,-139.18"/>
</a>
</g>
</g>
<!-- Node17 -->
<g id="Node000017" class="node">
<title>Node17</title>
<g id="a_Node000017"><a xlink:href="ssattribute_8h.html" target="_top" xlink:title=" ">
<polygon fill="white" stroke="#666666" points="446,-240.25 376,-240.25 376,-221 446,-221 446,-240.25"/>
<text text-anchor="middle" x="411" y="-226.75" font-family="Helvetica,sans-Serif" font-size="10.00">ssattribute.h</text>
</a>
</g>
</g>
<!-- Node16&#45;&gt;Node17 -->
<g id="edge23_Node000016_Node000017" class="edge">
<title>Node16&#45;&gt;Node17</title>
<g id="a_edge23_Node000016_Node000017"><a xlink:title=" ">
<path fill="none" stroke="#63b8ff" d="M425.19,-276.08C423.06,-269.42 420.06,-259.99 417.36,-251.53"/>
<polygon fill="#63b8ff" stroke="#63b8ff" points="420.7,-250.51 414.33,-242.05 414.04,-252.64 420.7,-250.51"/>
</a>
</g>
</g>
<!-- Node17&#45;&gt;Node2 -->
<g id="edge24_Node000017_Node000002" class="edge">
<title>Node17&#45;&gt;Node2</title>
<g id="a_edge24_Node000017_Node000002"><a xlink:title=" ">
<path fill="none" stroke="#63b8ff" d="M375.64,-222.96C339.01,-214.27 289.38,-196.44 307,-165.75 334.83,-117.27 396.29,-90.08 437.43,-76.7"/>
<polygon fill="#63b8ff" stroke="#63b8ff" points="438.23,-80.11 446.75,-73.81 436.16,-73.43 438.23,-80.11"/>
</a>
</g>
</g>
<!-- Node17&#45;&gt;Node10 -->
<g id="edge33_Node000017_Node000010" class="edge">
<title>Node17&#45;&gt;Node10</title>
<g id="a_edge33_Node000017_Node000010"><a xlink:title=" ">
<path fill="none" stroke="#63b8ff" d="M446.5,-229.99C523.64,-230.01 703.05,-225.57 745,-185 771.43,-159.44 771.04,-113.02 768.17,-86.3"/>
<polygon fill="#63b8ff" stroke="#63b8ff" points="771.65,-85.9 766.86,-76.44 764.71,-86.82 771.65,-85.9"/>
</a>
</g>
</g>
<!-- Node18 -->
<g id="Node000018" class="node">
<title>Node18</title>
<g id="a_Node000018"><a xlink:href="ssvalue_8h.html" target="_top" xlink:title=" ">
<polygon fill="white" stroke="#666666" points="888,-185 830,-185 830,-165.75 888,-165.75 888,-185"/>
<text text-anchor="middle" x="859" y="-171.5" font-family="Helvetica,sans-Serif" font-size="10.00">ssvalue.h</text>
</a>
</g>
</g>
<!-- Node17&#45;&gt;Node18 -->
<g id="edge25_Node000017_Node000018" class="edge">
<title>Node17&#45;&gt;Node18</title>
<g id="a_edge25_Node000017_Node000018"><a xlink:title=" ">
<path fill="none" stroke="#63b8ff" d="M446.15,-225.45C528.09,-215.71 731.4,-191.54 818.43,-181.2"/>
<polygon fill="#63b8ff" stroke="#63b8ff" points="818.64,-184.7 828.16,-180.04 817.82,-177.75 818.64,-184.7"/>
</a>
</g>
</g>
<!-- Node20 -->
<g id="Node000020" class="node">
<title>Node20</title>
<g id="a_Node000020"><a xlink:href="ss_interpolation_8h.html" target="_top" xlink:title=" ">
<polygon fill="white" stroke="#666666" points="450,-185 362,-185 362,-165.75 450,-165.75 450,-185"/>
<text text-anchor="middle" x="406" y="-171.5" font-family="Helvetica,sans-Serif" font-size="10.00">ssInterpolation.h</text>
</a>
</g>
</g>
<!-- Node17&#45;&gt;Node20 -->
<g id="edge31_Node000017_Node000020" class="edge">
<title>Node17&#45;&gt;Node20</title>
<g id="a_edge31_Node000017_Node000020"><a xlink:title=" ">
<path fill="none" stroke="#63b8ff" d="M410.17,-220.83C409.56,-214.24 408.68,-204.96 407.9,-196.57"/>
<polygon fill="#63b8ff" stroke="#63b8ff" points="411.4,-196.5 406.99,-186.87 404.44,-197.15 411.4,-196.5"/>
</a>
</g>
</g>
<!-- Node21 -->
<g id="Node000021" class="node">
<title>Node21</title>
<g id="a_Node000021"><a xlink:title=" ">
<polygon fill="#e0e0e0" stroke="#999999" points="344.4,-185 315.6,-185 315.6,-165.75 344.4,-165.75 344.4,-185"/>
<text text-anchor="middle" x="330" y="-171.5" font-family="Helvetica,sans-Serif" font-size="10.00">list</text>
</a>
</g>
</g>
<!-- Node17&#45;&gt;Node21 -->
<g id="edge32_Node000017_Node000021" class="edge">
<title>Node17&#45;&gt;Node21</title>
<g id="a_edge32_Node000017_Node000021"><a xlink:title=" ">
<path fill="none" stroke="#63b8ff" d="M397.26,-220.59C385.27,-212.71 367.63,-201.11 353.42,-191.77"/>
<polygon fill="#63b8ff" stroke="#63b8ff" points="355.35,-188.85 345.07,-186.28 351.51,-194.7 355.35,-188.85"/>
</a>
</g>
</g>
<!-- Node18&#45;&gt;Node5 -->
<g id="edge29_Node000018_Node000005" class="edge">
<title>Node18&#45;&gt;Node5</title>
<g id="a_edge29_Node000018_Node000005"><a xlink:title=" ">
<path fill="none" stroke="#63b8ff" d="M860.37,-165.52C862,-153.03 863.92,-129.62 859,-110.5 851.06,-79.6 831.32,-48.03 817.78,-28.87"/>
<polygon fill="#63b8ff" stroke="#63b8ff" points="820.63,-26.83 811.91,-20.81 814.97,-30.96 820.63,-26.83"/>
</a>
</g>
</g>
<!-- Node18&#45;&gt;Node8 -->
<g id="edge26_Node000018_Node000008" class="edge">
<title>Node18&#45;&gt;Node8</title>
<g id="a_edge26_Node000018_Node000008"><a xlink:title=" ">
<path fill="none" stroke="#63b8ff" d="M829.77,-165.58C800.7,-156.84 755.83,-143.34 723.16,-133.51"/>
<polygon fill="#63b8ff" stroke="#63b8ff" points="724.19,-130.16 713.61,-130.63 722.18,-136.87 724.19,-130.16"/>
</a>
</g>
</g>
<!-- Node18&#45;&gt;Node10 -->
<g id="edge28_Node000018_Node000010" class="edge">
<title>Node18&#45;&gt;Node10</title>
<g id="a_edge28_Node000018_Node000010"><a xlink:title=" ">
<path fill="none" stroke="#63b8ff" d="M858.4,-165.61C857.08,-152.39 852.94,-127.11 840,-110.5 827.97,-95.06 808.99,-83.84 793.13,-76.51"/>
<polygon fill="#63b8ff" stroke="#63b8ff" points="794.73,-73.39 784.16,-72.65 791.96,-79.82 794.73,-73.39"/>
</a>
</g>
</g>
<!-- Node18&#45;&gt;Node11 -->
<g id="edge27_Node000018_Node000011" class="edge">
<title>Node18&#45;&gt;Node11</title>
<g id="a_edge27_Node000018_Node000011"><a xlink:title=" ">
<path fill="none" stroke="#63b8ff" d="M880.54,-165.34C900.61,-156.93 930.8,-144.27 953.75,-134.65"/>
<polygon fill="#63b8ff" stroke="#63b8ff" points="955.09,-137.88 962.95,-130.79 952.38,-131.43 955.09,-137.88"/>
</a>
</g>
</g>
<!-- Node19 -->
<g id="Node000019" class="node">
<title>Node19</title>
<g id="a_Node000019"><a xlink:title=" ">
<polygon fill="#e0e0e0" stroke="#999999" points="831.12,-129.75 782.88,-129.75 782.88,-110.5 831.12,-110.5 831.12,-129.75"/>
<text text-anchor="middle" x="807" y="-116.25" font-family="Helvetica,sans-Serif" font-size="10.00">cassert</text>
</a>
</g>
</g>
<!-- Node18&#45;&gt;Node19 -->
<g id="edge30_Node000018_Node000019" class="edge">
<title>Node18&#45;&gt;Node19</title>
<g id="a_edge30_Node000018_Node000019"><a xlink:title=" ">
<path fill="none" stroke="#63b8ff" d="M850.41,-165.58C843.16,-158.15 832.55,-147.29 823.63,-138.16"/>
<polygon fill="#63b8ff" stroke="#63b8ff" points="826.32,-135.9 816.83,-131.19 821.31,-140.79 826.32,-135.9"/>
</a>
</g>
</g>
<!-- Node22&#45;&gt;Node2 -->
<g id="edge35_Node000022_Node000002" class="edge">
<title>Node22&#45;&gt;Node2</title>
<g id="a_edge35_Node000022_Node000002"><a xlink:title=" ">
<path fill="none" stroke="#63b8ff" d="M77.1,-165.55C85.87,-151.26 105.29,-123.38 130,-110.5 182.7,-83.03 357.28,-71.51 437.3,-67.58"/>
<polygon fill="#63b8ff" stroke="#63b8ff" points="437.06,-71.1 446.88,-67.13 436.73,-64.11 437.06,-71.1"/>
</a>
</g>
</g>
<!-- Node22&#45;&gt;Node8 -->
<g id="edge36_Node000022_Node000008" class="edge">
<title>Node22&#45;&gt;Node8</title>
<g id="a_edge36_Node000022_Node000008"><a xlink:title=" ">
<path fill="none" stroke="#63b8ff" d="M115.96,-170.13C130.89,-168.71 147.67,-167.14 163,-165.75 337.73,-149.96 545.68,-132.47 636.16,-124.93"/>
<polygon fill="#63b8ff" stroke="#63b8ff" points="636.19,-128.44 645.86,-124.12 635.61,-121.47 636.19,-128.44"/>
</a>
</g>
</g>
<!-- Node23&#45;&gt;Node2 -->
<g id="edge38_Node000023_Node000002" class="edge">
<title>Node23&#45;&gt;Node2</title>
<g id="a_edge38_Node000023_Node000002"><a xlink:title=" ">
<path fill="none" stroke="#63b8ff" d="M669.68,-275.86C639.92,-253.64 562.87,-193.38 513,-129.75 502.14,-115.89 492.74,-98.22 486.43,-84.97"/>
<polygon fill="#63b8ff" stroke="#63b8ff" points="489.69,-83.69 482.34,-76.06 483.33,-86.61 489.69,-83.69"/>
</a>
</g>
</g>
<!-- Node23&#45;&gt;Node8 -->
<g id="edge39_Node000023_Node000008" class="edge">
<title>Node23&#45;&gt;Node8</title>
<g id="a_edge39_Node000023_Node000008"><a xlink:title=" ">
<path fill="none" stroke="#63b8ff" d="M690.25,-275.84C704.72,-259.31 734.18,-222.42 745,-185 747.38,-176.78 748.93,-173.35 745,-165.75 738.31,-152.82 725.96,-142.83 713.96,-135.61"/>
<polygon fill="#63b8ff" stroke="#63b8ff" points="715.86,-132.67 705.41,-130.93 712.5,-138.8 715.86,-132.67"/>
</a>
</g>
</g>
<!-- Node24 -->
<g id="Node000024" class="node">
<title>Node24</title>
<g id="a_Node000024"><a xlink:href="_ss_effect_behavior_8h.html" target="_top" xlink:title=" ">
<polygon fill="white" stroke="#666666" points="906,-240.25 806,-240.25 806,-221 906,-221 906,-240.25"/>
<text text-anchor="middle" x="856" y="-226.75" font-family="Helvetica,sans-Serif" font-size="10.00">SsEffectBehavior.h</text>
</a>
</g>
</g>
<!-- Node23&#45;&gt;Node24 -->
<g id="edge40_Node000023_Node000024" class="edge">
<title>Node23&#45;&gt;Node24</title>
<g id="a_edge40_Node000023_Node000024"><a xlink:title=" ">
<path fill="none" stroke="#63b8ff" d="M711.52,-275.84C740.14,-267.08 783.78,-253.73 815.62,-243.98"/>
<polygon fill="#63b8ff" stroke="#63b8ff" points="816.35,-247.42 824.89,-241.15 814.3,-240.73 816.35,-247.42"/>
</a>
</g>
</g>
<!-- Node24&#45;&gt;Node2 -->
<g id="edge45_Node000024_Node000002" class="edge">
<title>Node24&#45;&gt;Node2</title>
<g id="a_edge45_Node000024_Node000002"><a xlink:title=" ">
<path fill="none" stroke="#63b8ff" d="M805.65,-228.4C754.3,-225.37 673.52,-215.61 611,-185 560.17,-160.11 514.19,-110.13 492,-83.51"/>
<polygon fill="#63b8ff" stroke="#63b8ff" points="494.93,-81.56 485.89,-76.02 489.5,-85.98 494.93,-81.56"/>
</a>
</g>
</g>
<!-- Node24&#45;&gt;Node18 -->
<g id="edge46_Node000024_Node000018" class="edge">
<title>Node24&#45;&gt;Node18</title>
<g id="a_edge46_Node000024_Node000018"><a xlink:title=" ">
<path fill="none" stroke="#63b8ff" d="M856.5,-220.83C856.87,-214.24 857.39,-204.96 857.86,-196.57"/>
<polygon fill="#63b8ff" stroke="#63b8ff" points="861.34,-197.05 858.41,-186.87 854.35,-196.66 861.34,-197.05"/>
</a>
</g>
</g>
<!-- Node25 -->
<g id="Node000025" class="node">
<title>Node25</title>
<g id="a_Node000025"><a xlink:href="_ss_effect_element_8h.html" target="_top" xlink:title=" ">
<polygon fill="white" stroke="#666666" points="718.25,-185 619.75,-185 619.75,-165.75 718.25,-165.75 718.25,-185"/>
<text text-anchor="middle" x="669" y="-171.5" font-family="Helvetica,sans-Serif" font-size="10.00">SsEffectElement.h</text>
</a>
</g>
</g>
<!-- Node24&#45;&gt;Node25 -->
<g id="edge41_Node000024_Node000025" class="edge">
<title>Node24&#45;&gt;Node25</title>
<g id="a_edge41_Node000024_Node000025"><a xlink:title=" ">
<path fill="none" stroke="#63b8ff" d="M824.28,-220.59C793.25,-211.76 745.79,-198.24 711.51,-188.48"/>
<polygon fill="#63b8ff" stroke="#63b8ff" points="712.91,-185.24 702.33,-185.87 710.99,-191.97 712.91,-185.24"/>
</a>
</g>
</g>
<!-- Node24&#45;&gt;Node26 -->
<g id="edge47_Node000024_Node000026" class="edge">
<title>Node24&#45;&gt;Node26</title>
<g id="a_edge47_Node000024_Node000026"><a xlink:title=" ">
<path fill="none" stroke="#63b8ff" d="M868.89,-220.59C880.03,-212.79 896.37,-201.34 909.64,-192.04"/>
<polygon fill="#63b8ff" stroke="#63b8ff" points="911.62,-194.93 917.8,-186.32 907.61,-189.19 911.62,-194.93"/>
</a>
</g>
</g>
<!-- Node25&#45;&gt;Node2 -->
<g id="edge42_Node000025_Node000002" class="edge">
<title>Node25&#45;&gt;Node2</title>
<g id="a_edge42_Node000025_Node000002"><a xlink:title=" ">
<path fill="none" stroke="#63b8ff" d="M660.82,-165.4C648.09,-151.9 622.29,-126.26 596,-110.5 571.68,-95.91 541.77,-84.67 518.15,-77.11"/>
<polygon fill="#63b8ff" stroke="#63b8ff" points="519.48,-73.86 508.89,-74.25 517.41,-80.55 519.48,-73.86"/>
</a>
</g>
</g>
<!-- Node25&#45;&gt;Node8 -->
<g id="edge43_Node000025_Node000008" class="edge">
<title>Node25&#45;&gt;Node8</title>
<g id="a_edge43_Node000025_Node000008"><a xlink:title=" ">
<path fill="none" stroke="#63b8ff" d="M671.15,-165.58C672.77,-158.92 675.08,-149.49 677.14,-141.03"/>
<polygon fill="#63b8ff" stroke="#63b8ff" points="680.48,-142.12 679.45,-131.58 673.68,-140.46 680.48,-142.12"/>
</a>
</g>
</g>
<!-- Node25&#45;&gt;Node25 -->
<g id="edge44_Node000025_Node000025" class="edge">
<title>Node25&#45;&gt;Node25</title>
<g id="a_edge44_Node000025_Node000025"><a xlink:title=" ">
<path fill="none" stroke="#63b8ff" d="M704.29,-185.48C721.27,-186.73 736.25,-183.36 736.25,-175.38 736.25,-169.26 727.47,-165.85 715.73,-165.15"/>
<polygon fill="#63b8ff" stroke="#63b8ff" points="715.77,-161.65 705.8,-165.25 715.84,-168.65 715.77,-161.65"/>
</a>
</g>
</g>
<!-- Node27&#45;&gt;Node2 -->
<g id="edge49_Node000027_Node000002" class="edge">
<title>Node27&#45;&gt;Node2</title>
<g id="a_edge49_Node000027_Node000002"><a xlink:title=" ">
<path fill="none" stroke="#63b8ff" d="M221.52,-165.33C230.62,-151.26 250.14,-124.3 274,-110.5 325.06,-80.96 393.62,-70.95 436.81,-67.57"/>
<polygon fill="#63b8ff" stroke="#63b8ff" points="437.04,-71.06 446.77,-66.88 436.56,-64.08 437.04,-71.06"/>
</a>
</g>
</g>
<!-- Node27&#45;&gt;Node8 -->
<g id="edge50_Node000027_Node000008" class="edge">
<title>Node27&#45;&gt;Node8</title>
<g id="a_edge50_Node000027_Node000008"><a xlink:title=" ">
<path fill="none" stroke="#63b8ff" d="M259.84,-169.37C348.07,-159.28 546.31,-136.63 636.17,-126.36"/>
<polygon fill="#63b8ff" stroke="#63b8ff" points="636.3,-129.87 645.84,-125.26 635.51,-122.91 636.3,-129.87"/>
</a>
</g>
</g>
</g>
</svg>
