<?xml version="1.0" encoding="UTF-8" standalone="no"?>
<!DOCTYPE svg PUBLIC "-//W3C//DTD SVG 1.1//EN"
 "http://www.w3.org/Graphics/SVG/1.1/DTD/svg11.dtd">
<!-- Generated by graphviz version 10.0.1 (20240210.2158)
 -->
<!-- Title: Common/Loader/ssloader_ssce.cpp Pages: 1 -->
<svg width="640pt" height="260pt"
 viewBox="0.00 0.00 639.50 259.50" xmlns="http://www.w3.org/2000/svg" xmlns:xlink="http://www.w3.org/1999/xlink">
<g id="graph0" class="graph" transform="scale(1 1) rotate(0) translate(4 255.5)">
<title>Common/Loader/ssloader_ssce.cpp</title>
<!-- Node1 -->
<g id="Node000001" class="node">
<title>Node1</title>
<g id="a_Node000001"><a xlink:title=" ">
<polygon fill="#999999" stroke="#666666" points="366.75,-251.5 239,-251.5 239,-221 366.75,-221 366.75,-251.5"/>
<text text-anchor="start" x="247" y="-238" font-family="Helvetica,sans-Serif" font-size="10.00">Common/Loader/ssloader</text>
<text text-anchor="middle" x="302.88" y="-226.75" font-family="Helvetica,sans-Serif" font-size="10.00">_ssce.cpp</text>
</a>
</g>
</g>
<!-- Node2 -->
<g id="Node000002" class="node">
<title>Node2</title>
<g id="a_Node000002"><a xlink:href="ssloader__ssce_8h.html" target="_top" xlink:title=" ">
<polygon fill="white" stroke="#666666" points="310.5,-185 223.25,-185 223.25,-165.75 310.5,-165.75 310.5,-185"/>
<text text-anchor="middle" x="266.88" y="-171.5" font-family="Helvetica,sans-Serif" font-size="10.00">ssloader_ssce.h</text>
</a>
</g>
</g>
<!-- Node1&#45;&gt;Node2 -->
<g id="edge1_Node000001_Node000002" class="edge">
<title>Node1&#45;&gt;Node2</title>
<g id="a_edge1_Node000001_Node000002"><a xlink:title=" ">
<path fill="none" stroke="#63b8ff" d="M293.98,-220.7C289.23,-212.94 283.35,-203.31 278.27,-195.01"/>
<polygon fill="#63b8ff" stroke="#63b8ff" points="281.42,-193.45 273.21,-186.74 275.45,-197.1 281.42,-193.45"/>
</a>
</g>
</g>
<!-- Node12 -->
<g id="Node000012" class="node">
<title>Node12</title>
<g id="a_Node000012"><a xlink:href="ssstring__uty_8h.html" target="_top" xlink:title=" ">
<polygon fill="white" stroke="#666666" points="504.88,-74.5 428.88,-74.5 428.88,-55.25 504.88,-55.25 504.88,-74.5"/>
<text text-anchor="middle" x="466.88" y="-61" font-family="Helvetica,sans-Serif" font-size="10.00">ssstring_uty.h</text>
</a>
</g>
</g>
<!-- Node1&#45;&gt;Node12 -->
<g id="edge14_Node000001_Node000012" class="edge">
<title>Node1&#45;&gt;Node12</title>
<g id="a_edge14_Node000001_Node000012"><a xlink:title=" ">
<path fill="none" stroke="#63b8ff" d="M317.14,-220.52C347.47,-189.19 418.22,-116.13 450.41,-82.88"/>
<polygon fill="#63b8ff" stroke="#63b8ff" points="452.56,-85.69 457,-76.07 447.53,-80.82 452.56,-85.69"/>
</a>
</g>
</g>
<!-- Node3 -->
<g id="Node000003" class="node">
<title>Node3</title>
<g id="a_Node000003"><a xlink:href="sstypes_8h.html" target="_top" xlink:title=" ">
<polygon fill="white" stroke="#666666" points="158.25,-74.5 99.5,-74.5 99.5,-55.25 158.25,-55.25 158.25,-74.5"/>
<text text-anchor="middle" x="128.88" y="-61" font-family="Helvetica,sans-Serif" font-size="10.00">sstypes.h</text>
</a>
</g>
</g>
<!-- Node2&#45;&gt;Node3 -->
<g id="edge2_Node000002_Node000003" class="edge">
<title>Node2&#45;&gt;Node3</title>
<g id="a_edge2_Node000002_Node000003"><a xlink:title=" ">
<path fill="none" stroke="#63b8ff" d="M255.58,-165.5C232.33,-147.22 178.83,-105.15 149.33,-81.96"/>
<polygon fill="#63b8ff" stroke="#63b8ff" points="151.54,-79.24 141.51,-75.81 147.21,-84.74 151.54,-79.24"/>
</a>
</g>
</g>
<!-- Node9 -->
<g id="Node000009" class="node">
<title>Node9</title>
<g id="a_Node000009"><a xlink:href="ssarchiver_8h.html" target="_top" xlink:title=" ">
<polygon fill="white" stroke="#666666" points="301.12,-129.75 232.62,-129.75 232.62,-110.5 301.12,-110.5 301.12,-129.75"/>
<text text-anchor="middle" x="266.88" y="-116.25" font-family="Helvetica,sans-Serif" font-size="10.00">ssarchiver.h</text>
</a>
</g>
</g>
<!-- Node2&#45;&gt;Node9 -->
<g id="edge8_Node000002_Node000009" class="edge">
<title>Node2&#45;&gt;Node9</title>
<g id="a_edge8_Node000002_Node000009"><a xlink:title=" ">
<path fill="none" stroke="#63b8ff" d="M266.88,-165.58C266.88,-159.07 266.88,-149.92 266.88,-141.62"/>
<polygon fill="#63b8ff" stroke="#63b8ff" points="270.38,-141.62 266.88,-131.62 263.38,-141.62 270.38,-141.62"/>
</a>
</g>
</g>
<!-- Node4 -->
<g id="Node000004" class="node">
<title>Node4</title>
<g id="a_Node000004"><a xlink:title=" ">
<polygon fill="#e0e0e0" stroke="#999999" points="121.62,-19.25 74.12,-19.25 74.12,0 121.62,0 121.62,-19.25"/>
<text text-anchor="middle" x="97.88" y="-5.75" font-family="Helvetica,sans-Serif" font-size="10.00">stdlib.h</text>
</a>
</g>
</g>
<!-- Node3&#45;&gt;Node4 -->
<g id="edge3_Node000003_Node000004" class="edge">
<title>Node3&#45;&gt;Node4</title>
<g id="a_edge3_Node000003_Node000004"><a xlink:title=" ">
<path fill="none" stroke="#63b8ff" d="M123.76,-55.08C119.7,-48.11 113.88,-38.12 108.79,-29.37"/>
<polygon fill="#63b8ff" stroke="#63b8ff" points="111.92,-27.8 103.87,-20.92 105.87,-31.32 111.92,-27.8"/>
</a>
</g>
</g>
<!-- Node5 -->
<g id="Node000005" class="node">
<title>Node5</title>
<g id="a_Node000005"><a xlink:title=" ">
<polygon fill="#e0e0e0" stroke="#999999" points="359.88,-19.25 319.88,-19.25 319.88,0 359.88,0 359.88,-19.25"/>
<text text-anchor="middle" x="339.88" y="-5.75" font-family="Helvetica,sans-Serif" font-size="10.00">string</text>
</a>
</g>
</g>
<!-- Node3&#45;&gt;Node5 -->
<g id="edge4_Node000003_Node000005" class="edge">
<title>Node3&#45;&gt;Node5</title>
<g id="a_edge4_Node000003_Node000005"><a xlink:title=" ">
<path fill="none" stroke="#63b8ff" d="M158.66,-56.36C198.26,-46.36 267.94,-28.78 308.38,-18.57"/>
<polygon fill="#63b8ff" stroke="#63b8ff" points="309.14,-21.99 317.98,-16.15 307.43,-15.2 309.14,-21.99"/>
</a>
</g>
</g>
<!-- Node6 -->
<g id="Node000006" class="node">
<title>Node6</title>
<g id="a_Node000006"><a xlink:title=" ">
<polygon fill="#e0e0e0" stroke="#999999" points="243.38,-19.25 200.38,-19.25 200.38,0 243.38,0 243.38,-19.25"/>
<text text-anchor="middle" x="221.88" y="-5.75" font-family="Helvetica,sans-Serif" font-size="10.00">vector</text>
</a>
</g>
</g>
<!-- Node3&#45;&gt;Node6 -->
<g id="edge5_Node000003_Node000006" class="edge">
<title>Node3&#45;&gt;Node6</title>
<g id="a_edge5_Node000003_Node000006"><a xlink:title=" ">
<path fill="none" stroke="#63b8ff" d="M144.65,-54.84C158.81,-46.73 179.86,-34.68 196.4,-25.21"/>
<polygon fill="#63b8ff" stroke="#63b8ff" points="197.77,-28.46 204.71,-20.45 194.29,-22.39 197.77,-28.46"/>
</a>
</g>
</g>
<!-- Node7 -->
<g id="Node000007" class="node">
<title>Node7</title>
<g id="a_Node000007"><a xlink:title=" ">
<polygon fill="#e0e0e0" stroke="#999999" points="182.38,-19.25 139.38,-19.25 139.38,0 182.38,0 182.38,-19.25"/>
<text text-anchor="middle" x="160.88" y="-5.75" font-family="Helvetica,sans-Serif" font-size="10.00">cmath</text>
</a>
</g>
</g>
<!-- Node3&#45;&gt;Node7 -->
<g id="edge6_Node000003_Node000007" class="edge">
<title>Node3&#45;&gt;Node7</title>
<g id="a_edge6_Node000003_Node000007"><a xlink:title=" ">
<path fill="none" stroke="#63b8ff" d="M134.16,-55.08C138.35,-48.11 144.35,-38.12 149.61,-29.37"/>
<polygon fill="#63b8ff" stroke="#63b8ff" points="152.55,-31.28 154.7,-20.91 146.55,-27.68 152.55,-31.28"/>
</a>
</g>
</g>
<!-- Node8 -->
<g id="Node000008" class="node">
<title>Node8</title>
<g id="a_Node000008"><a xlink:title=" ">
<polygon fill="#e0e0e0" stroke="#999999" points="55.75,-19.25 0,-19.25 0,0 55.75,0 55.75,-19.25"/>
<text text-anchor="middle" x="27.88" y="-5.75" font-family="Helvetica,sans-Serif" font-size="10.00">algorithm</text>
</a>
</g>
</g>
<!-- Node3&#45;&gt;Node8 -->
<g id="edge7_Node000003_Node000008" class="edge">
<title>Node3&#45;&gt;Node8</title>
<g id="a_edge7_Node000003_Node000008"><a xlink:title=" ">
<path fill="none" stroke="#63b8ff" d="M111.74,-54.84C96.22,-46.66 73.07,-34.46 55.03,-24.94"/>
<polygon fill="#63b8ff" stroke="#63b8ff" points="56.91,-21.98 46.43,-20.41 53.64,-28.17 56.91,-21.98"/>
</a>
</g>
</g>
<!-- Node9&#45;&gt;Node3 -->
<g id="edge10_Node000009_Node000003" class="edge">
<title>Node9&#45;&gt;Node3</title>
<g id="a_edge10_Node000009_Node000003"><a xlink:title=" ">
<path fill="none" stroke="#63b8ff" d="M243.47,-110.09C221.36,-101.56 187.96,-88.67 162.91,-79.01"/>
<polygon fill="#63b8ff" stroke="#63b8ff" points="164.4,-75.83 153.81,-75.5 161.88,-82.36 164.4,-75.83"/>
</a>
</g>
</g>
<!-- Node9&#45;&gt;Node5 -->
<g id="edge11_Node000009_Node000005" class="edge">
<title>Node9&#45;&gt;Node5</title>
<g id="a_edge11_Node000009_Node000005"><a xlink:title=" ">
<path fill="none" stroke="#63b8ff" d="M301.45,-115.96C328.33,-111.48 363.97,-100.65 381.88,-74.5 392.97,-58.3 377.21,-39.49 361.93,-26.49"/>
<polygon fill="#63b8ff" stroke="#63b8ff" points="364.4,-23.98 354.38,-20.52 360.05,-29.47 364.4,-23.98"/>
</a>
</g>
</g>
<!-- Node9&#45;&gt;Node6 -->
<g id="edge12_Node000009_Node000006" class="edge">
<title>Node9&#45;&gt;Node6</title>
<g id="a_edge12_Node000009_Node000006"><a xlink:title=" ">
<path fill="none" stroke="#63b8ff" d="M245.44,-110.12C231.09,-102.82 213.34,-91.02 204.88,-74.5 197.6,-60.3 203.24,-42.68 209.92,-29.54"/>
<polygon fill="#63b8ff" stroke="#63b8ff" points="212.85,-31.47 214.76,-21.05 206.77,-28.01 212.85,-31.47"/>
</a>
</g>
</g>
<!-- Node10 -->
<g id="Node000010" class="node">
<title>Node10</title>
<g id="a_Node000010"><a xlink:title=" ">
<polygon fill="#e0e0e0" stroke="#999999" points="320.25,-74.5 213.5,-74.5 213.5,-55.25 320.25,-55.25 320.25,-74.5"/>
<text text-anchor="middle" x="266.88" y="-61" font-family="Helvetica,sans-Serif" font-size="10.00">./tinyxml2/tinyxml2.h</text>
</a>
</g>
</g>
<!-- Node9&#45;&gt;Node10 -->
<g id="edge9_Node000009_Node000010" class="edge">
<title>Node9&#45;&gt;Node10</title>
<g id="a_edge9_Node000009_Node000010"><a xlink:title=" ">
<path fill="none" stroke="#63b8ff" d="M266.88,-110.33C266.88,-103.82 266.88,-94.67 266.88,-86.37"/>
<polygon fill="#63b8ff" stroke="#63b8ff" points="270.38,-86.37 266.88,-76.37 263.38,-86.37 270.38,-86.37"/>
</a>
</g>
</g>
<!-- Node11 -->
<g id="Node000011" class="node">
<title>Node11</title>
<g id="a_Node000011"><a xlink:title=" ">
<polygon fill="#e0e0e0" stroke="#999999" points="373.25,-74.5 338.5,-74.5 338.5,-55.25 373.25,-55.25 373.25,-74.5"/>
<text text-anchor="middle" x="355.88" y="-61" font-family="Helvetica,sans-Serif" font-size="10.00">map</text>
</a>
</g>
</g>
<!-- Node9&#45;&gt;Node11 -->
<g id="edge13_Node000009_Node000011" class="edge">
<title>Node9&#45;&gt;Node11</title>
<g id="a_edge13_Node000009_Node000011"><a xlink:title=" ">
<path fill="none" stroke="#63b8ff" d="M281.97,-110.09C295.4,-102.06 315.29,-90.16 331.05,-80.73"/>
<polygon fill="#63b8ff" stroke="#63b8ff" points="332.62,-83.87 339.4,-75.73 329.03,-77.86 332.62,-83.87"/>
</a>
</g>
</g>
<!-- Node12&#45;&gt;Node5 -->
<g id="edge15_Node000012_Node000005" class="edge">
<title>Node12&#45;&gt;Node5</title>
<g id="a_edge15_Node000012_Node000005"><a xlink:title=" ">
<path fill="none" stroke="#63b8ff" d="M445.33,-54.84C424.8,-46.23 393.69,-33.19 370.57,-23.5"/>
<polygon fill="#63b8ff" stroke="#63b8ff" points="372.23,-20.4 361.66,-19.76 369.53,-26.85 372.23,-20.4"/>
</a>
</g>
</g>
<!-- Node12&#45;&gt;Node6 -->
<g id="edge17_Node000012_Node000006" class="edge">
<title>Node12&#45;&gt;Node6</title>
<g id="a_edge17_Node000012_Node000006"><a xlink:title=" ">
<path fill="none" stroke="#63b8ff" d="M428.59,-55.55C380.91,-45.19 300.22,-27.65 255.04,-17.83"/>
<polygon fill="#63b8ff" stroke="#63b8ff" points="255.83,-14.42 245.31,-15.72 254.34,-21.26 255.83,-14.42"/>
</a>
</g>
</g>
<!-- Node13 -->
<g id="Node000013" class="node">
<title>Node13</title>
<g id="a_Node000013"><a xlink:title=" ">
<polygon fill="#e0e0e0" stroke="#999999" points="491.38,-19.25 442.38,-19.25 442.38,0 491.38,0 491.38,-19.25"/>
<text text-anchor="middle" x="466.88" y="-5.75" font-family="Helvetica,sans-Serif" font-size="10.00">fstream</text>
</a>
</g>
</g>
<!-- Node12&#45;&gt;Node13 -->
<g id="edge16_Node000012_Node000013" class="edge">
<title>Node12&#45;&gt;Node13</title>
<g id="a_edge16_Node000012_Node000013"><a xlink:title=" ">
<path fill="none" stroke="#63b8ff" d="M466.88,-55.08C466.88,-48.57 466.88,-39.42 466.88,-31.12"/>
<polygon fill="#63b8ff" stroke="#63b8ff" points="470.38,-31.12 466.88,-21.12 463.38,-31.12 470.38,-31.12"/>
</a>
</g>
</g>
<!-- Node14 -->
<g id="Node000014" class="node">
<title>Node14</title>
<g id="a_Node000014"><a xlink:title=" ">
<polygon fill="#e0e0e0" stroke="#999999" points="562.62,-19.25 509.12,-19.25 509.12,0 562.62,0 562.62,-19.25"/>
<text text-anchor="middle" x="535.88" y="-5.75" font-family="Helvetica,sans-Serif" font-size="10.00">iostream</text>
</a>
</g>
</g>
<!-- Node12&#45;&gt;Node14 -->
<g id="edge18_Node000012_Node000014" class="edge">
<title>Node12&#45;&gt;Node14</title>
<g id="a_edge18_Node000012_Node000014"><a xlink:title=" ">
<path fill="none" stroke="#63b8ff" d="M478.58,-54.84C488.65,-47.07 503.42,-35.67 515.44,-26.4"/>
<polygon fill="#63b8ff" stroke="#63b8ff" points="517.37,-29.33 523.14,-20.45 513.09,-23.79 517.37,-29.33"/>
</a>
</g>
</g>
<!-- Node15 -->
<g id="Node000015" class="node">
<title>Node15</title>
<g id="a_Node000015"><a xlink:title=" ">
<polygon fill="#e0e0e0" stroke="#999999" points="631.5,-19.25 580.25,-19.25 580.25,0 631.5,0 631.5,-19.25"/>
<text text-anchor="middle" x="605.88" y="-5.75" font-family="Helvetica,sans-Serif" font-size="10.00">sstream</text>
</a>
</g>
</g>
<!-- Node12&#45;&gt;Node15 -->
<g id="edge19_Node000012_Node000015" class="edge">
<title>Node12&#45;&gt;Node15</title>
<g id="a_edge19_Node000012_Node000015"><a xlink:title=" ">
<path fill="none" stroke="#63b8ff" d="M490.45,-54.84C512.72,-46.31 546.37,-33.42 571.6,-23.76"/>
<polygon fill="#63b8ff" stroke="#63b8ff" points="572.68,-27.09 580.77,-20.24 570.18,-20.55 572.68,-27.09"/>
</a>
</g>
</g>
<!-- Node16 -->
<g id="Node000016" class="node">
<title>Node16</title>
<g id="a_Node000016"><a xlink:title=" ">
<polygon fill="#e0e0e0" stroke="#999999" points="423.88,-19.25 377.88,-19.25 377.88,0 423.88,0 423.88,-19.25"/>
<text text-anchor="middle" x="400.88" y="-5.75" font-family="Helvetica,sans-Serif" font-size="10.00">iterator</text>
</a>
</g>
</g>
<!-- Node12&#45;&gt;Node16 -->
<g id="edge20_Node000012_Node000016" class="edge">
<title>Node12&#45;&gt;Node16</title>
<g id="a_edge20_Node000012_Node000016"><a xlink:title=" ">
<path fill="none" stroke="#63b8ff" d="M455.68,-54.84C446.14,-47.15 432.2,-35.9 420.77,-26.68"/>
<polygon fill="#63b8ff" stroke="#63b8ff" points="423.06,-24.03 413.08,-20.48 418.67,-29.48 423.06,-24.03"/>
</a>
</g>
</g>
</g>
</svg>
