<?xml version="1.0" encoding="UTF-8" standalone="no"?>
<!DOCTYPE svg PUBLIC "-//W3C//DTD SVG 1.1//EN"
 "http://www.w3.org/Graphics/SVG/1.1/DTD/svg11.dtd">
<!-- Generated by graphviz version 12.2.1 (20241206.2353)
 -->
<!-- Title: Common/Loader/ssloader_sspj.cpp Pages: 1 -->
<svg width="1361pt" height="425pt"
 viewBox="0.00 0.00 1360.62 425.25" xmlns="http://www.w3.org/2000/svg" xmlns:xlink="http://www.w3.org/1999/xlink">
<g id="graph0" class="graph" transform="scale(1 1) rotate(0) translate(4 421.25)">
<title>Common/Loader/ssloader_sspj.cpp</title>
<!-- Node1 -->
<g id="Node000001" class="node">
<title>Node1</title>
<g id="a_Node000001"><a xlink:title=" ">
<polygon fill="#999999" stroke="#666666" points="876.38,-417.25 748.62,-417.25 748.62,-386.75 876.38,-386.75 876.38,-417.25"/>
<text text-anchor="start" x="756.62" y="-403.75" font-family="Helvetica,sans-Serif" font-size="10.00">Common/Loader/ssloader</text>
<text text-anchor="middle" x="812.5" y="-392.5" font-family="Helvetica,sans-Serif" font-size="10.00">_sspj.cpp</text>
</a>
</g>
</g>
<!-- Node2 -->
<g id="Node000002" class="node">
<title>Node2</title>
<g id="a_Node000002"><a xlink:href="ssloader__sspj_8h.html" target="_top" xlink:title=" ">
<polygon fill="white" stroke="#666666" points="759.62,-350.75 675.38,-350.75 675.38,-331.5 759.62,-331.5 759.62,-350.75"/>
<text text-anchor="middle" x="717.5" y="-337.25" font-family="Helvetica,sans-Serif" font-size="10.00">ssloader_sspj.h</text>
</a>
</g>
</g>
<!-- Node1&#45;&gt;Node2 -->
<g id="edge1_Node000001_Node000002" class="edge">
<title>Node1&#45;&gt;Node2</title>
<g id="a_edge1_Node000001_Node000002"><a xlink:title=" ">
<path fill="none" stroke="#63b8ff" d="M789.02,-386.45C774.69,-377.57 756.41,-366.24 741.92,-357.26"/>
<polygon fill="#63b8ff" stroke="#63b8ff" points="743.78,-354.29 733.43,-352 740.09,-360.24 743.78,-354.29"/>
</a>
</g>
</g>
<!-- Node12 -->
<g id="Node000012" class="node">
<title>Node12</title>
<g id="a_Node000012"><a xlink:href="ssstring__uty_8h.html" target="_top" xlink:title=" ">
<polygon fill="white" stroke="#666666" points="205.5,-129.75 129.5,-129.75 129.5,-110.5 205.5,-110.5 205.5,-129.75"/>
<text text-anchor="middle" x="167.5" y="-116.25" font-family="Helvetica,sans-Serif" font-size="10.00">ssstring_uty.h</text>
</a>
</g>
</g>
<!-- Node1&#45;&gt;Node12 -->
<g id="edge58_Node000001_Node000012" class="edge">
<title>Node1&#45;&gt;Node12</title>
<g id="a_edge58_Node000001_Node000012"><a xlink:title=" ">
<path fill="none" stroke="#63b8ff" d="M748.2,-396.51C583.17,-384.13 157.5,-346.43 157.5,-286.88 157.5,-286.88 157.5,-286.88 157.5,-229.62 157.5,-198.78 161.56,-163.2 164.5,-141.44"/>
<polygon fill="#63b8ff" stroke="#63b8ff" points="167.96,-141.99 165.9,-131.6 161.03,-141.01 167.96,-141.99"/>
</a>
</g>
</g>
<!-- Node17 -->
<g id="Node000017" class="node">
<title>Node17</title>
<g id="a_Node000017"><a xlink:href="ssloader__ssae_8h.html" target="_top" xlink:title=" ">
<polygon fill="white" stroke="#666666" points="536.12,-295.5 448.88,-295.5 448.88,-276.25 536.12,-276.25 536.12,-295.5"/>
<text text-anchor="middle" x="492.5" y="-282" font-family="Helvetica,sans-Serif" font-size="10.00">ssloader_ssae.h</text>
</a>
</g>
</g>
<!-- Node1&#45;&gt;Node17 -->
<g id="edge54_Node000001_Node000017" class="edge">
<title>Node1&#45;&gt;Node17</title>
<g id="a_edge54_Node000001_Node000017"><a xlink:title=" ">
<path fill="none" stroke="#63b8ff" d="M748.31,-399.92C692.74,-396.46 611.89,-385.21 550.5,-350.75 530.97,-339.79 514.47,-319.85 504.12,-305.15"/>
<polygon fill="#63b8ff" stroke="#63b8ff" points="507.3,-303.6 498.82,-297.25 501.49,-307.5 507.3,-303.6"/>
</a>
</g>
</g>
<!-- Node23 -->
<g id="Node000023" class="node">
<title>Node23</title>
<g id="a_Node000023"><a xlink:href="ssloader__ssce_8h.html" target="_top" xlink:title=" ">
<polygon fill="white" stroke="#666666" points="852.12,-240.25 764.88,-240.25 764.88,-221 852.12,-221 852.12,-240.25"/>
<text text-anchor="middle" x="808.5" y="-226.75" font-family="Helvetica,sans-Serif" font-size="10.00">ssloader_ssce.h</text>
</a>
</g>
</g>
<!-- Node1&#45;&gt;Node23 -->
<g id="edge55_Node000001_Node000023" class="edge">
<title>Node1&#45;&gt;Node23</title>
<g id="a_edge55_Node000001_Node000023"><a xlink:title=" ">
<path fill="none" stroke="#63b8ff" d="M812.15,-386.27C811.44,-356.01 809.8,-286.8 808.99,-252.16"/>
<polygon fill="#63b8ff" stroke="#63b8ff" points="812.49,-252.16 808.75,-242.25 805.49,-252.33 812.49,-252.16"/>
</a>
</g>
</g>
<!-- Node24 -->
<g id="Node000024" class="node">
<title>Node24</title>
<g id="a_Node000024"><a xlink:href="ssloader__ssee_8h.html" target="_top" xlink:title=" ">
<polygon fill="white" stroke="#666666" points="1002.12,-295.5 914.88,-295.5 914.88,-276.25 1002.12,-276.25 1002.12,-295.5"/>
<text text-anchor="middle" x="958.5" y="-282" font-family="Helvetica,sans-Serif" font-size="10.00">ssloader_ssee.h</text>
</a>
</g>
</g>
<!-- Node1&#45;&gt;Node24 -->
<g id="edge56_Node000001_Node000024" class="edge">
<title>Node1&#45;&gt;Node24</title>
<g id="a_edge56_Node000001_Node000024"><a xlink:title=" ">
<path fill="none" stroke="#63b8ff" d="M831.29,-386.31C858.71,-364.88 909.5,-325.17 937.91,-302.97"/>
<polygon fill="#63b8ff" stroke="#63b8ff" points="940.03,-305.75 945.75,-296.84 935.72,-300.24 940.03,-305.75"/>
</a>
</g>
</g>
<!-- Node28 -->
<g id="Node000028" class="node">
<title>Node28</title>
<g id="a_Node000028"><a xlink:href="ssloader__ssqe_8h.html" target="_top" xlink:title=" ">
<polygon fill="white" stroke="#666666" points="670.12,-240.25 582.88,-240.25 582.88,-221 670.12,-221 670.12,-240.25"/>
<text text-anchor="middle" x="626.5" y="-226.75" font-family="Helvetica,sans-Serif" font-size="10.00">ssloader_ssqe.h</text>
</a>
</g>
</g>
<!-- Node1&#45;&gt;Node28 -->
<g id="edge57_Node000001_Node000028" class="edge">
<title>Node1&#45;&gt;Node28</title>
<g id="a_edge57_Node000001_Node000028"><a xlink:title=" ">
<path fill="none" stroke="#63b8ff" d="M748.38,-392.57C692.48,-381.28 615.48,-355.21 583.5,-295.5 574.35,-278.42 589.34,-260.21 604.07,-247.62"/>
<polygon fill="#63b8ff" stroke="#63b8ff" points="606.13,-250.45 611.8,-241.51 601.79,-244.96 606.13,-250.45"/>
</a>
</g>
</g>
<!-- Node30 -->
<g id="Node000030" class="node">
<title>Node30</title>
<g id="a_Node000030"><a xlink:href="_debug_print_8h.html" target="_top" xlink:title=" ">
<polygon fill="white" stroke="#666666" points="1216.25,-240.25 1102.75,-240.25 1102.75,-221 1216.25,-221 1216.25,-240.25"/>
<text text-anchor="middle" x="1159.5" y="-226.75" font-family="Helvetica,sans-Serif" font-size="10.00">../Helper/DebugPrint.h</text>
</a>
</g>
</g>
<!-- Node1&#45;&gt;Node30 -->
<g id="edge59_Node000001_Node000030" class="edge">
<title>Node1&#45;&gt;Node30</title>
<g id="a_edge59_Node000001_Node000030"><a xlink:title=" ">
<path fill="none" stroke="#63b8ff" d="M842.69,-386.27C908.78,-354.01 1065.55,-277.49 1130.52,-245.77"/>
<polygon fill="#63b8ff" stroke="#63b8ff" points="1132.02,-248.93 1139.48,-241.4 1128.95,-242.64 1132.02,-248.93"/>
</a>
</g>
</g>
<!-- Node31 -->
<g id="Node000031" class="node">
<title>Node31</title>
<g id="a_Node000031"><a xlink:href="sscharconverter_8h.html" target="_top" xlink:title=" ">
<polygon fill="white" stroke="#666666" points="1205.12,-350.75 1111.88,-350.75 1111.88,-331.5 1205.12,-331.5 1205.12,-350.75"/>
<text text-anchor="middle" x="1158.5" y="-337.25" font-family="Helvetica,sans-Serif" font-size="10.00">sscharconverter.h</text>
</a>
</g>
</g>
<!-- Node1&#45;&gt;Node31 -->
<g id="edge61_Node000001_Node000031" class="edge">
<title>Node1&#45;&gt;Node31</title>
<g id="a_edge61_Node000001_Node000031"><a xlink:title=" ">
<path fill="none" stroke="#63b8ff" d="M876.77,-390.06C940.89,-379.15 1038.51,-362.54 1100.38,-352.02"/>
<polygon fill="#63b8ff" stroke="#63b8ff" points="1100.73,-355.51 1110,-350.38 1099.56,-348.6 1100.73,-355.51"/>
</a>
</g>
</g>
<!-- Node32 -->
<g id="Node000032" class="node">
<title>Node32</title>
<g id="a_Node000032"><a xlink:href="ss_filesystem_8h.html" target="_top" xlink:title=" ">
<polygon fill="white" stroke="#666666" points="1323.88,-350.75 1241.12,-350.75 1241.12,-331.5 1323.88,-331.5 1323.88,-350.75"/>
<text text-anchor="middle" x="1282.5" y="-337.25" font-family="Helvetica,sans-Serif" font-size="10.00">ssFilesystem.h</text>
</a>
</g>
</g>
<!-- Node1&#45;&gt;Node32 -->
<g id="edge63_Node000001_Node000032" class="edge">
<title>Node1&#45;&gt;Node32</title>
<g id="a_edge63_Node000001_Node000032"><a xlink:title=" ">
<path fill="none" stroke="#63b8ff" d="M876.56,-393.03C955.89,-383.15 1095.17,-365.78 1214.5,-350.75 1219.41,-350.13 1224.53,-349.49 1229.65,-348.84"/>
<polygon fill="#63b8ff" stroke="#63b8ff" points="1229.8,-352.35 1239.28,-347.62 1228.92,-345.4 1229.8,-352.35"/>
</a>
</g>
</g>
<!-- Node3 -->
<g id="Node000003" class="node">
<title>Node3</title>
<g id="a_Node000003"><a xlink:href="sstypes_8h.html" target="_top" xlink:title=" ">
<polygon fill="white" stroke="#666666" points="799.88,-74.5 741.12,-74.5 741.12,-55.25 799.88,-55.25 799.88,-74.5"/>
<text text-anchor="middle" x="770.5" y="-61" font-family="Helvetica,sans-Serif" font-size="10.00">sstypes.h</text>
</a>
</g>
</g>
<!-- Node2&#45;&gt;Node3 -->
<g id="edge2_Node000002_Node000003" class="edge">
<title>Node2&#45;&gt;Node3</title>
<g id="a_edge2_Node000002_Node000003"><a xlink:title=" ">
<path fill="none" stroke="#63b8ff" d="M719.26,-331C726.75,-292.28 755.97,-141.04 766.61,-86.03"/>
<polygon fill="#63b8ff" stroke="#63b8ff" points="770.04,-86.73 768.5,-76.24 763.16,-85.4 770.04,-86.73"/>
</a>
</g>
</g>
<!-- Node9 -->
<g id="Node000009" class="node">
<title>Node9</title>
<g id="a_Node000009"><a xlink:href="ssarchiver_8h.html" target="_top" xlink:title=" ">
<polygon fill="white" stroke="#666666" points="716.75,-129.75 648.25,-129.75 648.25,-110.5 716.75,-110.5 716.75,-129.75"/>
<text text-anchor="middle" x="682.5" y="-116.25" font-family="Helvetica,sans-Serif" font-size="10.00">ssarchiver.h</text>
</a>
</g>
</g>
<!-- Node2&#45;&gt;Node9 -->
<g id="edge8_Node000002_Node000009" class="edge">
<title>Node2&#45;&gt;Node9</title>
<g id="a_edge8_Node000002_Node000009"><a xlink:title=" ">
<path fill="none" stroke="#63b8ff" d="M716.08,-331.27C710.93,-299.01 693.07,-187.26 685.71,-141.21"/>
<polygon fill="#63b8ff" stroke="#63b8ff" points="689.17,-140.67 684.13,-131.35 682.26,-141.77 689.17,-140.67"/>
</a>
</g>
</g>
<!-- Node2&#45;&gt;Node12 -->
<g id="edge14_Node000002_Node000012" class="edge">
<title>Node2&#45;&gt;Node12</title>
<g id="a_edge14_Node000002_Node000012"><a xlink:title=" ">
<path fill="none" stroke="#63b8ff" d="M674.95,-337.88C619.42,-333.93 519.88,-323.3 439.5,-295.5 343.89,-262.43 323.25,-243.19 240.5,-185 219.97,-170.56 198.59,-151.28 184.32,-137.69"/>
<polygon fill="#63b8ff" stroke="#63b8ff" points="187.14,-135.54 177.51,-131.11 182.27,-140.58 187.14,-135.54"/>
</a>
</g>
</g>
<!-- Node2&#45;&gt;Node17 -->
<g id="edge21_Node000002_Node000017" class="edge">
<title>Node2&#45;&gt;Node17</title>
<g id="a_edge21_Node000002_Node000017"><a xlink:title=" ">
<path fill="none" stroke="#63b8ff" d="M679.08,-331.03C641.22,-322.07 583.21,-308.34 541.93,-298.57"/>
<polygon fill="#63b8ff" stroke="#63b8ff" points="542.77,-295.18 532.24,-296.28 541.16,-301.99 542.77,-295.18"/>
</a>
</g>
</g>
<!-- Node2&#45;&gt;Node23 -->
<g id="edge35_Node000002_Node000023" class="edge">
<title>Node2&#45;&gt;Node23</title>
<g id="a_edge35_Node000002_Node000023"><a xlink:title=" ">
<path fill="none" stroke="#63b8ff" d="M724.95,-331.25C739.94,-313.36 774.03,-272.72 793.72,-249.25"/>
<polygon fill="#63b8ff" stroke="#63b8ff" points="796.23,-251.7 799.98,-241.79 790.87,-247.2 796.23,-251.7"/>
</a>
</g>
</g>
<!-- Node2&#45;&gt;Node24 -->
<g id="edge38_Node000002_Node000024" class="edge">
<title>Node2&#45;&gt;Node24</title>
<g id="a_edge38_Node000002_Node000024"><a xlink:title=" ">
<path fill="none" stroke="#63b8ff" d="M758.66,-331.03C799.47,-322.01 862.14,-308.17 906.4,-298.39"/>
<polygon fill="#63b8ff" stroke="#63b8ff" points="907.03,-301.83 916.04,-296.26 905.52,-295 907.03,-301.83"/>
</a>
</g>
</g>
<!-- Node27 -->
<g id="Node000027" class="node">
<title>Node27</title>
<g id="a_Node000027"><a xlink:title=" ">
<polygon fill="#e0e0e0" stroke="#999999" points="883.12,-185 831.88,-185 831.88,-165.75 883.12,-165.75 883.12,-185"/>
<text text-anchor="middle" x="857.5" y="-171.5" font-family="Helvetica,sans-Serif" font-size="10.00">memory</text>
</a>
</g>
</g>
<!-- Node2&#45;&gt;Node27 -->
<g id="edge52_Node000002_Node000027" class="edge">
<title>Node2&#45;&gt;Node27</title>
<g id="a_edge52_Node000002_Node000027"><a xlink:title=" ">
<path fill="none" stroke="#63b8ff" d="M743.04,-331.09C777.25,-317.44 836.53,-287.96 861.5,-240.25 868.6,-226.68 866.9,-209.21 863.81,-195.97"/>
<polygon fill="#63b8ff" stroke="#63b8ff" points="867.28,-195.38 861.21,-186.69 860.54,-197.27 867.28,-195.38"/>
</a>
</g>
</g>
<!-- Node2&#45;&gt;Node28 -->
<g id="edge49_Node000002_Node000028" class="edge">
<title>Node2&#45;&gt;Node28</title>
<g id="a_edge49_Node000002_Node000028"><a xlink:title=" ">
<path fill="none" stroke="#63b8ff" d="M710.05,-331.25C695.06,-313.36 660.97,-272.72 641.28,-249.25"/>
<polygon fill="#63b8ff" stroke="#63b8ff" points="644.13,-247.2 635.02,-241.79 638.77,-251.7 644.13,-247.2"/>
</a>
</g>
</g>
<!-- Node29 -->
<g id="Node000029" class="node">
<title>Node29</title>
<g id="a_Node000029"><a xlink:title=" ">
<polygon fill="#e0e0e0" stroke="#999999" points="632.12,-295.5 592.88,-295.5 592.88,-276.25 632.12,-276.25 632.12,-295.5"/>
<text text-anchor="middle" x="612.5" y="-282" font-family="Helvetica,sans-Serif" font-size="10.00">utility</text>
</a>
</g>
</g>
<!-- Node2&#45;&gt;Node29 -->
<g id="edge53_Node000002_Node000029" class="edge">
<title>Node2&#45;&gt;Node29</title>
<g id="a_edge53_Node000002_Node000029"><a xlink:title=" ">
<path fill="none" stroke="#63b8ff" d="M699.69,-331.09C683.47,-322.87 659.26,-310.59 640.47,-301.06"/>
<polygon fill="#63b8ff" stroke="#63b8ff" points="642.25,-298.04 631.75,-296.64 639.08,-304.28 642.25,-298.04"/>
</a>
</g>
</g>
<!-- Node4 -->
<g id="Node000004" class="node">
<title>Node4</title>
<g id="a_Node000004"><a xlink:title=" ">
<polygon fill="#e0e0e0" stroke="#999999" points="731.25,-19.25 683.75,-19.25 683.75,0 731.25,0 731.25,-19.25"/>
<text text-anchor="middle" x="707.5" y="-5.75" font-family="Helvetica,sans-Serif" font-size="10.00">stdlib.h</text>
</a>
</g>
</g>
<!-- Node3&#45;&gt;Node4 -->
<g id="edge3_Node000003_Node000004" class="edge">
<title>Node3&#45;&gt;Node4</title>
<g id="a_edge3_Node000003_Node000004"><a xlink:title=" ">
<path fill="none" stroke="#63b8ff" d="M759.81,-54.84C750.8,-47.22 737.67,-36.12 726.82,-26.95"/>
<polygon fill="#63b8ff" stroke="#63b8ff" points="729.08,-24.28 719.19,-20.5 724.56,-29.63 729.08,-24.28"/>
</a>
</g>
</g>
<!-- Node5 -->
<g id="Node000005" class="node">
<title>Node5</title>
<g id="a_Node000005"><a xlink:title=" ">
<polygon fill="#e0e0e0" stroke="#999999" points="1053.5,-19.25 1013.5,-19.25 1013.5,0 1053.5,0 1053.5,-19.25"/>
<text text-anchor="middle" x="1033.5" y="-5.75" font-family="Helvetica,sans-Serif" font-size="10.00">string</text>
</a>
</g>
</g>
<!-- Node3&#45;&gt;Node5 -->
<g id="edge4_Node000003_Node000005" class="edge">
<title>Node3&#45;&gt;Node5</title>
<g id="a_edge4_Node000003_Node000005"><a xlink:title=" ">
<path fill="none" stroke="#63b8ff" d="M800.16,-57.87C850.26,-47.73 951.18,-27.29 1002.3,-16.94"/>
<polygon fill="#63b8ff" stroke="#63b8ff" points="1002.7,-20.43 1011.81,-15.02 1001.32,-13.57 1002.7,-20.43"/>
</a>
</g>
</g>
<!-- Node6 -->
<g id="Node000006" class="node">
<title>Node6</title>
<g id="a_Node000006"><a xlink:title=" ">
<polygon fill="#e0e0e0" stroke="#999999" points="460,-19.25 417,-19.25 417,0 460,0 460,-19.25"/>
<text text-anchor="middle" x="438.5" y="-5.75" font-family="Helvetica,sans-Serif" font-size="10.00">vector</text>
</a>
</g>
</g>
<!-- Node3&#45;&gt;Node6 -->
<g id="edge5_Node000003_Node000006" class="edge">
<title>Node3&#45;&gt;Node6</title>
<g id="a_edge5_Node000003_Node000006"><a xlink:title=" ">
<path fill="none" stroke="#63b8ff" d="M740.73,-57.08C737.62,-56.43 734.5,-55.81 731.5,-55.25 637.68,-37.75 526.01,-22.18 471.6,-14.94"/>
<polygon fill="#63b8ff" stroke="#63b8ff" points="472.14,-11.48 461.77,-13.63 471.22,-18.42 472.14,-11.48"/>
</a>
</g>
</g>
<!-- Node7 -->
<g id="Node000007" class="node">
<title>Node7</title>
<g id="a_Node000007"><a xlink:title=" ">
<polygon fill="#e0e0e0" stroke="#999999" points="792,-19.25 749,-19.25 749,0 792,0 792,-19.25"/>
<text text-anchor="middle" x="770.5" y="-5.75" font-family="Helvetica,sans-Serif" font-size="10.00">cmath</text>
</a>
</g>
</g>
<!-- Node3&#45;&gt;Node7 -->
<g id="edge6_Node000003_Node000007" class="edge">
<title>Node3&#45;&gt;Node7</title>
<g id="a_edge6_Node000003_Node000007"><a xlink:title=" ">
<path fill="none" stroke="#63b8ff" d="M770.5,-55.08C770.5,-48.57 770.5,-39.42 770.5,-31.12"/>
<polygon fill="#63b8ff" stroke="#63b8ff" points="774,-31.12 770.5,-21.12 767,-31.12 774,-31.12"/>
</a>
</g>
</g>
<!-- Node8 -->
<g id="Node000008" class="node">
<title>Node8</title>
<g id="a_Node000008"><a xlink:title=" ">
<polygon fill="#e0e0e0" stroke="#999999" points="865.38,-19.25 809.62,-19.25 809.62,0 865.38,0 865.38,-19.25"/>
<text text-anchor="middle" x="837.5" y="-5.75" font-family="Helvetica,sans-Serif" font-size="10.00">algorithm</text>
</a>
</g>
</g>
<!-- Node3&#45;&gt;Node8 -->
<g id="edge7_Node000003_Node000008" class="edge">
<title>Node3&#45;&gt;Node8</title>
<g id="a_edge7_Node000003_Node000008"><a xlink:title=" ">
<path fill="none" stroke="#63b8ff" d="M781.87,-54.84C791.55,-47.15 805.7,-35.9 817.31,-26.68"/>
<polygon fill="#63b8ff" stroke="#63b8ff" points="819.47,-29.43 825.12,-20.47 815.11,-23.95 819.47,-29.43"/>
</a>
</g>
</g>
<!-- Node9&#45;&gt;Node3 -->
<g id="edge10_Node000009_Node000003" class="edge">
<title>Node9&#45;&gt;Node3</title>
<g id="a_edge10_Node000009_Node000003"><a xlink:title=" ">
<path fill="none" stroke="#63b8ff" d="M697.43,-110.09C710.7,-102.06 730.37,-90.16 745.95,-80.73"/>
<polygon fill="#63b8ff" stroke="#63b8ff" points="747.46,-83.91 754.2,-75.74 743.84,-77.92 747.46,-83.91"/>
</a>
</g>
</g>
<!-- Node9&#45;&gt;Node5 -->
<g id="edge11_Node000009_Node000005" class="edge">
<title>Node9&#45;&gt;Node5</title>
<g id="a_edge11_Node000009_Node000005"><a xlink:title=" ">
<path fill="none" stroke="#63b8ff" d="M711.82,-110.06C777.39,-89.79 935.38,-40.95 1002.5,-20.21"/>
<polygon fill="#63b8ff" stroke="#63b8ff" points="1003.23,-23.64 1011.75,-17.35 1001.17,-16.96 1003.23,-23.64"/>
</a>
</g>
</g>
<!-- Node9&#45;&gt;Node6 -->
<g id="edge12_Node000009_Node000006" class="edge">
<title>Node9&#45;&gt;Node6</title>
<g id="a_edge12_Node000009_Node000006"><a xlink:title=" ">
<path fill="none" stroke="#63b8ff" d="M662.12,-110.06C619.33,-91.03 519.93,-46.83 469.31,-24.33"/>
<polygon fill="#63b8ff" stroke="#63b8ff" points="470.94,-21.22 460.38,-20.35 468.1,-27.62 470.94,-21.22"/>
</a>
</g>
</g>
<!-- Node10 -->
<g id="Node000010" class="node">
<title>Node10</title>
<g id="a_Node000010"><a xlink:title=" ">
<polygon fill="#e0e0e0" stroke="#999999" points="722.88,-74.5 616.12,-74.5 616.12,-55.25 722.88,-55.25 722.88,-74.5"/>
<text text-anchor="middle" x="669.5" y="-61" font-family="Helvetica,sans-Serif" font-size="10.00">./tinyxml2/tinyxml2.h</text>
</a>
</g>
</g>
<!-- Node9&#45;&gt;Node10 -->
<g id="edge9_Node000009_Node000010" class="edge">
<title>Node9&#45;&gt;Node10</title>
<g id="a_edge9_Node000009_Node000010"><a xlink:title=" ">
<path fill="none" stroke="#63b8ff" d="M680.35,-110.33C678.73,-103.67 676.42,-94.24 674.36,-85.78"/>
<polygon fill="#63b8ff" stroke="#63b8ff" points="677.82,-85.21 672.05,-76.33 671.02,-86.87 677.82,-85.21"/>
</a>
</g>
</g>
<!-- Node11 -->
<g id="Node000011" class="node">
<title>Node11</title>
<g id="a_Node000011"><a xlink:title=" ">
<polygon fill="#e0e0e0" stroke="#999999" points="419.88,-74.5 385.12,-74.5 385.12,-55.25 419.88,-55.25 419.88,-74.5"/>
<text text-anchor="middle" x="402.5" y="-61" font-family="Helvetica,sans-Serif" font-size="10.00">map</text>
</a>
</g>
</g>
<!-- Node9&#45;&gt;Node11 -->
<g id="edge13_Node000009_Node000011" class="edge">
<title>Node9&#45;&gt;Node11</title>
<g id="a_edge13_Node000009_Node000011"><a xlink:title=" ">
<path fill="none" stroke="#63b8ff" d="M647.89,-112.54C592.1,-101.93 483.31,-81.24 431.4,-71.37"/>
<polygon fill="#63b8ff" stroke="#63b8ff" points="432.32,-67.98 421.85,-69.55 431.02,-74.86 432.32,-67.98"/>
</a>
</g>
</g>
<!-- Node12&#45;&gt;Node5 -->
<g id="edge15_Node000012_Node000005" class="edge">
<title>Node12&#45;&gt;Node5</title>
<g id="a_edge15_Node000012_Node000005"><a xlink:title=" ">
<path fill="none" stroke="#63b8ff" d="M194.56,-110.01C242.58,-93.97 340.96,-61.8 376.5,-55.25 438.39,-43.85 879.78,-19.05 1002.13,-12.33"/>
<polygon fill="#63b8ff" stroke="#63b8ff" points="1001.96,-15.85 1011.75,-11.81 1001.57,-8.86 1001.96,-15.85"/>
</a>
</g>
</g>
<!-- Node12&#45;&gt;Node6 -->
<g id="edge17_Node000012_Node000006" class="edge">
<title>Node12&#45;&gt;Node6</title>
<g id="a_edge17_Node000012_Node000006"><a xlink:title=" ">
<path fill="none" stroke="#63b8ff" d="M186.85,-110.02C221.99,-93.52 293.73,-59.93 305.5,-55.25 339.16,-41.86 378.61,-28.96 405.75,-20.51"/>
<polygon fill="#63b8ff" stroke="#63b8ff" points="406.61,-23.91 415.13,-17.61 404.55,-17.22 406.61,-23.91"/>
</a>
</g>
</g>
<!-- Node13 -->
<g id="Node000013" class="node">
<title>Node13</title>
<g id="a_Node000013"><a xlink:title=" ">
<polygon fill="#e0e0e0" stroke="#999999" points="49,-74.5 0,-74.5 0,-55.25 49,-55.25 49,-74.5"/>
<text text-anchor="middle" x="24.5" y="-61" font-family="Helvetica,sans-Serif" font-size="10.00">fstream</text>
</a>
</g>
</g>
<!-- Node12&#45;&gt;Node13 -->
<g id="edge16_Node000012_Node000013" class="edge">
<title>Node12&#45;&gt;Node13</title>
<g id="a_edge16_Node000012_Node000013"><a xlink:title=" ">
<path fill="none" stroke="#63b8ff" d="M143.24,-110.09C120.23,-101.52 85.41,-88.56 59.42,-78.88"/>
<polygon fill="#63b8ff" stroke="#63b8ff" points="60.89,-75.69 50.3,-75.48 58.45,-82.25 60.89,-75.69"/>
</a>
</g>
</g>
<!-- Node14 -->
<g id="Node000014" class="node">
<title>Node14</title>
<g id="a_Node000014"><a xlink:title=" ">
<polygon fill="#e0e0e0" stroke="#999999" points="120.25,-74.5 66.75,-74.5 66.75,-55.25 120.25,-55.25 120.25,-74.5"/>
<text text-anchor="middle" x="93.5" y="-61" font-family="Helvetica,sans-Serif" font-size="10.00">iostream</text>
</a>
</g>
</g>
<!-- Node12&#45;&gt;Node14 -->
<g id="edge18_Node000012_Node000014" class="edge">
<title>Node12&#45;&gt;Node14</title>
<g id="a_edge18_Node000012_Node000014"><a xlink:title=" ">
<path fill="none" stroke="#63b8ff" d="M154.95,-110.09C144.04,-102.24 128,-90.7 115.04,-81.37"/>
<polygon fill="#63b8ff" stroke="#63b8ff" points="117.26,-78.66 107.1,-75.66 113.17,-84.34 117.26,-78.66"/>
</a>
</g>
</g>
<!-- Node15 -->
<g id="Node000015" class="node">
<title>Node15</title>
<g id="a_Node000015"><a xlink:title=" ">
<polygon fill="#e0e0e0" stroke="#999999" points="189.12,-74.5 137.88,-74.5 137.88,-55.25 189.12,-55.25 189.12,-74.5"/>
<text text-anchor="middle" x="163.5" y="-61" font-family="Helvetica,sans-Serif" font-size="10.00">sstream</text>
</a>
</g>
</g>
<!-- Node12&#45;&gt;Node15 -->
<g id="edge19_Node000012_Node000015" class="edge">
<title>Node12&#45;&gt;Node15</title>
<g id="a_edge19_Node000012_Node000015"><a xlink:title=" ">
<path fill="none" stroke="#63b8ff" d="M166.84,-110.33C166.34,-103.74 165.65,-94.46 165.02,-86.07"/>
<polygon fill="#63b8ff" stroke="#63b8ff" points="168.53,-86.08 164.29,-76.37 161.55,-86.6 168.53,-86.08"/>
</a>
</g>
</g>
<!-- Node16 -->
<g id="Node000016" class="node">
<title>Node16</title>
<g id="a_Node000016"><a xlink:title=" ">
<polygon fill="#e0e0e0" stroke="#999999" points="253.5,-74.5 207.5,-74.5 207.5,-55.25 253.5,-55.25 253.5,-74.5"/>
<text text-anchor="middle" x="230.5" y="-61" font-family="Helvetica,sans-Serif" font-size="10.00">iterator</text>
</a>
</g>
</g>
<!-- Node12&#45;&gt;Node16 -->
<g id="edge20_Node000012_Node000016" class="edge">
<title>Node12&#45;&gt;Node16</title>
<g id="a_edge20_Node000012_Node000016"><a xlink:title=" ">
<path fill="none" stroke="#63b8ff" d="M178.19,-110.09C187.2,-102.47 200.33,-91.37 211.18,-82.2"/>
<polygon fill="#63b8ff" stroke="#63b8ff" points="213.44,-84.88 218.81,-75.75 208.92,-79.53 213.44,-84.88"/>
</a>
</g>
</g>
<!-- Node17&#45;&gt;Node3 -->
<g id="edge22_Node000017_Node000003" class="edge">
<title>Node17&#45;&gt;Node3</title>
<g id="a_edge22_Node000017_Node000003"><a xlink:title=" ">
<path fill="none" stroke="#63b8ff" d="M496.67,-276.1C510.63,-247.64 558.66,-157.1 625.5,-110.5 642.49,-98.66 693.31,-84.53 729.99,-75.39"/>
<polygon fill="#63b8ff" stroke="#63b8ff" points="730.52,-78.86 739.4,-73.08 728.85,-72.06 730.52,-78.86"/>
</a>
</g>
</g>
<!-- Node17&#45;&gt;Node9 -->
<g id="edge23_Node000017_Node000009" class="edge">
<title>Node17&#45;&gt;Node9</title>
<g id="a_edge23_Node000017_Node000009"><a xlink:title=" ">
<path fill="none" stroke="#63b8ff" d="M502.99,-275.84C533.81,-249.27 624.44,-171.16 663.85,-137.2"/>
<polygon fill="#63b8ff" stroke="#63b8ff" points="665.84,-140.1 671.13,-130.92 661.27,-134.8 665.84,-140.1"/>
</a>
</g>
</g>
<!-- Node18 -->
<g id="Node000018" class="node">
<title>Node18</title>
<g id="a_Node000018"><a xlink:href="ssattribute_8h.html" target="_top" xlink:title=" ">
<polygon fill="white" stroke="#666666" points="432.5,-240.25 362.5,-240.25 362.5,-221 432.5,-221 432.5,-240.25"/>
<text text-anchor="middle" x="397.5" y="-226.75" font-family="Helvetica,sans-Serif" font-size="10.00">ssattribute.h</text>
</a>
</g>
</g>
<!-- Node17&#45;&gt;Node18 -->
<g id="edge24_Node000017_Node000018" class="edge">
<title>Node17&#45;&gt;Node18</title>
<g id="a_edge24_Node000017_Node000018"><a xlink:title=" ">
<path fill="none" stroke="#63b8ff" d="M476.38,-275.84C461.92,-267.73 440.42,-255.68 423.52,-246.21"/>
<polygon fill="#63b8ff" stroke="#63b8ff" points="425.45,-243.28 415.01,-241.44 422.03,-249.39 425.45,-243.28"/>
</a>
</g>
</g>
<!-- Node18&#45;&gt;Node3 -->
<g id="edge25_Node000018_Node000003" class="edge">
<title>Node18&#45;&gt;Node3</title>
<g id="a_edge25_Node000018_Node000003"><a xlink:title=" ">
<path fill="none" stroke="#63b8ff" d="M422.3,-220.58C440.11,-213.14 463.83,-201.18 480.5,-185 507.94,-158.38 492.15,-132.38 523.5,-110.5 597.5,-58.85 636.42,-90.03 729.41,-74.66"/>
<polygon fill="#63b8ff" stroke="#63b8ff" points="730.02,-78.11 739.23,-72.88 728.77,-71.22 730.02,-78.11"/>
</a>
</g>
</g>
<!-- Node18&#45;&gt;Node11 -->
<g id="edge34_Node000018_Node000011" class="edge">
<title>Node18&#45;&gt;Node11</title>
<g id="a_edge34_Node000018_Node000011"><a xlink:title=" ">
<path fill="none" stroke="#63b8ff" d="M362.18,-229.81C327.92,-227.86 277.54,-218.9 252.5,-185 214.12,-133.04 320.35,-91.35 373.83,-74.26"/>
<polygon fill="#63b8ff" stroke="#63b8ff" points="374.71,-77.65 383.22,-71.34 372.64,-70.96 374.71,-77.65"/>
</a>
</g>
</g>
<!-- Node19 -->
<g id="Node000019" class="node">
<title>Node19</title>
<g id="a_Node000019"><a xlink:href="ssvalue_8h.html" target="_top" xlink:title=" ">
<polygon fill="white" stroke="#666666" points="471.5,-185 413.5,-185 413.5,-165.75 471.5,-165.75 471.5,-185"/>
<text text-anchor="middle" x="442.5" y="-171.5" font-family="Helvetica,sans-Serif" font-size="10.00">ssvalue.h</text>
</a>
</g>
</g>
<!-- Node18&#45;&gt;Node19 -->
<g id="edge26_Node000018_Node000019" class="edge">
<title>Node18&#45;&gt;Node19</title>
<g id="a_edge26_Node000018_Node000019"><a xlink:title=" ">
<path fill="none" stroke="#63b8ff" d="M404.93,-220.83C411.08,-213.55 420.01,-202.98 427.63,-193.98"/>
<polygon fill="#63b8ff" stroke="#63b8ff" points="430.15,-196.41 433.93,-186.52 424.8,-191.89 430.15,-196.41"/>
</a>
</g>
</g>
<!-- Node21 -->
<g id="Node000021" class="node">
<title>Node21</title>
<g id="a_Node000021"><a xlink:href="ss_interpolation_8h.html" target="_top" xlink:title=" ">
<polygon fill="white" stroke="#666666" points="395.5,-185 307.5,-185 307.5,-165.75 395.5,-165.75 395.5,-185"/>
<text text-anchor="middle" x="351.5" y="-171.5" font-family="Helvetica,sans-Serif" font-size="10.00">ssInterpolation.h</text>
</a>
</g>
</g>
<!-- Node18&#45;&gt;Node21 -->
<g id="edge32_Node000018_Node000021" class="edge">
<title>Node18&#45;&gt;Node21</title>
<g id="a_edge32_Node000018_Node000021"><a xlink:title=" ">
<path fill="none" stroke="#63b8ff" d="M389.9,-220.83C383.62,-213.55 374.49,-202.98 366.7,-193.98"/>
<polygon fill="#63b8ff" stroke="#63b8ff" points="369.44,-191.78 360.25,-186.5 364.14,-196.36 369.44,-191.78"/>
</a>
</g>
</g>
<!-- Node22 -->
<g id="Node000022" class="node">
<title>Node22</title>
<g id="a_Node000022"><a xlink:title=" ">
<polygon fill="#e0e0e0" stroke="#999999" points="289.9,-185 261.1,-185 261.1,-165.75 289.9,-165.75 289.9,-185"/>
<text text-anchor="middle" x="275.5" y="-171.5" font-family="Helvetica,sans-Serif" font-size="10.00">list</text>
</a>
</g>
</g>
<!-- Node18&#45;&gt;Node22 -->
<g id="edge33_Node000018_Node000022" class="edge">
<title>Node18&#45;&gt;Node22</title>
<g id="a_edge33_Node000018_Node000022"><a xlink:title=" ">
<path fill="none" stroke="#63b8ff" d="M376.8,-220.59C355.75,-211.4 323.11,-197.15 300.59,-187.33"/>
<polygon fill="#63b8ff" stroke="#63b8ff" points="302.11,-184.17 291.54,-183.38 299.31,-190.58 302.11,-184.17"/>
</a>
</g>
</g>
<!-- Node19&#45;&gt;Node6 -->
<g id="edge30_Node000019_Node000006" class="edge">
<title>Node19&#45;&gt;Node6</title>
<g id="a_edge30_Node000019_Node000006"><a xlink:title=" ">
<path fill="none" stroke="#63b8ff" d="M433.18,-165.28C417.25,-148.94 385.63,-112.71 376.5,-74.5 374.51,-66.18 372.6,-62.86 376.5,-55.25 383.11,-42.34 395.39,-32.32 407.29,-25.07"/>
<polygon fill="#63b8ff" stroke="#63b8ff" points="408.7,-28.29 415.74,-20.37 405.3,-22.17 408.7,-28.29"/>
</a>
</g>
</g>
<!-- Node19&#45;&gt;Node9 -->
<g id="edge27_Node000019_Node000009" class="edge">
<title>Node19&#45;&gt;Node9</title>
<g id="a_edge27_Node000019_Node000009"><a xlink:title=" ">
<path fill="none" stroke="#63b8ff" d="M471.93,-167.85C513.07,-158.72 588.15,-142.06 636.66,-131.3"/>
<polygon fill="#63b8ff" stroke="#63b8ff" points="637.3,-134.74 646.3,-129.16 635.78,-127.91 637.3,-134.74"/>
</a>
</g>
</g>
<!-- Node19&#45;&gt;Node11 -->
<g id="edge29_Node000019_Node000011" class="edge">
<title>Node19&#45;&gt;Node11</title>
<g id="a_edge29_Node000019_Node000011"><a xlink:title=" ">
<path fill="none" stroke="#63b8ff" d="M435.4,-165.35C428.96,-156.7 419.7,-143.04 414.5,-129.75 409.01,-115.72 405.98,-98.95 404.34,-86.12"/>
<polygon fill="#63b8ff" stroke="#63b8ff" points="407.84,-85.91 403.29,-76.35 400.88,-86.66 407.84,-85.91"/>
</a>
</g>
</g>
<!-- Node19&#45;&gt;Node12 -->
<g id="edge28_Node000019_Node000012" class="edge">
<title>Node19&#45;&gt;Node12</title>
<g id="a_edge28_Node000019_Node000012"><a xlink:title=" ">
<path fill="none" stroke="#63b8ff" d="M413.07,-167.58C410.17,-166.95 407.28,-166.33 404.5,-165.75 339.93,-152.35 265.09,-138.54 217.07,-129.91"/>
<polygon fill="#63b8ff" stroke="#63b8ff" points="217.71,-126.47 207.25,-128.15 216.48,-133.36 217.71,-126.47"/>
</a>
</g>
</g>
<!-- Node20 -->
<g id="Node000020" class="node">
<title>Node20</title>
<g id="a_Node000020"><a xlink:title=" ">
<polygon fill="#e0e0e0" stroke="#999999" points="471.62,-129.75 423.38,-129.75 423.38,-110.5 471.62,-110.5 471.62,-129.75"/>
<text text-anchor="middle" x="447.5" y="-116.25" font-family="Helvetica,sans-Serif" font-size="10.00">cassert</text>
</a>
</g>
</g>
<!-- Node19&#45;&gt;Node20 -->
<g id="edge31_Node000019_Node000020" class="edge">
<title>Node19&#45;&gt;Node20</title>
<g id="a_edge31_Node000019_Node000020"><a xlink:title=" ">
<path fill="none" stroke="#63b8ff" d="M443.33,-165.58C443.94,-158.99 444.82,-149.71 445.6,-141.32"/>
<polygon fill="#63b8ff" stroke="#63b8ff" points="449.06,-141.9 446.51,-131.62 442.1,-141.25 449.06,-141.9"/>
</a>
</g>
</g>
<!-- Node23&#45;&gt;Node3 -->
<g id="edge36_Node000023_Node000003" class="edge">
<title>Node23&#45;&gt;Node3</title>
<g id="a_edge36_Node000023_Node000003"><a xlink:title=" ">
<path fill="none" stroke="#63b8ff" d="M806.46,-220.82C800.55,-195.39 783.37,-121.35 775.08,-85.62"/>
<polygon fill="#63b8ff" stroke="#63b8ff" points="778.57,-85.15 772.9,-76.2 771.75,-86.73 778.57,-85.15"/>
</a>
</g>
</g>
<!-- Node23&#45;&gt;Node9 -->
<g id="edge37_Node000023_Node000009" class="edge">
<title>Node23&#45;&gt;Node9</title>
<g id="a_edge37_Node000023_Node000009"><a xlink:title=" ">
<path fill="none" stroke="#63b8ff" d="M798.19,-220.75C777.05,-202.55 728.54,-160.77 701.53,-137.51"/>
<polygon fill="#63b8ff" stroke="#63b8ff" points="703.96,-134.99 694.1,-131.11 699.39,-140.29 703.96,-134.99"/>
</a>
</g>
</g>
<!-- Node24&#45;&gt;Node3 -->
<g id="edge39_Node000024_Node000003" class="edge">
<title>Node24&#45;&gt;Node3</title>
<g id="a_edge39_Node000024_Node000003"><a xlink:title=" ">
<path fill="none" stroke="#63b8ff" d="M982.41,-275.79C1023.45,-258.59 1101.04,-218.27 1080.5,-165.75 1068.33,-134.63 1058.86,-126.46 1029.5,-110.5 959.62,-72.51 864.82,-65.56 811.44,-65"/>
<polygon fill="#63b8ff" stroke="#63b8ff" points="811.59,-61.5 801.58,-64.98 811.57,-68.5 811.59,-61.5"/>
</a>
</g>
</g>
<!-- Node24&#45;&gt;Node9 -->
<g id="edge40_Node000024_Node000009" class="edge">
<title>Node24&#45;&gt;Node9</title>
<g id="a_edge40_Node000024_Node000009"><a xlink:title=" ">
<path fill="none" stroke="#63b8ff" d="M977.66,-275.93C999.97,-264.25 1032.01,-242.71 1017.5,-221 994.25,-186.21 968.53,-202.47 930.5,-185 913.3,-177.1 910.35,-172.05 892.5,-165.75 837.6,-146.38 771.53,-134.04 728.35,-127.36"/>
<polygon fill="#63b8ff" stroke="#63b8ff" points="728.98,-123.91 718.57,-125.88 727.94,-130.83 728.98,-123.91"/>
</a>
</g>
</g>
<!-- Node25 -->
<g id="Node000025" class="node">
<title>Node25</title>
<g id="a_Node000025"><a xlink:href="_ss_effect_behavior_8h.html" target="_top" xlink:title=" ">
<polygon fill="white" stroke="#666666" points="1008.5,-240.25 908.5,-240.25 908.5,-221 1008.5,-221 1008.5,-240.25"/>
<text text-anchor="middle" x="958.5" y="-226.75" font-family="Helvetica,sans-Serif" font-size="10.00">SsEffectBehavior.h</text>
</a>
</g>
</g>
<!-- Node24&#45;&gt;Node25 -->
<g id="edge41_Node000024_Node000025" class="edge">
<title>Node24&#45;&gt;Node25</title>
<g id="a_edge41_Node000024_Node000025"><a xlink:title=" ">
<path fill="none" stroke="#63b8ff" d="M958.5,-276.08C958.5,-269.57 958.5,-260.42 958.5,-252.12"/>
<polygon fill="#63b8ff" stroke="#63b8ff" points="962,-252.12 958.5,-242.12 955,-252.12 962,-252.12"/>
</a>
</g>
</g>
<!-- Node25&#45;&gt;Node3 -->
<g id="edge46_Node000025_Node000003" class="edge">
<title>Node25&#45;&gt;Node3</title>
<g id="a_edge46_Node000025_Node000003"><a xlink:title=" ">
<path fill="none" stroke="#63b8ff" d="M1002.97,-220.57C1040.11,-210.87 1084.08,-193.08 1064.5,-165.75 1006.16,-84.31 877.58,-68.48 811.49,-65.92"/>
<polygon fill="#63b8ff" stroke="#63b8ff" points="811.91,-62.43 801.81,-65.63 811.7,-69.43 811.91,-62.43"/>
</a>
</g>
</g>
<!-- Node25&#45;&gt;Node19 -->
<g id="edge47_Node000025_Node000019" class="edge">
<title>Node25&#45;&gt;Node19</title>
<g id="a_edge47_Node000025_Node000019"><a xlink:title=" ">
<path fill="none" stroke="#63b8ff" d="M908.08,-224.42C805.94,-213.88 576.38,-190.19 483.08,-180.56"/>
<polygon fill="#63b8ff" stroke="#63b8ff" points="483.69,-177.11 473.38,-179.56 482.97,-184.07 483.69,-177.11"/>
</a>
</g>
</g>
<!-- Node26 -->
<g id="Node000026" class="node">
<title>Node26</title>
<g id="a_Node000026"><a xlink:href="_ss_effect_element_8h.html" target="_top" xlink:title=" ">
<polygon fill="white" stroke="#666666" points="1037.75,-185 939.25,-185 939.25,-165.75 1037.75,-165.75 1037.75,-185"/>
<text text-anchor="middle" x="988.5" y="-171.5" font-family="Helvetica,sans-Serif" font-size="10.00">SsEffectElement.h</text>
</a>
</g>
</g>
<!-- Node25&#45;&gt;Node26 -->
<g id="edge42_Node000025_Node000026" class="edge">
<title>Node25&#45;&gt;Node26</title>
<g id="a_edge42_Node000025_Node000026"><a xlink:title=" ">
<path fill="none" stroke="#63b8ff" d="M963.45,-220.83C967.38,-213.86 973.01,-203.87 977.94,-195.12"/>
<polygon fill="#63b8ff" stroke="#63b8ff" points="980.84,-197.11 982.7,-186.68 974.74,-193.67 980.84,-197.11"/>
</a>
</g>
</g>
<!-- Node25&#45;&gt;Node27 -->
<g id="edge48_Node000025_Node000027" class="edge">
<title>Node25&#45;&gt;Node27</title>
<g id="a_edge48_Node000025_Node000027"><a xlink:title=" ">
<path fill="none" stroke="#63b8ff" d="M941.37,-220.59C925.84,-212.41 902.7,-200.21 884.66,-190.69"/>
<polygon fill="#63b8ff" stroke="#63b8ff" points="886.53,-187.73 876.06,-186.16 883.27,-193.92 886.53,-187.73"/>
</a>
</g>
</g>
<!-- Node26&#45;&gt;Node3 -->
<g id="edge43_Node000026_Node000003" class="edge">
<title>Node26&#45;&gt;Node3</title>
<g id="a_edge43_Node000026_Node000003"><a xlink:title=" ">
<path fill="none" stroke="#63b8ff" d="M970.29,-165.31C932.3,-146.4 844.36,-102.64 798.88,-80"/>
<polygon fill="#63b8ff" stroke="#63b8ff" points="800.68,-76.99 790.17,-75.66 797.56,-83.25 800.68,-76.99"/>
</a>
</g>
</g>
<!-- Node26&#45;&gt;Node9 -->
<g id="edge44_Node000026_Node000009" class="edge">
<title>Node26&#45;&gt;Node9</title>
<g id="a_edge44_Node000026_Node000009"><a xlink:title=" ">
<path fill="none" stroke="#63b8ff" d="M939,-165.76C880.76,-155.63 784.87,-138.94 728.29,-129.09"/>
<polygon fill="#63b8ff" stroke="#63b8ff" points="729.13,-125.69 718.67,-127.42 727.93,-132.58 729.13,-125.69"/>
</a>
</g>
</g>
<!-- Node26&#45;&gt;Node26 -->
<g id="edge45_Node000026_Node000026" class="edge">
<title>Node26&#45;&gt;Node26</title>
<g id="a_edge45_Node000026_Node000026"><a xlink:title=" ">
<path fill="none" stroke="#63b8ff" d="M1023.79,-185.48C1040.77,-186.73 1055.75,-183.36 1055.75,-175.38 1055.75,-169.26 1046.97,-165.85 1035.23,-165.15"/>
<polygon fill="#63b8ff" stroke="#63b8ff" points="1035.27,-161.65 1025.3,-165.25 1035.34,-168.65 1035.27,-161.65"/>
</a>
</g>
</g>
<!-- Node28&#45;&gt;Node3 -->
<g id="edge50_Node000028_Node000003" class="edge">
<title>Node28&#45;&gt;Node3</title>
<g id="a_edge50_Node000028_Node000003"><a xlink:title=" ">
<path fill="none" stroke="#63b8ff" d="M624.54,-220.66C620.39,-199.05 613.09,-143.46 639.5,-110.5 645.42,-103.11 693.75,-87.89 730,-77.29"/>
<polygon fill="#63b8ff" stroke="#63b8ff" points="730.71,-80.73 739.35,-74.59 728.77,-74.01 730.71,-80.73"/>
</a>
</g>
</g>
<!-- Node28&#45;&gt;Node9 -->
<g id="edge51_Node000028_Node000009" class="edge">
<title>Node28&#45;&gt;Node9</title>
<g id="a_edge51_Node000028_Node000009"><a xlink:title=" ">
<path fill="none" stroke="#63b8ff" d="M631.08,-220.75C640.11,-203.26 660.36,-164.02 672.58,-140.34"/>
<polygon fill="#63b8ff" stroke="#63b8ff" points="675.68,-141.96 677.16,-131.47 669.46,-138.75 675.68,-141.96"/>
</a>
</g>
</g>
<!-- Node30&#45;&gt;Node5 -->
<g id="edge60_Node000030_Node000005" class="edge">
<title>Node30&#45;&gt;Node5</title>
<g id="a_edge60_Node000030_Node000005"><a xlink:title=" ">
<path fill="none" stroke="#63b8ff" d="M1159.45,-220.65C1158.99,-199.95 1155.73,-147.77 1135.5,-110.5 1116.15,-74.86 1079.87,-43.98 1056.2,-26.33"/>
<polygon fill="#63b8ff" stroke="#63b8ff" points="1058.29,-23.53 1048.14,-20.49 1054.19,-29.19 1058.29,-23.53"/>
</a>
</g>
</g>
<!-- Node31&#45;&gt;Node5 -->
<g id="edge62_Node000031_Node000005" class="edge">
<title>Node31&#45;&gt;Node5</title>
<g id="a_edge62_Node000031_Node000005"><a xlink:title=" ">
<path fill="none" stroke="#63b8ff" d="M1173.09,-331.05C1197.62,-314.54 1244.5,-277.05 1244.5,-231.62 1244.5,-231.62 1244.5,-231.62 1244.5,-119.12 1244.5,-39.35 1123.75,-18.18 1064.94,-12.6"/>
<polygon fill="#63b8ff" stroke="#63b8ff" points="1065.5,-9.14 1055.24,-11.78 1064.91,-16.11 1065.5,-9.14"/>
</a>
</g>
</g>
<!-- Node32&#45;&gt;Node5 -->
<g id="edge64_Node000032_Node000005" class="edge">
<title>Node32&#45;&gt;Node5</title>
<g id="a_edge64_Node000032_Node000005"><a xlink:title=" ">
<path fill="none" stroke="#63b8ff" d="M1282.5,-331.12C1282.5,-312.53 1282.5,-268.55 1282.5,-231.62 1282.5,-231.62 1282.5,-231.62 1282.5,-119.12 1282.5,-25.26 1131.96,-11.77 1064.99,-10.41"/>
<polygon fill="#63b8ff" stroke="#63b8ff" points="1065.43,-6.91 1055.39,-10.3 1065.35,-13.91 1065.43,-6.91"/>
</a>
</g>
</g>
<!-- Node33 -->
<g id="Node000033" class="node">
<title>Node33</title>
<g id="a_Node000033"><a xlink:title=" ">
<polygon fill="#e0e0e0" stroke="#999999" points="1352.62,-295.5 1310.38,-295.5 1310.38,-276.25 1352.62,-276.25 1352.62,-295.5"/>
<text text-anchor="middle" x="1331.5" y="-282" font-family="Helvetica,sans-Serif" font-size="10.00">cstdio</text>
</a>
</g>
</g>
<!-- Node32&#45;&gt;Node33 -->
<g id="edge65_Node000032_Node000033" class="edge">
<title>Node32&#45;&gt;Node33</title>
<g id="a_edge65_Node000032_Node000033"><a xlink:title=" ">
<path fill="none" stroke="#63b8ff" d="M1290.59,-331.33C1297.36,-323.98 1307.22,-313.26 1315.56,-304.19"/>
<polygon fill="#63b8ff" stroke="#63b8ff" points="1318.01,-306.7 1322.21,-296.97 1312.86,-301.96 1318.01,-306.7"/>
</a>
</g>
</g>
</g>
</svg>
