<?xml version="1.0" encoding="UTF-8" standalone="no"?>
<!DOCTYPE svg PUBLIC "-//W3C//DTD SVG 1.1//EN"
 "http://www.w3.org/Graphics/SVG/1.1/DTD/svg11.dtd">
<!-- Generated by graphviz version 12.2.1 (20241206.2353)
 -->
<!-- Title: Common/Loader/ssloader_ssqe.h Pages: 1 -->
<svg width="1774pt" height="426pt"
 viewBox="0.00 0.00 1773.50 426.25" xmlns="http://www.w3.org/2000/svg" xmlns:xlink="http://www.w3.org/1999/xlink">
<g id="graph0" class="graph" transform="scale(1 1) rotate(0) translate(4 422.25)">
<title>Common/Loader/ssloader_ssqe.h</title>
<!-- Node1 -->
<g id="Node000001" class="node">
<title>Node1</title>
<g id="a_Node000001"><a xlink:title=" ">
<polygon fill="#999999" stroke="#666666" points="1184.62,-418.25 1056.88,-418.25 1056.88,-387.75 1184.62,-387.75 1184.62,-418.25"/>
<text text-anchor="start" x="1064.88" y="-404.75" font-family="Helvetica,sans-Serif" font-size="10.00">Common/Loader/ssloader</text>
<text text-anchor="middle" x="1120.75" y="-393.5" font-family="Helvetica,sans-Serif" font-size="10.00">_ssqe.h</text>
</a>
</g>
</g>
<!-- Node2 -->
<g id="Node000002" class="node">
<title>Node2</title>
<g id="a_Node000002"><a xlink:href="ssloader_8h.html" target="_top" xlink:title=" ">
<polygon fill="white" stroke="#666666" points="992.38,-279.62 857.12,-279.62 857.12,-260.38 992.38,-260.38 992.38,-279.62"/>
<text text-anchor="middle" x="924.75" y="-266.12" font-family="Helvetica,sans-Serif" font-size="10.00">Common/Loader/ssloader.h</text>
</a>
</g>
</g>
<!-- Node1&#45;&gt;Node2 -->
<g id="edge1_Node000001_Node000002" class="edge">
<title>Node1&#45;&gt;Node2</title>
<g id="a_edge1_Node000001_Node000002"><a xlink:title=" ">
<path fill="none" stroke="#63b8ff" d="M1063.12,-383.17C1042.79,-375.13 1020.36,-364.6 1001.75,-351.75 971.3,-330.73 943.43,-296.12 931.23,-279.91"/>
<polygon fill="#63b8ff" stroke="#63b8ff" points="1061.85,-386.43 1072.44,-386.72 1064.34,-379.89 1061.85,-386.43"/>
</a>
</g>
</g>
<!-- Node22 -->
<g id="Node000022" class="node">
<title>Node22</title>
<g id="a_Node000022"><a xlink:href="ssloader__sspj_8cpp.html" target="_top" xlink:title=" ">
<polygon fill="white" stroke="#666666" points="1284.62,-285.25 1156.88,-285.25 1156.88,-254.75 1284.62,-254.75 1284.62,-285.25"/>
<text text-anchor="start" x="1164.88" y="-271.75" font-family="Helvetica,sans-Serif" font-size="10.00">Common/Loader/ssloader</text>
<text text-anchor="middle" x="1220.75" y="-260.5" font-family="Helvetica,sans-Serif" font-size="10.00">_sspj.cpp</text>
</a>
</g>
</g>
<!-- Node1&#45;&gt;Node22 -->
<g id="edge38_Node000001_Node000022" class="edge">
<title>Node1&#45;&gt;Node22</title>
<g id="a_edge38_Node000001_Node000022"><a xlink:title=" ">
<path fill="none" stroke="#63b8ff" d="M1138.81,-378.34C1159.41,-351.35 1192.47,-308.05 1209.62,-285.58"/>
<polygon fill="#63b8ff" stroke="#63b8ff" points="1136.04,-376.2 1132.75,-386.28 1141.6,-380.45 1136.04,-376.2"/>
</a>
</g>
</g>
<!-- Node23 -->
<g id="Node000023" class="node">
<title>Node23</title>
<g id="a_Node000023"><a xlink:href="ssloader__sspj_8h.html" target="_top" xlink:title=" ">
<polygon fill="white" stroke="#666666" points="1138.62,-351.75 1010.88,-351.75 1010.88,-321.25 1138.62,-321.25 1138.62,-351.75"/>
<text text-anchor="start" x="1018.88" y="-338.25" font-family="Helvetica,sans-Serif" font-size="10.00">Common/Loader/ssloader</text>
<text text-anchor="middle" x="1074.75" y="-327" font-family="Helvetica,sans-Serif" font-size="10.00">_sspj.h</text>
</a>
</g>
</g>
<!-- Node1&#45;&gt;Node23 -->
<g id="edge39_Node000001_Node000023" class="edge">
<title>Node1&#45;&gt;Node23</title>
<g id="a_edge39_Node000001_Node000023"><a xlink:title=" ">
<path fill="none" stroke="#63b8ff" d="M1103.66,-378.04C1097.44,-369.32 1090.61,-359.74 1085.15,-352.08"/>
<polygon fill="#63b8ff" stroke="#63b8ff" points="1100.78,-380.02 1109.43,-386.13 1106.48,-375.96 1100.78,-380.02"/>
</a>
</g>
</g>
<!-- Node25 -->
<g id="Node000025" class="node">
<title>Node25</title>
<g id="a_Node000025"><a xlink:href="ssloader__ssqe_8cpp.html" target="_top" xlink:title=" ">
<polygon fill="white" stroke="#666666" points="1322.62,-351.75 1194.88,-351.75 1194.88,-321.25 1322.62,-321.25 1322.62,-351.75"/>
<text text-anchor="start" x="1202.88" y="-338.25" font-family="Helvetica,sans-Serif" font-size="10.00">Common/Loader/ssloader</text>
<text text-anchor="middle" x="1258.75" y="-327" font-family="Helvetica,sans-Serif" font-size="10.00">_ssqe.cpp</text>
</a>
</g>
</g>
<!-- Node1&#45;&gt;Node25 -->
<g id="edge43_Node000001_Node000025" class="edge">
<title>Node1&#45;&gt;Node25</title>
<g id="a_edge43_Node000001_Node000025"><a xlink:title=" ">
<path fill="none" stroke="#63b8ff" d="M1162.3,-382.58C1183.26,-372.78 1208.26,-361.1 1227.56,-352.08"/>
<polygon fill="#63b8ff" stroke="#63b8ff" points="1161.01,-379.32 1153.44,-386.72 1163.98,-385.66 1161.01,-379.32"/>
</a>
</g>
</g>
<!-- Node3 -->
<g id="Node000003" class="node">
<title>Node3</title>
<g id="a_Node000003"><a xlink:href="ssplayer___part_state_8cpp.html" target="_top" xlink:title=" ">
<polygon fill="white" stroke="#666666" points="137.5,-30.5 0,-30.5 0,0 137.5,0 137.5,-30.5"/>
<text text-anchor="start" x="8" y="-17" font-family="Helvetica,sans-Serif" font-size="10.00">Common/Animator/ssplayer</text>
<text text-anchor="middle" x="68.75" y="-5.75" font-family="Helvetica,sans-Serif" font-size="10.00">_PartState.cpp</text>
</a>
</g>
</g>
<!-- Node2&#45;&gt;Node3 -->
<g id="edge2_Node000002_Node000003" class="edge">
<title>Node2&#45;&gt;Node3</title>
<g id="a_edge2_Node000002_Node000003"><a xlink:title=" ">
<path fill="none" stroke="#63b8ff" d="M845.89,-266.65C714.37,-261.93 456.22,-249.04 370.75,-218.75 247.58,-175.1 126.15,-69.64 84.17,-30.87"/>
<polygon fill="#63b8ff" stroke="#63b8ff" points="845.44,-270.13 855.55,-266.99 845.68,-263.14 845.44,-270.13"/>
</a>
</g>
</g>
<!-- Node4 -->
<g id="Node000004" class="node">
<title>Node4</title>
<g id="a_Node000004"><a xlink:href="ssplayer__animedecode_8cpp.html" target="_top" xlink:title=" ">
<polygon fill="white" stroke="#666666" points="901.5,-30.5 764,-30.5 764,0 901.5,0 901.5,-30.5"/>
<text text-anchor="start" x="772" y="-17" font-family="Helvetica,sans-Serif" font-size="10.00">Common/Animator/ssplayer</text>
<text text-anchor="middle" x="832.75" y="-5.75" font-family="Helvetica,sans-Serif" font-size="10.00">_animedecode.cpp</text>
</a>
</g>
</g>
<!-- Node2&#45;&gt;Node4 -->
<g id="edge3_Node000002_Node000004" class="edge">
<title>Node2&#45;&gt;Node4</title>
<g id="a_edge3_Node000002_Node000004"><a xlink:title=" ">
<path fill="none" stroke="#63b8ff" d="M917.58,-249.31C899.75,-200.3 853.65,-73.68 838.02,-30.74"/>
<polygon fill="#63b8ff" stroke="#63b8ff" points="914.25,-250.38 920.96,-258.58 920.83,-247.99 914.25,-250.38"/>
</a>
</g>
</g>
<!-- Node5 -->
<g id="Node000005" class="node">
<title>Node5</title>
<g id="a_Node000005"><a xlink:href="ssplayer__animedecode_8h.html" target="_top" xlink:title=" ">
<polygon fill="white" stroke="#666666" points="808.5,-97 671,-97 671,-66.5 808.5,-66.5 808.5,-97"/>
<text text-anchor="start" x="679" y="-83.5" font-family="Helvetica,sans-Serif" font-size="10.00">Common/Animator/ssplayer</text>
<text text-anchor="middle" x="739.75" y="-72.25" font-family="Helvetica,sans-Serif" font-size="10.00">_animedecode.h</text>
</a>
</g>
</g>
<!-- Node2&#45;&gt;Node5 -->
<g id="edge4_Node000002_Node000005" class="edge">
<title>Node2&#45;&gt;Node5</title>
<g id="a_edge4_Node000002_Node000005"><a xlink:title=" ">
<path fill="none" stroke="#63b8ff" d="M912.42,-251.01C888.51,-216.27 837.26,-142.5 826.75,-133 810.71,-118.49 789.79,-106.25 772.49,-97.48"/>
<polygon fill="#63b8ff" stroke="#63b8ff" points="909.23,-252.55 917.78,-258.81 915,-248.59 909.23,-252.55"/>
</a>
</g>
</g>
<!-- Node6 -->
<g id="Node000006" class="node">
<title>Node6</title>
<g id="a_Node000006"><a xlink:href="ssplayer__cellmap_8cpp.html" target="_top" xlink:title=" ">
<polygon fill="white" stroke="#666666" points="293.5,-30.5 156,-30.5 156,0 293.5,0 293.5,-30.5"/>
<text text-anchor="start" x="164" y="-17" font-family="Helvetica,sans-Serif" font-size="10.00">Common/Animator/ssplayer</text>
<text text-anchor="middle" x="224.75" y="-5.75" font-family="Helvetica,sans-Serif" font-size="10.00">_cellmap.cpp</text>
</a>
</g>
</g>
<!-- Node2&#45;&gt;Node6 -->
<g id="edge14_Node000002_Node000006" class="edge">
<title>Node2&#45;&gt;Node6</title>
<g id="a_edge14_Node000002_Node000006"><a xlink:title=" ">
<path fill="none" stroke="#63b8ff" d="M845.77,-266.7C721.79,-262.17 487.67,-249.73 410.75,-218.75 318.42,-181.57 253.11,-70.63 232.05,-30.74"/>
<polygon fill="#63b8ff" stroke="#63b8ff" points="845.43,-270.19 855.54,-267.04 845.67,-263.19 845.43,-270.19"/>
</a>
</g>
</g>
<!-- Node7 -->
<g id="Node000007" class="node">
<title>Node7</title>
<g id="a_Node000007"><a xlink:href="ssplayer__effect_8cpp.html" target="_top" xlink:title=" ">
<polygon fill="white" stroke="#666666" points="1213.5,-30.5 1076,-30.5 1076,0 1213.5,0 1213.5,-30.5"/>
<text text-anchor="start" x="1084" y="-17" font-family="Helvetica,sans-Serif" font-size="10.00">Common/Animator/ssplayer</text>
<text text-anchor="middle" x="1144.75" y="-5.75" font-family="Helvetica,sans-Serif" font-size="10.00">_effect.cpp</text>
</a>
</g>
</g>
<!-- Node2&#45;&gt;Node7 -->
<g id="edge15_Node000002_Node000007" class="edge">
<title>Node2&#45;&gt;Node7</title>
<g id="a_edge15_Node000002_Node000007"><a xlink:title=" ">
<path fill="none" stroke="#63b8ff" d="M933.48,-249.79C946.3,-222.54 971.85,-171.67 1000.75,-133 1025.49,-99.89 1033.66,-92.54 1065.75,-66.5 1082.29,-53.08 1102.58,-40.24 1118.47,-30.9"/>
<polygon fill="#63b8ff" stroke="#63b8ff" points="930.45,-248 929.43,-258.54 936.81,-250.94 930.45,-248"/>
</a>
</g>
</g>
<!-- Node8 -->
<g id="Node000008" class="node">
<title>Node8</title>
<g id="a_Node000008"><a xlink:href="ssplayer__effect2_8cpp.html" target="_top" xlink:title=" ">
<polygon fill="white" stroke="#666666" points="1057.5,-30.5 920,-30.5 920,0 1057.5,0 1057.5,-30.5"/>
<text text-anchor="start" x="928" y="-17" font-family="Helvetica,sans-Serif" font-size="10.00">Common/Animator/ssplayer</text>
<text text-anchor="middle" x="988.75" y="-5.75" font-family="Helvetica,sans-Serif" font-size="10.00">_effect2.cpp</text>
</a>
</g>
</g>
<!-- Node2&#45;&gt;Node8 -->
<g id="edge25_Node000002_Node000008" class="edge">
<title>Node2&#45;&gt;Node8</title>
<g id="a_edge25_Node000002_Node000008"><a xlink:title=" ">
<path fill="none" stroke="#63b8ff" d="M927.74,-248.87C933.5,-212.11 947.35,-131.87 967.75,-66.5 971.58,-54.23 977.27,-40.81 981.76,-30.93"/>
<polygon fill="#63b8ff" stroke="#63b8ff" points="924.33,-248.05 926.28,-258.47 931.25,-249.11 924.33,-248.05"/>
</a>
</g>
</g>
<!-- Node9 -->
<g id="Node000009" class="node">
<title>Node9</title>
<g id="a_Node000009"><a xlink:href="ssplayer__effectfunction_8cpp.html" target="_top" xlink:title=" ">
<polygon fill="white" stroke="#666666" points="1369.5,-30.5 1232,-30.5 1232,0 1369.5,0 1369.5,-30.5"/>
<text text-anchor="start" x="1240" y="-17" font-family="Helvetica,sans-Serif" font-size="10.00">Common/Animator/ssplayer</text>
<text text-anchor="middle" x="1300.75" y="-5.75" font-family="Helvetica,sans-Serif" font-size="10.00">_effectfunction.cpp</text>
</a>
</g>
</g>
<!-- Node2&#45;&gt;Node9 -->
<g id="edge26_Node000002_Node000009" class="edge">
<title>Node2&#45;&gt;Node9</title>
<g id="a_edge26_Node000002_Node000009"><a xlink:title=" ">
<path fill="none" stroke="#63b8ff" d="M976.08,-257.02C1050.57,-236.93 1187.87,-189.27 1262.75,-97 1279.25,-76.67 1290.53,-47.99 1296.28,-30.85"/>
<polygon fill="#63b8ff" stroke="#63b8ff" points="975.37,-253.58 966.59,-259.51 977.15,-260.36 975.37,-253.58"/>
</a>
</g>
</g>
<!-- Node10 -->
<g id="Node000010" class="node">
<title>Node10</title>
<g id="a_Node000010"><a xlink:href="ssplayer__mesh_8cpp.html" target="_top" xlink:title=" ">
<polygon fill="white" stroke="#666666" points="449.5,-30.5 312,-30.5 312,0 449.5,0 449.5,-30.5"/>
<text text-anchor="start" x="320" y="-17" font-family="Helvetica,sans-Serif" font-size="10.00">Common/Animator/ssplayer</text>
<text text-anchor="middle" x="380.75" y="-5.75" font-family="Helvetica,sans-Serif" font-size="10.00">_mesh.cpp</text>
</a>
</g>
</g>
<!-- Node2&#45;&gt;Node10 -->
<g id="edge27_Node000002_Node000010" class="edge">
<title>Node2&#45;&gt;Node10</title>
<g id="a_edge27_Node000002_Node000010"><a xlink:title=" ">
<path fill="none" stroke="#63b8ff" d="M845.52,-266.61C703.97,-260.45 416.89,-238.76 357.75,-163.5 326.58,-123.83 356.24,-59.16 372.14,-30.59"/>
<polygon fill="#63b8ff" stroke="#63b8ff" points="845.04,-270.09 855.18,-267.01 845.33,-263.1 845.04,-270.09"/>
</a>
</g>
</g>
<!-- Node13 -->
<g id="Node000013" class="node">
<title>Node13</title>
<g id="a_Node000013"><a xlink:href="ssplayer__effect_8h.html" target="_top" xlink:title=" ">
<polygon fill="white" stroke="#666666" points="1147.5,-163.5 1010,-163.5 1010,-133 1147.5,-133 1147.5,-163.5"/>
<text text-anchor="start" x="1018" y="-150" font-family="Helvetica,sans-Serif" font-size="10.00">Common/Animator/ssplayer</text>
<text text-anchor="middle" x="1078.75" y="-138.75" font-family="Helvetica,sans-Serif" font-size="10.00">_effect.h</text>
</a>
</g>
</g>
<!-- Node2&#45;&gt;Node13 -->
<g id="edge16_Node000002_Node000013" class="edge">
<title>Node2&#45;&gt;Node13</title>
<g id="a_edge16_Node000002_Node000013"><a xlink:title=" ">
<path fill="none" stroke="#63b8ff" d="M947.48,-253.61C961.59,-243.89 979.96,-230.91 995.75,-218.75 1019.42,-200.51 1045.71,-178.12 1062.23,-163.77"/>
<polygon fill="#63b8ff" stroke="#63b8ff" points="945.59,-250.66 939.32,-259.2 949.55,-256.44 945.59,-250.66"/>
</a>
</g>
</g>
<!-- Node15 -->
<g id="Node000015" class="node">
<title>Node15</title>
<g id="a_Node000015"><a xlink:href="ssplayer__types_8h.html" target="_top" xlink:title=" ">
<polygon fill="white" stroke="#666666" points="504.5,-163.5 367,-163.5 367,-133 504.5,-133 504.5,-163.5"/>
<text text-anchor="start" x="375" y="-150" font-family="Helvetica,sans-Serif" font-size="10.00">Common/Animator/ssplayer</text>
<text text-anchor="middle" x="435.75" y="-138.75" font-family="Helvetica,sans-Serif" font-size="10.00">_types.h</text>
</a>
</g>
</g>
<!-- Node2&#45;&gt;Node15 -->
<g id="edge28_Node000002_Node000015" class="edge">
<title>Node2&#45;&gt;Node15</title>
<g id="a_edge28_Node000002_Node000015"><a xlink:title=" ">
<path fill="none" stroke="#63b8ff" d="M853.19,-258.06C798.69,-249.14 722.01,-235.34 655.75,-218.75 592.61,-202.94 520.98,-179.2 477.09,-163.96"/>
<polygon fill="#63b8ff" stroke="#63b8ff" points="852.54,-261.5 862.97,-259.65 853.66,-254.59 852.54,-261.5"/>
</a>
</g>
</g>
<!-- Node16 -->
<g id="Node000016" class="node">
<title>Node16</title>
<g id="a_Node000016"><a xlink:href="ss_helper_8h.html" target="_top" xlink:title=" ">
<polygon fill="white" stroke="#666666" points="801.12,-218.75 664.38,-218.75 664.38,-199.5 801.12,-199.5 801.12,-218.75"/>
<text text-anchor="middle" x="732.75" y="-205.25" font-family="Helvetica,sans-Serif" font-size="10.00">Common/Helper/ssHelper.h</text>
</a>
</g>
</g>
<!-- Node2&#45;&gt;Node16 -->
<g id="edge30_Node000002_Node000016" class="edge">
<title>Node2&#45;&gt;Node16</title>
<g id="a_edge30_Node000002_Node000016"><a xlink:title=" ">
<path fill="none" stroke="#63b8ff" d="M884.42,-256.63C847.94,-245.45 795.07,-229.24 762.36,-219.21"/>
<polygon fill="#63b8ff" stroke="#63b8ff" points="883.14,-259.9 893.72,-259.49 885.19,-253.21 883.14,-259.9"/>
</a>
</g>
</g>
<!-- Node19 -->
<g id="Node000019" class="node">
<title>Node19</title>
<g id="a_Node000019"><a xlink:href="_ss_effect_element_8cpp.html" target="_top" xlink:title=" ">
<polygon fill="white" stroke="#666666" points="1399.75,-218.75 1215.75,-218.75 1215.75,-199.5 1399.75,-199.5 1399.75,-218.75"/>
<text text-anchor="middle" x="1307.75" y="-205.25" font-family="Helvetica,sans-Serif" font-size="10.00">Common/Loader/SsEffectElement.cpp</text>
</a>
</g>
</g>
<!-- Node2&#45;&gt;Node19 -->
<g id="edge35_Node000002_Node000019" class="edge">
<title>Node2&#45;&gt;Node19</title>
<g id="a_edge35_Node000002_Node000019"><a xlink:title=" ">
<path fill="none" stroke="#63b8ff" d="M983.41,-257.9C989.6,-256.81 995.8,-255.73 1001.75,-254.75 1083.58,-241.22 1178.1,-227.76 1240.18,-219.22"/>
<polygon fill="#63b8ff" stroke="#63b8ff" points="983.06,-254.41 973.84,-259.63 984.3,-261.3 983.06,-254.41"/>
</a>
</g>
</g>
<!-- Node20 -->
<g id="Node000020" class="node">
<title>Node20</title>
<g id="a_Node000020"><a xlink:href="ss_interpolation_8cpp.html" target="_top" xlink:title=" ">
<polygon fill="white" stroke="#666666" points="1591.5,-218.75 1418,-218.75 1418,-199.5 1591.5,-199.5 1591.5,-218.75"/>
<text text-anchor="middle" x="1504.75" y="-205.25" font-family="Helvetica,sans-Serif" font-size="10.00">Common/Loader/ssInterpolation.cpp</text>
</a>
</g>
</g>
<!-- Node2&#45;&gt;Node20 -->
<g id="edge36_Node000002_Node000020" class="edge">
<title>Node2&#45;&gt;Node20</title>
<g id="a_edge36_Node000002_Node000020"><a xlink:title=" ">
<path fill="none" stroke="#63b8ff" d="M981.03,-257.95C987.99,-256.77 995.02,-255.67 1001.75,-254.75 1181.68,-230.2 1227.87,-234.87 1408.75,-218.75 1411.67,-218.49 1414.63,-218.23 1417.63,-217.96"/>
<polygon fill="#63b8ff" stroke="#63b8ff" points="980.56,-254.48 971.32,-259.66 981.77,-261.37 980.56,-254.48"/>
</a>
</g>
</g>
<!-- Node21 -->
<g id="Node000021" class="node">
<title>Node21</title>
<g id="a_Node000021"><a xlink:href="ssattribute_8cpp.html" target="_top" xlink:title=" ">
<polygon fill="white" stroke="#666666" points="1765.5,-218.75 1610,-218.75 1610,-199.5 1765.5,-199.5 1765.5,-218.75"/>
<text text-anchor="middle" x="1687.75" y="-205.25" font-family="Helvetica,sans-Serif" font-size="10.00">Common/Loader/ssattribute.cpp</text>
</a>
</g>
</g>
<!-- Node2&#45;&gt;Node21 -->
<g id="edge37_Node000002_Node000021" class="edge">
<title>Node2&#45;&gt;Node21</title>
<g id="a_edge37_Node000002_Node000021"><a xlink:title=" ">
<path fill="none" stroke="#63b8ff" d="M979.67,-257.99C987.07,-256.75 994.58,-255.63 1001.75,-254.75 1266.49,-222.42 1334.89,-239.91 1600.75,-218.75 1603.62,-218.52 1606.55,-218.28 1609.51,-218.03"/>
<polygon fill="#63b8ff" stroke="#63b8ff" points="979.32,-254.49 970.07,-259.66 980.53,-261.39 979.32,-254.49"/>
</a>
</g>
</g>
<!-- Node5&#45;&gt;Node3 -->
<g id="edge5_Node000005_Node000003" class="edge">
<title>Node5&#45;&gt;Node3</title>
<g id="a_edge5_Node000005_Node000003"><a xlink:title=" ">
<path fill="none" stroke="#63b8ff" d="M659.17,-76.39C544.85,-69.63 329.18,-54.84 146.75,-30.5 143.75,-30.1 140.69,-29.66 137.6,-29.2"/>
<polygon fill="#63b8ff" stroke="#63b8ff" points="658.89,-79.88 669.07,-76.96 659.29,-72.89 658.89,-79.88"/>
</a>
</g>
</g>
<!-- Node5&#45;&gt;Node4 -->
<g id="edge6_Node000005_Node000004" class="edge">
<title>Node5&#45;&gt;Node4</title>
<g id="a_edge6_Node000005_Node000004"><a xlink:title=" ">
<path fill="none" stroke="#63b8ff" d="M770.29,-59.57C783.86,-50.16 799.5,-39.31 811.73,-30.83"/>
<polygon fill="#63b8ff" stroke="#63b8ff" points="768.32,-56.68 762.1,-65.25 772.31,-62.43 768.32,-56.68"/>
</a>
</g>
</g>
<!-- Node5&#45;&gt;Node6 -->
<g id="edge7_Node000005_Node000006" class="edge">
<title>Node5&#45;&gt;Node6</title>
<g id="a_edge7_Node000005_Node000006"><a xlink:title=" ">
<path fill="none" stroke="#63b8ff" d="M659.48,-73.13C571.66,-64.42 426.86,-48.95 302.75,-30.5 299.75,-30.05 296.7,-29.58 293.61,-29.09"/>
<polygon fill="#63b8ff" stroke="#63b8ff" points="658.89,-76.59 669.18,-74.09 659.57,-69.62 658.89,-76.59"/>
</a>
</g>
</g>
<!-- Node5&#45;&gt;Node7 -->
<g id="edge8_Node000005_Node000007" class="edge">
<title>Node5&#45;&gt;Node7</title>
<g id="a_edge8_Node000005_Node000007"><a xlink:title=" ">
<path fill="none" stroke="#63b8ff" d="M819.93,-69.07C886.19,-59.27 982.69,-44.64 1066.75,-30.5 1069.74,-30 1072.79,-29.48 1075.87,-28.94"/>
<polygon fill="#63b8ff" stroke="#63b8ff" points="819.62,-65.58 810.24,-70.51 820.64,-72.51 819.62,-65.58"/>
</a>
</g>
</g>
<!-- Node5&#45;&gt;Node8 -->
<g id="edge9_Node000005_Node000008" class="edge">
<title>Node5&#45;&gt;Node8</title>
<g id="a_edge9_Node000005_Node000008"><a xlink:title=" ">
<path fill="none" stroke="#63b8ff" d="M807.58,-63.18C846.64,-53.06 895.18,-40.49 932.18,-30.9"/>
<polygon fill="#63b8ff" stroke="#63b8ff" points="806.83,-59.76 798.03,-65.65 808.59,-66.53 806.83,-59.76"/>
</a>
</g>
</g>
<!-- Node5&#45;&gt;Node9 -->
<g id="edge10_Node000005_Node000009" class="edge">
<title>Node5&#45;&gt;Node9</title>
<g id="a_edge10_Node000005_Node000009"><a xlink:title=" ">
<path fill="none" stroke="#63b8ff" d="M820.1,-74.3C916.15,-66.14 1081.6,-50.7 1222.75,-30.5 1225.75,-30.07 1228.81,-29.61 1231.89,-29.13"/>
<polygon fill="#63b8ff" stroke="#63b8ff" points="819.92,-70.8 810.25,-75.13 820.51,-77.78 819.92,-70.8"/>
</a>
</g>
</g>
<!-- Node5&#45;&gt;Node10 -->
<g id="edge11_Node000005_Node000010" class="edge">
<title>Node5&#45;&gt;Node10</title>
<g id="a_edge11_Node000005_Node000010"><a xlink:title=" ">
<path fill="none" stroke="#63b8ff" d="M659.42,-66.47C603.22,-56.45 526.39,-42.73 458.75,-30.5 455.77,-29.96 452.73,-29.41 449.65,-28.85"/>
<polygon fill="#63b8ff" stroke="#63b8ff" points="658.79,-69.91 669.25,-68.22 660.02,-63.02 658.79,-69.91"/>
</a>
</g>
</g>
<!-- Node11 -->
<g id="Node000011" class="node">
<title>Node11</title>
<g id="a_Node000011"><a xlink:href="ssplayer__render__dx9_8cpp.html" target="_top" xlink:title=" ">
<polygon fill="white" stroke="#666666" points="597.75,-30.5 467.75,-30.5 467.75,0 597.75,0 597.75,-30.5"/>
<text text-anchor="start" x="475.75" y="-17" font-family="Helvetica,sans-Serif" font-size="10.00">Common/Drawer/ssplayer</text>
<text text-anchor="middle" x="532.75" y="-5.75" font-family="Helvetica,sans-Serif" font-size="10.00">_render_dx9.cpp</text>
</a>
</g>
</g>
<!-- Node5&#45;&gt;Node11 -->
<g id="edge12_Node000005_Node000011" class="edge">
<title>Node5&#45;&gt;Node11</title>
<g id="a_edge12_Node000005_Node000011"><a xlink:title=" ">
<path fill="none" stroke="#63b8ff" d="M681.9,-62.72C649.68,-52.68 610.08,-40.34 579.78,-30.9"/>
<polygon fill="#63b8ff" stroke="#63b8ff" points="680.49,-65.95 691.07,-65.58 682.57,-59.27 680.49,-65.95"/>
</a>
</g>
</g>
<!-- Node12 -->
<g id="Node000012" class="node">
<title>Node12</title>
<g id="a_Node000012"><a xlink:href="ssplayer__render__gl_8cpp.html" target="_top" xlink:title=" ">
<polygon fill="white" stroke="#666666" points="745.75,-30.5 615.75,-30.5 615.75,0 745.75,0 745.75,-30.5"/>
<text text-anchor="start" x="623.75" y="-17" font-family="Helvetica,sans-Serif" font-size="10.00">Common/Drawer/ssplayer</text>
<text text-anchor="middle" x="680.75" y="-5.75" font-family="Helvetica,sans-Serif" font-size="10.00">_render_gl.cpp</text>
</a>
</g>
</g>
<!-- Node5&#45;&gt;Node12 -->
<g id="edge13_Node000005_Node000012" class="edge">
<title>Node5&#45;&gt;Node12</title>
<g id="a_edge13_Node000005_Node000012"><a xlink:title=" ">
<path fill="none" stroke="#63b8ff" d="M718.6,-57.63C710.43,-48.69 701.32,-38.74 694.09,-30.83"/>
<polygon fill="#63b8ff" stroke="#63b8ff" points="716.01,-59.98 725.34,-65 721.17,-55.26 716.01,-59.98"/>
</a>
</g>
</g>
<!-- Node13&#45;&gt;Node4 -->
<g id="edge17_Node000013_Node000004" class="edge">
<title>Node13&#45;&gt;Node4</title>
<g id="a_edge17_Node000013_Node000004"><a xlink:title=" ">
<path fill="none" stroke="#63b8ff" d="M1041.44,-127.38C991.57,-100.83 904.36,-54.39 860.14,-30.83"/>
<polygon fill="#63b8ff" stroke="#63b8ff" points="1039.68,-130.41 1050.15,-132.02 1042.97,-124.23 1039.68,-130.41"/>
</a>
</g>
</g>
<!-- Node13&#45;&gt;Node7 -->
<g id="edge18_Node000013_Node000007" class="edge">
<title>Node13&#45;&gt;Node7</title>
<g id="a_edge18_Node000013_Node000007"><a xlink:title=" ">
<path fill="none" stroke="#63b8ff" d="M1072.13,-121.58C1069.25,-104.99 1068.21,-83.43 1076.75,-66.5 1084.55,-51.03 1099.61,-39.15 1113.57,-30.83"/>
<polygon fill="#63b8ff" stroke="#63b8ff" points="1068.66,-122.09 1074.13,-131.16 1075.51,-120.66 1068.66,-122.09"/>
</a>
</g>
</g>
<!-- Node13&#45;&gt;Node9 -->
<g id="edge20_Node000013_Node000009" class="edge">
<title>Node13&#45;&gt;Node9</title>
<g id="a_edge20_Node000013_Node000009"><a xlink:title=" ">
<path fill="none" stroke="#63b8ff" d="M1158.62,-130.33C1183.71,-122.69 1210.61,-111.93 1232.75,-97 1258.89,-79.38 1280.6,-48.98 1292.03,-30.94"/>
<polygon fill="#63b8ff" stroke="#63b8ff" points="1157.71,-126.95 1149.08,-133.1 1159.66,-133.68 1157.71,-126.95"/>
</a>
</g>
</g>
<!-- Node13&#45;&gt;Node13 -->
<g id="edge19_Node000013_Node000013" class="edge">
<title>Node13&#45;&gt;Node13</title>
<g id="a_edge19_Node000013_Node000013"><a xlink:title=" ">
<path fill="none" stroke="#63b8ff" d="M1158.73,-155.79C1162.98,-153.94 1165.5,-151.43 1165.5,-148.25 1165.5,-142.9 1158.35,-139.43 1147.83,-137.84"/>
<polygon fill="#63b8ff" stroke="#63b8ff" points="1158.07,-152.35 1149.29,-158.27 1159.85,-159.11 1158.07,-152.35"/>
</a>
</g>
</g>
<!-- Node14 -->
<g id="Node000014" class="node">
<title>Node14</title>
<g id="a_Node000014"><a xlink:href="ssplayer__effectfunction_8h.html" target="_top" xlink:title=" ">
<polygon fill="white" stroke="#666666" points="1223.5,-97 1086,-97 1086,-66.5 1223.5,-66.5 1223.5,-97"/>
<text text-anchor="start" x="1094" y="-83.5" font-family="Helvetica,sans-Serif" font-size="10.00">Common/Animator/ssplayer</text>
<text text-anchor="middle" x="1154.75" y="-72.25" font-family="Helvetica,sans-Serif" font-size="10.00">_effectfunction.h</text>
</a>
</g>
</g>
<!-- Node13&#45;&gt;Node14 -->
<g id="edge21_Node000013_Node000014" class="edge">
<title>Node13&#45;&gt;Node14</title>
<g id="a_edge21_Node000013_Node000014"><a xlink:title=" ">
<path fill="none" stroke="#63b8ff" d="M1104.68,-125.24C1115.54,-116.03 1127.87,-105.56 1137.57,-97.33"/>
<polygon fill="#63b8ff" stroke="#63b8ff" points="1102.51,-122.5 1097.15,-131.63 1107.04,-127.83 1102.51,-122.5"/>
</a>
</g>
</g>
<!-- Node14&#45;&gt;Node7 -->
<g id="edge22_Node000014_Node000007" class="edge">
<title>Node14&#45;&gt;Node7</title>
<g id="a_edge22_Node000014_Node000007"><a xlink:title=" ">
<path fill="none" stroke="#63b8ff" d="M1150.73,-54.81C1149.46,-46.64 1148.11,-37.91 1147.01,-30.83"/>
<polygon fill="#63b8ff" stroke="#63b8ff" points="1147.26,-55.27 1152.25,-64.62 1154.18,-54.2 1147.26,-55.27"/>
</a>
</g>
</g>
<!-- Node14&#45;&gt;Node8 -->
<g id="edge23_Node000014_Node000008" class="edge">
<title>Node14&#45;&gt;Node8</title>
<g id="a_edge23_Node000014_Node000008"><a xlink:title=" ">
<path fill="none" stroke="#63b8ff" d="M1106.53,-62.01C1081.07,-52.12 1050.27,-40.15 1026.56,-30.94"/>
<polygon fill="#63b8ff" stroke="#63b8ff" points="1105.08,-65.21 1115.67,-65.57 1107.62,-58.68 1105.08,-65.21"/>
</a>
</g>
</g>
<!-- Node14&#45;&gt;Node9 -->
<g id="edge24_Node000014_Node000009" class="edge">
<title>Node14&#45;&gt;Node9</title>
<g id="a_edge24_Node000014_Node000009"><a xlink:title=" ">
<path fill="none" stroke="#63b8ff" d="M1198.36,-61.48C1220.52,-51.69 1247.01,-39.99 1267.5,-30.94"/>
<polygon fill="#63b8ff" stroke="#63b8ff" points="1197,-58.26 1189.26,-65.5 1199.83,-64.66 1197,-58.26"/>
</a>
</g>
</g>
<!-- Node15&#45;&gt;Node5 -->
<g id="edge29_Node000015_Node000005" class="edge">
<title>Node15&#45;&gt;Node5</title>
<g id="a_edge29_Node000015_Node000005"><a xlink:title=" ">
<path fill="none" stroke="#63b8ff" d="M515.73,-130.28C563.84,-120.07 624.47,-107.21 670.52,-97.44"/>
<polygon fill="#63b8ff" stroke="#63b8ff" points="515.27,-126.8 506.21,-132.3 516.72,-133.65 515.27,-126.8"/>
</a>
</g>
</g>
<!-- Node16&#45;&gt;Node5 -->
<g id="edge31_Node000016_Node000005" class="edge">
<title>Node16&#45;&gt;Node5</title>
<g id="a_edge31_Node000016_Node000005"><a xlink:title=" ">
<path fill="none" stroke="#63b8ff" d="M773.73,-194.58C788.04,-187.65 802.56,-177.62 810.75,-163.5 817.55,-151.77 816.98,-145.04 810.75,-133 802.7,-117.44 787.37,-105.67 773.01,-97.44"/>
<polygon fill="#63b8ff" stroke="#63b8ff" points="772.58,-191.26 764.83,-198.48 775.39,-197.67 772.58,-191.26"/>
</a>
</g>
</g>
<!-- Node16&#45;&gt;Node15 -->
<g id="edge32_Node000016_Node000015" class="edge">
<title>Node16&#45;&gt;Node15</title>
<g id="a_edge32_Node000016_Node000015"><a xlink:title=" ">
<path fill="none" stroke="#63b8ff" d="M675.71,-196.82C626.95,-187.15 556.67,-173.22 504.76,-162.93"/>
<polygon fill="#63b8ff" stroke="#63b8ff" points="675.02,-200.25 685.51,-198.76 676.38,-193.38 675.02,-200.25"/>
</a>
</g>
</g>
<!-- Node17 -->
<g id="Node000017" class="node">
<title>Node17</title>
<g id="a_Node000017"><a xlink:href="_s_s_texture_d_x9_8cpp.html" target="_top" xlink:title=" ">
<polygon fill="white" stroke="#666666" points="645.38,-163.5 522.12,-163.5 522.12,-133 645.38,-133 645.38,-163.5"/>
<text text-anchor="start" x="530.12" y="-150" font-family="Helvetica,sans-Serif" font-size="10.00">Common/Helper/DirectX</text>
<text text-anchor="middle" x="583.75" y="-138.75" font-family="Helvetica,sans-Serif" font-size="10.00">/SSTextureDX9.cpp</text>
</a>
</g>
</g>
<!-- Node16&#45;&gt;Node17 -->
<g id="edge33_Node000016_Node000017" class="edge">
<title>Node16&#45;&gt;Node17</title>
<g id="a_edge33_Node000016_Node000017"><a xlink:title=" ">
<path fill="none" stroke="#63b8ff" d="M699.38,-194.94C676.1,-185.74 645.02,-173.46 620.94,-163.94"/>
<polygon fill="#63b8ff" stroke="#63b8ff" points="697.8,-198.08 708.39,-198.5 700.37,-191.57 697.8,-198.08"/>
</a>
</g>
</g>
<!-- Node18 -->
<g id="Node000018" class="node">
<title>Node18</title>
<g id="a_Node000018"><a xlink:href="ssh_texture_b_m_p_8cpp.html" target="_top" xlink:title=" ">
<polygon fill="white" stroke="#666666" points="801.88,-163.5 663.62,-163.5 663.62,-133 801.88,-133 801.88,-163.5"/>
<text text-anchor="start" x="671.62" y="-150" font-family="Helvetica,sans-Serif" font-size="10.00">Common/Helper/sshTexture</text>
<text text-anchor="middle" x="732.75" y="-138.75" font-family="Helvetica,sans-Serif" font-size="10.00">BMP.cpp</text>
</a>
</g>
</g>
<!-- Node16&#45;&gt;Node18 -->
<g id="edge34_Node000016_Node000018" class="edge">
<title>Node16&#45;&gt;Node18</title>
<g id="a_edge34_Node000016_Node000018"><a xlink:title=" ">
<path fill="none" stroke="#63b8ff" d="M732.75,-187.92C732.75,-179.99 732.75,-171.06 732.75,-163.78"/>
<polygon fill="#63b8ff" stroke="#63b8ff" points="729.25,-187.67 732.75,-197.67 736.25,-187.67 729.25,-187.67"/>
</a>
</g>
</g>
<!-- Node23&#45;&gt;Node2 -->
<g id="edge40_Node000023_Node000002" class="edge">
<title>Node23&#45;&gt;Node2</title>
<g id="a_edge40_Node000023_Node000002"><a xlink:title=" ">
<path fill="none" stroke="#63b8ff" d="M1030.36,-316.41C1002.38,-304.38 967.53,-289.4 945.7,-280.01"/>
<polygon fill="#63b8ff" stroke="#63b8ff" points="1028.75,-319.53 1039.32,-320.27 1031.52,-313.1 1028.75,-319.53"/>
</a>
</g>
</g>
<!-- Node23&#45;&gt;Node22 -->
<g id="edge42_Node000023_Node000022" class="edge">
<title>Node23&#45;&gt;Node22</title>
<g id="a_edge42_Node000023_Node000022"><a xlink:title=" ">
<path fill="none" stroke="#63b8ff" d="M1118.36,-316.23C1140.52,-306.44 1167.01,-294.74 1187.5,-285.69"/>
<polygon fill="#63b8ff" stroke="#63b8ff" points="1117,-313.01 1109.26,-320.25 1119.83,-319.41 1117,-313.01"/>
</a>
</g>
</g>
<!-- Node24 -->
<g id="Node000024" class="node">
<title>Node24</title>
<g id="a_Node000024"><a xlink:href="ssloader__ssee_8cpp.html" target="_top" xlink:title=" ">
<polygon fill="white" stroke="#666666" points="1138.62,-285.25 1010.88,-285.25 1010.88,-254.75 1138.62,-254.75 1138.62,-285.25"/>
<text text-anchor="start" x="1018.88" y="-271.75" font-family="Helvetica,sans-Serif" font-size="10.00">Common/Loader/ssloader</text>
<text text-anchor="middle" x="1074.75" y="-260.5" font-family="Helvetica,sans-Serif" font-size="10.00">_ssee.cpp</text>
</a>
</g>
</g>
<!-- Node23&#45;&gt;Node24 -->
<g id="edge41_Node000023_Node000024" class="edge">
<title>Node23&#45;&gt;Node24</title>
<g id="a_edge41_Node000023_Node000024"><a xlink:title=" ">
<path fill="none" stroke="#63b8ff" d="M1074.75,-309.56C1074.75,-301.39 1074.75,-292.66 1074.75,-285.58"/>
<polygon fill="#63b8ff" stroke="#63b8ff" points="1071.25,-309.35 1074.75,-319.35 1078.25,-309.35 1071.25,-309.35"/>
</a>
</g>
</g>
</g>
</svg>
