<?xml version="1.0" encoding="UTF-8" standalone="no"?>
<!DOCTYPE svg PUBLIC "-//W3C//DTD SVG 1.1//EN"
 "http://www.w3.org/Graphics/SVG/1.1/DTD/svg11.dtd">
<!-- Generated by graphviz version 9.0.0 (20230911.1827)
 -->
<!-- Title: Common/Animator/ssplayer_PartState.h Pages: 1 -->
<svg width="215pt" height="149pt"
 viewBox="0.00 0.00 215.25 149.00" xmlns="http://www.w3.org/2000/svg" xmlns:xlink="http://www.w3.org/1999/xlink">
<g id="graph0" class="graph" transform="scale(1 1) rotate(0) translate(4 145)">
<title>Common/Animator/ssplayer_PartState.h</title>
<!-- Node1 -->
<g id="Node000001" class="node">
<title>Node1</title>
<g id="a_Node000001"><a xlink:title=" ">
<polygon fill="#999999" stroke="#666666" points="207.25,-141 69.75,-141 69.75,-110.5 207.25,-110.5 207.25,-141"/>
<text text-anchor="start" x="77.75" y="-127.5" font-family="Helvetica,sans-Serif" font-size="10.00">Common/Animator/ssplayer</text>
<text text-anchor="middle" x="138.5" y="-116.25" font-family="Helvetica,sans-Serif" font-size="10.00">_PartState.h</text>
</a>
</g>
</g>
<!-- Node2 -->
<g id="Node000002" class="node">
<title>Node2</title>
<g id="a_Node000002"><a xlink:href="ssplayer__effect2_8h.html" target="_top" xlink:title=" ">
<polygon fill="white" stroke="#666666" points="148.62,-74.5 52.38,-74.5 52.38,-55.25 148.62,-55.25 148.62,-74.5"/>
<text text-anchor="middle" x="100.5" y="-61" font-family="Helvetica,sans-Serif" font-size="10.00">ssplayer_effect2.h</text>
</a>
</g>
</g>
<!-- Node1&#45;&gt;Node2 -->
<g id="edge1_Node000001_Node000002" class="edge">
<title>Node1&#45;&gt;Node2</title>
<g id="a_edge1_Node000001_Node000002"><a xlink:title=" ">
<path fill="none" stroke="#63b8ff" d="M129.11,-110.2C124.1,-102.44 117.89,-92.81 112.53,-84.51"/>
<polygon fill="#63b8ff" stroke="#63b8ff" points="115.54,-82.73 107.18,-76.22 109.66,-86.52 115.54,-82.73"/>
</a>
</g>
</g>
<!-- Node4 -->
<g id="Node000004" class="node">
<title>Node4</title>
<g id="a_Node000004"><a xlink:title=" ">
<polygon fill="#e0e0e0" stroke="#999999" points="196.12,-19.25 144.88,-19.25 144.88,0 196.12,0 196.12,-19.25"/>
<text text-anchor="middle" x="170.5" y="-5.75" font-family="Helvetica,sans-Serif" font-size="10.00">memory</text>
</a>
</g>
</g>
<!-- Node1&#45;&gt;Node4 -->
<g id="edge5_Node000001_Node000004" class="edge">
<title>Node1&#45;&gt;Node4</title>
<g id="a_edge5_Node000001_Node000004"><a xlink:title=" ">
<path fill="none" stroke="#63b8ff" d="M144.79,-110.01C148.84,-100.11 153.98,-86.69 157.5,-74.5 161.69,-59.99 165.05,-43.24 167.3,-30.53"/>
<polygon fill="#63b8ff" stroke="#63b8ff" points="170.71,-31.35 168.92,-20.9 163.81,-30.18 170.71,-31.35"/>
</a>
</g>
</g>
<!-- Node3 -->
<g id="Node000003" class="node">
<title>Node3</title>
<g id="a_Node000003"><a xlink:href="xorshift32_8h.html" target="_top" xlink:title=" ">
<polygon fill="white" stroke="#666666" points="67,-19.25 0,-19.25 0,0 67,0 67,-19.25"/>
<text text-anchor="middle" x="33.5" y="-5.75" font-family="Helvetica,sans-Serif" font-size="10.00">xorshift32.h</text>
</a>
</g>
</g>
<!-- Node2&#45;&gt;Node3 -->
<g id="edge2_Node000002_Node000003" class="edge">
<title>Node2&#45;&gt;Node3</title>
<g id="a_edge2_Node000002_Node000003"><a xlink:title=" ">
<path fill="none" stroke="#63b8ff" d="M89.13,-54.84C79.45,-47.15 65.3,-35.9 53.69,-26.68"/>
<polygon fill="#63b8ff" stroke="#63b8ff" points="55.89,-23.95 45.88,-20.47 51.53,-29.43 55.89,-23.95"/>
</a>
</g>
</g>
<!-- Node2&#45;&gt;Node4 -->
<g id="edge3_Node000002_Node000004" class="edge">
<title>Node2&#45;&gt;Node4</title>
<g id="a_edge3_Node000002_Node000004"><a xlink:title=" ">
<path fill="none" stroke="#63b8ff" d="M112.37,-54.84C122.59,-47.07 137.57,-35.67 149.76,-26.4"/>
<polygon fill="#63b8ff" stroke="#63b8ff" points="151.76,-29.28 157.6,-20.44 147.52,-23.71 151.76,-29.28"/>
</a>
</g>
</g>
<!-- Node5 -->
<g id="Node000005" class="node">
<title>Node5</title>
<g id="a_Node000005"><a xlink:title=" ">
<polygon fill="#e0e0e0" stroke="#999999" points="124.12,-19.25 84.88,-19.25 84.88,0 124.12,0 124.12,-19.25"/>
<text text-anchor="middle" x="104.5" y="-5.75" font-family="Helvetica,sans-Serif" font-size="10.00">utility</text>
</a>
</g>
</g>
<!-- Node2&#45;&gt;Node5 -->
<g id="edge4_Node000002_Node000005" class="edge">
<title>Node2&#45;&gt;Node5</title>
<g id="a_edge4_Node000002_Node000005"><a xlink:title=" ">
<path fill="none" stroke="#63b8ff" d="M101.16,-55.08C101.66,-48.49 102.35,-39.21 102.98,-30.82"/>
<polygon fill="#63b8ff" stroke="#63b8ff" points="106.45,-31.35 103.71,-21.12 99.47,-30.83 106.45,-31.35"/>
</a>
</g>
</g>
</g>
</svg>
