<?xml version="1.0" encoding="UTF-8" standalone="no"?>
<!DOCTYPE svg PUBLIC "-//W3C//DTD SVG 1.1//EN"
 "http://www.w3.org/Graphics/SVG/1.1/DTD/svg11.dtd">
<!-- Generated by graphviz version 12.2.1 (20241206.2353)
 -->
<!-- Title: Common/Drawer/ssplayer_shader_gl.cpp Pages: 1 -->
<svg width="604pt" height="260pt"
 viewBox="0.00 0.00 603.50 259.50" xmlns="http://www.w3.org/2000/svg" xmlns:xlink="http://www.w3.org/1999/xlink">
<g id="graph0" class="graph" transform="scale(1 1) rotate(0) translate(4 255.5)">
<title>Common/Drawer/ssplayer_shader_gl.cpp</title>
<!-- Node1 -->
<g id="Node000001" class="node">
<title>Node1</title>
<g id="a_Node000001"><a xlink:title=" ">
<polygon fill="#999999" stroke="#666666" points="468.88,-251.5 338.88,-251.5 338.88,-221 468.88,-221 468.88,-251.5"/>
<text text-anchor="start" x="346.88" y="-238" font-family="Helvetica,sans-Serif" font-size="10.00">Common/Drawer/ssplayer</text>
<text text-anchor="middle" x="403.88" y="-226.75" font-family="Helvetica,sans-Serif" font-size="10.00">_shader_gl.cpp</text>
</a>
</g>
</g>
<!-- Node2 -->
<g id="Node000002" class="node">
<title>Node2</title>
<g id="a_Node000002"><a xlink:href="ss_open_g_l_setting_8h.html" target="_top" xlink:title=" ">
<polygon fill="white" stroke="#666666" points="188.62,-185 87.12,-185 87.12,-165.75 188.62,-165.75 188.62,-185"/>
<text text-anchor="middle" x="137.88" y="-171.5" font-family="Helvetica,sans-Serif" font-size="10.00">ssOpenGLSetting.h</text>
</a>
</g>
</g>
<!-- Node1&#45;&gt;Node2 -->
<g id="edge1_Node000001_Node000002" class="edge">
<title>Node1&#45;&gt;Node2</title>
<g id="a_edge1_Node000001_Node000002"><a xlink:title=" ">
<path fill="none" stroke="#63b8ff" d="M338.46,-220.77C292.81,-210.67 232.68,-197.36 190.2,-187.96"/>
<polygon fill="#63b8ff" stroke="#63b8ff" points="190.99,-184.55 180.47,-185.8 189.47,-191.38 190.99,-184.55"/>
</a>
</g>
</g>
<!-- Node7 -->
<g id="Node000007" class="node">
<title>Node7</title>
<g id="a_Node000007"><a xlink:href="ssplayer__shader__gl_8h.html" target="_top" xlink:title=" ">
<polygon fill="white" stroke="#666666" points="350,-185 241.75,-185 241.75,-165.75 350,-165.75 350,-185"/>
<text text-anchor="middle" x="295.88" y="-171.5" font-family="Helvetica,sans-Serif" font-size="10.00">ssplayer_shader_gl.h</text>
</a>
</g>
</g>
<!-- Node1&#45;&gt;Node7 -->
<g id="edge6_Node000001_Node000007" class="edge">
<title>Node1&#45;&gt;Node7</title>
<g id="a_edge6_Node000001_Node000007"><a xlink:title=" ">
<path fill="none" stroke="#63b8ff" d="M376.9,-220.55C360.3,-211.49 339.1,-199.94 322.55,-190.91"/>
<polygon fill="#63b8ff" stroke="#63b8ff" points="324.22,-187.84 313.77,-186.13 320.87,-193.99 324.22,-187.84"/>
</a>
</g>
</g>
<!-- Node10 -->
<g id="Node000010" class="node">
<title>Node10</title>
<g id="a_Node000010"><a xlink:title=" ">
<polygon fill="#e0e0e0" stroke="#999999" points="423.5,-129.75 372.25,-129.75 372.25,-110.5 423.5,-110.5 423.5,-129.75"/>
<text text-anchor="middle" x="397.88" y="-116.25" font-family="Helvetica,sans-Serif" font-size="10.00">memory</text>
</a>
</g>
</g>
<!-- Node1&#45;&gt;Node10 -->
<g id="edge14_Node000001_Node000010" class="edge">
<title>Node1&#45;&gt;Node10</title>
<g id="a_edge14_Node000001_Node000010"><a xlink:title=" ">
<path fill="none" stroke="#63b8ff" d="M401.68,-220.78C400.28,-210.76 398.6,-197.1 397.88,-185 397.01,-170.54 397.03,-154.21 397.26,-141.68"/>
<polygon fill="#63b8ff" stroke="#63b8ff" points="400.75,-141.83 397.5,-131.74 393.76,-141.66 400.75,-141.83"/>
</a>
</g>
</g>
<!-- Node12 -->
<g id="Node000012" class="node">
<title>Node12</title>
<g id="a_Node000012"><a xlink:title=" ">
<polygon fill="#e0e0e0" stroke="#999999" points="455.38,-185 406.38,-185 406.38,-165.75 455.38,-165.75 455.38,-185"/>
<text text-anchor="middle" x="430.88" y="-171.5" font-family="Helvetica,sans-Serif" font-size="10.00">fstream</text>
</a>
</g>
</g>
<!-- Node1&#45;&gt;Node12 -->
<g id="edge11_Node000001_Node000012" class="edge">
<title>Node1&#45;&gt;Node12</title>
<g id="a_edge11_Node000001_Node000012"><a xlink:title=" ">
<path fill="none" stroke="#63b8ff" d="M410.55,-220.7C413.99,-213.2 418.23,-203.95 421.95,-195.85"/>
<polygon fill="#63b8ff" stroke="#63b8ff" points="425.09,-197.38 426.08,-186.83 418.73,-194.46 425.09,-197.38"/>
</a>
</g>
</g>
<!-- Node13 -->
<g id="Node000013" class="node">
<title>Node13</title>
<g id="a_Node000013"><a xlink:title=" ">
<polygon fill="#e0e0e0" stroke="#999999" points="526.62,-185 473.12,-185 473.12,-165.75 526.62,-165.75 526.62,-185"/>
<text text-anchor="middle" x="499.88" y="-171.5" font-family="Helvetica,sans-Serif" font-size="10.00">iostream</text>
</a>
</g>
</g>
<!-- Node1&#45;&gt;Node13 -->
<g id="edge12_Node000001_Node000013" class="edge">
<title>Node1&#45;&gt;Node13</title>
<g id="a_edge12_Node000001_Node000013"><a xlink:title=" ">
<path fill="none" stroke="#63b8ff" d="M427.61,-220.7C442.22,-211.73 460.91,-200.27 475.63,-191.25"/>
<polygon fill="#63b8ff" stroke="#63b8ff" points="477.09,-194.45 483.79,-186.24 473.43,-188.49 477.09,-194.45"/>
</a>
</g>
</g>
<!-- Node14 -->
<g id="Node000014" class="node">
<title>Node14</title>
<g id="a_Node000014"><a xlink:title=" ">
<polygon fill="#e0e0e0" stroke="#999999" points="595.5,-185 544.25,-185 544.25,-165.75 595.5,-165.75 595.5,-185"/>
<text text-anchor="middle" x="569.88" y="-171.5" font-family="Helvetica,sans-Serif" font-size="10.00">sstream</text>
</a>
</g>
</g>
<!-- Node1&#45;&gt;Node14 -->
<g id="edge13_Node000001_Node000014" class="edge">
<title>Node1&#45;&gt;Node14</title>
<g id="a_edge13_Node000001_Node000014"><a xlink:title=" ">
<path fill="none" stroke="#63b8ff" d="M445.34,-220.55C472.56,-210.89 507.82,-198.38 533.87,-189.15"/>
<polygon fill="#63b8ff" stroke="#63b8ff" points="534.74,-192.55 542.99,-185.91 532.4,-185.95 534.74,-192.55"/>
</a>
</g>
</g>
<!-- Node3 -->
<g id="Node000003" class="node">
<title>Node3</title>
<g id="a_Node000003"><a xlink:href="glad_8h.html" target="_top" xlink:title=" ">
<polygon fill="white" stroke="#666666" points="80.5,-129.75 17.25,-129.75 17.25,-110.5 80.5,-110.5 80.5,-129.75"/>
<text text-anchor="middle" x="48.88" y="-116.25" font-family="Helvetica,sans-Serif" font-size="10.00">glad/glad.h</text>
</a>
</g>
</g>
<!-- Node2&#45;&gt;Node3 -->
<g id="edge2_Node000002_Node000003" class="edge">
<title>Node2&#45;&gt;Node3</title>
<g id="a_edge2_Node000002_Node000003"><a xlink:title=" ">
<path fill="none" stroke="#63b8ff" d="M122.78,-165.34C109.35,-157.31 89.46,-145.41 73.7,-135.98"/>
<polygon fill="#63b8ff" stroke="#63b8ff" points="75.72,-133.11 65.35,-130.98 72.13,-139.12 75.72,-133.11"/>
</a>
</g>
</g>
<!-- Node6 -->
<g id="Node000006" class="node">
<title>Node6</title>
<g id="a_Node000006"><a xlink:title=" ">
<polygon fill="#e0e0e0" stroke="#999999" points="177.38,-129.75 98.38,-129.75 98.38,-110.5 177.38,-110.5 177.38,-129.75"/>
<text text-anchor="middle" x="137.88" y="-116.25" font-family="Helvetica,sans-Serif" font-size="10.00">GLFW/glfw3.h</text>
</a>
</g>
</g>
<!-- Node2&#45;&gt;Node6 -->
<g id="edge5_Node000002_Node000006" class="edge">
<title>Node2&#45;&gt;Node6</title>
<g id="a_edge5_Node000002_Node000006"><a xlink:title=" ">
<path fill="none" stroke="#63b8ff" d="M137.88,-165.58C137.88,-159.07 137.88,-149.92 137.88,-141.62"/>
<polygon fill="#63b8ff" stroke="#63b8ff" points="141.38,-141.62 137.88,-131.62 134.38,-141.62 141.38,-141.62"/>
</a>
</g>
</g>
<!-- Node4 -->
<g id="Node000004" class="node">
<title>Node4</title>
<g id="a_Node000004"><a xlink:href="khrplatform_8h.html" target="_top" xlink:title=" ">
<polygon fill="white" stroke="#666666" points="97.75,-74.5 0,-74.5 0,-55.25 97.75,-55.25 97.75,-74.5"/>
<text text-anchor="middle" x="48.88" y="-61" font-family="Helvetica,sans-Serif" font-size="10.00">KHR/khrplatform.h</text>
</a>
</g>
</g>
<!-- Node3&#45;&gt;Node4 -->
<g id="edge3_Node000003_Node000004" class="edge">
<title>Node3&#45;&gt;Node4</title>
<g id="a_edge3_Node000003_Node000004"><a xlink:title=" ">
<path fill="none" stroke="#63b8ff" d="M48.88,-110.33C48.88,-103.82 48.88,-94.67 48.88,-86.37"/>
<polygon fill="#63b8ff" stroke="#63b8ff" points="52.38,-86.37 48.88,-76.37 45.38,-86.37 52.38,-86.37"/>
</a>
</g>
</g>
<!-- Node5 -->
<g id="Node000005" class="node">
<title>Node5</title>
<g id="a_Node000005"><a xlink:title=" ">
<polygon fill="#e0e0e0" stroke="#999999" points="73,-19.25 24.75,-19.25 24.75,0 73,0 73,-19.25"/>
<text text-anchor="middle" x="48.88" y="-5.75" font-family="Helvetica,sans-Serif" font-size="10.00">stdint.h</text>
</a>
</g>
</g>
<!-- Node4&#45;&gt;Node5 -->
<g id="edge4_Node000004_Node000005" class="edge">
<title>Node4&#45;&gt;Node5</title>
<g id="a_edge4_Node000004_Node000005"><a xlink:title=" ">
<path fill="none" stroke="#63b8ff" d="M48.88,-55.08C48.88,-48.57 48.88,-39.42 48.88,-31.12"/>
<polygon fill="#63b8ff" stroke="#63b8ff" points="52.38,-31.12 48.88,-21.12 45.38,-31.12 52.38,-31.12"/>
</a>
</g>
</g>
<!-- Node8 -->
<g id="Node000008" class="node">
<title>Node8</title>
<g id="a_Node000008"><a xlink:title=" ">
<polygon fill="#e0e0e0" stroke="#999999" points="235.88,-129.75 195.88,-129.75 195.88,-110.5 235.88,-110.5 235.88,-129.75"/>
<text text-anchor="middle" x="215.88" y="-116.25" font-family="Helvetica,sans-Serif" font-size="10.00">string</text>
</a>
</g>
</g>
<!-- Node7&#45;&gt;Node8 -->
<g id="edge7_Node000007_Node000008" class="edge">
<title>Node7&#45;&gt;Node8</title>
<g id="a_edge7_Node000007_Node000008"><a xlink:title=" ">
<path fill="none" stroke="#63b8ff" d="M282.3,-165.34C270.47,-157.46 253.04,-145.86 239,-136.52"/>
<polygon fill="#63b8ff" stroke="#63b8ff" points="241.04,-133.67 230.77,-131.04 237.16,-139.5 241.04,-133.67"/>
</a>
</g>
</g>
<!-- Node9 -->
<g id="Node000009" class="node">
<title>Node9</title>
<g id="a_Node000009"><a xlink:title=" ">
<polygon fill="#e0e0e0" stroke="#999999" points="297.38,-129.75 254.38,-129.75 254.38,-110.5 297.38,-110.5 297.38,-129.75"/>
<text text-anchor="middle" x="275.88" y="-116.25" font-family="Helvetica,sans-Serif" font-size="10.00">vector</text>
</a>
</g>
</g>
<!-- Node7&#45;&gt;Node9 -->
<g id="edge8_Node000007_Node000009" class="edge">
<title>Node7&#45;&gt;Node9</title>
<g id="a_edge8_Node000007_Node000009"><a xlink:title=" ">
<path fill="none" stroke="#63b8ff" d="M292.57,-165.58C290.04,-158.84 286.45,-149.27 283.24,-140.74"/>
<polygon fill="#63b8ff" stroke="#63b8ff" points="286.57,-139.66 279.78,-131.53 280.02,-142.12 286.57,-139.66"/>
</a>
</g>
</g>
<!-- Node7&#45;&gt;Node10 -->
<g id="edge9_Node000007_Node000010" class="edge">
<title>Node7&#45;&gt;Node10</title>
<g id="a_edge9_Node000007_Node000010"><a xlink:title=" ">
<path fill="none" stroke="#63b8ff" d="M313.18,-165.34C328.86,-157.16 352.23,-144.96 370.45,-135.44"/>
<polygon fill="#63b8ff" stroke="#63b8ff" points="371.9,-138.63 379.15,-130.9 368.66,-132.43 371.9,-138.63"/>
</a>
</g>
</g>
<!-- Node11 -->
<g id="Node000011" class="node">
<title>Node11</title>
<g id="a_Node000011"><a xlink:title=" ">
<polygon fill="#e0e0e0" stroke="#999999" points="354.5,-129.75 315.25,-129.75 315.25,-110.5 354.5,-110.5 354.5,-129.75"/>
<text text-anchor="middle" x="334.88" y="-116.25" font-family="Helvetica,sans-Serif" font-size="10.00">utility</text>
</a>
</g>
</g>
<!-- Node7&#45;&gt;Node11 -->
<g id="edge10_Node000007_Node000011" class="edge">
<title>Node7&#45;&gt;Node11</title>
<g id="a_edge10_Node000007_Node000011"><a xlink:title=" ">
<path fill="none" stroke="#63b8ff" d="M302.32,-165.58C307.53,-158.46 315.06,-148.18 321.57,-139.3"/>
<polygon fill="#63b8ff" stroke="#63b8ff" points="324.32,-141.47 327.4,-131.33 318.67,-137.33 324.32,-141.47"/>
</a>
</g>
</g>
</g>
</svg>
