<?xml version="1.0" encoding="UTF-8" standalone="no"?>
<!DOCTYPE svg PUBLIC "-//W3C//DTD SVG 1.1//EN"
 "http://www.w3.org/Graphics/SVG/1.1/DTD/svg11.dtd">
<!-- Generated by graphviz version 9.0.0 (20230911.1827)
 -->
<!-- Title: Common/Animator/ssplayer_PartState.h Pages: 1 -->
<svg width="1378pt" height="172pt"
 viewBox="0.00 0.00 1377.75 171.50" xmlns="http://www.w3.org/2000/svg" xmlns:xlink="http://www.w3.org/1999/xlink">
<g id="graph0" class="graph" transform="scale(1 1) rotate(0) translate(4 167.5)">
<title>Common/Animator/ssplayer_PartState.h</title>
<!-- Node1 -->
<g id="Node000001" class="node">
<title>Node1</title>
<g id="a_Node000001"><a xlink:title=" ">
<polygon fill="#999999" stroke="#666666" points="449.5,-163.5 312,-163.5 312,-133 449.5,-133 449.5,-163.5"/>
<text text-anchor="start" x="320" y="-150" font-family="Helvetica,sans-Serif" font-size="10.00">Common/Animator/ssplayer</text>
<text text-anchor="middle" x="380.75" y="-138.75" font-family="Helvetica,sans-Serif" font-size="10.00">_PartState.h</text>
</a>
</g>
</g>
<!-- Node2 -->
<g id="Node000002" class="node">
<title>Node2</title>
<g id="a_Node000002"><a xlink:href="ssplayer___part_state_8cpp.html" target="_top" xlink:title=" ">
<polygon fill="white" stroke="#666666" points="137.5,-30.5 0,-30.5 0,0 137.5,0 137.5,-30.5"/>
<text text-anchor="start" x="8" y="-17" font-family="Helvetica,sans-Serif" font-size="10.00">Common/Animator/ssplayer</text>
<text text-anchor="middle" x="68.75" y="-5.75" font-family="Helvetica,sans-Serif" font-size="10.00">_PartState.cpp</text>
</a>
</g>
</g>
<!-- Node1&#45;&gt;Node2 -->
<g id="edge1_Node000001_Node000002" class="edge">
<title>Node1&#45;&gt;Node2</title>
<g id="a_edge1_Node000001_Node000002"><a xlink:title=" ">
<path fill="none" stroke="#63b8ff" d="M335.47,-128.24C272.56,-101.82 160.08,-54.6 103.41,-30.8"/>
<polygon fill="#63b8ff" stroke="#63b8ff" points="333.9,-131.37 344.47,-132.02 336.61,-124.92 333.9,-131.37"/>
</a>
</g>
</g>
<!-- Node3 -->
<g id="Node000003" class="node">
<title>Node3</title>
<g id="a_Node000003"><a xlink:href="ssplayer__animedecode_8h.html" target="_top" xlink:title=" ">
<polygon fill="white" stroke="#666666" points="683.5,-97 546,-97 546,-66.5 683.5,-66.5 683.5,-97"/>
<text text-anchor="start" x="554" y="-83.5" font-family="Helvetica,sans-Serif" font-size="10.00">Common/Animator/ssplayer</text>
<text text-anchor="middle" x="614.75" y="-72.25" font-family="Helvetica,sans-Serif" font-size="10.00">_animedecode.h</text>
</a>
</g>
</g>
<!-- Node1&#45;&gt;Node3 -->
<g id="edge2_Node000001_Node000003" class="edge">
<title>Node1&#45;&gt;Node3</title>
<g id="a_edge2_Node000001_Node000003"><a xlink:title=" ">
<path fill="none" stroke="#63b8ff" d="M445.2,-129.49C481.79,-119.4 527.04,-106.93 561.59,-97.4"/>
<polygon fill="#63b8ff" stroke="#63b8ff" points="444.31,-126.1 435.6,-132.13 446.17,-132.85 444.31,-126.1"/>
</a>
</g>
</g>
<!-- Node3&#45;&gt;Node2 -->
<g id="edge3_Node000003_Node000002" class="edge">
<title>Node3&#45;&gt;Node2</title>
<g id="a_edge3_Node000003_Node000002"><a xlink:title=" ">
<path fill="none" stroke="#63b8ff" d="M534.22,-73.92C440.79,-65.58 282.22,-50.12 146.75,-30.5 143.75,-30.07 140.69,-29.6 137.61,-29.11"/>
<polygon fill="#63b8ff" stroke="#63b8ff" points="533.78,-77.4 544.05,-74.79 534.4,-70.42 533.78,-77.4"/>
</a>
</g>
</g>
<!-- Node4 -->
<g id="Node000004" class="node">
<title>Node4</title>
<g id="a_Node000004"><a xlink:href="ssplayer__animedecode_8cpp.html" target="_top" xlink:title=" ">
<polygon fill="white" stroke="#666666" points="293.5,-30.5 156,-30.5 156,0 293.5,0 293.5,-30.5"/>
<text text-anchor="start" x="164" y="-17" font-family="Helvetica,sans-Serif" font-size="10.00">Common/Animator/ssplayer</text>
<text text-anchor="middle" x="224.75" y="-5.75" font-family="Helvetica,sans-Serif" font-size="10.00">_animedecode.cpp</text>
</a>
</g>
</g>
<!-- Node3&#45;&gt;Node4 -->
<g id="edge4_Node000003_Node000004" class="edge">
<title>Node3&#45;&gt;Node4</title>
<g id="a_edge4_Node000003_Node000004"><a xlink:title=" ">
<path fill="none" stroke="#63b8ff" d="M534.53,-68.31C471.47,-58.41 381.43,-44.02 302.75,-30.5 299.77,-29.99 296.72,-29.46 293.64,-28.92"/>
<polygon fill="#63b8ff" stroke="#63b8ff" points="533.68,-71.71 544.1,-69.8 534.76,-64.8 533.68,-71.71"/>
</a>
</g>
</g>
<!-- Node5 -->
<g id="Node000005" class="node">
<title>Node5</title>
<g id="a_Node000005"><a xlink:href="ssplayer__cellmap_8cpp.html" target="_top" xlink:title=" ">
<polygon fill="white" stroke="#666666" points="449.5,-30.5 312,-30.5 312,0 449.5,0 449.5,-30.5"/>
<text text-anchor="start" x="320" y="-17" font-family="Helvetica,sans-Serif" font-size="10.00">Common/Animator/ssplayer</text>
<text text-anchor="middle" x="380.75" y="-5.75" font-family="Helvetica,sans-Serif" font-size="10.00">_cellmap.cpp</text>
</a>
</g>
</g>
<!-- Node3&#45;&gt;Node5 -->
<g id="edge5_Node000003_Node000005" class="edge">
<title>Node3&#45;&gt;Node5</title>
<g id="a_edge5_Node000003_Node000005"><a xlink:title=" ">
<path fill="none" stroke="#63b8ff" d="M550.3,-62.99C513.71,-52.9 468.46,-40.43 433.91,-30.9"/>
<polygon fill="#63b8ff" stroke="#63b8ff" points="549.33,-66.35 559.9,-65.63 551.19,-59.6 549.33,-66.35"/>
</a>
</g>
</g>
<!-- Node6 -->
<g id="Node000006" class="node">
<title>Node6</title>
<g id="a_Node000006"><a xlink:href="ssplayer__effect_8cpp.html" target="_top" xlink:title=" ">
<polygon fill="white" stroke="#666666" points="605.5,-30.5 468,-30.5 468,0 605.5,0 605.5,-30.5"/>
<text text-anchor="start" x="476" y="-17" font-family="Helvetica,sans-Serif" font-size="10.00">Common/Animator/ssplayer</text>
<text text-anchor="middle" x="536.75" y="-5.75" font-family="Helvetica,sans-Serif" font-size="10.00">_effect.cpp</text>
</a>
</g>
</g>
<!-- Node3&#45;&gt;Node6 -->
<g id="edge6_Node000003_Node000006" class="edge">
<title>Node3&#45;&gt;Node6</title>
<g id="a_edge6_Node000003_Node000006"><a xlink:title=" ">
<path fill="none" stroke="#63b8ff" d="M588.47,-59.02C577.24,-49.73 564.44,-39.15 554.38,-30.83"/>
<polygon fill="#63b8ff" stroke="#63b8ff" points="585.95,-61.47 595.88,-65.15 590.41,-56.08 585.95,-61.47"/>
</a>
</g>
</g>
<!-- Node7 -->
<g id="Node000007" class="node">
<title>Node7</title>
<g id="a_Node000007"><a xlink:href="ssplayer__effect2_8cpp.html" target="_top" xlink:title=" ">
<polygon fill="white" stroke="#666666" points="761.5,-30.5 624,-30.5 624,0 761.5,0 761.5,-30.5"/>
<text text-anchor="start" x="632" y="-17" font-family="Helvetica,sans-Serif" font-size="10.00">Common/Animator/ssplayer</text>
<text text-anchor="middle" x="692.75" y="-5.75" font-family="Helvetica,sans-Serif" font-size="10.00">_effect2.cpp</text>
</a>
</g>
</g>
<!-- Node3&#45;&gt;Node7 -->
<g id="edge7_Node000003_Node000007" class="edge">
<title>Node3&#45;&gt;Node7</title>
<g id="a_edge7_Node000003_Node000007"><a xlink:title=" ">
<path fill="none" stroke="#63b8ff" d="M641.03,-59.02C652.26,-49.73 665.06,-39.15 675.12,-30.83"/>
<polygon fill="#63b8ff" stroke="#63b8ff" points="639.09,-56.08 633.62,-65.15 643.55,-61.47 639.09,-56.08"/>
</a>
</g>
</g>
<!-- Node8 -->
<g id="Node000008" class="node">
<title>Node8</title>
<g id="a_Node000008"><a xlink:href="ssplayer__effectfunction_8cpp.html" target="_top" xlink:title=" ">
<polygon fill="white" stroke="#666666" points="917.5,-30.5 780,-30.5 780,0 917.5,0 917.5,-30.5"/>
<text text-anchor="start" x="788" y="-17" font-family="Helvetica,sans-Serif" font-size="10.00">Common/Animator/ssplayer</text>
<text text-anchor="middle" x="848.75" y="-5.75" font-family="Helvetica,sans-Serif" font-size="10.00">_effectfunction.cpp</text>
</a>
</g>
</g>
<!-- Node3&#45;&gt;Node8 -->
<g id="edge8_Node000003_Node000008" class="edge">
<title>Node3&#45;&gt;Node8</title>
<g id="a_edge8_Node000003_Node000008"><a xlink:title=" ">
<path fill="none" stroke="#63b8ff" d="M679.2,-62.99C715.79,-52.9 761.04,-40.43 795.59,-30.9"/>
<polygon fill="#63b8ff" stroke="#63b8ff" points="678.31,-59.6 669.6,-65.63 680.17,-66.35 678.31,-59.6"/>
</a>
</g>
</g>
<!-- Node9 -->
<g id="Node000009" class="node">
<title>Node9</title>
<g id="a_Node000009"><a xlink:href="ssplayer__mesh_8cpp.html" target="_top" xlink:title=" ">
<polygon fill="white" stroke="#666666" points="1073.5,-30.5 936,-30.5 936,0 1073.5,0 1073.5,-30.5"/>
<text text-anchor="start" x="944" y="-17" font-family="Helvetica,sans-Serif" font-size="10.00">Common/Animator/ssplayer</text>
<text text-anchor="middle" x="1004.75" y="-5.75" font-family="Helvetica,sans-Serif" font-size="10.00">_mesh.cpp</text>
</a>
</g>
</g>
<!-- Node3&#45;&gt;Node9 -->
<g id="edge9_Node000003_Node000009" class="edge">
<title>Node3&#45;&gt;Node9</title>
<g id="a_edge9_Node000003_Node000009"><a xlink:title=" ">
<path fill="none" stroke="#63b8ff" d="M694.97,-68.31C758.03,-58.41 848.07,-44.02 926.75,-30.5 929.73,-29.99 932.78,-29.46 935.86,-28.92"/>
<polygon fill="#63b8ff" stroke="#63b8ff" points="694.74,-64.8 685.4,-69.8 695.82,-71.71 694.74,-64.8"/>
</a>
</g>
</g>
<!-- Node10 -->
<g id="Node000010" class="node">
<title>Node10</title>
<g id="a_Node000010"><a xlink:href="ssplayer__render__dx9_8cpp.html" target="_top" xlink:title=" ">
<polygon fill="white" stroke="#666666" points="1221.75,-30.5 1091.75,-30.5 1091.75,0 1221.75,0 1221.75,-30.5"/>
<text text-anchor="start" x="1099.75" y="-17" font-family="Helvetica,sans-Serif" font-size="10.00">Common/Drawer/ssplayer</text>
<text text-anchor="middle" x="1156.75" y="-5.75" font-family="Helvetica,sans-Serif" font-size="10.00">_render_dx9.cpp</text>
</a>
</g>
</g>
<!-- Node3&#45;&gt;Node10 -->
<g id="edge10_Node000003_Node000010" class="edge">
<title>Node3&#45;&gt;Node10</title>
<g id="a_edge10_Node000003_Node000010"><a xlink:title=" ">
<path fill="none" stroke="#63b8ff" d="M695.32,-74.15C788.78,-66.03 947.37,-50.77 1082.75,-30.5 1085.6,-30.07 1088.5,-29.62 1091.43,-29.13"/>
<polygon fill="#63b8ff" stroke="#63b8ff" points="695.14,-70.66 685.48,-75 695.74,-77.63 695.14,-70.66"/>
</a>
</g>
</g>
<!-- Node11 -->
<g id="Node000011" class="node">
<title>Node11</title>
<g id="a_Node000011"><a xlink:href="ssplayer__render__gl_8cpp.html" target="_top" xlink:title=" ">
<polygon fill="white" stroke="#666666" points="1369.75,-30.5 1239.75,-30.5 1239.75,0 1369.75,0 1369.75,-30.5"/>
<text text-anchor="start" x="1247.75" y="-17" font-family="Helvetica,sans-Serif" font-size="10.00">Common/Drawer/ssplayer</text>
<text text-anchor="middle" x="1304.75" y="-5.75" font-family="Helvetica,sans-Serif" font-size="10.00">_render_gl.cpp</text>
</a>
</g>
</g>
<!-- Node3&#45;&gt;Node11 -->
<g id="edge11_Node000003_Node000011" class="edge">
<title>Node3&#45;&gt;Node11</title>
<g id="a_edge11_Node000003_Node000011"><a xlink:title=" ">
<path fill="none" stroke="#63b8ff" d="M695.26,-76.98C813.18,-70.83 1039.64,-56.62 1230.75,-30.5 1233.6,-30.11 1236.51,-29.68 1239.44,-29.23"/>
<polygon fill="#63b8ff" stroke="#63b8ff" points="695.16,-73.48 685.35,-77.49 695.52,-80.47 695.16,-73.48"/>
</a>
</g>
</g>
</g>
</svg>
