<?xml version="1.0" encoding="UTF-8" standalone="no"?>
<!DOCTYPE svg PUBLIC "-//W3C//DTD SVG 1.1//EN"
 "http://www.w3.org/Graphics/SVG/1.1/DTD/svg11.dtd">
<!-- Generated by graphviz version 9.0.0 (20230911.1827)
 -->
<!-- Title: Common/Drawer/ssplayer_render_gl.h Pages: 1 -->
<svg width="310pt" height="216pt"
 viewBox="0.00 0.00 309.62 215.50" xmlns="http://www.w3.org/2000/svg" xmlns:xlink="http://www.w3.org/1999/xlink">
<g id="graph0" class="graph" transform="scale(1 1) rotate(0) translate(4 211.5)">
<title>Common/Drawer/ssplayer_render_gl.h</title>
<!-- Node1 -->
<g id="Node000001" class="node">
<title>Node1</title>
<g id="a_Node000001"><a xlink:title=" ">
<polygon fill="#999999" stroke="#666666" points="210.75,-207.5 80.75,-207.5 80.75,-177 210.75,-177 210.75,-207.5"/>
<text text-anchor="start" x="88.75" y="-194" font-family="Helvetica,sans-Serif" font-size="10.00">Common/Drawer/ssplayer</text>
<text text-anchor="middle" x="145.75" y="-182.75" font-family="Helvetica,sans-Serif" font-size="10.00">_render_gl.h</text>
</a>
</g>
</g>
<!-- Node2 -->
<g id="Node000002" class="node">
<title>Node2</title>
<g id="a_Node000002"><a xlink:href="ssplayer__render_8h.html" target="_top" xlink:title=" ">
<polygon fill="white" stroke="#666666" points="197.62,-141 93.88,-141 93.88,-110.5 197.62,-110.5 197.62,-141"/>
<text text-anchor="start" x="101.88" y="-127.5" font-family="Helvetica,sans-Serif" font-size="10.00">../Animator/ssplayer</text>
<text text-anchor="middle" x="145.75" y="-116.25" font-family="Helvetica,sans-Serif" font-size="10.00">_render.h</text>
</a>
</g>
</g>
<!-- Node1&#45;&gt;Node2 -->
<g id="edge1_Node000001_Node000002" class="edge">
<title>Node1&#45;&gt;Node2</title>
<g id="a_edge1_Node000001_Node000002"><a xlink:title=" ">
<path fill="none" stroke="#63b8ff" d="M145.75,-176.61C145.75,-169.52 145.75,-160.79 145.75,-152.63"/>
<polygon fill="#63b8ff" stroke="#63b8ff" points="149.25,-152.84 145.75,-142.84 142.25,-152.84 149.25,-152.84"/>
</a>
</g>
</g>
<!-- Node3 -->
<g id="Node000003" class="node">
<title>Node3</title>
<g id="a_Node000003"><a xlink:href="sstypes_8h.html" target="_top" xlink:title=" ">
<polygon fill="white" stroke="#666666" points="195.75,-74.5 95.75,-74.5 95.75,-55.25 195.75,-55.25 195.75,-74.5"/>
<text text-anchor="middle" x="145.75" y="-61" font-family="Helvetica,sans-Serif" font-size="10.00">../Loader/sstypes.h</text>
</a>
</g>
</g>
<!-- Node2&#45;&gt;Node3 -->
<g id="edge2_Node000002_Node000003" class="edge">
<title>Node2&#45;&gt;Node3</title>
<g id="a_edge2_Node000002_Node000003"><a xlink:title=" ">
<path fill="none" stroke="#63b8ff" d="M145.75,-110.2C145.75,-102.96 145.75,-94.09 145.75,-86.19"/>
<polygon fill="#63b8ff" stroke="#63b8ff" points="149.25,-86.46 145.75,-76.46 142.25,-86.46 149.25,-86.46"/>
</a>
</g>
</g>
<!-- Node4 -->
<g id="Node000004" class="node">
<title>Node4</title>
<g id="a_Node000004"><a xlink:title=" ">
<polygon fill="#e0e0e0" stroke="#999999" points="47.5,-19.25 0,-19.25 0,0 47.5,0 47.5,-19.25"/>
<text text-anchor="middle" x="23.75" y="-5.75" font-family="Helvetica,sans-Serif" font-size="10.00">stdlib.h</text>
</a>
</g>
</g>
<!-- Node3&#45;&gt;Node4 -->
<g id="edge3_Node000003_Node000004" class="edge">
<title>Node3&#45;&gt;Node4</title>
<g id="a_edge3_Node000003_Node000004"><a xlink:title=" ">
<path fill="none" stroke="#63b8ff" d="M125.05,-54.84C105.86,-46.47 77.04,-33.88 55.03,-24.28"/>
<polygon fill="#63b8ff" stroke="#63b8ff" points="56.5,-21.1 45.93,-20.31 53.7,-27.52 56.5,-21.1"/>
</a>
</g>
</g>
<!-- Node5 -->
<g id="Node000005" class="node">
<title>Node5</title>
<g id="a_Node000005"><a xlink:title=" ">
<polygon fill="#e0e0e0" stroke="#999999" points="105.75,-19.25 65.75,-19.25 65.75,0 105.75,0 105.75,-19.25"/>
<text text-anchor="middle" x="85.75" y="-5.75" font-family="Helvetica,sans-Serif" font-size="10.00">string</text>
</a>
</g>
</g>
<!-- Node3&#45;&gt;Node5 -->
<g id="edge4_Node000003_Node000005" class="edge">
<title>Node3&#45;&gt;Node5</title>
<g id="a_edge4_Node000003_Node000005"><a xlink:title=" ">
<path fill="none" stroke="#63b8ff" d="M135.57,-54.84C126.99,-47.22 114.48,-36.12 104.15,-26.95"/>
<polygon fill="#63b8ff" stroke="#63b8ff" points="106.71,-24.55 96.91,-20.53 102.07,-29.79 106.71,-24.55"/>
</a>
</g>
</g>
<!-- Node6 -->
<g id="Node000006" class="node">
<title>Node6</title>
<g id="a_Node000006"><a xlink:title=" ">
<polygon fill="#e0e0e0" stroke="#999999" points="167.25,-19.25 124.25,-19.25 124.25,0 167.25,0 167.25,-19.25"/>
<text text-anchor="middle" x="145.75" y="-5.75" font-family="Helvetica,sans-Serif" font-size="10.00">vector</text>
</a>
</g>
</g>
<!-- Node3&#45;&gt;Node6 -->
<g id="edge5_Node000003_Node000006" class="edge">
<title>Node3&#45;&gt;Node6</title>
<g id="a_edge5_Node000003_Node000006"><a xlink:title=" ">
<path fill="none" stroke="#63b8ff" d="M145.75,-55.08C145.75,-48.57 145.75,-39.42 145.75,-31.12"/>
<polygon fill="#63b8ff" stroke="#63b8ff" points="149.25,-31.12 145.75,-21.12 142.25,-31.12 149.25,-31.12"/>
</a>
</g>
</g>
<!-- Node7 -->
<g id="Node000007" class="node">
<title>Node7</title>
<g id="a_Node000007"><a xlink:title=" ">
<polygon fill="#e0e0e0" stroke="#999999" points="228.25,-19.25 185.25,-19.25 185.25,0 228.25,0 228.25,-19.25"/>
<text text-anchor="middle" x="206.75" y="-5.75" font-family="Helvetica,sans-Serif" font-size="10.00">cmath</text>
</a>
</g>
</g>
<!-- Node3&#45;&gt;Node7 -->
<g id="edge6_Node000003_Node000007" class="edge">
<title>Node3&#45;&gt;Node7</title>
<g id="a_edge6_Node000003_Node000007"><a xlink:title=" ">
<path fill="none" stroke="#63b8ff" d="M156.1,-54.84C164.83,-47.22 177.54,-36.12 188.05,-26.95"/>
<polygon fill="#63b8ff" stroke="#63b8ff" points="190.18,-29.73 195.41,-20.52 185.58,-24.46 190.18,-29.73"/>
</a>
</g>
</g>
<!-- Node8 -->
<g id="Node000008" class="node">
<title>Node8</title>
<g id="a_Node000008"><a xlink:title=" ">
<polygon fill="#e0e0e0" stroke="#999999" points="301.62,-19.25 245.88,-19.25 245.88,0 301.62,0 301.62,-19.25"/>
<text text-anchor="middle" x="273.75" y="-5.75" font-family="Helvetica,sans-Serif" font-size="10.00">algorithm</text>
</a>
</g>
</g>
<!-- Node3&#45;&gt;Node8 -->
<g id="edge7_Node000003_Node000008" class="edge">
<title>Node3&#45;&gt;Node8</title>
<g id="a_edge7_Node000003_Node000008"><a xlink:title=" ">
<path fill="none" stroke="#63b8ff" d="M167.46,-54.84C187.78,-46.39 218.4,-33.65 241.56,-24.02"/>
<polygon fill="#63b8ff" stroke="#63b8ff" points="242.64,-27.36 250.53,-20.28 239.96,-20.89 242.64,-27.36"/>
</a>
</g>
</g>
</g>
</svg>
