<?xml version="1.0" encoding="UTF-8" standalone="no"?>
<!DOCTYPE svg PUBLIC "-//W3C//DTD SVG 1.1//EN"
 "http://www.w3.org/Graphics/SVG/1.1/DTD/svg11.dtd">
<!-- Generated by graphviz version 9.0.0 (20230911.1827)
 -->
<!-- Title: Common/Animator/ssplayer_effectfunction.h Pages: 1 -->
<svg width="1229pt" height="536pt"
 viewBox="0.00 0.00 1229.00 535.75" xmlns="http://www.w3.org/2000/svg" xmlns:xlink="http://www.w3.org/1999/xlink">
<g id="graph0" class="graph" transform="scale(1 1) rotate(0) translate(4 531.75)">
<title>Common/Animator/ssplayer_effectfunction.h</title>
<!-- Node1 -->
<g id="Node000001" class="node">
<title>Node1</title>
<g id="a_Node000001"><a xlink:title=" ">
<polygon fill="#999999" stroke="#666666" points="1113.75,-527.75 976.25,-527.75 976.25,-497.25 1113.75,-497.25 1113.75,-527.75"/>
<text text-anchor="start" x="984.25" y="-514.25" font-family="Helvetica,sans-Serif" font-size="10.00">Common/Animator/ssplayer</text>
<text text-anchor="middle" x="1045" y="-503" font-family="Helvetica,sans-Serif" font-size="10.00">_effectfunction.h</text>
</a>
</g>
</g>
<!-- Node2 -->
<g id="Node000002" class="node">
<title>Node2</title>
<g id="a_Node000002"><a xlink:href="ssplayer__effect_8h.html" target="_top" xlink:title=" ">
<polygon fill="white" stroke="#666666" points="1042.5,-461.25 951.5,-461.25 951.5,-442 1042.5,-442 1042.5,-461.25"/>
<text text-anchor="middle" x="997" y="-447.75" font-family="Helvetica,sans-Serif" font-size="10.00">ssplayer_effect.h</text>
</a>
</g>
</g>
<!-- Node1&#45;&gt;Node2 -->
<g id="edge1_Node000001_Node000002" class="edge">
<title>Node1&#45;&gt;Node2</title>
<g id="a_edge1_Node000001_Node000002"><a xlink:title=" ">
<path fill="none" stroke="#63b8ff" d="M1033.13,-496.95C1026.6,-488.93 1018.43,-478.92 1011.52,-470.44"/>
<polygon fill="#63b8ff" stroke="#63b8ff" points="1014.39,-468.41 1005.36,-462.87 1008.96,-472.84 1014.39,-468.41"/>
</a>
</g>
</g>
<!-- Node34 -->
<g id="Node000034" class="node">
<title>Node34</title>
<g id="a_Node000034"><a xlink:href="ssplayer__effect2_8h.html" target="_top" xlink:title=" ">
<polygon fill="white" stroke="#666666" points="1139.12,-350.75 1042.88,-350.75 1042.88,-331.5 1139.12,-331.5 1139.12,-350.75"/>
<text text-anchor="middle" x="1091" y="-337.25" font-family="Helvetica,sans-Serif" font-size="10.00">ssplayer_effect2.h</text>
</a>
</g>
</g>
<!-- Node1&#45;&gt;Node34 -->
<g id="edge71_Node000001_Node000034" class="edge">
<title>Node1&#45;&gt;Node34</title>
<g id="a_edge71_Node000001_Node000034"><a xlink:title=" ">
<path fill="none" stroke="#63b8ff" d="M1053.6,-497.02C1059.06,-487.23 1065.86,-473.84 1070,-461.25 1081.13,-427.43 1086.73,-386.16 1089.24,-362.14"/>
<polygon fill="#63b8ff" stroke="#63b8ff" points="1092.69,-362.8 1090.17,-352.51 1085.73,-362.13 1092.69,-362.8"/>
</a>
</g>
</g>
<!-- Node2&#45;&gt;Node2 -->
<g id="edge69_Node000002_Node000002" class="edge">
<title>Node2&#45;&gt;Node2</title>
<g id="a_edge69_Node000002_Node000002"><a xlink:title=" ">
<path fill="none" stroke="#63b8ff" d="M1030.32,-461.73C1046.35,-462.98 1060.5,-459.61 1060.5,-451.62 1060.5,-445.64 1052.54,-442.24 1041.8,-441.45"/>
<polygon fill="#63b8ff" stroke="#63b8ff" points="1041.81,-437.95 1031.84,-441.51 1041.86,-444.95 1041.81,-437.95"/>
</a>
</g>
</g>
<!-- Node3 -->
<g id="Node000003" class="node">
<title>Node3</title>
<g id="a_Node000003"><a xlink:href="ssloader_8h.html" target="_top" xlink:title=" ">
<polygon fill="white" stroke="#666666" points="491.75,-406 390.25,-406 390.25,-386.75 491.75,-386.75 491.75,-406"/>
<text text-anchor="middle" x="441" y="-392.5" font-family="Helvetica,sans-Serif" font-size="10.00">../Loader/ssloader.h</text>
</a>
</g>
</g>
<!-- Node2&#45;&gt;Node3 -->
<g id="edge2_Node000002_Node000003" class="edge">
<title>Node2&#45;&gt;Node3</title>
<g id="a_edge2_Node000002_Node000003"><a xlink:title=" ">
<path fill="none" stroke="#63b8ff" d="M951.03,-446.22C851.54,-436.69 616.19,-414.15 503.4,-403.35"/>
<polygon fill="#63b8ff" stroke="#63b8ff" points="504.01,-399.89 493.73,-402.42 503.35,-406.86 504.01,-399.89"/>
</a>
</g>
</g>
<!-- Node29 -->
<g id="Node000029" class="node">
<title>Node29</title>
<g id="a_Node000029"><a xlink:title=" ">
<polygon fill="#e0e0e0" stroke="#999999" points="1060.62,-185 1009.38,-185 1009.38,-165.75 1060.62,-165.75 1060.62,-185"/>
<text text-anchor="middle" x="1035" y="-171.5" font-family="Helvetica,sans-Serif" font-size="10.00">memory</text>
</a>
</g>
</g>
<!-- Node2&#45;&gt;Node29 -->
<g id="edge70_Node000002_Node000029" class="edge">
<title>Node2&#45;&gt;Node29</title>
<g id="a_edge70_Node000002_Node000029"><a xlink:title=" ">
<path fill="none" stroke="#63b8ff" d="M997.74,-441.52C999.88,-415.59 1006.6,-339.2 1016,-276.25 1020.15,-248.48 1026.48,-216.66 1030.68,-196.54"/>
<polygon fill="#63b8ff" stroke="#63b8ff" points="1034.07,-197.41 1032.72,-186.9 1027.22,-195.96 1034.07,-197.41"/>
</a>
</g>
</g>
<!-- Node32 -->
<g id="Node000032" class="node">
<title>Node32</title>
<g id="a_Node000032"><a xlink:href="_mersenne_twister_8h.html" target="_top" xlink:title=" ">
<polygon fill="white" stroke="#666666" points="173.88,-406 76.12,-406 76.12,-386.75 173.88,-386.75 173.88,-406"/>
<text text-anchor="middle" x="125" y="-392.5" font-family="Helvetica,sans-Serif" font-size="10.00">MersenneTwister.h</text>
</a>
</g>
</g>
<!-- Node2&#45;&gt;Node32 -->
<g id="edge64_Node000002_Node000032" class="edge">
<title>Node2&#45;&gt;Node32</title>
<g id="a_edge64_Node000002_Node000032"><a xlink:title=" ">
<path fill="none" stroke="#63b8ff" d="M951.04,-447.82C804.82,-438.89 350.36,-411.14 185.51,-401.07"/>
<polygon fill="#63b8ff" stroke="#63b8ff" points="185.86,-397.58 175.66,-400.47 185.43,-404.57 185.86,-397.58"/>
</a>
</g>
</g>
<!-- Node33 -->
<g id="Node000033" class="node">
<title>Node33</title>
<g id="a_Node000033"><a xlink:href="ssplayer__cellmap_8h.html" target="_top" xlink:title=" ">
<polygon fill="white" stroke="#666666" points="1221,-240.25 1121,-240.25 1121,-221 1221,-221 1221,-240.25"/>
<text text-anchor="middle" x="1171" y="-226.75" font-family="Helvetica,sans-Serif" font-size="10.00">ssplayer_cellmap.h</text>
</a>
</g>
</g>
<!-- Node2&#45;&gt;Node33 -->
<g id="edge66_Node000002_Node000033" class="edge">
<title>Node2&#45;&gt;Node33</title>
<g id="a_edge66_Node000002_Node000033"><a xlink:title=" ">
<path fill="none" stroke="#63b8ff" d="M1021.61,-441.63C1068.19,-422.99 1167.33,-375.09 1198,-295.5 1204.01,-279.9 1195.56,-262.43 1186.56,-249.7"/>
<polygon fill="#63b8ff" stroke="#63b8ff" points="1189.33,-247.57 1180.43,-241.84 1183.82,-251.88 1189.33,-247.57"/>
</a>
</g>
</g>
<!-- Node4 -->
<g id="Node000004" class="node">
<title>Node4</title>
<g id="a_Node000004"><a xlink:href="sstypes_8h.html" target="_top" xlink:title=" ">
<polygon fill="white" stroke="#666666" points="840.38,-74.5 781.62,-74.5 781.62,-55.25 840.38,-55.25 840.38,-74.5"/>
<text text-anchor="middle" x="811" y="-61" font-family="Helvetica,sans-Serif" font-size="10.00">sstypes.h</text>
</a>
</g>
</g>
<!-- Node3&#45;&gt;Node4 -->
<g id="edge3_Node000003_Node000004" class="edge">
<title>Node3&#45;&gt;Node4</title>
<g id="a_edge3_Node000003_Node000004"><a xlink:title=" ">
<path fill="none" stroke="#63b8ff" d="M491.95,-395.71C574.98,-393.69 740.83,-378.61 847,-295.5 914.07,-243 946.96,-179.48 897,-110.5 885.91,-95.19 867.99,-84.72 851.36,-77.8"/>
<polygon fill="#63b8ff" stroke="#63b8ff" points="852.72,-74.57 842.12,-74.28 850.22,-81.11 852.72,-74.57"/>
</a>
</g>
</g>
<!-- Node10 -->
<g id="Node000010" class="node">
<title>Node10</title>
<g id="a_Node000010"><a xlink:href="ssarchiver_8h.html" target="_top" xlink:title=" ">
<polygon fill="white" stroke="#666666" points="306.25,-129.75 237.75,-129.75 237.75,-110.5 306.25,-110.5 306.25,-129.75"/>
<text text-anchor="middle" x="272" y="-116.25" font-family="Helvetica,sans-Serif" font-size="10.00">ssarchiver.h</text>
</a>
</g>
</g>
<!-- Node3&#45;&gt;Node10 -->
<g id="edge9_Node000003_Node000010" class="edge">
<title>Node3&#45;&gt;Node10</title>
<g id="a_edge9_Node000003_Node000010"><a xlink:title=" ">
<path fill="none" stroke="#63b8ff" d="M389.96,-392.36C281.52,-384.54 38,-358.97 38,-286.88 38,-286.88 38,-286.88 38,-229.62 38,-200.01 35.19,-185.79 57,-165.75 81.24,-143.47 170.64,-130.94 226.24,-125.15"/>
<polygon fill="#63b8ff" stroke="#63b8ff" points="226.45,-128.65 236.05,-124.16 225.75,-121.68 226.45,-128.65"/>
</a>
</g>
</g>
<!-- Node13 -->
<g id="Node000013" class="node">
<title>Node13</title>
<g id="a_Node000013"><a xlink:href="ssattribute_8h.html" target="_top" xlink:title=" ">
<polygon fill="white" stroke="#666666" points="238,-240.25 168,-240.25 168,-221 238,-221 238,-240.25"/>
<text text-anchor="middle" x="203" y="-226.75" font-family="Helvetica,sans-Serif" font-size="10.00">ssattribute.h</text>
</a>
</g>
</g>
<!-- Node3&#45;&gt;Node13 -->
<g id="edge15_Node000003_Node000013" class="edge">
<title>Node3&#45;&gt;Node13</title>
<g id="a_edge15_Node000003_Node000013"><a xlink:title=" ">
<path fill="none" stroke="#63b8ff" d="M409.61,-386.35C367.28,-372.78 291.72,-343.49 244,-295.5 230.93,-282.36 219.85,-264.38 212.52,-250.85"/>
<polygon fill="#63b8ff" stroke="#63b8ff" points="215.68,-249.34 207.97,-242.07 209.46,-252.56 215.68,-249.34"/>
</a>
</g>
</g>
<!-- Node21 -->
<g id="Node000021" class="node">
<title>Node21</title>
<g id="a_Node000021"><a xlink:href="ss_interpolation_8h.html" target="_top" xlink:title=" ">
<polygon fill="white" stroke="#666666" points="154,-185 66,-185 66,-165.75 154,-165.75 154,-185"/>
<text text-anchor="middle" x="110" y="-171.5" font-family="Helvetica,sans-Serif" font-size="10.00">ssInterpolation.h</text>
</a>
</g>
</g>
<!-- Node3&#45;&gt;Node21 -->
<g id="edge63_Node000003_Node000021" class="edge">
<title>Node3&#45;&gt;Node21</title>
<g id="a_edge63_Node000003_Node000021"><a xlink:title=" ">
<path fill="none" stroke="#63b8ff" d="M389.99,-386.36C358.93,-379.5 319.17,-368.21 287,-350.75 220.94,-314.91 210.59,-294.91 159,-240.25 145.37,-225.81 131.79,-207.73 122.39,-194.5"/>
<polygon fill="#63b8ff" stroke="#63b8ff" points="125.28,-192.53 116.69,-186.33 119.54,-196.53 125.28,-192.53"/>
</a>
</g>
</g>
<!-- Node23 -->
<g id="Node000023" class="node">
<title>Node23</title>
<g id="a_Node000023"><a xlink:href="ssloader__sspj_8h.html" target="_top" xlink:title=" ">
<polygon fill="white" stroke="#666666" points="625.12,-350.75 540.88,-350.75 540.88,-331.5 625.12,-331.5 625.12,-350.75"/>
<text text-anchor="middle" x="583" y="-337.25" font-family="Helvetica,sans-Serif" font-size="10.00">ssloader_sspj.h</text>
</a>
</g>
</g>
<!-- Node3&#45;&gt;Node23 -->
<g id="edge32_Node000003_Node000023" class="edge">
<title>Node3&#45;&gt;Node23</title>
<g id="a_edge32_Node000003_Node000023"><a xlink:title=" ">
<path fill="none" stroke="#63b8ff" d="M465.09,-386.34C487.94,-377.77 522.52,-364.81 548.33,-355.13"/>
<polygon fill="#63b8ff" stroke="#63b8ff" points="549.24,-358.52 557.38,-351.73 546.78,-351.97 549.24,-358.52"/>
</a>
</g>
</g>
<!-- Node24 -->
<g id="Node000024" class="node">
<title>Node24</title>
<g id="a_Node000024"><a xlink:href="ssloader__ssae_8h.html" target="_top" xlink:title=" ">
<polygon fill="white" stroke="#666666" points="340.62,-295.5 253.38,-295.5 253.38,-276.25 340.62,-276.25 340.62,-295.5"/>
<text text-anchor="middle" x="297" y="-282" font-family="Helvetica,sans-Serif" font-size="10.00">ssloader_ssae.h</text>
</a>
</g>
</g>
<!-- Node3&#45;&gt;Node24 -->
<g id="edge59_Node000003_Node000024" class="edge">
<title>Node3&#45;&gt;Node24</title>
<g id="a_edge59_Node000003_Node000024"><a xlink:title=" ">
<path fill="none" stroke="#63b8ff" d="M418.53,-386.36C400.39,-378.48 374.73,-365.94 355,-350.75 337.62,-337.37 321.14,-318.39 310.22,-304.6"/>
<polygon fill="#63b8ff" stroke="#63b8ff" points="313.12,-302.62 304.25,-296.83 307.57,-306.89 313.12,-302.62"/>
</a>
</g>
</g>
<!-- Node25 -->
<g id="Node000025" class="node">
<title>Node25</title>
<g id="a_Node000025"><a xlink:href="ssloader__ssce_8h.html" target="_top" xlink:title=" ">
<polygon fill="white" stroke="#666666" points="562.62,-240.25 475.38,-240.25 475.38,-221 562.62,-221 562.62,-240.25"/>
<text text-anchor="middle" x="519" y="-226.75" font-family="Helvetica,sans-Serif" font-size="10.00">ssloader_ssce.h</text>
</a>
</g>
</g>
<!-- Node3&#45;&gt;Node25 -->
<g id="edge60_Node000003_Node000025" class="edge">
<title>Node3&#45;&gt;Node25</title>
<g id="a_edge60_Node000003_Node000025"><a xlink:title=" ">
<path fill="none" stroke="#63b8ff" d="M445.19,-386.57C457.41,-360.92 493.19,-285.8 510.04,-250.44"/>
<polygon fill="#63b8ff" stroke="#63b8ff" points="512.99,-252.37 514.13,-241.84 506.67,-249.36 512.99,-252.37"/>
</a>
</g>
</g>
<!-- Node26 -->
<g id="Node000026" class="node">
<title>Node26</title>
<g id="a_Node000026"><a xlink:href="ssloader__ssee_8h.html" target="_top" xlink:title=" ">
<polygon fill="white" stroke="#666666" points="837.62,-295.5 750.38,-295.5 750.38,-276.25 837.62,-276.25 837.62,-295.5"/>
<text text-anchor="middle" x="794" y="-282" font-family="Helvetica,sans-Serif" font-size="10.00">ssloader_ssee.h</text>
</a>
</g>
</g>
<!-- Node3&#45;&gt;Node26 -->
<g id="edge61_Node000003_Node000026" class="edge">
<title>Node3&#45;&gt;Node26</title>
<g id="a_edge61_Node000003_Node000026"><a xlink:title=" ">
<path fill="none" stroke="#63b8ff" d="M489.53,-386.29C528.9,-378.42 585.59,-365.91 634,-350.75 680.21,-336.28 731.97,-314.56 763.77,-300.55"/>
<polygon fill="#63b8ff" stroke="#63b8ff" points="765.05,-303.82 772.77,-296.56 762.21,-297.42 765.05,-303.82"/>
</a>
</g>
</g>
<!-- Node30 -->
<g id="Node000030" class="node">
<title>Node30</title>
<g id="a_Node000030"><a xlink:href="ssloader__ssqe_8h.html" target="_top" xlink:title=" ">
<polygon fill="white" stroke="#666666" points="457.62,-240.25 370.38,-240.25 370.38,-221 457.62,-221 457.62,-240.25"/>
<text text-anchor="middle" x="414" y="-226.75" font-family="Helvetica,sans-Serif" font-size="10.00">ssloader_ssqe.h</text>
</a>
</g>
</g>
<!-- Node3&#45;&gt;Node30 -->
<g id="edge62_Node000003_Node000030" class="edge">
<title>Node3&#45;&gt;Node30</title>
<g id="a_edge62_Node000003_Node000030"><a xlink:title=" ">
<path fill="none" stroke="#63b8ff" d="M439.55,-386.57C435.35,-361.14 423.15,-287.1 417.26,-251.37"/>
<polygon fill="#63b8ff" stroke="#63b8ff" points="420.79,-251.26 415.71,-241.97 413.88,-252.4 420.79,-251.26"/>
</a>
</g>
</g>
<!-- Node5 -->
<g id="Node000005" class="node">
<title>Node5</title>
<g id="a_Node000005"><a xlink:title=" ">
<polygon fill="#e0e0e0" stroke="#999999" points="834.75,-19.25 787.25,-19.25 787.25,0 834.75,0 834.75,-19.25"/>
<text text-anchor="middle" x="811" y="-5.75" font-family="Helvetica,sans-Serif" font-size="10.00">stdlib.h</text>
</a>
</g>
</g>
<!-- Node4&#45;&gt;Node5 -->
<g id="edge4_Node000004_Node000005" class="edge">
<title>Node4&#45;&gt;Node5</title>
<g id="a_edge4_Node000004_Node000005"><a xlink:title=" ">
<path fill="none" stroke="#63b8ff" d="M811,-55.08C811,-48.57 811,-39.42 811,-31.12"/>
<polygon fill="#63b8ff" stroke="#63b8ff" points="814.5,-31.12 811,-21.12 807.5,-31.12 814.5,-31.12"/>
</a>
</g>
</g>
<!-- Node6 -->
<g id="Node000006" class="node">
<title>Node6</title>
<g id="a_Node000006"><a xlink:title=" ">
<polygon fill="#e0e0e0" stroke="#999999" points="569,-19.25 529,-19.25 529,0 569,0 569,-19.25"/>
<text text-anchor="middle" x="549" y="-5.75" font-family="Helvetica,sans-Serif" font-size="10.00">string</text>
</a>
</g>
</g>
<!-- Node4&#45;&gt;Node6 -->
<g id="edge5_Node000004_Node000006" class="edge">
<title>Node4&#45;&gt;Node6</title>
<g id="a_edge5_Node000004_Node000006"><a xlink:title=" ">
<path fill="none" stroke="#63b8ff" d="M781.15,-57.02C778.39,-56.41 775.65,-55.81 773,-55.25 704.58,-40.67 624.09,-24.99 580.65,-16.66"/>
<polygon fill="#63b8ff" stroke="#63b8ff" points="581.39,-13.23 570.91,-14.79 580.07,-20.11 581.39,-13.23"/>
</a>
</g>
</g>
<!-- Node7 -->
<g id="Node000007" class="node">
<title>Node7</title>
<g id="a_Node000007"><a xlink:title=" ">
<polygon fill="#e0e0e0" stroke="#999999" points="388.5,-19.25 345.5,-19.25 345.5,0 388.5,0 388.5,-19.25"/>
<text text-anchor="middle" x="367" y="-5.75" font-family="Helvetica,sans-Serif" font-size="10.00">vector</text>
</a>
</g>
</g>
<!-- Node4&#45;&gt;Node7 -->
<g id="edge6_Node000004_Node000007" class="edge">
<title>Node4&#45;&gt;Node7</title>
<g id="a_edge6_Node000004_Node000007"><a xlink:title=" ">
<path fill="none" stroke="#63b8ff" d="M781.19,-56.77C778.43,-56.22 775.67,-55.7 773,-55.25 635.45,-32.16 469.6,-18.21 400.13,-12.98"/>
<polygon fill="#63b8ff" stroke="#63b8ff" points="400.43,-9.49 390.2,-12.25 399.91,-16.48 400.43,-9.49"/>
</a>
</g>
</g>
<!-- Node8 -->
<g id="Node000008" class="node">
<title>Node8</title>
<g id="a_Node000008"><a xlink:title=" ">
<polygon fill="#e0e0e0" stroke="#999999" points="895.5,-19.25 852.5,-19.25 852.5,0 895.5,0 895.5,-19.25"/>
<text text-anchor="middle" x="874" y="-5.75" font-family="Helvetica,sans-Serif" font-size="10.00">cmath</text>
</a>
</g>
</g>
<!-- Node4&#45;&gt;Node8 -->
<g id="edge7_Node000004_Node000008" class="edge">
<title>Node4&#45;&gt;Node8</title>
<g id="a_edge7_Node000004_Node000008"><a xlink:title=" ">
<path fill="none" stroke="#63b8ff" d="M821.69,-54.84C830.7,-47.22 843.83,-36.12 854.68,-26.95"/>
<polygon fill="#63b8ff" stroke="#63b8ff" points="856.94,-29.63 862.31,-20.5 852.42,-24.28 856.94,-29.63"/>
</a>
</g>
</g>
<!-- Node9 -->
<g id="Node000009" class="node">
<title>Node9</title>
<g id="a_Node000009"><a xlink:title=" ">
<polygon fill="#e0e0e0" stroke="#999999" points="768.88,-19.25 713.12,-19.25 713.12,0 768.88,0 768.88,-19.25"/>
<text text-anchor="middle" x="741" y="-5.75" font-family="Helvetica,sans-Serif" font-size="10.00">algorithm</text>
</a>
</g>
</g>
<!-- Node4&#45;&gt;Node9 -->
<g id="edge8_Node000004_Node000009" class="edge">
<title>Node4&#45;&gt;Node9</title>
<g id="a_edge8_Node000004_Node000009"><a xlink:title=" ">
<path fill="none" stroke="#63b8ff" d="M799.13,-54.84C788.91,-47.07 773.93,-35.67 761.74,-26.4"/>
<polygon fill="#63b8ff" stroke="#63b8ff" points="763.98,-23.71 753.9,-20.44 759.74,-29.28 763.98,-23.71"/>
</a>
</g>
</g>
<!-- Node10&#45;&gt;Node4 -->
<g id="edge11_Node000010_Node000004" class="edge">
<title>Node10&#45;&gt;Node4</title>
<g id="a_edge11_Node000010_Node000004"><a xlink:title=" ">
<path fill="none" stroke="#63b8ff" d="M306.64,-116.65C401.11,-109.81 662.79,-90.2 769.83,-74.75"/>
<polygon fill="#63b8ff" stroke="#63b8ff" points="770.34,-78.22 779.71,-73.26 769.3,-71.3 770.34,-78.22"/>
</a>
</g>
</g>
<!-- Node10&#45;&gt;Node6 -->
<g id="edge12_Node000010_Node000006" class="edge">
<title>Node10&#45;&gt;Node6</title>
<g id="a_edge12_Node000010_Node000006"><a xlink:title=" ">
<path fill="none" stroke="#63b8ff" d="M295.14,-110.06C344.89,-90.57 462.07,-44.68 518.1,-22.73"/>
<polygon fill="#63b8ff" stroke="#63b8ff" points="519.33,-26.01 527.36,-19.1 516.77,-19.49 519.33,-26.01"/>
</a>
</g>
</g>
<!-- Node10&#45;&gt;Node7 -->
<g id="edge13_Node000010_Node000007" class="edge">
<title>Node10&#45;&gt;Node7</title>
<g id="a_edge13_Node000010_Node000007"><a xlink:title=" ">
<path fill="none" stroke="#63b8ff" d="M256.63,-110.07C237.65,-97.73 209.53,-74.92 224,-55.25 249.09,-21.14 300.1,-12.37 333.92,-10.5"/>
<polygon fill="#63b8ff" stroke="#63b8ff" points="333.71,-14.01 343.58,-10.15 333.46,-7.01 333.71,-14.01"/>
</a>
</g>
</g>
<!-- Node11 -->
<g id="Node000011" class="node">
<title>Node11</title>
<g id="a_Node000011"><a xlink:title=" ">
<polygon fill="#e0e0e0" stroke="#999999" points="339.38,-74.5 232.62,-74.5 232.62,-55.25 339.38,-55.25 339.38,-74.5"/>
<text text-anchor="middle" x="286" y="-61" font-family="Helvetica,sans-Serif" font-size="10.00">./tinyxml2/tinyxml2.h</text>
</a>
</g>
</g>
<!-- Node10&#45;&gt;Node11 -->
<g id="edge10_Node000010_Node000011" class="edge">
<title>Node10&#45;&gt;Node11</title>
<g id="a_edge10_Node000010_Node000011"><a xlink:title=" ">
<path fill="none" stroke="#63b8ff" d="M274.31,-110.33C276.06,-103.67 278.54,-94.24 280.77,-85.78"/>
<polygon fill="#63b8ff" stroke="#63b8ff" points="284.1,-86.88 283.25,-76.32 277.33,-85.1 284.1,-86.88"/>
</a>
</g>
</g>
<!-- Node12 -->
<g id="Node000012" class="node">
<title>Node12</title>
<g id="a_Node000012"><a xlink:title=" ">
<polygon fill="#e0e0e0" stroke="#999999" points="177.38,-74.5 142.62,-74.5 142.62,-55.25 177.38,-55.25 177.38,-74.5"/>
<text text-anchor="middle" x="160" y="-61" font-family="Helvetica,sans-Serif" font-size="10.00">map</text>
</a>
</g>
</g>
<!-- Node10&#45;&gt;Node12 -->
<g id="edge14_Node000010_Node000012" class="edge">
<title>Node10&#45;&gt;Node12</title>
<g id="a_edge14_Node000010_Node000012"><a xlink:title=" ">
<path fill="none" stroke="#63b8ff" d="M253,-110.09C235.12,-101.59 208.13,-88.76 187.82,-79.1"/>
<polygon fill="#63b8ff" stroke="#63b8ff" points="189.51,-76.03 178.98,-74.9 186.51,-82.35 189.51,-76.03"/>
</a>
</g>
</g>
<!-- Node13&#45;&gt;Node4 -->
<g id="edge16_Node000013_Node000004" class="edge">
<title>Node13&#45;&gt;Node4</title>
<g id="a_edge16_Node000013_Node000004"><a xlink:title=" ">
<path fill="none" stroke="#63b8ff" d="M238.34,-225.73C314.36,-217.18 488.53,-196.62 513,-185 557.18,-164.02 550.42,-132.7 594,-110.5 663.2,-75.26 691.22,-90.05 770.19,-74.95"/>
<polygon fill="#63b8ff" stroke="#63b8ff" points="770.56,-78.44 779.66,-73.03 769.17,-71.58 770.56,-78.44"/>
</a>
</g>
</g>
<!-- Node13&#45;&gt;Node12 -->
<g id="edge31_Node000013_Node000012" class="edge">
<title>Node13&#45;&gt;Node12</title>
<g id="a_edge31_Node000013_Node000012"><a xlink:title=" ">
<path fill="none" stroke="#63b8ff" d="M200.69,-220.82C194.01,-195.39 174.57,-121.35 165.19,-85.62"/>
<polygon fill="#63b8ff" stroke="#63b8ff" points="168.63,-84.97 162.71,-76.19 161.86,-86.75 168.63,-84.97"/>
</a>
</g>
</g>
<!-- Node14 -->
<g id="Node000014" class="node">
<title>Node14</title>
<g id="a_Node000014"><a xlink:href="ssvalue_8h.html" target="_top" xlink:title=" ">
<polygon fill="white" stroke="#666666" points="504,-185 446,-185 446,-165.75 504,-165.75 504,-185"/>
<text text-anchor="middle" x="475" y="-171.5" font-family="Helvetica,sans-Serif" font-size="10.00">ssvalue.h</text>
</a>
</g>
</g>
<!-- Node13&#45;&gt;Node14 -->
<g id="edge17_Node000013_Node000014" class="edge">
<title>Node13&#45;&gt;Node14</title>
<g id="a_edge17_Node000013_Node000014"><a xlink:title=" ">
<path fill="none" stroke="#63b8ff" d="M238.28,-222.72C288.77,-212.83 381.38,-194.7 434.57,-184.29"/>
<polygon fill="#63b8ff" stroke="#63b8ff" points="434.98,-187.78 444.12,-182.42 433.64,-180.91 434.98,-187.78"/>
</a>
</g>
</g>
<!-- Node13&#45;&gt;Node21 -->
<g id="edge29_Node000013_Node000021" class="edge">
<title>Node13&#45;&gt;Node21</title>
<g id="a_edge29_Node000013_Node000021"><a xlink:title=" ">
<path fill="none" stroke="#63b8ff" d="M187.22,-220.59C173.06,-212.48 152.02,-200.43 135.47,-190.96"/>
<polygon fill="#63b8ff" stroke="#63b8ff" points="137.58,-188.14 127.17,-186.2 134.11,-194.21 137.58,-188.14"/>
</a>
</g>
</g>
<!-- Node22 -->
<g id="Node000022" class="node">
<title>Node22</title>
<g id="a_Node000022"><a xlink:title=" ">
<polygon fill="#e0e0e0" stroke="#999999" points="238.4,-185 209.6,-185 209.6,-165.75 238.4,-165.75 238.4,-185"/>
<text text-anchor="middle" x="224" y="-171.5" font-family="Helvetica,sans-Serif" font-size="10.00">list</text>
</a>
</g>
</g>
<!-- Node13&#45;&gt;Node22 -->
<g id="edge30_Node000013_Node000022" class="edge">
<title>Node13&#45;&gt;Node22</title>
<g id="a_edge30_Node000013_Node000022"><a xlink:title=" ">
<path fill="none" stroke="#63b8ff" d="M206.47,-220.83C209.13,-214.09 212.9,-204.52 216.26,-195.99"/>
<polygon fill="#63b8ff" stroke="#63b8ff" points="219.49,-197.35 219.9,-186.77 212.98,-194.79 219.49,-197.35"/>
</a>
</g>
</g>
<!-- Node14&#45;&gt;Node7 -->
<g id="edge27_Node000014_Node000007" class="edge">
<title>Node14&#45;&gt;Node7</title>
<g id="a_edge27_Node000014_Node000007"><a xlink:title=" ">
<path fill="none" stroke="#63b8ff" d="M445.78,-166.02C427.29,-159.22 404.42,-147.76 391,-129.75 369.21,-100.52 365.9,-56.47 366.05,-30.93"/>
<polygon fill="#63b8ff" stroke="#63b8ff" points="369.54,-31.33 366.31,-21.24 362.55,-31.15 369.54,-31.33"/>
</a>
</g>
</g>
<!-- Node14&#45;&gt;Node10 -->
<g id="edge18_Node000014_Node000010" class="edge">
<title>Node14&#45;&gt;Node10</title>
<g id="a_edge18_Node000014_Node000010"><a xlink:title=" ">
<path fill="none" stroke="#63b8ff" d="M445.92,-166.75C412.39,-157.95 356.87,-143.39 317.59,-133.08"/>
<polygon fill="#63b8ff" stroke="#63b8ff" points="318.49,-129.7 307.93,-130.55 316.71,-136.47 318.49,-129.7"/>
</a>
</g>
</g>
<!-- Node14&#45;&gt;Node12 -->
<g id="edge26_Node000014_Node000012" class="edge">
<title>Node14&#45;&gt;Node12</title>
<g id="a_edge26_Node000014_Node000012"><a xlink:title=" ">
<path fill="none" stroke="#63b8ff" d="M450.19,-165.37C426.39,-156.64 389.53,-142.81 358,-129.75 338.65,-121.74 334.66,-117.69 315,-110.5 271.63,-94.64 219.8,-80.69 188.42,-72.78"/>
<polygon fill="#63b8ff" stroke="#63b8ff" points="189.48,-69.43 178.93,-70.41 187.78,-76.22 189.48,-69.43"/>
</a>
</g>
</g>
<!-- Node15 -->
<g id="Node000015" class="node">
<title>Node15</title>
<g id="a_Node000015"><a xlink:href="ssstring__uty_8h.html" target="_top" xlink:title=" ">
<polygon fill="white" stroke="#666666" points="542,-129.75 466,-129.75 466,-110.5 542,-110.5 542,-129.75"/>
<text text-anchor="middle" x="504" y="-116.25" font-family="Helvetica,sans-Serif" font-size="10.00">ssstring_uty.h</text>
</a>
</g>
</g>
<!-- Node14&#45;&gt;Node15 -->
<g id="edge19_Node000014_Node000015" class="edge">
<title>Node14&#45;&gt;Node15</title>
<g id="a_edge19_Node000014_Node000015"><a xlink:title=" ">
<path fill="none" stroke="#63b8ff" d="M479.79,-165.58C483.54,-158.69 488.91,-148.84 493.63,-140.16"/>
<polygon fill="#63b8ff" stroke="#63b8ff" points="496.67,-141.89 498.38,-131.44 490.53,-138.55 496.67,-141.89"/>
</a>
</g>
</g>
<!-- Node20 -->
<g id="Node000020" class="node">
<title>Node20</title>
<g id="a_Node000020"><a xlink:title=" ">
<polygon fill="#e0e0e0" stroke="#999999" points="448.12,-129.75 399.88,-129.75 399.88,-110.5 448.12,-110.5 448.12,-129.75"/>
<text text-anchor="middle" x="424" y="-116.25" font-family="Helvetica,sans-Serif" font-size="10.00">cassert</text>
</a>
</g>
</g>
<!-- Node14&#45;&gt;Node20 -->
<g id="edge28_Node000014_Node000020" class="edge">
<title>Node14&#45;&gt;Node20</title>
<g id="a_edge28_Node000014_Node000020"><a xlink:title=" ">
<path fill="none" stroke="#63b8ff" d="M466.58,-165.58C459.46,-158.15 449.06,-147.29 440.31,-138.16"/>
<polygon fill="#63b8ff" stroke="#63b8ff" points="443.1,-136 433.65,-131.2 438.04,-140.85 443.1,-136"/>
</a>
</g>
</g>
<!-- Node15&#45;&gt;Node6 -->
<g id="edge20_Node000015_Node000006" class="edge">
<title>Node15&#45;&gt;Node6</title>
<g id="a_edge20_Node000015_Node000006"><a xlink:title=" ">
<path fill="none" stroke="#63b8ff" d="M510.04,-110.23C515.79,-101.45 524.37,-87.5 530,-74.5 536.2,-60.18 541.14,-43.21 544.43,-30.37"/>
<polygon fill="#63b8ff" stroke="#63b8ff" points="547.74,-31.55 546.7,-21.01 540.94,-29.9 547.74,-31.55"/>
</a>
</g>
</g>
<!-- Node15&#45;&gt;Node7 -->
<g id="edge22_Node000015_Node000007" class="edge">
<title>Node15&#45;&gt;Node7</title>
<g id="a_edge22_Node000015_Node000007"><a xlink:title=" ">
<path fill="none" stroke="#63b8ff" d="M492.79,-110.25C469.71,-91.97 416.6,-49.9 387.31,-26.71"/>
<polygon fill="#63b8ff" stroke="#63b8ff" points="389.57,-24.03 379.55,-20.57 385.22,-29.52 389.57,-24.03"/>
</a>
</g>
</g>
<!-- Node16 -->
<g id="Node000016" class="node">
<title>Node16</title>
<g id="a_Node000016"><a xlink:title=" ">
<polygon fill="#e0e0e0" stroke="#999999" points="520.5,-74.5 471.5,-74.5 471.5,-55.25 520.5,-55.25 520.5,-74.5"/>
<text text-anchor="middle" x="496" y="-61" font-family="Helvetica,sans-Serif" font-size="10.00">fstream</text>
</a>
</g>
</g>
<!-- Node15&#45;&gt;Node16 -->
<g id="edge21_Node000015_Node000016" class="edge">
<title>Node15&#45;&gt;Node16</title>
<g id="a_edge21_Node000015_Node000016"><a xlink:title=" ">
<path fill="none" stroke="#63b8ff" d="M502.68,-110.33C501.69,-103.74 500.29,-94.46 499.03,-86.07"/>
<polygon fill="#63b8ff" stroke="#63b8ff" points="502.52,-85.72 497.57,-76.36 495.6,-86.76 502.52,-85.72"/>
</a>
</g>
</g>
<!-- Node17 -->
<g id="Node000017" class="node">
<title>Node17</title>
<g id="a_Node000017"><a xlink:title=" ">
<polygon fill="#e0e0e0" stroke="#999999" points="630.75,-74.5 577.25,-74.5 577.25,-55.25 630.75,-55.25 630.75,-74.5"/>
<text text-anchor="middle" x="604" y="-61" font-family="Helvetica,sans-Serif" font-size="10.00">iostream</text>
</a>
</g>
</g>
<!-- Node15&#45;&gt;Node17 -->
<g id="edge23_Node000015_Node000017" class="edge">
<title>Node15&#45;&gt;Node17</title>
<g id="a_edge23_Node000015_Node000017"><a xlink:title=" ">
<path fill="none" stroke="#63b8ff" d="M520.96,-110.09C536.26,-101.94 559.03,-89.82 576.86,-80.33"/>
<polygon fill="#63b8ff" stroke="#63b8ff" points="578.44,-83.45 585.62,-75.66 575.15,-77.27 578.44,-83.45"/>
</a>
</g>
</g>
<!-- Node18 -->
<g id="Node000018" class="node">
<title>Node18</title>
<g id="a_Node000018"><a xlink:title=" ">
<polygon fill="#e0e0e0" stroke="#999999" points="699.62,-74.5 648.38,-74.5 648.38,-55.25 699.62,-55.25 699.62,-74.5"/>
<text text-anchor="middle" x="674" y="-61" font-family="Helvetica,sans-Serif" font-size="10.00">sstream</text>
</a>
</g>
</g>
<!-- Node15&#45;&gt;Node18 -->
<g id="edge24_Node000015_Node000018" class="edge">
<title>Node15&#45;&gt;Node18</title>
<g id="a_edge24_Node000015_Node000018"><a xlink:title=" ">
<path fill="none" stroke="#63b8ff" d="M532.84,-110.09C561.61,-101.08 605.91,-87.2 637.2,-77.4"/>
<polygon fill="#63b8ff" stroke="#63b8ff" points="638.15,-80.77 646.65,-74.44 636.06,-74.09 638.15,-80.77"/>
</a>
</g>
</g>
<!-- Node19 -->
<g id="Node000019" class="node">
<title>Node19</title>
<g id="a_Node000019"><a xlink:title=" ">
<polygon fill="#e0e0e0" stroke="#999999" points="764,-74.5 718,-74.5 718,-55.25 764,-55.25 764,-74.5"/>
<text text-anchor="middle" x="741" y="-61" font-family="Helvetica,sans-Serif" font-size="10.00">iterator</text>
</a>
</g>
</g>
<!-- Node15&#45;&gt;Node19 -->
<g id="edge25_Node000015_Node000019" class="edge">
<title>Node15&#45;&gt;Node19</title>
<g id="a_edge25_Node000015_Node000019"><a xlink:title=" ">
<path fill="none" stroke="#63b8ff" d="M542.29,-111.37C581.31,-103.35 643.83,-90.13 706.7,-74.97"/>
<polygon fill="#63b8ff" stroke="#63b8ff" points="707.25,-78.44 716.14,-72.68 705.6,-71.64 707.25,-78.44"/>
</a>
</g>
</g>
<!-- Node23&#45;&gt;Node4 -->
<g id="edge33_Node000023_Node000004" class="edge">
<title>Node23&#45;&gt;Node4</title>
<g id="a_edge33_Node000023_Node000004"><a xlink:title=" ">
<path fill="none" stroke="#63b8ff" d="M614.19,-331.1C655.18,-317.11 722,-285.96 722,-231.62 722,-231.62 722,-231.62 722,-174.38 722,-133.54 760.14,-99.67 786.49,-81.15"/>
<polygon fill="#63b8ff" stroke="#63b8ff" points="788.3,-84.15 794.65,-75.66 784.39,-78.34 788.3,-84.15"/>
</a>
</g>
</g>
<!-- Node23&#45;&gt;Node10 -->
<g id="edge34_Node000023_Node000010" class="edge">
<title>Node23&#45;&gt;Node10</title>
<g id="a_edge34_Node000023_Node000010"><a xlink:title=" ">
<path fill="none" stroke="#63b8ff" d="M550.08,-331.07C504.09,-317.22 419.69,-287.32 361,-240.25 325.39,-211.69 296.51,-165.75 282.05,-140.06"/>
<polygon fill="#63b8ff" stroke="#63b8ff" points="285.21,-138.53 277.33,-131.44 279.06,-141.89 285.21,-138.53"/>
</a>
</g>
</g>
<!-- Node23&#45;&gt;Node15 -->
<g id="edge35_Node000023_Node000015" class="edge">
<title>Node23&#45;&gt;Node15</title>
<g id="a_edge35_Node000023_Node000015"><a xlink:title=" ">
<path fill="none" stroke="#63b8ff" d="M583.67,-331.13C584.86,-310.81 586.05,-260.09 572,-221 560.47,-188.91 536.17,-157.31 519.96,-138.51"/>
<polygon fill="#63b8ff" stroke="#63b8ff" points="522.8,-136.43 513.55,-131.27 517.56,-141.08 522.8,-136.43"/>
</a>
</g>
</g>
<!-- Node23&#45;&gt;Node24 -->
<g id="edge36_Node000023_Node000024" class="edge">
<title>Node23&#45;&gt;Node24</title>
<g id="a_edge36_Node000023_Node000024"><a xlink:title=" ">
<path fill="none" stroke="#63b8ff" d="M540.49,-332.21C490.37,-322.88 406.95,-307.35 351.96,-297.11"/>
<polygon fill="#63b8ff" stroke="#63b8ff" points="352.64,-293.67 342.17,-295.28 351.36,-300.56 352.64,-293.67"/>
</a>
</g>
</g>
<!-- Node23&#45;&gt;Node25 -->
<g id="edge40_Node000023_Node000025" class="edge">
<title>Node23&#45;&gt;Node25</title>
<g id="a_edge40_Node000023_Node000025"><a xlink:title=" ">
<path fill="none" stroke="#63b8ff" d="M577.76,-331.25C567.4,-313.68 544.09,-274.16 530.14,-250.52"/>
<polygon fill="#63b8ff" stroke="#63b8ff" points="533.17,-248.77 525.08,-241.93 527.14,-252.32 533.17,-248.77"/>
</a>
</g>
</g>
<!-- Node23&#45;&gt;Node26 -->
<g id="edge43_Node000023_Node000026" class="edge">
<title>Node23&#45;&gt;Node26</title>
<g id="a_edge43_Node000023_Node000026"><a xlink:title=" ">
<path fill="none" stroke="#63b8ff" d="M618.79,-331.09C654.11,-322.18 708.28,-308.51 747.04,-298.73"/>
<polygon fill="#63b8ff" stroke="#63b8ff" points="747.72,-302.16 756.56,-296.32 746.01,-295.38 747.72,-302.16"/>
</a>
</g>
</g>
<!-- Node23&#45;&gt;Node29 -->
<g id="edge57_Node000023_Node000029" class="edge">
<title>Node23&#45;&gt;Node29</title>
<g id="a_edge57_Node000023_Node000029"><a xlink:title=" ">
<path fill="none" stroke="#63b8ff" d="M625.49,-338.06C678.8,-334.33 772.29,-323.97 847,-295.5 890.15,-279.06 895.98,-264.96 935,-240.25 961.23,-223.64 991.24,-204.44 1011.48,-191.47"/>
<polygon fill="#63b8ff" stroke="#63b8ff" points="1013.31,-194.46 1019.84,-186.11 1009.53,-188.57 1013.31,-194.46"/>
</a>
</g>
</g>
<!-- Node23&#45;&gt;Node30 -->
<g id="edge54_Node000023_Node000030" class="edge">
<title>Node23&#45;&gt;Node30</title>
<g id="a_edge54_Node000023_Node000030"><a xlink:title=" ">
<path fill="none" stroke="#63b8ff" d="M568.88,-331.06C539.86,-312.43 473.22,-269.65 437.55,-246.75"/>
<polygon fill="#63b8ff" stroke="#63b8ff" points="439.54,-243.86 429.23,-241.4 435.76,-249.75 439.54,-243.86"/>
</a>
</g>
</g>
<!-- Node31 -->
<g id="Node000031" class="node">
<title>Node31</title>
<g id="a_Node000031"><a xlink:title=" ">
<polygon fill="#e0e0e0" stroke="#999999" points="1064.62,-295.5 1025.38,-295.5 1025.38,-276.25 1064.62,-276.25 1064.62,-295.5"/>
<text text-anchor="middle" x="1045" y="-282" font-family="Helvetica,sans-Serif" font-size="10.00">utility</text>
</a>
</g>
</g>
<!-- Node23&#45;&gt;Node31 -->
<g id="edge58_Node000023_Node000031" class="edge">
<title>Node23&#45;&gt;Node31</title>
<g id="a_edge58_Node000023_Node000031"><a xlink:title=" ">
<path fill="none" stroke="#63b8ff" d="M625.22,-335.26C716.97,-324.68 932.74,-299.81 1013.63,-290.49"/>
<polygon fill="#63b8ff" stroke="#63b8ff" points="1013.95,-293.98 1023.49,-289.35 1013.15,-287.02 1013.95,-293.98"/>
</a>
</g>
</g>
<!-- Node24&#45;&gt;Node4 -->
<g id="edge37_Node000024_Node000004" class="edge">
<title>Node24&#45;&gt;Node4</title>
<g id="a_edge37_Node000024_Node000004"><a xlink:title=" ">
<path fill="none" stroke="#63b8ff" d="M303.3,-275.79C313.61,-261.67 335.53,-234.63 361,-221 432.54,-182.71 464.34,-214.32 540,-185 599.95,-161.77 605.24,-136.59 664,-110.5 698.69,-95.1 740.24,-83.03 770.3,-75.35"/>
<polygon fill="#63b8ff" stroke="#63b8ff" points="770.9,-78.8 779.76,-72.99 769.21,-72.01 770.9,-78.8"/>
</a>
</g>
</g>
<!-- Node24&#45;&gt;Node10 -->
<g id="edge38_Node000024_Node000010" class="edge">
<title>Node24&#45;&gt;Node10</title>
<g id="a_edge38_Node000024_Node000010"><a xlink:title=" ">
<path fill="none" stroke="#63b8ff" d="M295.59,-275.99C294.17,-266.98 291.91,-252.65 290,-240.25 284.66,-205.54 278.58,-165.12 275.03,-141.4"/>
<polygon fill="#63b8ff" stroke="#63b8ff" points="278.5,-140.96 273.56,-131.59 271.58,-142 278.5,-140.96"/>
</a>
</g>
</g>
<!-- Node24&#45;&gt;Node13 -->
<g id="edge39_Node000024_Node000013" class="edge">
<title>Node24&#45;&gt;Node13</title>
<g id="a_edge39_Node000024_Node000013"><a xlink:title=" ">
<path fill="none" stroke="#63b8ff" d="M281.05,-275.84C266.74,-267.73 245.47,-255.68 228.75,-246.21"/>
<polygon fill="#63b8ff" stroke="#63b8ff" points="230.77,-243.33 220.34,-241.45 227.32,-249.42 230.77,-243.33"/>
</a>
</g>
</g>
<!-- Node25&#45;&gt;Node4 -->
<g id="edge41_Node000025_Node000004" class="edge">
<title>Node25&#45;&gt;Node4</title>
<g id="a_edge41_Node000025_Node000004"><a xlink:title=" ">
<path fill="none" stroke="#63b8ff" d="M562.99,-223.7C592.79,-217.88 631.74,-206.59 660,-185 691.3,-161.08 677.97,-135.98 708,-110.5 726.05,-95.18 750.17,-84.35 770.53,-77.2"/>
<polygon fill="#63b8ff" stroke="#63b8ff" points="771.56,-80.54 779.96,-74.08 769.36,-73.9 771.56,-80.54"/>
</a>
</g>
</g>
<!-- Node25&#45;&gt;Node10 -->
<g id="edge42_Node000025_Node000010" class="edge">
<title>Node25&#45;&gt;Node10</title>
<g id="a_edge42_Node000025_Node000010"><a xlink:title=" ">
<path fill="none" stroke="#63b8ff" d="M494.09,-220.62C470.64,-211.98 434.63,-198.33 404,-185 367.27,-169.02 325.84,-148.56 299.35,-135.16"/>
<polygon fill="#63b8ff" stroke="#63b8ff" points="301.15,-132.15 290.65,-130.74 297.98,-138.39 301.15,-132.15"/>
</a>
</g>
</g>
<!-- Node26&#45;&gt;Node4 -->
<g id="edge44_Node000026_Node000004" class="edge">
<title>Node26&#45;&gt;Node4</title>
<g id="a_edge44_Node000026_Node000004"><a xlink:title=" ">
<path fill="none" stroke="#63b8ff" d="M811.31,-275.85C825.4,-267.88 845.14,-255.21 859,-240.25 878.28,-219.43 883.64,-212.4 891,-185 899.72,-152.54 897.18,-138.1 878,-110.5 869.07,-97.64 855.12,-87.49 842.26,-80.14"/>
<polygon fill="#63b8ff" stroke="#63b8ff" points="844.1,-77.15 833.63,-75.56 840.82,-83.34 844.1,-77.15"/>
</a>
</g>
</g>
<!-- Node26&#45;&gt;Node10 -->
<g id="edge45_Node000026_Node000010" class="edge">
<title>Node26&#45;&gt;Node10</title>
<g id="a_edge45_Node000026_Node000010"><a xlink:title=" ">
<path fill="none" stroke="#63b8ff" d="M763.17,-275.8C720.35,-263.24 640.41,-239.96 572,-221 512.16,-204.41 495.23,-206.56 437,-185 418.5,-178.15 415.2,-173.36 397,-165.75 368.61,-153.89 335.82,-142.26 310.95,-133.85"/>
<polygon fill="#63b8ff" stroke="#63b8ff" points="312.15,-130.56 301.56,-130.7 309.93,-137.2 312.15,-130.56"/>
</a>
</g>
</g>
<!-- Node27 -->
<g id="Node000027" class="node">
<title>Node27</title>
<g id="a_Node000027"><a xlink:href="_ss_effect_behavior_8h.html" target="_top" xlink:title=" ">
<polygon fill="white" stroke="#666666" points="850,-240.25 750,-240.25 750,-221 850,-221 850,-240.25"/>
<text text-anchor="middle" x="800" y="-226.75" font-family="Helvetica,sans-Serif" font-size="10.00">SsEffectBehavior.h</text>
</a>
</g>
</g>
<!-- Node26&#45;&gt;Node27 -->
<g id="edge46_Node000026_Node000027" class="edge">
<title>Node26&#45;&gt;Node27</title>
<g id="a_edge46_Node000026_Node000027"><a xlink:title=" ">
<path fill="none" stroke="#63b8ff" d="M794.99,-276.08C795.73,-269.49 796.78,-260.21 797.72,-251.82"/>
<polygon fill="#63b8ff" stroke="#63b8ff" points="801.18,-252.44 798.82,-242.11 794.22,-251.66 801.18,-252.44"/>
</a>
</g>
</g>
<!-- Node27&#45;&gt;Node4 -->
<g id="edge51_Node000027_Node000004" class="edge">
<title>Node27&#45;&gt;Node4</title>
<g id="a_edge51_Node000027_Node000004"><a xlink:title=" ">
<path fill="none" stroke="#63b8ff" d="M828.78,-220.6C845.48,-213.71 865.11,-202.39 875,-185 895.66,-148.67 856.64,-105.27 830.95,-82.19"/>
<polygon fill="#63b8ff" stroke="#63b8ff" points="833.54,-79.8 823.69,-75.91 828.96,-85.1 833.54,-79.8"/>
</a>
</g>
</g>
<!-- Node27&#45;&gt;Node14 -->
<g id="edge52_Node000027_Node000014" class="edge">
<title>Node27&#45;&gt;Node14</title>
<g id="a_edge52_Node000027_Node000014"><a xlink:title=" ">
<path fill="none" stroke="#63b8ff" d="M749.58,-221.36C685.06,-210.79 574.58,-192.69 515.33,-182.98"/>
<polygon fill="#63b8ff" stroke="#63b8ff" points="516.13,-179.57 505.69,-181.4 514.99,-186.47 516.13,-179.57"/>
</a>
</g>
</g>
<!-- Node28 -->
<g id="Node000028" class="node">
<title>Node28</title>
<g id="a_Node000028"><a xlink:href="_ss_effect_element_8h.html" target="_top" xlink:title=" ">
<polygon fill="white" stroke="#666666" points="848.25,-185 749.75,-185 749.75,-165.75 848.25,-165.75 848.25,-185"/>
<text text-anchor="middle" x="799" y="-171.5" font-family="Helvetica,sans-Serif" font-size="10.00">SsEffectElement.h</text>
</a>
</g>
</g>
<!-- Node27&#45;&gt;Node28 -->
<g id="edge47_Node000027_Node000028" class="edge">
<title>Node27&#45;&gt;Node28</title>
<g id="a_edge47_Node000027_Node000028"><a xlink:title=" ">
<path fill="none" stroke="#63b8ff" d="M799.83,-220.83C799.71,-214.32 799.54,-205.17 799.38,-196.87"/>
<polygon fill="#63b8ff" stroke="#63b8ff" points="802.88,-196.8 799.2,-186.87 795.89,-196.94 802.88,-196.8"/>
</a>
</g>
</g>
<!-- Node27&#45;&gt;Node29 -->
<g id="edge53_Node000027_Node000029" class="edge">
<title>Node27&#45;&gt;Node29</title>
<g id="a_edge53_Node000027_Node000029"><a xlink:title=" ">
<path fill="none" stroke="#63b8ff" d="M840.13,-220.53C884.32,-210.52 954.79,-194.55 997.78,-184.81"/>
<polygon fill="#63b8ff" stroke="#63b8ff" points="998.42,-188.25 1007.4,-182.63 996.87,-181.43 998.42,-188.25"/>
</a>
</g>
</g>
<!-- Node28&#45;&gt;Node4 -->
<g id="edge48_Node000028_Node000004" class="edge">
<title>Node28&#45;&gt;Node4</title>
<g id="a_edge48_Node000028_Node000004"><a xlink:title=" ">
<path fill="none" stroke="#63b8ff" d="M799.98,-165.5C801.89,-148.25 806.14,-109.83 808.77,-86.06"/>
<polygon fill="#63b8ff" stroke="#63b8ff" points="812.22,-86.71 809.84,-76.38 805.26,-85.94 812.22,-86.71"/>
</a>
</g>
</g>
<!-- Node28&#45;&gt;Node10 -->
<g id="edge49_Node000028_Node000010" class="edge">
<title>Node28&#45;&gt;Node10</title>
<g id="a_edge49_Node000028_Node000010"><a xlink:title=" ">
<path fill="none" stroke="#63b8ff" d="M749.42,-169.37C647.61,-159.08 416.28,-135.7 317.78,-125.75"/>
<polygon fill="#63b8ff" stroke="#63b8ff" points="318.25,-122.28 307.95,-124.76 317.55,-129.25 318.25,-122.28"/>
</a>
</g>
</g>
<!-- Node28&#45;&gt;Node28 -->
<g id="edge50_Node000028_Node000028" class="edge">
<title>Node28&#45;&gt;Node28</title>
<g id="a_edge50_Node000028_Node000028"><a xlink:title=" ">
<path fill="none" stroke="#63b8ff" d="M834.29,-185.48C851.27,-186.73 866.25,-183.36 866.25,-175.38 866.25,-169.26 857.47,-165.85 845.73,-165.15"/>
<polygon fill="#63b8ff" stroke="#63b8ff" points="845.77,-161.65 835.8,-165.25 845.84,-168.65 845.77,-161.65"/>
</a>
</g>
</g>
<!-- Node30&#45;&gt;Node4 -->
<g id="edge55_Node000030_Node000004" class="edge">
<title>Node30&#45;&gt;Node4</title>
<g id="a_edge55_Node000030_Node000004"><a xlink:title=" ">
<path fill="none" stroke="#63b8ff" d="M457.65,-221.76C514.39,-211.32 607.93,-193.22 622,-185 660.2,-162.69 651.41,-135.37 688,-110.5 701.8,-101.12 740.29,-87.8 770.57,-78.16"/>
<polygon fill="#63b8ff" stroke="#63b8ff" points="771.37,-81.58 779.86,-75.24 769.27,-74.9 771.37,-81.58"/>
</a>
</g>
</g>
<!-- Node30&#45;&gt;Node10 -->
<g id="edge56_Node000030_Node000010" class="edge">
<title>Node30&#45;&gt;Node10</title>
<g id="a_edge56_Node000030_Node000010"><a xlink:title=" ">
<path fill="none" stroke="#63b8ff" d="M402.38,-220.75C378.35,-202.39 322.93,-160.04 292.65,-136.91"/>
<polygon fill="#63b8ff" stroke="#63b8ff" points="295.05,-134.34 284.98,-131.05 290.8,-139.9 295.05,-134.34"/>
</a>
</g>
</g>
<!-- Node32&#45;&gt;Node7 -->
<g id="edge65_Node000032_Node000007" class="edge">
<title>Node32&#45;&gt;Node7</title>
<g id="a_edge65_Node000032_Node000007"><a xlink:title=" ">
<path fill="none" stroke="#63b8ff" d="M99.1,-386.29C62.49,-371.59 0,-338.89 0,-286.88 0,-286.88 0,-286.88 0,-119.12 0,-49.89 243.26,-21.47 333.68,-13.3"/>
<polygon fill="#63b8ff" stroke="#63b8ff" points="333.98,-16.79 343.63,-12.43 333.37,-9.81 333.98,-16.79"/>
</a>
</g>
</g>
<!-- Node33&#45;&gt;Node4 -->
<g id="edge67_Node000033_Node000004" class="edge">
<title>Node33&#45;&gt;Node4</title>
<g id="a_edge67_Node000033_Node000004"><a xlink:title=" ">
<path fill="none" stroke="#63b8ff" d="M1159.9,-220.75C1132.01,-198.86 1056.02,-141.79 984,-110.5 940.62,-91.65 887.53,-79.42 851.7,-72.62"/>
<polygon fill="#63b8ff" stroke="#63b8ff" points="852.66,-69.24 842.19,-70.87 851.39,-76.12 852.66,-69.24"/>
</a>
</g>
</g>
<!-- Node33&#45;&gt;Node29 -->
<g id="edge68_Node000033_Node000029" class="edge">
<title>Node33&#45;&gt;Node29</title>
<g id="a_edge68_Node000033_Node000029"><a xlink:title=" ">
<path fill="none" stroke="#63b8ff" d="M1147.93,-220.59C1126.24,-212.1 1093.52,-199.29 1068.87,-189.64"/>
<polygon fill="#63b8ff" stroke="#63b8ff" points="1070.18,-186.39 1059.59,-186 1067.63,-192.91 1070.18,-186.39"/>
</a>
</g>
</g>
<!-- Node34&#45;&gt;Node29 -->
<g id="edge73_Node000034_Node000029" class="edge">
<title>Node34&#45;&gt;Node29</title>
<g id="a_edge73_Node000034_Node000029"><a xlink:title=" ">
<path fill="none" stroke="#63b8ff" d="M1089,-331.36C1086.09,-318.96 1080.35,-295.66 1074,-276.25 1064.71,-247.84 1051.73,-215.77 1043.34,-195.82"/>
<polygon fill="#63b8ff" stroke="#63b8ff" points="1046.61,-194.57 1039.49,-186.73 1040.17,-197.31 1046.61,-194.57"/>
</a>
</g>
</g>
<!-- Node34&#45;&gt;Node31 -->
<g id="edge74_Node000034_Node000031" class="edge">
<title>Node34&#45;&gt;Node31</title>
<g id="a_edge74_Node000034_Node000031"><a xlink:title=" ">
<path fill="none" stroke="#63b8ff" d="M1083.4,-331.33C1077.12,-324.05 1067.99,-313.48 1060.2,-304.48"/>
<polygon fill="#63b8ff" stroke="#63b8ff" points="1062.94,-302.28 1053.75,-297 1057.64,-306.86 1062.94,-302.28"/>
</a>
</g>
</g>
<!-- Node35 -->
<g id="Node000035" class="node">
<title>Node35</title>
<g id="a_Node000035"><a xlink:href="xorshift32_8h.html" target="_top" xlink:title=" ">
<polygon fill="white" stroke="#666666" points="1188.5,-295.5 1121.5,-295.5 1121.5,-276.25 1188.5,-276.25 1188.5,-295.5"/>
<text text-anchor="middle" x="1155" y="-282" font-family="Helvetica,sans-Serif" font-size="10.00">xorshift32.h</text>
</a>
</g>
</g>
<!-- Node34&#45;&gt;Node35 -->
<g id="edge72_Node000034_Node000035" class="edge">
<title>Node34&#45;&gt;Node35</title>
<g id="a_edge72_Node000034_Node000035"><a xlink:title=" ">
<path fill="none" stroke="#63b8ff" d="M1101.86,-331.09C1111.11,-323.4 1124.62,-312.15 1135.71,-302.93"/>
<polygon fill="#63b8ff" stroke="#63b8ff" points="1137.69,-305.83 1143.14,-296.74 1133.21,-300.45 1137.69,-305.83"/>
</a>
</g>
</g>
</g>
</svg>
