<?xml version="1.0" encoding="UTF-8" standalone="no"?>
<!DOCTYPE svg PUBLIC "-//W3C//DTD SVG 1.1//EN"
 "http://www.w3.org/Graphics/SVG/1.1/DTD/svg11.dtd">
<!-- Generated by graphviz version 12.2.1 (20241206.2353)
 -->
<!-- Title: Common/Animator/ssplayer_types.h Pages: 1 -->
<svg width="1368pt" height="536pt"
 viewBox="0.00 0.00 1367.50 535.75" xmlns="http://www.w3.org/2000/svg" xmlns:xlink="http://www.w3.org/1999/xlink">
<g id="graph0" class="graph" transform="scale(1 1) rotate(0) translate(4 531.75)">
<title>Common/Animator/ssplayer_types.h</title>
<!-- Node1 -->
<g id="Node000001" class="node">
<title>Node1</title>
<g id="a_Node000001"><a xlink:title=" ">
<polygon fill="#999999" stroke="#666666" points="427.25,-527.75 289.75,-527.75 289.75,-497.25 427.25,-497.25 427.25,-527.75"/>
<text text-anchor="start" x="297.75" y="-514.25" font-family="Helvetica,sans-Serif" font-size="10.00">Common/Animator/ssplayer</text>
<text text-anchor="middle" x="358.5" y="-503" font-family="Helvetica,sans-Serif" font-size="10.00">_types.h</text>
</a>
</g>
</g>
<!-- Node2 -->
<g id="Node000002" class="node">
<title>Node2</title>
<g id="a_Node000002"><a xlink:href="ssloader_8h.html" target="_top" xlink:title=" ">
<polygon fill="white" stroke="#666666" points="648.25,-406 546.75,-406 546.75,-386.75 648.25,-386.75 648.25,-406"/>
<text text-anchor="middle" x="597.5" y="-392.5" font-family="Helvetica,sans-Serif" font-size="10.00">../Loader/ssloader.h</text>
</a>
</g>
</g>
<!-- Node1&#45;&gt;Node2 -->
<g id="edge1_Node000001_Node000002" class="edge">
<title>Node1&#45;&gt;Node2</title>
<g id="a_edge1_Node000001_Node000002"><a xlink:title=" ">
<path fill="none" stroke="#63b8ff" d="M389.26,-496.81C435.61,-474.68 522.78,-433.05 568.24,-411.35"/>
<polygon fill="#63b8ff" stroke="#63b8ff" points="569.71,-414.53 577.22,-407.06 566.69,-408.21 569.71,-414.53"/>
</a>
</g>
</g>
<!-- Node31 -->
<g id="Node000031" class="node">
<title>Node31</title>
<g id="a_Node000031"><a xlink:href="ss_helper_8h.html" target="_top" xlink:title=" ">
<polygon fill="white" stroke="#666666" points="370,-461.25 267,-461.25 267,-442 370,-442 370,-461.25"/>
<text text-anchor="middle" x="318.5" y="-447.75" font-family="Helvetica,sans-Serif" font-size="10.00">../Helper/ssHelper.h</text>
</a>
</g>
</g>
<!-- Node1&#45;&gt;Node31 -->
<g id="edge63_Node000001_Node000031" class="edge">
<title>Node1&#45;&gt;Node31</title>
<g id="a_edge63_Node000001_Node000031"><a xlink:title=" ">
<path fill="none" stroke="#63b8ff" d="M348.61,-496.95C343.28,-489.1 336.65,-479.35 330.97,-470.99"/>
<polygon fill="#63b8ff" stroke="#63b8ff" points="334.03,-469.26 325.52,-462.95 328.24,-473.19 334.03,-469.26"/>
</a>
</g>
</g>
<!-- Node3 -->
<g id="Node000003" class="node">
<title>Node3</title>
<g id="a_Node000003"><a xlink:href="sstypes_8h.html" target="_top" xlink:title=" ">
<polygon fill="white" stroke="#666666" points="988.88,-74.5 930.12,-74.5 930.12,-55.25 988.88,-55.25 988.88,-74.5"/>
<text text-anchor="middle" x="959.5" y="-61" font-family="Helvetica,sans-Serif" font-size="10.00">sstypes.h</text>
</a>
</g>
</g>
<!-- Node2&#45;&gt;Node3 -->
<g id="edge2_Node000002_Node000003" class="edge">
<title>Node2&#45;&gt;Node3</title>
<g id="a_edge2_Node000002_Node000003"><a xlink:title=" ">
<path fill="none" stroke="#63b8ff" d="M648.7,-393.1C813.8,-385.11 1321.5,-354.99 1321.5,-286.88 1321.5,-286.88 1321.5,-286.88 1321.5,-174.38 1321.5,-137.77 1301.35,-128.54 1269.5,-110.5 1224.25,-84.88 1073.57,-72.63 1000.26,-68.08"/>
<polygon fill="#63b8ff" stroke="#63b8ff" points="1000.89,-64.61 990.7,-67.5 1000.47,-71.6 1000.89,-64.61"/>
</a>
</g>
</g>
<!-- Node9 -->
<g id="Node000009" class="node">
<title>Node9</title>
<g id="a_Node000009"><a xlink:href="ssarchiver_8h.html" target="_top" xlink:title=" ">
<polygon fill="white" stroke="#666666" points="609.75,-129.75 541.25,-129.75 541.25,-110.5 609.75,-110.5 609.75,-129.75"/>
<text text-anchor="middle" x="575.5" y="-116.25" font-family="Helvetica,sans-Serif" font-size="10.00">ssarchiver.h</text>
</a>
</g>
</g>
<!-- Node2&#45;&gt;Node9 -->
<g id="edge8_Node000002_Node000009" class="edge">
<title>Node2&#45;&gt;Node9</title>
<g id="a_edge8_Node000002_Node000009"><a xlink:title=" ">
<path fill="none" stroke="#63b8ff" d="M546.38,-392.67C461.76,-384.93 298.4,-355.1 263.5,-240.25 246.97,-185.85 314.09,-185.24 367.5,-165.75 421.53,-146.04 486.79,-133.8 529.63,-127.23"/>
<polygon fill="#63b8ff" stroke="#63b8ff" points="529.95,-130.72 539.32,-125.79 528.92,-123.8 529.95,-130.72"/>
</a>
</g>
</g>
<!-- Node12 -->
<g id="Node000012" class="node">
<title>Node12</title>
<g id="a_Node000012"><a xlink:href="ssattribute_8h.html" target="_top" xlink:title=" ">
<polygon fill="white" stroke="#666666" points="1111.5,-240.25 1041.5,-240.25 1041.5,-221 1111.5,-221 1111.5,-240.25"/>
<text text-anchor="middle" x="1076.5" y="-226.75" font-family="Helvetica,sans-Serif" font-size="10.00">ssattribute.h</text>
</a>
</g>
</g>
<!-- Node2&#45;&gt;Node12 -->
<g id="edge14_Node000002_Node000012" class="edge">
<title>Node2&#45;&gt;Node12</title>
<g id="a_edge14_Node000002_Node000012"><a xlink:title=" ">
<path fill="none" stroke="#63b8ff" d="M623.94,-386.34C704.32,-358.86 945.99,-276.24 1039.24,-244.36"/>
<polygon fill="#63b8ff" stroke="#63b8ff" points="1040.09,-247.77 1048.42,-241.22 1037.83,-241.15 1040.09,-247.77"/>
</a>
</g>
</g>
<!-- Node20 -->
<g id="Node000020" class="node">
<title>Node20</title>
<g id="a_Node000020"><a xlink:href="ss_interpolation_8h.html" target="_top" xlink:title=" ">
<polygon fill="white" stroke="#666666" points="1255.5,-185 1167.5,-185 1167.5,-165.75 1255.5,-165.75 1255.5,-185"/>
<text text-anchor="middle" x="1211.5" y="-171.5" font-family="Helvetica,sans-Serif" font-size="10.00">ssInterpolation.h</text>
</a>
</g>
</g>
<!-- Node2&#45;&gt;Node20 -->
<g id="edge62_Node000002_Node000020" class="edge">
<title>Node2&#45;&gt;Node20</title>
<g id="a_edge62_Node000002_Node000020"><a xlink:title=" ">
<path fill="none" stroke="#63b8ff" d="M634.04,-386.3C669.11,-377.51 723.54,-363.65 770.5,-350.75 939.69,-304.28 999.19,-330.76 1149.5,-240.25 1169.29,-228.33 1187.11,-208.55 1198.51,-194.15"/>
<polygon fill="#63b8ff" stroke="#63b8ff" points="1201.13,-196.49 1204.41,-186.41 1195.57,-192.25 1201.13,-196.49"/>
</a>
</g>
</g>
<!-- Node22 -->
<g id="Node000022" class="node">
<title>Node22</title>
<g id="a_Node000022"><a xlink:href="ssloader__sspj_8h.html" target="_top" xlink:title=" ">
<polygon fill="white" stroke="#666666" points="561.62,-350.75 477.38,-350.75 477.38,-331.5 561.62,-331.5 561.62,-350.75"/>
<text text-anchor="middle" x="519.5" y="-337.25" font-family="Helvetica,sans-Serif" font-size="10.00">ssloader_sspj.h</text>
</a>
</g>
</g>
<!-- Node2&#45;&gt;Node22 -->
<g id="edge31_Node000002_Node000022" class="edge">
<title>Node2&#45;&gt;Node22</title>
<g id="a_edge31_Node000002_Node000022"><a xlink:title=" ">
<path fill="none" stroke="#63b8ff" d="M584.27,-386.34C572.73,-378.46 555.73,-366.86 542.05,-357.52"/>
<polygon fill="#63b8ff" stroke="#63b8ff" points="544.28,-354.8 534.05,-352.06 540.33,-360.58 544.28,-354.8"/>
</a>
</g>
</g>
<!-- Node23 -->
<g id="Node000023" class="node">
<title>Node23</title>
<g id="a_Node000023"><a xlink:href="ssloader__ssae_8h.html" target="_top" xlink:title=" ">
<polygon fill="white" stroke="#666666" points="818.12,-295.5 730.88,-295.5 730.88,-276.25 818.12,-276.25 818.12,-295.5"/>
<text text-anchor="middle" x="774.5" y="-282" font-family="Helvetica,sans-Serif" font-size="10.00">ssloader_ssae.h</text>
</a>
</g>
</g>
<!-- Node2&#45;&gt;Node23 -->
<g id="edge58_Node000002_Node000023" class="edge">
<title>Node2&#45;&gt;Node23</title>
<g id="a_edge58_Node000002_Node000023"><a xlink:title=" ">
<path fill="none" stroke="#63b8ff" d="M612.29,-386.31C642.82,-367.6 713.08,-324.53 750.31,-301.7"/>
<polygon fill="#63b8ff" stroke="#63b8ff" points="751.89,-304.84 758.59,-296.63 748.23,-298.87 751.89,-304.84"/>
</a>
</g>
</g>
<!-- Node24 -->
<g id="Node000024" class="node">
<title>Node24</title>
<g id="a_Node000024"><a xlink:href="ssloader__ssce_8h.html" target="_top" xlink:title=" ">
<polygon fill="white" stroke="#666666" points="566.12,-240.25 478.88,-240.25 478.88,-221 566.12,-221 566.12,-240.25"/>
<text text-anchor="middle" x="522.5" y="-226.75" font-family="Helvetica,sans-Serif" font-size="10.00">ssloader_ssce.h</text>
</a>
</g>
</g>
<!-- Node2&#45;&gt;Node24 -->
<g id="edge59_Node000002_Node000024" class="edge">
<title>Node2&#45;&gt;Node24</title>
<g id="a_edge59_Node000002_Node000024"><a xlink:title=" ">
<path fill="none" stroke="#63b8ff" d="M595.3,-386.33C590.13,-365.91 576.06,-314.99 555.5,-276.25 550.55,-266.91 543.78,-257.39 537.66,-249.54"/>
<polygon fill="#63b8ff" stroke="#63b8ff" points="540.42,-247.39 531.4,-241.83 534.99,-251.8 540.42,-247.39"/>
</a>
</g>
</g>
<!-- Node25 -->
<g id="Node000025" class="node">
<title>Node25</title>
<g id="a_Node000025"><a xlink:href="ssloader__ssee_8h.html" target="_top" xlink:title=" ">
<polygon fill="white" stroke="#666666" points="713.12,-295.5 625.88,-295.5 625.88,-276.25 713.12,-276.25 713.12,-295.5"/>
<text text-anchor="middle" x="669.5" y="-282" font-family="Helvetica,sans-Serif" font-size="10.00">ssloader_ssee.h</text>
</a>
</g>
</g>
<!-- Node2&#45;&gt;Node25 -->
<g id="edge60_Node000002_Node000025" class="edge">
<title>Node2&#45;&gt;Node25</title>
<g id="a_edge60_Node000002_Node000025"><a xlink:title=" ">
<path fill="none" stroke="#63b8ff" d="M603.39,-386.5C615.1,-368.85 641.51,-329.05 657.18,-305.45"/>
<polygon fill="#63b8ff" stroke="#63b8ff" points="660.08,-307.41 662.69,-297.14 654.24,-303.53 660.08,-307.41"/>
</a>
</g>
</g>
<!-- Node29 -->
<g id="Node000029" class="node">
<title>Node29</title>
<g id="a_Node000029"><a xlink:href="ssloader__ssqe_8h.html" target="_top" xlink:title=" ">
<polygon fill="white" stroke="#666666" points="397.12,-295.5 309.88,-295.5 309.88,-276.25 397.12,-276.25 397.12,-295.5"/>
<text text-anchor="middle" x="353.5" y="-282" font-family="Helvetica,sans-Serif" font-size="10.00">ssloader_ssqe.h</text>
</a>
</g>
</g>
<!-- Node2&#45;&gt;Node29 -->
<g id="edge61_Node000002_Node000029" class="edge">
<title>Node2&#45;&gt;Node29</title>
<g id="a_edge61_Node000002_Node000029"><a xlink:title=" ">
<path fill="none" stroke="#63b8ff" d="M566.42,-386.3C539.93,-378.16 501.07,-365.29 468.5,-350.75 435.95,-336.21 400.34,-315.66 377.5,-301.82"/>
<polygon fill="#63b8ff" stroke="#63b8ff" points="379.61,-299.01 369.25,-296.78 375.96,-304.98 379.61,-299.01"/>
</a>
</g>
</g>
<!-- Node4 -->
<g id="Node000004" class="node">
<title>Node4</title>
<g id="a_Node000004"><a xlink:title=" ">
<polygon fill="#e0e0e0" stroke="#999999" points="983.25,-19.25 935.75,-19.25 935.75,0 983.25,0 983.25,-19.25"/>
<text text-anchor="middle" x="959.5" y="-5.75" font-family="Helvetica,sans-Serif" font-size="10.00">stdlib.h</text>
</a>
</g>
</g>
<!-- Node3&#45;&gt;Node4 -->
<g id="edge3_Node000003_Node000004" class="edge">
<title>Node3&#45;&gt;Node4</title>
<g id="a_edge3_Node000003_Node000004"><a xlink:title=" ">
<path fill="none" stroke="#63b8ff" d="M959.5,-55.08C959.5,-48.57 959.5,-39.42 959.5,-31.12"/>
<polygon fill="#63b8ff" stroke="#63b8ff" points="963,-31.12 959.5,-21.12 956,-31.12 963,-31.12"/>
</a>
</g>
</g>
<!-- Node5 -->
<g id="Node000005" class="node">
<title>Node5</title>
<g id="a_Node000005"><a xlink:title=" ">
<polygon fill="#e0e0e0" stroke="#999999" points="264.5,-19.25 224.5,-19.25 224.5,0 264.5,0 264.5,-19.25"/>
<text text-anchor="middle" x="244.5" y="-5.75" font-family="Helvetica,sans-Serif" font-size="10.00">string</text>
</a>
</g>
</g>
<!-- Node3&#45;&gt;Node5 -->
<g id="edge4_Node000003_Node000005" class="edge">
<title>Node3&#45;&gt;Node5</title>
<g id="a_edge4_Node000003_Node000005"><a xlink:title=" ">
<path fill="none" stroke="#63b8ff" d="M929.69,-61.65C813.94,-53.03 394.87,-21.82 276.08,-12.98"/>
<polygon fill="#63b8ff" stroke="#63b8ff" points="276.67,-9.51 266.44,-12.26 276.15,-16.49 276.67,-9.51"/>
</a>
</g>
</g>
<!-- Node6 -->
<g id="Node000006" class="node">
<title>Node6</title>
<g id="a_Node000006"><a xlink:title=" ">
<polygon fill="#e0e0e0" stroke="#999999" points="621,-19.25 578,-19.25 578,0 621,0 621,-19.25"/>
<text text-anchor="middle" x="599.5" y="-5.75" font-family="Helvetica,sans-Serif" font-size="10.00">vector</text>
</a>
</g>
</g>
<!-- Node3&#45;&gt;Node6 -->
<g id="edge5_Node000003_Node000006" class="edge">
<title>Node3&#45;&gt;Node6</title>
<g id="a_edge5_Node000003_Node000006"><a xlink:title=" ">
<path fill="none" stroke="#63b8ff" d="M929.73,-59.47C863.01,-49.6 701.89,-25.77 632.35,-15.48"/>
<polygon fill="#63b8ff" stroke="#63b8ff" points="633.14,-12.06 622.74,-14.06 632.12,-18.99 633.14,-12.06"/>
</a>
</g>
</g>
<!-- Node7 -->
<g id="Node000007" class="node">
<title>Node7</title>
<g id="a_Node000007"><a xlink:title=" ">
<polygon fill="#e0e0e0" stroke="#999999" points="1044,-19.25 1001,-19.25 1001,0 1044,0 1044,-19.25"/>
<text text-anchor="middle" x="1022.5" y="-5.75" font-family="Helvetica,sans-Serif" font-size="10.00">cmath</text>
</a>
</g>
</g>
<!-- Node3&#45;&gt;Node7 -->
<g id="edge6_Node000003_Node000007" class="edge">
<title>Node3&#45;&gt;Node7</title>
<g id="a_edge6_Node000003_Node000007"><a xlink:title=" ">
<path fill="none" stroke="#63b8ff" d="M970.19,-54.84C979.2,-47.22 992.33,-36.12 1003.18,-26.95"/>
<polygon fill="#63b8ff" stroke="#63b8ff" points="1005.44,-29.63 1010.81,-20.5 1000.92,-24.28 1005.44,-29.63"/>
</a>
</g>
</g>
<!-- Node8 -->
<g id="Node000008" class="node">
<title>Node8</title>
<g id="a_Node000008"><a xlink:title=" ">
<polygon fill="#e0e0e0" stroke="#999999" points="917.38,-19.25 861.62,-19.25 861.62,0 917.38,0 917.38,-19.25"/>
<text text-anchor="middle" x="889.5" y="-5.75" font-family="Helvetica,sans-Serif" font-size="10.00">algorithm</text>
</a>
</g>
</g>
<!-- Node3&#45;&gt;Node8 -->
<g id="edge7_Node000003_Node000008" class="edge">
<title>Node3&#45;&gt;Node8</title>
<g id="a_edge7_Node000003_Node000008"><a xlink:title=" ">
<path fill="none" stroke="#63b8ff" d="M947.63,-54.84C937.41,-47.07 922.43,-35.67 910.24,-26.4"/>
<polygon fill="#63b8ff" stroke="#63b8ff" points="912.48,-23.71 902.4,-20.44 908.24,-29.28 912.48,-23.71"/>
</a>
</g>
</g>
<!-- Node9&#45;&gt;Node3 -->
<g id="edge10_Node000009_Node000003" class="edge">
<title>Node9&#45;&gt;Node3</title>
<g id="a_edge10_Node000009_Node000003"><a xlink:title=" ">
<path fill="none" stroke="#63b8ff" d="M609.92,-114.35C680.83,-104.52 842.93,-82.04 918.86,-71.51"/>
<polygon fill="#63b8ff" stroke="#63b8ff" points="918.92,-75.04 928.35,-70.2 917.96,-68.1 918.92,-75.04"/>
</a>
</g>
</g>
<!-- Node9&#45;&gt;Node5 -->
<g id="edge11_Node000009_Node000005" class="edge">
<title>Node9&#45;&gt;Node5</title>
<g id="a_edge11_Node000009_Node000005"><a xlink:title=" ">
<path fill="none" stroke="#63b8ff" d="M547.85,-110.06C486.58,-89.98 339.75,-41.85 275.5,-20.79"/>
<polygon fill="#63b8ff" stroke="#63b8ff" points="276.88,-17.56 266.29,-17.77 274.7,-24.21 276.88,-17.56"/>
</a>
</g>
</g>
<!-- Node9&#45;&gt;Node6 -->
<g id="edge12_Node000009_Node000006" class="edge">
<title>Node9&#45;&gt;Node6</title>
<g id="a_edge12_Node000009_Node000006"><a xlink:title=" ">
<path fill="none" stroke="#63b8ff" d="M577.46,-110.25C581.28,-93 589.78,-54.58 595.03,-30.81"/>
<polygon fill="#63b8ff" stroke="#63b8ff" points="598.44,-31.62 597.18,-21.1 591.6,-30.11 598.44,-31.62"/>
</a>
</g>
</g>
<!-- Node10 -->
<g id="Node000010" class="node">
<title>Node10</title>
<g id="a_Node000010"><a xlink:title=" ">
<polygon fill="#e0e0e0" stroke="#999999" points="571.88,-74.5 465.12,-74.5 465.12,-55.25 571.88,-55.25 571.88,-74.5"/>
<text text-anchor="middle" x="518.5" y="-61" font-family="Helvetica,sans-Serif" font-size="10.00">./tinyxml2/tinyxml2.h</text>
</a>
</g>
</g>
<!-- Node9&#45;&gt;Node10 -->
<g id="edge9_Node000009_Node000010" class="edge">
<title>Node9&#45;&gt;Node10</title>
<g id="a_edge9_Node000009_Node000010"><a xlink:title=" ">
<path fill="none" stroke="#63b8ff" d="M565.83,-110.09C557.76,-102.55 546.03,-91.6 536.28,-82.48"/>
<polygon fill="#63b8ff" stroke="#63b8ff" points="538.83,-80.08 529.13,-75.81 534.05,-85.19 538.83,-80.08"/>
</a>
</g>
</g>
<!-- Node11 -->
<g id="Node000011" class="node">
<title>Node11</title>
<g id="a_Node000011"><a xlink:title=" ">
<polygon fill="#e0e0e0" stroke="#999999" points="767.88,-74.5 733.12,-74.5 733.12,-55.25 767.88,-55.25 767.88,-74.5"/>
<text text-anchor="middle" x="750.5" y="-61" font-family="Helvetica,sans-Serif" font-size="10.00">map</text>
</a>
</g>
</g>
<!-- Node9&#45;&gt;Node11 -->
<g id="edge13_Node000009_Node000011" class="edge">
<title>Node9&#45;&gt;Node11</title>
<g id="a_edge13_Node000009_Node000011"><a xlink:title=" ">
<path fill="none" stroke="#63b8ff" d="M605.19,-110.09C637.84,-100.16 689.94,-84.3 722.08,-74.52"/>
<polygon fill="#63b8ff" stroke="#63b8ff" points="722.95,-77.92 731.5,-71.66 720.92,-71.22 722.95,-77.92"/>
</a>
</g>
</g>
<!-- Node12&#45;&gt;Node3 -->
<g id="edge15_Node000012_Node000003" class="edge">
<title>Node12&#45;&gt;Node3</title>
<g id="a_edge15_Node000012_Node000003"><a xlink:title=" ">
<path fill="none" stroke="#63b8ff" d="M1079.78,-220.55C1086.9,-199.17 1101.25,-144.87 1077.5,-110.5 1060.23,-85.51 1027.04,-74.5 1000.25,-69.66"/>
<polygon fill="#63b8ff" stroke="#63b8ff" points="1001.14,-66.25 990.72,-68.17 1000.06,-73.17 1001.14,-66.25"/>
</a>
</g>
</g>
<!-- Node12&#45;&gt;Node11 -->
<g id="edge30_Node000012_Node000011" class="edge">
<title>Node12&#45;&gt;Node11</title>
<g id="a_edge30_Node000012_Node000011"><a xlink:title=" ">
<path fill="none" stroke="#63b8ff" d="M1058.51,-220.59C1004.39,-193.4 842.85,-112.26 777.94,-79.66"/>
<polygon fill="#63b8ff" stroke="#63b8ff" points="779.9,-76.72 769.39,-75.36 776.76,-82.98 779.9,-76.72"/>
</a>
</g>
</g>
<!-- Node13 -->
<g id="Node000013" class="node">
<title>Node13</title>
<g id="a_Node000013"><a xlink:href="ssvalue_8h.html" target="_top" xlink:title=" ">
<polygon fill="white" stroke="#666666" points="715.5,-185 657.5,-185 657.5,-165.75 715.5,-165.75 715.5,-185"/>
<text text-anchor="middle" x="686.5" y="-171.5" font-family="Helvetica,sans-Serif" font-size="10.00">ssvalue.h</text>
</a>
</g>
</g>
<!-- Node12&#45;&gt;Node13 -->
<g id="edge16_Node000012_Node000013" class="edge">
<title>Node12&#45;&gt;Node13</title>
<g id="a_edge16_Node000012_Node000013"><a xlink:title=" ">
<path fill="none" stroke="#63b8ff" d="M1041.11,-226.29C979.39,-220.22 847.89,-206.19 727.17,-185.32"/>
<polygon fill="#63b8ff" stroke="#63b8ff" points="727.85,-181.88 717.39,-183.61 726.64,-188.78 727.85,-181.88"/>
</a>
</g>
</g>
<!-- Node12&#45;&gt;Node20 -->
<g id="edge28_Node000012_Node000020" class="edge">
<title>Node12&#45;&gt;Node20</title>
<g id="a_edge28_Node000012_Node000020"><a xlink:title=" ">
<path fill="none" stroke="#63b8ff" d="M1099.4,-220.59C1120.93,-212.1 1153.41,-199.29 1177.88,-189.64"/>
<polygon fill="#63b8ff" stroke="#63b8ff" points="1179.06,-192.93 1187.08,-186.01 1176.49,-186.42 1179.06,-192.93"/>
</a>
</g>
</g>
<!-- Node21 -->
<g id="Node000021" class="node">
<title>Node21</title>
<g id="a_Node000021"><a xlink:title=" ">
<polygon fill="#e0e0e0" stroke="#999999" points="563.9,-185 535.1,-185 535.1,-165.75 563.9,-165.75 563.9,-185"/>
<text text-anchor="middle" x="549.5" y="-171.5" font-family="Helvetica,sans-Serif" font-size="10.00">list</text>
</a>
</g>
</g>
<!-- Node12&#45;&gt;Node21 -->
<g id="edge29_Node000012_Node000021" class="edge">
<title>Node12&#45;&gt;Node21</title>
<g id="a_edge29_Node000012_Node000021"><a xlink:title=" ">
<path fill="none" stroke="#63b8ff" d="M1041.1,-226.05C941.9,-216.02 662.75,-187.82 575.74,-179.03"/>
<polygon fill="#63b8ff" stroke="#63b8ff" points="576.15,-175.55 565.85,-178.03 575.44,-182.51 576.15,-175.55"/>
</a>
</g>
</g>
<!-- Node13&#45;&gt;Node6 -->
<g id="edge26_Node000013_Node000006" class="edge">
<title>Node13&#45;&gt;Node6</title>
<g id="a_edge26_Node000013_Node000006"><a xlink:title=" ">
<path fill="none" stroke="#63b8ff" d="M681.82,-165.57C668.19,-139.92 628.29,-64.8 609.5,-29.44"/>
<polygon fill="#63b8ff" stroke="#63b8ff" points="612.69,-28 604.91,-20.81 606.51,-31.28 612.69,-28"/>
</a>
</g>
</g>
<!-- Node13&#45;&gt;Node9 -->
<g id="edge17_Node000013_Node000009" class="edge">
<title>Node13&#45;&gt;Node9</title>
<g id="a_edge17_Node000013_Node000009"><a xlink:title=" ">
<path fill="none" stroke="#63b8ff" d="M667.67,-165.34C650.45,-157.08 624.7,-144.73 604.79,-135.18"/>
<polygon fill="#63b8ff" stroke="#63b8ff" points="606.32,-132.03 595.79,-130.86 603.29,-138.34 606.32,-132.03"/>
</a>
</g>
</g>
<!-- Node13&#45;&gt;Node11 -->
<g id="edge25_Node000013_Node000011" class="edge">
<title>Node13&#45;&gt;Node11</title>
<g id="a_edge25_Node000013_Node000011"><a xlink:title=" ">
<path fill="none" stroke="#63b8ff" d="M685.59,-165.47C684.7,-152.5 684.66,-128.04 694.5,-110.5 701.25,-98.46 712.68,-88.47 723.46,-81.02"/>
<polygon fill="#63b8ff" stroke="#63b8ff" points="725.21,-84.06 731.74,-75.72 721.44,-78.16 725.21,-84.06"/>
</a>
</g>
</g>
<!-- Node14 -->
<g id="Node000014" class="node">
<title>Node14</title>
<g id="a_Node000014"><a xlink:href="ssstring__uty_8h.html" target="_top" xlink:title=" ">
<polygon fill="white" stroke="#666666" points="281.5,-129.75 205.5,-129.75 205.5,-110.5 281.5,-110.5 281.5,-129.75"/>
<text text-anchor="middle" x="243.5" y="-116.25" font-family="Helvetica,sans-Serif" font-size="10.00">ssstring_uty.h</text>
</a>
</g>
</g>
<!-- Node13&#45;&gt;Node14 -->
<g id="edge18_Node000013_Node000014" class="edge">
<title>Node13&#45;&gt;Node14</title>
<g id="a_edge18_Node000013_Node000014"><a xlink:title=" ">
<path fill="none" stroke="#63b8ff" d="M657.09,-170.84C582.59,-161.88 385.8,-138.23 293.11,-127.09"/>
<polygon fill="#63b8ff" stroke="#63b8ff" points="293.66,-123.63 283.31,-125.91 292.82,-130.58 293.66,-123.63"/>
</a>
</g>
</g>
<!-- Node19 -->
<g id="Node000019" class="node">
<title>Node19</title>
<g id="a_Node000019"><a xlink:title=" ">
<polygon fill="#e0e0e0" stroke="#999999" points="751.62,-129.75 703.38,-129.75 703.38,-110.5 751.62,-110.5 751.62,-129.75"/>
<text text-anchor="middle" x="727.5" y="-116.25" font-family="Helvetica,sans-Serif" font-size="10.00">cassert</text>
</a>
</g>
</g>
<!-- Node13&#45;&gt;Node19 -->
<g id="edge27_Node000013_Node000019" class="edge">
<title>Node13&#45;&gt;Node19</title>
<g id="a_edge27_Node000013_Node000019"><a xlink:title=" ">
<path fill="none" stroke="#63b8ff" d="M693.27,-165.58C698.82,-158.38 706.84,-147.96 713.73,-139.01"/>
<polygon fill="#63b8ff" stroke="#63b8ff" points="716.33,-141.37 719.66,-131.31 710.79,-137.1 716.33,-141.37"/>
</a>
</g>
</g>
<!-- Node14&#45;&gt;Node5 -->
<g id="edge19_Node000014_Node000005" class="edge">
<title>Node14&#45;&gt;Node5</title>
<g id="a_edge19_Node000014_Node000005"><a xlink:title=" ">
<path fill="none" stroke="#63b8ff" d="M205.06,-118.04C143.61,-114.9 33.7,-102.68 70.5,-55.25 87.79,-32.97 167.48,-19.9 212.78,-14.14"/>
<polygon fill="#63b8ff" stroke="#63b8ff" points="213.03,-17.64 222.53,-12.96 212.18,-10.69 213.03,-17.64"/>
</a>
</g>
</g>
<!-- Node14&#45;&gt;Node6 -->
<g id="edge21_Node000014_Node000006" class="edge">
<title>Node14&#45;&gt;Node6</title>
<g id="a_edge21_Node000014_Node000006"><a xlink:title=" ">
<path fill="none" stroke="#63b8ff" d="M263.71,-110.02C302.74,-92.43 384.72,-55.5 385.5,-55.25 447.89,-34.98 523.58,-21.74 566.18,-15.28"/>
<polygon fill="#63b8ff" stroke="#63b8ff" points="566.65,-18.74 576.03,-13.82 565.63,-11.82 566.65,-18.74"/>
</a>
</g>
</g>
<!-- Node15 -->
<g id="Node000015" class="node">
<title>Node15</title>
<g id="a_Node000015"><a xlink:title=" ">
<polygon fill="#e0e0e0" stroke="#999999" points="129,-74.5 80,-74.5 80,-55.25 129,-55.25 129,-74.5"/>
<text text-anchor="middle" x="104.5" y="-61" font-family="Helvetica,sans-Serif" font-size="10.00">fstream</text>
</a>
</g>
</g>
<!-- Node14&#45;&gt;Node15 -->
<g id="edge20_Node000014_Node000015" class="edge">
<title>Node14&#45;&gt;Node15</title>
<g id="a_edge20_Node000014_Node000015"><a xlink:title=" ">
<path fill="none" stroke="#63b8ff" d="M219.92,-110.09C197.66,-101.56 164.01,-88.67 138.78,-79.01"/>
<polygon fill="#63b8ff" stroke="#63b8ff" points="140.2,-75.8 129.61,-75.49 137.69,-82.34 140.2,-75.8"/>
</a>
</g>
</g>
<!-- Node16 -->
<g id="Node000016" class="node">
<title>Node16</title>
<g id="a_Node000016"><a xlink:title=" ">
<polygon fill="#e0e0e0" stroke="#999999" points="200.25,-74.5 146.75,-74.5 146.75,-55.25 200.25,-55.25 200.25,-74.5"/>
<text text-anchor="middle" x="173.5" y="-61" font-family="Helvetica,sans-Serif" font-size="10.00">iostream</text>
</a>
</g>
</g>
<!-- Node14&#45;&gt;Node16 -->
<g id="edge22_Node000014_Node000016" class="edge">
<title>Node14&#45;&gt;Node16</title>
<g id="a_edge22_Node000014_Node000016"><a xlink:title=" ">
<path fill="none" stroke="#63b8ff" d="M231.63,-110.09C221.41,-102.32 206.43,-90.92 194.24,-81.65"/>
<polygon fill="#63b8ff" stroke="#63b8ff" points="196.48,-78.96 186.4,-75.69 192.24,-84.53 196.48,-78.96"/>
</a>
</g>
</g>
<!-- Node17 -->
<g id="Node000017" class="node">
<title>Node17</title>
<g id="a_Node000017"><a xlink:title=" ">
<polygon fill="#e0e0e0" stroke="#999999" points="269.12,-74.5 217.88,-74.5 217.88,-55.25 269.12,-55.25 269.12,-74.5"/>
<text text-anchor="middle" x="243.5" y="-61" font-family="Helvetica,sans-Serif" font-size="10.00">sstream</text>
</a>
</g>
</g>
<!-- Node14&#45;&gt;Node17 -->
<g id="edge23_Node000014_Node000017" class="edge">
<title>Node14&#45;&gt;Node17</title>
<g id="a_edge23_Node000014_Node000017"><a xlink:title=" ">
<path fill="none" stroke="#63b8ff" d="M243.5,-110.33C243.5,-103.82 243.5,-94.67 243.5,-86.37"/>
<polygon fill="#63b8ff" stroke="#63b8ff" points="247,-86.37 243.5,-76.37 240,-86.37 247,-86.37"/>
</a>
</g>
</g>
<!-- Node18 -->
<g id="Node000018" class="node">
<title>Node18</title>
<g id="a_Node000018"><a xlink:title=" ">
<polygon fill="#e0e0e0" stroke="#999999" points="333.5,-74.5 287.5,-74.5 287.5,-55.25 333.5,-55.25 333.5,-74.5"/>
<text text-anchor="middle" x="310.5" y="-61" font-family="Helvetica,sans-Serif" font-size="10.00">iterator</text>
</a>
</g>
</g>
<!-- Node14&#45;&gt;Node18 -->
<g id="edge24_Node000014_Node000018" class="edge">
<title>Node14&#45;&gt;Node18</title>
<g id="a_edge24_Node000014_Node000018"><a xlink:title=" ">
<path fill="none" stroke="#63b8ff" d="M254.87,-110.09C264.55,-102.4 278.7,-91.15 290.31,-81.93"/>
<polygon fill="#63b8ff" stroke="#63b8ff" points="292.47,-84.68 298.12,-75.72 288.11,-79.2 292.47,-84.68"/>
</a>
</g>
</g>
<!-- Node22&#45;&gt;Node3 -->
<g id="edge32_Node000022_Node000003" class="edge">
<title>Node22&#45;&gt;Node3</title>
<g id="a_edge32_Node000022_Node000003"><a xlink:title=" ">
<path fill="none" stroke="#63b8ff" d="M562.05,-338.82C708.72,-333.27 1188.4,-305.99 1264.5,-185 1326.1,-87.07 1097.01,-69.56 1000.48,-66.49"/>
<polygon fill="#63b8ff" stroke="#63b8ff" points="1000.72,-63 990.63,-66.22 1000.53,-70 1000.72,-63"/>
</a>
</g>
</g>
<!-- Node22&#45;&gt;Node9 -->
<g id="edge33_Node000022_Node000009" class="edge">
<title>Node22&#45;&gt;Node9</title>
<g id="a_edge33_Node000022_Node000009"><a xlink:title=" ">
<path fill="none" stroke="#63b8ff" d="M506.86,-331.13C471.01,-304.54 374.11,-224.51 418.5,-165.75 431.97,-147.92 488.4,-135.13 529.77,-127.93"/>
<polygon fill="#63b8ff" stroke="#63b8ff" points="530.21,-131.4 539.5,-126.3 529.06,-124.5 530.21,-131.4"/>
</a>
</g>
</g>
<!-- Node22&#45;&gt;Node14 -->
<g id="edge34_Node000022_Node000014" class="edge">
<title>Node22&#45;&gt;Node14</title>
<g id="a_edge34_Node000022_Node000014"><a xlink:title=" ">
<path fill="none" stroke="#63b8ff" d="M477.16,-340.76C430.19,-339.49 353.99,-331.38 300.5,-295.5 249.41,-261.23 242.97,-179.4 242.88,-141.29"/>
<polygon fill="#63b8ff" stroke="#63b8ff" points="246.38,-141.74 243.02,-131.69 239.38,-141.64 246.38,-141.74"/>
</a>
</g>
</g>
<!-- Node22&#45;&gt;Node23 -->
<g id="edge35_Node000022_Node000023" class="edge">
<title>Node22&#45;&gt;Node23</title>
<g id="a_edge35_Node000022_Node000023"><a xlink:title=" ">
<path fill="none" stroke="#63b8ff" d="M561.89,-331.27C605.2,-322.23 672.61,-308.15 719.89,-298.28"/>
<polygon fill="#63b8ff" stroke="#63b8ff" points="720.6,-301.71 729.67,-296.24 719.16,-294.85 720.6,-301.71"/>
</a>
</g>
</g>
<!-- Node22&#45;&gt;Node24 -->
<g id="edge39_Node000022_Node000024" class="edge">
<title>Node22&#45;&gt;Node24</title>
<g id="a_edge39_Node000022_Node000024"><a xlink:title=" ">
<path fill="none" stroke="#63b8ff" d="M525.08,-331.32C530.24,-322.61 537.55,-308.7 540.5,-295.5 543.89,-280.35 538.72,-263.45 533.07,-250.84"/>
<polygon fill="#63b8ff" stroke="#63b8ff" points="536.25,-249.38 528.65,-242 529.99,-252.51 536.25,-249.38"/>
</a>
</g>
</g>
<!-- Node22&#45;&gt;Node25 -->
<g id="edge42_Node000022_Node000025" class="edge">
<title>Node22&#45;&gt;Node25</title>
<g id="a_edge42_Node000022_Node000025"><a xlink:title=" ">
<path fill="none" stroke="#63b8ff" d="M544.95,-331.09C569.19,-322.49 605.93,-309.44 633.24,-299.75"/>
<polygon fill="#63b8ff" stroke="#63b8ff" points="634.25,-303.1 642.5,-296.46 631.91,-296.51 634.25,-303.1"/>
</a>
</g>
</g>
<!-- Node28 -->
<g id="Node000028" class="node">
<title>Node28</title>
<g id="a_Node000028"><a xlink:title=" ">
<polygon fill="#e0e0e0" stroke="#999999" points="479.12,-185 427.88,-185 427.88,-165.75 479.12,-165.75 479.12,-185"/>
<text text-anchor="middle" x="453.5" y="-171.5" font-family="Helvetica,sans-Serif" font-size="10.00">memory</text>
</a>
</g>
</g>
<!-- Node22&#45;&gt;Node28 -->
<g id="edge56_Node000022_Node000028" class="edge">
<title>Node22&#45;&gt;Node28</title>
<g id="a_edge56_Node000022_Node000028"><a xlink:title=" ">
<path fill="none" stroke="#63b8ff" d="M509.87,-331.11C501.43,-322.68 489.46,-309.35 482.5,-295.5 466.22,-263.09 458.76,-221.06 455.6,-196.56"/>
<polygon fill="#63b8ff" stroke="#63b8ff" points="459.09,-196.25 454.46,-186.72 452.13,-197.05 459.09,-196.25"/>
</a>
</g>
</g>
<!-- Node22&#45;&gt;Node29 -->
<g id="edge53_Node000022_Node000029" class="edge">
<title>Node22&#45;&gt;Node29</title>
<g id="a_edge53_Node000022_Node000029"><a xlink:title=" ">
<path fill="none" stroke="#63b8ff" d="M491.34,-331.09C464.15,-322.37 422.76,-309.09 392.43,-299.36"/>
<polygon fill="#63b8ff" stroke="#63b8ff" points="393.83,-296.14 383.24,-296.41 391.69,-302.8 393.83,-296.14"/>
</a>
</g>
</g>
<!-- Node30 -->
<g id="Node000030" class="node">
<title>Node30</title>
<g id="a_Node000030"><a xlink:title=" ">
<polygon fill="#e0e0e0" stroke="#999999" points="531.12,-295.5 491.88,-295.5 491.88,-276.25 531.12,-276.25 531.12,-295.5"/>
<text text-anchor="middle" x="511.5" y="-282" font-family="Helvetica,sans-Serif" font-size="10.00">utility</text>
</a>
</g>
</g>
<!-- Node22&#45;&gt;Node30 -->
<g id="edge57_Node000022_Node000030" class="edge">
<title>Node22&#45;&gt;Node30</title>
<g id="a_edge57_Node000022_Node000030"><a xlink:title=" ">
<path fill="none" stroke="#63b8ff" d="M518.18,-331.33C517.19,-324.74 515.79,-315.46 514.53,-307.07"/>
<polygon fill="#63b8ff" stroke="#63b8ff" points="518.02,-306.72 513.07,-297.36 511.1,-307.76 518.02,-306.72"/>
</a>
</g>
</g>
<!-- Node23&#45;&gt;Node3 -->
<g id="edge36_Node000023_Node000003" class="edge">
<title>Node23&#45;&gt;Node3</title>
<g id="a_edge36_Node000023_Node000003"><a xlink:title=" ">
<path fill="none" stroke="#63b8ff" d="M818.36,-282.41C907.02,-276.96 1100.83,-262.62 1120.5,-240.25 1145.6,-211.7 1208.02,-234.2 1095.5,-110.5 1071.26,-83.85 1030.86,-73.07 1000.37,-68.74"/>
<polygon fill="#63b8ff" stroke="#63b8ff" points="1001.08,-65.3 990.73,-67.56 1000.23,-72.25 1001.08,-65.3"/>
</a>
</g>
</g>
<!-- Node23&#45;&gt;Node9 -->
<g id="edge37_Node000023_Node000009" class="edge">
<title>Node23&#45;&gt;Node9</title>
<g id="a_edge37_Node000023_Node000009"><a xlink:title=" ">
<path fill="none" stroke="#63b8ff" d="M730.61,-276.35C705.42,-269.76 674.37,-258.57 651.5,-240.25 649.2,-238.41 607.51,-172.18 586.88,-139.29"/>
<polygon fill="#63b8ff" stroke="#63b8ff" points="590.08,-137.8 581.8,-131.19 584.15,-141.52 590.08,-137.8"/>
</a>
</g>
</g>
<!-- Node23&#45;&gt;Node12 -->
<g id="edge38_Node000023_Node000012" class="edge">
<title>Node23&#45;&gt;Node12</title>
<g id="a_edge38_Node000023_Node000012"><a xlink:title=" ">
<path fill="none" stroke="#63b8ff" d="M818.41,-277.13C874.73,-267.2 972.01,-250.05 1029.69,-239.88"/>
<polygon fill="#63b8ff" stroke="#63b8ff" points="1030.29,-243.33 1039.53,-238.14 1029.08,-236.43 1030.29,-243.33"/>
</a>
</g>
</g>
<!-- Node24&#45;&gt;Node3 -->
<g id="edge40_Node000024_Node000003" class="edge">
<title>Node24&#45;&gt;Node3</title>
<g id="a_edge40_Node000024_Node000003"><a xlink:title=" ">
<path fill="none" stroke="#63b8ff" d="M566.58,-225.95C652.19,-218.49 834.66,-200.95 858.5,-185 890.27,-163.74 876.31,-139.26 901.5,-110.5 911.28,-99.34 924.2,-89.07 935.37,-81.21"/>
<polygon fill="#63b8ff" stroke="#63b8ff" points="937.04,-84.31 943.36,-75.8 933.11,-78.51 937.04,-84.31"/>
</a>
</g>
</g>
<!-- Node24&#45;&gt;Node9 -->
<g id="edge41_Node000024_Node000009" class="edge">
<title>Node24&#45;&gt;Node9</title>
<g id="a_edge41_Node000024_Node000009"><a xlink:title=" ">
<path fill="none" stroke="#63b8ff" d="M521.06,-220.85C519.39,-208.04 517.85,-183.78 526.5,-165.75 532.02,-154.23 541.97,-144.32 551.46,-136.77"/>
<polygon fill="#63b8ff" stroke="#63b8ff" points="553.41,-139.68 559.41,-130.95 549.27,-134.04 553.41,-139.68"/>
</a>
</g>
</g>
<!-- Node25&#45;&gt;Node3 -->
<g id="edge43_Node000025_Node000003" class="edge">
<title>Node25&#45;&gt;Node3</title>
<g id="a_edge43_Node000025_Node000003"><a xlink:title=" ">
<path fill="none" stroke="#63b8ff" d="M713.46,-277.49C716.18,-277.06 718.88,-276.64 721.5,-276.25 780.93,-267.33 941.29,-276.12 989.5,-240.25 1039.08,-203.36 1070.79,-163.79 1039.5,-110.5 1030.73,-95.57 1014.95,-85.27 999.71,-78.36"/>
<polygon fill="#63b8ff" stroke="#63b8ff" points="1001.32,-75.23 990.74,-74.67 998.66,-81.71 1001.32,-75.23"/>
</a>
</g>
</g>
<!-- Node25&#45;&gt;Node9 -->
<g id="edge44_Node000025_Node000009" class="edge">
<title>Node25&#45;&gt;Node9</title>
<g id="a_edge44_Node000025_Node000009"><a xlink:title=" ">
<path fill="none" stroke="#63b8ff" d="M655.63,-275.75C644.25,-267.64 628.45,-254.82 618.5,-240.25 597.28,-209.17 585.21,-166.4 579.54,-141.46"/>
<polygon fill="#63b8ff" stroke="#63b8ff" points="582.97,-140.74 577.46,-131.68 576.12,-142.19 582.97,-140.74"/>
</a>
</g>
</g>
<!-- Node26 -->
<g id="Node000026" class="node">
<title>Node26</title>
<g id="a_Node000026"><a xlink:href="_ss_effect_behavior_8h.html" target="_top" xlink:title=" ">
<polygon fill="white" stroke="#666666" points="760.5,-240.25 660.5,-240.25 660.5,-221 760.5,-221 760.5,-240.25"/>
<text text-anchor="middle" x="710.5" y="-226.75" font-family="Helvetica,sans-Serif" font-size="10.00">SsEffectBehavior.h</text>
</a>
</g>
</g>
<!-- Node25&#45;&gt;Node26 -->
<g id="edge45_Node000025_Node000026" class="edge">
<title>Node25&#45;&gt;Node26</title>
<g id="a_edge45_Node000025_Node000026"><a xlink:title=" ">
<path fill="none" stroke="#63b8ff" d="M676.27,-276.08C681.82,-268.88 689.84,-258.46 696.73,-249.51"/>
<polygon fill="#63b8ff" stroke="#63b8ff" points="699.33,-251.87 702.66,-241.81 693.79,-247.6 699.33,-251.87"/>
</a>
</g>
</g>
<!-- Node26&#45;&gt;Node3 -->
<g id="edge50_Node000026_Node000003" class="edge">
<title>Node26&#45;&gt;Node3</title>
<g id="a_edge50_Node000026_Node000003"><a xlink:title=" ">
<path fill="none" stroke="#63b8ff" d="M760.8,-222.97C807.66,-215.77 873.01,-202.89 891.5,-185 916.22,-161.08 894.72,-139.95 912.5,-110.5 919.06,-99.63 928.96,-89.68 937.99,-81.94"/>
<polygon fill="#63b8ff" stroke="#63b8ff" points="940.15,-84.7 945.73,-75.69 935.75,-79.25 940.15,-84.7"/>
</a>
</g>
</g>
<!-- Node26&#45;&gt;Node13 -->
<g id="edge51_Node000026_Node000013" class="edge">
<title>Node26&#45;&gt;Node13</title>
<g id="a_edge51_Node000026_Node000013"><a xlink:title=" ">
<path fill="none" stroke="#63b8ff" d="M706.54,-220.83C703.46,-214.01 699.09,-204.31 695.21,-195.7"/>
<polygon fill="#63b8ff" stroke="#63b8ff" points="698.47,-194.42 691.17,-186.74 692.09,-197.29 698.47,-194.42"/>
</a>
</g>
</g>
<!-- Node27 -->
<g id="Node000027" class="node">
<title>Node27</title>
<g id="a_Node000027"><a xlink:href="_ss_effect_element_8h.html" target="_top" xlink:title=" ">
<polygon fill="white" stroke="#666666" points="831.75,-185 733.25,-185 733.25,-165.75 831.75,-165.75 831.75,-185"/>
<text text-anchor="middle" x="782.5" y="-171.5" font-family="Helvetica,sans-Serif" font-size="10.00">SsEffectElement.h</text>
</a>
</g>
</g>
<!-- Node26&#45;&gt;Node27 -->
<g id="edge46_Node000026_Node000027" class="edge">
<title>Node26&#45;&gt;Node27</title>
<g id="a_edge46_Node000026_Node000027"><a xlink:title=" ">
<path fill="none" stroke="#63b8ff" d="M722.71,-220.59C733.33,-212.74 748.94,-201.2 761.54,-191.87"/>
<polygon fill="#63b8ff" stroke="#63b8ff" points="763.29,-194.94 769.25,-186.17 759.13,-189.31 763.29,-194.94"/>
</a>
</g>
</g>
<!-- Node26&#45;&gt;Node28 -->
<g id="edge52_Node000026_Node000028" class="edge">
<title>Node26&#45;&gt;Node28</title>
<g id="a_edge52_Node000026_Node000028"><a xlink:title=" ">
<path fill="none" stroke="#63b8ff" d="M666.61,-220.53C617.05,-210.26 537.26,-193.73 490.66,-184.07"/>
<polygon fill="#63b8ff" stroke="#63b8ff" points="491.55,-180.68 481.04,-182.08 490.13,-187.54 491.55,-180.68"/>
</a>
</g>
</g>
<!-- Node27&#45;&gt;Node3 -->
<g id="edge47_Node000027_Node000003" class="edge">
<title>Node27&#45;&gt;Node3</title>
<g id="a_edge47_Node000027_Node000003"><a xlink:title=" ">
<path fill="none" stroke="#63b8ff" d="M788.73,-165.3C798.51,-151.67 818.72,-125.86 841.5,-110.5 865.17,-94.54 895.33,-83.26 919.23,-76.04"/>
<polygon fill="#63b8ff" stroke="#63b8ff" points="919.98,-79.46 928.62,-73.33 918.04,-72.74 919.98,-79.46"/>
</a>
</g>
</g>
<!-- Node27&#45;&gt;Node9 -->
<g id="edge48_Node000027_Node000009" class="edge">
<title>Node27&#45;&gt;Node9</title>
<g id="a_edge48_Node000027_Node000009"><a xlink:title=" ">
<path fill="none" stroke="#63b8ff" d="M747.39,-165.34C712.53,-156.38 658.95,-142.59 620.88,-132.8"/>
<polygon fill="#63b8ff" stroke="#63b8ff" points="622.12,-129.5 611.56,-130.4 620.37,-136.28 622.12,-129.5"/>
</a>
</g>
</g>
<!-- Node27&#45;&gt;Node27 -->
<g id="edge49_Node000027_Node000027" class="edge">
<title>Node27&#45;&gt;Node27</title>
<g id="a_edge49_Node000027_Node000027"><a xlink:title=" ">
<path fill="none" stroke="#63b8ff" d="M817.79,-185.48C834.77,-186.73 849.75,-183.36 849.75,-175.38 849.75,-169.26 840.97,-165.85 829.23,-165.15"/>
<polygon fill="#63b8ff" stroke="#63b8ff" points="829.27,-161.65 819.3,-165.25 829.34,-168.65 829.27,-161.65"/>
</a>
</g>
</g>
<!-- Node29&#45;&gt;Node3 -->
<g id="edge54_Node000029_Node000003" class="edge">
<title>Node29&#45;&gt;Node3</title>
<g id="a_edge54_Node000029_Node000003"><a xlink:title=" ">
<path fill="none" stroke="#63b8ff" d="M397.47,-281.64C489.52,-274.61 699.72,-257.25 769.5,-240.25 882.42,-212.74 948.55,-230.49 1006.5,-129.75 1016.49,-112.39 999.95,-94.14 983.81,-81.61"/>
<polygon fill="#63b8ff" stroke="#63b8ff" points="985.94,-78.83 975.78,-75.83 981.85,-84.51 985.94,-78.83"/>
</a>
</g>
</g>
<!-- Node29&#45;&gt;Node9 -->
<g id="edge55_Node000029_Node000009" class="edge">
<title>Node29&#45;&gt;Node9</title>
<g id="a_edge55_Node000029_Node000009"><a xlink:title=" ">
<path fill="none" stroke="#63b8ff" d="M353.04,-275.89C352.43,-253.74 354.12,-196.15 385.5,-165.75 405.78,-146.11 480.16,-133.13 529.62,-126.46"/>
<polygon fill="#63b8ff" stroke="#63b8ff" points="530.03,-129.94 539.5,-125.17 529.13,-123 530.03,-129.94"/>
</a>
</g>
</g>
<!-- Node31&#45;&gt;Node2 -->
<g id="edge64_Node000031_Node000002" class="edge">
<title>Node31&#45;&gt;Node2</title>
<g id="a_edge64_Node000031_Node000002"><a xlink:title=" ">
<path fill="none" stroke="#63b8ff" d="M366.14,-441.53C413.89,-432.42 487.49,-418.37 538.81,-408.58"/>
<polygon fill="#63b8ff" stroke="#63b8ff" points="539.4,-412.03 548.57,-406.71 538.09,-405.15 539.4,-412.03"/>
</a>
</g>
</g>
<!-- Node32 -->
<g id="Node000032" class="node">
<title>Node32</title>
<g id="a_Node000032"><a xlink:href="ssh_object_8h.html" target="_top" xlink:title=" ">
<polygon fill="white" stroke="#666666" points="179.75,-350.75 111.25,-350.75 111.25,-331.5 179.75,-331.5 179.75,-350.75"/>
<text text-anchor="middle" x="145.5" y="-337.25" font-family="Helvetica,sans-Serif" font-size="10.00">sshObject.h</text>
</a>
</g>
</g>
<!-- Node31&#45;&gt;Node32 -->
<g id="edge65_Node000031_Node000032" class="edge">
<title>Node31&#45;&gt;Node32</title>
<g id="a_edge65_Node000031_Node000032"><a xlink:title=" ">
<path fill="none" stroke="#63b8ff" d="M266.62,-445.46C236.34,-440.02 199.16,-428.87 173.5,-406 160.64,-394.53 153.42,-376.08 149.55,-361.94"/>
<polygon fill="#63b8ff" stroke="#63b8ff" points="153,-361.33 147.3,-352.4 146.19,-362.93 153,-361.33"/>
</a>
</g>
</g>
<!-- Node33 -->
<g id="Node000033" class="node">
<title>Node33</title>
<g id="a_Node000033"><a xlink:href="ssh_task_8h.html" target="_top" xlink:title=" ">
<polygon fill="white" stroke="#666666" points="333,-240.25 272,-240.25 272,-221 333,-221 333,-240.25"/>
<text text-anchor="middle" x="302.5" y="-226.75" font-family="Helvetica,sans-Serif" font-size="10.00">sshTask.h</text>
</a>
</g>
</g>
<!-- Node31&#45;&gt;Node33 -->
<g id="edge70_Node000031_Node000033" class="edge">
<title>Node31&#45;&gt;Node33</title>
<g id="a_edge70_Node000031_Node000033"><a xlink:title=" ">
<path fill="none" stroke="#63b8ff" d="M313.71,-441.71C309.28,-432.92 303.01,-418.96 300.5,-406 289.81,-350.9 295.65,-284.16 299.69,-251.53"/>
<polygon fill="#63b8ff" stroke="#63b8ff" points="303.11,-252.32 300.96,-241.95 296.17,-251.4 303.11,-252.32"/>
</a>
</g>
</g>
<!-- Node34 -->
<g id="Node000034" class="node">
<title>Node34</title>
<g id="a_Node000034"><a xlink:href="ssh_scene_8h.html" target="_top" xlink:title=" ">
<polygon fill="white" stroke="#666666" points="250.38,-406 182.62,-406 182.62,-386.75 250.38,-386.75 250.38,-406"/>
<text text-anchor="middle" x="216.5" y="-392.5" font-family="Helvetica,sans-Serif" font-size="10.00">sshScene.h</text>
</a>
</g>
</g>
<!-- Node31&#45;&gt;Node34 -->
<g id="edge71_Node000031_Node000034" class="edge">
<title>Node31&#45;&gt;Node34</title>
<g id="a_edge71_Node000031_Node000034"><a xlink:title=" ">
<path fill="none" stroke="#63b8ff" d="M301.2,-441.59C285.52,-433.41 262.15,-421.21 243.92,-411.69"/>
<polygon fill="#63b8ff" stroke="#63b8ff" points="245.71,-408.68 235.23,-407.15 242.47,-414.88 245.71,-408.68"/>
</a>
</g>
</g>
<!-- Node35 -->
<g id="Node000035" class="node">
<title>Node35</title>
<g id="a_Node000035"><a xlink:href="_issh_texture_8h.html" target="_top" xlink:title=" ">
<polygon fill="white" stroke="#666666" points="997.12,-129.75 921.88,-129.75 921.88,-110.5 997.12,-110.5 997.12,-129.75"/>
<text text-anchor="middle" x="959.5" y="-116.25" font-family="Helvetica,sans-Serif" font-size="10.00">IsshTexture.h</text>
</a>
</g>
</g>
<!-- Node31&#45;&gt;Node35 -->
<g id="edge73_Node000031_Node000035" class="edge">
<title>Node31&#45;&gt;Node35</title>
<g id="a_edge73_Node000031_Node000035"><a xlink:title=" ">
<path fill="none" stroke="#63b8ff" d="M370.48,-450.73C581.05,-450.46 1359.5,-442.69 1359.5,-342.12 1359.5,-342.12 1359.5,-342.12 1359.5,-229.62 1359.5,-157.76 1115.94,-131.98 1008.93,-124.13"/>
<polygon fill="#63b8ff" stroke="#63b8ff" points="1009.22,-120.64 999,-123.43 1008.73,-127.62 1009.22,-120.64"/>
</a>
</g>
</g>
<!-- Node36 -->
<g id="Node000036" class="node">
<title>Node36</title>
<g id="a_Node000036"><a xlink:href="_x_p_file_open_dlg_8h.html" target="_top" xlink:title=" ">
<polygon fill="white" stroke="#666666" points="401.38,-406 309.62,-406 309.62,-386.75 401.38,-386.75 401.38,-406"/>
<text text-anchor="middle" x="355.5" y="-392.5" font-family="Helvetica,sans-Serif" font-size="10.00">XPFileOpenDlg.h</text>
</a>
</g>
</g>
<!-- Node31&#45;&gt;Node36 -->
<g id="edge76_Node000031_Node000036" class="edge">
<title>Node31&#45;&gt;Node36</title>
<g id="a_edge76_Node000031_Node000036"><a xlink:title=" ">
<path fill="none" stroke="#63b8ff" d="M324.61,-441.83C329.56,-434.71 336.7,-424.43 342.87,-415.55"/>
<polygon fill="#63b8ff" stroke="#63b8ff" points="345.56,-417.81 348.39,-407.6 339.81,-413.82 345.56,-417.81"/>
</a>
</g>
</g>
<!-- Node37 -->
<g id="Node000037" class="node">
<title>Node37</title>
<g id="a_Node000037"><a xlink:href="_debug_print_8h.html" target="_top" xlink:title=" ">
<polygon fill="white" stroke="#666666" points="73,-350.75 0,-350.75 0,-331.5 73,-331.5 73,-350.75"/>
<text text-anchor="middle" x="36.5" y="-337.25" font-family="Helvetica,sans-Serif" font-size="10.00">DebugPrint.h</text>
</a>
</g>
</g>
<!-- Node31&#45;&gt;Node37 -->
<g id="edge77_Node000031_Node000037" class="edge">
<title>Node31&#45;&gt;Node37</title>
<g id="a_edge77_Node000031_Node000037"><a xlink:title=" ">
<path fill="none" stroke="#63b8ff" d="M275.08,-441.55C241.73,-433.91 194.87,-421.72 155.5,-406 121.13,-392.28 83.91,-371.2 60.42,-357.05"/>
<polygon fill="#63b8ff" stroke="#63b8ff" points="62.3,-354.09 51.94,-351.87 58.65,-360.07 62.3,-354.09"/>
</a>
</g>
</g>
<!-- Node32&#45;&gt;Node33 -->
<g id="edge66_Node000032_Node000033" class="edge">
<title>Node32&#45;&gt;Node33</title>
<g id="a_edge66_Node000032_Node000033"><a xlink:title=" ">
<path fill="none" stroke="#63b8ff" d="M158.62,-331.06C185.46,-312.51 246.95,-270.01 280.19,-247.04"/>
<polygon fill="#63b8ff" stroke="#63b8ff" points="282.05,-250.01 288.29,-241.45 278.07,-244.25 282.05,-250.01"/>
</a>
</g>
</g>
<!-- Node33&#45;&gt;Node6 -->
<g id="edge67_Node000033_Node000006" class="edge">
<title>Node33&#45;&gt;Node6</title>
<g id="a_edge67_Node000033_Node000006"><a xlink:title=" ">
<path fill="none" stroke="#63b8ff" d="M307.72,-220.88C325.08,-192.52 383.96,-102.25 456.5,-55.25 490.41,-33.28 535.84,-21.54 566.31,-15.7"/>
<polygon fill="#63b8ff" stroke="#63b8ff" points="566.87,-19.16 576.1,-13.95 565.64,-12.27 566.87,-19.16"/>
</a>
</g>
</g>
<!-- Node33&#45;&gt;Node21 -->
<g id="edge68_Node000033_Node000021" class="edge">
<title>Node33&#45;&gt;Node21</title>
<g id="a_edge68_Node000033_Node000021"><a xlink:title=" ">
<path fill="none" stroke="#63b8ff" d="M333.28,-222.99C382.43,-212.39 477.74,-191.84 523.61,-181.96"/>
<polygon fill="#63b8ff" stroke="#63b8ff" points="524.14,-185.42 533.17,-179.89 522.66,-178.58 524.14,-185.42"/>
</a>
</g>
</g>
<!-- Node33&#45;&gt;Node28 -->
<g id="edge69_Node000033_Node000028" class="edge">
<title>Node33&#45;&gt;Node28</title>
<g id="a_edge69_Node000033_Node000028"><a xlink:title=" ">
<path fill="none" stroke="#63b8ff" d="M328.12,-220.59C352.52,-211.99 389.51,-198.94 417,-189.25"/>
<polygon fill="#63b8ff" stroke="#63b8ff" points="418.07,-192.58 426.33,-185.96 415.74,-185.98 418.07,-192.58"/>
</a>
</g>
</g>
<!-- Node34&#45;&gt;Node32 -->
<g id="edge72_Node000034_Node000032" class="edge">
<title>Node34&#45;&gt;Node32</title>
<g id="a_edge72_Node000034_Node000032"><a xlink:title=" ">
<path fill="none" stroke="#63b8ff" d="M204.46,-386.34C194.09,-378.57 178.9,-367.17 166.53,-357.9"/>
<polygon fill="#63b8ff" stroke="#63b8ff" points="168.68,-355.13 158.58,-351.93 164.48,-360.73 168.68,-355.13"/>
</a>
</g>
</g>
<!-- Node35&#45;&gt;Node3 -->
<g id="edge74_Node000035_Node000003" class="edge">
<title>Node35&#45;&gt;Node3</title>
<g id="a_edge74_Node000035_Node000003"><a xlink:title=" ">
<path fill="none" stroke="#63b8ff" d="M959.5,-110.33C959.5,-103.82 959.5,-94.67 959.5,-86.37"/>
<polygon fill="#63b8ff" stroke="#63b8ff" points="963,-86.37 959.5,-76.37 956,-86.37 963,-86.37"/>
</a>
</g>
</g>
<!-- Node35&#45;&gt;Node11 -->
<g id="edge75_Node000035_Node000011" class="edge">
<title>Node35&#45;&gt;Node11</title>
<g id="a_edge75_Node000035_Node000011"><a xlink:title=" ">
<path fill="none" stroke="#63b8ff" d="M924.05,-110.09C883.09,-99.66 816.54,-82.7 778.86,-73.1"/>
<polygon fill="#63b8ff" stroke="#63b8ff" points="780.18,-69.82 769.62,-70.75 778.45,-76.61 780.18,-69.82"/>
</a>
</g>
</g>
<!-- Node37&#45;&gt;Node5 -->
<g id="edge78_Node000037_Node000005" class="edge">
<title>Node37&#45;&gt;Node5</title>
<g id="a_edge78_Node000037_Node000005"><a xlink:title=" ">
<path fill="none" stroke="#63b8ff" d="M33.3,-331.26C26.98,-312.92 13.5,-269.37 13.5,-231.62 13.5,-231.62 13.5,-231.62 13.5,-119.12 13.5,-32.13 149.39,-14.76 212.72,-11.38"/>
<polygon fill="#63b8ff" stroke="#63b8ff" points="212.65,-14.89 222.49,-10.96 212.35,-7.9 212.65,-14.89"/>
</a>
</g>
</g>
</g>
</svg>
