<?xml version="1.0" encoding="UTF-8" standalone="no"?>
<!DOCTYPE svg PUBLIC "-//W3C//DTD SVG 1.1//EN"
 "http://www.w3.org/Graphics/SVG/1.1/DTD/svg11.dtd">
<!-- Generated by graphviz version 12.2.1 (20241206.2353)
 -->
<!-- Title: Common/Animator/ssplayer_matrix.cpp Pages: 1 -->
<svg width="508pt" height="204pt"
 viewBox="0.00 0.00 508.00 204.25" xmlns="http://www.w3.org/2000/svg" xmlns:xlink="http://www.w3.org/1999/xlink">
<g id="graph0" class="graph" transform="scale(1 1) rotate(0) translate(4 200.25)">
<title>Common/Animator/ssplayer_matrix.cpp</title>
<!-- Node1 -->
<g id="Node000001" class="node">
<title>Node1</title>
<g id="a_Node000001"><a xlink:title=" ">
<polygon fill="#999999" stroke="#666666" points="405.75,-196.25 268.25,-196.25 268.25,-165.75 405.75,-165.75 405.75,-196.25"/>
<text text-anchor="start" x="276.25" y="-182.75" font-family="Helvetica,sans-Serif" font-size="10.00">Common/Animator/ssplayer</text>
<text text-anchor="middle" x="337" y="-171.5" font-family="Helvetica,sans-Serif" font-size="10.00">_matrix.cpp</text>
</a>
</g>
</g>
<!-- Node2 -->
<g id="Node000002" class="node">
<title>Node2</title>
<g id="a_Node000002"><a xlink:href="ssplayer__matrix_8h.html" target="_top" xlink:title=" ">
<polygon fill="white" stroke="#666666" points="257.62,-129.75 164.38,-129.75 164.38,-110.5 257.62,-110.5 257.62,-129.75"/>
<text text-anchor="middle" x="211" y="-116.25" font-family="Helvetica,sans-Serif" font-size="10.00">ssplayer_matrix.h</text>
</a>
</g>
</g>
<!-- Node1&#45;&gt;Node2 -->
<g id="edge1_Node000001_Node000002" class="edge">
<title>Node1&#45;&gt;Node2</title>
<g id="a_edge1_Node000001_Node000002"><a xlink:title=" ">
<path fill="none" stroke="#63b8ff" d="M305.53,-165.3C285.7,-156.03 260.24,-144.13 240.75,-135.02"/>
<polygon fill="#63b8ff" stroke="#63b8ff" points="242.24,-131.86 231.69,-130.79 239.27,-138.2 242.24,-131.86"/>
</a>
</g>
</g>
<!-- Node4 -->
<g id="Node000004" class="node">
<title>Node4</title>
<g id="a_Node000004"><a xlink:title=" ">
<polygon fill="#e0e0e0" stroke="#999999" points="306.75,-19.25 259.25,-19.25 259.25,0 306.75,0 306.75,-19.25"/>
<text text-anchor="middle" x="283" y="-5.75" font-family="Helvetica,sans-Serif" font-size="10.00">stdlib.h</text>
</a>
</g>
</g>
<!-- Node1&#45;&gt;Node4 -->
<g id="edge10_Node000001_Node000004" class="edge">
<title>Node1&#45;&gt;Node4</title>
<g id="a_edge10_Node000001_Node000004"><a xlink:title=" ">
<path fill="none" stroke="#63b8ff" d="M325.58,-165.43C318.6,-155.81 310.07,-142.65 305,-129.75 291.95,-96.57 286.53,-55.09 284.37,-30.86"/>
<polygon fill="#63b8ff" stroke="#63b8ff" points="287.87,-30.82 283.6,-21.12 280.9,-31.36 287.87,-30.82"/>
</a>
</g>
</g>
<!-- Node10 -->
<g id="Node000010" class="node">
<title>Node10</title>
<g id="a_Node000010"><a xlink:title=" ">
<polygon fill="#e0e0e0" stroke="#999999" points="359.62,-129.75 314.38,-129.75 314.38,-110.5 359.62,-110.5 359.62,-129.75"/>
<text text-anchor="middle" x="337" y="-116.25" font-family="Helvetica,sans-Serif" font-size="10.00">stdio.h</text>
</a>
</g>
</g>
<!-- Node1&#45;&gt;Node10 -->
<g id="edge9_Node000001_Node000010" class="edge">
<title>Node1&#45;&gt;Node10</title>
<g id="a_edge9_Node000001_Node000010"><a xlink:title=" ">
<path fill="none" stroke="#63b8ff" d="M337,-165.45C337,-158.21 337,-149.34 337,-141.44"/>
<polygon fill="#63b8ff" stroke="#63b8ff" points="340.5,-141.71 337,-131.71 333.5,-141.71 340.5,-141.71"/>
</a>
</g>
</g>
<!-- Node11 -->
<g id="Node000011" class="node">
<title>Node11</title>
<g id="a_Node000011"><a xlink:title=" ">
<polygon fill="#e0e0e0" stroke="#999999" points="436,-129.75 378,-129.75 378,-110.5 436,-110.5 436,-129.75"/>
<text text-anchor="middle" x="407" y="-116.25" font-family="Helvetica,sans-Serif" font-size="10.00">memory.h</text>
</a>
</g>
</g>
<!-- Node1&#45;&gt;Node11 -->
<g id="edge11_Node000001_Node000011" class="edge">
<title>Node1&#45;&gt;Node11</title>
<g id="a_edge11_Node000001_Node000011"><a xlink:title=" ">
<path fill="none" stroke="#63b8ff" d="M354.3,-165.45C364.35,-157 377.03,-146.33 387.43,-137.58"/>
<polygon fill="#63b8ff" stroke="#63b8ff" points="389.65,-140.29 395.05,-131.18 385.14,-134.93 389.65,-140.29"/>
</a>
</g>
</g>
<!-- Node12 -->
<g id="Node000012" class="node">
<title>Node12</title>
<g id="a_Node000012"><a xlink:title=" ">
<polygon fill="#e0e0e0" stroke="#999999" points="500,-129.75 454,-129.75 454,-110.5 500,-110.5 500,-129.75"/>
<text text-anchor="middle" x="477" y="-116.25" font-family="Helvetica,sans-Serif" font-size="10.00">math.h</text>
</a>
</g>
</g>
<!-- Node1&#45;&gt;Node12 -->
<g id="edge12_Node000001_Node000012" class="edge">
<title>Node1&#45;&gt;Node12</title>
<g id="a_edge12_Node000001_Node000012"><a xlink:title=" ">
<path fill="none" stroke="#63b8ff" d="M371.97,-165.3C394.41,-155.85 423.34,-143.69 445.15,-134.52"/>
<polygon fill="#63b8ff" stroke="#63b8ff" points="446.27,-137.84 454.13,-130.74 443.56,-131.39 446.27,-137.84"/>
</a>
</g>
</g>
<!-- Node3 -->
<g id="Node000003" class="node">
<title>Node3</title>
<g id="a_Node000003"><a xlink:href="sstypes_8h.html" target="_top" xlink:title=" ">
<polygon fill="white" stroke="#666666" points="188,-74.5 88,-74.5 88,-55.25 188,-55.25 188,-74.5"/>
<text text-anchor="middle" x="138" y="-61" font-family="Helvetica,sans-Serif" font-size="10.00">../Loader/sstypes.h</text>
</a>
</g>
</g>
<!-- Node2&#45;&gt;Node3 -->
<g id="edge2_Node000002_Node000003" class="edge">
<title>Node2&#45;&gt;Node3</title>
<g id="a_edge2_Node000002_Node000003"><a xlink:title=" ">
<path fill="none" stroke="#63b8ff" d="M198.62,-110.09C187.85,-102.24 172.03,-90.7 159.25,-81.37"/>
<polygon fill="#63b8ff" stroke="#63b8ff" points="161.56,-78.73 151.42,-75.67 157.44,-84.39 161.56,-78.73"/>
</a>
</g>
</g>
<!-- Node9 -->
<g id="Node000009" class="node">
<title>Node9</title>
<g id="a_Node000009"><a xlink:title=" ">
<polygon fill="#e0e0e0" stroke="#999999" points="257.62,-74.5 206.38,-74.5 206.38,-55.25 257.62,-55.25 257.62,-74.5"/>
<text text-anchor="middle" x="232" y="-61" font-family="Helvetica,sans-Serif" font-size="10.00">memory</text>
</a>
</g>
</g>
<!-- Node2&#45;&gt;Node9 -->
<g id="edge8_Node000002_Node000009" class="edge">
<title>Node2&#45;&gt;Node9</title>
<g id="a_edge8_Node000002_Node000009"><a xlink:title=" ">
<path fill="none" stroke="#63b8ff" d="M214.47,-110.33C217.13,-103.59 220.9,-94.02 224.26,-85.49"/>
<polygon fill="#63b8ff" stroke="#63b8ff" points="227.49,-86.85 227.9,-76.27 220.98,-84.29 227.49,-86.85"/>
</a>
</g>
</g>
<!-- Node3&#45;&gt;Node4 -->
<g id="edge3_Node000003_Node000004" class="edge">
<title>Node3&#45;&gt;Node4</title>
<g id="a_edge3_Node000003_Node000004"><a xlink:title=" ">
<path fill="none" stroke="#63b8ff" d="M162.6,-54.84C186.07,-46.22 221.67,-33.15 248.07,-23.45"/>
<polygon fill="#63b8ff" stroke="#63b8ff" points="249.16,-26.78 257.35,-20.05 246.75,-20.21 249.16,-26.78"/>
</a>
</g>
</g>
<!-- Node5 -->
<g id="Node000005" class="node">
<title>Node5</title>
<g id="a_Node000005"><a xlink:title=" ">
<polygon fill="#e0e0e0" stroke="#999999" points="40,-19.25 0,-19.25 0,0 40,0 40,-19.25"/>
<text text-anchor="middle" x="20" y="-5.75" font-family="Helvetica,sans-Serif" font-size="10.00">string</text>
</a>
</g>
</g>
<!-- Node3&#45;&gt;Node5 -->
<g id="edge4_Node000003_Node000005" class="edge">
<title>Node3&#45;&gt;Node5</title>
<g id="a_edge4_Node000003_Node000005"><a xlink:title=" ">
<path fill="none" stroke="#63b8ff" d="M117.98,-54.84C99.51,-46.5 71.79,-34 50.55,-24.41"/>
<polygon fill="#63b8ff" stroke="#63b8ff" points="52.05,-21.25 41.49,-20.33 49.17,-27.63 52.05,-21.25"/>
</a>
</g>
</g>
<!-- Node6 -->
<g id="Node000006" class="node">
<title>Node6</title>
<g id="a_Node000006"><a xlink:title=" ">
<polygon fill="#e0e0e0" stroke="#999999" points="101.5,-19.25 58.5,-19.25 58.5,0 101.5,0 101.5,-19.25"/>
<text text-anchor="middle" x="80" y="-5.75" font-family="Helvetica,sans-Serif" font-size="10.00">vector</text>
</a>
</g>
</g>
<!-- Node3&#45;&gt;Node6 -->
<g id="edge5_Node000003_Node000006" class="edge">
<title>Node3&#45;&gt;Node6</title>
<g id="a_edge5_Node000003_Node000006"><a xlink:title=" ">
<path fill="none" stroke="#63b8ff" d="M128.16,-54.84C119.95,-47.3 108.02,-36.35 98.09,-27.23"/>
<polygon fill="#63b8ff" stroke="#63b8ff" points="100.54,-24.73 90.81,-20.55 95.81,-29.89 100.54,-24.73"/>
</a>
</g>
</g>
<!-- Node7 -->
<g id="Node000007" class="node">
<title>Node7</title>
<g id="a_Node000007"><a xlink:title=" ">
<polygon fill="#e0e0e0" stroke="#999999" points="162.5,-19.25 119.5,-19.25 119.5,0 162.5,0 162.5,-19.25"/>
<text text-anchor="middle" x="141" y="-5.75" font-family="Helvetica,sans-Serif" font-size="10.00">cmath</text>
</a>
</g>
</g>
<!-- Node3&#45;&gt;Node7 -->
<g id="edge6_Node000003_Node000007" class="edge">
<title>Node3&#45;&gt;Node7</title>
<g id="a_edge6_Node000003_Node000007"><a xlink:title=" ">
<path fill="none" stroke="#63b8ff" d="M138.5,-55.08C138.87,-48.49 139.39,-39.21 139.86,-30.82"/>
<polygon fill="#63b8ff" stroke="#63b8ff" points="143.34,-31.3 140.41,-21.12 136.35,-30.91 143.34,-31.3"/>
</a>
</g>
</g>
<!-- Node8 -->
<g id="Node000008" class="node">
<title>Node8</title>
<g id="a_Node000008"><a xlink:title=" ">
<polygon fill="#e0e0e0" stroke="#999999" points="235.88,-19.25 180.12,-19.25 180.12,0 235.88,0 235.88,-19.25"/>
<text text-anchor="middle" x="208" y="-5.75" font-family="Helvetica,sans-Serif" font-size="10.00">algorithm</text>
</a>
</g>
</g>
<!-- Node3&#45;&gt;Node8 -->
<g id="edge7_Node000003_Node000008" class="edge">
<title>Node3&#45;&gt;Node8</title>
<g id="a_edge7_Node000003_Node000008"><a xlink:title=" ">
<path fill="none" stroke="#63b8ff" d="M149.87,-54.84C160.09,-47.07 175.07,-35.67 187.26,-26.4"/>
<polygon fill="#63b8ff" stroke="#63b8ff" points="189.26,-29.28 195.1,-20.44 185.02,-23.71 189.26,-29.28"/>
</a>
</g>
</g>
</g>
</svg>
