<?xml version="1.0" encoding="UTF-8" standalone="no"?>
<!DOCTYPE svg PUBLIC "-//W3C//DTD SVG 1.1//EN"
 "http://www.w3.org/Graphics/SVG/1.1/DTD/svg11.dtd">
<!-- Generated by graphviz version 9.0.0 (20230911.1827)
 -->
<!-- Title: Common/Animator/ssplayer_render.h Pages: 1 -->
<svg width="1222pt" height="172pt"
 viewBox="0.00 0.00 1221.75 171.50" xmlns="http://www.w3.org/2000/svg" xmlns:xlink="http://www.w3.org/1999/xlink">
<g id="graph0" class="graph" transform="scale(1 1) rotate(0) translate(4 167.5)">
<title>Common/Animator/ssplayer_render.h</title>
<!-- Node1 -->
<g id="Node000001" class="node">
<title>Node1</title>
<g id="a_Node000001"><a xlink:title=" ">
<polygon fill="#999999" stroke="#666666" points="683.5,-163.5 546,-163.5 546,-133 683.5,-133 683.5,-163.5"/>
<text text-anchor="start" x="554" y="-150" font-family="Helvetica,sans-Serif" font-size="10.00">Common/Animator/ssplayer</text>
<text text-anchor="middle" x="614.75" y="-138.75" font-family="Helvetica,sans-Serif" font-size="10.00">_render.h</text>
</a>
</g>
</g>
<!-- Node2 -->
<g id="Node000002" class="node">
<title>Node2</title>
<g id="a_Node000002"><a xlink:href="ssplayer__animedecode_8cpp.html" target="_top" xlink:title=" ">
<polygon fill="white" stroke="#666666" points="137.5,-97 0,-97 0,-66.5 137.5,-66.5 137.5,-97"/>
<text text-anchor="start" x="8" y="-83.5" font-family="Helvetica,sans-Serif" font-size="10.00">Common/Animator/ssplayer</text>
<text text-anchor="middle" x="68.75" y="-72.25" font-family="Helvetica,sans-Serif" font-size="10.00">_animedecode.cpp</text>
</a>
</g>
</g>
<!-- Node1&#45;&gt;Node2 -->
<g id="edge1_Node000001_Node000002" class="edge">
<title>Node1&#45;&gt;Node2</title>
<g id="a_edge1_Node000001_Node000002"><a xlink:title=" ">
<path fill="none" stroke="#63b8ff" d="M534.22,-140.42C440.79,-132.08 282.22,-116.62 146.75,-97 143.75,-96.57 140.69,-96.1 137.61,-95.61"/>
<polygon fill="#63b8ff" stroke="#63b8ff" points="533.78,-143.9 544.05,-141.29 534.4,-136.92 533.78,-143.9"/>
</a>
</g>
</g>
<!-- Node3 -->
<g id="Node000003" class="node">
<title>Node3</title>
<g id="a_Node000003"><a xlink:href="ssplayer__cellmap_8cpp.html" target="_top" xlink:title=" ">
<polygon fill="white" stroke="#666666" points="293.5,-97 156,-97 156,-66.5 293.5,-66.5 293.5,-97"/>
<text text-anchor="start" x="164" y="-83.5" font-family="Helvetica,sans-Serif" font-size="10.00">Common/Animator/ssplayer</text>
<text text-anchor="middle" x="224.75" y="-72.25" font-family="Helvetica,sans-Serif" font-size="10.00">_cellmap.cpp</text>
</a>
</g>
</g>
<!-- Node1&#45;&gt;Node3 -->
<g id="edge2_Node000001_Node000003" class="edge">
<title>Node1&#45;&gt;Node3</title>
<g id="a_edge2_Node000001_Node000003"><a xlink:title=" ">
<path fill="none" stroke="#63b8ff" d="M534.53,-134.81C471.47,-124.91 381.43,-110.52 302.75,-97 299.77,-96.49 296.72,-95.96 293.64,-95.42"/>
<polygon fill="#63b8ff" stroke="#63b8ff" points="533.68,-138.21 544.1,-136.3 534.76,-131.3 533.68,-138.21"/>
</a>
</g>
</g>
<!-- Node4 -->
<g id="Node000004" class="node">
<title>Node4</title>
<g id="a_Node000004"><a xlink:href="ssplayer__effect_8cpp.html" target="_top" xlink:title=" ">
<polygon fill="white" stroke="#666666" points="449.5,-97 312,-97 312,-66.5 449.5,-66.5 449.5,-97"/>
<text text-anchor="start" x="320" y="-83.5" font-family="Helvetica,sans-Serif" font-size="10.00">Common/Animator/ssplayer</text>
<text text-anchor="middle" x="380.75" y="-72.25" font-family="Helvetica,sans-Serif" font-size="10.00">_effect.cpp</text>
</a>
</g>
</g>
<!-- Node1&#45;&gt;Node4 -->
<g id="edge3_Node000001_Node000004" class="edge">
<title>Node1&#45;&gt;Node4</title>
<g id="a_edge3_Node000001_Node000004"><a xlink:title=" ">
<path fill="none" stroke="#63b8ff" d="M550.3,-129.49C513.71,-119.4 468.46,-106.93 433.91,-97.4"/>
<polygon fill="#63b8ff" stroke="#63b8ff" points="549.33,-132.85 559.9,-132.13 551.19,-126.1 549.33,-132.85"/>
</a>
</g>
</g>
<!-- Node5 -->
<g id="Node000005" class="node">
<title>Node5</title>
<g id="a_Node000005"><a xlink:href="ssplayer__effect2_8cpp.html" target="_top" xlink:title=" ">
<polygon fill="white" stroke="#666666" points="605.5,-97 468,-97 468,-66.5 605.5,-66.5 605.5,-97"/>
<text text-anchor="start" x="476" y="-83.5" font-family="Helvetica,sans-Serif" font-size="10.00">Common/Animator/ssplayer</text>
<text text-anchor="middle" x="536.75" y="-72.25" font-family="Helvetica,sans-Serif" font-size="10.00">_effect2.cpp</text>
</a>
</g>
</g>
<!-- Node1&#45;&gt;Node5 -->
<g id="edge4_Node000001_Node000005" class="edge">
<title>Node1&#45;&gt;Node5</title>
<g id="a_edge4_Node000001_Node000005"><a xlink:title=" ">
<path fill="none" stroke="#63b8ff" d="M588.47,-125.52C577.24,-116.23 564.44,-105.65 554.38,-97.33"/>
<polygon fill="#63b8ff" stroke="#63b8ff" points="585.95,-127.97 595.88,-131.65 590.41,-122.58 585.95,-127.97"/>
</a>
</g>
</g>
<!-- Node6 -->
<g id="Node000006" class="node">
<title>Node6</title>
<g id="a_Node000006"><a xlink:href="ssplayer__effectfunction_8cpp.html" target="_top" xlink:title=" ">
<polygon fill="white" stroke="#666666" points="761.5,-97 624,-97 624,-66.5 761.5,-66.5 761.5,-97"/>
<text text-anchor="start" x="632" y="-83.5" font-family="Helvetica,sans-Serif" font-size="10.00">Common/Animator/ssplayer</text>
<text text-anchor="middle" x="692.75" y="-72.25" font-family="Helvetica,sans-Serif" font-size="10.00">_effectfunction.cpp</text>
</a>
</g>
</g>
<!-- Node1&#45;&gt;Node6 -->
<g id="edge5_Node000001_Node000006" class="edge">
<title>Node1&#45;&gt;Node6</title>
<g id="a_edge5_Node000001_Node000006"><a xlink:title=" ">
<path fill="none" stroke="#63b8ff" d="M641.03,-125.52C652.26,-116.23 665.06,-105.65 675.12,-97.33"/>
<polygon fill="#63b8ff" stroke="#63b8ff" points="639.09,-122.58 633.62,-131.65 643.55,-127.97 639.09,-122.58"/>
</a>
</g>
</g>
<!-- Node7 -->
<g id="Node000007" class="node">
<title>Node7</title>
<g id="a_Node000007"><a xlink:href="ssplayer__render_8cpp.html" target="_top" xlink:title=" ">
<polygon fill="white" stroke="#666666" points="917.5,-97 780,-97 780,-66.5 917.5,-66.5 917.5,-97"/>
<text text-anchor="start" x="788" y="-83.5" font-family="Helvetica,sans-Serif" font-size="10.00">Common/Animator/ssplayer</text>
<text text-anchor="middle" x="848.75" y="-72.25" font-family="Helvetica,sans-Serif" font-size="10.00">_render.cpp</text>
</a>
</g>
</g>
<!-- Node1&#45;&gt;Node7 -->
<g id="edge6_Node000001_Node000007" class="edge">
<title>Node1&#45;&gt;Node7</title>
<g id="a_edge6_Node000001_Node000007"><a xlink:title=" ">
<path fill="none" stroke="#63b8ff" d="M679.2,-129.49C715.79,-119.4 761.04,-106.93 795.59,-97.4"/>
<polygon fill="#63b8ff" stroke="#63b8ff" points="678.31,-126.1 669.6,-132.13 680.17,-132.85 678.31,-126.1"/>
</a>
</g>
</g>
<!-- Node8 -->
<g id="Node000008" class="node">
<title>Node8</title>
<g id="a_Node000008"><a xlink:href="ssplayer__render__dx9_8h.html" target="_top" xlink:title=" ">
<polygon fill="white" stroke="#666666" points="1065.75,-97 935.75,-97 935.75,-66.5 1065.75,-66.5 1065.75,-97"/>
<text text-anchor="start" x="943.75" y="-83.5" font-family="Helvetica,sans-Serif" font-size="10.00">Common/Drawer/ssplayer</text>
<text text-anchor="middle" x="1000.75" y="-72.25" font-family="Helvetica,sans-Serif" font-size="10.00">_render_dx9.h</text>
</a>
</g>
</g>
<!-- Node1&#45;&gt;Node8 -->
<g id="edge7_Node000001_Node000008" class="edge">
<title>Node1&#45;&gt;Node8</title>
<g id="a_edge7_Node000001_Node000008"><a xlink:title=" ">
<path fill="none" stroke="#63b8ff" d="M695,-135.02C758.09,-125.23 848.13,-110.9 926.75,-97 929.58,-96.5 932.48,-95.98 935.4,-95.45"/>
<polygon fill="#63b8ff" stroke="#63b8ff" points="694.78,-131.51 685.43,-136.5 695.85,-138.43 694.78,-131.51"/>
</a>
</g>
</g>
<!-- Node10 -->
<g id="Node000010" class="node">
<title>Node10</title>
<g id="a_Node000010"><a xlink:href="ssplayer__render__gl_8h.html" target="_top" xlink:title=" ">
<polygon fill="white" stroke="#666666" points="1213.75,-97 1083.75,-97 1083.75,-66.5 1213.75,-66.5 1213.75,-97"/>
<text text-anchor="start" x="1091.75" y="-83.5" font-family="Helvetica,sans-Serif" font-size="10.00">Common/Drawer/ssplayer</text>
<text text-anchor="middle" x="1148.75" y="-72.25" font-family="Helvetica,sans-Serif" font-size="10.00">_render_gl.h</text>
</a>
</g>
</g>
<!-- Node1&#45;&gt;Node10 -->
<g id="edge9_Node000001_Node000010" class="edge">
<title>Node1&#45;&gt;Node10</title>
<g id="a_edge9_Node000001_Node000010"><a xlink:title=" ">
<path fill="none" stroke="#63b8ff" d="M695.41,-140.44C787.45,-132.21 942.38,-116.94 1074.75,-97 1077.6,-96.57 1080.5,-96.11 1083.43,-95.63"/>
<polygon fill="#63b8ff" stroke="#63b8ff" points="695.11,-136.96 685.45,-141.33 695.72,-143.93 695.11,-136.96"/>
</a>
</g>
</g>
<!-- Node9 -->
<g id="Node000009" class="node">
<title>Node9</title>
<g id="a_Node000009"><a xlink:href="ssplayer__render__dx9_8cpp.html" target="_top" xlink:title=" ">
<polygon fill="white" stroke="#666666" points="1065.75,-30.5 935.75,-30.5 935.75,0 1065.75,0 1065.75,-30.5"/>
<text text-anchor="start" x="943.75" y="-17" font-family="Helvetica,sans-Serif" font-size="10.00">Common/Drawer/ssplayer</text>
<text text-anchor="middle" x="1000.75" y="-5.75" font-family="Helvetica,sans-Serif" font-size="10.00">_render_dx9.cpp</text>
</a>
</g>
</g>
<!-- Node8&#45;&gt;Node9 -->
<g id="edge8_Node000008_Node000009" class="edge">
<title>Node8&#45;&gt;Node9</title>
<g id="a_edge8_Node000008_Node000009"><a xlink:title=" ">
<path fill="none" stroke="#63b8ff" d="M1000.75,-54.81C1000.75,-46.64 1000.75,-37.91 1000.75,-30.83"/>
<polygon fill="#63b8ff" stroke="#63b8ff" points="997.25,-54.6 1000.75,-64.6 1004.25,-54.6 997.25,-54.6"/>
</a>
</g>
</g>
<!-- Node11 -->
<g id="Node000011" class="node">
<title>Node11</title>
<g id="a_Node000011"><a xlink:href="ssplayer__render__gl_8cpp.html" target="_top" xlink:title=" ">
<polygon fill="white" stroke="#666666" points="1213.75,-30.5 1083.75,-30.5 1083.75,0 1213.75,0 1213.75,-30.5"/>
<text text-anchor="start" x="1091.75" y="-17" font-family="Helvetica,sans-Serif" font-size="10.00">Common/Drawer/ssplayer</text>
<text text-anchor="middle" x="1148.75" y="-5.75" font-family="Helvetica,sans-Serif" font-size="10.00">_render_gl.cpp</text>
</a>
</g>
</g>
<!-- Node10&#45;&gt;Node11 -->
<g id="edge10_Node000010_Node000011" class="edge">
<title>Node10&#45;&gt;Node11</title>
<g id="a_edge10_Node000010_Node000011"><a xlink:title=" ">
<path fill="none" stroke="#63b8ff" d="M1148.75,-54.81C1148.75,-46.64 1148.75,-37.91 1148.75,-30.83"/>
<polygon fill="#63b8ff" stroke="#63b8ff" points="1145.25,-54.6 1148.75,-64.6 1152.25,-54.6 1145.25,-54.6"/>
</a>
</g>
</g>
</g>
</svg>
