<?xml version="1.0" encoding="UTF-8" standalone="no"?>
<!DOCTYPE svg PUBLIC "-//W3C//DTD SVG 1.1//EN"
 "http://www.w3.org/Graphics/SVG/1.1/DTD/svg11.dtd">
<!-- Generated by graphviz version 12.2.1 (20241206.2353)
 -->
<!-- Title: Common/Animator/ssplayer_effect.h Pages: 1 -->
<svg width="1309pt" height="481pt"
 viewBox="0.00 0.00 1308.91 480.50" xmlns="http://www.w3.org/2000/svg" xmlns:xlink="http://www.w3.org/1999/xlink">
<g id="graph0" class="graph" transform="scale(1 1) rotate(0) translate(4 476.5)">
<title>Common/Animator/ssplayer_effect.h</title>
<!-- Node1 -->
<g id="Node000001" class="node">
<title>Node1</title>
<g id="a_Node000001"><a xlink:title=" ">
<polygon fill="#999999" stroke="#666666" points="988.66,-472.5 851.16,-472.5 851.16,-442 988.66,-442 988.66,-472.5"/>
<text text-anchor="start" x="859.16" y="-459" font-family="Helvetica,sans-Serif" font-size="10.00">Common/Animator/ssplayer</text>
<text text-anchor="middle" x="919.91" y="-447.75" font-family="Helvetica,sans-Serif" font-size="10.00">_effect.h</text>
</a>
</g>
</g>
<!-- Node1&#45;&gt;Node1 -->
<g id="edge68_Node000001_Node000001" class="edge">
<title>Node1&#45;&gt;Node1</title>
<g id="a_edge68_Node000001_Node000001"><a xlink:title=" ">
<path fill="none" stroke="#63b8ff" d="M988.98,-467.66C999.51,-466.07 1006.66,-462.6 1006.66,-457.25 1006.66,-454.07 1004.14,-451.56 999.89,-449.71"/>
<polygon fill="#63b8ff" stroke="#63b8ff" points="1001.01,-446.39 990.45,-447.23 999.23,-453.15 1001.01,-446.39"/>
</a>
</g>
</g>
<!-- Node2 -->
<g id="Node000002" class="node">
<title>Node2</title>
<g id="a_Node000002"><a xlink:href="ssloader_8h.html" target="_top" xlink:title=" ">
<polygon fill="white" stroke="#666666" points="742.66,-406 641.16,-406 641.16,-386.75 742.66,-386.75 742.66,-406"/>
<text text-anchor="middle" x="691.91" y="-392.5" font-family="Helvetica,sans-Serif" font-size="10.00">../Loader/ssloader.h</text>
</a>
</g>
</g>
<!-- Node1&#45;&gt;Node2 -->
<g id="edge1_Node000001_Node000002" class="edge">
<title>Node1&#45;&gt;Node2</title>
<g id="a_edge1_Node000001_Node000002"><a xlink:title=" ">
<path fill="none" stroke="#63b8ff" d="M862.96,-441.55C824.35,-431.58 773.98,-418.57 737.91,-409.25"/>
<polygon fill="#63b8ff" stroke="#63b8ff" points="739.23,-405.98 728.67,-406.87 737.48,-412.76 739.23,-405.98"/>
</a>
</g>
</g>
<!-- Node28 -->
<g id="Node000028" class="node">
<title>Node28</title>
<g id="a_Node000028"><a xlink:title=" ">
<polygon fill="#e0e0e0" stroke="#999999" points="1187.53,-185 1136.28,-185 1136.28,-165.75 1187.53,-165.75 1187.53,-185"/>
<text text-anchor="middle" x="1161.91" y="-171.5" font-family="Helvetica,sans-Serif" font-size="10.00">memory</text>
</a>
</g>
</g>
<!-- Node1&#45;&gt;Node28 -->
<g id="edge69_Node000001_Node000028" class="edge">
<title>Node1&#45;&gt;Node28</title>
<g id="a_edge69_Node000001_Node000028"><a xlink:title=" ">
<path fill="none" stroke="#63b8ff" d="M989.04,-453.76C1063.95,-446.93 1172.91,-423.08 1172.91,-342.12 1172.91,-342.12 1172.91,-342.12 1172.91,-284.88 1172.91,-254 1168.44,-218.43 1165.2,-196.68"/>
<polygon fill="#63b8ff" stroke="#63b8ff" points="1168.67,-196.18 1163.67,-186.84 1161.75,-197.26 1168.67,-196.18"/>
</a>
</g>
</g>
<!-- Node31 -->
<g id="Node000031" class="node">
<title>Node31</title>
<g id="a_Node000031"><a xlink:href="_mersenne_twister_8h.html" target="_top" xlink:title=" ">
<polygon fill="white" stroke="#666666" points="137.78,-350.75 40.03,-350.75 40.03,-331.5 137.78,-331.5 137.78,-350.75"/>
<text text-anchor="middle" x="88.91" y="-337.25" font-family="Helvetica,sans-Serif" font-size="10.00">MersenneTwister.h</text>
</a>
</g>
</g>
<!-- Node1&#45;&gt;Node31 -->
<g id="edge63_Node000001_Node000031" class="edge">
<title>Node1&#45;&gt;Node31</title>
<g id="a_edge63_Node000001_Node000031"><a xlink:title=" ">
<path fill="none" stroke="#63b8ff" d="M850.84,-446.76C691.51,-424.88 300.36,-371.17 149.57,-350.46"/>
<polygon fill="#63b8ff" stroke="#63b8ff" points="150.16,-347 139.78,-349.11 149.21,-353.94 150.16,-347"/>
</a>
</g>
</g>
<!-- Node32 -->
<g id="Node000032" class="node">
<title>Node32</title>
<g id="a_Node000032"><a xlink:href="ssplayer__cellmap_8h.html" target="_top" xlink:title=" ">
<polygon fill="white" stroke="#666666" points="1300.91,-240.25 1200.91,-240.25 1200.91,-221 1300.91,-221 1300.91,-240.25"/>
<text text-anchor="middle" x="1250.91" y="-226.75" font-family="Helvetica,sans-Serif" font-size="10.00">ssplayer_cellmap.h</text>
</a>
</g>
</g>
<!-- Node1&#45;&gt;Node32 -->
<g id="edge65_Node000001_Node000032" class="edge">
<title>Node1&#45;&gt;Node32</title>
<g id="a_edge65_Node000001_Node000032"><a xlink:title=" ">
<path fill="none" stroke="#63b8ff" d="M989.04,-450.95C1057.96,-444.34 1157.66,-430.76 1186.91,-406 1234.02,-366.11 1246.46,-288.37 1249.74,-251.7"/>
<polygon fill="#63b8ff" stroke="#63b8ff" points="1253.2,-252.3 1250.45,-242.07 1246.22,-251.79 1253.2,-252.3"/>
</a>
</g>
</g>
<!-- Node3 -->
<g id="Node000003" class="node">
<title>Node3</title>
<g id="a_Node000003"><a xlink:href="sstypes_8h.html" target="_top" xlink:title=" ">
<polygon fill="white" stroke="#666666" points="775.28,-74.5 716.53,-74.5 716.53,-55.25 775.28,-55.25 775.28,-74.5"/>
<text text-anchor="middle" x="745.91" y="-61" font-family="Helvetica,sans-Serif" font-size="10.00">sstypes.h</text>
</a>
</g>
</g>
<!-- Node2&#45;&gt;Node3 -->
<g id="edge2_Node000002_Node000003" class="edge">
<title>Node2&#45;&gt;Node3</title>
<g id="a_edge2_Node000002_Node000003"><a xlink:title=" ">
<path fill="none" stroke="#63b8ff" d="M742.79,-392.43C851.57,-384.75 1096.91,-359.39 1096.91,-286.88 1096.91,-286.88 1096.91,-286.88 1096.91,-174.38 1096.91,-110.14 879.62,-79.82 786.97,-69.81"/>
<polygon fill="#63b8ff" stroke="#63b8ff" points="787.35,-66.33 777.04,-68.77 786.62,-73.29 787.35,-66.33"/>
</a>
</g>
</g>
<!-- Node9 -->
<g id="Node000009" class="node">
<title>Node9</title>
<g id="a_Node000009"><a xlink:href="ssarchiver_8h.html" target="_top" xlink:title=" ">
<polygon fill="white" stroke="#666666" points="587.16,-129.75 518.66,-129.75 518.66,-110.5 587.16,-110.5 587.16,-129.75"/>
<text text-anchor="middle" x="552.91" y="-116.25" font-family="Helvetica,sans-Serif" font-size="10.00">ssarchiver.h</text>
</a>
</g>
</g>
<!-- Node2&#45;&gt;Node9 -->
<g id="edge8_Node000002_Node000009" class="edge">
<title>Node2&#45;&gt;Node9</title>
<g id="a_edge8_Node000002_Node000009"><a xlink:title=" ">
<path fill="none" stroke="#63b8ff" d="M667.43,-386.39C648.76,-378.77 623.07,-366.55 603.91,-350.75 579.9,-330.96 574.81,-323.34 560.91,-295.5 534.92,-243.47 538.13,-223.62 543.91,-165.75 544.72,-157.59 546.35,-148.72 548.01,-141.04"/>
<polygon fill="#63b8ff" stroke="#63b8ff" points="551.39,-141.94 550.25,-131.41 544.57,-140.36 551.39,-141.94"/>
</a>
</g>
</g>
<!-- Node12 -->
<g id="Node000012" class="node">
<title>Node12</title>
<g id="a_Node000012"><a xlink:href="ssattribute_8h.html" target="_top" xlink:title=" ">
<polygon fill="white" stroke="#666666" points="408.91,-240.25 338.91,-240.25 338.91,-221 408.91,-221 408.91,-240.25"/>
<text text-anchor="middle" x="373.91" y="-226.75" font-family="Helvetica,sans-Serif" font-size="10.00">ssattribute.h</text>
</a>
</g>
</g>
<!-- Node2&#45;&gt;Node12 -->
<g id="edge14_Node000002_Node000012" class="edge">
<title>Node2&#45;&gt;Node12</title>
<g id="a_edge14_Node000002_Node000012"><a xlink:title=" ">
<path fill="none" stroke="#63b8ff" d="M640.96,-390.42C596.13,-384.78 529.79,-373.25 475.91,-350.75 435.01,-333.68 419.24,-331.14 392.91,-295.5 383.53,-282.81 378.75,-265.51 376.33,-252.11"/>
<polygon fill="#63b8ff" stroke="#63b8ff" points="379.8,-251.63 374.88,-242.24 372.87,-252.64 379.8,-251.63"/>
</a>
</g>
</g>
<!-- Node20 -->
<g id="Node000020" class="node">
<title>Node20</title>
<g id="a_Node000020"><a xlink:href="ss_interpolation_8h.html" target="_top" xlink:title=" ">
<polygon fill="white" stroke="#666666" points="280.91,-185 192.91,-185 192.91,-165.75 280.91,-165.75 280.91,-185"/>
<text text-anchor="middle" x="236.91" y="-171.5" font-family="Helvetica,sans-Serif" font-size="10.00">ssInterpolation.h</text>
</a>
</g>
</g>
<!-- Node2&#45;&gt;Node20 -->
<g id="edge62_Node000002_Node000020" class="edge">
<title>Node2&#45;&gt;Node20</title>
<g id="a_edge62_Node000002_Node000020"><a xlink:title=" ">
<path fill="none" stroke="#63b8ff" d="M640.67,-395.17C585.5,-393.08 496.43,-384.16 427.91,-350.75 348.59,-312.08 278.49,-230.02 250.2,-193.98"/>
<polygon fill="#63b8ff" stroke="#63b8ff" points="253.16,-192.08 244.28,-186.3 247.62,-196.36 253.16,-192.08"/>
</a>
</g>
</g>
<!-- Node22 -->
<g id="Node000022" class="node">
<title>Node22</title>
<g id="a_Node000022"><a xlink:href="ssloader__sspj_8h.html" target="_top" xlink:title=" ">
<polygon fill="white" stroke="#666666" points="697.03,-350.75 612.78,-350.75 612.78,-331.5 697.03,-331.5 697.03,-350.75"/>
<text text-anchor="middle" x="654.91" y="-337.25" font-family="Helvetica,sans-Serif" font-size="10.00">ssloader_sspj.h</text>
</a>
</g>
</g>
<!-- Node2&#45;&gt;Node22 -->
<g id="edge31_Node000002_Node000022" class="edge">
<title>Node2&#45;&gt;Node22</title>
<g id="a_edge31_Node000002_Node000022"><a xlink:title=" ">
<path fill="none" stroke="#63b8ff" d="M685.8,-386.58C680.85,-379.46 673.7,-369.18 667.53,-360.3"/>
<polygon fill="#63b8ff" stroke="#63b8ff" points="670.59,-358.57 662.01,-352.35 664.85,-362.56 670.59,-358.57"/>
</a>
</g>
</g>
<!-- Node23 -->
<g id="Node000023" class="node">
<title>Node23</title>
<g id="a_Node000023"><a xlink:href="ssloader__ssae_8h.html" target="_top" xlink:title=" ">
<polygon fill="white" stroke="#666666" points="489.53,-295.5 402.28,-295.5 402.28,-276.25 489.53,-276.25 489.53,-295.5"/>
<text text-anchor="middle" x="445.91" y="-282" font-family="Helvetica,sans-Serif" font-size="10.00">ssloader_ssae.h</text>
</a>
</g>
</g>
<!-- Node2&#45;&gt;Node23 -->
<g id="edge58_Node000002_Node000023" class="edge">
<title>Node2&#45;&gt;Node23</title>
<g id="a_edge58_Node000002_Node000023"><a xlink:title=" ">
<path fill="none" stroke="#63b8ff" d="M640.97,-391.53C601.3,-386.66 546.08,-375.65 503.91,-350.75 484.81,-339.47 468.4,-319.88 457.96,-305.35"/>
<polygon fill="#63b8ff" stroke="#63b8ff" points="460.85,-303.38 452.31,-297.11 455.08,-307.34 460.85,-303.38"/>
</a>
</g>
</g>
<!-- Node24 -->
<g id="Node000024" class="node">
<title>Node24</title>
<g id="a_Node000024"><a xlink:href="ssloader__ssce_8h.html" target="_top" xlink:title=" ">
<polygon fill="white" stroke="#666666" points="843.53,-295.5 756.28,-295.5 756.28,-276.25 843.53,-276.25 843.53,-295.5"/>
<text text-anchor="middle" x="799.91" y="-282" font-family="Helvetica,sans-Serif" font-size="10.00">ssloader_ssce.h</text>
</a>
</g>
</g>
<!-- Node2&#45;&gt;Node24 -->
<g id="edge59_Node000002_Node000024" class="edge">
<title>Node2&#45;&gt;Node24</title>
<g id="a_edge59_Node000002_Node000024"><a xlink:title=" ">
<path fill="none" stroke="#63b8ff" d="M702.54,-386.45C712.87,-377.66 728.85,-363.69 741.91,-350.75 757.14,-335.64 773.49,-317.45 784.93,-304.34"/>
<polygon fill="#63b8ff" stroke="#63b8ff" points="787.42,-306.82 791.32,-296.97 782.13,-302.24 787.42,-306.82"/>
</a>
</g>
</g>
<!-- Node25 -->
<g id="Node000025" class="node">
<title>Node25</title>
<g id="a_Node000025"><a xlink:href="ssloader__ssee_8h.html" target="_top" xlink:title=" ">
<polygon fill="white" stroke="#666666" points="948.53,-295.5 861.28,-295.5 861.28,-276.25 948.53,-276.25 948.53,-295.5"/>
<text text-anchor="middle" x="904.91" y="-282" font-family="Helvetica,sans-Serif" font-size="10.00">ssloader_ssee.h</text>
</a>
</g>
</g>
<!-- Node2&#45;&gt;Node25 -->
<g id="edge60_Node000002_Node000025" class="edge">
<title>Node2&#45;&gt;Node25</title>
<g id="a_edge60_Node000002_Node000025"><a xlink:title=" ">
<path fill="none" stroke="#63b8ff" d="M709.7,-386.31C746.74,-367.44 832.37,-323.82 876.89,-301.15"/>
<polygon fill="#63b8ff" stroke="#63b8ff" points="878.34,-304.33 885.67,-296.68 875.17,-298.1 878.34,-304.33"/>
</a>
</g>
</g>
<!-- Node29 -->
<g id="Node000029" class="node">
<title>Node29</title>
<g id="a_Node000029"><a xlink:href="ssloader__ssqe_8h.html" target="_top" xlink:title=" ">
<polygon fill="white" stroke="#666666" points="767.53,-240.25 680.28,-240.25 680.28,-221 767.53,-221 767.53,-240.25"/>
<text text-anchor="middle" x="723.91" y="-226.75" font-family="Helvetica,sans-Serif" font-size="10.00">ssloader_ssqe.h</text>
</a>
</g>
</g>
<!-- Node2&#45;&gt;Node29 -->
<g id="edge61_Node000002_Node000029" class="edge">
<title>Node2&#45;&gt;Node29</title>
<g id="a_edge61_Node000002_Node000029"><a xlink:title=" ">
<path fill="none" stroke="#63b8ff" d="M695.22,-386.26C698.36,-377.32 703.02,-363.25 705.91,-350.75 713.81,-316.53 719.09,-275.95 721.79,-252.08"/>
<polygon fill="#63b8ff" stroke="#63b8ff" points="725.26,-252.5 722.86,-242.19 718.3,-251.75 725.26,-252.5"/>
</a>
</g>
</g>
<!-- Node4 -->
<g id="Node000004" class="node">
<title>Node4</title>
<g id="a_Node000004"><a xlink:title=" ">
<polygon fill="#e0e0e0" stroke="#999999" points="792.66,-19.25 745.16,-19.25 745.16,0 792.66,0 792.66,-19.25"/>
<text text-anchor="middle" x="768.91" y="-5.75" font-family="Helvetica,sans-Serif" font-size="10.00">stdlib.h</text>
</a>
</g>
</g>
<!-- Node3&#45;&gt;Node4 -->
<g id="edge3_Node000003_Node000004" class="edge">
<title>Node3&#45;&gt;Node4</title>
<g id="a_edge3_Node000003_Node000004"><a xlink:title=" ">
<path fill="none" stroke="#63b8ff" d="M749.7,-55.08C752.65,-48.26 756.84,-38.56 760.56,-29.95"/>
<polygon fill="#63b8ff" stroke="#63b8ff" points="763.67,-31.57 764.43,-21 757.25,-28.79 763.67,-31.57"/>
</a>
</g>
</g>
<!-- Node5 -->
<g id="Node000005" class="node">
<title>Node5</title>
<g id="a_Node000005"><a xlink:title=" ">
<polygon fill="#e0e0e0" stroke="#999999" points="652.91,-19.25 612.91,-19.25 612.91,0 652.91,0 652.91,-19.25"/>
<text text-anchor="middle" x="632.91" y="-5.75" font-family="Helvetica,sans-Serif" font-size="10.00">string</text>
</a>
</g>
</g>
<!-- Node3&#45;&gt;Node5 -->
<g id="edge4_Node000003_Node000005" class="edge">
<title>Node3&#45;&gt;Node5</title>
<g id="a_edge4_Node000003_Node000005"><a xlink:title=" ">
<path fill="none" stroke="#63b8ff" d="M726.74,-54.84C709.12,-46.54 682.75,-34.11 662.44,-24.54"/>
<polygon fill="#63b8ff" stroke="#63b8ff" points="664.08,-21.44 653.54,-20.35 661.09,-27.78 664.08,-21.44"/>
</a>
</g>
</g>
<!-- Node6 -->
<g id="Node000006" class="node">
<title>Node6</title>
<g id="a_Node000006"><a xlink:title=" ">
<polygon fill="#e0e0e0" stroke="#999999" points="408.41,-19.25 365.41,-19.25 365.41,0 408.41,0 408.41,-19.25"/>
<text text-anchor="middle" x="386.91" y="-5.75" font-family="Helvetica,sans-Serif" font-size="10.00">vector</text>
</a>
</g>
</g>
<!-- Node3&#45;&gt;Node6 -->
<g id="edge5_Node000003_Node000006" class="edge">
<title>Node3&#45;&gt;Node6</title>
<g id="a_edge5_Node000003_Node000006"><a xlink:title=" ">
<path fill="none" stroke="#63b8ff" d="M716.22,-59.47C649.68,-49.6 489.01,-25.77 419.67,-15.48"/>
<polygon fill="#63b8ff" stroke="#63b8ff" points="420.49,-12.07 410.09,-14.06 419.46,-18.99 420.49,-12.07"/>
</a>
</g>
</g>
<!-- Node7 -->
<g id="Node000007" class="node">
<title>Node7</title>
<g id="a_Node000007"><a xlink:title=" ">
<polygon fill="#e0e0e0" stroke="#999999" points="853.41,-19.25 810.41,-19.25 810.41,0 853.41,0 853.41,-19.25"/>
<text text-anchor="middle" x="831.91" y="-5.75" font-family="Helvetica,sans-Serif" font-size="10.00">cmath</text>
</a>
</g>
</g>
<!-- Node3&#45;&gt;Node7 -->
<g id="edge6_Node000003_Node000007" class="edge">
<title>Node3&#45;&gt;Node7</title>
<g id="a_edge6_Node000003_Node000007"><a xlink:title=" ">
<path fill="none" stroke="#63b8ff" d="M760.5,-54.84C773.34,-46.89 792.32,-35.14 807.48,-25.75"/>
<polygon fill="#63b8ff" stroke="#63b8ff" points="809.3,-28.74 815.96,-20.5 805.62,-22.79 809.3,-28.74"/>
</a>
</g>
</g>
<!-- Node8 -->
<g id="Node000008" class="node">
<title>Node8</title>
<g id="a_Node000008"><a xlink:title=" ">
<polygon fill="#e0e0e0" stroke="#999999" points="726.78,-19.25 671.03,-19.25 671.03,0 726.78,0 726.78,-19.25"/>
<text text-anchor="middle" x="698.91" y="-5.75" font-family="Helvetica,sans-Serif" font-size="10.00">algorithm</text>
</a>
</g>
</g>
<!-- Node3&#45;&gt;Node8 -->
<g id="edge7_Node000003_Node000008" class="edge">
<title>Node3&#45;&gt;Node8</title>
<g id="a_edge7_Node000003_Node000008"><a xlink:title=" ">
<path fill="none" stroke="#63b8ff" d="M738.15,-55.08C731.72,-47.8 722.39,-37.23 714.44,-28.23"/>
<polygon fill="#63b8ff" stroke="#63b8ff" points="717.08,-25.93 707.84,-20.74 711.83,-30.56 717.08,-25.93"/>
</a>
</g>
</g>
<!-- Node9&#45;&gt;Node3 -->
<g id="edge10_Node000009_Node000003" class="edge">
<title>Node9&#45;&gt;Node3</title>
<g id="a_edge10_Node000009_Node000003"><a xlink:title=" ">
<path fill="none" stroke="#63b8ff" d="M585.65,-110.09C618.64,-100.99 669.64,-86.92 705.21,-77.1"/>
<polygon fill="#63b8ff" stroke="#63b8ff" points="706.01,-80.51 714.72,-74.48 704.15,-73.77 706.01,-80.51"/>
</a>
</g>
</g>
<!-- Node9&#45;&gt;Node5 -->
<g id="edge11_Node000009_Node000005" class="edge">
<title>Node9&#45;&gt;Node5</title>
<g id="a_edge11_Node000009_Node000005"><a xlink:title=" ">
<path fill="none" stroke="#63b8ff" d="M574.66,-110.1C589.7,-102.73 608.91,-90.85 619.91,-74.5 628.52,-61.69 631.65,-44.4 632.69,-31.03"/>
<polygon fill="#63b8ff" stroke="#63b8ff" points="636.18,-31.35 633.09,-21.21 629.18,-31.06 636.18,-31.35"/>
</a>
</g>
</g>
<!-- Node9&#45;&gt;Node6 -->
<g id="edge12_Node000009_Node000006" class="edge">
<title>Node9&#45;&gt;Node6</title>
<g id="a_edge12_Node000009_Node000006"><a xlink:title=" ">
<path fill="none" stroke="#63b8ff" d="M539.78,-110.11C521.52,-97.62 487.4,-74.43 457.91,-55.25 442.54,-45.26 425.11,-34.3 411.37,-25.74"/>
<polygon fill="#63b8ff" stroke="#63b8ff" points="413.3,-22.82 402.96,-20.52 409.61,-28.77 413.3,-22.82"/>
</a>
</g>
</g>
<!-- Node10 -->
<g id="Node000010" class="node">
<title>Node10</title>
<g id="a_Node000010"><a xlink:title=" ">
<polygon fill="#e0e0e0" stroke="#999999" points="611.28,-74.5 504.53,-74.5 504.53,-55.25 611.28,-55.25 611.28,-74.5"/>
<text text-anchor="middle" x="557.91" y="-61" font-family="Helvetica,sans-Serif" font-size="10.00">./tinyxml2/tinyxml2.h</text>
</a>
</g>
</g>
<!-- Node9&#45;&gt;Node10 -->
<g id="edge9_Node000009_Node000010" class="edge">
<title>Node9&#45;&gt;Node10</title>
<g id="a_edge9_Node000009_Node000010"><a xlink:title=" ">
<path fill="none" stroke="#63b8ff" d="M553.73,-110.33C554.35,-103.74 555.22,-94.46 556.01,-86.07"/>
<polygon fill="#63b8ff" stroke="#63b8ff" points="559.47,-86.65 556.92,-76.37 552.5,-86 559.47,-86.65"/>
</a>
</g>
</g>
<!-- Node11 -->
<g id="Node000011" class="node">
<title>Node11</title>
<g id="a_Node000011"><a xlink:title=" ">
<polygon fill="#e0e0e0" stroke="#999999" points="449.28,-74.5 414.53,-74.5 414.53,-55.25 449.28,-55.25 449.28,-74.5"/>
<text text-anchor="middle" x="431.91" y="-61" font-family="Helvetica,sans-Serif" font-size="10.00">map</text>
</a>
</g>
</g>
<!-- Node9&#45;&gt;Node11 -->
<g id="edge13_Node000009_Node000011" class="edge">
<title>Node9&#45;&gt;Node11</title>
<g id="a_edge13_Node000009_Node000011"><a xlink:title=" ">
<path fill="none" stroke="#63b8ff" d="M532.38,-110.09C512.54,-101.36 482.31,-88.06 460.2,-78.32"/>
<polygon fill="#63b8ff" stroke="#63b8ff" points="461.72,-75.17 451.15,-74.35 458.9,-81.58 461.72,-75.17"/>
</a>
</g>
</g>
<!-- Node12&#45;&gt;Node3 -->
<g id="edge15_Node000012_Node000003" class="edge">
<title>Node12&#45;&gt;Node3</title>
<g id="a_edge15_Node000012_Node000003"><a xlink:title=" ">
<path fill="none" stroke="#63b8ff" d="M394.16,-220.51C455.06,-193.11 632.77,-113.16 638.91,-110.5 663.76,-99.74 692.04,-87.96 713.29,-79.21"/>
<polygon fill="#63b8ff" stroke="#63b8ff" points="714.38,-82.54 722.3,-75.5 711.72,-76.07 714.38,-82.54"/>
</a>
</g>
</g>
<!-- Node12&#45;&gt;Node11 -->
<g id="edge30_Node000012_Node000011" class="edge">
<title>Node12&#45;&gt;Node11</title>
<g id="a_edge30_Node000012_Node000011"><a xlink:title=" ">
<path fill="none" stroke="#63b8ff" d="M372.48,-220.76C370.78,-208.25 368.77,-184.81 373.91,-165.75 382.35,-134.4 403.31,-102.76 417.58,-83.73"/>
<polygon fill="#63b8ff" stroke="#63b8ff" points="420.24,-86.02 423.59,-75.97 414.7,-81.73 420.24,-86.02"/>
</a>
</g>
</g>
<!-- Node13 -->
<g id="Node000013" class="node">
<title>Node13</title>
<g id="a_Node000013"><a xlink:href="ssvalue_8h.html" target="_top" xlink:title=" ">
<polygon fill="white" stroke="#666666" points="440.91,-185 382.91,-185 382.91,-165.75 440.91,-165.75 440.91,-185"/>
<text text-anchor="middle" x="411.91" y="-171.5" font-family="Helvetica,sans-Serif" font-size="10.00">ssvalue.h</text>
</a>
</g>
</g>
<!-- Node12&#45;&gt;Node13 -->
<g id="edge16_Node000012_Node000013" class="edge">
<title>Node12&#45;&gt;Node13</title>
<g id="a_edge16_Node000012_Node000013"><a xlink:title=" ">
<path fill="none" stroke="#63b8ff" d="M380.18,-220.83C385.27,-213.71 392.6,-203.43 398.94,-194.55"/>
<polygon fill="#63b8ff" stroke="#63b8ff" points="401.66,-196.76 404.62,-186.59 395.96,-192.7 401.66,-196.76"/>
</a>
</g>
</g>
<!-- Node12&#45;&gt;Node20 -->
<g id="edge28_Node000012_Node000020" class="edge">
<title>Node12&#45;&gt;Node20</title>
<g id="a_edge28_Node000012_Node000020"><a xlink:title=" ">
<path fill="none" stroke="#63b8ff" d="M350.67,-220.59C328.72,-212.06 295.56,-199.17 270.69,-189.51"/>
<polygon fill="#63b8ff" stroke="#63b8ff" points="272.26,-186.36 261.67,-186 269.72,-192.89 272.26,-186.36"/>
</a>
</g>
</g>
<!-- Node21 -->
<g id="Node000021" class="node">
<title>Node21</title>
<g id="a_Node000021"><a xlink:title=" ">
<polygon fill="#e0e0e0" stroke="#999999" points="327.31,-185 298.51,-185 298.51,-165.75 327.31,-165.75 327.31,-185"/>
<text text-anchor="middle" x="312.91" y="-171.5" font-family="Helvetica,sans-Serif" font-size="10.00">list</text>
</a>
</g>
</g>
<!-- Node12&#45;&gt;Node21 -->
<g id="edge29_Node000012_Node000021" class="edge">
<title>Node12&#45;&gt;Node21</title>
<g id="a_edge29_Node000012_Node000021"><a xlink:title=" ">
<path fill="none" stroke="#63b8ff" d="M363.56,-220.59C354.83,-212.97 342.12,-201.87 331.61,-192.7"/>
<polygon fill="#63b8ff" stroke="#63b8ff" points="334.08,-190.21 324.24,-186.27 329.47,-195.48 334.08,-190.21"/>
</a>
</g>
</g>
<!-- Node13&#45;&gt;Node6 -->
<g id="edge26_Node000013_Node000006" class="edge">
<title>Node13&#45;&gt;Node6</title>
<g id="a_edge26_Node000013_Node000006"><a xlink:title=" ">
<path fill="none" stroke="#63b8ff" d="M410.56,-165.57C406.7,-140.25 395.48,-66.75 389.99,-30.84"/>
<polygon fill="#63b8ff" stroke="#63b8ff" points="393.46,-30.33 388.49,-20.97 386.54,-31.38 393.46,-30.33"/>
</a>
</g>
</g>
<!-- Node13&#45;&gt;Node9 -->
<g id="edge17_Node000013_Node000009" class="edge">
<title>Node13&#45;&gt;Node9</title>
<g id="a_edge17_Node000013_Node000009"><a xlink:title=" ">
<path fill="none" stroke="#63b8ff" d="M435.83,-165.34C458.41,-156.81 492.54,-143.92 518.14,-134.26"/>
<polygon fill="#63b8ff" stroke="#63b8ff" points="519.34,-137.54 527.45,-130.74 516.86,-131 519.34,-137.54"/>
</a>
</g>
</g>
<!-- Node13&#45;&gt;Node11 -->
<g id="edge25_Node000013_Node000011" class="edge">
<title>Node13&#45;&gt;Node11</title>
<g id="a_edge25_Node000013_Node000011"><a xlink:title=" ">
<path fill="none" stroke="#63b8ff" d="M413.54,-165.5C416.72,-148.25 423.8,-109.83 428.19,-86.06"/>
<polygon fill="#63b8ff" stroke="#63b8ff" points="431.6,-86.83 429.97,-76.37 424.72,-85.56 431.6,-86.83"/>
</a>
</g>
</g>
<!-- Node14 -->
<g id="Node000014" class="node">
<title>Node14</title>
<g id="a_Node000014"><a xlink:href="ssstring__uty_8h.html" target="_top" xlink:title=" ">
<polygon fill="white" stroke="#666666" points="264.91,-129.75 188.91,-129.75 188.91,-110.5 264.91,-110.5 264.91,-129.75"/>
<text text-anchor="middle" x="226.91" y="-116.25" font-family="Helvetica,sans-Serif" font-size="10.00">ssstring_uty.h</text>
</a>
</g>
</g>
<!-- Node13&#45;&gt;Node14 -->
<g id="edge18_Node000013_Node000014" class="edge">
<title>Node13&#45;&gt;Node14</title>
<g id="a_edge18_Node000013_Node000014"><a xlink:title=" ">
<path fill="none" stroke="#63b8ff" d="M382.59,-165.94C352.07,-157.15 303.97,-143.31 269.3,-133.33"/>
<polygon fill="#63b8ff" stroke="#63b8ff" points="270.59,-130.06 260.02,-130.66 268.66,-136.78 270.59,-130.06"/>
</a>
</g>
</g>
<!-- Node19 -->
<g id="Node000019" class="node">
<title>Node19</title>
<g id="a_Node000019"><a xlink:title=" ">
<polygon fill="#e0e0e0" stroke="#999999" points="501.03,-129.75 452.78,-129.75 452.78,-110.5 501.03,-110.5 501.03,-129.75"/>
<text text-anchor="middle" x="476.91" y="-116.25" font-family="Helvetica,sans-Serif" font-size="10.00">cassert</text>
</a>
</g>
</g>
<!-- Node13&#45;&gt;Node19 -->
<g id="edge27_Node000013_Node000019" class="edge">
<title>Node13&#45;&gt;Node19</title>
<g id="a_edge27_Node000013_Node000019"><a xlink:title=" ">
<path fill="none" stroke="#63b8ff" d="M422.93,-165.34C432.33,-157.65 446.06,-146.4 457.32,-137.18"/>
<polygon fill="#63b8ff" stroke="#63b8ff" points="459.36,-140.03 464.87,-130.98 454.92,-134.61 459.36,-140.03"/>
</a>
</g>
</g>
<!-- Node14&#45;&gt;Node5 -->
<g id="edge19_Node000014_Node000005" class="edge">
<title>Node14&#45;&gt;Node5</title>
<g id="a_edge19_Node000014_Node000005"><a xlink:title=" ">
<path fill="none" stroke="#63b8ff" d="M248.89,-110.08C282.32,-96.6 348.16,-71.13 405.91,-55.25 474.73,-36.32 557.38,-22.17 601.51,-15.28"/>
<polygon fill="#63b8ff" stroke="#63b8ff" points="601.78,-18.78 611.14,-13.8 600.72,-11.86 601.78,-18.78"/>
</a>
</g>
</g>
<!-- Node14&#45;&gt;Node6 -->
<g id="edge21_Node000014_Node000006" class="edge">
<title>Node14&#45;&gt;Node6</title>
<g id="a_edge21_Node000014_Node000006"><a xlink:title=" ">
<path fill="none" stroke="#63b8ff" d="M240.27,-110.06C267.64,-91.51 330.3,-49.01 364.17,-26.04"/>
<polygon fill="#63b8ff" stroke="#63b8ff" points="366.13,-28.95 372.44,-20.44 362.2,-23.15 366.13,-28.95"/>
</a>
</g>
</g>
<!-- Node15 -->
<g id="Node000015" class="node">
<title>Node15</title>
<g id="a_Node000015"><a xlink:title=" ">
<polygon fill="#e0e0e0" stroke="#999999" points="78.41,-74.5 29.41,-74.5 29.41,-55.25 78.41,-55.25 78.41,-74.5"/>
<text text-anchor="middle" x="53.91" y="-61" font-family="Helvetica,sans-Serif" font-size="10.00">fstream</text>
</a>
</g>
</g>
<!-- Node14&#45;&gt;Node15 -->
<g id="edge20_Node000014_Node000015" class="edge">
<title>Node14&#45;&gt;Node15</title>
<g id="a_edge20_Node000014_Node000015"><a xlink:title=" ">
<path fill="none" stroke="#63b8ff" d="M197.56,-110.09C167.72,-100.91 121.46,-86.67 89.54,-76.84"/>
<polygon fill="#63b8ff" stroke="#63b8ff" points="90.93,-73.61 80.34,-74.01 88.87,-80.3 90.93,-73.61"/>
</a>
</g>
</g>
<!-- Node16 -->
<g id="Node000016" class="node">
<title>Node16</title>
<g id="a_Node000016"><a xlink:title=" ">
<polygon fill="#e0e0e0" stroke="#999999" points="149.66,-74.5 96.16,-74.5 96.16,-55.25 149.66,-55.25 149.66,-74.5"/>
<text text-anchor="middle" x="122.91" y="-61" font-family="Helvetica,sans-Serif" font-size="10.00">iostream</text>
</a>
</g>
</g>
<!-- Node14&#45;&gt;Node16 -->
<g id="edge22_Node000014_Node000016" class="edge">
<title>Node14&#45;&gt;Node16</title>
<g id="a_edge22_Node000014_Node000016"><a xlink:title=" ">
<path fill="none" stroke="#63b8ff" d="M209.26,-110.09C193.28,-101.91 169.45,-89.71 150.87,-80.19"/>
<polygon fill="#63b8ff" stroke="#63b8ff" points="152.48,-77.08 141.98,-75.64 149.29,-83.32 152.48,-77.08"/>
</a>
</g>
</g>
<!-- Node17 -->
<g id="Node000017" class="node">
<title>Node17</title>
<g id="a_Node000017"><a xlink:title=" ">
<polygon fill="#e0e0e0" stroke="#999999" points="218.53,-74.5 167.28,-74.5 167.28,-55.25 218.53,-55.25 218.53,-74.5"/>
<text text-anchor="middle" x="192.91" y="-61" font-family="Helvetica,sans-Serif" font-size="10.00">sstream</text>
</a>
</g>
</g>
<!-- Node14&#45;&gt;Node17 -->
<g id="edge23_Node000014_Node000017" class="edge">
<title>Node14&#45;&gt;Node17</title>
<g id="a_edge23_Node000014_Node000017"><a xlink:title=" ">
<path fill="none" stroke="#63b8ff" d="M221.29,-110.33C216.79,-103.28 210.32,-93.15 204.69,-84.33"/>
<polygon fill="#63b8ff" stroke="#63b8ff" points="207.79,-82.68 199.46,-76.13 201.89,-86.45 207.79,-82.68"/>
</a>
</g>
</g>
<!-- Node18 -->
<g id="Node000018" class="node">
<title>Node18</title>
<g id="a_Node000018"><a xlink:title=" ">
<polygon fill="#e0e0e0" stroke="#999999" points="282.91,-74.5 236.91,-74.5 236.91,-55.25 282.91,-55.25 282.91,-74.5"/>
<text text-anchor="middle" x="259.91" y="-61" font-family="Helvetica,sans-Serif" font-size="10.00">iterator</text>
</a>
</g>
</g>
<!-- Node14&#45;&gt;Node18 -->
<g id="edge24_Node000014_Node000018" class="edge">
<title>Node14&#45;&gt;Node18</title>
<g id="a_edge24_Node000014_Node000018"><a xlink:title=" ">
<path fill="none" stroke="#63b8ff" d="M232.36,-110.33C236.68,-103.36 242.87,-93.37 248.29,-84.62"/>
<polygon fill="#63b8ff" stroke="#63b8ff" points="251.25,-86.49 253.54,-76.15 245.3,-82.8 251.25,-86.49"/>
</a>
</g>
</g>
<!-- Node22&#45;&gt;Node3 -->
<g id="edge32_Node000022_Node000003" class="edge">
<title>Node22&#45;&gt;Node3</title>
<g id="a_edge32_Node000022_Node000003"><a xlink:title=" ">
<path fill="none" stroke="#63b8ff" d="M655.14,-331.26C655.89,-311.19 658.9,-260.97 670.91,-221 686.49,-169.15 717.52,-113.09 734.37,-84.68"/>
<polygon fill="#63b8ff" stroke="#63b8ff" points="737.32,-86.57 739.48,-76.2 731.32,-82.95 737.32,-86.57"/>
</a>
</g>
</g>
<!-- Node22&#45;&gt;Node9 -->
<g id="edge33_Node000022_Node000009" class="edge">
<title>Node22&#45;&gt;Node9</title>
<g id="a_edge33_Node000022_Node000009"><a xlink:title=" ">
<path fill="none" stroke="#63b8ff" d="M625.05,-331.11C607.55,-324.22 586.65,-312.9 574.91,-295.5 542.82,-247.96 545.99,-176.21 549.94,-141.44"/>
<polygon fill="#63b8ff" stroke="#63b8ff" points="553.41,-141.93 551.23,-131.56 546.47,-141.02 553.41,-141.93"/>
</a>
</g>
</g>
<!-- Node22&#45;&gt;Node14 -->
<g id="edge34_Node000022_Node000014" class="edge">
<title>Node22&#45;&gt;Node14</title>
<g id="a_edge34_Node000022_Node000014"><a xlink:title=" ">
<path fill="none" stroke="#63b8ff" d="M612.61,-337.07C559.95,-332.33 467.83,-320.96 392.91,-295.5 293.42,-261.7 238.13,-275 183.91,-185 173.82,-168.25 189.3,-149.78 204.42,-137.03"/>
<polygon fill="#63b8ff" stroke="#63b8ff" points="206.19,-140.1 211.9,-131.18 201.87,-134.59 206.19,-140.1"/>
</a>
</g>
</g>
<!-- Node22&#45;&gt;Node23 -->
<g id="edge35_Node000022_Node000023" class="edge">
<title>Node22&#45;&gt;Node23</title>
<g id="a_edge35_Node000022_Node000023"><a xlink:title=" ">
<path fill="none" stroke="#63b8ff" d="M619.45,-331.09C584.47,-322.18 530.81,-308.51 492.42,-298.73"/>
<polygon fill="#63b8ff" stroke="#63b8ff" points="493.56,-295.4 483,-296.33 491.83,-302.19 493.56,-295.4"/>
</a>
</g>
</g>
<!-- Node22&#45;&gt;Node24 -->
<g id="edge39_Node000022_Node000024" class="edge">
<title>Node22&#45;&gt;Node24</title>
<g id="a_edge39_Node000022_Node000024"><a xlink:title=" ">
<path fill="none" stroke="#63b8ff" d="M679.5,-331.09C702.83,-322.52 738.15,-309.56 764.5,-299.88"/>
<polygon fill="#63b8ff" stroke="#63b8ff" points="765.59,-303.21 773.77,-296.47 763.17,-296.64 765.59,-303.21"/>
</a>
</g>
</g>
<!-- Node22&#45;&gt;Node25 -->
<g id="edge42_Node000022_Node000025" class="edge">
<title>Node22&#45;&gt;Node25</title>
<g id="a_edge42_Node000022_Node000025"><a xlink:title=" ">
<path fill="none" stroke="#63b8ff" d="M697.32,-331.09C739.7,-322.06 805,-308.15 851.03,-298.35"/>
<polygon fill="#63b8ff" stroke="#63b8ff" points="851.76,-301.77 860.81,-296.27 850.3,-294.93 851.76,-301.77"/>
</a>
</g>
</g>
<!-- Node22&#45;&gt;Node28 -->
<g id="edge56_Node000022_Node000028" class="edge">
<title>Node22&#45;&gt;Node28</title>
<g id="a_edge56_Node000022_Node000028"><a xlink:title=" ">
<path fill="none" stroke="#63b8ff" d="M697.45,-337.9C756.89,-333.9 867.66,-323.12 957.91,-295.5 1012.13,-278.9 1024.13,-269.17 1072.91,-240.25 1097.75,-225.52 1124.44,-205.78 1142.04,-192.17"/>
<polygon fill="#63b8ff" stroke="#63b8ff" points="1143.91,-195.16 1149.63,-186.24 1139.59,-189.64 1143.91,-195.16"/>
</a>
</g>
</g>
<!-- Node22&#45;&gt;Node29 -->
<g id="edge53_Node000022_Node000029" class="edge">
<title>Node22&#45;&gt;Node29</title>
<g id="a_edge53_Node000022_Node000029"><a xlink:title=" ">
<path fill="none" stroke="#63b8ff" d="M660.55,-331.25C671.77,-313.6 697.09,-273.8 712.1,-250.2"/>
<polygon fill="#63b8ff" stroke="#63b8ff" points="714.96,-252.22 717.37,-241.9 709.05,-248.46 714.96,-252.22"/>
</a>
</g>
</g>
<!-- Node30 -->
<g id="Node000030" class="node">
<title>Node30</title>
<g id="a_Node000030"><a xlink:title=" ">
<polygon fill="#e0e0e0" stroke="#999999" points="623.53,-295.5 584.28,-295.5 584.28,-276.25 623.53,-276.25 623.53,-295.5"/>
<text text-anchor="middle" x="603.91" y="-282" font-family="Helvetica,sans-Serif" font-size="10.00">utility</text>
</a>
</g>
</g>
<!-- Node22&#45;&gt;Node30 -->
<g id="edge57_Node000022_Node000030" class="edge">
<title>Node22&#45;&gt;Node30</title>
<g id="a_edge57_Node000022_Node000030"><a xlink:title=" ">
<path fill="none" stroke="#63b8ff" d="M646.49,-331.33C639.37,-323.9 628.96,-313.04 620.22,-303.91"/>
<polygon fill="#63b8ff" stroke="#63b8ff" points="623,-301.75 613.56,-296.95 617.95,-306.6 623,-301.75"/>
</a>
</g>
</g>
<!-- Node23&#45;&gt;Node3 -->
<g id="edge36_Node000023_Node000003" class="edge">
<title>Node23&#45;&gt;Node3</title>
<g id="a_edge36_Node000023_Node000003"><a xlink:title=" ">
<path fill="none" stroke="#63b8ff" d="M457.69,-276.09C492.17,-250.41 595.93,-173.29 682.91,-110.5 696.49,-100.69 711.83,-89.82 723.97,-81.27"/>
<polygon fill="#63b8ff" stroke="#63b8ff" points="725.91,-84.19 732.07,-75.57 721.88,-78.46 725.91,-84.19"/>
</a>
</g>
</g>
<!-- Node23&#45;&gt;Node9 -->
<g id="edge37_Node000023_Node000009" class="edge">
<title>Node23&#45;&gt;Node9</title>
<g id="a_edge37_Node000023_Node000009"><a xlink:title=" ">
<path fill="none" stroke="#63b8ff" d="M447.65,-275.97C452.12,-254.96 465.6,-201.41 492.91,-165.75 501.94,-153.95 514.89,-143.78 526.45,-136.14"/>
<polygon fill="#63b8ff" stroke="#63b8ff" points="528.21,-139.17 534.83,-130.91 524.5,-133.24 528.21,-139.17"/>
</a>
</g>
</g>
<!-- Node23&#45;&gt;Node12 -->
<g id="edge38_Node000023_Node000012" class="edge">
<title>Node23&#45;&gt;Node12</title>
<g id="a_edge38_Node000023_Node000012"><a xlink:title=" ">
<path fill="none" stroke="#63b8ff" d="M433.69,-275.84C423.08,-267.99 407.47,-256.45 394.86,-247.12"/>
<polygon fill="#63b8ff" stroke="#63b8ff" points="397.28,-244.56 387.16,-241.42 393.12,-250.19 397.28,-244.56"/>
</a>
</g>
</g>
<!-- Node24&#45;&gt;Node3 -->
<g id="edge40_Node000024_Node000003" class="edge">
<title>Node24&#45;&gt;Node3</title>
<g id="a_edge40_Node000024_Node000003"><a xlink:title=" ">
<path fill="none" stroke="#63b8ff" d="M843.99,-275.97C891.72,-265.92 962.26,-249.75 970.91,-240.25 993.36,-215.59 991.74,-196.93 979.91,-165.75 951.47,-90.84 845.84,-71.94 786.69,-67.29"/>
<polygon fill="#63b8ff" stroke="#63b8ff" points="787.24,-63.82 777.03,-66.64 786.77,-70.8 787.24,-63.82"/>
</a>
</g>
</g>
<!-- Node24&#45;&gt;Node9 -->
<g id="edge41_Node000024_Node000009" class="edge">
<title>Node24&#45;&gt;Node9</title>
<g id="a_edge41_Node000024_Node000009"><a xlink:title=" ">
<path fill="none" stroke="#63b8ff" d="M798.91,-275.89C796.97,-262.37 791.51,-236.72 776.91,-221 728.79,-169.19 648.84,-142.57 598.6,-130.26"/>
<polygon fill="#63b8ff" stroke="#63b8ff" points="599.44,-126.86 588.91,-127.99 597.84,-133.68 599.44,-126.86"/>
</a>
</g>
</g>
<!-- Node25&#45;&gt;Node3 -->
<g id="edge43_Node000025_Node000003" class="edge">
<title>Node25&#45;&gt;Node3</title>
<g id="a_edge43_Node000025_Node000003"><a xlink:title=" ">
<path fill="none" stroke="#63b8ff" d="M940.17,-275.76C958.68,-269.07 979.94,-257.98 991.91,-240.25 1010.47,-212.74 1006.75,-197.44 996.91,-165.75 988.06,-137.29 983.71,-127.02 958.91,-110.5 906.69,-75.73 832.6,-67.29 786.98,-65.65"/>
<polygon fill="#63b8ff" stroke="#63b8ff" points="787.35,-62.16 777.26,-65.41 787.17,-69.16 787.35,-62.16"/>
</a>
</g>
</g>
<!-- Node25&#45;&gt;Node9 -->
<g id="edge44_Node000025_Node000009" class="edge">
<title>Node25&#45;&gt;Node9</title>
<g id="a_edge44_Node000025_Node000009"><a xlink:title=" ">
<path fill="none" stroke="#63b8ff" d="M894.57,-275.94C868.57,-253.91 797.58,-196.56 728.91,-165.75 686.73,-146.83 635.13,-134.95 598.74,-128.24"/>
<polygon fill="#63b8ff" stroke="#63b8ff" points="599.43,-124.81 588.98,-126.51 598.21,-131.7 599.43,-124.81"/>
</a>
</g>
</g>
<!-- Node26 -->
<g id="Node000026" class="node">
<title>Node26</title>
<g id="a_Node000026"><a xlink:href="_ss_effect_behavior_8h.html" target="_top" xlink:title=" ">
<polygon fill="white" stroke="#666666" points="961.91,-240.25 861.91,-240.25 861.91,-221 961.91,-221 961.91,-240.25"/>
<text text-anchor="middle" x="911.91" y="-226.75" font-family="Helvetica,sans-Serif" font-size="10.00">SsEffectBehavior.h</text>
</a>
</g>
</g>
<!-- Node25&#45;&gt;Node26 -->
<g id="edge45_Node000025_Node000026" class="edge">
<title>Node25&#45;&gt;Node26</title>
<g id="a_edge45_Node000025_Node000026"><a xlink:title=" ">
<path fill="none" stroke="#63b8ff" d="M906.06,-276.08C906.93,-269.49 908.15,-260.21 909.25,-251.82"/>
<polygon fill="#63b8ff" stroke="#63b8ff" points="912.7,-252.48 910.53,-242.11 905.76,-251.57 912.7,-252.48"/>
</a>
</g>
</g>
<!-- Node26&#45;&gt;Node3 -->
<g id="edge50_Node000026_Node000003" class="edge">
<title>Node26&#45;&gt;Node3</title>
<g id="a_edge50_Node000026_Node000003"><a xlink:title=" ">
<path fill="none" stroke="#63b8ff" d="M928.63,-220.61C948.49,-208.67 977.35,-186.69 963.91,-165.75 924.81,-104.84 838.28,-80.6 786.77,-71.31"/>
<polygon fill="#63b8ff" stroke="#63b8ff" points="787.65,-67.91 777.21,-69.7 786.49,-74.81 787.65,-67.91"/>
</a>
</g>
</g>
<!-- Node26&#45;&gt;Node13 -->
<g id="edge51_Node000026_Node000013" class="edge">
<title>Node26&#45;&gt;Node13</title>
<g id="a_edge51_Node000026_Node000013"><a xlink:title=" ">
<path fill="none" stroke="#63b8ff" d="M861.68,-224.28C762.51,-213.71 543.33,-190.37 452.53,-180.7"/>
<polygon fill="#63b8ff" stroke="#63b8ff" points="453.17,-177.25 442.86,-179.67 452.43,-184.21 453.17,-177.25"/>
</a>
</g>
</g>
<!-- Node27 -->
<g id="Node000027" class="node">
<title>Node27</title>
<g id="a_Node000027"><a xlink:href="_ss_effect_element_8h.html" target="_top" xlink:title=" ">
<polygon fill="white" stroke="#666666" points="937.16,-185 838.66,-185 838.66,-165.75 937.16,-165.75 937.16,-185"/>
<text text-anchor="middle" x="887.91" y="-171.5" font-family="Helvetica,sans-Serif" font-size="10.00">SsEffectElement.h</text>
</a>
</g>
</g>
<!-- Node26&#45;&gt;Node27 -->
<g id="edge46_Node000026_Node000027" class="edge">
<title>Node26&#45;&gt;Node27</title>
<g id="a_edge46_Node000026_Node000027"><a xlink:title=" ">
<path fill="none" stroke="#63b8ff" d="M907.94,-220.83C904.87,-214.01 900.5,-204.31 896.62,-195.7"/>
<polygon fill="#63b8ff" stroke="#63b8ff" points="899.88,-194.42 892.58,-186.74 893.5,-197.29 899.88,-194.42"/>
</a>
</g>
</g>
<!-- Node26&#45;&gt;Node28 -->
<g id="edge52_Node000026_Node000028" class="edge">
<title>Node26&#45;&gt;Node28</title>
<g id="a_edge52_Node000026_Node000028"><a xlink:title=" ">
<path fill="none" stroke="#63b8ff" d="M954.6,-220.53C1002.45,-210.34 1079.27,-193.98 1124.75,-184.29"/>
<polygon fill="#63b8ff" stroke="#63b8ff" points="1125.34,-187.74 1134.39,-182.24 1123.88,-180.9 1125.34,-187.74"/>
</a>
</g>
</g>
<!-- Node27&#45;&gt;Node3 -->
<g id="edge47_Node000027_Node000003" class="edge">
<title>Node27&#45;&gt;Node3</title>
<g id="a_edge47_Node000027_Node000003"><a xlink:title=" ">
<path fill="none" stroke="#63b8ff" d="M876.29,-165.5C852.26,-147.14 796.83,-104.79 766.56,-81.66"/>
<polygon fill="#63b8ff" stroke="#63b8ff" points="768.96,-79.09 758.89,-75.8 764.71,-84.65 768.96,-79.09"/>
</a>
</g>
</g>
<!-- Node27&#45;&gt;Node9 -->
<g id="edge48_Node000027_Node000009" class="edge">
<title>Node27&#45;&gt;Node9</title>
<g id="a_edge48_Node000027_Node000009"><a xlink:title=" ">
<path fill="none" stroke="#63b8ff" d="M838.48,-166.52C773.71,-156.22 661.03,-138.31 598.32,-128.34"/>
<polygon fill="#63b8ff" stroke="#63b8ff" points="599.13,-124.93 588.71,-126.82 598.03,-131.84 599.13,-124.93"/>
</a>
</g>
</g>
<!-- Node27&#45;&gt;Node27 -->
<g id="edge49_Node000027_Node000027" class="edge">
<title>Node27&#45;&gt;Node27</title>
<g id="a_edge49_Node000027_Node000027"><a xlink:title=" ">
<path fill="none" stroke="#63b8ff" d="M923.2,-185.48C940.17,-186.73 955.16,-183.36 955.16,-175.38 955.16,-169.26 946.37,-165.85 934.64,-165.15"/>
<polygon fill="#63b8ff" stroke="#63b8ff" points="934.67,-161.65 924.71,-165.25 934.75,-168.65 934.67,-161.65"/>
</a>
</g>
</g>
<!-- Node29&#45;&gt;Node3 -->
<g id="edge54_Node000029_Node000003" class="edge">
<title>Node29&#45;&gt;Node3</title>
<g id="a_edge54_Node000029_Node000003"><a xlink:title=" ">
<path fill="none" stroke="#63b8ff" d="M725.09,-220.82C728.49,-195.5 738.37,-122 743.19,-86.09"/>
<polygon fill="#63b8ff" stroke="#63b8ff" points="746.65,-86.6 744.52,-76.22 739.72,-85.67 746.65,-86.6"/>
</a>
</g>
</g>
<!-- Node29&#45;&gt;Node9 -->
<g id="edge55_Node000029_Node000009" class="edge">
<title>Node29&#45;&gt;Node9</title>
<g id="a_edge55_Node000029_Node000009"><a xlink:title=" ">
<path fill="none" stroke="#63b8ff" d="M709.62,-220.56C680.25,-201.93 612.83,-159.15 576.74,-136.25"/>
<polygon fill="#63b8ff" stroke="#63b8ff" points="578.63,-133.3 568.31,-130.9 574.88,-139.21 578.63,-133.3"/>
</a>
</g>
</g>
<!-- Node31&#45;&gt;Node6 -->
<g id="edge64_Node000031_Node000006" class="edge">
<title>Node31&#45;&gt;Node6</title>
<g id="a_edge64_Node000031_Node000006"><a xlink:title=" ">
<path fill="none" stroke="#63b8ff" d="M73.98,-331.14C48.87,-314.76 0.91,-277.46 0.91,-231.62 0.91,-231.62 0.91,-231.62 0.91,-119.12 0.91,-89.51 -2.72,-74.36 19.91,-55.25 69.93,-13 273.33,-9.75 353.85,-10.17"/>
<polygon fill="#63b8ff" stroke="#63b8ff" points="353.71,-13.67 363.73,-10.25 353.76,-6.67 353.71,-13.67"/>
</a>
</g>
</g>
<!-- Node32&#45;&gt;Node3 -->
<g id="edge66_Node000032_Node000003" class="edge">
<title>Node32&#45;&gt;Node3</title>
<g id="a_edge66_Node000032_Node000003"><a xlink:title=" ">
<path fill="none" stroke="#63b8ff" d="M1244.65,-220.64C1235.27,-207.56 1216.56,-182.99 1196.91,-165.75 1162.75,-135.79 1153.64,-125.92 1110.91,-110.5 998.51,-69.94 855.35,-64.83 786.5,-65.02"/>
<polygon fill="#63b8ff" stroke="#63b8ff" points="786.8,-61.52 776.83,-65.09 786.85,-68.52 786.8,-61.52"/>
</a>
</g>
</g>
<!-- Node32&#45;&gt;Node28 -->
<g id="edge67_Node000032_Node000028" class="edge">
<title>Node32&#45;&gt;Node28</title>
<g id="a_edge67_Node000032_Node000028"><a xlink:title=" ">
<path fill="none" stroke="#63b8ff" d="M1235.81,-220.59C1222.38,-212.56 1202.5,-200.66 1186.73,-191.23"/>
<polygon fill="#63b8ff" stroke="#63b8ff" points="1188.76,-188.36 1178.38,-186.23 1185.16,-194.37 1188.76,-188.36"/>
</a>
</g>
</g>
</g>
</svg>
