<?xml version="1.0" encoding="UTF-8" standalone="no"?>
<!DOCTYPE svg PUBLIC "-//W3C//DTD SVG 1.1//EN"
 "http://www.w3.org/Graphics/SVG/1.1/DTD/svg11.dtd">
<!-- Generated by graphviz version 9.0.0 (20230911.1827)
 -->
<!-- Title: Common/Animator/ssplayer_types.h Pages: 1 -->
<svg width="1370pt" height="536pt"
 viewBox="0.00 0.00 1369.50 535.75" xmlns="http://www.w3.org/2000/svg" xmlns:xlink="http://www.w3.org/1999/xlink">
<g id="graph0" class="graph" transform="scale(1 1) rotate(0) translate(4 531.75)">
<title>Common/Animator/ssplayer_types.h</title>
<!-- Node1 -->
<g id="Node000001" class="node">
<title>Node1</title>
<g id="a_Node000001"><a xlink:title=" ">
<polygon fill="#999999" stroke="#666666" points="429.25,-527.75 291.75,-527.75 291.75,-497.25 429.25,-497.25 429.25,-527.75"/>
<text text-anchor="start" x="299.75" y="-514.25" font-family="Helvetica,sans-Serif" font-size="10.00">Common/Animator/ssplayer</text>
<text text-anchor="middle" x="360.5" y="-503" font-family="Helvetica,sans-Serif" font-size="10.00">_types.h</text>
</a>
</g>
</g>
<!-- Node2 -->
<g id="Node000002" class="node">
<title>Node2</title>
<g id="a_Node000002"><a xlink:href="ssloader_8h.html" target="_top" xlink:title=" ">
<polygon fill="white" stroke="#666666" points="650.25,-406 548.75,-406 548.75,-386.75 650.25,-386.75 650.25,-406"/>
<text text-anchor="middle" x="599.5" y="-392.5" font-family="Helvetica,sans-Serif" font-size="10.00">../Loader/ssloader.h</text>
</a>
</g>
</g>
<!-- Node1&#45;&gt;Node2 -->
<g id="edge1_Node000001_Node000002" class="edge">
<title>Node1&#45;&gt;Node2</title>
<g id="a_edge1_Node000001_Node000002"><a xlink:title=" ">
<path fill="none" stroke="#63b8ff" d="M391.26,-496.81C437.61,-474.68 524.78,-433.05 570.24,-411.35"/>
<polygon fill="#63b8ff" stroke="#63b8ff" points="571.71,-414.53 579.22,-407.06 568.69,-408.21 571.71,-414.53"/>
</a>
</g>
</g>
<!-- Node31 -->
<g id="Node000031" class="node">
<title>Node31</title>
<g id="a_Node000031"><a xlink:href="ss_helper_8h.html" target="_top" xlink:title=" ">
<polygon fill="white" stroke="#666666" points="372,-461.25 269,-461.25 269,-442 372,-442 372,-461.25"/>
<text text-anchor="middle" x="320.5" y="-447.75" font-family="Helvetica,sans-Serif" font-size="10.00">../Helper/ssHelper.h</text>
</a>
</g>
</g>
<!-- Node1&#45;&gt;Node31 -->
<g id="edge63_Node000001_Node000031" class="edge">
<title>Node1&#45;&gt;Node31</title>
<g id="a_edge63_Node000001_Node000031"><a xlink:title=" ">
<path fill="none" stroke="#63b8ff" d="M350.61,-496.95C345.28,-489.1 338.65,-479.35 332.97,-470.99"/>
<polygon fill="#63b8ff" stroke="#63b8ff" points="336.03,-469.26 327.52,-462.95 330.24,-473.19 336.03,-469.26"/>
</a>
</g>
</g>
<!-- Node3 -->
<g id="Node000003" class="node">
<title>Node3</title>
<g id="a_Node000003"><a xlink:href="sstypes_8h.html" target="_top" xlink:title=" ">
<polygon fill="white" stroke="#666666" points="990.88,-74.5 932.12,-74.5 932.12,-55.25 990.88,-55.25 990.88,-74.5"/>
<text text-anchor="middle" x="961.5" y="-61" font-family="Helvetica,sans-Serif" font-size="10.00">sstypes.h</text>
</a>
</g>
</g>
<!-- Node2&#45;&gt;Node3 -->
<g id="edge2_Node000002_Node000003" class="edge">
<title>Node2&#45;&gt;Node3</title>
<g id="a_edge2_Node000002_Node000003"><a xlink:title=" ">
<path fill="none" stroke="#63b8ff" d="M650.7,-393.1C815.8,-385.11 1323.5,-354.99 1323.5,-286.88 1323.5,-286.88 1323.5,-286.88 1323.5,-174.38 1323.5,-137.77 1303.35,-128.54 1271.5,-110.5 1226.25,-84.88 1075.57,-72.63 1002.26,-68.08"/>
<polygon fill="#63b8ff" stroke="#63b8ff" points="1002.89,-64.61 992.7,-67.5 1002.47,-71.6 1002.89,-64.61"/>
</a>
</g>
</g>
<!-- Node9 -->
<g id="Node000009" class="node">
<title>Node9</title>
<g id="a_Node000009"><a xlink:href="ssarchiver_8h.html" target="_top" xlink:title=" ">
<polygon fill="white" stroke="#666666" points="611.75,-129.75 543.25,-129.75 543.25,-110.5 611.75,-110.5 611.75,-129.75"/>
<text text-anchor="middle" x="577.5" y="-116.25" font-family="Helvetica,sans-Serif" font-size="10.00">ssarchiver.h</text>
</a>
</g>
</g>
<!-- Node2&#45;&gt;Node9 -->
<g id="edge8_Node000002_Node000009" class="edge">
<title>Node2&#45;&gt;Node9</title>
<g id="a_edge8_Node000002_Node000009"><a xlink:title=" ">
<path fill="none" stroke="#63b8ff" d="M548.38,-392.67C463.76,-384.93 300.4,-355.1 265.5,-240.25 249.07,-186.19 315.45,-185.19 368.5,-165.75 422.91,-145.81 488.72,-133.59 531.77,-127.09"/>
<polygon fill="#63b8ff" stroke="#63b8ff" points="532.12,-130.58 541.51,-125.67 531.11,-123.65 532.12,-130.58"/>
</a>
</g>
</g>
<!-- Node12 -->
<g id="Node000012" class="node">
<title>Node12</title>
<g id="a_Node000012"><a xlink:href="ssattribute_8h.html" target="_top" xlink:title=" ">
<polygon fill="white" stroke="#666666" points="1113.5,-240.25 1043.5,-240.25 1043.5,-221 1113.5,-221 1113.5,-240.25"/>
<text text-anchor="middle" x="1078.5" y="-226.75" font-family="Helvetica,sans-Serif" font-size="10.00">ssattribute.h</text>
</a>
</g>
</g>
<!-- Node2&#45;&gt;Node12 -->
<g id="edge14_Node000002_Node000012" class="edge">
<title>Node2&#45;&gt;Node12</title>
<g id="a_edge14_Node000002_Node000012"><a xlink:title=" ">
<path fill="none" stroke="#63b8ff" d="M625.94,-386.34C706.32,-358.86 947.99,-276.24 1041.24,-244.36"/>
<polygon fill="#63b8ff" stroke="#63b8ff" points="1042.09,-247.77 1050.42,-241.22 1039.83,-241.15 1042.09,-247.77"/>
</a>
</g>
</g>
<!-- Node20 -->
<g id="Node000020" class="node">
<title>Node20</title>
<g id="a_Node000020"><a xlink:href="ss_interpolation_8h.html" target="_top" xlink:title=" ">
<polygon fill="white" stroke="#666666" points="1257.5,-185 1169.5,-185 1169.5,-165.75 1257.5,-165.75 1257.5,-185"/>
<text text-anchor="middle" x="1213.5" y="-171.5" font-family="Helvetica,sans-Serif" font-size="10.00">ssInterpolation.h</text>
</a>
</g>
</g>
<!-- Node2&#45;&gt;Node20 -->
<g id="edge62_Node000002_Node000020" class="edge">
<title>Node2&#45;&gt;Node20</title>
<g id="a_edge62_Node000002_Node000020"><a xlink:title=" ">
<path fill="none" stroke="#63b8ff" d="M636.04,-386.31C671.12,-377.52 725.55,-363.67 772.5,-350.75 941.26,-304.33 1000.23,-329.99 1150.5,-240.25 1170.49,-228.31 1188.62,-208.53 1200.24,-194.14"/>
<polygon fill="#63b8ff" stroke="#63b8ff" points="1202.89,-196.44 1206.26,-186.4 1197.36,-192.14 1202.89,-196.44"/>
</a>
</g>
</g>
<!-- Node22 -->
<g id="Node000022" class="node">
<title>Node22</title>
<g id="a_Node000022"><a xlink:href="ssloader__sspj_8h.html" target="_top" xlink:title=" ">
<polygon fill="white" stroke="#666666" points="563.62,-350.75 479.38,-350.75 479.38,-331.5 563.62,-331.5 563.62,-350.75"/>
<text text-anchor="middle" x="521.5" y="-337.25" font-family="Helvetica,sans-Serif" font-size="10.00">ssloader_sspj.h</text>
</a>
</g>
</g>
<!-- Node2&#45;&gt;Node22 -->
<g id="edge31_Node000002_Node000022" class="edge">
<title>Node2&#45;&gt;Node22</title>
<g id="a_edge31_Node000002_Node000022"><a xlink:title=" ">
<path fill="none" stroke="#63b8ff" d="M586.27,-386.34C574.73,-378.46 557.73,-366.86 544.05,-357.52"/>
<polygon fill="#63b8ff" stroke="#63b8ff" points="546.28,-354.8 536.05,-352.06 542.33,-360.58 546.28,-354.8"/>
</a>
</g>
</g>
<!-- Node23 -->
<g id="Node000023" class="node">
<title>Node23</title>
<g id="a_Node000023"><a xlink:href="ssloader__ssae_8h.html" target="_top" xlink:title=" ">
<polygon fill="white" stroke="#666666" points="820.12,-295.5 732.88,-295.5 732.88,-276.25 820.12,-276.25 820.12,-295.5"/>
<text text-anchor="middle" x="776.5" y="-282" font-family="Helvetica,sans-Serif" font-size="10.00">ssloader_ssae.h</text>
</a>
</g>
</g>
<!-- Node2&#45;&gt;Node23 -->
<g id="edge58_Node000002_Node000023" class="edge">
<title>Node2&#45;&gt;Node23</title>
<g id="a_edge58_Node000002_Node000023"><a xlink:title=" ">
<path fill="none" stroke="#63b8ff" d="M614.29,-386.31C644.82,-367.6 715.08,-324.53 752.31,-301.7"/>
<polygon fill="#63b8ff" stroke="#63b8ff" points="753.89,-304.84 760.59,-296.63 750.23,-298.87 753.89,-304.84"/>
</a>
</g>
</g>
<!-- Node24 -->
<g id="Node000024" class="node">
<title>Node24</title>
<g id="a_Node000024"><a xlink:href="ssloader__ssce_8h.html" target="_top" xlink:title=" ">
<polygon fill="white" stroke="#666666" points="568.12,-240.25 480.88,-240.25 480.88,-221 568.12,-221 568.12,-240.25"/>
<text text-anchor="middle" x="524.5" y="-226.75" font-family="Helvetica,sans-Serif" font-size="10.00">ssloader_ssce.h</text>
</a>
</g>
</g>
<!-- Node2&#45;&gt;Node24 -->
<g id="edge59_Node000002_Node000024" class="edge">
<title>Node2&#45;&gt;Node24</title>
<g id="a_edge59_Node000002_Node000024"><a xlink:title=" ">
<path fill="none" stroke="#63b8ff" d="M597.17,-386.35C591.7,-365.99 576.97,-315.17 556.5,-276.25 551.63,-267 545.06,-257.48 539.14,-249.62"/>
<polygon fill="#63b8ff" stroke="#63b8ff" points="542.02,-247.62 533.1,-241.9 536.5,-251.93 542.02,-247.62"/>
</a>
</g>
</g>
<!-- Node25 -->
<g id="Node000025" class="node">
<title>Node25</title>
<g id="a_Node000025"><a xlink:href="ssloader__ssee_8h.html" target="_top" xlink:title=" ">
<polygon fill="white" stroke="#666666" points="715.12,-295.5 627.88,-295.5 627.88,-276.25 715.12,-276.25 715.12,-295.5"/>
<text text-anchor="middle" x="671.5" y="-282" font-family="Helvetica,sans-Serif" font-size="10.00">ssloader_ssee.h</text>
</a>
</g>
</g>
<!-- Node2&#45;&gt;Node25 -->
<g id="edge60_Node000002_Node000025" class="edge">
<title>Node2&#45;&gt;Node25</title>
<g id="a_edge60_Node000002_Node000025"><a xlink:title=" ">
<path fill="none" stroke="#63b8ff" d="M605.39,-386.5C617.1,-368.85 643.51,-329.05 659.18,-305.45"/>
<polygon fill="#63b8ff" stroke="#63b8ff" points="662.08,-307.41 664.69,-297.14 656.24,-303.53 662.08,-307.41"/>
</a>
</g>
</g>
<!-- Node29 -->
<g id="Node000029" class="node">
<title>Node29</title>
<g id="a_Node000029"><a xlink:href="ssloader__ssqe_8h.html" target="_top" xlink:title=" ">
<polygon fill="white" stroke="#666666" points="399.12,-295.5 311.88,-295.5 311.88,-276.25 399.12,-276.25 399.12,-295.5"/>
<text text-anchor="middle" x="355.5" y="-282" font-family="Helvetica,sans-Serif" font-size="10.00">ssloader_ssqe.h</text>
</a>
</g>
</g>
<!-- Node2&#45;&gt;Node29 -->
<g id="edge61_Node000002_Node000029" class="edge">
<title>Node2&#45;&gt;Node29</title>
<g id="a_edge61_Node000002_Node000029"><a xlink:title=" ">
<path fill="none" stroke="#63b8ff" d="M568.42,-386.3C541.93,-378.16 503.07,-365.29 470.5,-350.75 437.95,-336.21 402.34,-315.66 379.5,-301.82"/>
<polygon fill="#63b8ff" stroke="#63b8ff" points="381.61,-299.01 371.25,-296.78 377.96,-304.98 381.61,-299.01"/>
</a>
</g>
</g>
<!-- Node4 -->
<g id="Node000004" class="node">
<title>Node4</title>
<g id="a_Node000004"><a xlink:title=" ">
<polygon fill="#e0e0e0" stroke="#999999" points="985.25,-19.25 937.75,-19.25 937.75,0 985.25,0 985.25,-19.25"/>
<text text-anchor="middle" x="961.5" y="-5.75" font-family="Helvetica,sans-Serif" font-size="10.00">stdlib.h</text>
</a>
</g>
</g>
<!-- Node3&#45;&gt;Node4 -->
<g id="edge3_Node000003_Node000004" class="edge">
<title>Node3&#45;&gt;Node4</title>
<g id="a_edge3_Node000003_Node000004"><a xlink:title=" ">
<path fill="none" stroke="#63b8ff" d="M961.5,-55.08C961.5,-48.57 961.5,-39.42 961.5,-31.12"/>
<polygon fill="#63b8ff" stroke="#63b8ff" points="965,-31.12 961.5,-21.12 958,-31.12 965,-31.12"/>
</a>
</g>
</g>
<!-- Node5 -->
<g id="Node000005" class="node">
<title>Node5</title>
<g id="a_Node000005"><a xlink:title=" ">
<polygon fill="#e0e0e0" stroke="#999999" points="266.5,-19.25 226.5,-19.25 226.5,0 266.5,0 266.5,-19.25"/>
<text text-anchor="middle" x="246.5" y="-5.75" font-family="Helvetica,sans-Serif" font-size="10.00">string</text>
</a>
</g>
</g>
<!-- Node3&#45;&gt;Node5 -->
<g id="edge4_Node000003_Node000005" class="edge">
<title>Node3&#45;&gt;Node5</title>
<g id="a_edge4_Node000003_Node000005"><a xlink:title=" ">
<path fill="none" stroke="#63b8ff" d="M931.69,-61.65C815.94,-53.03 396.87,-21.82 278.08,-12.98"/>
<polygon fill="#63b8ff" stroke="#63b8ff" points="278.67,-9.51 268.44,-12.26 278.15,-16.49 278.67,-9.51"/>
</a>
</g>
</g>
<!-- Node6 -->
<g id="Node000006" class="node">
<title>Node6</title>
<g id="a_Node000006"><a xlink:title=" ">
<polygon fill="#e0e0e0" stroke="#999999" points="623,-19.25 580,-19.25 580,0 623,0 623,-19.25"/>
<text text-anchor="middle" x="601.5" y="-5.75" font-family="Helvetica,sans-Serif" font-size="10.00">vector</text>
</a>
</g>
</g>
<!-- Node3&#45;&gt;Node6 -->
<g id="edge5_Node000003_Node000006" class="edge">
<title>Node3&#45;&gt;Node6</title>
<g id="a_edge5_Node000003_Node000006"><a xlink:title=" ">
<path fill="none" stroke="#63b8ff" d="M931.73,-59.47C865.01,-49.6 703.89,-25.77 634.35,-15.48"/>
<polygon fill="#63b8ff" stroke="#63b8ff" points="635.14,-12.06 624.74,-14.06 634.12,-18.99 635.14,-12.06"/>
</a>
</g>
</g>
<!-- Node7 -->
<g id="Node000007" class="node">
<title>Node7</title>
<g id="a_Node000007"><a xlink:title=" ">
<polygon fill="#e0e0e0" stroke="#999999" points="1046,-19.25 1003,-19.25 1003,0 1046,0 1046,-19.25"/>
<text text-anchor="middle" x="1024.5" y="-5.75" font-family="Helvetica,sans-Serif" font-size="10.00">cmath</text>
</a>
</g>
</g>
<!-- Node3&#45;&gt;Node7 -->
<g id="edge6_Node000003_Node000007" class="edge">
<title>Node3&#45;&gt;Node7</title>
<g id="a_edge6_Node000003_Node000007"><a xlink:title=" ">
<path fill="none" stroke="#63b8ff" d="M972.19,-54.84C981.2,-47.22 994.33,-36.12 1005.18,-26.95"/>
<polygon fill="#63b8ff" stroke="#63b8ff" points="1007.44,-29.63 1012.81,-20.5 1002.92,-24.28 1007.44,-29.63"/>
</a>
</g>
</g>
<!-- Node8 -->
<g id="Node000008" class="node">
<title>Node8</title>
<g id="a_Node000008"><a xlink:title=" ">
<polygon fill="#e0e0e0" stroke="#999999" points="919.38,-19.25 863.62,-19.25 863.62,0 919.38,0 919.38,-19.25"/>
<text text-anchor="middle" x="891.5" y="-5.75" font-family="Helvetica,sans-Serif" font-size="10.00">algorithm</text>
</a>
</g>
</g>
<!-- Node3&#45;&gt;Node8 -->
<g id="edge7_Node000003_Node000008" class="edge">
<title>Node3&#45;&gt;Node8</title>
<g id="a_edge7_Node000003_Node000008"><a xlink:title=" ">
<path fill="none" stroke="#63b8ff" d="M949.63,-54.84C939.41,-47.07 924.43,-35.67 912.24,-26.4"/>
<polygon fill="#63b8ff" stroke="#63b8ff" points="914.48,-23.71 904.4,-20.44 910.24,-29.28 914.48,-23.71"/>
</a>
</g>
</g>
<!-- Node9&#45;&gt;Node3 -->
<g id="edge10_Node000009_Node000003" class="edge">
<title>Node9&#45;&gt;Node3</title>
<g id="a_edge10_Node000009_Node000003"><a xlink:title=" ">
<path fill="none" stroke="#63b8ff" d="M611.92,-114.35C682.83,-104.52 844.93,-82.04 920.86,-71.51"/>
<polygon fill="#63b8ff" stroke="#63b8ff" points="920.92,-75.04 930.35,-70.2 919.96,-68.1 920.92,-75.04"/>
</a>
</g>
</g>
<!-- Node9&#45;&gt;Node5 -->
<g id="edge11_Node000009_Node000005" class="edge">
<title>Node9&#45;&gt;Node5</title>
<g id="a_edge11_Node000009_Node000005"><a xlink:title=" ">
<path fill="none" stroke="#63b8ff" d="M549.85,-110.06C488.58,-89.98 341.75,-41.85 277.5,-20.79"/>
<polygon fill="#63b8ff" stroke="#63b8ff" points="278.88,-17.56 268.29,-17.77 276.7,-24.21 278.88,-17.56"/>
</a>
</g>
</g>
<!-- Node9&#45;&gt;Node6 -->
<g id="edge12_Node000009_Node000006" class="edge">
<title>Node9&#45;&gt;Node6</title>
<g id="a_edge12_Node000009_Node000006"><a xlink:title=" ">
<path fill="none" stroke="#63b8ff" d="M579.46,-110.25C583.28,-93 591.78,-54.58 597.03,-30.81"/>
<polygon fill="#63b8ff" stroke="#63b8ff" points="600.44,-31.62 599.18,-21.1 593.6,-30.11 600.44,-31.62"/>
</a>
</g>
</g>
<!-- Node10 -->
<g id="Node000010" class="node">
<title>Node10</title>
<g id="a_Node000010"><a xlink:title=" ">
<polygon fill="#e0e0e0" stroke="#999999" points="573.88,-74.5 467.12,-74.5 467.12,-55.25 573.88,-55.25 573.88,-74.5"/>
<text text-anchor="middle" x="520.5" y="-61" font-family="Helvetica,sans-Serif" font-size="10.00">./tinyxml2/tinyxml2.h</text>
</a>
</g>
</g>
<!-- Node9&#45;&gt;Node10 -->
<g id="edge9_Node000009_Node000010" class="edge">
<title>Node9&#45;&gt;Node10</title>
<g id="a_edge9_Node000009_Node000010"><a xlink:title=" ">
<path fill="none" stroke="#63b8ff" d="M567.83,-110.09C559.76,-102.55 548.03,-91.6 538.28,-82.48"/>
<polygon fill="#63b8ff" stroke="#63b8ff" points="540.83,-80.08 531.13,-75.81 536.05,-85.19 540.83,-80.08"/>
</a>
</g>
</g>
<!-- Node11 -->
<g id="Node000011" class="node">
<title>Node11</title>
<g id="a_Node000011"><a xlink:title=" ">
<polygon fill="#e0e0e0" stroke="#999999" points="769.88,-74.5 735.12,-74.5 735.12,-55.25 769.88,-55.25 769.88,-74.5"/>
<text text-anchor="middle" x="752.5" y="-61" font-family="Helvetica,sans-Serif" font-size="10.00">map</text>
</a>
</g>
</g>
<!-- Node9&#45;&gt;Node11 -->
<g id="edge13_Node000009_Node000011" class="edge">
<title>Node9&#45;&gt;Node11</title>
<g id="a_edge13_Node000009_Node000011"><a xlink:title=" ">
<path fill="none" stroke="#63b8ff" d="M607.19,-110.09C639.84,-100.16 691.94,-84.3 724.08,-74.52"/>
<polygon fill="#63b8ff" stroke="#63b8ff" points="724.95,-77.92 733.5,-71.66 722.92,-71.22 724.95,-77.92"/>
</a>
</g>
</g>
<!-- Node12&#45;&gt;Node3 -->
<g id="edge15_Node000012_Node000003" class="edge">
<title>Node12&#45;&gt;Node3</title>
<g id="a_edge15_Node000012_Node000003"><a xlink:title=" ">
<path fill="none" stroke="#63b8ff" d="M1081.78,-220.55C1088.9,-199.17 1103.25,-144.87 1079.5,-110.5 1062.23,-85.51 1029.04,-74.5 1002.25,-69.66"/>
<polygon fill="#63b8ff" stroke="#63b8ff" points="1003.14,-66.25 992.72,-68.17 1002.06,-73.17 1003.14,-66.25"/>
</a>
</g>
</g>
<!-- Node12&#45;&gt;Node11 -->
<g id="edge30_Node000012_Node000011" class="edge">
<title>Node12&#45;&gt;Node11</title>
<g id="a_edge30_Node000012_Node000011"><a xlink:title=" ">
<path fill="none" stroke="#63b8ff" d="M1060.51,-220.59C1006.39,-193.4 844.85,-112.26 779.94,-79.66"/>
<polygon fill="#63b8ff" stroke="#63b8ff" points="781.9,-76.72 771.39,-75.36 778.76,-82.98 781.9,-76.72"/>
</a>
</g>
</g>
<!-- Node13 -->
<g id="Node000013" class="node">
<title>Node13</title>
<g id="a_Node000013"><a xlink:href="ssvalue_8h.html" target="_top" xlink:title=" ">
<polygon fill="white" stroke="#666666" points="717.5,-185 659.5,-185 659.5,-165.75 717.5,-165.75 717.5,-185"/>
<text text-anchor="middle" x="688.5" y="-171.5" font-family="Helvetica,sans-Serif" font-size="10.00">ssvalue.h</text>
</a>
</g>
</g>
<!-- Node12&#45;&gt;Node13 -->
<g id="edge16_Node000012_Node000013" class="edge">
<title>Node12&#45;&gt;Node13</title>
<g id="a_edge16_Node000012_Node000013"><a xlink:title=" ">
<path fill="none" stroke="#63b8ff" d="M1043.11,-226.29C981.39,-220.22 849.89,-206.19 729.17,-185.32"/>
<polygon fill="#63b8ff" stroke="#63b8ff" points="729.85,-181.88 719.39,-183.61 728.64,-188.78 729.85,-181.88"/>
</a>
</g>
</g>
<!-- Node12&#45;&gt;Node20 -->
<g id="edge28_Node000012_Node000020" class="edge">
<title>Node12&#45;&gt;Node20</title>
<g id="a_edge28_Node000012_Node000020"><a xlink:title=" ">
<path fill="none" stroke="#63b8ff" d="M1101.4,-220.59C1122.93,-212.1 1155.41,-199.29 1179.88,-189.64"/>
<polygon fill="#63b8ff" stroke="#63b8ff" points="1181.06,-192.93 1189.08,-186.01 1178.49,-186.42 1181.06,-192.93"/>
</a>
</g>
</g>
<!-- Node21 -->
<g id="Node000021" class="node">
<title>Node21</title>
<g id="a_Node000021"><a xlink:title=" ">
<polygon fill="#e0e0e0" stroke="#999999" points="565.9,-185 537.1,-185 537.1,-165.75 565.9,-165.75 565.9,-185"/>
<text text-anchor="middle" x="551.5" y="-171.5" font-family="Helvetica,sans-Serif" font-size="10.00">list</text>
</a>
</g>
</g>
<!-- Node12&#45;&gt;Node21 -->
<g id="edge29_Node000012_Node000021" class="edge">
<title>Node12&#45;&gt;Node21</title>
<g id="a_edge29_Node000012_Node000021"><a xlink:title=" ">
<path fill="none" stroke="#63b8ff" d="M1043.1,-226.05C943.9,-216.02 664.75,-187.82 577.74,-179.03"/>
<polygon fill="#63b8ff" stroke="#63b8ff" points="578.15,-175.55 567.85,-178.03 577.44,-182.51 578.15,-175.55"/>
</a>
</g>
</g>
<!-- Node13&#45;&gt;Node6 -->
<g id="edge26_Node000013_Node000006" class="edge">
<title>Node13&#45;&gt;Node6</title>
<g id="a_edge26_Node000013_Node000006"><a xlink:title=" ">
<path fill="none" stroke="#63b8ff" d="M683.82,-165.57C670.19,-139.92 630.29,-64.8 611.5,-29.44"/>
<polygon fill="#63b8ff" stroke="#63b8ff" points="614.69,-28 606.91,-20.81 608.51,-31.28 614.69,-28"/>
</a>
</g>
</g>
<!-- Node13&#45;&gt;Node9 -->
<g id="edge17_Node000013_Node000009" class="edge">
<title>Node13&#45;&gt;Node9</title>
<g id="a_edge17_Node000013_Node000009"><a xlink:title=" ">
<path fill="none" stroke="#63b8ff" d="M669.67,-165.34C652.45,-157.08 626.7,-144.73 606.79,-135.18"/>
<polygon fill="#63b8ff" stroke="#63b8ff" points="608.32,-132.03 597.79,-130.86 605.29,-138.34 608.32,-132.03"/>
</a>
</g>
</g>
<!-- Node13&#45;&gt;Node11 -->
<g id="edge25_Node000013_Node000011" class="edge">
<title>Node13&#45;&gt;Node11</title>
<g id="a_edge25_Node000013_Node000011"><a xlink:title=" ">
<path fill="none" stroke="#63b8ff" d="M687.59,-165.47C686.7,-152.5 686.66,-128.04 696.5,-110.5 703.25,-98.46 714.68,-88.47 725.46,-81.02"/>
<polygon fill="#63b8ff" stroke="#63b8ff" points="727.21,-84.06 733.74,-75.72 723.44,-78.16 727.21,-84.06"/>
</a>
</g>
</g>
<!-- Node14 -->
<g id="Node000014" class="node">
<title>Node14</title>
<g id="a_Node000014"><a xlink:href="ssstring__uty_8h.html" target="_top" xlink:title=" ">
<polygon fill="white" stroke="#666666" points="283.5,-129.75 207.5,-129.75 207.5,-110.5 283.5,-110.5 283.5,-129.75"/>
<text text-anchor="middle" x="245.5" y="-116.25" font-family="Helvetica,sans-Serif" font-size="10.00">ssstring_uty.h</text>
</a>
</g>
</g>
<!-- Node13&#45;&gt;Node14 -->
<g id="edge18_Node000013_Node000014" class="edge">
<title>Node13&#45;&gt;Node14</title>
<g id="a_edge18_Node000013_Node000014"><a xlink:title=" ">
<path fill="none" stroke="#63b8ff" d="M659.09,-170.84C584.59,-161.88 387.8,-138.23 295.11,-127.09"/>
<polygon fill="#63b8ff" stroke="#63b8ff" points="295.66,-123.63 285.31,-125.91 294.82,-130.58 295.66,-123.63"/>
</a>
</g>
</g>
<!-- Node19 -->
<g id="Node000019" class="node">
<title>Node19</title>
<g id="a_Node000019"><a xlink:title=" ">
<polygon fill="#e0e0e0" stroke="#999999" points="753.62,-129.75 705.38,-129.75 705.38,-110.5 753.62,-110.5 753.62,-129.75"/>
<text text-anchor="middle" x="729.5" y="-116.25" font-family="Helvetica,sans-Serif" font-size="10.00">cassert</text>
</a>
</g>
</g>
<!-- Node13&#45;&gt;Node19 -->
<g id="edge27_Node000013_Node000019" class="edge">
<title>Node13&#45;&gt;Node19</title>
<g id="a_edge27_Node000013_Node000019"><a xlink:title=" ">
<path fill="none" stroke="#63b8ff" d="M695.27,-165.58C700.82,-158.38 708.84,-147.96 715.73,-139.01"/>
<polygon fill="#63b8ff" stroke="#63b8ff" points="718.33,-141.37 721.66,-131.31 712.79,-137.1 718.33,-141.37"/>
</a>
</g>
</g>
<!-- Node14&#45;&gt;Node5 -->
<g id="edge19_Node000014_Node000005" class="edge">
<title>Node14&#45;&gt;Node5</title>
<g id="a_edge19_Node000014_Node000005"><a xlink:title=" ">
<path fill="none" stroke="#63b8ff" d="M207.06,-118.04C145.61,-114.9 35.7,-102.68 72.5,-55.25 89.79,-32.97 169.48,-19.9 214.78,-14.14"/>
<polygon fill="#63b8ff" stroke="#63b8ff" points="215.03,-17.64 224.53,-12.96 214.18,-10.69 215.03,-17.64"/>
</a>
</g>
</g>
<!-- Node14&#45;&gt;Node6 -->
<g id="edge21_Node000014_Node000006" class="edge">
<title>Node14&#45;&gt;Node6</title>
<g id="a_edge21_Node000014_Node000006"><a xlink:title=" ">
<path fill="none" stroke="#63b8ff" d="M265.71,-110.02C304.74,-92.43 386.72,-55.5 387.5,-55.25 449.89,-34.98 525.58,-21.74 568.18,-15.28"/>
<polygon fill="#63b8ff" stroke="#63b8ff" points="568.65,-18.74 578.03,-13.82 567.63,-11.82 568.65,-18.74"/>
</a>
</g>
</g>
<!-- Node15 -->
<g id="Node000015" class="node">
<title>Node15</title>
<g id="a_Node000015"><a xlink:title=" ">
<polygon fill="#e0e0e0" stroke="#999999" points="131,-74.5 82,-74.5 82,-55.25 131,-55.25 131,-74.5"/>
<text text-anchor="middle" x="106.5" y="-61" font-family="Helvetica,sans-Serif" font-size="10.00">fstream</text>
</a>
</g>
</g>
<!-- Node14&#45;&gt;Node15 -->
<g id="edge20_Node000014_Node000015" class="edge">
<title>Node14&#45;&gt;Node15</title>
<g id="a_edge20_Node000014_Node000015"><a xlink:title=" ">
<path fill="none" stroke="#63b8ff" d="M221.92,-110.09C199.66,-101.56 166.01,-88.67 140.78,-79.01"/>
<polygon fill="#63b8ff" stroke="#63b8ff" points="142.2,-75.8 131.61,-75.49 139.69,-82.34 142.2,-75.8"/>
</a>
</g>
</g>
<!-- Node16 -->
<g id="Node000016" class="node">
<title>Node16</title>
<g id="a_Node000016"><a xlink:title=" ">
<polygon fill="#e0e0e0" stroke="#999999" points="202.25,-74.5 148.75,-74.5 148.75,-55.25 202.25,-55.25 202.25,-74.5"/>
<text text-anchor="middle" x="175.5" y="-61" font-family="Helvetica,sans-Serif" font-size="10.00">iostream</text>
</a>
</g>
</g>
<!-- Node14&#45;&gt;Node16 -->
<g id="edge22_Node000014_Node000016" class="edge">
<title>Node14&#45;&gt;Node16</title>
<g id="a_edge22_Node000014_Node000016"><a xlink:title=" ">
<path fill="none" stroke="#63b8ff" d="M233.63,-110.09C223.41,-102.32 208.43,-90.92 196.24,-81.65"/>
<polygon fill="#63b8ff" stroke="#63b8ff" points="198.48,-78.96 188.4,-75.69 194.24,-84.53 198.48,-78.96"/>
</a>
</g>
</g>
<!-- Node17 -->
<g id="Node000017" class="node">
<title>Node17</title>
<g id="a_Node000017"><a xlink:title=" ">
<polygon fill="#e0e0e0" stroke="#999999" points="271.12,-74.5 219.88,-74.5 219.88,-55.25 271.12,-55.25 271.12,-74.5"/>
<text text-anchor="middle" x="245.5" y="-61" font-family="Helvetica,sans-Serif" font-size="10.00">sstream</text>
</a>
</g>
</g>
<!-- Node14&#45;&gt;Node17 -->
<g id="edge23_Node000014_Node000017" class="edge">
<title>Node14&#45;&gt;Node17</title>
<g id="a_edge23_Node000014_Node000017"><a xlink:title=" ">
<path fill="none" stroke="#63b8ff" d="M245.5,-110.33C245.5,-103.82 245.5,-94.67 245.5,-86.37"/>
<polygon fill="#63b8ff" stroke="#63b8ff" points="249,-86.37 245.5,-76.37 242,-86.37 249,-86.37"/>
</a>
</g>
</g>
<!-- Node18 -->
<g id="Node000018" class="node">
<title>Node18</title>
<g id="a_Node000018"><a xlink:title=" ">
<polygon fill="#e0e0e0" stroke="#999999" points="335.5,-74.5 289.5,-74.5 289.5,-55.25 335.5,-55.25 335.5,-74.5"/>
<text text-anchor="middle" x="312.5" y="-61" font-family="Helvetica,sans-Serif" font-size="10.00">iterator</text>
</a>
</g>
</g>
<!-- Node14&#45;&gt;Node18 -->
<g id="edge24_Node000014_Node000018" class="edge">
<title>Node14&#45;&gt;Node18</title>
<g id="a_edge24_Node000014_Node000018"><a xlink:title=" ">
<path fill="none" stroke="#63b8ff" d="M256.87,-110.09C266.55,-102.4 280.7,-91.15 292.31,-81.93"/>
<polygon fill="#63b8ff" stroke="#63b8ff" points="294.47,-84.68 300.12,-75.72 290.11,-79.2 294.47,-84.68"/>
</a>
</g>
</g>
<!-- Node22&#45;&gt;Node3 -->
<g id="edge32_Node000022_Node000003" class="edge">
<title>Node22&#45;&gt;Node3</title>
<g id="a_edge32_Node000022_Node000003"><a xlink:title=" ">
<path fill="none" stroke="#63b8ff" d="M564.04,-338.81C710.66,-333.23 1190.2,-305.86 1266.5,-185 1328.26,-87.17 1099.07,-69.6 1002.5,-66.51"/>
<polygon fill="#63b8ff" stroke="#63b8ff" points="1002.74,-63.01 992.65,-66.23 1002.55,-70.01 1002.74,-63.01"/>
</a>
</g>
</g>
<!-- Node22&#45;&gt;Node9 -->
<g id="edge33_Node000022_Node000009" class="edge">
<title>Node22&#45;&gt;Node9</title>
<g id="a_edge33_Node000022_Node000009"><a xlink:title=" ">
<path fill="none" stroke="#63b8ff" d="M508.86,-331.13C473.01,-304.54 376.11,-224.51 420.5,-165.75 433.97,-147.92 490.4,-135.13 531.77,-127.93"/>
<polygon fill="#63b8ff" stroke="#63b8ff" points="532.21,-131.4 541.5,-126.3 531.06,-124.5 532.21,-131.4"/>
</a>
</g>
</g>
<!-- Node22&#45;&gt;Node14 -->
<g id="edge34_Node000022_Node000014" class="edge">
<title>Node22&#45;&gt;Node14</title>
<g id="a_edge34_Node000022_Node000014"><a xlink:title=" ">
<path fill="none" stroke="#63b8ff" d="M479.16,-340.76C432.19,-339.49 355.99,-331.38 302.5,-295.5 251.41,-261.23 244.97,-179.4 244.88,-141.29"/>
<polygon fill="#63b8ff" stroke="#63b8ff" points="248.38,-141.74 245.02,-131.69 241.38,-141.64 248.38,-141.74"/>
</a>
</g>
</g>
<!-- Node22&#45;&gt;Node23 -->
<g id="edge35_Node000022_Node000023" class="edge">
<title>Node22&#45;&gt;Node23</title>
<g id="a_edge35_Node000022_Node000023"><a xlink:title=" ">
<path fill="none" stroke="#63b8ff" d="M563.89,-331.27C607.2,-322.23 674.61,-308.15 721.89,-298.28"/>
<polygon fill="#63b8ff" stroke="#63b8ff" points="722.6,-301.71 731.67,-296.24 721.16,-294.85 722.6,-301.71"/>
</a>
</g>
</g>
<!-- Node22&#45;&gt;Node24 -->
<g id="edge39_Node000022_Node000024" class="edge">
<title>Node22&#45;&gt;Node24</title>
<g id="a_edge39_Node000022_Node000024"><a xlink:title=" ">
<path fill="none" stroke="#63b8ff" d="M527.08,-331.32C532.24,-322.61 539.55,-308.7 542.5,-295.5 545.89,-280.35 540.72,-263.45 535.07,-250.84"/>
<polygon fill="#63b8ff" stroke="#63b8ff" points="538.25,-249.38 530.65,-242 531.99,-252.51 538.25,-249.38"/>
</a>
</g>
</g>
<!-- Node22&#45;&gt;Node25 -->
<g id="edge42_Node000022_Node000025" class="edge">
<title>Node22&#45;&gt;Node25</title>
<g id="a_edge42_Node000022_Node000025"><a xlink:title=" ">
<path fill="none" stroke="#63b8ff" d="M546.95,-331.09C571.19,-322.49 607.93,-309.44 635.24,-299.75"/>
<polygon fill="#63b8ff" stroke="#63b8ff" points="636.25,-303.1 644.5,-296.46 633.91,-296.51 636.25,-303.1"/>
</a>
</g>
</g>
<!-- Node28 -->
<g id="Node000028" class="node">
<title>Node28</title>
<g id="a_Node000028"><a xlink:title=" ">
<polygon fill="#e0e0e0" stroke="#999999" points="481.12,-185 429.88,-185 429.88,-165.75 481.12,-165.75 481.12,-185"/>
<text text-anchor="middle" x="455.5" y="-171.5" font-family="Helvetica,sans-Serif" font-size="10.00">memory</text>
</a>
</g>
</g>
<!-- Node22&#45;&gt;Node28 -->
<g id="edge56_Node000022_Node000028" class="edge">
<title>Node22&#45;&gt;Node28</title>
<g id="a_edge56_Node000022_Node000028"><a xlink:title=" ">
<path fill="none" stroke="#63b8ff" d="M511.87,-331.11C503.43,-322.68 491.46,-309.35 484.5,-295.5 468.22,-263.09 460.76,-221.06 457.6,-196.56"/>
<polygon fill="#63b8ff" stroke="#63b8ff" points="461.09,-196.25 456.46,-186.72 454.13,-197.05 461.09,-196.25"/>
</a>
</g>
</g>
<!-- Node22&#45;&gt;Node29 -->
<g id="edge53_Node000022_Node000029" class="edge">
<title>Node22&#45;&gt;Node29</title>
<g id="a_edge53_Node000022_Node000029"><a xlink:title=" ">
<path fill="none" stroke="#63b8ff" d="M493.34,-331.09C466.15,-322.37 424.76,-309.09 394.43,-299.36"/>
<polygon fill="#63b8ff" stroke="#63b8ff" points="395.83,-296.14 385.24,-296.41 393.69,-302.8 395.83,-296.14"/>
</a>
</g>
</g>
<!-- Node30 -->
<g id="Node000030" class="node">
<title>Node30</title>
<g id="a_Node000030"><a xlink:title=" ">
<polygon fill="#e0e0e0" stroke="#999999" points="533.12,-295.5 493.88,-295.5 493.88,-276.25 533.12,-276.25 533.12,-295.5"/>
<text text-anchor="middle" x="513.5" y="-282" font-family="Helvetica,sans-Serif" font-size="10.00">utility</text>
</a>
</g>
</g>
<!-- Node22&#45;&gt;Node30 -->
<g id="edge57_Node000022_Node000030" class="edge">
<title>Node22&#45;&gt;Node30</title>
<g id="a_edge57_Node000022_Node000030"><a xlink:title=" ">
<path fill="none" stroke="#63b8ff" d="M520.18,-331.33C519.19,-324.74 517.79,-315.46 516.53,-307.07"/>
<polygon fill="#63b8ff" stroke="#63b8ff" points="520.02,-306.72 515.07,-297.36 513.1,-307.76 520.02,-306.72"/>
</a>
</g>
</g>
<!-- Node23&#45;&gt;Node3 -->
<g id="edge36_Node000023_Node000003" class="edge">
<title>Node23&#45;&gt;Node3</title>
<g id="a_edge36_Node000023_Node000003"><a xlink:title=" ">
<path fill="none" stroke="#63b8ff" d="M820.36,-282.41C909.02,-276.96 1102.83,-262.62 1122.5,-240.25 1147.6,-211.7 1210.02,-234.2 1097.5,-110.5 1073.26,-83.85 1032.86,-73.07 1002.37,-68.74"/>
<polygon fill="#63b8ff" stroke="#63b8ff" points="1003.08,-65.3 992.73,-67.56 1002.23,-72.25 1003.08,-65.3"/>
</a>
</g>
</g>
<!-- Node23&#45;&gt;Node9 -->
<g id="edge37_Node000023_Node000009" class="edge">
<title>Node23&#45;&gt;Node9</title>
<g id="a_edge37_Node000023_Node000009"><a xlink:title=" ">
<path fill="none" stroke="#63b8ff" d="M732.61,-276.35C707.42,-269.76 676.37,-258.57 653.5,-240.25 648.94,-236.6 609.1,-172.44 588.99,-139.83"/>
<polygon fill="#63b8ff" stroke="#63b8ff" points="592.03,-138.08 583.81,-131.4 586.07,-141.75 592.03,-138.08"/>
</a>
</g>
</g>
<!-- Node23&#45;&gt;Node12 -->
<g id="edge38_Node000023_Node000012" class="edge">
<title>Node23&#45;&gt;Node12</title>
<g id="a_edge38_Node000023_Node000012"><a xlink:title=" ">
<path fill="none" stroke="#63b8ff" d="M820.41,-277.13C876.73,-267.2 974.01,-250.05 1031.69,-239.88"/>
<polygon fill="#63b8ff" stroke="#63b8ff" points="1032.29,-243.33 1041.53,-238.14 1031.08,-236.43 1032.29,-243.33"/>
</a>
</g>
</g>
<!-- Node24&#45;&gt;Node3 -->
<g id="edge40_Node000024_Node000003" class="edge">
<title>Node24&#45;&gt;Node3</title>
<g id="a_edge40_Node000024_Node000003"><a xlink:title=" ">
<path fill="none" stroke="#63b8ff" d="M568.59,-225.97C654.22,-218.55 836.74,-201.07 860.5,-185 891.98,-163.7 877.49,-139.12 902.5,-110.5 912.37,-99.21 925.51,-88.93 936.89,-81.09"/>
<polygon fill="#63b8ff" stroke="#63b8ff" points="938.63,-84.14 945.04,-75.7 934.77,-78.3 938.63,-84.14"/>
</a>
</g>
</g>
<!-- Node24&#45;&gt;Node9 -->
<g id="edge41_Node000024_Node000009" class="edge">
<title>Node24&#45;&gt;Node9</title>
<g id="a_edge41_Node000024_Node000009"><a xlink:title=" ">
<path fill="none" stroke="#63b8ff" d="M523.06,-220.85C521.39,-208.04 519.85,-183.78 528.5,-165.75 534.02,-154.23 543.97,-144.32 553.46,-136.77"/>
<polygon fill="#63b8ff" stroke="#63b8ff" points="555.41,-139.68 561.41,-130.95 551.27,-134.04 555.41,-139.68"/>
</a>
</g>
</g>
<!-- Node25&#45;&gt;Node3 -->
<g id="edge43_Node000025_Node000003" class="edge">
<title>Node25&#45;&gt;Node3</title>
<g id="a_edge43_Node000025_Node000003"><a xlink:title=" ">
<path fill="none" stroke="#63b8ff" d="M715.46,-277.49C718.18,-277.06 720.88,-276.64 723.5,-276.25 782.93,-267.33 943.29,-276.12 991.5,-240.25 1041.08,-203.36 1072.79,-163.79 1041.5,-110.5 1032.73,-95.57 1016.95,-85.27 1001.71,-78.36"/>
<polygon fill="#63b8ff" stroke="#63b8ff" points="1003.32,-75.23 992.74,-74.67 1000.66,-81.71 1003.32,-75.23"/>
</a>
</g>
</g>
<!-- Node25&#45;&gt;Node9 -->
<g id="edge44_Node000025_Node000009" class="edge">
<title>Node25&#45;&gt;Node9</title>
<g id="a_edge44_Node000025_Node000009"><a xlink:title=" ">
<path fill="none" stroke="#63b8ff" d="M657.63,-275.75C646.25,-267.64 630.45,-254.82 620.5,-240.25 599.28,-209.17 587.21,-166.4 581.54,-141.46"/>
<polygon fill="#63b8ff" stroke="#63b8ff" points="584.97,-140.74 579.46,-131.68 578.12,-142.19 584.97,-140.74"/>
</a>
</g>
</g>
<!-- Node26 -->
<g id="Node000026" class="node">
<title>Node26</title>
<g id="a_Node000026"><a xlink:href="_ss_effect_behavior_8h.html" target="_top" xlink:title=" ">
<polygon fill="white" stroke="#666666" points="762.5,-240.25 662.5,-240.25 662.5,-221 762.5,-221 762.5,-240.25"/>
<text text-anchor="middle" x="712.5" y="-226.75" font-family="Helvetica,sans-Serif" font-size="10.00">SsEffectBehavior.h</text>
</a>
</g>
</g>
<!-- Node25&#45;&gt;Node26 -->
<g id="edge45_Node000025_Node000026" class="edge">
<title>Node25&#45;&gt;Node26</title>
<g id="a_edge45_Node000025_Node000026"><a xlink:title=" ">
<path fill="none" stroke="#63b8ff" d="M678.27,-276.08C683.82,-268.88 691.84,-258.46 698.73,-249.51"/>
<polygon fill="#63b8ff" stroke="#63b8ff" points="701.33,-251.87 704.66,-241.81 695.79,-247.6 701.33,-251.87"/>
</a>
</g>
</g>
<!-- Node26&#45;&gt;Node3 -->
<g id="edge50_Node000026_Node000003" class="edge">
<title>Node26&#45;&gt;Node3</title>
<g id="a_edge50_Node000026_Node000003"><a xlink:title=" ">
<path fill="none" stroke="#63b8ff" d="M762.8,-222.97C809.66,-215.77 875.01,-202.89 893.5,-185 918.22,-161.08 896.72,-139.95 914.5,-110.5 921.06,-99.63 930.96,-89.68 939.99,-81.94"/>
<polygon fill="#63b8ff" stroke="#63b8ff" points="942.15,-84.7 947.73,-75.69 937.75,-79.25 942.15,-84.7"/>
</a>
</g>
</g>
<!-- Node26&#45;&gt;Node13 -->
<g id="edge51_Node000026_Node000013" class="edge">
<title>Node26&#45;&gt;Node13</title>
<g id="a_edge51_Node000026_Node000013"><a xlink:title=" ">
<path fill="none" stroke="#63b8ff" d="M708.54,-220.83C705.46,-214.01 701.09,-204.31 697.21,-195.7"/>
<polygon fill="#63b8ff" stroke="#63b8ff" points="700.47,-194.42 693.17,-186.74 694.09,-197.29 700.47,-194.42"/>
</a>
</g>
</g>
<!-- Node27 -->
<g id="Node000027" class="node">
<title>Node27</title>
<g id="a_Node000027"><a xlink:href="_ss_effect_element_8h.html" target="_top" xlink:title=" ">
<polygon fill="white" stroke="#666666" points="833.75,-185 735.25,-185 735.25,-165.75 833.75,-165.75 833.75,-185"/>
<text text-anchor="middle" x="784.5" y="-171.5" font-family="Helvetica,sans-Serif" font-size="10.00">SsEffectElement.h</text>
</a>
</g>
</g>
<!-- Node26&#45;&gt;Node27 -->
<g id="edge46_Node000026_Node000027" class="edge">
<title>Node26&#45;&gt;Node27</title>
<g id="a_edge46_Node000026_Node000027"><a xlink:title=" ">
<path fill="none" stroke="#63b8ff" d="M724.71,-220.59C735.33,-212.74 750.94,-201.2 763.54,-191.87"/>
<polygon fill="#63b8ff" stroke="#63b8ff" points="765.29,-194.94 771.25,-186.17 761.13,-189.31 765.29,-194.94"/>
</a>
</g>
</g>
<!-- Node26&#45;&gt;Node28 -->
<g id="edge52_Node000026_Node000028" class="edge">
<title>Node26&#45;&gt;Node28</title>
<g id="a_edge52_Node000026_Node000028"><a xlink:title=" ">
<path fill="none" stroke="#63b8ff" d="M668.61,-220.53C619.05,-210.26 539.26,-193.73 492.66,-184.07"/>
<polygon fill="#63b8ff" stroke="#63b8ff" points="493.55,-180.68 483.04,-182.08 492.13,-187.54 493.55,-180.68"/>
</a>
</g>
</g>
<!-- Node27&#45;&gt;Node3 -->
<g id="edge47_Node000027_Node000003" class="edge">
<title>Node27&#45;&gt;Node3</title>
<g id="a_edge47_Node000027_Node000003"><a xlink:title=" ">
<path fill="none" stroke="#63b8ff" d="M790.73,-165.3C800.51,-151.67 820.72,-125.86 843.5,-110.5 867.17,-94.54 897.33,-83.26 921.23,-76.04"/>
<polygon fill="#63b8ff" stroke="#63b8ff" points="921.98,-79.46 930.62,-73.33 920.04,-72.74 921.98,-79.46"/>
</a>
</g>
</g>
<!-- Node27&#45;&gt;Node9 -->
<g id="edge48_Node000027_Node000009" class="edge">
<title>Node27&#45;&gt;Node9</title>
<g id="a_edge48_Node000027_Node000009"><a xlink:title=" ">
<path fill="none" stroke="#63b8ff" d="M749.39,-165.34C714.53,-156.38 660.95,-142.59 622.88,-132.8"/>
<polygon fill="#63b8ff" stroke="#63b8ff" points="624.12,-129.5 613.56,-130.4 622.37,-136.28 624.12,-129.5"/>
</a>
</g>
</g>
<!-- Node27&#45;&gt;Node27 -->
<g id="edge49_Node000027_Node000027" class="edge">
<title>Node27&#45;&gt;Node27</title>
<g id="a_edge49_Node000027_Node000027"><a xlink:title=" ">
<path fill="none" stroke="#63b8ff" d="M819.79,-185.48C836.77,-186.73 851.75,-183.36 851.75,-175.38 851.75,-169.26 842.97,-165.85 831.23,-165.15"/>
<polygon fill="#63b8ff" stroke="#63b8ff" points="831.27,-161.65 821.3,-165.25 831.34,-168.65 831.27,-161.65"/>
</a>
</g>
</g>
<!-- Node29&#45;&gt;Node3 -->
<g id="edge54_Node000029_Node000003" class="edge">
<title>Node29&#45;&gt;Node3</title>
<g id="a_edge54_Node000029_Node000003"><a xlink:title=" ">
<path fill="none" stroke="#63b8ff" d="M399.48,-281.65C491.53,-274.65 701.74,-257.33 771.5,-240.25 884.38,-212.61 950.32,-230.36 1008.5,-129.75 1018.52,-112.41 1001.99,-94.16 985.83,-81.62"/>
<polygon fill="#63b8ff" stroke="#63b8ff" points="987.96,-78.84 977.8,-75.84 983.87,-84.52 987.96,-78.84"/>
</a>
</g>
</g>
<!-- Node29&#45;&gt;Node9 -->
<g id="edge55_Node000029_Node000009" class="edge">
<title>Node29&#45;&gt;Node9</title>
<g id="a_edge55_Node000029_Node000009"><a xlink:title=" ">
<path fill="none" stroke="#63b8ff" d="M355.04,-275.89C354.43,-253.74 356.12,-196.15 387.5,-165.75 407.78,-146.11 482.16,-133.13 531.62,-126.46"/>
<polygon fill="#63b8ff" stroke="#63b8ff" points="532.03,-129.94 541.5,-125.17 531.13,-123 532.03,-129.94"/>
</a>
</g>
</g>
<!-- Node31&#45;&gt;Node2 -->
<g id="edge64_Node000031_Node000002" class="edge">
<title>Node31&#45;&gt;Node2</title>
<g id="a_edge64_Node000031_Node000002"><a xlink:title=" ">
<path fill="none" stroke="#63b8ff" d="M368.14,-441.53C415.89,-432.42 489.49,-418.37 540.81,-408.58"/>
<polygon fill="#63b8ff" stroke="#63b8ff" points="541.4,-412.03 550.57,-406.71 540.09,-405.15 541.4,-412.03"/>
</a>
</g>
</g>
<!-- Node32 -->
<g id="Node000032" class="node">
<title>Node32</title>
<g id="a_Node000032"><a xlink:href="ssh_object_8h.html" target="_top" xlink:title=" ">
<polygon fill="white" stroke="#666666" points="181.75,-350.75 113.25,-350.75 113.25,-331.5 181.75,-331.5 181.75,-350.75"/>
<text text-anchor="middle" x="147.5" y="-337.25" font-family="Helvetica,sans-Serif" font-size="10.00">sshObject.h</text>
</a>
</g>
</g>
<!-- Node31&#45;&gt;Node32 -->
<g id="edge65_Node000031_Node000032" class="edge">
<title>Node31&#45;&gt;Node32</title>
<g id="a_edge65_Node000031_Node000032"><a xlink:title=" ">
<path fill="none" stroke="#63b8ff" d="M268.62,-445.46C238.34,-440.02 201.16,-428.87 175.5,-406 162.64,-394.53 155.42,-376.08 151.55,-361.94"/>
<polygon fill="#63b8ff" stroke="#63b8ff" points="155,-361.33 149.3,-352.4 148.19,-362.93 155,-361.33"/>
</a>
</g>
</g>
<!-- Node33 -->
<g id="Node000033" class="node">
<title>Node33</title>
<g id="a_Node000033"><a xlink:href="ssh_task_8h.html" target="_top" xlink:title=" ">
<polygon fill="white" stroke="#666666" points="335,-240.25 274,-240.25 274,-221 335,-221 335,-240.25"/>
<text text-anchor="middle" x="304.5" y="-226.75" font-family="Helvetica,sans-Serif" font-size="10.00">sshTask.h</text>
</a>
</g>
</g>
<!-- Node31&#45;&gt;Node33 -->
<g id="edge70_Node000031_Node000033" class="edge">
<title>Node31&#45;&gt;Node33</title>
<g id="a_edge70_Node000031_Node000033"><a xlink:title=" ">
<path fill="none" stroke="#63b8ff" d="M315.71,-441.71C311.28,-432.92 305.01,-418.96 302.5,-406 291.81,-350.9 297.65,-284.16 301.69,-251.53"/>
<polygon fill="#63b8ff" stroke="#63b8ff" points="305.11,-252.32 302.96,-241.95 298.17,-251.4 305.11,-252.32"/>
</a>
</g>
</g>
<!-- Node34 -->
<g id="Node000034" class="node">
<title>Node34</title>
<g id="a_Node000034"><a xlink:href="ssh_scene_8h.html" target="_top" xlink:title=" ">
<polygon fill="white" stroke="#666666" points="252.38,-406 184.62,-406 184.62,-386.75 252.38,-386.75 252.38,-406"/>
<text text-anchor="middle" x="218.5" y="-392.5" font-family="Helvetica,sans-Serif" font-size="10.00">sshScene.h</text>
</a>
</g>
</g>
<!-- Node31&#45;&gt;Node34 -->
<g id="edge71_Node000031_Node000034" class="edge">
<title>Node31&#45;&gt;Node34</title>
<g id="a_edge71_Node000031_Node000034"><a xlink:title=" ">
<path fill="none" stroke="#63b8ff" d="M303.2,-441.59C287.52,-433.41 264.15,-421.21 245.92,-411.69"/>
<polygon fill="#63b8ff" stroke="#63b8ff" points="247.71,-408.68 237.23,-407.15 244.47,-414.88 247.71,-408.68"/>
</a>
</g>
</g>
<!-- Node35 -->
<g id="Node000035" class="node">
<title>Node35</title>
<g id="a_Node000035"><a xlink:href="_issh_texture_8h.html" target="_top" xlink:title=" ">
<polygon fill="white" stroke="#666666" points="999.12,-129.75 923.88,-129.75 923.88,-110.5 999.12,-110.5 999.12,-129.75"/>
<text text-anchor="middle" x="961.5" y="-116.25" font-family="Helvetica,sans-Serif" font-size="10.00">IsshTexture.h</text>
</a>
</g>
</g>
<!-- Node31&#45;&gt;Node35 -->
<g id="edge73_Node000031_Node000035" class="edge">
<title>Node31&#45;&gt;Node35</title>
<g id="a_edge73_Node000031_Node000035"><a xlink:title=" ">
<path fill="none" stroke="#63b8ff" d="M372.48,-450.73C583.05,-450.46 1361.5,-442.69 1361.5,-342.12 1361.5,-342.12 1361.5,-342.12 1361.5,-229.62 1361.5,-157.76 1117.94,-131.98 1010.93,-124.13"/>
<polygon fill="#63b8ff" stroke="#63b8ff" points="1011.22,-120.64 1001,-123.43 1010.73,-127.62 1011.22,-120.64"/>
</a>
</g>
</g>
<!-- Node36 -->
<g id="Node000036" class="node">
<title>Node36</title>
<g id="a_Node000036"><a xlink:href="_x_p_file_open_dlg_8h.html" target="_top" xlink:title=" ">
<polygon fill="white" stroke="#666666" points="403.38,-406 311.62,-406 311.62,-386.75 403.38,-386.75 403.38,-406"/>
<text text-anchor="middle" x="357.5" y="-392.5" font-family="Helvetica,sans-Serif" font-size="10.00">XPFileOpenDlg.h</text>
</a>
</g>
</g>
<!-- Node31&#45;&gt;Node36 -->
<g id="edge76_Node000031_Node000036" class="edge">
<title>Node31&#45;&gt;Node36</title>
<g id="a_edge76_Node000031_Node000036"><a xlink:title=" ">
<path fill="none" stroke="#63b8ff" d="M326.61,-441.83C331.56,-434.71 338.7,-424.43 344.87,-415.55"/>
<polygon fill="#63b8ff" stroke="#63b8ff" points="347.56,-417.81 350.39,-407.6 341.81,-413.82 347.56,-417.81"/>
</a>
</g>
</g>
<!-- Node37 -->
<g id="Node000037" class="node">
<title>Node37</title>
<g id="a_Node000037"><a xlink:href="_debug_print_8h.html" target="_top" xlink:title=" ">
<polygon fill="white" stroke="#666666" points="73,-350.75 0,-350.75 0,-331.5 73,-331.5 73,-350.75"/>
<text text-anchor="middle" x="36.5" y="-337.25" font-family="Helvetica,sans-Serif" font-size="10.00">DebugPrint.h</text>
</a>
</g>
</g>
<!-- Node31&#45;&gt;Node37 -->
<g id="edge77_Node000031_Node000037" class="edge">
<title>Node31&#45;&gt;Node37</title>
<g id="a_edge77_Node000031_Node000037"><a xlink:title=" ">
<path fill="none" stroke="#63b8ff" d="M278.08,-441.56C244.92,-433.86 197.99,-421.57 158.5,-406 123.24,-392.1 84.86,-370.92 60.75,-356.8"/>
<polygon fill="#63b8ff" stroke="#63b8ff" points="62.73,-353.91 52.34,-351.82 59.16,-359.93 62.73,-353.91"/>
</a>
</g>
</g>
<!-- Node32&#45;&gt;Node33 -->
<g id="edge66_Node000032_Node000033" class="edge">
<title>Node32&#45;&gt;Node33</title>
<g id="a_edge66_Node000032_Node000033"><a xlink:title=" ">
<path fill="none" stroke="#63b8ff" d="M160.62,-331.06C187.46,-312.51 248.95,-270.01 282.19,-247.04"/>
<polygon fill="#63b8ff" stroke="#63b8ff" points="284.05,-250.01 290.29,-241.45 280.07,-244.25 284.05,-250.01"/>
</a>
</g>
</g>
<!-- Node33&#45;&gt;Node6 -->
<g id="edge67_Node000033_Node000006" class="edge">
<title>Node33&#45;&gt;Node6</title>
<g id="a_edge67_Node000033_Node000006"><a xlink:title=" ">
<path fill="none" stroke="#63b8ff" d="M309.72,-220.88C327.08,-192.52 385.96,-102.25 458.5,-55.25 492.41,-33.28 537.84,-21.54 568.31,-15.7"/>
<polygon fill="#63b8ff" stroke="#63b8ff" points="568.87,-19.16 578.1,-13.95 567.64,-12.27 568.87,-19.16"/>
</a>
</g>
</g>
<!-- Node33&#45;&gt;Node21 -->
<g id="edge68_Node000033_Node000021" class="edge">
<title>Node33&#45;&gt;Node21</title>
<g id="a_edge68_Node000033_Node000021"><a xlink:title=" ">
<path fill="none" stroke="#63b8ff" d="M335.28,-222.99C384.43,-212.39 479.74,-191.84 525.61,-181.96"/>
<polygon fill="#63b8ff" stroke="#63b8ff" points="526.14,-185.42 535.17,-179.89 524.66,-178.58 526.14,-185.42"/>
</a>
</g>
</g>
<!-- Node33&#45;&gt;Node28 -->
<g id="edge69_Node000033_Node000028" class="edge">
<title>Node33&#45;&gt;Node28</title>
<g id="a_edge69_Node000033_Node000028"><a xlink:title=" ">
<path fill="none" stroke="#63b8ff" d="M330.12,-220.59C354.52,-211.99 391.51,-198.94 419,-189.25"/>
<polygon fill="#63b8ff" stroke="#63b8ff" points="420.07,-192.58 428.33,-185.96 417.74,-185.98 420.07,-192.58"/>
</a>
</g>
</g>
<!-- Node34&#45;&gt;Node32 -->
<g id="edge72_Node000034_Node000032" class="edge">
<title>Node34&#45;&gt;Node32</title>
<g id="a_edge72_Node000034_Node000032"><a xlink:title=" ">
<path fill="none" stroke="#63b8ff" d="M206.46,-386.34C196.09,-378.57 180.9,-367.17 168.53,-357.9"/>
<polygon fill="#63b8ff" stroke="#63b8ff" points="170.68,-355.13 160.58,-351.93 166.48,-360.73 170.68,-355.13"/>
</a>
</g>
</g>
<!-- Node35&#45;&gt;Node3 -->
<g id="edge74_Node000035_Node000003" class="edge">
<title>Node35&#45;&gt;Node3</title>
<g id="a_edge74_Node000035_Node000003"><a xlink:title=" ">
<path fill="none" stroke="#63b8ff" d="M961.5,-110.33C961.5,-103.82 961.5,-94.67 961.5,-86.37"/>
<polygon fill="#63b8ff" stroke="#63b8ff" points="965,-86.37 961.5,-76.37 958,-86.37 965,-86.37"/>
</a>
</g>
</g>
<!-- Node35&#45;&gt;Node11 -->
<g id="edge75_Node000035_Node000011" class="edge">
<title>Node35&#45;&gt;Node11</title>
<g id="a_edge75_Node000035_Node000011"><a xlink:title=" ">
<path fill="none" stroke="#63b8ff" d="M926.05,-110.09C885.09,-99.66 818.54,-82.7 780.86,-73.1"/>
<polygon fill="#63b8ff" stroke="#63b8ff" points="782.18,-69.82 771.62,-70.75 780.45,-76.61 782.18,-69.82"/>
</a>
</g>
</g>
<!-- Node37&#45;&gt;Node5 -->
<g id="edge78_Node000037_Node000005" class="edge">
<title>Node37&#45;&gt;Node5</title>
<g id="a_edge78_Node000037_Node000005"><a xlink:title=" ">
<path fill="none" stroke="#63b8ff" d="M33.58,-331.24C27.81,-312.85 15.5,-269.23 15.5,-231.62 15.5,-231.62 15.5,-231.62 15.5,-119.12 15.5,-32.13 151.39,-14.76 214.72,-11.38"/>
<polygon fill="#63b8ff" stroke="#63b8ff" points="214.65,-14.89 224.49,-10.96 214.35,-7.9 214.65,-14.89"/>
</a>
</g>
</g>
</g>
</svg>
