<?xml version="1.0" encoding="UTF-8" standalone="no"?>
<!DOCTYPE svg PUBLIC "-//W3C//DTD SVG 1.1//EN"
 "http://www.w3.org/Graphics/SVG/1.1/DTD/svg11.dtd">
<!-- Generated by graphviz version 12.2.1 (20241206.2353)
 -->
<!-- Title: Common/Animator/ssplayer_effect.h Pages: 1 -->
<svg width="496pt" height="172pt"
 viewBox="0.00 0.00 495.50 171.50" xmlns="http://www.w3.org/2000/svg" xmlns:xlink="http://www.w3.org/1999/xlink">
<g id="graph0" class="graph" transform="scale(1 1) rotate(0) translate(4 167.5)">
<title>Common/Animator/ssplayer_effect.h</title>
<!-- Node1 -->
<g id="Node000001" class="node">
<title>Node1</title>
<g id="a_Node000001"><a xlink:title=" ">
<polygon fill="#999999" stroke="#666666" points="282.5,-163.5 145,-163.5 145,-133 282.5,-133 282.5,-163.5"/>
<text text-anchor="start" x="153" y="-150" font-family="Helvetica,sans-Serif" font-size="10.00">Common/Animator/ssplayer</text>
<text text-anchor="middle" x="213.75" y="-138.75" font-family="Helvetica,sans-Serif" font-size="10.00">_effect.h</text>
</a>
</g>
</g>
<!-- Node1&#45;&gt;Node1 -->
<g id="edge3_Node000001_Node000001" class="edge">
<title>Node1&#45;&gt;Node1</title>
<g id="a_edge3_Node000001_Node000001"><a xlink:title=" ">
<path fill="none" stroke="#63b8ff" d="M293.73,-156.49C297.98,-154.47 300.5,-151.72 300.5,-148.25 300.5,-142.41 293.35,-138.62 282.83,-136.88"/>
<polygon fill="#63b8ff" stroke="#63b8ff" points="292.93,-153.08 284.28,-159.2 294.86,-159.8 292.93,-153.08"/>
</a>
</g>
</g>
<!-- Node2 -->
<g id="Node000002" class="node">
<title>Node2</title>
<g id="a_Node000002"><a xlink:href="ssplayer__animedecode_8cpp.html" target="_top" xlink:title=" ">
<polygon fill="white" stroke="#666666" points="137.5,-97 0,-97 0,-66.5 137.5,-66.5 137.5,-97"/>
<text text-anchor="start" x="8" y="-83.5" font-family="Helvetica,sans-Serif" font-size="10.00">Common/Animator/ssplayer</text>
<text text-anchor="middle" x="68.75" y="-72.25" font-family="Helvetica,sans-Serif" font-size="10.00">_animedecode.cpp</text>
</a>
</g>
</g>
<!-- Node1&#45;&gt;Node2 -->
<g id="edge1_Node000001_Node000002" class="edge">
<title>Node1&#45;&gt;Node2</title>
<g id="a_edge1_Node000001_Node000002"><a xlink:title=" ">
<path fill="none" stroke="#63b8ff" d="M170.44,-127.98C148.43,-118.19 122.12,-106.49 101.77,-97.44"/>
<polygon fill="#63b8ff" stroke="#63b8ff" points="168.91,-131.13 179.46,-132 171.75,-124.74 168.91,-131.13"/>
</a>
</g>
</g>
<!-- Node3 -->
<g id="Node000003" class="node">
<title>Node3</title>
<g id="a_Node000003"><a xlink:href="ssplayer__effect_8cpp.html" target="_top" xlink:title=" ">
<polygon fill="white" stroke="#666666" points="175.5,-30.5 38,-30.5 38,0 175.5,0 175.5,-30.5"/>
<text text-anchor="start" x="46" y="-17" font-family="Helvetica,sans-Serif" font-size="10.00">Common/Animator/ssplayer</text>
<text text-anchor="middle" x="106.75" y="-5.75" font-family="Helvetica,sans-Serif" font-size="10.00">_effect.cpp</text>
</a>
</g>
</g>
<!-- Node1&#45;&gt;Node3 -->
<g id="edge2_Node000001_Node000003" class="edge">
<title>Node1&#45;&gt;Node3</title>
<g id="a_edge2_Node000001_Node000003"><a xlink:title=" ">
<path fill="none" stroke="#63b8ff" d="M194.72,-123.95C172.69,-96.98 137.09,-53.4 118.66,-30.83"/>
<polygon fill="#63b8ff" stroke="#63b8ff" points="191.9,-126.03 200.93,-131.56 197.32,-121.6 191.9,-126.03"/>
</a>
</g>
</g>
<!-- Node4 -->
<g id="Node000004" class="node">
<title>Node4</title>
<g id="a_Node000004"><a xlink:href="ssplayer__effectfunction_8cpp.html" target="_top" xlink:title=" ">
<polygon fill="white" stroke="#666666" points="487.5,-30.5 350,-30.5 350,0 487.5,0 487.5,-30.5"/>
<text text-anchor="start" x="358" y="-17" font-family="Helvetica,sans-Serif" font-size="10.00">Common/Animator/ssplayer</text>
<text text-anchor="middle" x="418.75" y="-5.75" font-family="Helvetica,sans-Serif" font-size="10.00">_effectfunction.cpp</text>
</a>
</g>
</g>
<!-- Node1&#45;&gt;Node4 -->
<g id="edge4_Node000001_Node000004" class="edge">
<title>Node1&#45;&gt;Node4</title>
<g id="a_edge4_Node000001_Node000004"><a xlink:title=" ">
<path fill="none" stroke="#63b8ff" d="M275.74,-128.72C297.31,-120.76 321.03,-110.2 340.75,-97 368.45,-78.46 393.95,-48.66 407.82,-30.91"/>
<polygon fill="#63b8ff" stroke="#63b8ff" points="274.7,-125.38 266.45,-132.03 277.04,-131.98 274.7,-125.38"/>
</a>
</g>
</g>
<!-- Node5 -->
<g id="Node000005" class="node">
<title>Node5</title>
<g id="a_Node000005"><a xlink:href="ssplayer__effectfunction_8h.html" target="_top" xlink:title=" ">
<polygon fill="white" stroke="#666666" points="331.5,-97 194,-97 194,-66.5 331.5,-66.5 331.5,-97"/>
<text text-anchor="start" x="202" y="-83.5" font-family="Helvetica,sans-Serif" font-size="10.00">Common/Animator/ssplayer</text>
<text text-anchor="middle" x="262.75" y="-72.25" font-family="Helvetica,sans-Serif" font-size="10.00">_effectfunction.h</text>
</a>
</g>
</g>
<!-- Node1&#45;&gt;Node5 -->
<g id="edge5_Node000001_Node000005" class="edge">
<title>Node1&#45;&gt;Node5</title>
<g id="a_edge5_Node000001_Node000005"><a xlink:title=" ">
<path fill="none" stroke="#63b8ff" d="M231.74,-123.57C238.42,-114.78 245.79,-105.07 251.68,-97.33"/>
<polygon fill="#63b8ff" stroke="#63b8ff" points="229.05,-121.33 225.78,-131.41 234.62,-125.56 229.05,-121.33"/>
</a>
</g>
</g>
<!-- Node5&#45;&gt;Node3 -->
<g id="edge6_Node000005_Node000003" class="edge">
<title>Node5&#45;&gt;Node3</title>
<g id="a_edge6_Node000005_Node000003"><a xlink:title=" ">
<path fill="none" stroke="#63b8ff" d="M216.79,-61.75C192.99,-51.91 164.37,-40.07 142.28,-30.94"/>
<polygon fill="#63b8ff" stroke="#63b8ff" points="215.37,-64.95 225.95,-65.54 218.05,-58.48 215.37,-64.95"/>
</a>
</g>
</g>
<!-- Node5&#45;&gt;Node4 -->
<g id="edge8_Node000005_Node000004" class="edge">
<title>Node5&#45;&gt;Node4</title>
<g id="a_edge8_Node000005_Node000004"><a xlink:title=" ">
<path fill="none" stroke="#63b8ff" d="M308.71,-61.75C332.51,-51.91 361.13,-40.07 383.22,-30.94"/>
<polygon fill="#63b8ff" stroke="#63b8ff" points="307.45,-58.48 299.55,-65.54 310.13,-64.95 307.45,-58.48"/>
</a>
</g>
</g>
<!-- Node6 -->
<g id="Node000006" class="node">
<title>Node6</title>
<g id="a_Node000006"><a xlink:href="ssplayer__effect2_8cpp.html" target="_top" xlink:title=" ">
<polygon fill="white" stroke="#666666" points="331.5,-30.5 194,-30.5 194,0 331.5,0 331.5,-30.5"/>
<text text-anchor="start" x="202" y="-17" font-family="Helvetica,sans-Serif" font-size="10.00">Common/Animator/ssplayer</text>
<text text-anchor="middle" x="262.75" y="-5.75" font-family="Helvetica,sans-Serif" font-size="10.00">_effect2.cpp</text>
</a>
</g>
</g>
<!-- Node5&#45;&gt;Node6 -->
<g id="edge7_Node000005_Node000006" class="edge">
<title>Node5&#45;&gt;Node6</title>
<g id="a_edge7_Node000005_Node000006"><a xlink:title=" ">
<path fill="none" stroke="#63b8ff" d="M262.75,-54.81C262.75,-46.64 262.75,-37.91 262.75,-30.83"/>
<polygon fill="#63b8ff" stroke="#63b8ff" points="259.25,-54.6 262.75,-64.6 266.25,-54.6 259.25,-54.6"/>
</a>
</g>
</g>
</g>
</svg>
