<?xml version="1.0" encoding="UTF-8" standalone="no"?>
<!DOCTYPE svg PUBLIC "-//W3C//DTD SVG 1.1//EN"
 "http://www.w3.org/Graphics/SVG/1.1/DTD/svg11.dtd">
<!-- Generated by graphviz version 10.0.1 (20240210.2158)
 -->
<!-- Title: Common/Animator/ssplayer_effect2.h Pages: 1 -->
<svg width="201pt" height="94pt"
 viewBox="0.00 0.00 201.12 93.75" xmlns="http://www.w3.org/2000/svg" xmlns:xlink="http://www.w3.org/1999/xlink">
<g id="graph0" class="graph" transform="scale(1 1) rotate(0) translate(4 89.75)">
<title>Common/Animator/ssplayer_effect2.h</title>
<!-- Node1 -->
<g id="Node000001" class="node">
<title>Node1</title>
<g id="a_Node000001"><a xlink:title=" ">
<polygon fill="#999999" stroke="#666666" points="179.25,-85.75 41.75,-85.75 41.75,-55.25 179.25,-55.25 179.25,-85.75"/>
<text text-anchor="start" x="49.75" y="-72.25" font-family="Helvetica,sans-Serif" font-size="10.00">Common/Animator/ssplayer</text>
<text text-anchor="middle" x="110.5" y="-61" font-family="Helvetica,sans-Serif" font-size="10.00">_effect2.h</text>
</a>
</g>
</g>
<!-- Node2 -->
<g id="Node000002" class="node">
<title>Node2</title>
<g id="a_Node000002"><a xlink:href="xorshift32_8h.html" target="_top" xlink:title=" ">
<polygon fill="white" stroke="#666666" points="67,-19.25 0,-19.25 0,0 67,0 67,-19.25"/>
<text text-anchor="middle" x="33.5" y="-5.75" font-family="Helvetica,sans-Serif" font-size="10.00">xorshift32.h</text>
</a>
</g>
</g>
<!-- Node1&#45;&gt;Node2 -->
<g id="edge1_Node000001_Node000002" class="edge">
<title>Node1&#45;&gt;Node2</title>
<g id="a_edge1_Node000001_Node000002"><a xlink:title=" ">
<path fill="none" stroke="#63b8ff" d="M91.47,-54.95C80.19,-46.33 65.9,-35.4 54.33,-26.55"/>
<polygon fill="#63b8ff" stroke="#63b8ff" points="56.64,-23.91 46.57,-20.62 52.39,-29.48 56.64,-23.91"/>
</a>
</g>
</g>
<!-- Node3 -->
<g id="Node000003" class="node">
<title>Node3</title>
<g id="a_Node000003"><a xlink:title=" ">
<polygon fill="#e0e0e0" stroke="#999999" points="136.12,-19.25 84.88,-19.25 84.88,0 136.12,0 136.12,-19.25"/>
<text text-anchor="middle" x="110.5" y="-5.75" font-family="Helvetica,sans-Serif" font-size="10.00">memory</text>
</a>
</g>
</g>
<!-- Node1&#45;&gt;Node3 -->
<g id="edge2_Node000001_Node000003" class="edge">
<title>Node1&#45;&gt;Node3</title>
<g id="a_edge2_Node000001_Node000003"><a xlink:title=" ">
<path fill="none" stroke="#63b8ff" d="M110.5,-54.95C110.5,-47.71 110.5,-38.84 110.5,-30.94"/>
<polygon fill="#63b8ff" stroke="#63b8ff" points="114,-31.21 110.5,-21.21 107,-31.21 114,-31.21"/>
</a>
</g>
</g>
<!-- Node4 -->
<g id="Node000004" class="node">
<title>Node4</title>
<g id="a_Node000004"><a xlink:title=" ">
<polygon fill="#e0e0e0" stroke="#999999" points="193.12,-19.25 153.88,-19.25 153.88,0 193.12,0 193.12,-19.25"/>
<text text-anchor="middle" x="173.5" y="-5.75" font-family="Helvetica,sans-Serif" font-size="10.00">utility</text>
</a>
</g>
</g>
<!-- Node1&#45;&gt;Node4 -->
<g id="edge3_Node000001_Node000004" class="edge">
<title>Node1&#45;&gt;Node4</title>
<g id="a_edge3_Node000001_Node000004"><a xlink:title=" ">
<path fill="none" stroke="#63b8ff" d="M126.07,-54.95C135.02,-46.59 146.29,-36.05 155.6,-27.35"/>
<polygon fill="#63b8ff" stroke="#63b8ff" points="157.77,-30.12 162.68,-20.73 152.99,-25.01 157.77,-30.12"/>
</a>
</g>
</g>
</g>
</svg>
