<?xml version="1.0" encoding="UTF-8" standalone="no"?>
<!DOCTYPE svg PUBLIC "-//W3C//DTD SVG 1.1//EN"
 "http://www.w3.org/Graphics/SVG/1.1/DTD/svg11.dtd">
<!-- Generated by graphviz version 10.0.1 (20240210.2158)
 -->
<!-- Title: Common/Loader/ssstring_uty.cpp Pages: 1 -->
<svg width="408pt" height="149pt"
 viewBox="0.00 0.00 407.88 149.00" xmlns="http://www.w3.org/2000/svg" xmlns:xlink="http://www.w3.org/1999/xlink">
<g id="graph0" class="graph" transform="scale(1 1) rotate(0) translate(4 145)">
<title>Common/Loader/ssstring_uty.cpp</title>
<!-- Node1 -->
<g id="Node000001" class="node">
<title>Node1</title>
<g id="a_Node000001"><a xlink:title=" ">
<polygon fill="#999999" stroke="#666666" points="304.38,-141 178.88,-141 178.88,-110.5 304.38,-110.5 304.38,-141"/>
<text text-anchor="start" x="186.88" y="-127.5" font-family="Helvetica,sans-Serif" font-size="10.00">Common/Loader/ssstring</text>
<text text-anchor="middle" x="241.62" y="-116.25" font-family="Helvetica,sans-Serif" font-size="10.00">_uty.cpp</text>
</a>
</g>
</g>
<!-- Node2 -->
<g id="Node000002" class="node">
<title>Node2</title>
<g id="a_Node000002"><a xlink:href="ssstring__uty_8h.html" target="_top" xlink:title=" ">
<polygon fill="white" stroke="#666666" points="199.62,-74.5 123.62,-74.5 123.62,-55.25 199.62,-55.25 199.62,-74.5"/>
<text text-anchor="middle" x="161.62" y="-61" font-family="Helvetica,sans-Serif" font-size="10.00">ssstring_uty.h</text>
</a>
</g>
</g>
<!-- Node1&#45;&gt;Node2 -->
<g id="edge1_Node000001_Node000002" class="edge">
<title>Node1&#45;&gt;Node2</title>
<g id="a_edge1_Node000001_Node000002"><a xlink:title=" ">
<path fill="none" stroke="#63b8ff" d="M221.85,-110.2C210.02,-101.49 194.99,-90.43 182.9,-81.53"/>
<polygon fill="#63b8ff" stroke="#63b8ff" points="185.31,-78.96 175.18,-75.85 181.16,-84.59 185.31,-78.96"/>
</a>
</g>
</g>
<!-- Node9 -->
<g id="Node000009" class="node">
<title>Node9</title>
<g id="a_Node000009"><a xlink:href="sscharconverter_8h.html" target="_top" xlink:title=" ">
<polygon fill="white" stroke="#666666" points="93.25,-74.5 0,-74.5 0,-55.25 93.25,-55.25 93.25,-74.5"/>
<text text-anchor="middle" x="46.62" y="-61" font-family="Helvetica,sans-Serif" font-size="10.00">sscharconverter.h</text>
</a>
</g>
</g>
<!-- Node1&#45;&gt;Node9 -->
<g id="edge8_Node000001_Node000009" class="edge">
<title>Node1&#45;&gt;Node9</title>
<g id="a_edge8_Node000001_Node000009"><a xlink:title=" ">
<path fill="none" stroke="#63b8ff" d="M192.92,-110.05C160.47,-100.25 118.3,-87.52 87.58,-78.24"/>
<polygon fill="#63b8ff" stroke="#63b8ff" points="88.85,-74.97 78.27,-75.43 86.83,-81.67 88.85,-74.97"/>
</a>
</g>
</g>
<!-- Node10 -->
<g id="Node000010" class="node">
<title>Node10</title>
<g id="a_Node000010"><a xlink:title=" ">
<polygon fill="#e0e0e0" stroke="#999999" points="265.38,-74.5 217.88,-74.5 217.88,-55.25 265.38,-55.25 265.38,-74.5"/>
<text text-anchor="middle" x="241.62" y="-61" font-family="Helvetica,sans-Serif" font-size="10.00">limits.h</text>
</a>
</g>
</g>
<!-- Node1&#45;&gt;Node10 -->
<g id="edge10_Node000001_Node000010" class="edge">
<title>Node1&#45;&gt;Node10</title>
<g id="a_edge10_Node000001_Node000010"><a xlink:title=" ">
<path fill="none" stroke="#63b8ff" d="M241.62,-110.2C241.62,-102.96 241.62,-94.09 241.62,-86.19"/>
<polygon fill="#63b8ff" stroke="#63b8ff" points="245.13,-86.46 241.63,-76.46 238.13,-86.46 245.13,-86.46"/>
</a>
</g>
</g>
<!-- Node11 -->
<g id="Node000011" class="node">
<title>Node11</title>
<g id="a_Node000011"><a xlink:title=" ">
<polygon fill="#e0e0e0" stroke="#999999" points="331.38,-74.5 283.88,-74.5 283.88,-55.25 331.38,-55.25 331.38,-74.5"/>
<text text-anchor="middle" x="307.62" y="-61" font-family="Helvetica,sans-Serif" font-size="10.00">stdlib.h</text>
</a>
</g>
</g>
<!-- Node1&#45;&gt;Node11 -->
<g id="edge11_Node000001_Node000011" class="edge">
<title>Node1&#45;&gt;Node11</title>
<g id="a_edge11_Node000001_Node000011"><a xlink:title=" ">
<path fill="none" stroke="#63b8ff" d="M257.94,-110.2C267.31,-101.84 279.12,-91.3 288.88,-82.6"/>
<polygon fill="#63b8ff" stroke="#63b8ff" points="291.19,-85.23 296.32,-75.96 286.53,-80 291.19,-85.23"/>
</a>
</g>
</g>
<!-- Node12 -->
<g id="Node000012" class="node">
<title>Node12</title>
<g id="a_Node000012"><a xlink:title=" ">
<polygon fill="#e0e0e0" stroke="#999999" points="399.88,-74.5 349.38,-74.5 349.38,-55.25 399.88,-55.25 399.88,-74.5"/>
<text text-anchor="middle" x="374.62" y="-61" font-family="Helvetica,sans-Serif" font-size="10.00">unistd.h</text>
</a>
</g>
</g>
<!-- Node1&#45;&gt;Node12 -->
<g id="edge12_Node000001_Node000012" class="edge">
<title>Node1&#45;&gt;Node12</title>
<g id="a_edge12_Node000001_Node000012"><a xlink:title=" ">
<path fill="none" stroke="#63b8ff" d="M274.84,-110.05C295.97,-100.69 323.15,-88.66 343.8,-79.52"/>
<polygon fill="#63b8ff" stroke="#63b8ff" points="345.12,-82.76 352.84,-75.52 342.28,-76.36 345.12,-82.76"/>
</a>
</g>
</g>
<!-- Node3 -->
<g id="Node000003" class="node">
<title>Node3</title>
<g id="a_Node000003"><a xlink:title=" ">
<polygon fill="#e0e0e0" stroke="#999999" points="54.62,-19.25 14.62,-19.25 14.62,0 54.62,0 54.62,-19.25"/>
<text text-anchor="middle" x="34.62" y="-5.75" font-family="Helvetica,sans-Serif" font-size="10.00">string</text>
</a>
</g>
</g>
<!-- Node2&#45;&gt;Node3 -->
<g id="edge2_Node000002_Node000003" class="edge">
<title>Node2&#45;&gt;Node3</title>
<g id="a_edge2_Node000002_Node000003"><a xlink:title=" ">
<path fill="none" stroke="#63b8ff" d="M140.08,-54.84C119.55,-46.23 88.44,-33.19 65.32,-23.5"/>
<polygon fill="#63b8ff" stroke="#63b8ff" points="66.98,-20.4 56.41,-19.76 64.28,-26.85 66.98,-20.4"/>
</a>
</g>
</g>
<!-- Node4 -->
<g id="Node000004" class="node">
<title>Node4</title>
<g id="a_Node000004"><a xlink:title=" ">
<polygon fill="#e0e0e0" stroke="#999999" points="122.12,-19.25 73.12,-19.25 73.12,0 122.12,0 122.12,-19.25"/>
<text text-anchor="middle" x="97.62" y="-5.75" font-family="Helvetica,sans-Serif" font-size="10.00">fstream</text>
</a>
</g>
</g>
<!-- Node2&#45;&gt;Node4 -->
<g id="edge3_Node000002_Node000004" class="edge">
<title>Node2&#45;&gt;Node4</title>
<g id="a_edge3_Node000002_Node000004"><a xlink:title=" ">
<path fill="none" stroke="#63b8ff" d="M150.77,-54.84C141.52,-47.15 128,-35.9 116.92,-26.68"/>
<polygon fill="#63b8ff" stroke="#63b8ff" points="119.41,-24.2 109.48,-20.49 114.93,-29.58 119.41,-24.2"/>
</a>
</g>
</g>
<!-- Node5 -->
<g id="Node000005" class="node">
<title>Node5</title>
<g id="a_Node000005"><a xlink:title=" ">
<polygon fill="#e0e0e0" stroke="#999999" points="183.12,-19.25 140.12,-19.25 140.12,0 183.12,0 183.12,-19.25"/>
<text text-anchor="middle" x="161.62" y="-5.75" font-family="Helvetica,sans-Serif" font-size="10.00">vector</text>
</a>
</g>
</g>
<!-- Node2&#45;&gt;Node5 -->
<g id="edge4_Node000002_Node000005" class="edge">
<title>Node2&#45;&gt;Node5</title>
<g id="a_edge4_Node000002_Node000005"><a xlink:title=" ">
<path fill="none" stroke="#63b8ff" d="M161.62,-55.08C161.62,-48.57 161.62,-39.42 161.62,-31.12"/>
<polygon fill="#63b8ff" stroke="#63b8ff" points="165.13,-31.12 161.63,-21.12 158.13,-31.12 165.13,-31.12"/>
</a>
</g>
</g>
<!-- Node6 -->
<g id="Node000006" class="node">
<title>Node6</title>
<g id="a_Node000006"><a xlink:title=" ">
<polygon fill="#e0e0e0" stroke="#999999" points="254.38,-19.25 200.88,-19.25 200.88,0 254.38,0 254.38,-19.25"/>
<text text-anchor="middle" x="227.62" y="-5.75" font-family="Helvetica,sans-Serif" font-size="10.00">iostream</text>
</a>
</g>
</g>
<!-- Node2&#45;&gt;Node6 -->
<g id="edge5_Node000002_Node000006" class="edge">
<title>Node2&#45;&gt;Node6</title>
<g id="a_edge5_Node000002_Node000006"><a xlink:title=" ">
<path fill="none" stroke="#63b8ff" d="M172.82,-54.84C182.36,-47.15 196.3,-35.9 207.73,-26.68"/>
<polygon fill="#63b8ff" stroke="#63b8ff" points="209.83,-29.48 215.42,-20.48 205.44,-24.03 209.83,-29.48"/>
</a>
</g>
</g>
<!-- Node7 -->
<g id="Node000007" class="node">
<title>Node7</title>
<g id="a_Node000007"><a xlink:title=" ">
<polygon fill="#e0e0e0" stroke="#999999" points="323.25,-19.25 272,-19.25 272,0 323.25,0 323.25,-19.25"/>
<text text-anchor="middle" x="297.62" y="-5.75" font-family="Helvetica,sans-Serif" font-size="10.00">sstream</text>
</a>
</g>
</g>
<!-- Node2&#45;&gt;Node7 -->
<g id="edge6_Node000002_Node000007" class="edge">
<title>Node2&#45;&gt;Node7</title>
<g id="a_edge6_Node000002_Node000007"><a xlink:title=" ">
<path fill="none" stroke="#63b8ff" d="M184.7,-54.84C206.38,-46.35 239.11,-33.54 263.75,-23.89"/>
<polygon fill="#63b8ff" stroke="#63b8ff" points="265,-27.16 273.03,-20.25 262.44,-20.64 265,-27.16"/>
</a>
</g>
</g>
<!-- Node8 -->
<g id="Node000008" class="node">
<title>Node8</title>
<g id="a_Node000008"><a xlink:title=" ">
<polygon fill="#e0e0e0" stroke="#999999" points="387.62,-19.25 341.62,-19.25 341.62,0 387.62,0 387.62,-19.25"/>
<text text-anchor="middle" x="364.62" y="-5.75" font-family="Helvetica,sans-Serif" font-size="10.00">iterator</text>
</a>
</g>
</g>
<!-- Node2&#45;&gt;Node8 -->
<g id="edge7_Node000002_Node000008" class="edge">
<title>Node2&#45;&gt;Node8</title>
<g id="a_edge7_Node000002_Node000008"><a xlink:title=" ">
<path fill="none" stroke="#63b8ff" d="M196.69,-54.81C228.97,-46.45 278.49,-33.57 330.16,-19.89"/>
<polygon fill="#63b8ff" stroke="#63b8ff" points="330.98,-23.29 339.75,-17.35 329.19,-16.53 330.98,-23.29"/>
</a>
</g>
</g>
<!-- Node9&#45;&gt;Node3 -->
<g id="edge9_Node000009_Node000003" class="edge">
<title>Node9&#45;&gt;Node3</title>
<g id="a_edge9_Node000009_Node000003"><a xlink:title=" ">
<path fill="none" stroke="#63b8ff" d="M44.64,-55.08C43.16,-48.49 41.07,-39.21 39.18,-30.82"/>
<polygon fill="#63b8ff" stroke="#63b8ff" points="42.6,-30.07 36.98,-21.09 35.77,-31.61 42.6,-30.07"/>
</a>
</g>
</g>
</g>
</svg>
