<?xml version="1.0" encoding="UTF-8" standalone="no"?>
<!DOCTYPE svg PUBLIC "-//W3C//DTD SVG 1.1//EN"
 "http://www.w3.org/Graphics/SVG/1.1/DTD/svg11.dtd">
<!-- Generated by graphviz version 12.2.1 (20241206.2353)
 -->
<!-- Title: Common/Loader/ssstring_uty.h Pages: 1 -->
<svg width="1492pt" height="615pt"
 viewBox="0.00 0.00 1491.50 614.50" xmlns="http://www.w3.org/2000/svg" xmlns:xlink="http://www.w3.org/1999/xlink">
<g id="graph0" class="graph" transform="scale(1 1) rotate(0) translate(4 610.5)">
<title>Common/Loader/ssstring_uty.h</title>
<!-- Node1 -->
<g id="Node000001" class="node">
<title>Node1</title>
<g id="a_Node000001"><a xlink:title=" ">
<polygon fill="#999999" stroke="#666666" points="864.5,-606.5 739,-606.5 739,-576 864.5,-576 864.5,-606.5"/>
<text text-anchor="start" x="747" y="-593" font-family="Helvetica,sans-Serif" font-size="10.00">Common/Loader/ssstring</text>
<text text-anchor="middle" x="801.75" y="-581.75" font-family="Helvetica,sans-Serif" font-size="10.00">_uty.h</text>
</a>
</g>
</g>
<!-- Node2 -->
<g id="Node000002" class="node">
<title>Node2</title>
<g id="a_Node000002"><a xlink:href="ssarchiver_8cpp.html" target="_top" xlink:title=" ">
<polygon fill="white" stroke="#666666" points="415.75,-534.38 261.75,-534.38 261.75,-515.12 415.75,-515.12 415.75,-534.38"/>
<text text-anchor="middle" x="338.75" y="-520.88" font-family="Helvetica,sans-Serif" font-size="10.00">Common/Loader/ssarchiver.cpp</text>
</a>
</g>
</g>
<!-- Node1&#45;&gt;Node2 -->
<g id="edge1_Node000001_Node000002" class="edge">
<title>Node1&#45;&gt;Node2</title>
<g id="a_edge1_Node000001_Node000002"><a xlink:title=" ">
<path fill="none" stroke="#63b8ff" d="M727.27,-581.03C651.15,-571.44 529.57,-555.67 424.75,-540 414.12,-538.41 402.78,-536.61 391.92,-534.83"/>
<polygon fill="#63b8ff" stroke="#63b8ff" points="726.77,-584.49 737.13,-582.27 727.64,-577.55 726.77,-584.49"/>
</a>
</g>
</g>
<!-- Node3 -->
<g id="Node000003" class="node">
<title>Node3</title>
<g id="a_Node000003"><a xlink:href="ssloader__ssce_8cpp.html" target="_top" xlink:title=" ">
<polygon fill="white" stroke="#666666" points="561.62,-540 433.88,-540 433.88,-509.5 561.62,-509.5 561.62,-540"/>
<text text-anchor="start" x="441.88" y="-526.5" font-family="Helvetica,sans-Serif" font-size="10.00">Common/Loader/ssloader</text>
<text text-anchor="middle" x="497.75" y="-515.25" font-family="Helvetica,sans-Serif" font-size="10.00">_ssce.cpp</text>
</a>
</g>
</g>
<!-- Node1&#45;&gt;Node3 -->
<g id="edge2_Node000001_Node000003" class="edge">
<title>Node1&#45;&gt;Node3</title>
<g id="a_edge2_Node000001_Node000003"><a xlink:title=" ">
<path fill="none" stroke="#63b8ff" d="M727.55,-574.51C676.86,-563.75 610.38,-549.65 561.97,-539.37"/>
<polygon fill="#63b8ff" stroke="#63b8ff" points="726.77,-577.92 737.28,-576.57 728.22,-571.07 726.77,-577.92"/>
</a>
</g>
</g>
<!-- Node4 -->
<g id="Node000004" class="node">
<title>Node4</title>
<g id="a_Node000004"><a xlink:href="ssloader__ssee_8cpp.html" target="_top" xlink:title=" ">
<polygon fill="white" stroke="#666666" points="705.62,-285.25 577.88,-285.25 577.88,-254.75 705.62,-254.75 705.62,-285.25"/>
<text text-anchor="start" x="585.88" y="-271.75" font-family="Helvetica,sans-Serif" font-size="10.00">Common/Loader/ssloader</text>
<text text-anchor="middle" x="641.75" y="-260.5" font-family="Helvetica,sans-Serif" font-size="10.00">_ssee.cpp</text>
</a>
</g>
</g>
<!-- Node1&#45;&gt;Node4 -->
<g id="edge3_Node000001_Node000004" class="edge">
<title>Node1&#45;&gt;Node4</title>
<g id="a_edge3_Node000001_Node000004"><a xlink:title=" ">
<path fill="none" stroke="#63b8ff" d="M727.51,-577.74C666.39,-562.69 589.75,-530.69 589.75,-464.88 589.75,-464.88 589.75,-464.88 589.75,-402 589.75,-356.98 616.61,-309 631.72,-285.57"/>
<polygon fill="#63b8ff" stroke="#63b8ff" points="726.71,-581.15 737.24,-580.01 728.3,-574.33 726.71,-581.15"/>
</a>
</g>
</g>
<!-- Node5 -->
<g id="Node000005" class="node">
<title>Node5</title>
<g id="a_Node000005"><a xlink:href="ssloader__sspj_8cpp.html" target="_top" xlink:title=" ">
<polygon fill="white" stroke="#666666" points="1096.62,-285.25 968.88,-285.25 968.88,-254.75 1096.62,-254.75 1096.62,-285.25"/>
<text text-anchor="start" x="976.88" y="-271.75" font-family="Helvetica,sans-Serif" font-size="10.00">Common/Loader/ssloader</text>
<text text-anchor="middle" x="1032.75" y="-260.5" font-family="Helvetica,sans-Serif" font-size="10.00">_sspj.cpp</text>
</a>
</g>
</g>
<!-- Node1&#45;&gt;Node5 -->
<g id="edge4_Node000001_Node000005" class="edge">
<title>Node1&#45;&gt;Node5</title>
<g id="a_edge4_Node000001_Node000005"><a xlink:title=" ">
<path fill="none" stroke="#63b8ff" d="M875.96,-580.52C984.63,-564.54 1178.55,-528.88 1218.75,-473.5 1257.04,-420.75 1327.15,-496.33 1131.75,-321.25 1114.67,-305.94 1092.07,-294.01 1072.78,-285.62"/>
<polygon fill="#63b8ff" stroke="#63b8ff" points="875.65,-577.03 866.25,-581.92 876.65,-583.95 875.65,-577.03"/>
</a>
</g>
</g>
<!-- Node6 -->
<g id="Node000006" class="node">
<title>Node6</title>
<g id="a_Node000006"><a xlink:href="ssloader__sspj_8h.html" target="_top" xlink:title=" ">
<polygon fill="white" stroke="#666666" points="835.62,-351.75 707.88,-351.75 707.88,-321.25 835.62,-321.25 835.62,-351.75"/>
<text text-anchor="start" x="715.88" y="-338.25" font-family="Helvetica,sans-Serif" font-size="10.00">Common/Loader/ssloader</text>
<text text-anchor="middle" x="771.75" y="-327" font-family="Helvetica,sans-Serif" font-size="10.00">_sspj.h</text>
</a>
</g>
</g>
<!-- Node1&#45;&gt;Node6 -->
<g id="edge5_Node000001_Node000006" class="edge">
<title>Node1&#45;&gt;Node6</title>
<g id="a_edge5_Node000001_Node000006"><a xlink:title=" ">
<path fill="none" stroke="#63b8ff" d="M772.1,-568.83C734.59,-539.69 671.86,-483.63 646.75,-418.25 641.89,-405.6 639.16,-398.98 646.75,-387.75 660.63,-367.21 684.45,-355.06 707.59,-347.88"/>
<polygon fill="#63b8ff" stroke="#63b8ff" points="769.77,-571.46 779.85,-574.73 774.01,-565.89 769.77,-571.46"/>
</a>
</g>
</g>
<!-- Node27 -->
<g id="Node000027" class="node">
<title>Node27</title>
<g id="a_Node000027"><a xlink:href="ssstring__uty_8cpp.html" target="_top" xlink:title=" ">
<polygon fill="white" stroke="#666666" points="1391.5,-540 1266,-540 1266,-509.5 1391.5,-509.5 1391.5,-540"/>
<text text-anchor="start" x="1274" y="-526.5" font-family="Helvetica,sans-Serif" font-size="10.00">Common/Loader/ssstring</text>
<text text-anchor="middle" x="1328.75" y="-515.25" font-family="Helvetica,sans-Serif" font-size="10.00">_uty.cpp</text>
</a>
</g>
</g>
<!-- Node1&#45;&gt;Node27 -->
<g id="edge45_Node000001_Node000027" class="edge">
<title>Node1&#45;&gt;Node27</title>
<g id="a_edge45_Node000001_Node000027"><a xlink:title=" ">
<path fill="none" stroke="#63b8ff" d="M876.29,-583.58C965.72,-575.19 1120.08,-559.51 1251.75,-540 1256.32,-539.32 1261.04,-538.57 1265.78,-537.78"/>
<polygon fill="#63b8ff" stroke="#63b8ff" points="876.05,-580.09 866.42,-584.5 876.7,-587.06 876.05,-580.09"/>
</a>
</g>
</g>
<!-- Node28 -->
<g id="Node000028" class="node">
<title>Node28</title>
<g id="a_Node000028"><a xlink:href="ssvalue_8cpp.html" target="_top" xlink:title=" ">
<polygon fill="white" stroke="#666666" points="1209.5,-473.5 1066,-473.5 1066,-454.25 1209.5,-454.25 1209.5,-473.5"/>
<text text-anchor="middle" x="1137.75" y="-460" font-family="Helvetica,sans-Serif" font-size="10.00">Common/Loader/ssvalue.cpp</text>
</a>
</g>
</g>
<!-- Node1&#45;&gt;Node28 -->
<g id="edge46_Node000001_Node000028" class="edge">
<title>Node1&#45;&gt;Node28</title>
<g id="a_edge46_Node000001_Node000028"><a xlink:title=" ">
<path fill="none" stroke="#63b8ff" d="M865.59,-572.35C895.9,-563.4 932.47,-551.94 964.75,-540 1021.87,-518.87 1087.31,-488.78 1118.83,-473.91"/>
<polygon fill="#63b8ff" stroke="#63b8ff" points="864.8,-568.94 856.18,-575.1 866.76,-575.65 864.8,-568.94"/>
</a>
</g>
</g>
<!-- Node29 -->
<g id="Node000029" class="node">
<title>Node29</title>
<g id="a_Node000029"><a xlink:href="ssvalue_8h.html" target="_top" xlink:title=" ">
<polygon fill="white" stroke="#666666" points="955.25,-534.38 822.25,-534.38 822.25,-515.12 955.25,-515.12 955.25,-534.38"/>
<text text-anchor="middle" x="888.75" y="-520.88" font-family="Helvetica,sans-Serif" font-size="10.00">Common/Loader/ssvalue.h</text>
</a>
</g>
</g>
<!-- Node1&#45;&gt;Node29 -->
<g id="edge47_Node000001_Node000029" class="edge">
<title>Node1&#45;&gt;Node29</title>
<g id="a_edge47_Node000001_Node000029"><a xlink:title=" ">
<path fill="none" stroke="#63b8ff" d="M830.37,-569.03C846.17,-557.32 864.94,-543.4 876.85,-534.57"/>
<polygon fill="#63b8ff" stroke="#63b8ff" points="828.66,-565.95 822.71,-574.71 832.83,-571.57 828.66,-565.95"/>
</a>
</g>
</g>
<!-- Node6&#45;&gt;Node4 -->
<g id="edge43_Node000006_Node000004" class="edge">
<title>Node6&#45;&gt;Node4</title>
<g id="a_edge43_Node000006_Node000004"><a xlink:title=" ">
<path fill="none" stroke="#63b8ff" d="M732.07,-315.81C712.43,-306.07 689.14,-294.51 671.13,-285.58"/>
<polygon fill="#63b8ff" stroke="#63b8ff" points="730.38,-318.88 740.9,-320.19 733.49,-312.61 730.38,-318.88"/>
</a>
</g>
</g>
<!-- Node6&#45;&gt;Node5 -->
<g id="edge44_Node000006_Node000005" class="edge">
<title>Node6&#45;&gt;Node5</title>
<g id="a_edge44_Node000006_Node000005"><a xlink:title=" ">
<path fill="none" stroke="#63b8ff" d="M842.32,-318.06C883.36,-307.92 934.51,-295.28 973.45,-285.65"/>
<polygon fill="#63b8ff" stroke="#63b8ff" points="841.64,-314.62 832.77,-320.42 843.32,-321.42 841.64,-314.62"/>
</a>
</g>
</g>
<!-- Node7 -->
<g id="Node000007" class="node">
<title>Node7</title>
<g id="a_Node000007"><a xlink:href="ssloader_8h.html" target="_top" xlink:title=" ">
<polygon fill="white" stroke="#666666" points="859.38,-279.62 724.12,-279.62 724.12,-260.38 859.38,-260.38 859.38,-279.62"/>
<text text-anchor="middle" x="791.75" y="-266.12" font-family="Helvetica,sans-Serif" font-size="10.00">Common/Loader/ssloader.h</text>
</a>
</g>
</g>
<!-- Node6&#45;&gt;Node7 -->
<g id="edge6_Node000006_Node000007" class="edge">
<title>Node6&#45;&gt;Node7</title>
<g id="a_edge6_Node000006_Node000007"><a xlink:title=" ">
<path fill="none" stroke="#63b8ff" d="M779.68,-309.93C782.99,-299.26 786.61,-287.58 789.01,-279.82"/>
<polygon fill="#63b8ff" stroke="#63b8ff" points="776.36,-308.83 776.74,-319.42 783.04,-310.9 776.36,-308.83"/>
</a>
</g>
</g>
<!-- Node8 -->
<g id="Node000008" class="node">
<title>Node8</title>
<g id="a_Node000008"><a xlink:href="ssplayer___part_state_8cpp.html" target="_top" xlink:title=" ">
<polygon fill="white" stroke="#666666" points="1369.5,-30.5 1232,-30.5 1232,0 1369.5,0 1369.5,-30.5"/>
<text text-anchor="start" x="1240" y="-17" font-family="Helvetica,sans-Serif" font-size="10.00">Common/Animator/ssplayer</text>
<text text-anchor="middle" x="1300.75" y="-5.75" font-family="Helvetica,sans-Serif" font-size="10.00">_PartState.cpp</text>
</a>
</g>
</g>
<!-- Node7&#45;&gt;Node8 -->
<g id="edge7_Node000007_Node000008" class="edge">
<title>Node7&#45;&gt;Node8</title>
<g id="a_edge7_Node000007_Node000008"><a xlink:title=" ">
<path fill="none" stroke="#63b8ff" d="M870.99,-261.34C998.98,-248.82 1237.71,-224.75 1244.75,-218.75 1301.94,-170.01 1303.35,-68.59 1301.72,-30.83"/>
<polygon fill="#63b8ff" stroke="#63b8ff" points="870.83,-257.84 861.22,-262.3 871.51,-264.81 870.83,-257.84"/>
</a>
</g>
</g>
<!-- Node9 -->
<g id="Node000009" class="node">
<title>Node9</title>
<g id="a_Node000009"><a xlink:href="ssplayer__animedecode_8cpp.html" target="_top" xlink:title=" ">
<polygon fill="white" stroke="#666666" points="605.5,-30.5 468,-30.5 468,0 605.5,0 605.5,-30.5"/>
<text text-anchor="start" x="476" y="-17" font-family="Helvetica,sans-Serif" font-size="10.00">Common/Animator/ssplayer</text>
<text text-anchor="middle" x="536.75" y="-5.75" font-family="Helvetica,sans-Serif" font-size="10.00">_animedecode.cpp</text>
</a>
</g>
</g>
<!-- Node7&#45;&gt;Node9 -->
<g id="edge8_Node000007_Node000009" class="edge">
<title>Node7&#45;&gt;Node9</title>
<g id="a_edge8_Node000007_Node000009"><a xlink:title=" ">
<path fill="none" stroke="#63b8ff" d="M734.54,-257.56C691.77,-248.49 632.08,-234.7 580.75,-218.75 515.68,-198.53 476.28,-219.69 437.75,-163.5 404.65,-115.23 475.22,-57.5 513.8,-30.94"/>
<polygon fill="#63b8ff" stroke="#63b8ff" points="733.59,-260.94 744.1,-259.57 735.03,-254.09 733.59,-260.94"/>
</a>
</g>
</g>
<!-- Node10 -->
<g id="Node000010" class="node">
<title>Node10</title>
<g id="a_Node000010"><a xlink:href="ssplayer__animedecode_8h.html" target="_top" xlink:title=" ">
<polygon fill="white" stroke="#666666" points="864.5,-97 727,-97 727,-66.5 864.5,-66.5 864.5,-97"/>
<text text-anchor="start" x="735" y="-83.5" font-family="Helvetica,sans-Serif" font-size="10.00">Common/Animator/ssplayer</text>
<text text-anchor="middle" x="795.75" y="-72.25" font-family="Helvetica,sans-Serif" font-size="10.00">_animedecode.h</text>
</a>
</g>
</g>
<!-- Node7&#45;&gt;Node10 -->
<g id="edge9_Node000007_Node000010" class="edge">
<title>Node7&#45;&gt;Node10</title>
<g id="a_edge9_Node000007_Node000010"><a xlink:title=" ">
<path fill="none" stroke="#63b8ff" d="M792.22,-248.56C793.66,-233.16 798.07,-212.52 810.75,-199.5 849.29,-159.91 896.82,-207.87 929.75,-163.5 953.14,-131.98 907.43,-110.32 863.18,-97.43"/>
<polygon fill="#63b8ff" stroke="#63b8ff" points="788.73,-248.3 791.68,-258.48 795.72,-248.69 788.73,-248.3"/>
</a>
</g>
</g>
<!-- Node11 -->
<g id="Node000011" class="node">
<title>Node11</title>
<g id="a_Node000011"><a xlink:href="ssplayer__cellmap_8cpp.html" target="_top" xlink:title=" ">
<polygon fill="white" stroke="#666666" points="1057.5,-30.5 920,-30.5 920,0 1057.5,0 1057.5,-30.5"/>
<text text-anchor="start" x="928" y="-17" font-family="Helvetica,sans-Serif" font-size="10.00">Common/Animator/ssplayer</text>
<text text-anchor="middle" x="988.75" y="-5.75" font-family="Helvetica,sans-Serif" font-size="10.00">_cellmap.cpp</text>
</a>
</g>
</g>
<!-- Node7&#45;&gt;Node11 -->
<g id="edge19_Node000007_Node000011" class="edge">
<title>Node7&#45;&gt;Node11</title>
<g id="a_edge19_Node000007_Node000011"><a xlink:title=" ">
<path fill="none" stroke="#63b8ff" d="M870.85,-262.07C987.66,-251.46 1193.8,-231.11 1204.75,-218.75 1272.23,-142.56 1106.12,-63.09 1027.38,-30.99"/>
<polygon fill="#63b8ff" stroke="#63b8ff" points="870.64,-258.58 860.99,-262.96 871.27,-265.55 870.64,-258.58"/>
</a>
</g>
</g>
<!-- Node12 -->
<g id="Node000012" class="node">
<title>Node12</title>
<g id="a_Node000012"><a xlink:href="ssplayer__effect_8cpp.html" target="_top" xlink:title=" ">
<polygon fill="white" stroke="#666666" points="293.5,-30.5 156,-30.5 156,0 293.5,0 293.5,-30.5"/>
<text text-anchor="start" x="164" y="-17" font-family="Helvetica,sans-Serif" font-size="10.00">Common/Animator/ssplayer</text>
<text text-anchor="middle" x="224.75" y="-5.75" font-family="Helvetica,sans-Serif" font-size="10.00">_effect.cpp</text>
</a>
</g>
</g>
<!-- Node7&#45;&gt;Node12 -->
<g id="edge20_Node000007_Node000012" class="edge">
<title>Node7&#45;&gt;Node12</title>
<g id="a_edge20_Node000007_Node000012"><a xlink:title=" ">
<path fill="none" stroke="#63b8ff" d="M734.95,-257.89C728.15,-256.74 721.31,-255.66 714.75,-254.75 479.29,-222.11 381.77,-300.83 187.75,-163.5 146.75,-134.48 103.83,-109.53 129.75,-66.5 139.76,-49.88 157.32,-38.47 174.64,-30.78"/>
<polygon fill="#63b8ff" stroke="#63b8ff" points="734.31,-261.33 744.77,-259.61 735.52,-254.44 734.31,-261.33"/>
</a>
</g>
</g>
<!-- Node13 -->
<g id="Node000013" class="node">
<title>Node13</title>
<g id="a_Node000013"><a xlink:href="ssplayer__effect2_8cpp.html" target="_top" xlink:title=" ">
<polygon fill="white" stroke="#666666" points="449.5,-30.5 312,-30.5 312,0 449.5,0 449.5,-30.5"/>
<text text-anchor="start" x="320" y="-17" font-family="Helvetica,sans-Serif" font-size="10.00">Common/Animator/ssplayer</text>
<text text-anchor="middle" x="380.75" y="-5.75" font-family="Helvetica,sans-Serif" font-size="10.00">_effect2.cpp</text>
</a>
</g>
</g>
<!-- Node7&#45;&gt;Node13 -->
<g id="edge30_Node000007_Node000013" class="edge">
<title>Node7&#45;&gt;Node13</title>
<g id="a_edge30_Node000007_Node000013"><a xlink:title=" ">
<path fill="none" stroke="#63b8ff" d="M733.08,-257.94C726.9,-256.83 720.7,-255.75 714.75,-254.75 609.69,-237.05 572.33,-267.8 477.75,-218.75 405.6,-181.33 386.63,-70.54 382.08,-30.71"/>
<polygon fill="#63b8ff" stroke="#63b8ff" points="732.19,-261.34 742.66,-259.67 733.44,-254.45 732.19,-261.34"/>
</a>
</g>
</g>
<!-- Node14 -->
<g id="Node000014" class="node">
<title>Node14</title>
<g id="a_Node000014"><a xlink:href="ssplayer__effectfunction_8cpp.html" target="_top" xlink:title=" ">
<polygon fill="white" stroke="#666666" points="137.5,-30.5 0,-30.5 0,0 137.5,0 137.5,-30.5"/>
<text text-anchor="start" x="8" y="-17" font-family="Helvetica,sans-Serif" font-size="10.00">Common/Animator/ssplayer</text>
<text text-anchor="middle" x="68.75" y="-5.75" font-family="Helvetica,sans-Serif" font-size="10.00">_effectfunction.cpp</text>
</a>
</g>
</g>
<!-- Node7&#45;&gt;Node14 -->
<g id="edge31_Node000007_Node000014" class="edge">
<title>Node7&#45;&gt;Node14</title>
<g id="a_edge31_Node000007_Node000014"><a xlink:title=" ">
<path fill="none" stroke="#63b8ff" d="M735.75,-257.92C728.7,-256.73 721.57,-255.64 714.75,-254.75 507.01,-227.65 445.72,-277.94 244.75,-218.75 195.29,-204.18 178.64,-200.51 142.75,-163.5 104.11,-123.65 81.54,-59.64 72.87,-30.97"/>
<polygon fill="#63b8ff" stroke="#63b8ff" points="735.14,-261.36 745.6,-259.64 736.35,-254.47 735.14,-261.36"/>
</a>
</g>
</g>
<!-- Node15 -->
<g id="Node000015" class="node">
<title>Node15</title>
<g id="a_Node000015"><a xlink:href="ssplayer__mesh_8cpp.html" target="_top" xlink:title=" ">
<polygon fill="white" stroke="#666666" points="1213.5,-30.5 1076,-30.5 1076,0 1213.5,0 1213.5,-30.5"/>
<text text-anchor="start" x="1084" y="-17" font-family="Helvetica,sans-Serif" font-size="10.00">Common/Animator/ssplayer</text>
<text text-anchor="middle" x="1144.75" y="-5.75" font-family="Helvetica,sans-Serif" font-size="10.00">_mesh.cpp</text>
</a>
</g>
</g>
<!-- Node7&#45;&gt;Node15 -->
<g id="edge32_Node000007_Node000015" class="edge">
<title>Node7&#45;&gt;Node15</title>
<g id="a_edge32_Node000007_Node000015"><a xlink:title=" ">
<path fill="none" stroke="#63b8ff" d="M870.92,-262.53C992.67,-252.19 1213.12,-231.8 1224.75,-218.75 1276.04,-161.17 1194.78,-66.77 1159.66,-30.79"/>
<polygon fill="#63b8ff" stroke="#63b8ff" points="870.64,-259.04 860.97,-263.37 871.23,-266.02 870.64,-259.04"/>
</a>
</g>
</g>
<!-- Node18 -->
<g id="Node000018" class="node">
<title>Node18</title>
<g id="a_Node000018"><a xlink:href="ssplayer__effect_8h.html" target="_top" xlink:title=" ">
<polygon fill="white" stroke="#666666" points="334.5,-163.5 197,-163.5 197,-133 334.5,-133 334.5,-163.5"/>
<text text-anchor="start" x="205" y="-150" font-family="Helvetica,sans-Serif" font-size="10.00">Common/Animator/ssplayer</text>
<text text-anchor="middle" x="265.75" y="-138.75" font-family="Helvetica,sans-Serif" font-size="10.00">_effect.h</text>
</a>
</g>
</g>
<!-- Node7&#45;&gt;Node18 -->
<g id="edge21_Node000007_Node000018" class="edge">
<title>Node7&#45;&gt;Node18</title>
<g id="a_edge21_Node000007_Node000018"><a xlink:title=" ">
<path fill="none" stroke="#63b8ff" d="M734.67,-257.91C727.97,-256.76 721.22,-255.68 714.75,-254.75 560.85,-232.58 512.66,-272.49 366.75,-218.75 333.19,-206.39 300.18,-180.32 281.45,-163.86"/>
<polygon fill="#63b8ff" stroke="#63b8ff" points="733.89,-261.33 744.35,-259.62 735.11,-254.43 733.89,-261.33"/>
</a>
</g>
</g>
<!-- Node20 -->
<g id="Node000020" class="node">
<title>Node20</title>
<g id="a_Node000020"><a xlink:href="ssplayer__types_8h.html" target="_top" xlink:title=" ">
<polygon fill="white" stroke="#666666" points="920.5,-163.5 783,-163.5 783,-133 920.5,-133 920.5,-163.5"/>
<text text-anchor="start" x="791" y="-150" font-family="Helvetica,sans-Serif" font-size="10.00">Common/Animator/ssplayer</text>
<text text-anchor="middle" x="851.75" y="-138.75" font-family="Helvetica,sans-Serif" font-size="10.00">_types.h</text>
</a>
</g>
</g>
<!-- Node7&#45;&gt;Node20 -->
<g id="edge33_Node000007_Node000020" class="edge">
<title>Node7&#45;&gt;Node20</title>
<g id="a_edge33_Node000007_Node000020"><a xlink:title=" ">
<path fill="none" stroke="#63b8ff" d="M781.24,-249.61C774.89,-235.09 769.48,-215.12 777.75,-199.5 786.11,-183.72 801.89,-171.98 816.74,-163.83"/>
<polygon fill="#63b8ff" stroke="#63b8ff" points="778.08,-251.1 785.62,-258.54 784.36,-248.02 778.08,-251.1"/>
</a>
</g>
</g>
<!-- Node21 -->
<g id="Node000021" class="node">
<title>Node21</title>
<g id="a_Node000021"><a xlink:href="ss_helper_8h.html" target="_top" xlink:title=" ">
<polygon fill="white" stroke="#666666" points="726.12,-218.75 589.38,-218.75 589.38,-199.5 726.12,-199.5 726.12,-218.75"/>
<text text-anchor="middle" x="657.75" y="-205.25" font-family="Helvetica,sans-Serif" font-size="10.00">Common/Helper/ssHelper.h</text>
</a>
</g>
</g>
<!-- Node7&#45;&gt;Node21 -->
<g id="edge35_Node000007_Node000021" class="edge">
<title>Node7&#45;&gt;Node21</title>
<g id="a_edge35_Node000007_Node000021"><a xlink:title=" ">
<path fill="none" stroke="#63b8ff" d="M760.9,-255.44C735.5,-244.29 700.22,-228.78 678.2,-219.11"/>
<polygon fill="#63b8ff" stroke="#63b8ff" points="759.16,-258.5 769.72,-259.32 761.97,-252.09 759.16,-258.5"/>
</a>
</g>
</g>
<!-- Node24 -->
<g id="Node000024" class="node">
<title>Node24</title>
<g id="a_Node000024"><a xlink:href="_ss_effect_element_8cpp.html" target="_top" xlink:title=" ">
<polygon fill="white" stroke="#666666" points="1003.75,-218.75 819.75,-218.75 819.75,-199.5 1003.75,-199.5 1003.75,-218.75"/>
<text text-anchor="middle" x="911.75" y="-205.25" font-family="Helvetica,sans-Serif" font-size="10.00">Common/Loader/SsEffectElement.cpp</text>
</a>
</g>
</g>
<!-- Node7&#45;&gt;Node24 -->
<g id="edge40_Node000007_Node000024" class="edge">
<title>Node7&#45;&gt;Node24</title>
<g id="a_edge40_Node000007_Node000024"><a xlink:title=" ">
<path fill="none" stroke="#63b8ff" d="M820.3,-254.99C842.97,-243.87 873.98,-228.65 893.44,-219.11"/>
<polygon fill="#63b8ff" stroke="#63b8ff" points="819.03,-251.72 811.6,-259.26 822.12,-258 819.03,-251.72"/>
</a>
</g>
</g>
<!-- Node25 -->
<g id="Node000025" class="node">
<title>Node25</title>
<g id="a_Node000025"><a xlink:href="ss_interpolation_8cpp.html" target="_top" xlink:title=" ">
<polygon fill="white" stroke="#666666" points="1195.5,-218.75 1022,-218.75 1022,-199.5 1195.5,-199.5 1195.5,-218.75"/>
<text text-anchor="middle" x="1108.75" y="-205.25" font-family="Helvetica,sans-Serif" font-size="10.00">Common/Loader/ssInterpolation.cpp</text>
</a>
</g>
</g>
<!-- Node7&#45;&gt;Node25 -->
<g id="edge41_Node000007_Node000025" class="edge">
<title>Node7&#45;&gt;Node25</title>
<g id="a_edge41_Node000007_Node000025"><a xlink:title=" ">
<path fill="none" stroke="#63b8ff" d="M851.83,-257.84C912.13,-246.64 1003.87,-229.6 1059.86,-219.21"/>
<polygon fill="#63b8ff" stroke="#63b8ff" points="851.27,-254.39 842.07,-259.65 852.55,-261.27 851.27,-254.39"/>
</a>
</g>
</g>
<!-- Node26 -->
<g id="Node000026" class="node">
<title>Node26</title>
<g id="a_Node000026"><a xlink:href="ssattribute_8cpp.html" target="_top" xlink:title=" ">
<polygon fill="white" stroke="#666666" points="1483.5,-218.75 1328,-218.75 1328,-199.5 1483.5,-199.5 1483.5,-218.75"/>
<text text-anchor="middle" x="1405.75" y="-205.25" font-family="Helvetica,sans-Serif" font-size="10.00">Common/Loader/ssattribute.cpp</text>
</a>
</g>
</g>
<!-- Node7&#45;&gt;Node26 -->
<g id="edge42_Node000007_Node000026" class="edge">
<title>Node7&#45;&gt;Node26</title>
<g id="a_edge42_Node000007_Node000026"><a xlink:title=" ">
<path fill="none" stroke="#63b8ff" d="M870.91,-261.41C989.08,-250.08 1210.26,-228.87 1327.75,-217.6"/>
<polygon fill="#63b8ff" stroke="#63b8ff" points="870.93,-257.89 861.31,-262.33 871.6,-264.86 870.93,-257.89"/>
</a>
</g>
</g>
<!-- Node10&#45;&gt;Node8 -->
<g id="edge10_Node000010_Node000008" class="edge">
<title>Node10&#45;&gt;Node8</title>
<g id="a_edge10_Node000010_Node000008"><a xlink:title=" ">
<path fill="none" stroke="#63b8ff" d="M875.95,-72.85C961.92,-64.02 1102.3,-48.57 1222.75,-30.5 1225.74,-30.05 1228.8,-29.57 1231.89,-29.08"/>
<polygon fill="#63b8ff" stroke="#63b8ff" points="875.81,-69.35 866.21,-73.84 876.52,-76.31 875.81,-69.35"/>
</a>
</g>
</g>
<!-- Node10&#45;&gt;Node9 -->
<g id="edge11_Node000010_Node000009" class="edge">
<title>Node10&#45;&gt;Node9</title>
<g id="a_edge11_Node000010_Node000009"><a xlink:title=" ">
<path fill="none" stroke="#63b8ff" d="M725.72,-63.31C684.99,-53.17 634.24,-40.53 595.59,-30.9"/>
<polygon fill="#63b8ff" stroke="#63b8ff" points="724.64,-66.65 735.19,-65.67 726.33,-59.85 724.64,-66.65"/>
</a>
</g>
</g>
<!-- Node10&#45;&gt;Node11 -->
<g id="edge12_Node000010_Node000011" class="edge">
<title>Node10&#45;&gt;Node11</title>
<g id="a_edge12_Node000010_Node000011"><a xlink:title=" ">
<path fill="none" stroke="#63b8ff" d="M850.23,-62.54C880.14,-52.55 916.73,-40.32 944.79,-30.94"/>
<polygon fill="#63b8ff" stroke="#63b8ff" points="849.36,-59.14 840.98,-65.63 851.57,-65.78 849.36,-59.14"/>
</a>
</g>
</g>
<!-- Node10&#45;&gt;Node12 -->
<g id="edge13_Node000010_Node000012" class="edge">
<title>Node10&#45;&gt;Node12</title>
<g id="a_edge13_Node000010_Node000012"><a xlink:title=" ">
<path fill="none" stroke="#63b8ff" d="M715.28,-74.52C617.48,-66.49 447.57,-51.08 302.75,-30.5 299.75,-30.07 296.69,-29.62 293.61,-29.13"/>
<polygon fill="#63b8ff" stroke="#63b8ff" points="714.79,-77.99 725.04,-75.31 715.36,-71.01 714.79,-77.99"/>
</a>
</g>
</g>
<!-- Node10&#45;&gt;Node13 -->
<g id="edge14_Node000010_Node000013" class="edge">
<title>Node10&#45;&gt;Node13</title>
<g id="a_edge14_Node000010_Node000013"><a xlink:title=" ">
<path fill="none" stroke="#63b8ff" d="M715.48,-69.53C647.13,-59.8 546.37,-45.03 458.75,-30.5 455.76,-30 452.71,-29.49 449.63,-28.96"/>
<polygon fill="#63b8ff" stroke="#63b8ff" points="714.69,-72.96 725.09,-70.9 715.68,-66.03 714.69,-72.96"/>
</a>
</g>
</g>
<!-- Node10&#45;&gt;Node14 -->
<g id="edge15_Node000010_Node000014" class="edge">
<title>Node10&#45;&gt;Node14</title>
<g id="a_edge15_Node000010_Node000014"><a xlink:title=" ">
<path fill="none" stroke="#63b8ff" d="M715.68,-77.22C592.87,-71.2 350.8,-56.97 146.75,-30.5 143.75,-30.11 140.68,-29.68 137.59,-29.23"/>
<polygon fill="#63b8ff" stroke="#63b8ff" points="715.16,-80.7 725.32,-77.69 715.5,-73.71 715.16,-80.7"/>
</a>
</g>
</g>
<!-- Node10&#45;&gt;Node15 -->
<g id="edge16_Node000010_Node000015" class="edge">
<title>Node10&#45;&gt;Node15</title>
<g id="a_edge16_Node000010_Node000015"><a xlink:title=" ">
<path fill="none" stroke="#63b8ff" d="M875.71,-65.97C936.09,-54.81 1018.09,-39.66 1075.64,-29.02"/>
<polygon fill="#63b8ff" stroke="#63b8ff" points="875.39,-62.47 866.19,-67.73 876.66,-69.36 875.39,-62.47"/>
</a>
</g>
</g>
<!-- Node16 -->
<g id="Node000016" class="node">
<title>Node16</title>
<g id="a_Node000016"><a xlink:href="ssplayer__render__dx9_8cpp.html" target="_top" xlink:title=" ">
<polygon fill="white" stroke="#666666" points="753.75,-30.5 623.75,-30.5 623.75,0 753.75,0 753.75,-30.5"/>
<text text-anchor="start" x="631.75" y="-17" font-family="Helvetica,sans-Serif" font-size="10.00">Common/Drawer/ssplayer</text>
<text text-anchor="middle" x="688.75" y="-5.75" font-family="Helvetica,sans-Serif" font-size="10.00">_render_dx9.cpp</text>
</a>
</g>
</g>
<!-- Node10&#45;&gt;Node16 -->
<g id="edge17_Node000010_Node000016" class="edge">
<title>Node10&#45;&gt;Node16</title>
<g id="a_edge17_Node000010_Node000016"><a xlink:title=" ">
<path fill="none" stroke="#63b8ff" d="M761.97,-60.39C746.05,-50.79 727.42,-39.56 712.93,-30.83"/>
<polygon fill="#63b8ff" stroke="#63b8ff" points="759.8,-63.17 770.17,-65.33 763.42,-57.17 759.8,-63.17"/>
</a>
</g>
</g>
<!-- Node17 -->
<g id="Node000017" class="node">
<title>Node17</title>
<g id="a_Node000017"><a xlink:href="ssplayer__render__gl_8cpp.html" target="_top" xlink:title=" ">
<polygon fill="white" stroke="#666666" points="901.75,-30.5 771.75,-30.5 771.75,0 901.75,0 901.75,-30.5"/>
<text text-anchor="start" x="779.75" y="-17" font-family="Helvetica,sans-Serif" font-size="10.00">Common/Drawer/ssplayer</text>
<text text-anchor="middle" x="836.75" y="-5.75" font-family="Helvetica,sans-Serif" font-size="10.00">_render_gl.cpp</text>
</a>
</g>
</g>
<!-- Node10&#45;&gt;Node17 -->
<g id="edge18_Node000010_Node000017" class="edge">
<title>Node10&#45;&gt;Node17</title>
<g id="a_edge18_Node000010_Node000017"><a xlink:title=" ">
<path fill="none" stroke="#63b8ff" d="M811.16,-56.51C816.65,-47.87 822.67,-38.41 827.48,-30.83"/>
<polygon fill="#63b8ff" stroke="#63b8ff" points="808.28,-54.52 805.87,-64.84 814.18,-58.27 808.28,-54.52"/>
</a>
</g>
</g>
<!-- Node18&#45;&gt;Node9 -->
<g id="edge22_Node000018_Node000009" class="edge">
<title>Node18&#45;&gt;Node9</title>
<g id="a_edge22_Node000018_Node000009"><a xlink:title=" ">
<path fill="none" stroke="#63b8ff" d="M297.79,-126.63C325.45,-109.32 366.83,-84.58 404.75,-66.5 433.41,-52.83 466.85,-40.13 492.91,-30.92"/>
<polygon fill="#63b8ff" stroke="#63b8ff" points="296.12,-123.54 289.53,-131.84 299.85,-129.46 296.12,-123.54"/>
</a>
</g>
</g>
<!-- Node18&#45;&gt;Node12 -->
<g id="edge23_Node000018_Node000012" class="edge">
<title>Node18&#45;&gt;Node12</title>
<g id="a_edge23_Node000018_Node000012"><a xlink:title=" ">
<path fill="none" stroke="#63b8ff" d="M280.17,-122.72C287.87,-106.26 294.19,-84.39 285.75,-66.5 278.67,-51.49 264.65,-39.44 251.84,-30.91"/>
<polygon fill="#63b8ff" stroke="#63b8ff" points="277.21,-120.83 275.75,-131.32 283.43,-124.03 277.21,-120.83"/>
</a>
</g>
</g>
<!-- Node18&#45;&gt;Node14 -->
<g id="edge25_Node000018_Node000014" class="edge">
<title>Node18&#45;&gt;Node14</title>
<g id="a_edge25_Node000018_Node000014"><a xlink:title=" ">
<path fill="none" stroke="#63b8ff" d="M192.98,-128.9C171.33,-121.27 148.42,-110.87 129.75,-97 105.49,-78.98 86.29,-48.72 76.31,-30.81"/>
<polygon fill="#63b8ff" stroke="#63b8ff" points="191.79,-132.2 202.39,-132.06 194.02,-125.56 191.79,-132.2"/>
</a>
</g>
</g>
<!-- Node18&#45;&gt;Node18 -->
<g id="edge24_Node000018_Node000018" class="edge">
<title>Node18&#45;&gt;Node18</title>
<g id="a_edge24_Node000018_Node000018"><a xlink:title=" ">
<path fill="none" stroke="#63b8ff" d="M345.73,-155.79C349.98,-153.94 352.5,-151.43 352.5,-148.25 352.5,-142.9 345.35,-139.43 334.83,-137.84"/>
<polygon fill="#63b8ff" stroke="#63b8ff" points="345.07,-152.35 336.29,-158.27 346.85,-159.11 345.07,-152.35"/>
</a>
</g>
</g>
<!-- Node19 -->
<g id="Node000019" class="node">
<title>Node19</title>
<g id="a_Node000019"><a xlink:href="ssplayer__effectfunction_8h.html" target="_top" xlink:title=" ">
<polygon fill="white" stroke="#666666" points="276.5,-97 139,-97 139,-66.5 276.5,-66.5 276.5,-97"/>
<text text-anchor="start" x="147" y="-83.5" font-family="Helvetica,sans-Serif" font-size="10.00">Common/Animator/ssplayer</text>
<text text-anchor="middle" x="207.75" y="-72.25" font-family="Helvetica,sans-Serif" font-size="10.00">_effectfunction.h</text>
</a>
</g>
</g>
<!-- Node18&#45;&gt;Node19 -->
<g id="edge26_Node000018_Node000019" class="edge">
<title>Node18&#45;&gt;Node19</title>
<g id="a_edge26_Node000018_Node000019"><a xlink:title=" ">
<path fill="none" stroke="#63b8ff" d="M244.96,-124.13C236.92,-115.19 227.97,-105.24 220.86,-97.33"/>
<polygon fill="#63b8ff" stroke="#63b8ff" points="242.29,-126.39 251.58,-131.49 247.49,-121.71 242.29,-126.39"/>
</a>
</g>
</g>
<!-- Node19&#45;&gt;Node12 -->
<g id="edge27_Node000019_Node000012" class="edge">
<title>Node19&#45;&gt;Node12</title>
<g id="a_edge27_Node000019_Node000012"><a xlink:title=" ">
<path fill="none" stroke="#63b8ff" d="M214.51,-55.09C216.69,-46.84 219.02,-37.99 220.91,-30.83"/>
<polygon fill="#63b8ff" stroke="#63b8ff" points="211.16,-54.09 211.99,-64.65 217.93,-55.87 211.16,-54.09"/>
</a>
</g>
</g>
<!-- Node19&#45;&gt;Node13 -->
<g id="edge28_Node000019_Node000013" class="edge">
<title>Node19&#45;&gt;Node13</title>
<g id="a_edge28_Node000019_Node000013"><a xlink:title=" ">
<path fill="none" stroke="#63b8ff" d="M257.65,-62.15C284.25,-52.23 316.52,-40.2 341.35,-30.94"/>
<polygon fill="#63b8ff" stroke="#63b8ff" points="256.57,-58.81 248.42,-65.59 259.02,-65.37 256.57,-58.81"/>
</a>
</g>
</g>
<!-- Node19&#45;&gt;Node14 -->
<g id="edge29_Node000019_Node000014" class="edge">
<title>Node19&#45;&gt;Node14</title>
<g id="a_edge29_Node000019_Node000014"><a xlink:title=" ">
<path fill="none" stroke="#63b8ff" d="M165.9,-61.33C144.79,-51.53 119.6,-39.85 100.17,-30.83"/>
<polygon fill="#63b8ff" stroke="#63b8ff" points="164.29,-64.44 174.84,-65.48 167.24,-58.09 164.29,-64.44"/>
</a>
</g>
</g>
<!-- Node20&#45;&gt;Node10 -->
<g id="edge34_Node000020_Node000010" class="edge">
<title>Node20&#45;&gt;Node10</title>
<g id="a_edge34_Node000020_Node000010"><a xlink:title=" ">
<path fill="none" stroke="#63b8ff" d="M831.68,-124.13C823.92,-115.19 815.27,-105.24 808.41,-97.33"/>
<polygon fill="#63b8ff" stroke="#63b8ff" points="828.85,-126.21 838.05,-131.47 834.14,-121.63 828.85,-126.21"/>
</a>
</g>
</g>
<!-- Node21&#45;&gt;Node10 -->
<g id="edge36_Node000021_Node000010" class="edge">
<title>Node21&#45;&gt;Node10</title>
<g id="a_edge36_Node000021_Node000010"><a xlink:title=" ">
<path fill="none" stroke="#63b8ff" d="M688.76,-194.13C703.9,-186.41 721.81,-175.87 735.75,-163.5 757.96,-143.79 777.13,-114.65 787.51,-97.29"/>
<polygon fill="#63b8ff" stroke="#63b8ff" points="687.59,-190.81 680.16,-198.36 690.68,-197.09 687.59,-190.81"/>
</a>
</g>
</g>
<!-- Node21&#45;&gt;Node20 -->
<g id="edge37_Node000021_Node000020" class="edge">
<title>Node21&#45;&gt;Node20</title>
<g id="a_edge37_Node000021_Node000020"><a xlink:title=" ">
<path fill="none" stroke="#63b8ff" d="M698.35,-195.8C728.94,-186.52 770.99,-173.76 803.33,-163.94"/>
<polygon fill="#63b8ff" stroke="#63b8ff" points="697.64,-192.36 689.09,-198.62 699.67,-199.06 697.64,-192.36"/>
</a>
</g>
</g>
<!-- Node22 -->
<g id="Node000022" class="node">
<title>Node22</title>
<g id="a_Node000022"><a xlink:href="_s_s_texture_d_x9_8cpp.html" target="_top" xlink:title=" ">
<polygon fill="white" stroke="#666666" points="570.38,-163.5 447.12,-163.5 447.12,-133 570.38,-133 570.38,-163.5"/>
<text text-anchor="start" x="455.12" y="-150" font-family="Helvetica,sans-Serif" font-size="10.00">Common/Helper/DirectX</text>
<text text-anchor="middle" x="508.75" y="-138.75" font-family="Helvetica,sans-Serif" font-size="10.00">/SSTextureDX9.cpp</text>
</a>
</g>
</g>
<!-- Node21&#45;&gt;Node22 -->
<g id="edge38_Node000021_Node000022" class="edge">
<title>Node21&#45;&gt;Node22</title>
<g id="a_edge38_Node000021_Node000022"><a xlink:title=" ">
<path fill="none" stroke="#63b8ff" d="M624.38,-194.94C601.1,-185.74 570.02,-173.46 545.94,-163.94"/>
<polygon fill="#63b8ff" stroke="#63b8ff" points="622.8,-198.08 633.39,-198.5 625.37,-191.57 622.8,-198.08"/>
</a>
</g>
</g>
<!-- Node23 -->
<g id="Node000023" class="node">
<title>Node23</title>
<g id="a_Node000023"><a xlink:href="ssh_texture_b_m_p_8cpp.html" target="_top" xlink:title=" ">
<polygon fill="white" stroke="#666666" points="726.88,-163.5 588.62,-163.5 588.62,-133 726.88,-133 726.88,-163.5"/>
<text text-anchor="start" x="596.62" y="-150" font-family="Helvetica,sans-Serif" font-size="10.00">Common/Helper/sshTexture</text>
<text text-anchor="middle" x="657.75" y="-138.75" font-family="Helvetica,sans-Serif" font-size="10.00">BMP.cpp</text>
</a>
</g>
</g>
<!-- Node21&#45;&gt;Node23 -->
<g id="edge39_Node000021_Node000023" class="edge">
<title>Node21&#45;&gt;Node23</title>
<g id="a_edge39_Node000021_Node000023"><a xlink:title=" ">
<path fill="none" stroke="#63b8ff" d="M657.75,-187.92C657.75,-179.99 657.75,-171.06 657.75,-163.78"/>
<polygon fill="#63b8ff" stroke="#63b8ff" points="654.25,-187.67 657.75,-197.67 661.25,-187.67 654.25,-187.67"/>
</a>
</g>
</g>
<!-- Node29&#45;&gt;Node28 -->
<g id="edge64_Node000029_Node000028" class="edge">
<title>Node29&#45;&gt;Node28</title>
<g id="a_edge64_Node000029_Node000028"><a xlink:title=" ">
<path fill="none" stroke="#63b8ff" d="M938.03,-512.1C985.4,-500.9 1056.01,-484.2 1099.35,-473.96"/>
<polygon fill="#63b8ff" stroke="#63b8ff" points="937.51,-508.62 928.58,-514.33 939.12,-515.44 937.51,-508.62"/>
</a>
</g>
</g>
<!-- Node30 -->
<g id="Node000030" class="node">
<title>Node30</title>
<g id="a_Node000030"><a xlink:href="_ss_effect_behavior_8h.html" target="_top" xlink:title=" ">
<polygon fill="white" stroke="#666666" points="885.25,-473.5 710.25,-473.5 710.25,-454.25 885.25,-454.25 885.25,-473.5"/>
<text text-anchor="middle" x="797.75" y="-460" font-family="Helvetica,sans-Serif" font-size="10.00">Common/Loader/SsEffectBehavior.h</text>
</a>
</g>
</g>
<!-- Node29&#45;&gt;Node30 -->
<g id="edge48_Node000029_Node000030" class="edge">
<title>Node29&#45;&gt;Node30</title>
<g id="a_edge48_Node000029_Node000030"><a xlink:title=" ">
<path fill="none" stroke="#63b8ff" d="M865.66,-508.81C848.64,-497.8 826.05,-483.18 811.7,-473.9"/>
<polygon fill="#63b8ff" stroke="#63b8ff" points="863.36,-511.49 873.66,-513.99 867.16,-505.62 863.36,-511.49"/>
</a>
</g>
</g>
<!-- Node33 -->
<g id="Node000033" class="node">
<title>Node33</title>
<g id="a_Node000033"><a xlink:href="ssattribute_8h.html" target="_top" xlink:title=" ">
<polygon fill="white" stroke="#666666" points="1048.25,-473.5 903.25,-473.5 903.25,-454.25 1048.25,-454.25 1048.25,-473.5"/>
<text text-anchor="middle" x="975.75" y="-460" font-family="Helvetica,sans-Serif" font-size="10.00">Common/Loader/ssattribute.h</text>
</a>
</g>
</g>
<!-- Node29&#45;&gt;Node33 -->
<g id="edge55_Node000029_Node000033" class="edge">
<title>Node29&#45;&gt;Node33</title>
<g id="a_edge55_Node000029_Node000033"><a xlink:title=" ">
<path fill="none" stroke="#63b8ff" d="M911.28,-508.5C927.5,-497.53 948.82,-483.1 962.41,-473.9"/>
<polygon fill="#63b8ff" stroke="#63b8ff" points="909.54,-505.46 903.22,-513.96 913.46,-511.25 909.54,-505.46"/>
</a>
</g>
</g>
<!-- Node31 -->
<g id="Node000031" class="node">
<title>Node31</title>
<g id="a_Node000031"><a xlink:href="_ss_effect_behavior_8cpp.html" target="_top" xlink:title=" ">
<polygon fill="white" stroke="#666666" points="987.5,-412.62 802,-412.62 802,-393.38 987.5,-393.38 987.5,-412.62"/>
<text text-anchor="middle" x="894.75" y="-399.12" font-family="Helvetica,sans-Serif" font-size="10.00">Common/Loader/SsEffectBehavior.cpp</text>
</a>
</g>
</g>
<!-- Node30&#45;&gt;Node31 -->
<g id="edge49_Node000030_Node000031" class="edge">
<title>Node30&#45;&gt;Node31</title>
<g id="a_edge49_Node000030_Node000031"><a xlink:title=" ">
<path fill="none" stroke="#63b8ff" d="M822.11,-448.09C840.28,-437.06 864.51,-422.35 879.88,-413.03"/>
<polygon fill="#63b8ff" stroke="#63b8ff" points="820.51,-444.97 813.78,-453.15 824.14,-450.95 820.51,-444.97"/>
</a>
</g>
</g>
<!-- Node32 -->
<g id="Node000032" class="node">
<title>Node32</title>
<g id="a_Node000032"><a xlink:href="ssloader__ssee_8h.html" target="_top" xlink:title=" ">
<polygon fill="white" stroke="#666666" points="783.62,-418.25 655.88,-418.25 655.88,-387.75 783.62,-387.75 783.62,-418.25"/>
<text text-anchor="start" x="663.88" y="-404.75" font-family="Helvetica,sans-Serif" font-size="10.00">Common/Loader/ssloader</text>
<text text-anchor="middle" x="719.75" y="-393.5" font-family="Helvetica,sans-Serif" font-size="10.00">_ssee.h</text>
</a>
</g>
</g>
<!-- Node30&#45;&gt;Node32 -->
<g id="edge50_Node000030_Node000032" class="edge">
<title>Node30&#45;&gt;Node32</title>
<g id="a_edge50_Node000030_Node000032"><a xlink:title=" ">
<path fill="none" stroke="#63b8ff" d="M776.82,-447.07C765.05,-438.2 750.48,-427.19 739,-418.53"/>
<polygon fill="#63b8ff" stroke="#63b8ff" points="774.61,-449.79 784.7,-453.02 778.82,-444.2 774.61,-449.79"/>
</a>
</g>
</g>
<!-- Node32&#45;&gt;Node4 -->
<g id="edge52_Node000032_Node000004" class="edge">
<title>Node32&#45;&gt;Node4</title>
<g id="a_edge52_Node000032_Node000004"><a xlink:title=" ">
<path fill="none" stroke="#63b8ff" d="M705.25,-377.73C700.33,-369.49 694.8,-360.22 689.75,-351.75 675.98,-328.63 660.02,-301.77 650.41,-285.59"/>
<polygon fill="#63b8ff" stroke="#63b8ff" points="702.17,-379.4 710.3,-386.19 708.18,-375.81 702.17,-379.4"/>
</a>
</g>
</g>
<!-- Node32&#45;&gt;Node5 -->
<g id="edge53_Node000032_Node000005" class="edge">
<title>Node32&#45;&gt;Node5</title>
<g id="a_edge53_Node000032_Node000005"><a xlink:title=" ">
<path fill="none" stroke="#63b8ff" d="M767.7,-383.03C791,-373.73 819.39,-362.29 844.75,-351.75 899.04,-329.18 961.7,-302.05 999.23,-285.68"/>
<polygon fill="#63b8ff" stroke="#63b8ff" points="766.44,-379.76 758.44,-386.72 769.03,-386.27 766.44,-379.76"/>
</a>
</g>
</g>
<!-- Node32&#45;&gt;Node6 -->
<g id="edge54_Node000032_Node000006" class="edge">
<title>Node32&#45;&gt;Node6</title>
<g id="a_edge54_Node000032_Node000006"><a xlink:title=" ">
<path fill="none" stroke="#63b8ff" d="M738.61,-378.6C745.76,-369.73 753.69,-359.9 760,-352.08"/>
<polygon fill="#63b8ff" stroke="#63b8ff" points="736.05,-376.2 732.5,-386.19 741.5,-380.6 736.05,-376.2"/>
</a>
</g>
</g>
<!-- Node32&#45;&gt;Node7 -->
<g id="edge51_Node000032_Node000007" class="edge">
<title>Node32&#45;&gt;Node7</title>
<g id="a_edge51_Node000032_Node000007"><a xlink:title=" ">
<path fill="none" stroke="#63b8ff" d="M704.16,-377.7C695.53,-360.9 688.43,-338.56 698.75,-321.25 711.35,-300.13 736.24,-287.35 757.1,-279.97"/>
<polygon fill="#63b8ff" stroke="#63b8ff" points="700.89,-379.03 708.85,-386.03 706.99,-375.59 700.89,-379.03"/>
</a>
</g>
</g>
<!-- Node33&#45;&gt;Node7 -->
<g id="edge57_Node000033_Node000007" class="edge">
<title>Node33&#45;&gt;Node7</title>
<g id="a_edge57_Node000033_Node000007"><a xlink:title=" ">
<path fill="none" stroke="#63b8ff" d="M1051.83,-451.73C1090.27,-444.38 1131.19,-433.31 1142.75,-418.25 1168.09,-385.26 1110.98,-325.56 1104.75,-321.25 1084.92,-307.53 945.56,-289.04 859.61,-278.75"/>
<polygon fill="#63b8ff" stroke="#63b8ff" points="1051.25,-448.28 1042.04,-453.52 1052.51,-455.16 1051.25,-448.28"/>
</a>
</g>
</g>
<!-- Node33&#45;&gt;Node26 -->
<g id="edge56_Node000033_Node000026" class="edge">
<title>Node33&#45;&gt;Node26</title>
<g id="a_edge56_Node000033_Node000026"><a xlink:title=" ">
<path fill="none" stroke="#63b8ff" d="M1056.75,-451.63C1089.91,-444.92 1127.89,-434.44 1159.75,-418.25 1268.48,-363.01 1370.42,-250.93 1398.29,-218.87"/>
<polygon fill="#63b8ff" stroke="#63b8ff" points="1056.35,-448.14 1047.19,-453.48 1057.67,-455.02 1056.35,-448.14"/>
</a>
</g>
</g>
<!-- Node34 -->
<g id="Node000034" class="node">
<title>Node34</title>
<g id="a_Node000034"><a xlink:href="ssloader__ssae_8h.html" target="_top" xlink:title=" ">
<polygon fill="white" stroke="#666666" points="1133.62,-418.25 1005.88,-418.25 1005.88,-387.75 1133.62,-387.75 1133.62,-418.25"/>
<text text-anchor="start" x="1013.88" y="-404.75" font-family="Helvetica,sans-Serif" font-size="10.00">Common/Loader/ssloader</text>
<text text-anchor="middle" x="1069.75" y="-393.5" font-family="Helvetica,sans-Serif" font-size="10.00">_ssae.h</text>
</a>
</g>
</g>
<!-- Node33&#45;&gt;Node34 -->
<g id="edge58_Node000033_Node000034" class="edge">
<title>Node33&#45;&gt;Node34</title>
<g id="a_edge58_Node000033_Node000034"><a xlink:title=" ">
<path fill="none" stroke="#63b8ff" d="M999.71,-447.87C1014.1,-438.86 1032.3,-427.45 1046.55,-418.53"/>
<polygon fill="#63b8ff" stroke="#63b8ff" points="997.93,-444.86 991.31,-453.13 1001.64,-450.79 997.93,-444.86"/>
</a>
</g>
</g>
<!-- Node34&#45;&gt;Node4 -->
<g id="edge61_Node000034_Node000004" class="edge">
<title>Node34&#45;&gt;Node4</title>
<g id="a_edge61_Node000034_Node000004"><a xlink:title=" ">
<path fill="none" stroke="#63b8ff" d="M994.62,-385.15C963.09,-376.88 926.47,-365.67 894.75,-351.75 870.92,-341.29 868.77,-331.27 844.75,-321.25 819.87,-310.87 755.55,-295.62 705.91,-284.65"/>
<polygon fill="#63b8ff" stroke="#63b8ff" points="993.52,-388.48 1004.07,-387.58 995.26,-381.7 993.52,-388.48"/>
</a>
</g>
</g>
<!-- Node34&#45;&gt;Node5 -->
<g id="edge62_Node000034_Node000005" class="edge">
<title>Node34&#45;&gt;Node5</title>
<g id="a_edge62_Node000034_Node000005"><a xlink:title=" ">
<path fill="none" stroke="#63b8ff" d="M1091.22,-378.53C1103.45,-362.19 1114.55,-340.05 1104.75,-321.25 1096.57,-305.57 1081.02,-293.78 1066.46,-285.58"/>
<polygon fill="#63b8ff" stroke="#63b8ff" points="1088.55,-376.26 1084.99,-386.24 1094,-380.66 1088.55,-376.26"/>
</a>
</g>
</g>
<!-- Node34&#45;&gt;Node6 -->
<g id="edge63_Node000034_Node000006" class="edge">
<title>Node34&#45;&gt;Node6</title>
<g id="a_edge63_Node000034_Node000006"><a xlink:title=" ">
<path fill="none" stroke="#63b8ff" d="M994.3,-385.67C945.41,-375.09 882.41,-361.45 835.93,-351.39"/>
<polygon fill="#63b8ff" stroke="#63b8ff" points="993.46,-389.07 1003.98,-387.76 994.94,-382.23 993.46,-389.07"/>
</a>
</g>
</g>
<!-- Node34&#45;&gt;Node7 -->
<g id="edge59_Node000034_Node000007" class="edge">
<title>Node34&#45;&gt;Node7</title>
<g id="a_edge59_Node000034_Node000007"><a xlink:title=" ">
<path fill="none" stroke="#63b8ff" d="M1026.31,-382.64C1005.77,-373.41 980.94,-362.13 958.75,-351.75 904.5,-326.36 840.92,-295.24 810.21,-280.12"/>
<polygon fill="#63b8ff" stroke="#63b8ff" points="1024.68,-385.75 1035.24,-386.65 1027.55,-379.36 1024.68,-385.75"/>
</a>
</g>
</g>
<!-- Node35 -->
<g id="Node000035" class="node">
<title>Node35</title>
<g id="a_Node000035"><a xlink:href="ssloader__ssae_8cpp.html" target="_top" xlink:title=" ">
<polygon fill="white" stroke="#666666" points="1095.62,-351.75 967.88,-351.75 967.88,-321.25 1095.62,-321.25 1095.62,-351.75"/>
<text text-anchor="start" x="975.88" y="-338.25" font-family="Helvetica,sans-Serif" font-size="10.00">Common/Loader/ssloader</text>
<text text-anchor="middle" x="1031.75" y="-327" font-family="Helvetica,sans-Serif" font-size="10.00">_ssae.cpp</text>
</a>
</g>
</g>
<!-- Node34&#45;&gt;Node35 -->
<g id="edge60_Node000034_Node000035" class="edge">
<title>Node34&#45;&gt;Node35</title>
<g id="a_edge60_Node000034_Node000035"><a xlink:title=" ">
<path fill="none" stroke="#63b8ff" d="M1055.3,-377.48C1050.26,-368.91 1044.75,-359.57 1040.34,-352.08"/>
<polygon fill="#63b8ff" stroke="#63b8ff" points="1052.27,-379.22 1060.36,-386.06 1058.3,-375.67 1052.27,-379.22"/>
</a>
</g>
</g>
</g>
</svg>
