<?xml version="1.0" encoding="UTF-8" standalone="no"?>
<!DOCTYPE svg PUBLIC "-//W3C//DTD SVG 1.1//EN"
 "http://www.w3.org/Graphics/SVG/1.1/DTD/svg11.dtd">
<!-- Generated by graphviz version 12.2.1 (20241206.2353)
 -->
<!-- Title: Common/Loader/ssstring_uty.cpp Pages: 1 -->
<svg width="639pt" height="149pt"
 viewBox="0.00 0.00 638.88 149.00" xmlns="http://www.w3.org/2000/svg" xmlns:xlink="http://www.w3.org/1999/xlink">
<g id="graph0" class="graph" transform="scale(1 1) rotate(0) translate(4 145)">
<title>Common/Loader/ssstring_uty.cpp</title>
<!-- Node1 -->
<g id="Node000001" class="node">
<title>Node1</title>
<g id="a_Node000001"><a xlink:title=" ">
<polygon fill="#999999" stroke="#666666" points="372.38,-141 246.88,-141 246.88,-110.5 372.38,-110.5 372.38,-141"/>
<text text-anchor="start" x="254.88" y="-127.5" font-family="Helvetica,sans-Serif" font-size="10.00">Common/Loader/ssstring</text>
<text text-anchor="middle" x="309.62" y="-116.25" font-family="Helvetica,sans-Serif" font-size="10.00">_uty.cpp</text>
</a>
</g>
</g>
<!-- Node2 -->
<g id="Node000002" class="node">
<title>Node2</title>
<g id="a_Node000002"><a xlink:title=" ">
<polygon fill="#e0e0e0" stroke="#999999" points="119.62,-19.25 79.62,-19.25 79.62,0 119.62,0 119.62,-19.25"/>
<text text-anchor="middle" x="99.62" y="-5.75" font-family="Helvetica,sans-Serif" font-size="10.00">string</text>
</a>
</g>
</g>
<!-- Node1&#45;&gt;Node2 -->
<g id="edge1_Node000001_Node000002" class="edge">
<title>Node1&#45;&gt;Node2</title>
<g id="a_edge1_Node000001_Node000002"><a xlink:title=" ">
<path fill="none" stroke="#63b8ff" d="M247.19,-110.03C220.22,-102 189.1,-90.4 163.62,-74.5 143.72,-62.07 125.23,-42.38 113.3,-28.14"/>
<polygon fill="#63b8ff" stroke="#63b8ff" points="116.12,-26.06 107.1,-20.49 110.68,-30.46 116.12,-26.06"/>
</a>
</g>
</g>
<!-- Node3 -->
<g id="Node000003" class="node">
<title>Node3</title>
<g id="a_Node000003"><a xlink:title=" ">
<polygon fill="#e0e0e0" stroke="#999999" points="181.12,-19.25 138.12,-19.25 138.12,0 181.12,0 181.12,-19.25"/>
<text text-anchor="middle" x="159.62" y="-5.75" font-family="Helvetica,sans-Serif" font-size="10.00">vector</text>
</a>
</g>
</g>
<!-- Node1&#45;&gt;Node3 -->
<g id="edge2_Node000001_Node000003" class="edge">
<title>Node1&#45;&gt;Node3</title>
<g id="a_edge2_Node000001_Node000003"><a xlink:title=" ">
<path fill="none" stroke="#63b8ff" d="M246.48,-113.04C222.36,-105.65 196.41,-93.72 178.62,-74.5 167.67,-62.67 163.01,-44.79 161.04,-30.96"/>
<polygon fill="#63b8ff" stroke="#63b8ff" points="164.54,-30.77 160.04,-21.18 157.58,-31.49 164.54,-30.77"/>
</a>
</g>
</g>
<!-- Node4 -->
<g id="Node000004" class="node">
<title>Node4</title>
<g id="a_Node000004"><a xlink:title=" ">
<polygon fill="#e0e0e0" stroke="#999999" points="337.5,-74.5 281.75,-74.5 281.75,-55.25 337.5,-55.25 337.5,-74.5"/>
<text text-anchor="middle" x="309.62" y="-61" font-family="Helvetica,sans-Serif" font-size="10.00">algorithm</text>
</a>
</g>
</g>
<!-- Node1&#45;&gt;Node4 -->
<g id="edge3_Node000001_Node000004" class="edge">
<title>Node1&#45;&gt;Node4</title>
<g id="a_edge3_Node000001_Node000004"><a xlink:title=" ">
<path fill="none" stroke="#63b8ff" d="M309.62,-110.2C309.62,-102.96 309.62,-94.09 309.62,-86.19"/>
<polygon fill="#63b8ff" stroke="#63b8ff" points="313.13,-86.46 309.63,-76.46 306.13,-86.46 313.13,-86.46"/>
</a>
</g>
</g>
<!-- Node5 -->
<g id="Node000005" class="node">
<title>Node5</title>
<g id="a_Node000005"><a xlink:title=" ">
<polygon fill="#e0e0e0" stroke="#999999" points="399.88,-74.5 355.38,-74.5 355.38,-55.25 399.88,-55.25 399.88,-74.5"/>
<text text-anchor="middle" x="377.62" y="-61" font-family="Helvetica,sans-Serif" font-size="10.00">cstdlib</text>
</a>
</g>
</g>
<!-- Node1&#45;&gt;Node5 -->
<g id="edge4_Node000001_Node000005" class="edge">
<title>Node1&#45;&gt;Node5</title>
<g id="a_edge4_Node000001_Node000005"><a xlink:title=" ">
<path fill="none" stroke="#63b8ff" d="M326.43,-110.2C336.19,-101.75 348.51,-91.08 358.62,-82.33"/>
<polygon fill="#63b8ff" stroke="#63b8ff" points="360.73,-85.13 366,-75.94 356.15,-79.84 360.73,-85.13"/>
</a>
</g>
</g>
<!-- Node6 -->
<g id="Node000006" class="node">
<title>Node6</title>
<g id="a_Node000006"><a xlink:title=" ">
<polygon fill="#e0e0e0" stroke="#999999" points="485.12,-74.5 418.12,-74.5 418.12,-55.25 485.12,-55.25 485.12,-74.5"/>
<text text-anchor="middle" x="451.62" y="-61" font-family="Helvetica,sans-Serif" font-size="10.00">sys/types.h</text>
</a>
</g>
</g>
<!-- Node1&#45;&gt;Node6 -->
<g id="edge5_Node000001_Node000006" class="edge">
<title>Node1&#45;&gt;Node6</title>
<g id="a_edge5_Node000001_Node000006"><a xlink:title=" ">
<path fill="none" stroke="#63b8ff" d="M345.09,-110.05C367.86,-100.6 397.2,-88.44 419.32,-79.27"/>
<polygon fill="#63b8ff" stroke="#63b8ff" points="420.55,-82.55 428.45,-75.48 417.87,-76.08 420.55,-82.55"/>
</a>
</g>
</g>
<!-- Node7 -->
<g id="Node000007" class="node">
<title>Node7</title>
<g id="a_Node000007"><a xlink:title=" ">
<polygon fill="#e0e0e0" stroke="#999999" points="562.38,-74.5 502.88,-74.5 502.88,-55.25 562.38,-55.25 562.38,-74.5"/>
<text text-anchor="middle" x="532.62" y="-61" font-family="Helvetica,sans-Serif" font-size="10.00">sys/stat.h</text>
</a>
</g>
</g>
<!-- Node1&#45;&gt;Node7 -->
<g id="edge6_Node000001_Node000007" class="edge">
<title>Node1&#45;&gt;Node7</title>
<g id="a_edge6_Node000001_Node000007"><a xlink:title=" ">
<path fill="none" stroke="#63b8ff" d="M365.32,-110.05C404.55,-99.69 456.2,-86.05 491.67,-76.69"/>
<polygon fill="#63b8ff" stroke="#63b8ff" points="492.35,-80.13 501.12,-74.19 490.56,-73.36 492.35,-80.13"/>
</a>
</g>
</g>
<!-- Node8 -->
<g id="Node000008" class="node">
<title>Node8</title>
<g id="a_Node000008"><a xlink:title=" ">
<polygon fill="#e0e0e0" stroke="#999999" points="630.88,-74.5 580.38,-74.5 580.38,-55.25 630.88,-55.25 630.88,-74.5"/>
<text text-anchor="middle" x="605.62" y="-61" font-family="Helvetica,sans-Serif" font-size="10.00">unistd.h</text>
</a>
</g>
</g>
<!-- Node1&#45;&gt;Node8 -->
<g id="edge7_Node000001_Node000008" class="edge">
<title>Node1&#45;&gt;Node8</title>
<g id="a_edge7_Node000001_Node000008"><a xlink:title=" ">
<path fill="none" stroke="#63b8ff" d="M372.84,-113.7C423.44,-104.62 496.48,-90.96 568.9,-75.01"/>
<polygon fill="#63b8ff" stroke="#63b8ff" points="569.56,-78.45 578.57,-72.86 568.05,-71.61 569.56,-78.45"/>
</a>
</g>
</g>
<!-- Node9 -->
<g id="Node000009" class="node">
<title>Node9</title>
<g id="a_Node000009"><a xlink:href="ssstring__uty_8h.html" target="_top" xlink:title=" ">
<polygon fill="white" stroke="#666666" points="263.62,-74.5 187.62,-74.5 187.62,-55.25 263.62,-55.25 263.62,-74.5"/>
<text text-anchor="middle" x="225.62" y="-61" font-family="Helvetica,sans-Serif" font-size="10.00">ssstring_uty.h</text>
</a>
</g>
</g>
<!-- Node1&#45;&gt;Node9 -->
<g id="edge8_Node000001_Node000009" class="edge">
<title>Node1&#45;&gt;Node9</title>
<g id="a_edge8_Node000001_Node000009"><a xlink:title=" ">
<path fill="none" stroke="#63b8ff" d="M288.86,-110.2C276.44,-101.49 260.66,-90.43 247.97,-81.53"/>
<polygon fill="#63b8ff" stroke="#63b8ff" points="250.01,-78.69 239.81,-75.82 245.99,-84.43 250.01,-78.69"/>
</a>
</g>
</g>
<!-- Node14 -->
<g id="Node000014" class="node">
<title>Node14</title>
<g id="a_Node000014"><a xlink:href="sscharconverter_8h.html" target="_top" xlink:title=" ">
<polygon fill="white" stroke="#666666" points="93.25,-74.5 0,-74.5 0,-55.25 93.25,-55.25 93.25,-74.5"/>
<text text-anchor="middle" x="46.62" y="-61" font-family="Helvetica,sans-Serif" font-size="10.00">sscharconverter.h</text>
</a>
</g>
</g>
<!-- Node1&#45;&gt;Node14 -->
<g id="edge15_Node000001_Node000014" class="edge">
<title>Node1&#45;&gt;Node14</title>
<g id="a_edge15_Node000001_Node000014"><a xlink:title=" ">
<path fill="none" stroke="#63b8ff" d="M246.63,-110.65C201.25,-100.49 140.77,-86.95 98.24,-77.43"/>
<polygon fill="#63b8ff" stroke="#63b8ff" points="99.02,-74.02 88.5,-75.25 97.49,-80.85 99.02,-74.02"/>
</a>
</g>
</g>
<!-- Node9&#45;&gt;Node2 -->
<g id="edge9_Node000009_Node000002" class="edge">
<title>Node9&#45;&gt;Node2</title>
<g id="a_edge9_Node000009_Node000002"><a xlink:title=" ">
<path fill="none" stroke="#63b8ff" d="M204.25,-54.84C183.98,-46.27 153.29,-33.31 130.39,-23.63"/>
<polygon fill="#63b8ff" stroke="#63b8ff" points="131.82,-20.43 121.25,-19.76 129.09,-26.88 131.82,-20.43"/>
</a>
</g>
</g>
<!-- Node9&#45;&gt;Node3 -->
<g id="edge11_Node000009_Node000003" class="edge">
<title>Node9&#45;&gt;Node3</title>
<g id="a_edge11_Node000009_Node000003"><a xlink:title=" ">
<path fill="none" stroke="#63b8ff" d="M214.43,-54.84C204.89,-47.15 190.95,-35.9 179.52,-26.68"/>
<polygon fill="#63b8ff" stroke="#63b8ff" points="181.81,-24.03 171.83,-20.48 177.42,-29.48 181.81,-24.03"/>
</a>
</g>
</g>
<!-- Node10 -->
<g id="Node000010" class="node">
<title>Node10</title>
<g id="a_Node000010"><a xlink:title=" ">
<polygon fill="#e0e0e0" stroke="#999999" points="382.12,-19.25 333.12,-19.25 333.12,0 382.12,0 382.12,-19.25"/>
<text text-anchor="middle" x="357.62" y="-5.75" font-family="Helvetica,sans-Serif" font-size="10.00">fstream</text>
</a>
</g>
</g>
<!-- Node9&#45;&gt;Node10 -->
<g id="edge10_Node000009_Node000010" class="edge">
<title>Node9&#45;&gt;Node10</title>
<g id="a_edge10_Node000009_Node000010"><a xlink:title=" ">
<path fill="none" stroke="#63b8ff" d="M248.02,-54.84C269.07,-46.35 300.83,-33.54 324.75,-23.89"/>
<polygon fill="#63b8ff" stroke="#63b8ff" points="325.76,-27.26 333.72,-20.27 323.14,-20.76 325.76,-27.26"/>
</a>
</g>
</g>
<!-- Node11 -->
<g id="Node000011" class="node">
<title>Node11</title>
<g id="a_Node000011"><a xlink:title=" ">
<polygon fill="#e0e0e0" stroke="#999999" points="453.38,-19.25 399.88,-19.25 399.88,0 453.38,0 453.38,-19.25"/>
<text text-anchor="middle" x="426.62" y="-5.75" font-family="Helvetica,sans-Serif" font-size="10.00">iostream</text>
</a>
</g>
</g>
<!-- Node9&#45;&gt;Node11 -->
<g id="edge12_Node000009_Node000011" class="edge">
<title>Node9&#45;&gt;Node11</title>
<g id="a_edge12_Node000009_Node000011"><a xlink:title=" ">
<path fill="none" stroke="#63b8ff" d="M259.72,-54.84C295.45,-45.38 351.45,-30.54 388.59,-20.7"/>
<polygon fill="#63b8ff" stroke="#63b8ff" points="389.23,-24.15 398,-18.21 387.44,-17.39 389.23,-24.15"/>
</a>
</g>
</g>
<!-- Node12 -->
<g id="Node000012" class="node">
<title>Node12</title>
<g id="a_Node000012"><a xlink:title=" ">
<polygon fill="#e0e0e0" stroke="#999999" points="250.25,-19.25 199,-19.25 199,0 250.25,0 250.25,-19.25"/>
<text text-anchor="middle" x="224.62" y="-5.75" font-family="Helvetica,sans-Serif" font-size="10.00">sstream</text>
</a>
</g>
</g>
<!-- Node9&#45;&gt;Node12 -->
<g id="edge13_Node000009_Node000012" class="edge">
<title>Node9&#45;&gt;Node12</title>
<g id="a_edge13_Node000009_Node000012"><a xlink:title=" ">
<path fill="none" stroke="#63b8ff" d="M225.46,-55.08C225.34,-48.57 225.17,-39.42 225.01,-31.12"/>
<polygon fill="#63b8ff" stroke="#63b8ff" points="228.51,-31.05 224.82,-21.12 221.51,-31.19 228.51,-31.05"/>
</a>
</g>
</g>
<!-- Node13 -->
<g id="Node000013" class="node">
<title>Node13</title>
<g id="a_Node000013"><a xlink:title=" ">
<polygon fill="#e0e0e0" stroke="#999999" points="314.62,-19.25 268.62,-19.25 268.62,0 314.62,0 314.62,-19.25"/>
<text text-anchor="middle" x="291.62" y="-5.75" font-family="Helvetica,sans-Serif" font-size="10.00">iterator</text>
</a>
</g>
</g>
<!-- Node9&#45;&gt;Node13 -->
<g id="edge14_Node000009_Node000013" class="edge">
<title>Node9&#45;&gt;Node13</title>
<g id="a_edge14_Node000009_Node000013"><a xlink:title=" ">
<path fill="none" stroke="#63b8ff" d="M236.82,-54.84C246.36,-47.15 260.3,-35.9 271.73,-26.68"/>
<polygon fill="#63b8ff" stroke="#63b8ff" points="273.83,-29.48 279.42,-20.48 269.44,-24.03 273.83,-29.48"/>
</a>
</g>
</g>
<!-- Node14&#45;&gt;Node2 -->
<g id="edge16_Node000014_Node000002" class="edge">
<title>Node14&#45;&gt;Node2</title>
<g id="a_edge16_Node000014_Node000002"><a xlink:title=" ">
<path fill="none" stroke="#63b8ff" d="M55.38,-55.08C62.77,-47.65 73.59,-36.79 82.67,-27.66"/>
<polygon fill="#63b8ff" stroke="#63b8ff" points="85.04,-30.24 89.62,-20.68 80.08,-25.3 85.04,-30.24"/>
</a>
</g>
</g>
</g>
</svg>
