<?xml version="1.0" encoding="UTF-8" standalone="no"?>
<!DOCTYPE svg PUBLIC "-//W3C//DTD SVG 1.1//EN"
 "http://www.w3.org/Graphics/SVG/1.1/DTD/svg11.dtd">
<!-- Generated by graphviz version 10.0.1 (20240210.2158)
 -->
<!-- Title: Common/Loader/ssvalue.cpp Pages: 1 -->
<svg width="685pt" height="248pt"
 viewBox="0.00 0.00 684.99 248.25" xmlns="http://www.w3.org/2000/svg" xmlns:xlink="http://www.w3.org/1999/xlink">
<g id="graph0" class="graph" transform="scale(1 1) rotate(0) translate(4 244.25)">
<title>Common/Loader/ssvalue.cpp</title>
<!-- Node1 -->
<g id="Node000001" class="node">
<title>Node1</title>
<g id="a_Node000001"><a xlink:title=" ">
<polygon fill="#999999" stroke="#666666" points="378.74,-240.25 235.24,-240.25 235.24,-221 378.74,-221 378.74,-240.25"/>
<text text-anchor="middle" x="306.99" y="-226.75" font-family="Helvetica,sans-Serif" font-size="10.00">Common/Loader/ssvalue.cpp</text>
</a>
</g>
</g>
<!-- Node2 -->
<g id="Node000002" class="node">
<title>Node2</title>
<g id="a_Node000002"><a xlink:href="ssarchiver_8h.html" target="_top" xlink:title=" ">
<polygon fill="white" stroke="#666666" points="291.24,-129.75 222.74,-129.75 222.74,-110.5 291.24,-110.5 291.24,-129.75"/>
<text text-anchor="middle" x="256.99" y="-116.25" font-family="Helvetica,sans-Serif" font-size="10.00">ssarchiver.h</text>
</a>
</g>
</g>
<!-- Node1&#45;&gt;Node2 -->
<g id="edge1_Node000001_Node000002" class="edge">
<title>Node1&#45;&gt;Node2</title>
<g id="a_edge1_Node000001_Node000002"><a xlink:title=" ">
<path fill="none" stroke="#63b8ff" d="M302.9,-220.75C294.84,-203.26 276.76,-164.02 265.85,-140.34"/>
<polygon fill="#63b8ff" stroke="#63b8ff" points="269.14,-139.12 261.77,-131.5 262.78,-142.05 269.14,-139.12"/>
</a>
</g>
</g>
<!-- Node11 -->
<g id="Node000011" class="node">
<title>Node11</title>
<g id="a_Node000011"><a xlink:href="ssstring__uty_8h.html" target="_top" xlink:title=" ">
<polygon fill="white" stroke="#666666" points="526.99,-129.75 450.99,-129.75 450.99,-110.5 526.99,-110.5 526.99,-129.75"/>
<text text-anchor="middle" x="488.99" y="-116.25" font-family="Helvetica,sans-Serif" font-size="10.00">ssstring_uty.h</text>
</a>
</g>
</g>
<!-- Node1&#45;&gt;Node11 -->
<g id="edge12_Node000001_Node000011" class="edge">
<title>Node1&#45;&gt;Node11</title>
<g id="a_edge12_Node000001_Node000011"><a xlink:title=" ">
<path fill="none" stroke="#63b8ff" d="M322.2,-220.56C353.51,-201.89 425.47,-158.99 463.84,-136.12"/>
<polygon fill="#63b8ff" stroke="#63b8ff" points="465.61,-139.14 472.4,-131.01 462.02,-133.13 465.61,-139.14"/>
</a>
</g>
</g>
<!-- Node16 -->
<g id="Node000016" class="node">
<title>Node16</title>
<g id="a_Node000016"><a xlink:href="ssvalue_8h.html" target="_top" xlink:title=" ">
<polygon fill="white" stroke="#666666" points="366.99,-185 308.99,-185 308.99,-165.75 366.99,-165.75 366.99,-185"/>
<text text-anchor="middle" x="337.99" y="-171.5" font-family="Helvetica,sans-Serif" font-size="10.00">ssvalue.h</text>
</a>
</g>
</g>
<!-- Node1&#45;&gt;Node16 -->
<g id="edge19_Node000001_Node000016" class="edge">
<title>Node1&#45;&gt;Node16</title>
<g id="a_edge19_Node000001_Node000016"><a xlink:title=" ">
<path fill="none" stroke="#63b8ff" d="M312.11,-220.83C316.17,-213.86 321.99,-203.87 327.08,-195.12"/>
<polygon fill="#63b8ff" stroke="#63b8ff" points="329.99,-197.07 332,-186.67 323.94,-193.55 329.99,-197.07"/>
</a>
</g>
</g>
<!-- Node18 -->
<g id="Node000018" class="node">
<title>Node18</title>
<g id="a_Node000018"><a xlink:href="sscharconverter_8h.html" target="_top" xlink:title=" ">
<polygon fill="white" stroke="#666666" points="133.62,-185 40.37,-185 40.37,-165.75 133.62,-165.75 133.62,-185"/>
<text text-anchor="middle" x="86.99" y="-171.5" font-family="Helvetica,sans-Serif" font-size="10.00">sscharconverter.h</text>
</a>
</g>
</g>
<!-- Node1&#45;&gt;Node18 -->
<g id="edge25_Node000001_Node000018" class="edge">
<title>Node1&#45;&gt;Node18</title>
<g id="a_edge25_Node000001_Node000018"><a xlink:title=" ">
<path fill="none" stroke="#63b8ff" d="M269.67,-220.59C232.69,-211.64 175.88,-197.89 135.44,-188.1"/>
<polygon fill="#63b8ff" stroke="#63b8ff" points="136.51,-184.76 125.97,-185.81 134.86,-191.56 136.51,-184.76"/>
</a>
</g>
</g>
<!-- Node3 -->
<g id="Node000003" class="node">
<title>Node3</title>
<g id="a_Node000003"><a xlink:title=" ">
<polygon fill="#e0e0e0" stroke="#999999" points="125.37,-74.5 18.62,-74.5 18.62,-55.25 125.37,-55.25 125.37,-74.5"/>
<text text-anchor="middle" x="71.99" y="-61" font-family="Helvetica,sans-Serif" font-size="10.00">./tinyxml2/tinyxml2.h</text>
</a>
</g>
</g>
<!-- Node2&#45;&gt;Node3 -->
<g id="edge2_Node000002_Node000003" class="edge">
<title>Node2&#45;&gt;Node3</title>
<g id="a_edge2_Node000002_Node000003"><a xlink:title=" ">
<path fill="none" stroke="#63b8ff" d="M225.61,-110.09C195.05,-101.29 148.37,-87.86 114.49,-78.11"/>
<polygon fill="#63b8ff" stroke="#63b8ff" points="115.56,-74.77 104.98,-75.37 113.62,-81.5 115.56,-74.77"/>
</a>
</g>
</g>
<!-- Node4 -->
<g id="Node000004" class="node">
<title>Node4</title>
<g id="a_Node000004"><a xlink:href="sstypes_8h.html" target="_top" xlink:title=" ">
<polygon fill="white" stroke="#666666" points="239.37,-74.5 180.62,-74.5 180.62,-55.25 239.37,-55.25 239.37,-74.5"/>
<text text-anchor="middle" x="209.99" y="-61" font-family="Helvetica,sans-Serif" font-size="10.00">sstypes.h</text>
</a>
</g>
</g>
<!-- Node2&#45;&gt;Node4 -->
<g id="edge3_Node000002_Node000004" class="edge">
<title>Node2&#45;&gt;Node4</title>
<g id="a_edge3_Node000002_Node000004"><a xlink:title=" ">
<path fill="none" stroke="#63b8ff" d="M249.23,-110.33C242.81,-103.05 233.48,-92.48 225.53,-83.48"/>
<polygon fill="#63b8ff" stroke="#63b8ff" points="228.16,-81.18 218.92,-75.99 222.92,-85.81 228.16,-81.18"/>
</a>
</g>
</g>
<!-- Node6 -->
<g id="Node000006" class="node">
<title>Node6</title>
<g id="a_Node000006"><a xlink:title=" ">
<polygon fill="#e0e0e0" stroke="#999999" points="57.99,-19.25 17.99,-19.25 17.99,0 57.99,0 57.99,-19.25"/>
<text text-anchor="middle" x="37.99" y="-5.75" font-family="Helvetica,sans-Serif" font-size="10.00">string</text>
</a>
</g>
</g>
<!-- Node2&#45;&gt;Node6 -->
<g id="edge9_Node000002_Node000006" class="edge">
<title>Node2&#45;&gt;Node6</title>
<g id="a_edge9_Node000002_Node000006"><a xlink:title=" ">
<path fill="none" stroke="#63b8ff" d="M222.47,-118.13C161.04,-115.56 36.67,-106.44 9.99,-74.5 -1.36,-60.91 9.4,-42 20.71,-28.29"/>
<polygon fill="#63b8ff" stroke="#63b8ff" points="23.28,-30.66 27.35,-20.88 18.07,-25.99 23.28,-30.66"/>
</a>
</g>
</g>
<!-- Node7 -->
<g id="Node000007" class="node">
<title>Node7</title>
<g id="a_Node000007"><a xlink:title=" ">
<polygon fill="#e0e0e0" stroke="#999999" points="371.49,-19.25 328.49,-19.25 328.49,0 371.49,0 371.49,-19.25"/>
<text text-anchor="middle" x="349.99" y="-5.75" font-family="Helvetica,sans-Serif" font-size="10.00">vector</text>
</a>
</g>
</g>
<!-- Node2&#45;&gt;Node7 -->
<g id="edge10_Node000002_Node000007" class="edge">
<title>Node2&#45;&gt;Node7</title>
<g id="a_edge10_Node000002_Node000007"><a xlink:title=" ">
<path fill="none" stroke="#63b8ff" d="M259.43,-110.03C263.33,-96.83 271.97,-72.1 285.99,-55.25 295.94,-43.29 309.85,-33.08 322.15,-25.46"/>
<polygon fill="#63b8ff" stroke="#63b8ff" points="323.83,-28.53 330.69,-20.45 320.29,-22.49 323.83,-28.53"/>
</a>
</g>
</g>
<!-- Node10 -->
<g id="Node000010" class="node">
<title>Node10</title>
<g id="a_Node000010"><a xlink:title=" ">
<polygon fill="#e0e0e0" stroke="#999999" points="329.37,-74.5 294.62,-74.5 294.62,-55.25 329.37,-55.25 329.37,-74.5"/>
<text text-anchor="middle" x="311.99" y="-61" font-family="Helvetica,sans-Serif" font-size="10.00">map</text>
</a>
</g>
</g>
<!-- Node2&#45;&gt;Node10 -->
<g id="edge11_Node000002_Node000010" class="edge">
<title>Node2&#45;&gt;Node10</title>
<g id="a_edge11_Node000002_Node000010"><a xlink:title=" ">
<path fill="none" stroke="#63b8ff" d="M266.07,-110.33C273.83,-102.82 285.2,-91.81 294.69,-82.63"/>
<polygon fill="#63b8ff" stroke="#63b8ff" points="296.88,-85.38 301.63,-75.91 292.01,-80.35 296.88,-85.38"/>
</a>
</g>
</g>
<!-- Node5 -->
<g id="Node000005" class="node">
<title>Node5</title>
<g id="a_Node000005"><a xlink:title=" ">
<polygon fill="#e0e0e0" stroke="#999999" points="170.74,-19.25 123.24,-19.25 123.24,0 170.74,0 170.74,-19.25"/>
<text text-anchor="middle" x="146.99" y="-5.75" font-family="Helvetica,sans-Serif" font-size="10.00">stdlib.h</text>
</a>
</g>
</g>
<!-- Node4&#45;&gt;Node5 -->
<g id="edge4_Node000004_Node000005" class="edge">
<title>Node4&#45;&gt;Node5</title>
<g id="a_edge4_Node000004_Node000005"><a xlink:title=" ">
<path fill="none" stroke="#63b8ff" d="M199.3,-54.84C190.29,-47.22 177.16,-36.12 166.31,-26.95"/>
<polygon fill="#63b8ff" stroke="#63b8ff" points="168.57,-24.28 158.68,-20.5 164.06,-29.63 168.57,-24.28"/>
</a>
</g>
</g>
<!-- Node4&#45;&gt;Node6 -->
<g id="edge5_Node000004_Node000006" class="edge">
<title>Node4&#45;&gt;Node6</title>
<g id="a_edge5_Node000004_Node000006"><a xlink:title=" ">
<path fill="none" stroke="#63b8ff" d="M180.81,-54.84C149.83,-45.25 101.03,-30.14 69.27,-20.31"/>
<polygon fill="#63b8ff" stroke="#63b8ff" points="70.43,-17 59.85,-17.39 68.36,-23.69 70.43,-17"/>
</a>
</g>
</g>
<!-- Node4&#45;&gt;Node7 -->
<g id="edge6_Node000004_Node000007" class="edge">
<title>Node4&#45;&gt;Node7</title>
<g id="a_edge6_Node000004_Node000007"><a xlink:title=" ">
<path fill="none" stroke="#63b8ff" d="M233.74,-54.84C256.85,-46.05 292.12,-32.64 317.75,-22.89"/>
<polygon fill="#63b8ff" stroke="#63b8ff" points="318.91,-26.19 327.01,-19.36 316.42,-19.65 318.91,-26.19"/>
</a>
</g>
</g>
<!-- Node8 -->
<g id="Node000008" class="node">
<title>Node8</title>
<g id="a_Node000008"><a xlink:title=" ">
<polygon fill="#e0e0e0" stroke="#999999" points="231.49,-19.25 188.49,-19.25 188.49,0 231.49,0 231.49,-19.25"/>
<text text-anchor="middle" x="209.99" y="-5.75" font-family="Helvetica,sans-Serif" font-size="10.00">cmath</text>
</a>
</g>
</g>
<!-- Node4&#45;&gt;Node8 -->
<g id="edge7_Node000004_Node000008" class="edge">
<title>Node4&#45;&gt;Node8</title>
<g id="a_edge7_Node000004_Node000008"><a xlink:title=" ">
<path fill="none" stroke="#63b8ff" d="M209.99,-55.08C209.99,-48.57 209.99,-39.42 209.99,-31.12"/>
<polygon fill="#63b8ff" stroke="#63b8ff" points="213.49,-31.12 209.99,-21.12 206.49,-31.12 213.49,-31.12"/>
</a>
</g>
</g>
<!-- Node9 -->
<g id="Node000009" class="node">
<title>Node9</title>
<g id="a_Node000009"><a xlink:title=" ">
<polygon fill="#e0e0e0" stroke="#999999" points="304.87,-19.25 249.12,-19.25 249.12,0 304.87,0 304.87,-19.25"/>
<text text-anchor="middle" x="276.99" y="-5.75" font-family="Helvetica,sans-Serif" font-size="10.00">algorithm</text>
</a>
</g>
</g>
<!-- Node4&#45;&gt;Node9 -->
<g id="edge8_Node000004_Node000009" class="edge">
<title>Node4&#45;&gt;Node9</title>
<g id="a_edge8_Node000004_Node000009"><a xlink:title=" ">
<path fill="none" stroke="#63b8ff" d="M221.36,-54.84C231.04,-47.15 245.19,-35.9 256.8,-26.68"/>
<polygon fill="#63b8ff" stroke="#63b8ff" points="258.96,-29.43 264.61,-20.47 254.6,-23.95 258.96,-29.43"/>
</a>
</g>
</g>
<!-- Node11&#45;&gt;Node6 -->
<g id="edge13_Node000011_Node000006" class="edge">
<title>Node11&#45;&gt;Node6</title>
<g id="a_edge13_Node000011_Node000006"><a xlink:title=" ">
<path fill="none" stroke="#63b8ff" d="M450.54,-111.91C447.65,-111.42 444.78,-110.94 441.99,-110.5 322.42,-91.57 287.62,-110.36 171.99,-74.5 153.91,-68.89 151.02,-63.52 133.99,-55.25 112.15,-44.65 87.3,-33.11 68.35,-24.42"/>
<polygon fill="#63b8ff" stroke="#63b8ff" points="69.87,-21.26 59.32,-20.29 66.96,-27.63 69.87,-21.26"/>
</a>
</g>
</g>
<!-- Node11&#45;&gt;Node7 -->
<g id="edge15_Node000011_Node000007" class="edge">
<title>Node11&#45;&gt;Node7</title>
<g id="a_edge15_Node000011_Node000007"><a xlink:title=" ">
<path fill="none" stroke="#63b8ff" d="M471.5,-110.1C456.02,-101.76 433.13,-88.57 414.99,-74.5 396.71,-60.32 378.1,-41.49 365.51,-27.96"/>
<polygon fill="#63b8ff" stroke="#63b8ff" points="368.18,-25.69 358.85,-20.67 363.01,-30.42 368.18,-25.69"/>
</a>
</g>
</g>
<!-- Node12 -->
<g id="Node000012" class="node">
<title>Node12</title>
<g id="a_Node000012"><a xlink:title=" ">
<polygon fill="#e0e0e0" stroke="#999999" points="472.49,-74.5 423.49,-74.5 423.49,-55.25 472.49,-55.25 472.49,-74.5"/>
<text text-anchor="middle" x="447.99" y="-61" font-family="Helvetica,sans-Serif" font-size="10.00">fstream</text>
</a>
</g>
</g>
<!-- Node11&#45;&gt;Node12 -->
<g id="edge14_Node000011_Node000012" class="edge">
<title>Node11&#45;&gt;Node12</title>
<g id="a_edge14_Node000011_Node000012"><a xlink:title=" ">
<path fill="none" stroke="#63b8ff" d="M482.22,-110.33C476.68,-103.13 468.65,-92.71 461.76,-83.76"/>
<polygon fill="#63b8ff" stroke="#63b8ff" points="464.71,-81.85 455.83,-76.06 459.16,-86.12 464.71,-81.85"/>
</a>
</g>
</g>
<!-- Node13 -->
<g id="Node000013" class="node">
<title>Node13</title>
<g id="a_Node000013"><a xlink:title=" ">
<polygon fill="#e0e0e0" stroke="#999999" points="543.74,-74.5 490.24,-74.5 490.24,-55.25 543.74,-55.25 543.74,-74.5"/>
<text text-anchor="middle" x="516.99" y="-61" font-family="Helvetica,sans-Serif" font-size="10.00">iostream</text>
</a>
</g>
</g>
<!-- Node11&#45;&gt;Node13 -->
<g id="edge16_Node000011_Node000013" class="edge">
<title>Node11&#45;&gt;Node13</title>
<g id="a_edge16_Node000011_Node000013"><a xlink:title=" ">
<path fill="none" stroke="#63b8ff" d="M493.62,-110.33C497.24,-103.44 502.42,-93.59 506.98,-84.91"/>
<polygon fill="#63b8ff" stroke="#63b8ff" points="510.01,-86.68 511.56,-76.2 503.81,-83.42 510.01,-86.68"/>
</a>
</g>
</g>
<!-- Node14 -->
<g id="Node000014" class="node">
<title>Node14</title>
<g id="a_Node000014"><a xlink:title=" ">
<polygon fill="#e0e0e0" stroke="#999999" points="612.62,-74.5 561.37,-74.5 561.37,-55.25 612.62,-55.25 612.62,-74.5"/>
<text text-anchor="middle" x="586.99" y="-61" font-family="Helvetica,sans-Serif" font-size="10.00">sstream</text>
</a>
</g>
</g>
<!-- Node11&#45;&gt;Node14 -->
<g id="edge17_Node000011_Node000014" class="edge">
<title>Node11&#45;&gt;Node14</title>
<g id="a_edge17_Node000011_Node000014"><a xlink:title=" ">
<path fill="none" stroke="#63b8ff" d="M505.62,-110.09C520.68,-101.91 543.13,-89.71 560.64,-80.19"/>
<polygon fill="#63b8ff" stroke="#63b8ff" points="561.84,-83.52 568.96,-75.68 558.5,-77.37 561.84,-83.52"/>
</a>
</g>
</g>
<!-- Node15 -->
<g id="Node000015" class="node">
<title>Node15</title>
<g id="a_Node000015"><a xlink:title=" ">
<polygon fill="#e0e0e0" stroke="#999999" points="676.99,-74.5 630.99,-74.5 630.99,-55.25 676.99,-55.25 676.99,-74.5"/>
<text text-anchor="middle" x="653.99" y="-61" font-family="Helvetica,sans-Serif" font-size="10.00">iterator</text>
</a>
</g>
</g>
<!-- Node11&#45;&gt;Node15 -->
<g id="edge18_Node000011_Node000015" class="edge">
<title>Node11&#45;&gt;Node15</title>
<g id="a_edge18_Node000011_Node000015"><a xlink:title=" ">
<path fill="none" stroke="#63b8ff" d="M516.98,-110.09C545.35,-100.94 589.29,-86.75 619.73,-76.93"/>
<polygon fill="#63b8ff" stroke="#63b8ff" points="620.79,-80.27 629.23,-73.87 618.64,-73.61 620.79,-80.27"/>
</a>
</g>
</g>
<!-- Node16&#45;&gt;Node2 -->
<g id="edge20_Node000016_Node000002" class="edge">
<title>Node16&#45;&gt;Node2</title>
<g id="a_edge20_Node000016_Node000002"><a xlink:title=" ">
<path fill="none" stroke="#63b8ff" d="M324.25,-165.34C312.27,-157.46 294.62,-145.86 280.41,-136.52"/>
<polygon fill="#63b8ff" stroke="#63b8ff" points="282.34,-133.6 272.06,-131.03 278.5,-139.45 282.34,-133.6"/>
</a>
</g>
</g>
<!-- Node16&#45;&gt;Node7 -->
<g id="edge23_Node000016_Node000007" class="edge">
<title>Node16&#45;&gt;Node7</title>
<g id="a_edge23_Node000016_Node000007"><a xlink:title=" ">
<path fill="none" stroke="#63b8ff" d="M338.64,-165.57C340.49,-140.25 345.88,-66.75 348.51,-30.84"/>
<polygon fill="#63b8ff" stroke="#63b8ff" points="351.99,-31.21 349.23,-20.98 345.01,-30.7 351.99,-31.21"/>
</a>
</g>
</g>
<!-- Node16&#45;&gt;Node10 -->
<g id="edge22_Node000016_Node000010" class="edge">
<title>Node16&#45;&gt;Node10</title>
<g id="a_edge22_Node000016_Node000010"><a xlink:title=" ">
<path fill="none" stroke="#63b8ff" d="M335.86,-165.5C331.73,-148.25 322.53,-109.83 316.83,-86.06"/>
<polygon fill="#63b8ff" stroke="#63b8ff" points="320.24,-85.26 314.5,-76.35 313.43,-86.89 320.24,-85.26"/>
</a>
</g>
</g>
<!-- Node16&#45;&gt;Node11 -->
<g id="edge21_Node000016_Node000011" class="edge">
<title>Node16&#45;&gt;Node11</title>
<g id="a_edge21_Node000016_Node000011"><a xlink:title=" ">
<path fill="none" stroke="#63b8ff" d="M363.61,-165.34C388.01,-156.74 425,-143.69 452.49,-134"/>
<polygon fill="#63b8ff" stroke="#63b8ff" points="453.56,-137.33 461.82,-130.71 451.23,-130.73 453.56,-137.33"/>
</a>
</g>
</g>
<!-- Node17 -->
<g id="Node000017" class="node">
<title>Node17</title>
<g id="a_Node000017"><a xlink:title=" ">
<polygon fill="#e0e0e0" stroke="#999999" points="433.12,-129.75 384.87,-129.75 384.87,-110.5 433.12,-110.5 433.12,-129.75"/>
<text text-anchor="middle" x="408.99" y="-116.25" font-family="Helvetica,sans-Serif" font-size="10.00">cassert</text>
</a>
</g>
</g>
<!-- Node16&#45;&gt;Node17 -->
<g id="edge24_Node000016_Node000017" class="edge">
<title>Node16&#45;&gt;Node17</title>
<g id="a_edge24_Node000016_Node000017"><a xlink:title=" ">
<path fill="none" stroke="#63b8ff" d="M350.04,-165.34C360.4,-157.57 375.59,-146.17 387.96,-136.9"/>
<polygon fill="#63b8ff" stroke="#63b8ff" points="390.01,-139.73 395.91,-130.93 385.81,-134.13 390.01,-139.73"/>
</a>
</g>
</g>
<!-- Node18&#45;&gt;Node6 -->
<g id="edge26_Node000018_Node000006" class="edge">
<title>Node18&#45;&gt;Node6</title>
<g id="a_edge26_Node000018_Node000006"><a xlink:title=" ">
<path fill="none" stroke="#63b8ff" d="M75.31,-165.48C55.69,-149.7 16.77,-114.67 1.99,-74.5 -4.22,-57.61 7.41,-39.9 19.07,-27.42"/>
<polygon fill="#63b8ff" stroke="#63b8ff" points="21.17,-30.26 25.84,-20.75 16.26,-25.27 21.17,-30.26"/>
</a>
</g>
</g>
</g>
</svg>
