<?xml version="1.0" encoding="UTF-8" standalone="no"?>
<!DOCTYPE svg PUBLIC "-//W3C//DTD SVG 1.1//EN"
 "http://www.w3.org/Graphics/SVG/1.1/DTD/svg11.dtd">
<!-- Generated by graphviz version 12.2.1 (20241206.2353)
 -->
<!-- Title: Common/Loader/ssvalue.cpp Pages: 1 -->
<svg width="686pt" height="248pt"
 viewBox="0.00 0.00 686.01 248.25" xmlns="http://www.w3.org/2000/svg" xmlns:xlink="http://www.w3.org/1999/xlink">
<g id="graph0" class="graph" transform="scale(1 1) rotate(0) translate(4 244.25)">
<title>Common/Loader/ssvalue.cpp</title>
<!-- Node1 -->
<g id="Node000001" class="node">
<title>Node1</title>
<g id="a_Node000001"><a xlink:title=" ">
<polygon fill="#999999" stroke="#666666" points="379.76,-240.25 236.26,-240.25 236.26,-221 379.76,-221 379.76,-240.25"/>
<text text-anchor="middle" x="308.01" y="-226.75" font-family="Helvetica,sans-Serif" font-size="10.00">Common/Loader/ssvalue.cpp</text>
</a>
</g>
</g>
<!-- Node2 -->
<g id="Node000002" class="node">
<title>Node2</title>
<g id="a_Node000002"><a xlink:href="ssarchiver_8h.html" target="_top" xlink:title=" ">
<polygon fill="white" stroke="#666666" points="292.26,-129.75 223.76,-129.75 223.76,-110.5 292.26,-110.5 292.26,-129.75"/>
<text text-anchor="middle" x="258.01" y="-116.25" font-family="Helvetica,sans-Serif" font-size="10.00">ssarchiver.h</text>
</a>
</g>
</g>
<!-- Node1&#45;&gt;Node2 -->
<g id="edge1_Node000001_Node000002" class="edge">
<title>Node1&#45;&gt;Node2</title>
<g id="a_edge1_Node000001_Node000002"><a xlink:title=" ">
<path fill="none" stroke="#63b8ff" d="M303.92,-220.75C295.86,-203.26 277.78,-164.02 266.87,-140.34"/>
<polygon fill="#63b8ff" stroke="#63b8ff" points="270.16,-139.12 262.79,-131.5 263.8,-142.05 270.16,-139.12"/>
</a>
</g>
</g>
<!-- Node11 -->
<g id="Node000011" class="node">
<title>Node11</title>
<g id="a_Node000011"><a xlink:href="ssstring__uty_8h.html" target="_top" xlink:title=" ">
<polygon fill="white" stroke="#666666" points="528.01,-129.75 452.01,-129.75 452.01,-110.5 528.01,-110.5 528.01,-129.75"/>
<text text-anchor="middle" x="490.01" y="-116.25" font-family="Helvetica,sans-Serif" font-size="10.00">ssstring_uty.h</text>
</a>
</g>
</g>
<!-- Node1&#45;&gt;Node11 -->
<g id="edge12_Node000001_Node000011" class="edge">
<title>Node1&#45;&gt;Node11</title>
<g id="a_edge12_Node000001_Node000011"><a xlink:title=" ">
<path fill="none" stroke="#63b8ff" d="M323.22,-220.56C354.53,-201.89 426.49,-158.99 464.86,-136.12"/>
<polygon fill="#63b8ff" stroke="#63b8ff" points="466.63,-139.14 473.42,-131.01 463.04,-133.13 466.63,-139.14"/>
</a>
</g>
</g>
<!-- Node16 -->
<g id="Node000016" class="node">
<title>Node16</title>
<g id="a_Node000016"><a xlink:href="ssvalue_8h.html" target="_top" xlink:title=" ">
<polygon fill="white" stroke="#666666" points="368.01,-185 310.01,-185 310.01,-165.75 368.01,-165.75 368.01,-185"/>
<text text-anchor="middle" x="339.01" y="-171.5" font-family="Helvetica,sans-Serif" font-size="10.00">ssvalue.h</text>
</a>
</g>
</g>
<!-- Node1&#45;&gt;Node16 -->
<g id="edge19_Node000001_Node000016" class="edge">
<title>Node1&#45;&gt;Node16</title>
<g id="a_edge19_Node000001_Node000016"><a xlink:title=" ">
<path fill="none" stroke="#63b8ff" d="M313.13,-220.83C317.19,-213.86 323.01,-203.87 328.1,-195.12"/>
<polygon fill="#63b8ff" stroke="#63b8ff" points="331.01,-197.07 333.02,-186.67 324.96,-193.55 331.01,-197.07"/>
</a>
</g>
</g>
<!-- Node18 -->
<g id="Node000018" class="node">
<title>Node18</title>
<g id="a_Node000018"><a xlink:href="sscharconverter_8h.html" target="_top" xlink:title=" ">
<polygon fill="white" stroke="#666666" points="134.64,-185 41.39,-185 41.39,-165.75 134.64,-165.75 134.64,-185"/>
<text text-anchor="middle" x="88.01" y="-171.5" font-family="Helvetica,sans-Serif" font-size="10.00">sscharconverter.h</text>
</a>
</g>
</g>
<!-- Node1&#45;&gt;Node18 -->
<g id="edge25_Node000001_Node000018" class="edge">
<title>Node1&#45;&gt;Node18</title>
<g id="a_edge25_Node000001_Node000018"><a xlink:title=" ">
<path fill="none" stroke="#63b8ff" d="M270.69,-220.59C233.71,-211.64 176.9,-197.89 136.46,-188.1"/>
<polygon fill="#63b8ff" stroke="#63b8ff" points="137.53,-184.76 126.99,-185.81 135.88,-191.56 137.53,-184.76"/>
</a>
</g>
</g>
<!-- Node3 -->
<g id="Node000003" class="node">
<title>Node3</title>
<g id="a_Node000003"><a xlink:title=" ">
<polygon fill="#e0e0e0" stroke="#999999" points="126.39,-74.5 19.64,-74.5 19.64,-55.25 126.39,-55.25 126.39,-74.5"/>
<text text-anchor="middle" x="73.01" y="-61" font-family="Helvetica,sans-Serif" font-size="10.00">./tinyxml2/tinyxml2.h</text>
</a>
</g>
</g>
<!-- Node2&#45;&gt;Node3 -->
<g id="edge2_Node000002_Node000003" class="edge">
<title>Node2&#45;&gt;Node3</title>
<g id="a_edge2_Node000002_Node000003"><a xlink:title=" ">
<path fill="none" stroke="#63b8ff" d="M226.63,-110.09C196.07,-101.29 149.39,-87.86 115.51,-78.11"/>
<polygon fill="#63b8ff" stroke="#63b8ff" points="116.58,-74.77 106,-75.37 114.64,-81.5 116.58,-74.77"/>
</a>
</g>
</g>
<!-- Node4 -->
<g id="Node000004" class="node">
<title>Node4</title>
<g id="a_Node000004"><a xlink:href="sstypes_8h.html" target="_top" xlink:title=" ">
<polygon fill="white" stroke="#666666" points="240.39,-74.5 181.64,-74.5 181.64,-55.25 240.39,-55.25 240.39,-74.5"/>
<text text-anchor="middle" x="211.01" y="-61" font-family="Helvetica,sans-Serif" font-size="10.00">sstypes.h</text>
</a>
</g>
</g>
<!-- Node2&#45;&gt;Node4 -->
<g id="edge3_Node000002_Node000004" class="edge">
<title>Node2&#45;&gt;Node4</title>
<g id="a_edge3_Node000002_Node000004"><a xlink:title=" ">
<path fill="none" stroke="#63b8ff" d="M250.25,-110.33C243.83,-103.05 234.5,-92.48 226.55,-83.48"/>
<polygon fill="#63b8ff" stroke="#63b8ff" points="229.18,-81.18 219.94,-75.99 223.94,-85.81 229.18,-81.18"/>
</a>
</g>
</g>
<!-- Node6 -->
<g id="Node000006" class="node">
<title>Node6</title>
<g id="a_Node000006"><a xlink:title=" ">
<polygon fill="#e0e0e0" stroke="#999999" points="59.01,-19.25 19.01,-19.25 19.01,0 59.01,0 59.01,-19.25"/>
<text text-anchor="middle" x="39.01" y="-5.75" font-family="Helvetica,sans-Serif" font-size="10.00">string</text>
</a>
</g>
</g>
<!-- Node2&#45;&gt;Node6 -->
<g id="edge9_Node000002_Node000006" class="edge">
<title>Node2&#45;&gt;Node6</title>
<g id="a_edge9_Node000002_Node000006"><a xlink:title=" ">
<path fill="none" stroke="#63b8ff" d="M223.49,-118.13C162.06,-115.56 37.69,-106.44 11.01,-74.5 -0.34,-60.91 10.42,-42 21.73,-28.29"/>
<polygon fill="#63b8ff" stroke="#63b8ff" points="24.3,-30.66 28.37,-20.88 19.09,-25.99 24.3,-30.66"/>
</a>
</g>
</g>
<!-- Node7 -->
<g id="Node000007" class="node">
<title>Node7</title>
<g id="a_Node000007"><a xlink:title=" ">
<polygon fill="#e0e0e0" stroke="#999999" points="372.51,-19.25 329.51,-19.25 329.51,0 372.51,0 372.51,-19.25"/>
<text text-anchor="middle" x="351.01" y="-5.75" font-family="Helvetica,sans-Serif" font-size="10.00">vector</text>
</a>
</g>
</g>
<!-- Node2&#45;&gt;Node7 -->
<g id="edge10_Node000002_Node000007" class="edge">
<title>Node2&#45;&gt;Node7</title>
<g id="a_edge10_Node000002_Node000007"><a xlink:title=" ">
<path fill="none" stroke="#63b8ff" d="M260.45,-110.03C264.35,-96.83 272.99,-72.1 287.01,-55.25 296.96,-43.29 310.87,-33.08 323.17,-25.46"/>
<polygon fill="#63b8ff" stroke="#63b8ff" points="324.86,-28.53 331.71,-20.45 321.31,-22.49 324.86,-28.53"/>
</a>
</g>
</g>
<!-- Node10 -->
<g id="Node000010" class="node">
<title>Node10</title>
<g id="a_Node000010"><a xlink:title=" ">
<polygon fill="#e0e0e0" stroke="#999999" points="330.39,-74.5 295.64,-74.5 295.64,-55.25 330.39,-55.25 330.39,-74.5"/>
<text text-anchor="middle" x="313.01" y="-61" font-family="Helvetica,sans-Serif" font-size="10.00">map</text>
</a>
</g>
</g>
<!-- Node2&#45;&gt;Node10 -->
<g id="edge11_Node000002_Node000010" class="edge">
<title>Node2&#45;&gt;Node10</title>
<g id="a_edge11_Node000002_Node000010"><a xlink:title=" ">
<path fill="none" stroke="#63b8ff" d="M267.09,-110.33C274.85,-102.82 286.22,-91.81 295.71,-82.63"/>
<polygon fill="#63b8ff" stroke="#63b8ff" points="297.9,-85.38 302.65,-75.91 293.03,-80.35 297.9,-85.38"/>
</a>
</g>
</g>
<!-- Node5 -->
<g id="Node000005" class="node">
<title>Node5</title>
<g id="a_Node000005"><a xlink:title=" ">
<polygon fill="#e0e0e0" stroke="#999999" points="171.76,-19.25 124.26,-19.25 124.26,0 171.76,0 171.76,-19.25"/>
<text text-anchor="middle" x="148.01" y="-5.75" font-family="Helvetica,sans-Serif" font-size="10.00">stdlib.h</text>
</a>
</g>
</g>
<!-- Node4&#45;&gt;Node5 -->
<g id="edge4_Node000004_Node000005" class="edge">
<title>Node4&#45;&gt;Node5</title>
<g id="a_edge4_Node000004_Node000005"><a xlink:title=" ">
<path fill="none" stroke="#63b8ff" d="M200.32,-54.84C191.31,-47.22 178.18,-36.12 167.33,-26.95"/>
<polygon fill="#63b8ff" stroke="#63b8ff" points="169.59,-24.28 159.7,-20.5 165.08,-29.63 169.59,-24.28"/>
</a>
</g>
</g>
<!-- Node4&#45;&gt;Node6 -->
<g id="edge5_Node000004_Node000006" class="edge">
<title>Node4&#45;&gt;Node6</title>
<g id="a_edge5_Node000004_Node000006"><a xlink:title=" ">
<path fill="none" stroke="#63b8ff" d="M181.83,-54.84C150.85,-45.25 102.05,-30.14 70.29,-20.31"/>
<polygon fill="#63b8ff" stroke="#63b8ff" points="71.45,-17 60.87,-17.39 69.38,-23.69 71.45,-17"/>
</a>
</g>
</g>
<!-- Node4&#45;&gt;Node7 -->
<g id="edge6_Node000004_Node000007" class="edge">
<title>Node4&#45;&gt;Node7</title>
<g id="a_edge6_Node000004_Node000007"><a xlink:title=" ">
<path fill="none" stroke="#63b8ff" d="M234.76,-54.84C257.87,-46.05 293.14,-32.64 318.77,-22.89"/>
<polygon fill="#63b8ff" stroke="#63b8ff" points="319.93,-26.19 328.03,-19.36 317.44,-19.65 319.93,-26.19"/>
</a>
</g>
</g>
<!-- Node8 -->
<g id="Node000008" class="node">
<title>Node8</title>
<g id="a_Node000008"><a xlink:title=" ">
<polygon fill="#e0e0e0" stroke="#999999" points="232.51,-19.25 189.51,-19.25 189.51,0 232.51,0 232.51,-19.25"/>
<text text-anchor="middle" x="211.01" y="-5.75" font-family="Helvetica,sans-Serif" font-size="10.00">cmath</text>
</a>
</g>
</g>
<!-- Node4&#45;&gt;Node8 -->
<g id="edge7_Node000004_Node000008" class="edge">
<title>Node4&#45;&gt;Node8</title>
<g id="a_edge7_Node000004_Node000008"><a xlink:title=" ">
<path fill="none" stroke="#63b8ff" d="M211.01,-55.08C211.01,-48.57 211.01,-39.42 211.01,-31.12"/>
<polygon fill="#63b8ff" stroke="#63b8ff" points="214.51,-31.12 211.01,-21.12 207.51,-31.12 214.51,-31.12"/>
</a>
</g>
</g>
<!-- Node9 -->
<g id="Node000009" class="node">
<title>Node9</title>
<g id="a_Node000009"><a xlink:title=" ">
<polygon fill="#e0e0e0" stroke="#999999" points="305.89,-19.25 250.14,-19.25 250.14,0 305.89,0 305.89,-19.25"/>
<text text-anchor="middle" x="278.01" y="-5.75" font-family="Helvetica,sans-Serif" font-size="10.00">algorithm</text>
</a>
</g>
</g>
<!-- Node4&#45;&gt;Node9 -->
<g id="edge8_Node000004_Node000009" class="edge">
<title>Node4&#45;&gt;Node9</title>
<g id="a_edge8_Node000004_Node000009"><a xlink:title=" ">
<path fill="none" stroke="#63b8ff" d="M222.38,-54.84C232.06,-47.15 246.21,-35.9 257.82,-26.68"/>
<polygon fill="#63b8ff" stroke="#63b8ff" points="259.98,-29.43 265.63,-20.47 255.62,-23.95 259.98,-29.43"/>
</a>
</g>
</g>
<!-- Node11&#45;&gt;Node6 -->
<g id="edge13_Node000011_Node000006" class="edge">
<title>Node11&#45;&gt;Node6</title>
<g id="a_edge13_Node000011_Node000006"><a xlink:title=" ">
<path fill="none" stroke="#63b8ff" d="M451.56,-111.91C448.67,-111.42 445.8,-110.94 443.01,-110.5 323.44,-91.57 288.64,-110.36 173.01,-74.5 154.93,-68.89 152.04,-63.52 135.01,-55.25 113.17,-44.65 88.32,-33.11 69.37,-24.42"/>
<polygon fill="#63b8ff" stroke="#63b8ff" points="70.89,-21.26 60.34,-20.29 67.98,-27.63 70.89,-21.26"/>
</a>
</g>
</g>
<!-- Node11&#45;&gt;Node7 -->
<g id="edge15_Node000011_Node000007" class="edge">
<title>Node11&#45;&gt;Node7</title>
<g id="a_edge15_Node000011_Node000007"><a xlink:title=" ">
<path fill="none" stroke="#63b8ff" d="M472.52,-110.1C457.04,-101.76 434.15,-88.57 416.01,-74.5 397.73,-60.32 379.12,-41.49 366.53,-27.96"/>
<polygon fill="#63b8ff" stroke="#63b8ff" points="369.2,-25.69 359.87,-20.67 364.03,-30.42 369.2,-25.69"/>
</a>
</g>
</g>
<!-- Node12 -->
<g id="Node000012" class="node">
<title>Node12</title>
<g id="a_Node000012"><a xlink:title=" ">
<polygon fill="#e0e0e0" stroke="#999999" points="473.51,-74.5 424.51,-74.5 424.51,-55.25 473.51,-55.25 473.51,-74.5"/>
<text text-anchor="middle" x="449.01" y="-61" font-family="Helvetica,sans-Serif" font-size="10.00">fstream</text>
</a>
</g>
</g>
<!-- Node11&#45;&gt;Node12 -->
<g id="edge14_Node000011_Node000012" class="edge">
<title>Node11&#45;&gt;Node12</title>
<g id="a_edge14_Node000011_Node000012"><a xlink:title=" ">
<path fill="none" stroke="#63b8ff" d="M483.24,-110.33C477.7,-103.13 469.67,-92.71 462.78,-83.76"/>
<polygon fill="#63b8ff" stroke="#63b8ff" points="465.73,-81.85 456.85,-76.06 460.18,-86.12 465.73,-81.85"/>
</a>
</g>
</g>
<!-- Node13 -->
<g id="Node000013" class="node">
<title>Node13</title>
<g id="a_Node000013"><a xlink:title=" ">
<polygon fill="#e0e0e0" stroke="#999999" points="544.76,-74.5 491.26,-74.5 491.26,-55.25 544.76,-55.25 544.76,-74.5"/>
<text text-anchor="middle" x="518.01" y="-61" font-family="Helvetica,sans-Serif" font-size="10.00">iostream</text>
</a>
</g>
</g>
<!-- Node11&#45;&gt;Node13 -->
<g id="edge16_Node000011_Node000013" class="edge">
<title>Node11&#45;&gt;Node13</title>
<g id="a_edge16_Node000011_Node000013"><a xlink:title=" ">
<path fill="none" stroke="#63b8ff" d="M494.64,-110.33C498.26,-103.44 503.44,-93.59 508,-84.91"/>
<polygon fill="#63b8ff" stroke="#63b8ff" points="511.03,-86.68 512.58,-76.2 504.83,-83.42 511.03,-86.68"/>
</a>
</g>
</g>
<!-- Node14 -->
<g id="Node000014" class="node">
<title>Node14</title>
<g id="a_Node000014"><a xlink:title=" ">
<polygon fill="#e0e0e0" stroke="#999999" points="613.64,-74.5 562.39,-74.5 562.39,-55.25 613.64,-55.25 613.64,-74.5"/>
<text text-anchor="middle" x="588.01" y="-61" font-family="Helvetica,sans-Serif" font-size="10.00">sstream</text>
</a>
</g>
</g>
<!-- Node11&#45;&gt;Node14 -->
<g id="edge17_Node000011_Node000014" class="edge">
<title>Node11&#45;&gt;Node14</title>
<g id="a_edge17_Node000011_Node000014"><a xlink:title=" ">
<path fill="none" stroke="#63b8ff" d="M506.64,-110.09C521.7,-101.91 544.15,-89.71 561.66,-80.19"/>
<polygon fill="#63b8ff" stroke="#63b8ff" points="562.86,-83.52 569.98,-75.68 559.52,-77.37 562.86,-83.52"/>
</a>
</g>
</g>
<!-- Node15 -->
<g id="Node000015" class="node">
<title>Node15</title>
<g id="a_Node000015"><a xlink:title=" ">
<polygon fill="#e0e0e0" stroke="#999999" points="678.01,-74.5 632.01,-74.5 632.01,-55.25 678.01,-55.25 678.01,-74.5"/>
<text text-anchor="middle" x="655.01" y="-61" font-family="Helvetica,sans-Serif" font-size="10.00">iterator</text>
</a>
</g>
</g>
<!-- Node11&#45;&gt;Node15 -->
<g id="edge18_Node000011_Node000015" class="edge">
<title>Node11&#45;&gt;Node15</title>
<g id="a_edge18_Node000011_Node000015"><a xlink:title=" ">
<path fill="none" stroke="#63b8ff" d="M518,-110.09C546.37,-100.94 590.31,-86.75 620.75,-76.93"/>
<polygon fill="#63b8ff" stroke="#63b8ff" points="621.81,-80.27 630.25,-73.87 619.66,-73.61 621.81,-80.27"/>
</a>
</g>
</g>
<!-- Node16&#45;&gt;Node2 -->
<g id="edge20_Node000016_Node000002" class="edge">
<title>Node16&#45;&gt;Node2</title>
<g id="a_edge20_Node000016_Node000002"><a xlink:title=" ">
<path fill="none" stroke="#63b8ff" d="M325.27,-165.34C313.29,-157.46 295.64,-145.86 281.43,-136.52"/>
<polygon fill="#63b8ff" stroke="#63b8ff" points="283.36,-133.6 273.08,-131.03 279.52,-139.45 283.36,-133.6"/>
</a>
</g>
</g>
<!-- Node16&#45;&gt;Node7 -->
<g id="edge23_Node000016_Node000007" class="edge">
<title>Node16&#45;&gt;Node7</title>
<g id="a_edge23_Node000016_Node000007"><a xlink:title=" ">
<path fill="none" stroke="#63b8ff" d="M339.66,-165.57C341.51,-140.25 346.9,-66.75 349.53,-30.84"/>
<polygon fill="#63b8ff" stroke="#63b8ff" points="353.01,-31.21 350.25,-20.98 346.03,-30.7 353.01,-31.21"/>
</a>
</g>
</g>
<!-- Node16&#45;&gt;Node10 -->
<g id="edge22_Node000016_Node000010" class="edge">
<title>Node16&#45;&gt;Node10</title>
<g id="a_edge22_Node000016_Node000010"><a xlink:title=" ">
<path fill="none" stroke="#63b8ff" d="M336.88,-165.5C332.75,-148.25 323.55,-109.83 317.85,-86.06"/>
<polygon fill="#63b8ff" stroke="#63b8ff" points="321.26,-85.26 315.52,-76.35 314.45,-86.89 321.26,-85.26"/>
</a>
</g>
</g>
<!-- Node16&#45;&gt;Node11 -->
<g id="edge21_Node000016_Node000011" class="edge">
<title>Node16&#45;&gt;Node11</title>
<g id="a_edge21_Node000016_Node000011"><a xlink:title=" ">
<path fill="none" stroke="#63b8ff" d="M364.63,-165.34C389.03,-156.74 426.02,-143.69 453.51,-134"/>
<polygon fill="#63b8ff" stroke="#63b8ff" points="454.58,-137.33 462.84,-130.71 452.25,-130.73 454.58,-137.33"/>
</a>
</g>
</g>
<!-- Node17 -->
<g id="Node000017" class="node">
<title>Node17</title>
<g id="a_Node000017"><a xlink:title=" ">
<polygon fill="#e0e0e0" stroke="#999999" points="434.14,-129.75 385.89,-129.75 385.89,-110.5 434.14,-110.5 434.14,-129.75"/>
<text text-anchor="middle" x="410.01" y="-116.25" font-family="Helvetica,sans-Serif" font-size="10.00">cassert</text>
</a>
</g>
</g>
<!-- Node16&#45;&gt;Node17 -->
<g id="edge24_Node000016_Node000017" class="edge">
<title>Node16&#45;&gt;Node17</title>
<g id="a_edge24_Node000016_Node000017"><a xlink:title=" ">
<path fill="none" stroke="#63b8ff" d="M351.06,-165.34C361.42,-157.57 376.61,-146.17 388.98,-136.9"/>
<polygon fill="#63b8ff" stroke="#63b8ff" points="391.03,-139.73 396.93,-130.93 386.83,-134.13 391.03,-139.73"/>
</a>
</g>
</g>
<!-- Node18&#45;&gt;Node6 -->
<g id="edge26_Node000018_Node000006" class="edge">
<title>Node18&#45;&gt;Node6</title>
<g id="a_edge26_Node000018_Node000006"><a xlink:title=" ">
<path fill="none" stroke="#63b8ff" d="M75.88,-165.26C55.93,-149.42 16.9,-114.61 2.01,-74.5 -4.29,-57.51 7.65,-39.81 19.61,-27.36"/>
<polygon fill="#63b8ff" stroke="#63b8ff" points="21.77,-30.14 26.57,-20.7 16.93,-25.08 21.77,-30.14"/>
</a>
</g>
</g>
</g>
</svg>
