<?xml version="1.0" encoding="UTF-8" standalone="no"?>
<!DOCTYPE svg PUBLIC "-//W3C//DTD SVG 1.1//EN"
 "http://www.w3.org/Graphics/SVG/1.1/DTD/svg11.dtd">
<!-- Generated by graphviz version 10.0.1 (20240210.2158)
 -->
<!-- Title: Common/Loader/ssvalue.h Pages: 1 -->
<svg width="630pt" height="193pt"
 viewBox="0.00 0.00 630.00 193.00" xmlns="http://www.w3.org/2000/svg" xmlns:xlink="http://www.w3.org/1999/xlink">
<g id="graph0" class="graph" transform="scale(1 1) rotate(0) translate(4 189)">
<title>Common/Loader/ssvalue.h</title>
<!-- Node1 -->
<g id="Node000001" class="node">
<title>Node1</title>
<g id="a_Node000001"><a xlink:title=" ">
<polygon fill="#999999" stroke="#666666" points="465,-185 332,-185 332,-165.75 465,-165.75 465,-185"/>
<text text-anchor="middle" x="398.5" y="-171.5" font-family="Helvetica,sans-Serif" font-size="10.00">Common/Loader/ssvalue.h</text>
</a>
</g>
</g>
<!-- Node2 -->
<g id="Node000002" class="node">
<title>Node2</title>
<g id="a_Node000002"><a xlink:href="ssarchiver_8h.html" target="_top" xlink:title=" ">
<polygon fill="white" stroke="#666666" points="315.75,-129.75 247.25,-129.75 247.25,-110.5 315.75,-110.5 315.75,-129.75"/>
<text text-anchor="middle" x="281.5" y="-116.25" font-family="Helvetica,sans-Serif" font-size="10.00">ssarchiver.h</text>
</a>
</g>
</g>
<!-- Node1&#45;&gt;Node2 -->
<g id="edge1_Node000001_Node000002" class="edge">
<title>Node1&#45;&gt;Node2</title>
<g id="a_edge1_Node000001_Node000002"><a xlink:title=" ">
<path fill="none" stroke="#63b8ff" d="M378.65,-165.34C360.33,-157 332.85,-144.5 311.79,-134.91"/>
<polygon fill="#63b8ff" stroke="#63b8ff" points="313.37,-131.79 302.82,-130.83 310.47,-138.16 313.37,-131.79"/>
</a>
</g>
</g>
<!-- Node7 -->
<g id="Node000007" class="node">
<title>Node7</title>
<g id="a_Node000007"><a xlink:title=" ">
<polygon fill="#e0e0e0" stroke="#999999" points="350,-19.25 307,-19.25 307,0 350,0 350,-19.25"/>
<text text-anchor="middle" x="328.5" y="-5.75" font-family="Helvetica,sans-Serif" font-size="10.00">vector</text>
</a>
</g>
</g>
<!-- Node1&#45;&gt;Node7 -->
<g id="edge20_Node000001_Node000007" class="edge">
<title>Node1&#45;&gt;Node7</title>
<g id="a_edge20_Node000001_Node000007"><a xlink:title=" ">
<path fill="none" stroke="#63b8ff" d="M399.07,-165.34C399.96,-144.52 399.87,-92.09 379.5,-55.25 373.12,-43.7 362.54,-33.71 352.66,-26.12"/>
<polygon fill="#63b8ff" stroke="#63b8ff" points="354.97,-23.47 344.8,-20.5 350.9,-29.16 354.97,-23.47"/>
</a>
</g>
</g>
<!-- Node10 -->
<g id="Node000010" class="node">
<title>Node10</title>
<g id="a_Node000010"><a xlink:title=" ">
<polygon fill="#e0e0e0" stroke="#999999" points="370.88,-74.5 336.12,-74.5 336.12,-55.25 370.88,-55.25 370.88,-74.5"/>
<text text-anchor="middle" x="353.5" y="-61" font-family="Helvetica,sans-Serif" font-size="10.00">map</text>
</a>
</g>
</g>
<!-- Node1&#45;&gt;Node10 -->
<g id="edge19_Node000001_Node000010" class="edge">
<title>Node1&#45;&gt;Node10</title>
<g id="a_edge19_Node000001_Node000010"><a xlink:title=" ">
<path fill="none" stroke="#63b8ff" d="M394.82,-165.5C387.6,-148.09 371.44,-109.12 361.6,-85.41"/>
<polygon fill="#63b8ff" stroke="#63b8ff" points="364.88,-84.17 357.81,-76.27 358.41,-86.85 364.88,-84.17"/>
</a>
</g>
</g>
<!-- Node11 -->
<g id="Node000011" class="node">
<title>Node11</title>
<g id="a_Node000011"><a xlink:href="ssstring__uty_8h.html" target="_top" xlink:title=" ">
<polygon fill="white" stroke="#666666" points="502.5,-74.5 426.5,-74.5 426.5,-55.25 502.5,-55.25 502.5,-74.5"/>
<text text-anchor="middle" x="464.5" y="-61" font-family="Helvetica,sans-Serif" font-size="10.00">ssstring_uty.h</text>
</a>
</g>
</g>
<!-- Node1&#45;&gt;Node11 -->
<g id="edge12_Node000001_Node000011" class="edge">
<title>Node1&#45;&gt;Node11</title>
<g id="a_edge12_Node000001_Node000011"><a xlink:title=" ">
<path fill="none" stroke="#63b8ff" d="M403.9,-165.5C414.63,-147.85 438.84,-108.05 453.2,-84.45"/>
<polygon fill="#63b8ff" stroke="#63b8ff" points="456.03,-86.53 458.24,-76.17 450.05,-82.89 456.03,-86.53"/>
</a>
</g>
</g>
<!-- Node16 -->
<g id="Node000016" class="node">
<title>Node16</title>
<g id="a_Node000016"><a xlink:title=" ">
<polygon fill="#e0e0e0" stroke="#999999" points="512.62,-129.75 464.38,-129.75 464.38,-110.5 512.62,-110.5 512.62,-129.75"/>
<text text-anchor="middle" x="488.5" y="-116.25" font-family="Helvetica,sans-Serif" font-size="10.00">cassert</text>
</a>
</g>
</g>
<!-- Node1&#45;&gt;Node16 -->
<g id="edge21_Node000001_Node000016" class="edge">
<title>Node1&#45;&gt;Node16</title>
<g id="a_edge21_Node000001_Node000016"><a xlink:title=" ">
<path fill="none" stroke="#63b8ff" d="M413.77,-165.34C427.34,-157.31 447.45,-145.41 463.4,-135.98"/>
<polygon fill="#63b8ff" stroke="#63b8ff" points="465.03,-139.08 471.86,-130.97 461.47,-133.05 465.03,-139.08"/>
</a>
</g>
</g>
<!-- Node3 -->
<g id="Node000003" class="node">
<title>Node3</title>
<g id="a_Node000003"><a xlink:title=" ">
<polygon fill="#e0e0e0" stroke="#999999" points="242.88,-74.5 136.12,-74.5 136.12,-55.25 242.88,-55.25 242.88,-74.5"/>
<text text-anchor="middle" x="189.5" y="-61" font-family="Helvetica,sans-Serif" font-size="10.00">./tinyxml2/tinyxml2.h</text>
</a>
</g>
</g>
<!-- Node2&#45;&gt;Node3 -->
<g id="edge2_Node000002_Node000003" class="edge">
<title>Node2&#45;&gt;Node3</title>
<g id="a_edge2_Node000002_Node000003"><a xlink:title=" ">
<path fill="none" stroke="#63b8ff" d="M265.89,-110.09C251.88,-101.98 231.07,-89.93 214.7,-80.46"/>
<polygon fill="#63b8ff" stroke="#63b8ff" points="216.9,-77.69 206.49,-75.71 213.39,-83.75 216.9,-77.69"/>
</a>
</g>
</g>
<!-- Node4 -->
<g id="Node000004" class="node">
<title>Node4</title>
<g id="a_Node000004"><a xlink:href="sstypes_8h.html" target="_top" xlink:title=" ">
<polygon fill="white" stroke="#666666" points="117.88,-74.5 59.12,-74.5 59.12,-55.25 117.88,-55.25 117.88,-74.5"/>
<text text-anchor="middle" x="88.5" y="-61" font-family="Helvetica,sans-Serif" font-size="10.00">sstypes.h</text>
</a>
</g>
</g>
<!-- Node2&#45;&gt;Node4 -->
<g id="edge3_Node000002_Node000004" class="edge">
<title>Node2&#45;&gt;Node4</title>
<g id="a_edge3_Node000002_Node000004"><a xlink:title=" ">
<path fill="none" stroke="#63b8ff" d="M248.76,-110.09C215.77,-100.99 164.77,-86.92 129.19,-77.1"/>
<polygon fill="#63b8ff" stroke="#63b8ff" points="130.26,-73.77 119.69,-74.48 128.39,-80.51 130.26,-73.77"/>
</a>
</g>
</g>
<!-- Node6 -->
<g id="Node000006" class="node">
<title>Node6</title>
<g id="a_Node000006"><a xlink:title=" ">
<polygon fill="#e0e0e0" stroke="#999999" points="288.5,-19.25 248.5,-19.25 248.5,0 288.5,0 288.5,-19.25"/>
<text text-anchor="middle" x="268.5" y="-5.75" font-family="Helvetica,sans-Serif" font-size="10.00">string</text>
</a>
</g>
</g>
<!-- Node2&#45;&gt;Node6 -->
<g id="edge9_Node000002_Node000006" class="edge">
<title>Node2&#45;&gt;Node6</title>
<g id="a_edge9_Node000002_Node000006"><a xlink:title=" ">
<path fill="none" stroke="#63b8ff" d="M280.44,-110.25C278.37,-93 273.77,-54.58 270.92,-30.81"/>
<polygon fill="#63b8ff" stroke="#63b8ff" points="274.42,-30.64 269.76,-21.13 267.47,-31.47 274.42,-30.64"/>
</a>
</g>
</g>
<!-- Node2&#45;&gt;Node7 -->
<g id="edge10_Node000002_Node000007" class="edge">
<title>Node2&#45;&gt;Node7</title>
<g id="a_edge10_Node000002_Node000007"><a xlink:title=" ">
<path fill="none" stroke="#63b8ff" d="M285.35,-110.25C292.89,-92.84 309.77,-53.87 320.04,-30.16"/>
<polygon fill="#63b8ff" stroke="#63b8ff" points="323.24,-31.58 324,-21.02 316.81,-28.8 323.24,-31.58"/>
</a>
</g>
</g>
<!-- Node2&#45;&gt;Node10 -->
<g id="edge11_Node000002_Node000010" class="edge">
<title>Node2&#45;&gt;Node10</title>
<g id="a_edge11_Node000002_Node000010"><a xlink:title=" ">
<path fill="none" stroke="#63b8ff" d="M293.71,-110.09C304.33,-102.24 319.94,-90.7 332.54,-81.37"/>
<polygon fill="#63b8ff" stroke="#63b8ff" points="334.29,-84.44 340.25,-75.67 330.13,-78.81 334.29,-84.44"/>
</a>
</g>
</g>
<!-- Node5 -->
<g id="Node000005" class="node">
<title>Node5</title>
<g id="a_Node000005"><a xlink:title=" ">
<polygon fill="#e0e0e0" stroke="#999999" points="182.25,-19.25 134.75,-19.25 134.75,0 182.25,0 182.25,-19.25"/>
<text text-anchor="middle" x="158.5" y="-5.75" font-family="Helvetica,sans-Serif" font-size="10.00">stdlib.h</text>
</a>
</g>
</g>
<!-- Node4&#45;&gt;Node5 -->
<g id="edge4_Node000004_Node000005" class="edge">
<title>Node4&#45;&gt;Node5</title>
<g id="a_edge4_Node000004_Node000005"><a xlink:title=" ">
<path fill="none" stroke="#63b8ff" d="M100.37,-54.84C110.59,-47.07 125.57,-35.67 137.76,-26.4"/>
<polygon fill="#63b8ff" stroke="#63b8ff" points="139.76,-29.28 145.6,-20.44 135.52,-23.71 139.76,-29.28"/>
</a>
</g>
</g>
<!-- Node4&#45;&gt;Node6 -->
<g id="edge5_Node000004_Node000006" class="edge">
<title>Node4&#45;&gt;Node6</title>
<g id="a_edge5_Node000004_Node000006"><a xlink:title=" ">
<path fill="none" stroke="#63b8ff" d="M118.22,-55.08C151.09,-45.36 203.82,-29.76 237.28,-19.86"/>
<polygon fill="#63b8ff" stroke="#63b8ff" points="238.2,-23.24 246.79,-17.05 236.21,-16.53 238.2,-23.24"/>
</a>
</g>
</g>
<!-- Node4&#45;&gt;Node7 -->
<g id="edge6_Node000004_Node000007" class="edge">
<title>Node4&#45;&gt;Node7</title>
<g id="a_edge6_Node000004_Node000007"><a xlink:title=" ">
<path fill="none" stroke="#63b8ff" d="M118.3,-57.25C121.41,-56.57 124.52,-55.9 127.5,-55.25 199.59,-39.65 220.62,-37.76 295.58,-19.59"/>
<polygon fill="#63b8ff" stroke="#63b8ff" points="296.18,-23.05 305.06,-17.28 294.51,-16.25 296.18,-23.05"/>
</a>
</g>
</g>
<!-- Node8 -->
<g id="Node000008" class="node">
<title>Node8</title>
<g id="a_Node000008"><a xlink:title=" ">
<polygon fill="#e0e0e0" stroke="#999999" points="43,-19.25 0,-19.25 0,0 43,0 43,-19.25"/>
<text text-anchor="middle" x="21.5" y="-5.75" font-family="Helvetica,sans-Serif" font-size="10.00">cmath</text>
</a>
</g>
</g>
<!-- Node4&#45;&gt;Node8 -->
<g id="edge7_Node000004_Node000008" class="edge">
<title>Node4&#45;&gt;Node8</title>
<g id="a_edge7_Node000004_Node000008"><a xlink:title=" ">
<path fill="none" stroke="#63b8ff" d="M77.13,-54.84C67.45,-47.15 53.3,-35.9 41.69,-26.68"/>
<polygon fill="#63b8ff" stroke="#63b8ff" points="43.89,-23.95 33.88,-20.47 39.53,-29.43 43.89,-23.95"/>
</a>
</g>
</g>
<!-- Node9 -->
<g id="Node000009" class="node">
<title>Node9</title>
<g id="a_Node000009"><a xlink:title=" ">
<polygon fill="#e0e0e0" stroke="#999999" points="116.38,-19.25 60.62,-19.25 60.62,0 116.38,0 116.38,-19.25"/>
<text text-anchor="middle" x="88.5" y="-5.75" font-family="Helvetica,sans-Serif" font-size="10.00">algorithm</text>
</a>
</g>
</g>
<!-- Node4&#45;&gt;Node9 -->
<g id="edge8_Node000004_Node000009" class="edge">
<title>Node4&#45;&gt;Node9</title>
<g id="a_edge8_Node000004_Node000009"><a xlink:title=" ">
<path fill="none" stroke="#63b8ff" d="M88.5,-55.08C88.5,-48.57 88.5,-39.42 88.5,-31.12"/>
<polygon fill="#63b8ff" stroke="#63b8ff" points="92,-31.12 88.5,-21.12 85,-31.12 92,-31.12"/>
</a>
</g>
</g>
<!-- Node11&#45;&gt;Node6 -->
<g id="edge13_Node000011_Node000006" class="edge">
<title>Node11&#45;&gt;Node6</title>
<g id="a_edge13_Node000011_Node000006"><a xlink:title=" ">
<path fill="none" stroke="#63b8ff" d="M429.24,-54.76C397.7,-46.54 349.94,-33.92 299.82,-19.85"/>
<polygon fill="#63b8ff" stroke="#63b8ff" points="300.79,-16.49 290.22,-17.14 298.89,-23.22 300.79,-16.49"/>
</a>
</g>
</g>
<!-- Node11&#45;&gt;Node7 -->
<g id="edge15_Node000011_Node000007" class="edge">
<title>Node11&#45;&gt;Node7</title>
<g id="a_edge15_Node000011_Node000007"><a xlink:title=" ">
<path fill="none" stroke="#63b8ff" d="M441.43,-54.84C419.35,-46.2 385.83,-33.07 361.04,-23.36"/>
<polygon fill="#63b8ff" stroke="#63b8ff" points="362.33,-20.11 351.74,-19.72 359.78,-26.63 362.33,-20.11"/>
</a>
</g>
</g>
<!-- Node12 -->
<g id="Node000012" class="node">
<title>Node12</title>
<g id="a_Node000012"><a xlink:title=" ">
<polygon fill="#e0e0e0" stroke="#999999" points="622,-19.25 573,-19.25 573,0 622,0 622,-19.25"/>
<text text-anchor="middle" x="597.5" y="-5.75" font-family="Helvetica,sans-Serif" font-size="10.00">fstream</text>
</a>
</g>
</g>
<!-- Node11&#45;&gt;Node12 -->
<g id="edge14_Node000011_Node000012" class="edge">
<title>Node11&#45;&gt;Node12</title>
<g id="a_edge14_Node000011_Node000012"><a xlink:title=" ">
<path fill="none" stroke="#63b8ff" d="M487.06,-54.84C508.27,-46.35 540.27,-33.54 564.38,-23.89"/>
<polygon fill="#63b8ff" stroke="#63b8ff" points="565.44,-27.23 573.42,-20.27 562.84,-20.73 565.44,-27.23"/>
</a>
</g>
</g>
<!-- Node13 -->
<g id="Node000013" class="node">
<title>Node13</title>
<g id="a_Node000013"><a xlink:title=" ">
<polygon fill="#e0e0e0" stroke="#999999" points="421.25,-19.25 367.75,-19.25 367.75,0 421.25,0 421.25,-19.25"/>
<text text-anchor="middle" x="394.5" y="-5.75" font-family="Helvetica,sans-Serif" font-size="10.00">iostream</text>
</a>
</g>
</g>
<!-- Node11&#45;&gt;Node13 -->
<g id="edge16_Node000011_Node000013" class="edge">
<title>Node11&#45;&gt;Node13</title>
<g id="a_edge16_Node000011_Node000013"><a xlink:title=" ">
<path fill="none" stroke="#63b8ff" d="M452.63,-54.84C442.41,-47.07 427.43,-35.67 415.24,-26.4"/>
<polygon fill="#63b8ff" stroke="#63b8ff" points="417.48,-23.71 407.4,-20.44 413.24,-29.28 417.48,-23.71"/>
</a>
</g>
</g>
<!-- Node14 -->
<g id="Node000014" class="node">
<title>Node14</title>
<g id="a_Node000014"><a xlink:title=" ">
<polygon fill="#e0e0e0" stroke="#999999" points="490.12,-19.25 438.88,-19.25 438.88,0 490.12,0 490.12,-19.25"/>
<text text-anchor="middle" x="464.5" y="-5.75" font-family="Helvetica,sans-Serif" font-size="10.00">sstream</text>
</a>
</g>
</g>
<!-- Node11&#45;&gt;Node14 -->
<g id="edge17_Node000011_Node000014" class="edge">
<title>Node11&#45;&gt;Node14</title>
<g id="a_edge17_Node000011_Node000014"><a xlink:title=" ">
<path fill="none" stroke="#63b8ff" d="M464.5,-55.08C464.5,-48.57 464.5,-39.42 464.5,-31.12"/>
<polygon fill="#63b8ff" stroke="#63b8ff" points="468,-31.12 464.5,-21.12 461,-31.12 468,-31.12"/>
</a>
</g>
</g>
<!-- Node15 -->
<g id="Node000015" class="node">
<title>Node15</title>
<g id="a_Node000015"><a xlink:title=" ">
<polygon fill="#e0e0e0" stroke="#999999" points="554.5,-19.25 508.5,-19.25 508.5,0 554.5,0 554.5,-19.25"/>
<text text-anchor="middle" x="531.5" y="-5.75" font-family="Helvetica,sans-Serif" font-size="10.00">iterator</text>
</a>
</g>
</g>
<!-- Node11&#45;&gt;Node15 -->
<g id="edge18_Node000011_Node000015" class="edge">
<title>Node11&#45;&gt;Node15</title>
<g id="a_edge18_Node000011_Node000015"><a xlink:title=" ">
<path fill="none" stroke="#63b8ff" d="M475.87,-54.84C485.55,-47.15 499.7,-35.9 511.31,-26.68"/>
<polygon fill="#63b8ff" stroke="#63b8ff" points="513.47,-29.43 519.12,-20.47 509.11,-23.95 513.47,-29.43"/>
</a>
</g>
</g>
</g>
</svg>
