<?xml version="1.0" encoding="UTF-8" standalone="no"?>
<!DOCTYPE svg PUBLIC "-//W3C//DTD SVG 1.1//EN"
 "http://www.w3.org/Graphics/SVG/1.1/DTD/svg11.dtd">
<!-- Generated by graphviz version 12.2.1 (20241206.2353)
 -->
<!-- Title: Common/Loader/ssvalue.h Pages: 1 -->
<svg width="1425pt" height="537pt"
 viewBox="0.00 0.00 1424.50 536.75" xmlns="http://www.w3.org/2000/svg" xmlns:xlink="http://www.w3.org/1999/xlink">
<g id="graph0" class="graph" transform="scale(1 1) rotate(0) translate(4 532.75)">
<title>Common/Loader/ssvalue.h</title>
<!-- Node1 -->
<g id="Node000001" class="node">
<title>Node1</title>
<g id="a_Node000001"><a xlink:title=" ">
<polygon fill="#999999" stroke="#666666" points="1072.25,-528.75 939.25,-528.75 939.25,-509.5 1072.25,-509.5 1072.25,-528.75"/>
<text text-anchor="middle" x="1005.75" y="-515.25" font-family="Helvetica,sans-Serif" font-size="10.00">Common/Loader/ssvalue.h</text>
</a>
</g>
</g>
<!-- Node2 -->
<g id="Node000002" class="node">
<title>Node2</title>
<g id="a_Node000002"><a xlink:href="_ss_effect_behavior_8h.html" target="_top" xlink:title=" ">
<polygon fill="white" stroke="#666666" points="899.25,-473.5 724.25,-473.5 724.25,-454.25 899.25,-454.25 899.25,-473.5"/>
<text text-anchor="middle" x="811.75" y="-460" font-family="Helvetica,sans-Serif" font-size="10.00">Common/Loader/SsEffectBehavior.h</text>
</a>
</g>
</g>
<!-- Node1&#45;&gt;Node2 -->
<g id="edge1_Node000001_Node000002" class="edge">
<title>Node1&#45;&gt;Node2</title>
<g id="a_edge1_Node000001_Node000002"><a xlink:title=" ">
<path fill="none" stroke="#63b8ff" d="M961.83,-506.07C926.31,-496.32 877.07,-482.8 844.82,-473.95"/>
<polygon fill="#63b8ff" stroke="#63b8ff" points="960.81,-509.42 971.38,-508.69 962.66,-502.67 960.81,-509.42"/>
</a>
</g>
</g>
<!-- Node28 -->
<g id="Node000028" class="node">
<title>Node28</title>
<g id="a_Node000028"><a xlink:href="ssattribute_8h.html" target="_top" xlink:title=" ">
<polygon fill="white" stroke="#666666" points="1078.25,-473.5 933.25,-473.5 933.25,-454.25 1078.25,-454.25 1078.25,-473.5"/>
<text text-anchor="middle" x="1005.75" y="-460" font-family="Helvetica,sans-Serif" font-size="10.00">Common/Loader/ssattribute.h</text>
</a>
</g>
</g>
<!-- Node1&#45;&gt;Node28 -->
<g id="edge47_Node000001_Node000028" class="edge">
<title>Node1&#45;&gt;Node28</title>
<g id="a_edge47_Node000001_Node000028"><a xlink:title=" ">
<path fill="none" stroke="#63b8ff" d="M1005.75,-497.88C1005.75,-489.59 1005.75,-480.42 1005.75,-473.86"/>
<polygon fill="#63b8ff" stroke="#63b8ff" points="1002.25,-497.82 1005.75,-507.82 1009.25,-497.82 1002.25,-497.82"/>
</a>
</g>
</g>
<!-- Node31 -->
<g id="Node000031" class="node">
<title>Node31</title>
<g id="a_Node000031"><a xlink:href="ssvalue_8cpp.html" target="_top" xlink:title=" ">
<polygon fill="white" stroke="#666666" points="1239.5,-473.5 1096,-473.5 1096,-454.25 1239.5,-454.25 1239.5,-473.5"/>
<text text-anchor="middle" x="1167.75" y="-460" font-family="Helvetica,sans-Serif" font-size="10.00">Common/Loader/ssvalue.cpp</text>
</a>
</g>
</g>
<!-- Node1&#45;&gt;Node31 -->
<g id="edge56_Node000001_Node000031" class="edge">
<title>Node1&#45;&gt;Node31</title>
<g id="a_edge56_Node000001_Node000031"><a xlink:title=" ">
<path fill="none" stroke="#63b8ff" d="M1043.98,-505.56C1073.51,-495.85 1113.67,-482.65 1140.13,-473.95"/>
<polygon fill="#63b8ff" stroke="#63b8ff" points="1043.08,-502.17 1034.67,-508.62 1045.26,-508.82 1043.08,-502.17"/>
</a>
</g>
</g>
<!-- Node3 -->
<g id="Node000003" class="node">
<title>Node3</title>
<g id="a_Node000003"><a xlink:href="_ss_effect_behavior_8cpp.html" target="_top" xlink:title=" ">
<polygon fill="white" stroke="#666666" points="658.5,-412.62 473,-412.62 473,-393.38 658.5,-393.38 658.5,-412.62"/>
<text text-anchor="middle" x="565.75" y="-399.12" font-family="Helvetica,sans-Serif" font-size="10.00">Common/Loader/SsEffectBehavior.cpp</text>
</a>
</g>
</g>
<!-- Node2&#45;&gt;Node3 -->
<g id="edge2_Node000002_Node000003" class="edge">
<title>Node2&#45;&gt;Node3</title>
<g id="a_edge2_Node000002_Node000003"><a xlink:title=" ">
<path fill="none" stroke="#63b8ff" d="M762.77,-451.15C715.97,-439.95 646.42,-423.31 603.69,-413.08"/>
<polygon fill="#63b8ff" stroke="#63b8ff" points="761.84,-454.53 772.38,-453.45 763.47,-447.72 761.84,-454.53"/>
</a>
</g>
</g>
<!-- Node4 -->
<g id="Node000004" class="node">
<title>Node4</title>
<g id="a_Node000004"><a xlink:href="ssloader__ssee_8h.html" target="_top" xlink:title=" ">
<polygon fill="white" stroke="#666666" points="875.62,-418.25 747.88,-418.25 747.88,-387.75 875.62,-387.75 875.62,-418.25"/>
<text text-anchor="start" x="755.88" y="-404.75" font-family="Helvetica,sans-Serif" font-size="10.00">Common/Loader/ssloader</text>
<text text-anchor="middle" x="811.75" y="-393.5" font-family="Helvetica,sans-Serif" font-size="10.00">_ssee.h</text>
</a>
</g>
</g>
<!-- Node2&#45;&gt;Node4 -->
<g id="edge3_Node000002_Node000004" class="edge">
<title>Node2&#45;&gt;Node4</title>
<g id="a_edge3_Node000002_Node000004"><a xlink:title=" ">
<path fill="none" stroke="#63b8ff" d="M811.75,-442.67C811.75,-434.74 811.75,-425.81 811.75,-418.53"/>
<polygon fill="#63b8ff" stroke="#63b8ff" points="808.25,-442.42 811.75,-452.42 815.25,-442.42 808.25,-442.42"/>
</a>
</g>
</g>
<!-- Node5 -->
<g id="Node000005" class="node">
<title>Node5</title>
<g id="a_Node000005"><a xlink:href="ssloader_8h.html" target="_top" xlink:title=" ">
<polygon fill="white" stroke="#666666" points="792.38,-279.62 657.12,-279.62 657.12,-260.38 792.38,-260.38 792.38,-279.62"/>
<text text-anchor="middle" x="724.75" y="-266.12" font-family="Helvetica,sans-Serif" font-size="10.00">Common/Loader/ssloader.h</text>
</a>
</g>
</g>
<!-- Node4&#45;&gt;Node5 -->
<g id="edge4_Node000004_Node000005" class="edge">
<title>Node4&#45;&gt;Node5</title>
<g id="a_edge4_Node000004_Node000005"><a xlink:title=" ">
<path fill="none" stroke="#63b8ff" d="M795.77,-377.94C776.22,-348.5 744.08,-300.11 730.79,-280.1"/>
<polygon fill="#63b8ff" stroke="#63b8ff" points="792.82,-379.83 801.27,-386.22 798.65,-375.95 792.82,-379.83"/>
</a>
</g>
</g>
<!-- Node25 -->
<g id="Node000025" class="node">
<title>Node25</title>
<g id="a_Node000025"><a xlink:href="ssloader__ssee_8cpp.html" target="_top" xlink:title=" ">
<polygon fill="white" stroke="#666666" points="1093.62,-285.25 965.88,-285.25 965.88,-254.75 1093.62,-254.75 1093.62,-285.25"/>
<text text-anchor="start" x="973.88" y="-271.75" font-family="Helvetica,sans-Serif" font-size="10.00">Common/Loader/ssloader</text>
<text text-anchor="middle" x="1029.75" y="-260.5" font-family="Helvetica,sans-Serif" font-size="10.00">_ssee.cpp</text>
</a>
</g>
</g>
<!-- Node4&#45;&gt;Node25 -->
<g id="edge41_Node000004_Node000025" class="edge">
<title>Node4&#45;&gt;Node25</title>
<g id="a_edge41_Node000004_Node000025"><a xlink:title=" ">
<path fill="none" stroke="#63b8ff" d="M886.71,-387C913.25,-379.33 942.32,-368.06 965.75,-351.75 991,-334.17 1011.21,-303.76 1021.76,-285.7"/>
<polygon fill="#63b8ff" stroke="#63b8ff" points="886.08,-383.55 877.36,-389.57 887.93,-390.3 886.08,-383.55"/>
</a>
</g>
</g>
<!-- Node26 -->
<g id="Node000026" class="node">
<title>Node26</title>
<g id="a_Node000026"><a xlink:href="ssloader__sspj_8cpp.html" target="_top" xlink:title=" ">
<polygon fill="white" stroke="#666666" points="947.62,-285.25 819.88,-285.25 819.88,-254.75 947.62,-254.75 947.62,-285.25"/>
<text text-anchor="start" x="827.88" y="-271.75" font-family="Helvetica,sans-Serif" font-size="10.00">Common/Loader/ssloader</text>
<text text-anchor="middle" x="883.75" y="-260.5" font-family="Helvetica,sans-Serif" font-size="10.00">_sspj.cpp</text>
</a>
</g>
</g>
<!-- Node4&#45;&gt;Node26 -->
<g id="edge42_Node000004_Node000026" class="edge">
<title>Node4&#45;&gt;Node26</title>
<g id="a_edge42_Node000004_Node000026"><a xlink:title=" ">
<path fill="none" stroke="#63b8ff" d="M809.29,-376.18C808.87,-359.53 810.59,-337.95 819.75,-321.25 827.97,-306.27 842.72,-294.22 855.99,-285.68"/>
<polygon fill="#63b8ff" stroke="#63b8ff" points="805.78,-375.98 809.82,-385.78 812.76,-375.6 805.78,-375.98"/>
</a>
</g>
</g>
<!-- Node27 -->
<g id="Node000027" class="node">
<title>Node27</title>
<g id="a_Node000027"><a xlink:href="ssloader__sspj_8h.html" target="_top" xlink:title=" ">
<polygon fill="white" stroke="#666666" points="956.62,-351.75 828.88,-351.75 828.88,-321.25 956.62,-321.25 956.62,-351.75"/>
<text text-anchor="start" x="836.88" y="-338.25" font-family="Helvetica,sans-Serif" font-size="10.00">Common/Loader/ssloader</text>
<text text-anchor="middle" x="892.75" y="-327" font-family="Helvetica,sans-Serif" font-size="10.00">_sspj.h</text>
</a>
</g>
</g>
<!-- Node4&#45;&gt;Node27 -->
<g id="edge43_Node000004_Node000027" class="edge">
<title>Node4&#45;&gt;Node27</title>
<g id="a_edge43_Node000004_Node000027"><a xlink:title=" ">
<path fill="none" stroke="#63b8ff" d="M839.04,-380.27C850.7,-370.98 864,-360.4 874.44,-352.08"/>
<polygon fill="#63b8ff" stroke="#63b8ff" points="836.96,-377.45 831.31,-386.42 841.32,-382.93 836.96,-377.45"/>
</a>
</g>
</g>
<!-- Node6 -->
<g id="Node000006" class="node">
<title>Node6</title>
<g id="a_Node000006"><a xlink:href="ssplayer___part_state_8cpp.html" target="_top" xlink:title=" ">
<polygon fill="white" stroke="#666666" points="1369.5,-30.5 1232,-30.5 1232,0 1369.5,0 1369.5,-30.5"/>
<text text-anchor="start" x="1240" y="-17" font-family="Helvetica,sans-Serif" font-size="10.00">Common/Animator/ssplayer</text>
<text text-anchor="middle" x="1300.75" y="-5.75" font-family="Helvetica,sans-Serif" font-size="10.00">_PartState.cpp</text>
</a>
</g>
</g>
<!-- Node5&#45;&gt;Node6 -->
<g id="edge5_Node000005_Node000006" class="edge">
<title>Node5&#45;&gt;Node6</title>
<g id="a_edge5_Node000005_Node000006"><a xlink:title=" ">
<path fill="none" stroke="#63b8ff" d="M787.16,-258.16C795.09,-256.93 803.1,-255.76 810.75,-254.75 891.99,-244.05 1108.38,-262.37 1177.75,-218.75 1249.65,-173.53 1285.59,-69.5 1296.8,-30.96"/>
<polygon fill="#63b8ff" stroke="#63b8ff" points="786.87,-254.66 777.55,-259.69 787.97,-261.57 786.87,-254.66"/>
</a>
</g>
</g>
<!-- Node7 -->
<g id="Node000007" class="node">
<title>Node7</title>
<g id="a_Node000007"><a xlink:href="ssplayer__animedecode_8cpp.html" target="_top" xlink:title=" ">
<polygon fill="white" stroke="#666666" points="605.5,-30.5 468,-30.5 468,0 605.5,0 605.5,-30.5"/>
<text text-anchor="start" x="476" y="-17" font-family="Helvetica,sans-Serif" font-size="10.00">Common/Animator/ssplayer</text>
<text text-anchor="middle" x="536.75" y="-5.75" font-family="Helvetica,sans-Serif" font-size="10.00">_animedecode.cpp</text>
</a>
</g>
</g>
<!-- Node5&#45;&gt;Node7 -->
<g id="edge6_Node000005_Node000007" class="edge">
<title>Node5&#45;&gt;Node7</title>
<g id="a_edge6_Node000005_Node000007"><a xlink:title=" ">
<path fill="none" stroke="#63b8ff" d="M645.62,-264.42C579.63,-255.7 490.78,-231.22 454.75,-163.5 428.71,-114.55 486.15,-57.38 517.75,-30.99"/>
<polygon fill="#63b8ff" stroke="#63b8ff" points="644.98,-267.87 655.33,-265.6 645.83,-260.92 644.98,-267.87"/>
</a>
</g>
</g>
<!-- Node8 -->
<g id="Node000008" class="node">
<title>Node8</title>
<g id="a_Node000008"><a xlink:href="ssplayer__animedecode_8h.html" target="_top" xlink:title=" ">
<polygon fill="white" stroke="#666666" points="831.5,-97 694,-97 694,-66.5 831.5,-66.5 831.5,-97"/>
<text text-anchor="start" x="702" y="-83.5" font-family="Helvetica,sans-Serif" font-size="10.00">Common/Animator/ssplayer</text>
<text text-anchor="middle" x="762.75" y="-72.25" font-family="Helvetica,sans-Serif" font-size="10.00">_animedecode.h</text>
</a>
</g>
</g>
<!-- Node5&#45;&gt;Node8 -->
<g id="edge7_Node000005_Node000008" class="edge">
<title>Node5&#45;&gt;Node8</title>
<g id="a_edge7_Node000005_Node000008"><a xlink:title=" ">
<path fill="none" stroke="#63b8ff" d="M724.8,-249.17C725.95,-233.47 730.17,-212.14 743.75,-199.5 804.1,-143.32 873.41,-227.21 925.75,-163.5 957.07,-125.37 889.44,-103.71 831.97,-92.61"/>
<polygon fill="#63b8ff" stroke="#63b8ff" points="721.31,-248.66 724.47,-258.77 728.31,-248.9 721.31,-248.66"/>
</a>
</g>
</g>
<!-- Node9 -->
<g id="Node000009" class="node">
<title>Node9</title>
<g id="a_Node000009"><a xlink:href="ssplayer__cellmap_8cpp.html" target="_top" xlink:title=" ">
<polygon fill="white" stroke="#666666" points="1057.5,-30.5 920,-30.5 920,0 1057.5,0 1057.5,-30.5"/>
<text text-anchor="start" x="928" y="-17" font-family="Helvetica,sans-Serif" font-size="10.00">Common/Animator/ssplayer</text>
<text text-anchor="middle" x="988.75" y="-5.75" font-family="Helvetica,sans-Serif" font-size="10.00">_cellmap.cpp</text>
</a>
</g>
</g>
<!-- Node5&#45;&gt;Node9 -->
<g id="edge17_Node000005_Node000009" class="edge">
<title>Node5&#45;&gt;Node9</title>
<g id="a_edge17_Node000005_Node000009"><a xlink:title=" ">
<path fill="none" stroke="#63b8ff" d="M788.34,-258.06C795.88,-256.88 803.48,-255.75 810.75,-254.75 883.17,-244.77 1088.97,-273.2 1137.75,-218.75 1196.44,-153.25 1070.43,-65.4 1014.11,-30.97"/>
<polygon fill="#63b8ff" stroke="#63b8ff" points="787.8,-254.61 778.48,-259.64 788.9,-261.52 787.8,-254.61"/>
</a>
</g>
</g>
<!-- Node10 -->
<g id="Node000010" class="node">
<title>Node10</title>
<g id="a_Node000010"><a xlink:href="ssplayer__effect_8cpp.html" target="_top" xlink:title=" ">
<polygon fill="white" stroke="#666666" points="293.5,-30.5 156,-30.5 156,0 293.5,0 293.5,-30.5"/>
<text text-anchor="start" x="164" y="-17" font-family="Helvetica,sans-Serif" font-size="10.00">Common/Animator/ssplayer</text>
<text text-anchor="middle" x="224.75" y="-5.75" font-family="Helvetica,sans-Serif" font-size="10.00">_effect.cpp</text>
</a>
</g>
</g>
<!-- Node5&#45;&gt;Node10 -->
<g id="edge18_Node000005_Node000010" class="edge">
<title>Node5&#45;&gt;Node10</title>
<g id="a_edge18_Node000005_Node000010"><a xlink:title=" ">
<path fill="none" stroke="#63b8ff" d="M645.61,-265.67C509.7,-258.09 241.07,-234.3 184.75,-163.5 157.82,-129.65 160.65,-106.65 176.75,-66.5 182.5,-52.17 194.5,-39.6 205.06,-30.62"/>
<polygon fill="#63b8ff" stroke="#63b8ff" points="645.06,-269.15 655.24,-266.19 645.44,-262.16 645.06,-269.15"/>
</a>
</g>
</g>
<!-- Node11 -->
<g id="Node000011" class="node">
<title>Node11</title>
<g id="a_Node000011"><a xlink:href="ssplayer__effect2_8cpp.html" target="_top" xlink:title=" ">
<polygon fill="white" stroke="#666666" points="449.5,-30.5 312,-30.5 312,0 449.5,0 449.5,-30.5"/>
<text text-anchor="start" x="320" y="-17" font-family="Helvetica,sans-Serif" font-size="10.00">Common/Animator/ssplayer</text>
<text text-anchor="middle" x="380.75" y="-5.75" font-family="Helvetica,sans-Serif" font-size="10.00">_effect2.cpp</text>
</a>
</g>
</g>
<!-- Node5&#45;&gt;Node11 -->
<g id="edge28_Node000005_Node000011" class="edge">
<title>Node5&#45;&gt;Node11</title>
<g id="a_edge28_Node000005_Node000011"><a xlink:title=" ">
<path fill="none" stroke="#63b8ff" d="M645.44,-259.62C584.16,-251.14 505.44,-237.16 478.75,-218.75 412.36,-172.96 389.31,-69.28 382.88,-30.9"/>
<polygon fill="#63b8ff" stroke="#63b8ff" points="644.78,-263.07 655.16,-260.94 645.72,-256.13 644.78,-263.07"/>
</a>
</g>
</g>
<!-- Node12 -->
<g id="Node000012" class="node">
<title>Node12</title>
<g id="a_Node000012"><a xlink:href="ssplayer__effectfunction_8cpp.html" target="_top" xlink:title=" ">
<polygon fill="white" stroke="#666666" points="137.5,-30.5 0,-30.5 0,0 137.5,0 137.5,-30.5"/>
<text text-anchor="start" x="8" y="-17" font-family="Helvetica,sans-Serif" font-size="10.00">Common/Animator/ssplayer</text>
<text text-anchor="middle" x="68.75" y="-5.75" font-family="Helvetica,sans-Serif" font-size="10.00">_effectfunction.cpp</text>
</a>
</g>
</g>
<!-- Node5&#45;&gt;Node12 -->
<g id="edge29_Node000005_Node000012" class="edge">
<title>Node5&#45;&gt;Node12</title>
<g id="a_edge29_Node000005_Node000012"><a xlink:title=" ">
<path fill="none" stroke="#63b8ff" d="M645.55,-266.1C526.66,-260.86 308.25,-247.58 235.75,-218.75 147.46,-183.64 92.21,-71.4 74.75,-30.95"/>
<polygon fill="#63b8ff" stroke="#63b8ff" points="645.08,-269.58 655.23,-266.51 645.39,-262.59 645.08,-269.58"/>
</a>
</g>
</g>
<!-- Node13 -->
<g id="Node000013" class="node">
<title>Node13</title>
<g id="a_Node000013"><a xlink:href="ssplayer__mesh_8cpp.html" target="_top" xlink:title=" ">
<polygon fill="white" stroke="#666666" points="1213.5,-30.5 1076,-30.5 1076,0 1213.5,0 1213.5,-30.5"/>
<text text-anchor="start" x="1084" y="-17" font-family="Helvetica,sans-Serif" font-size="10.00">Common/Animator/ssplayer</text>
<text text-anchor="middle" x="1144.75" y="-5.75" font-family="Helvetica,sans-Serif" font-size="10.00">_mesh.cpp</text>
</a>
</g>
</g>
<!-- Node5&#45;&gt;Node13 -->
<g id="edge30_Node000005_Node000013" class="edge">
<title>Node5&#45;&gt;Node13</title>
<g id="a_edge30_Node000005_Node000013"><a xlink:title=" ">
<path fill="none" stroke="#63b8ff" d="M787.75,-258.11C795.49,-256.91 803.29,-255.75 810.75,-254.75 887.58,-244.41 1105.84,-276.33 1157.75,-218.75 1206.11,-165.11 1168.68,-67.53 1151.85,-30.77"/>
<polygon fill="#63b8ff" stroke="#63b8ff" points="787.34,-254.63 778.01,-259.66 788.44,-261.54 787.34,-254.63"/>
</a>
</g>
</g>
<!-- Node16 -->
<g id="Node000016" class="node">
<title>Node16</title>
<g id="a_Node000016"><a xlink:href="ssplayer__effect_8h.html" target="_top" xlink:title=" ">
<polygon fill="white" stroke="#666666" points="331.5,-163.5 194,-163.5 194,-133 331.5,-133 331.5,-163.5"/>
<text text-anchor="start" x="202" y="-150" font-family="Helvetica,sans-Serif" font-size="10.00">Common/Animator/ssplayer</text>
<text text-anchor="middle" x="262.75" y="-138.75" font-family="Helvetica,sans-Serif" font-size="10.00">_effect.h</text>
</a>
</g>
</g>
<!-- Node5&#45;&gt;Node16 -->
<g id="edge19_Node000005_Node000016" class="edge">
<title>Node5&#45;&gt;Node16</title>
<g id="a_edge19_Node000005_Node000016"><a xlink:title=" ">
<path fill="none" stroke="#63b8ff" d="M645.22,-265.69C574.81,-260.8 470.11,-248.7 383.75,-218.75 345.53,-205.49 305.68,-179.96 282.6,-163.8"/>
<polygon fill="#63b8ff" stroke="#63b8ff" points="644.94,-269.18 655.15,-266.34 645.4,-262.19 644.94,-269.18"/>
</a>
</g>
</g>
<!-- Node18 -->
<g id="Node000018" class="node">
<title>Node18</title>
<g id="a_Node000018"><a xlink:href="ssplayer__types_8h.html" target="_top" xlink:title=" ">
<polygon fill="white" stroke="#666666" points="601.5,-163.5 464,-163.5 464,-133 601.5,-133 601.5,-163.5"/>
<text text-anchor="start" x="472" y="-150" font-family="Helvetica,sans-Serif" font-size="10.00">Common/Animator/ssplayer</text>
<text text-anchor="middle" x="532.75" y="-138.75" font-family="Helvetica,sans-Serif" font-size="10.00">_types.h</text>
</a>
</g>
</g>
<!-- Node5&#45;&gt;Node18 -->
<g id="edge31_Node000005_Node000018" class="edge">
<title>Node5&#45;&gt;Node18</title>
<g id="a_edge31_Node000005_Node000018"><a xlink:title=" ">
<path fill="none" stroke="#63b8ff" d="M645.71,-262.94C612.7,-256.52 576.39,-243.78 551.75,-218.75 537.27,-204.04 533.56,-179.42 532.76,-163.78"/>
<polygon fill="#63b8ff" stroke="#63b8ff" points="644.81,-266.33 655.26,-264.62 646.02,-259.44 644.81,-266.33"/>
</a>
</g>
</g>
<!-- Node19 -->
<g id="Node000019" class="node">
<title>Node19</title>
<g id="a_Node000019"><a xlink:href="ss_helper_8h.html" target="_top" xlink:title=" ">
<polygon fill="white" stroke="#666666" points="697.12,-218.75 560.38,-218.75 560.38,-199.5 697.12,-199.5 697.12,-218.75"/>
<text text-anchor="middle" x="628.75" y="-205.25" font-family="Helvetica,sans-Serif" font-size="10.00">Common/Helper/ssHelper.h</text>
</a>
</g>
</g>
<!-- Node5&#45;&gt;Node19 -->
<g id="edge33_Node000005_Node000019" class="edge">
<title>Node5&#45;&gt;Node19</title>
<g id="a_edge33_Node000005_Node000019"><a xlink:title=" ">
<path fill="none" stroke="#63b8ff" d="M700.39,-254.06C682.44,-243.05 658.6,-228.43 643.47,-219.15"/>
<polygon fill="#63b8ff" stroke="#63b8ff" points="698.53,-257.02 708.88,-259.27 702.18,-251.06 698.53,-257.02"/>
</a>
</g>
</g>
<!-- Node22 -->
<g id="Node000022" class="node">
<title>Node22</title>
<g id="a_Node000022"><a xlink:href="_ss_effect_element_8cpp.html" target="_top" xlink:title=" ">
<polygon fill="white" stroke="#666666" points="936.75,-218.75 752.75,-218.75 752.75,-199.5 936.75,-199.5 936.75,-218.75"/>
<text text-anchor="middle" x="844.75" y="-205.25" font-family="Helvetica,sans-Serif" font-size="10.00">Common/Loader/SsEffectElement.cpp</text>
</a>
</g>
</g>
<!-- Node5&#45;&gt;Node22 -->
<g id="edge38_Node000005_Node000022" class="edge">
<title>Node5&#45;&gt;Node22</title>
<g id="a_edge38_Node000005_Node000022"><a xlink:title=" ">
<path fill="none" stroke="#63b8ff" d="M753.3,-254.99C775.97,-243.87 806.98,-228.65 826.44,-219.11"/>
<polygon fill="#63b8ff" stroke="#63b8ff" points="752.03,-251.72 744.6,-259.26 755.12,-258 752.03,-251.72"/>
</a>
</g>
</g>
<!-- Node23 -->
<g id="Node000023" class="node">
<title>Node23</title>
<g id="a_Node000023"><a xlink:href="ss_interpolation_8cpp.html" target="_top" xlink:title=" ">
<polygon fill="white" stroke="#666666" points="1128.5,-218.75 955,-218.75 955,-199.5 1128.5,-199.5 1128.5,-218.75"/>
<text text-anchor="middle" x="1041.75" y="-205.25" font-family="Helvetica,sans-Serif" font-size="10.00">Common/Loader/ssInterpolation.cpp</text>
</a>
</g>
</g>
<!-- Node5&#45;&gt;Node23 -->
<g id="edge39_Node000005_Node000023" class="edge">
<title>Node5&#45;&gt;Node23</title>
<g id="a_edge39_Node000005_Node000023"><a xlink:title=" ">
<path fill="none" stroke="#63b8ff" d="M784.83,-257.84C845.13,-246.64 936.87,-229.6 992.86,-219.21"/>
<polygon fill="#63b8ff" stroke="#63b8ff" points="784.27,-254.39 775.07,-259.65 785.55,-261.27 784.27,-254.39"/>
</a>
</g>
</g>
<!-- Node24 -->
<g id="Node000024" class="node">
<title>Node24</title>
<g id="a_Node000024"><a xlink:href="ssattribute_8cpp.html" target="_top" xlink:title=" ">
<polygon fill="white" stroke="#666666" points="1416.5,-218.75 1261,-218.75 1261,-199.5 1416.5,-199.5 1416.5,-218.75"/>
<text text-anchor="middle" x="1338.75" y="-205.25" font-family="Helvetica,sans-Serif" font-size="10.00">Common/Loader/ssattribute.cpp</text>
</a>
</g>
</g>
<!-- Node5&#45;&gt;Node24 -->
<g id="edge40_Node000005_Node000024" class="edge">
<title>Node5&#45;&gt;Node24</title>
<g id="a_edge40_Node000005_Node000024"><a xlink:title=" ">
<path fill="none" stroke="#63b8ff" d="M786.23,-258.19C794.46,-256.92 802.8,-255.74 810.75,-254.75 1003.71,-230.84 1053.06,-235.82 1246.75,-218.75 1251.38,-218.34 1256.15,-217.91 1260.96,-217.48"/>
<polygon fill="#63b8ff" stroke="#63b8ff" points="785.95,-254.69 776.62,-259.71 787.05,-261.6 785.95,-254.69"/>
</a>
</g>
</g>
<!-- Node8&#45;&gt;Node6 -->
<g id="edge8_Node000008_Node000006" class="edge">
<title>Node8&#45;&gt;Node6</title>
<g id="a_edge8_Node000008_Node000006"><a xlink:title=" ">
<path fill="none" stroke="#63b8ff" d="M843.37,-73.71C935.39,-65.27 1090.29,-49.81 1222.75,-30.5 1225.75,-30.06 1228.8,-29.6 1231.89,-29.11"/>
<polygon fill="#63b8ff" stroke="#63b8ff" points="843.06,-70.23 833.42,-74.62 843.7,-77.2 843.06,-70.23"/>
</a>
</g>
</g>
<!-- Node8&#45;&gt;Node7 -->
<g id="edge9_Node000008_Node000007" class="edge">
<title>Node8&#45;&gt;Node7</title>
<g id="a_edge9_Node000008_Node000007"><a xlink:title=" ">
<path fill="none" stroke="#63b8ff" d="M700.51,-62.99C665.16,-52.9 621.46,-40.43 588.09,-30.9"/>
<polygon fill="#63b8ff" stroke="#63b8ff" points="699.15,-66.24 709.73,-65.62 701.07,-59.51 699.15,-66.24"/>
</a>
</g>
</g>
<!-- Node8&#45;&gt;Node9 -->
<g id="edge10_Node000008_Node000009" class="edge">
<title>Node8&#45;&gt;Node9</title>
<g id="a_edge10_Node000008_Node000009"><a xlink:title=" ">
<path fill="none" stroke="#63b8ff" d="M824.99,-62.99C860.34,-52.9 904.04,-40.43 937.41,-30.9"/>
<polygon fill="#63b8ff" stroke="#63b8ff" points="824.43,-59.51 815.77,-65.62 826.35,-66.24 824.43,-59.51"/>
</a>
</g>
</g>
<!-- Node8&#45;&gt;Node10 -->
<g id="edge11_Node000008_Node000010" class="edge">
<title>Node8&#45;&gt;Node10</title>
<g id="a_edge11_Node000008_Node000010"><a xlink:title=" ">
<path fill="none" stroke="#63b8ff" d="M682.13,-73.71C590.11,-65.27 435.21,-49.81 302.75,-30.5 299.75,-30.06 296.7,-29.6 293.61,-29.11"/>
<polygon fill="#63b8ff" stroke="#63b8ff" points="681.8,-77.2 692.08,-74.62 682.44,-70.23 681.8,-77.2"/>
</a>
</g>
</g>
<!-- Node8&#45;&gt;Node11 -->
<g id="edge12_Node000008_Node000011" class="edge">
<title>Node8&#45;&gt;Node11</title>
<g id="a_edge12_Node000008_Node000011"><a xlink:title=" ">
<path fill="none" stroke="#63b8ff" d="M682.42,-67.85C621.1,-57.91 534.54,-43.69 458.75,-30.5 455.77,-29.98 452.72,-29.45 449.64,-28.9"/>
<polygon fill="#63b8ff" stroke="#63b8ff" points="681.65,-71.27 692.08,-69.41 682.77,-64.36 681.65,-71.27"/>
</a>
</g>
</g>
<!-- Node8&#45;&gt;Node12 -->
<g id="edge13_Node000008_Node000012" class="edge">
<title>Node8&#45;&gt;Node12</title>
<g id="a_edge13_Node000008_Node000012"><a xlink:title=" ">
<path fill="none" stroke="#63b8ff" d="M682.28,-76.74C564.39,-70.29 337.98,-55.7 146.75,-30.5 143.75,-30.1 140.68,-29.67 137.59,-29.21"/>
<polygon fill="#63b8ff" stroke="#63b8ff" points="682,-80.23 692.18,-77.28 682.38,-73.24 682,-80.23"/>
</a>
</g>
</g>
<!-- Node8&#45;&gt;Node13 -->
<g id="edge14_Node000008_Node000013" class="edge">
<title>Node8&#45;&gt;Node13</title>
<g id="a_edge14_Node000008_Node000013"><a xlink:title=" ">
<path fill="none" stroke="#63b8ff" d="M843.08,-67.85C904.4,-57.91 990.96,-43.69 1066.75,-30.5 1069.73,-29.98 1072.78,-29.45 1075.86,-28.9"/>
<polygon fill="#63b8ff" stroke="#63b8ff" points="842.73,-64.36 833.42,-69.41 843.85,-71.27 842.73,-64.36"/>
</a>
</g>
</g>
<!-- Node14 -->
<g id="Node000014" class="node">
<title>Node14</title>
<g id="a_Node000014"><a xlink:href="ssplayer__render__dx9_8cpp.html" target="_top" xlink:title=" ">
<polygon fill="white" stroke="#666666" points="753.75,-30.5 623.75,-30.5 623.75,0 753.75,0 753.75,-30.5"/>
<text text-anchor="start" x="631.75" y="-17" font-family="Helvetica,sans-Serif" font-size="10.00">Common/Drawer/ssplayer</text>
<text text-anchor="middle" x="688.75" y="-5.75" font-family="Helvetica,sans-Serif" font-size="10.00">_render_dx9.cpp</text>
</a>
</g>
</g>
<!-- Node8&#45;&gt;Node14 -->
<g id="edge15_Node000008_Node000014" class="edge">
<title>Node8&#45;&gt;Node14</title>
<g id="a_edge15_Node000008_Node000014"><a xlink:title=" ">
<path fill="none" stroke="#63b8ff" d="M737.5,-58.74C726.93,-49.53 714.92,-39.06 705.48,-30.83"/>
<polygon fill="#63b8ff" stroke="#63b8ff" points="734.98,-61.19 744.82,-65.12 739.58,-55.91 734.98,-61.19"/>
</a>
</g>
</g>
<!-- Node15 -->
<g id="Node000015" class="node">
<title>Node15</title>
<g id="a_Node000015"><a xlink:href="ssplayer__render__gl_8cpp.html" target="_top" xlink:title=" ">
<polygon fill="white" stroke="#666666" points="901.75,-30.5 771.75,-30.5 771.75,0 901.75,0 901.75,-30.5"/>
<text text-anchor="start" x="779.75" y="-17" font-family="Helvetica,sans-Serif" font-size="10.00">Common/Drawer/ssplayer</text>
<text text-anchor="middle" x="836.75" y="-5.75" font-family="Helvetica,sans-Serif" font-size="10.00">_render_gl.cpp</text>
</a>
</g>
</g>
<!-- Node8&#45;&gt;Node15 -->
<g id="edge16_Node000008_Node000015" class="edge">
<title>Node8&#45;&gt;Node15</title>
<g id="a_edge16_Node000008_Node000015"><a xlink:title=" ">
<path fill="none" stroke="#63b8ff" d="M788,-58.74C798.57,-49.53 810.58,-39.06 820.02,-30.83"/>
<polygon fill="#63b8ff" stroke="#63b8ff" points="785.92,-55.91 780.68,-65.12 790.52,-61.19 785.92,-55.91"/>
</a>
</g>
</g>
<!-- Node16&#45;&gt;Node7 -->
<g id="edge20_Node000016_Node000007" class="edge">
<title>Node16&#45;&gt;Node7</title>
<g id="a_edge20_Node000016_Node000007"><a xlink:title=" ">
<path fill="none" stroke="#63b8ff" d="M300.2,-127.46C332.23,-110.71 379.68,-86.35 421.75,-66.5 448.35,-53.95 478.88,-40.66 501.79,-30.9"/>
<polygon fill="#63b8ff" stroke="#63b8ff" points="298.94,-124.16 291.71,-131.91 302.19,-130.36 298.94,-124.16"/>
</a>
</g>
</g>
<!-- Node16&#45;&gt;Node10 -->
<g id="edge21_Node000016_Node000010" class="edge">
<title>Node16&#45;&gt;Node10</title>
<g id="a_edge21_Node000016_Node000010"><a xlink:title=" ">
<path fill="none" stroke="#63b8ff" d="M215.31,-127.11C203.18,-119.53 191.63,-109.61 184.75,-97 172.32,-74.2 192.83,-47.02 208.78,-30.72"/>
<polygon fill="#63b8ff" stroke="#63b8ff" points="213.35,-130.02 223.77,-131.94 216.82,-123.94 213.35,-130.02"/>
</a>
</g>
</g>
<!-- Node16&#45;&gt;Node12 -->
<g id="edge23_Node000016_Node000012" class="edge">
<title>Node16&#45;&gt;Node12</title>
<g id="a_edge23_Node000016_Node000012"><a xlink:title=" ">
<path fill="none" stroke="#63b8ff" d="M226.18,-127.1C210.69,-118.25 192.59,-107.5 176.75,-97 144.16,-75.4 108.13,-47.62 87.02,-30.91"/>
<polygon fill="#63b8ff" stroke="#63b8ff" points="224.19,-129.99 234.61,-131.87 227.63,-123.9 224.19,-129.99"/>
</a>
</g>
</g>
<!-- Node16&#45;&gt;Node16 -->
<g id="edge22_Node000016_Node000016" class="edge">
<title>Node16&#45;&gt;Node16</title>
<g id="a_edge22_Node000016_Node000016"><a xlink:title=" ">
<path fill="none" stroke="#63b8ff" d="M342.73,-155.79C346.98,-153.94 349.5,-151.43 349.5,-148.25 349.5,-142.9 342.35,-139.43 331.83,-137.84"/>
<polygon fill="#63b8ff" stroke="#63b8ff" points="342.07,-152.35 333.29,-158.27 343.85,-159.11 342.07,-152.35"/>
</a>
</g>
</g>
<!-- Node17 -->
<g id="Node000017" class="node">
<title>Node17</title>
<g id="a_Node000017"><a xlink:href="ssplayer__effectfunction_8h.html" target="_top" xlink:title=" ">
<polygon fill="white" stroke="#666666" points="331.5,-97 194,-97 194,-66.5 331.5,-66.5 331.5,-97"/>
<text text-anchor="start" x="202" y="-83.5" font-family="Helvetica,sans-Serif" font-size="10.00">Common/Animator/ssplayer</text>
<text text-anchor="middle" x="262.75" y="-72.25" font-family="Helvetica,sans-Serif" font-size="10.00">_effectfunction.h</text>
</a>
</g>
</g>
<!-- Node16&#45;&gt;Node17 -->
<g id="edge24_Node000016_Node000017" class="edge">
<title>Node16&#45;&gt;Node17</title>
<g id="a_edge24_Node000016_Node000017"><a xlink:title=" ">
<path fill="none" stroke="#63b8ff" d="M262.75,-121.31C262.75,-113.14 262.75,-104.41 262.75,-97.33"/>
<polygon fill="#63b8ff" stroke="#63b8ff" points="259.25,-121.1 262.75,-131.1 266.25,-121.1 259.25,-121.1"/>
</a>
</g>
</g>
<!-- Node17&#45;&gt;Node10 -->
<g id="edge25_Node000017_Node000010" class="edge">
<title>Node17&#45;&gt;Node10</title>
<g id="a_edge25_Node000017_Node000010"><a xlink:title=" ">
<path fill="none" stroke="#63b8ff" d="M248.3,-56.23C243.26,-47.66 237.75,-38.32 233.34,-30.83"/>
<polygon fill="#63b8ff" stroke="#63b8ff" points="245.27,-57.97 253.36,-64.81 251.3,-54.42 245.27,-57.97"/>
</a>
</g>
</g>
<!-- Node17&#45;&gt;Node11 -->
<g id="edge26_Node000017_Node000011" class="edge">
<title>Node17&#45;&gt;Node11</title>
<g id="a_edge26_Node000017_Node000011"><a xlink:title=" ">
<path fill="none" stroke="#63b8ff" d="M299.51,-60.66C317.17,-51 337.96,-39.64 354.08,-30.83"/>
<polygon fill="#63b8ff" stroke="#63b8ff" points="297.95,-57.52 290.85,-65.39 301.31,-63.66 297.95,-57.52"/>
</a>
</g>
</g>
<!-- Node17&#45;&gt;Node12 -->
<g id="edge27_Node000017_Node000012" class="edge">
<title>Node17&#45;&gt;Node12</title>
<g id="a_edge27_Node000017_Node000012"><a xlink:title=" ">
<path fill="none" stroke="#63b8ff" d="M207.99,-62.54C177.93,-52.55 141.14,-40.32 112.93,-30.94"/>
<polygon fill="#63b8ff" stroke="#63b8ff" points="206.7,-65.8 217.29,-65.64 208.91,-59.16 206.7,-65.8"/>
</a>
</g>
</g>
<!-- Node18&#45;&gt;Node8 -->
<g id="edge32_Node000018_Node000008" class="edge">
<title>Node18&#45;&gt;Node8</title>
<g id="a_edge32_Node000018_Node000008"><a xlink:title=" ">
<path fill="none" stroke="#63b8ff" d="M596.1,-129.49C632.06,-119.4 676.54,-106.93 710.5,-97.4"/>
<polygon fill="#63b8ff" stroke="#63b8ff" points="595.37,-126.05 586.69,-132.12 597.26,-132.79 595.37,-126.05"/>
</a>
</g>
</g>
<!-- Node19&#45;&gt;Node8 -->
<g id="edge34_Node000019_Node000008" class="edge">
<title>Node19&#45;&gt;Node8</title>
<g id="a_edge34_Node000019_Node000008"><a xlink:title=" ">
<path fill="none" stroke="#63b8ff" d="M708.37,-197.95C788.51,-187.32 901.22,-171.15 907.75,-163.5 935.65,-130.78 881.74,-108.76 831.92,-96.09"/>
<polygon fill="#63b8ff" stroke="#63b8ff" points="708.25,-194.43 698.79,-199.21 709.17,-201.37 708.25,-194.43"/>
</a>
</g>
</g>
<!-- Node19&#45;&gt;Node18 -->
<g id="edge35_Node000019_Node000018" class="edge">
<title>Node19&#45;&gt;Node18</title>
<g id="a_edge35_Node000019_Node000018"><a xlink:title=" ">
<path fill="none" stroke="#63b8ff" d="M604.7,-193.38C589.95,-184.33 571.14,-172.79 556.45,-163.78"/>
<polygon fill="#63b8ff" stroke="#63b8ff" points="602.53,-196.15 612.88,-198.39 606.18,-190.18 602.53,-196.15"/>
</a>
</g>
</g>
<!-- Node20 -->
<g id="Node000020" class="node">
<title>Node20</title>
<g id="a_Node000020"><a xlink:href="_s_s_texture_d_x9_8cpp.html" target="_top" xlink:title=" ">
<polygon fill="white" stroke="#666666" points="742.38,-163.5 619.12,-163.5 619.12,-133 742.38,-133 742.38,-163.5"/>
<text text-anchor="start" x="627.12" y="-150" font-family="Helvetica,sans-Serif" font-size="10.00">Common/Helper/DirectX</text>
<text text-anchor="middle" x="680.75" y="-138.75" font-family="Helvetica,sans-Serif" font-size="10.00">/SSTextureDX9.cpp</text>
</a>
</g>
</g>
<!-- Node19&#45;&gt;Node20 -->
<g id="edge36_Node000019_Node000020" class="edge">
<title>Node19&#45;&gt;Node20</title>
<g id="a_edge36_Node000019_Node000020"><a xlink:title=" ">
<path fill="none" stroke="#63b8ff" d="M644.14,-190.7C651.71,-182.13 660.72,-171.92 667.91,-163.78"/>
<polygon fill="#63b8ff" stroke="#63b8ff" points="641.65,-188.24 637.65,-198.05 646.89,-192.87 641.65,-188.24"/>
</a>
</g>
</g>
<!-- Node21 -->
<g id="Node000021" class="node">
<title>Node21</title>
<g id="a_Node000021"><a xlink:href="ssh_texture_b_m_p_8cpp.html" target="_top" xlink:title=" ">
<polygon fill="white" stroke="#666666" points="898.88,-163.5 760.62,-163.5 760.62,-133 898.88,-133 898.88,-163.5"/>
<text text-anchor="start" x="768.62" y="-150" font-family="Helvetica,sans-Serif" font-size="10.00">Common/Helper/sshTexture</text>
<text text-anchor="middle" x="829.75" y="-138.75" font-family="Helvetica,sans-Serif" font-size="10.00">BMP.cpp</text>
</a>
</g>
</g>
<!-- Node19&#45;&gt;Node21 -->
<g id="edge37_Node000019_Node000021" class="edge">
<title>Node19&#45;&gt;Node21</title>
<g id="a_edge37_Node000019_Node000021"><a xlink:title=" ">
<path fill="none" stroke="#63b8ff" d="M670.4,-195.93C702.12,-186.63 745.93,-173.8 779.58,-163.94"/>
<polygon fill="#63b8ff" stroke="#63b8ff" points="669.78,-192.46 661.17,-198.63 671.75,-199.18 669.78,-192.46"/>
</a>
</g>
</g>
<!-- Node27&#45;&gt;Node5 -->
<g id="edge44_Node000027_Node000005" class="edge">
<title>Node27&#45;&gt;Node5</title>
<g id="a_edge44_Node000027_Node000005"><a xlink:title=" ">
<path fill="none" stroke="#63b8ff" d="M844.28,-316.89C812.73,-304.78 772.99,-289.52 748.22,-280.01"/>
<polygon fill="#63b8ff" stroke="#63b8ff" points="842.63,-320 853.22,-320.32 845.13,-313.47 842.63,-320"/>
</a>
</g>
</g>
<!-- Node27&#45;&gt;Node25 -->
<g id="edge45_Node000027_Node000025" class="edge">
<title>Node27&#45;&gt;Node25</title>
<g id="a_edge45_Node000027_Node000025"><a xlink:title=" ">
<path fill="none" stroke="#63b8ff" d="M934,-316.08C954.81,-306.28 979.63,-294.6 998.79,-285.58"/>
<polygon fill="#63b8ff" stroke="#63b8ff" points="932.76,-312.79 925.21,-320.22 935.75,-319.13 932.76,-312.79"/>
</a>
</g>
</g>
<!-- Node27&#45;&gt;Node26 -->
<g id="edge46_Node000027_Node000026" class="edge">
<title>Node27&#45;&gt;Node26</title>
<g id="a_edge46_Node000027_Node000026"><a xlink:title=" ">
<path fill="none" stroke="#63b8ff" d="M889.13,-309.56C887.99,-301.39 886.77,-292.66 885.78,-285.58"/>
<polygon fill="#63b8ff" stroke="#63b8ff" points="885.65,-309.94 890.5,-319.36 892.58,-308.98 885.65,-309.94"/>
</a>
</g>
</g>
<!-- Node28&#45;&gt;Node5 -->
<g id="edge49_Node000028_Node000005" class="edge">
<title>Node28&#45;&gt;Node5</title>
<g id="a_edge49_Node000028_Node000005"><a xlink:title=" ">
<path fill="none" stroke="#63b8ff" d="M921.73,-453.98C848.24,-445.38 751.28,-431.7 738.75,-418.25 702.17,-378.98 715.99,-305.69 722.29,-280.1"/>
<polygon fill="#63b8ff" stroke="#63b8ff" points="921.01,-457.42 931.35,-455.09 921.82,-450.47 921.01,-457.42"/>
</a>
</g>
</g>
<!-- Node28&#45;&gt;Node24 -->
<g id="edge48_Node000028_Node000024" class="edge">
<title>Node28&#45;&gt;Node24</title>
<g id="a_edge48_Node000028_Node000024"><a xlink:title=" ">
<path fill="none" stroke="#63b8ff" d="M1032.23,-448.59C1048.32,-439.88 1069.26,-428.49 1087.75,-418.25 1140.41,-389.08 1158.38,-388.9 1205.75,-351.75 1260.69,-308.67 1313.74,-242.66 1332.04,-218.97"/>
<polygon fill="#63b8ff" stroke="#63b8ff" points="1030.9,-445.33 1023.77,-453.17 1034.23,-451.49 1030.9,-445.33"/>
</a>
</g>
</g>
<!-- Node29 -->
<g id="Node000029" class="node">
<title>Node29</title>
<g id="a_Node000029"><a xlink:href="ssloader__ssae_8h.html" target="_top" xlink:title=" ">
<polygon fill="white" stroke="#666666" points="1078.62,-418.25 950.88,-418.25 950.88,-387.75 1078.62,-387.75 1078.62,-418.25"/>
<text text-anchor="start" x="958.88" y="-404.75" font-family="Helvetica,sans-Serif" font-size="10.00">Common/Loader/ssloader</text>
<text text-anchor="middle" x="1014.75" y="-393.5" font-family="Helvetica,sans-Serif" font-size="10.00">_ssae.h</text>
</a>
</g>
</g>
<!-- Node28&#45;&gt;Node29 -->
<g id="edge50_Node000028_Node000029" class="edge">
<title>Node28&#45;&gt;Node29</title>
<g id="a_edge50_Node000028_Node000029"><a xlink:title=" ">
<path fill="none" stroke="#63b8ff" d="M1008.84,-442.67C1010.05,-434.74 1011.42,-425.81 1012.53,-418.53"/>
<polygon fill="#63b8ff" stroke="#63b8ff" points="1005.4,-442.02 1007.35,-452.44 1012.32,-443.08 1005.4,-442.02"/>
</a>
</g>
</g>
<!-- Node29&#45;&gt;Node5 -->
<g id="edge51_Node000029_Node000005" class="edge">
<title>Node29&#45;&gt;Node5</title>
<g id="a_edge51_Node000029_Node000005"><a xlink:title=" ">
<path fill="none" stroke="#63b8ff" d="M939.79,-390.9C902.27,-383.34 857.04,-371.08 819.75,-351.75 810.09,-346.74 757.04,-299.82 734.68,-279.89"/>
<polygon fill="#63b8ff" stroke="#63b8ff" points="938.69,-394.25 949.17,-392.72 940.02,-387.38 938.69,-394.25"/>
</a>
</g>
</g>
<!-- Node29&#45;&gt;Node25 -->
<g id="edge53_Node000029_Node000025" class="edge">
<title>Node29&#45;&gt;Node25</title>
<g id="a_edge53_Node000029_Node000025"><a xlink:title=" ">
<path fill="none" stroke="#63b8ff" d="M1089.85,-389.38C1130.76,-380.81 1175.49,-368.07 1187.75,-351.75 1217.02,-312.77 1149.73,-291.12 1094.07,-280.28"/>
<polygon fill="#63b8ff" stroke="#63b8ff" points="1089.32,-385.92 1080.21,-391.33 1090.7,-392.78 1089.32,-385.92"/>
</a>
</g>
</g>
<!-- Node29&#45;&gt;Node26 -->
<g id="edge54_Node000029_Node000026" class="edge">
<title>Node29&#45;&gt;Node26</title>
<g id="a_edge54_Node000029_Node000026"><a xlink:title=" ">
<path fill="none" stroke="#63b8ff" d="M1003.56,-377.11C994.98,-359.97 981.88,-337.46 965.75,-321.25 951.14,-306.58 931.45,-294.33 915.02,-285.6"/>
<polygon fill="#63b8ff" stroke="#63b8ff" points="1000.4,-378.61 1007.88,-386.11 1006.71,-375.58 1000.4,-378.61"/>
</a>
</g>
</g>
<!-- Node29&#45;&gt;Node27 -->
<g id="edge55_Node000029_Node000027" class="edge">
<title>Node29&#45;&gt;Node27</title>
<g id="a_edge55_Node000029_Node000027"><a xlink:title=" ">
<path fill="none" stroke="#63b8ff" d="M977,-382.04C958.68,-372.36 937.07,-360.93 920.32,-352.08"/>
<polygon fill="#63b8ff" stroke="#63b8ff" points="975.25,-385.08 985.73,-386.66 978.52,-378.89 975.25,-385.08"/>
</a>
</g>
</g>
<!-- Node30 -->
<g id="Node000030" class="node">
<title>Node30</title>
<g id="a_Node000030"><a xlink:href="ssloader__ssae_8cpp.html" target="_top" xlink:title=" ">
<polygon fill="white" stroke="#666666" points="1178.62,-351.75 1050.88,-351.75 1050.88,-321.25 1178.62,-321.25 1178.62,-351.75"/>
<text text-anchor="start" x="1058.88" y="-338.25" font-family="Helvetica,sans-Serif" font-size="10.00">Common/Loader/ssloader</text>
<text text-anchor="middle" x="1114.75" y="-327" font-family="Helvetica,sans-Serif" font-size="10.00">_ssae.cpp</text>
</a>
</g>
</g>
<!-- Node29&#45;&gt;Node30 -->
<g id="edge52_Node000029_Node000030" class="edge">
<title>Node29&#45;&gt;Node30</title>
<g id="a_edge52_Node000029_Node000030"><a xlink:title=" ">
<path fill="none" stroke="#63b8ff" d="M1046.74,-381.36C1061.53,-371.83 1078.74,-360.73 1092.15,-352.08"/>
<polygon fill="#63b8ff" stroke="#63b8ff" points="1045.22,-378.18 1038.71,-386.54 1049.01,-384.06 1045.22,-378.18"/>
</a>
</g>
</g>
</g>
</svg>
