<?xml version="1.0" encoding="UTF-8" standalone="no"?>
<!DOCTYPE svg PUBLIC "-//W3C//DTD SVG 1.1//EN"
 "http://www.w3.org/Graphics/SVG/1.1/DTD/svg11.dtd">
<!-- Generated by graphviz version 12.2.1 (20241206.2353)
 -->
<!-- Title: Common/Animator/xorshift32.h Pages: 1 -->
<svg width="1378pt" height="293pt"
 viewBox="0.00 0.00 1377.50 293.25" xmlns="http://www.w3.org/2000/svg" xmlns:xlink="http://www.w3.org/1999/xlink">
<g id="graph0" class="graph" transform="scale(1 1) rotate(0) translate(4 289.25)">
<title>Common/Animator/xorshift32.h</title>
<!-- Node1 -->
<g id="Node000001" class="node">
<title>Node1</title>
<g id="a_Node000001"><a xlink:title=" ">
<polygon fill="#999999" stroke="#666666" points="865.62,-285.25 713.88,-285.25 713.88,-266 865.62,-266 865.62,-285.25"/>
<text text-anchor="middle" x="789.75" y="-271.75" font-family="Helvetica,sans-Serif" font-size="10.00">Common/Animator/xorshift32.h</text>
</a>
</g>
</g>
<!-- Node2 -->
<g id="Node000002" class="node">
<title>Node2</title>
<g id="a_Node000002"><a xlink:href="ssplayer__effect2_8h.html" target="_top" xlink:title=" ">
<polygon fill="white" stroke="#666666" points="858.5,-230 721,-230 721,-199.5 858.5,-199.5 858.5,-230"/>
<text text-anchor="start" x="729" y="-216.5" font-family="Helvetica,sans-Serif" font-size="10.00">Common/Animator/ssplayer</text>
<text text-anchor="middle" x="789.75" y="-205.25" font-family="Helvetica,sans-Serif" font-size="10.00">_effect2.h</text>
</a>
</g>
</g>
<!-- Node1&#45;&gt;Node2 -->
<g id="edge1_Node000001_Node000002" class="edge">
<title>Node1&#45;&gt;Node2</title>
<g id="a_edge1_Node000001_Node000002"><a xlink:title=" ">
<path fill="none" stroke="#63b8ff" d="M789.75,-254.42C789.75,-246.49 789.75,-237.56 789.75,-230.28"/>
<polygon fill="#63b8ff" stroke="#63b8ff" points="786.25,-254.17 789.75,-264.17 793.25,-254.17 786.25,-254.17"/>
</a>
</g>
</g>
<!-- Node3 -->
<g id="Node000003" class="node">
<title>Node3</title>
<g id="a_Node000003"><a xlink:href="ssplayer___part_state_8h.html" target="_top" xlink:title=" ">
<polygon fill="white" stroke="#666666" points="563.5,-163.5 426,-163.5 426,-133 563.5,-133 563.5,-163.5"/>
<text text-anchor="start" x="434" y="-150" font-family="Helvetica,sans-Serif" font-size="10.00">Common/Animator/ssplayer</text>
<text text-anchor="middle" x="494.75" y="-138.75" font-family="Helvetica,sans-Serif" font-size="10.00">_PartState.h</text>
</a>
</g>
</g>
<!-- Node2&#45;&gt;Node3 -->
<g id="edge2_Node000002_Node000003" class="edge">
<title>Node2&#45;&gt;Node3</title>
<g id="a_edge2_Node000002_Node000003"><a xlink:title=" ">
<path fill="none" stroke="#63b8ff" d="M711.19,-196.57C664.69,-186.41 606.4,-173.66 562.02,-163.96"/>
<polygon fill="#63b8ff" stroke="#63b8ff" points="710.45,-199.99 720.96,-198.71 711.94,-193.15 710.45,-199.99"/>
</a>
</g>
</g>
<!-- Node6 -->
<g id="Node000006" class="node">
<title>Node6</title>
<g id="a_Node000006"><a xlink:href="ssplayer__animedecode_8cpp.html" target="_top" xlink:title=" ">
<polygon fill="white" stroke="#666666" points="293.5,-30.5 156,-30.5 156,0 293.5,0 293.5,-30.5"/>
<text text-anchor="start" x="164" y="-17" font-family="Helvetica,sans-Serif" font-size="10.00">Common/Animator/ssplayer</text>
<text text-anchor="middle" x="224.75" y="-5.75" font-family="Helvetica,sans-Serif" font-size="10.00">_animedecode.cpp</text>
</a>
</g>
</g>
<!-- Node2&#45;&gt;Node6 -->
<g id="edge14_Node000002_Node000006" class="edge">
<title>Node2&#45;&gt;Node6</title>
<g id="a_edge14_Node000002_Node000006"><a xlink:title=" ">
<path fill="none" stroke="#63b8ff" d="M740.82,-195.02C696.95,-178.36 630.74,-153.51 572.75,-133 464.76,-94.8 336.85,-52.69 270.24,-30.99"/>
<polygon fill="#63b8ff" stroke="#63b8ff" points="739.47,-198.25 750.06,-198.54 741.96,-191.71 739.47,-198.25"/>
</a>
</g>
</g>
<!-- Node9 -->
<g id="Node000009" class="node">
<title>Node9</title>
<g id="a_Node000009"><a xlink:href="ssplayer__effect2_8cpp.html" target="_top" xlink:title=" ">
<polygon fill="white" stroke="#666666" points="1369.5,-30.5 1232,-30.5 1232,0 1369.5,0 1369.5,-30.5"/>
<text text-anchor="start" x="1240" y="-17" font-family="Helvetica,sans-Serif" font-size="10.00">Common/Animator/ssplayer</text>
<text text-anchor="middle" x="1300.75" y="-5.75" font-family="Helvetica,sans-Serif" font-size="10.00">_effect2.cpp</text>
</a>
</g>
</g>
<!-- Node2&#45;&gt;Node9 -->
<g id="edge15_Node000002_Node000009" class="edge">
<title>Node2&#45;&gt;Node9</title>
<g id="a_edge15_Node000002_Node000009"><a xlink:title=" ">
<path fill="none" stroke="#63b8ff" d="M845.78,-195.56C912.03,-173.69 1025.35,-135.15 1120.75,-97 1174.02,-75.7 1234.64,-47.7 1270.19,-30.89"/>
<polygon fill="#63b8ff" stroke="#63b8ff" points="845,-192.13 836.6,-198.58 847.19,-198.78 845,-192.13"/>
</a>
</g>
</g>
<!-- Node14 -->
<g id="Node000014" class="node">
<title>Node14</title>
<g id="a_Node000014"><a xlink:href="ssplayer__effectfunction_8h.html" target="_top" xlink:title=" ">
<polygon fill="white" stroke="#666666" points="1111.5,-97 974,-97 974,-66.5 1111.5,-66.5 1111.5,-97"/>
<text text-anchor="start" x="982" y="-83.5" font-family="Helvetica,sans-Serif" font-size="10.00">Common/Animator/ssplayer</text>
<text text-anchor="middle" x="1042.75" y="-72.25" font-family="Helvetica,sans-Serif" font-size="10.00">_effectfunction.h</text>
</a>
</g>
</g>
<!-- Node2&#45;&gt;Node14 -->
<g id="edge16_Node000002_Node000014" class="edge">
<title>Node2&#45;&gt;Node14</title>
<g id="a_edge16_Node000002_Node000014"><a xlink:title=" ">
<path fill="none" stroke="#63b8ff" d="M827.8,-194.05C879.03,-167.52 969,-120.94 1014.58,-97.33"/>
<polygon fill="#63b8ff" stroke="#63b8ff" points="826.41,-190.83 819.14,-198.53 829.63,-197.04 826.41,-190.83"/>
</a>
</g>
</g>
<!-- Node4 -->
<g id="Node000004" class="node">
<title>Node4</title>
<g id="a_Node000004"><a xlink:href="ssplayer___part_state_8cpp.html" target="_top" xlink:title=" ">
<polygon fill="white" stroke="#666666" points="137.5,-30.5 0,-30.5 0,0 137.5,0 137.5,-30.5"/>
<text text-anchor="start" x="8" y="-17" font-family="Helvetica,sans-Serif" font-size="10.00">Common/Animator/ssplayer</text>
<text text-anchor="middle" x="68.75" y="-5.75" font-family="Helvetica,sans-Serif" font-size="10.00">_PartState.cpp</text>
</a>
</g>
</g>
<!-- Node3&#45;&gt;Node4 -->
<g id="edge3_Node000003_Node000004" class="edge">
<title>Node3&#45;&gt;Node4</title>
<g id="a_edge3_Node000003_Node000004"><a xlink:title=" ">
<path fill="none" stroke="#63b8ff" d="M436.36,-129.29C351.3,-103.14 194.93,-55.05 116.4,-30.9"/>
<polygon fill="#63b8ff" stroke="#63b8ff" points="435.09,-132.57 445.68,-132.16 437.15,-125.87 435.09,-132.57"/>
</a>
</g>
</g>
<!-- Node5 -->
<g id="Node000005" class="node">
<title>Node5</title>
<g id="a_Node000005"><a xlink:href="ssplayer__animedecode_8h.html" target="_top" xlink:title=" ">
<polygon fill="white" stroke="#666666" points="757.5,-97 620,-97 620,-66.5 757.5,-66.5 757.5,-97"/>
<text text-anchor="start" x="628" y="-83.5" font-family="Helvetica,sans-Serif" font-size="10.00">Common/Animator/ssplayer</text>
<text text-anchor="middle" x="688.75" y="-72.25" font-family="Helvetica,sans-Serif" font-size="10.00">_animedecode.h</text>
</a>
</g>
</g>
<!-- Node3&#45;&gt;Node5 -->
<g id="edge4_Node000003_Node000005" class="edge">
<title>Node3&#45;&gt;Node5</title>
<g id="a_edge4_Node000003_Node000005"><a xlink:title=" ">
<path fill="none" stroke="#63b8ff" d="M549.51,-129.04C579.57,-119.05 616.36,-106.82 644.57,-97.44"/>
<polygon fill="#63b8ff" stroke="#63b8ff" points="548.59,-125.66 540.21,-132.14 550.8,-132.3 548.59,-125.66"/>
</a>
</g>
</g>
<!-- Node5&#45;&gt;Node4 -->
<g id="edge5_Node000005_Node000004" class="edge">
<title>Node5&#45;&gt;Node4</title>
<g id="a_edge5_Node000005_Node000004"><a xlink:title=" ">
<path fill="none" stroke="#63b8ff" d="M608.41,-75.53C502.37,-68.13 310.02,-52.94 146.75,-30.5 143.75,-30.09 140.69,-29.64 137.6,-29.17"/>
<polygon fill="#63b8ff" stroke="#63b8ff" points="607.92,-79 618.14,-76.2 608.41,-72.02 607.92,-79"/>
</a>
</g>
</g>
<!-- Node5&#45;&gt;Node6 -->
<g id="edge6_Node000005_Node000006" class="edge">
<title>Node5&#45;&gt;Node6</title>
<g id="a_edge6_Node000005_Node000006"><a xlink:title=" ">
<path fill="none" stroke="#63b8ff" d="M608.29,-66.87C607.44,-66.75 606.59,-66.62 605.75,-66.5 471.54,-47.02 436.85,-50.7 302.75,-30.5 299.76,-30.05 296.7,-29.57 293.61,-29.07"/>
<polygon fill="#63b8ff" stroke="#63b8ff" points="607.59,-70.31 618,-68.36 608.65,-63.39 607.59,-70.31"/>
</a>
</g>
</g>
<!-- Node7 -->
<g id="Node000007" class="node">
<title>Node7</title>
<g id="a_Node000007"><a xlink:href="ssplayer__cellmap_8cpp.html" target="_top" xlink:title=" ">
<polygon fill="white" stroke="#666666" points="449.5,-30.5 312,-30.5 312,0 449.5,0 449.5,-30.5"/>
<text text-anchor="start" x="320" y="-17" font-family="Helvetica,sans-Serif" font-size="10.00">Common/Animator/ssplayer</text>
<text text-anchor="middle" x="380.75" y="-5.75" font-family="Helvetica,sans-Serif" font-size="10.00">_cellmap.cpp</text>
</a>
</g>
</g>
<!-- Node5&#45;&gt;Node7 -->
<g id="edge7_Node000005_Node000007" class="edge">
<title>Node5&#45;&gt;Node7</title>
<g id="a_edge7_Node000005_Node000007"><a xlink:title=" ">
<path fill="none" stroke="#63b8ff" d="M608.39,-63.92C559.19,-53.62 496.89,-40.57 449.91,-30.73"/>
<polygon fill="#63b8ff" stroke="#63b8ff" points="607.64,-67.34 618.15,-65.96 609.08,-60.49 607.64,-67.34"/>
</a>
</g>
</g>
<!-- Node8 -->
<g id="Node000008" class="node">
<title>Node8</title>
<g id="a_Node000008"><a xlink:href="ssplayer__effect_8cpp.html" target="_top" xlink:title=" ">
<polygon fill="white" stroke="#666666" points="1057.5,-30.5 920,-30.5 920,0 1057.5,0 1057.5,-30.5"/>
<text text-anchor="start" x="928" y="-17" font-family="Helvetica,sans-Serif" font-size="10.00">Common/Animator/ssplayer</text>
<text text-anchor="middle" x="988.75" y="-5.75" font-family="Helvetica,sans-Serif" font-size="10.00">_effect.cpp</text>
</a>
</g>
</g>
<!-- Node5&#45;&gt;Node8 -->
<g id="edge8_Node000005_Node000008" class="edge">
<title>Node5&#45;&gt;Node8</title>
<g id="a_edge8_Node000005_Node000008"><a xlink:title=" ">
<path fill="none" stroke="#63b8ff" d="M768.34,-63.64C815.68,-53.46 875.11,-40.68 920.33,-30.96"/>
<polygon fill="#63b8ff" stroke="#63b8ff" points="767.72,-60.19 758.68,-65.72 769.19,-67.03 767.72,-60.19"/>
</a>
</g>
</g>
<!-- Node5&#45;&gt;Node9 -->
<g id="edge9_Node000005_Node000009" class="edge">
<title>Node5&#45;&gt;Node9</title>
<g id="a_edge9_Node000005_Node000009"><a xlink:title=" ">
<path fill="none" stroke="#63b8ff" d="M769.09,-75.38C873.81,-67.87 1062.49,-52.64 1222.75,-30.5 1225.75,-30.09 1228.81,-29.64 1231.9,-29.16"/>
<polygon fill="#63b8ff" stroke="#63b8ff" points="768.91,-71.88 759.18,-76.08 769.41,-78.86 768.91,-71.88"/>
</a>
</g>
</g>
<!-- Node10 -->
<g id="Node000010" class="node">
<title>Node10</title>
<g id="a_Node000010"><a xlink:href="ssplayer__effectfunction_8cpp.html" target="_top" xlink:title=" ">
<polygon fill="white" stroke="#666666" points="1213.5,-30.5 1076,-30.5 1076,0 1213.5,0 1213.5,-30.5"/>
<text text-anchor="start" x="1084" y="-17" font-family="Helvetica,sans-Serif" font-size="10.00">Common/Animator/ssplayer</text>
<text text-anchor="middle" x="1144.75" y="-5.75" font-family="Helvetica,sans-Serif" font-size="10.00">_effectfunction.cpp</text>
</a>
</g>
</g>
<!-- Node5&#45;&gt;Node10 -->
<g id="edge10_Node000005_Node000010" class="edge">
<title>Node5&#45;&gt;Node10</title>
<g id="a_edge10_Node000005_Node000010"><a xlink:title=" ">
<path fill="none" stroke="#63b8ff" d="M768.86,-71.24C845.49,-61.88 964.22,-46.67 1066.75,-30.5 1069.74,-30.03 1072.79,-29.53 1075.88,-29.02"/>
<polygon fill="#63b8ff" stroke="#63b8ff" points="768.88,-67.72 759.37,-72.4 769.72,-74.67 768.88,-67.72"/>
</a>
</g>
</g>
<!-- Node11 -->
<g id="Node000011" class="node">
<title>Node11</title>
<g id="a_Node000011"><a xlink:href="ssplayer__mesh_8cpp.html" target="_top" xlink:title=" ">
<polygon fill="white" stroke="#666666" points="605.5,-30.5 468,-30.5 468,0 605.5,0 605.5,-30.5"/>
<text text-anchor="start" x="476" y="-17" font-family="Helvetica,sans-Serif" font-size="10.00">Common/Animator/ssplayer</text>
<text text-anchor="middle" x="536.75" y="-5.75" font-family="Helvetica,sans-Serif" font-size="10.00">_mesh.cpp</text>
</a>
</g>
</g>
<!-- Node5&#45;&gt;Node11 -->
<g id="edge11_Node000005_Node000011" class="edge">
<title>Node5&#45;&gt;Node11</title>
<g id="a_edge11_Node000005_Node000011"><a xlink:title=" ">
<path fill="none" stroke="#63b8ff" d="M643.97,-61.75C620.78,-51.91 592.89,-40.07 571.37,-30.94"/>
<polygon fill="#63b8ff" stroke="#63b8ff" points="642.29,-64.84 652.87,-65.52 645.03,-58.39 642.29,-64.84"/>
</a>
</g>
</g>
<!-- Node12 -->
<g id="Node000012" class="node">
<title>Node12</title>
<g id="a_Node000012"><a xlink:href="ssplayer__render__dx9_8cpp.html" target="_top" xlink:title=" ">
<polygon fill="white" stroke="#666666" points="753.75,-30.5 623.75,-30.5 623.75,0 753.75,0 753.75,-30.5"/>
<text text-anchor="start" x="631.75" y="-17" font-family="Helvetica,sans-Serif" font-size="10.00">Common/Drawer/ssplayer</text>
<text text-anchor="middle" x="688.75" y="-5.75" font-family="Helvetica,sans-Serif" font-size="10.00">_render_dx9.cpp</text>
</a>
</g>
</g>
<!-- Node5&#45;&gt;Node12 -->
<g id="edge12_Node000005_Node000012" class="edge">
<title>Node5&#45;&gt;Node12</title>
<g id="a_edge12_Node000005_Node000012"><a xlink:title=" ">
<path fill="none" stroke="#63b8ff" d="M688.75,-54.81C688.75,-46.64 688.75,-37.91 688.75,-30.83"/>
<polygon fill="#63b8ff" stroke="#63b8ff" points="685.25,-54.6 688.75,-64.6 692.25,-54.6 685.25,-54.6"/>
</a>
</g>
</g>
<!-- Node13 -->
<g id="Node000013" class="node">
<title>Node13</title>
<g id="a_Node000013"><a xlink:href="ssplayer__render__gl_8cpp.html" target="_top" xlink:title=" ">
<polygon fill="white" stroke="#666666" points="901.75,-30.5 771.75,-30.5 771.75,0 901.75,0 901.75,-30.5"/>
<text text-anchor="start" x="779.75" y="-17" font-family="Helvetica,sans-Serif" font-size="10.00">Common/Drawer/ssplayer</text>
<text text-anchor="middle" x="836.75" y="-5.75" font-family="Helvetica,sans-Serif" font-size="10.00">_render_gl.cpp</text>
</a>
</g>
</g>
<!-- Node5&#45;&gt;Node13 -->
<g id="edge13_Node000005_Node000013" class="edge">
<title>Node5&#45;&gt;Node13</title>
<g id="a_edge13_Node000005_Node000013"><a xlink:title=" ">
<path fill="none" stroke="#63b8ff" d="M732.65,-61.62C755.18,-51.8 782.18,-40.03 803.04,-30.94"/>
<polygon fill="#63b8ff" stroke="#63b8ff" points="731.49,-58.31 723.72,-65.51 734.29,-64.72 731.49,-58.31"/>
</a>
</g>
</g>
<!-- Node14&#45;&gt;Node8 -->
<g id="edge17_Node000014_Node000008" class="edge">
<title>Node14&#45;&gt;Node8</title>
<g id="a_edge17_Node000014_Node000008"><a xlink:title=" ">
<path fill="none" stroke="#63b8ff" d="M1023.16,-57.35C1015.74,-48.48 1007.51,-38.65 1000.95,-30.83"/>
<polygon fill="#63b8ff" stroke="#63b8ff" points="1020.42,-59.53 1029.52,-64.95 1025.79,-55.04 1020.42,-59.53"/>
</a>
</g>
</g>
<!-- Node14&#45;&gt;Node9 -->
<g id="edge18_Node000014_Node000009" class="edge">
<title>Node14&#45;&gt;Node9</title>
<g id="a_edge18_Node000014_Node000009"><a xlink:title=" ">
<path fill="none" stroke="#63b8ff" d="M1112.77,-63.25C1153.29,-53.11 1203.72,-40.51 1242.14,-30.9"/>
<polygon fill="#63b8ff" stroke="#63b8ff" points="1111.94,-59.85 1103.09,-65.67 1113.64,-66.64 1111.94,-59.85"/>
</a>
</g>
</g>
<!-- Node14&#45;&gt;Node10 -->
<g id="edge19_Node000014_Node000010" class="edge">
<title>Node14&#45;&gt;Node10</title>
<g id="a_edge19_Node000014_Node000010"><a xlink:title=" ">
<path fill="none" stroke="#63b8ff" d="M1075.38,-60.11C1090.47,-50.58 1108.02,-39.48 1121.7,-30.83"/>
<polygon fill="#63b8ff" stroke="#63b8ff" points="1073.76,-57 1067.17,-65.31 1077.5,-62.92 1073.76,-57"/>
</a>
</g>
</g>
</g>
</svg>
